<?xml version="1.0" encoding="UTF-8" standalone="no"?>
<!DOCTYPE svg PUBLIC "-//W3C//DTD SVG 1.1//EN"
 "http://www.w3.org/Graphics/SVG/1.1/DTD/svg11.dtd">
<!-- Generated by graphviz version 9.0.0 (20230911.1827)
 -->
<!-- Title: _LocalModule_120e5b3ceb1b.module Pages: 1 -->
<svg width="925pt" height="1210pt"
 viewBox="0.00 0.00 924.88 1210.25" xmlns="http://www.w3.org/2000/svg" xmlns:xlink="http://www.w3.org/1999/xlink">
<g id="graph0" class="graph" transform="scale(1 1) rotate(0) translate(4 1206.25)">
<title>_LocalModule_120e5b3ceb1b.module</title>
<polygon fill="lightgray" stroke="none" points="-4,4 -4,-1206.25 920.88,-1206.25 920.88,4 -4,4"/>
<!-- 16845 -->
<g id="node1" class="node">
<title>16845</title>
<polygon fill="none" stroke="black" stroke-width="2" points="796.25,-1029.5 480.5,-1029.5 480.5,-843.25 796.25,-843.25 796.25,-1029.5"/>
<polygon fill="none" stroke="black" points="489.5,-1002 489.5,-1024.5 787.25,-1024.5 787.25,-1002 489.5,-1002"/>
<text text-anchor="start" x="560" y="-1009.2" font-family="Times New Roman,serif" font-weight="bold" font-size="14.00">Element_BoolSelector (5)</text>
<polygon fill="none" stroke="black" points="489.5,-979.5 489.5,-1002 787.25,-1002 787.25,-979.5 489.5,-979.5"/>
<text text-anchor="start" x="606.5" y="-986.7" font-family="Times New Roman,serif" font-weight="bold" font-size="14.00">Properties</text>
<polygon fill="none" stroke="black" points="489.5,-957.75 489.5,-979.5 787.25,-979.5 787.25,-957.75 489.5,-957.75"/>
<text text-anchor="start" x="541.25" y="-963.2" font-family="Times New Roman,serif" font-size="14.00">[Int] CalculateTiming (default = 0) </text>
<polygon fill="none" stroke="black" points="489.5,-936 489.5,-957.75 787.25,-957.75 787.25,-936 489.5,-936"/>
<text text-anchor="start" x="522.12" y="-941.45" font-family="Times New Roman,serif" font-size="14.00">[Bool] ChildFrameSync (default = False) </text>
<polygon fill="none" stroke="black" points="489.5,-914.25 489.5,-936 787.25,-936 787.25,-914.25 489.5,-914.25"/>
<text text-anchor="start" x="538.62" y="-919.7" font-family="Times New Roman,serif" font-size="14.00">[Bool] InputValue (default = False) </text>
<polygon fill="none" stroke="black" points="489.5,-892.5 489.5,-914.25 787.25,-914.25 787.25,-892.5 489.5,-892.5"/>
<text text-anchor="start" x="492.5" y="-897.95" font-family="Times New Roman,serif" font-size="14.00">[Bool] IsNoSelectWhenChildBusy (default = False) </text>
<polygon fill="none" stroke="black" points="489.5,-870 489.5,-892.5 787.25,-892.5 787.25,-870 489.5,-870"/>
<text text-anchor="start" x="619.25" y="-877.2" font-family="Times New Roman,serif" font-weight="bold" font-size="14.00">Inputs</text>
<polygon fill="none" stroke="black" points="489.5,-848.25 489.5,-870 787.25,-870 787.25,-848.25 489.5,-848.25"/>
<text text-anchor="start" x="554.38" y="-853.7" font-family="Times New Roman,serif" font-size="14.00">[Bool] Input (default = False) </text>
<polygon fill="none" stroke="black" points="488.5,-847.25 488.5,-1025.5 788.25,-1025.5 788.25,-847.25 488.5,-847.25"/>
</g>
<!-- 16851 -->
<g id="node2" class="node">
<title>16851</title>
<polygon fill="none" stroke="black" stroke-width="2" points="570,-89.38 318.75,-89.38 318.75,-53.38 570,-53.38 570,-89.38"/>
<polygon fill="none" stroke="black" points="327.75,-60.12 327.75,-82.62 561,-82.62 561,-60.12 327.75,-60.12"/>
<text text-anchor="start" x="330.75" y="-67.33" font-family="Times New Roman,serif" font-weight="bold" font-size="14.00">SeqExecuteGenericDummyAction (1)</text>
<polygon fill="none" stroke="black" points="326.75,-59.12 326.75,-83.62 562,-83.62 562,-59.12 326.75,-59.12"/>
</g>
<!-- 16845&#45;&gt;16851 -->
<g id="edge1" class="edge">
<title>16845&#45;&gt;16851</title>
<path fill="none" stroke="firebrick" stroke-width="2" d="M638.38,-842.76C638.38,-796.43 638.38,-739.5 638.38,-688.5 638.38,-688.5 638.38,-688.5 638.38,-264.88 638.38,-183.41 551.11,-124.63 493.64,-94.75"/>
<polygon fill="firebrick" stroke="firebrick" stroke-width="2" points="496.84,-92.45 486.33,-91.05 493.67,-98.69 496.84,-92.45"/>
<text text-anchor="middle" x="651.5" y="-454.95" font-family="Times New Roman,serif" font-size="14.00" fill="firebrick">True</text>
</g>
<!-- 16854 -->
<g id="node3" class="node">
<title>16854</title>
<polygon fill="none" stroke="black" stroke-width="2" points="581.25,-791.5 265.5,-791.5 265.5,-583.5 581.25,-583.5 581.25,-791.5"/>
<polygon fill="none" stroke="black" points="274.5,-764 274.5,-786.5 572.25,-786.5 572.25,-764 274.5,-764"/>
<text text-anchor="start" x="347.62" y="-771.2" font-family="Times New Roman,serif" font-weight="bold" font-size="14.00">Element_S32Selector (3)</text>
<polygon fill="none" stroke="black" points="274.5,-741.5 274.5,-764 572.25,-764 572.25,-741.5 274.5,-741.5"/>
<text text-anchor="start" x="391.5" y="-748.7" font-family="Times New Roman,serif" font-weight="bold" font-size="14.00">Properties</text>
<polygon fill="none" stroke="black" points="274.5,-719.75 274.5,-741.5 572.25,-741.5 572.25,-719.75 274.5,-719.75"/>
<text text-anchor="start" x="326.25" y="-725.2" font-family="Times New Roman,serif" font-size="14.00">[Int] CalculateTiming (default = 0) </text>
<polygon fill="none" stroke="black" points="274.5,-698 274.5,-719.75 572.25,-719.75 572.25,-698 274.5,-698"/>
<text text-anchor="start" x="340.88" y="-703.45" font-family="Times New Roman,serif" font-size="14.00">[Int] InputValue (default = 0) </text>
<polygon fill="none" stroke="black" points="274.5,-676.25 274.5,-698 572.25,-698 572.25,-676.25 274.5,-676.25"/>
<text text-anchor="start" x="307.12" y="-681.7" font-family="Times New Roman,serif" font-size="14.00">[Bool] ChildFrameSync (default = False) </text>
<polygon fill="none" stroke="black" points="274.5,-654.5 274.5,-676.25 572.25,-676.25 572.25,-654.5 274.5,-654.5"/>
<text text-anchor="start" x="280.12" y="-659.95" font-family="Times New Roman,serif" font-size="14.00">[Bool] IsNoSelectIfSameInstance (default = False) </text>
<polygon fill="none" stroke="black" points="274.5,-632.75 274.5,-654.5 572.25,-654.5 572.25,-632.75 274.5,-632.75"/>
<text text-anchor="start" x="277.5" y="-638.2" font-family="Times New Roman,serif" font-size="14.00">[Bool] IsNoSelectWhenChildBusy (default = False) </text>
<polygon fill="none" stroke="black" points="274.5,-610.25 274.5,-632.75 572.25,-632.75 572.25,-610.25 274.5,-610.25"/>
<text text-anchor="start" x="404.25" y="-617.45" font-family="Times New Roman,serif" font-weight="bold" font-size="14.00">Inputs</text>
<polygon fill="none" stroke="black" points="274.5,-588.5 274.5,-610.25 572.25,-610.25 572.25,-588.5 274.5,-588.5"/>
<text text-anchor="start" x="356.62" y="-593.95" font-family="Times New Roman,serif" font-size="14.00">[Int] Input (default = 0) </text>
<polygon fill="none" stroke="black" points="273.5,-587.5 273.5,-787.5 573.25,-787.5 573.25,-587.5 273.5,-587.5"/>
</g>
<!-- 16845&#45;&gt;16854 -->
<g id="edge2" class="edge">
<title>16845&#45;&gt;16854</title>
<path fill="none" stroke="firebrick" stroke-width="2" d="M558.01,-843.1C545.85,-829.13 533.19,-814.59 520.71,-800.27"/>
<polygon fill="firebrick" stroke="firebrick" stroke-width="2" points="524.59,-799.39 515.38,-794.15 519.31,-803.99 524.59,-799.39"/>
<text text-anchor="middle" x="552" y="-811.95" font-family="Times New Roman,serif" font-size="14.00" fill="firebrick">False</text>
</g>
<!-- 16854&#45;&gt;16851 -->
<g id="edge4" class="edge">
<title>16854&#45;&gt;16851</title>
<path fill="none" stroke="firebrick" stroke-width="2" d="M535.29,-583.24C547.11,-567.2 557.35,-549.88 564.38,-531.75 591.52,-461.66 567.26,-263.89 538.38,-194.5 522.78,-157.05 492.69,-121.12 470.73,-98.04"/>
<polygon fill="firebrick" stroke="firebrick" stroke-width="2" points="474.36,-96.75 464.88,-92.03 469.34,-101.63 474.36,-96.75"/>
<text text-anchor="middle" x="592.25" y="-357.7" font-family="Times New Roman,serif" font-size="14.00" fill="firebrick">Default</text>
</g>
<!-- 16860 -->
<g id="node5" class="node">
<title>16860</title>
<polygon fill="none" stroke="black" stroke-width="2" points="555.38,-531.75 231.38,-531.75 231.38,-389 555.38,-389 555.38,-531.75"/>
<polygon fill="none" stroke="black" points="240.38,-504.25 240.38,-526.75 546.38,-526.75 546.38,-504.25 240.38,-504.25"/>
<text text-anchor="start" x="276.38" y="-511.45" font-family="Times New Roman,serif" font-weight="bold" font-size="14.00">SeqSelectorScreenOpenCloseState (4)</text>
<polygon fill="none" stroke="black" points="240.38,-481.75 240.38,-504.25 546.38,-504.25 546.38,-481.75 240.38,-481.75"/>
<text text-anchor="start" x="361.5" y="-488.95" font-family="Times New Roman,serif" font-weight="bold" font-size="14.00">Properties</text>
<polygon fill="none" stroke="black" points="240.38,-460 240.38,-481.75 546.38,-481.75 546.38,-460 240.38,-460"/>
<text text-anchor="start" x="243.38" y="-465.45" font-family="Times New Roman,serif" font-size="14.00">[Bool] NoChangeWhenChildIsBusy (default = False) </text>
<polygon fill="none" stroke="black" points="240.38,-438.25 240.38,-460 546.38,-460 546.38,-438.25 240.38,-438.25"/>
<text text-anchor="start" x="255.38" y="-443.7" font-family="Times New Roman,serif" font-size="14.00">[Bool] SelectChildOnEnterOnly (default = False) </text>
<polygon fill="none" stroke="black" points="240.38,-415.75 240.38,-438.25 546.38,-438.25 546.38,-415.75 240.38,-415.75"/>
<text text-anchor="start" x="374.25" y="-422.95" font-family="Times New Roman,serif" font-weight="bold" font-size="14.00">Inputs</text>
<polygon fill="none" stroke="black" points="240.38,-394 240.38,-415.75 546.38,-415.75 546.38,-394 240.38,-394"/>
<text text-anchor="start" x="255" y="-399.45" font-family="Times New Roman,serif" font-size="14.00">[String] ScreenName (default = HorseGauge_00) </text>
<polygon fill="none" stroke="black" points="239.38,-393 239.38,-527.75 547.38,-527.75 547.38,-393 239.38,-393"/>
</g>
<!-- 16854&#45;&gt;16860 -->
<g id="edge5" class="edge">
<title>16854&#45;&gt;16860</title>
<path fill="none" stroke="firebrick" stroke-width="2" d="M399.18,-583.09C398.21,-577.16 397.35,-571.26 396.62,-565.5 395.73,-558.35 395.04,-550.9 394.5,-543.42"/>
<polygon fill="firebrick" stroke="firebrick" stroke-width="2" points="398.1,-544.87 393.99,-535.11 391.11,-545.3 398.1,-544.87"/>
<text text-anchor="middle" x="400.75" y="-552.2" font-family="Times New Roman,serif" font-size="14.00" fill="firebrick">4</text>
</g>
<!-- 16854&#45;&gt;16860 -->
<g id="edge6" class="edge">
<title>16854&#45;&gt;16860</title>
<path fill="none" stroke="firebrick" stroke-width="2" d="M409.6,-583.16C407.82,-569.75 406.01,-556.17 404.28,-543.17"/>
<polygon fill="firebrick" stroke="firebrick" stroke-width="2" points="407.97,-544.38 403.18,-534.93 401.03,-545.3 407.97,-544.38"/>
<text text-anchor="middle" x="410.75" y="-552.2" font-family="Times New Roman,serif" font-size="14.00" fill="firebrick">3</text>
</g>
<!-- 16848 -->
<g id="node4" class="node">
<title>16848</title>
<polygon fill="none" stroke="black" stroke-width="2" points="916.88,-1202.25 577.88,-1202.25 577.88,-1081.25 916.88,-1081.25 916.88,-1202.25"/>
<polygon fill="none" stroke="black" points="586.88,-1174.75 586.88,-1197.25 907.88,-1197.25 907.88,-1174.75 586.88,-1174.75"/>
<text text-anchor="start" x="589.88" y="-1181.95" font-family="Times New Roman,serif" font-weight="bold" font-size="14.00">SeqQueryGetIsPlayerRidingTargetGearLimited (6)</text>
<polygon fill="none" stroke="black" points="586.88,-1152.25 586.88,-1174.75 907.88,-1174.75 907.88,-1152.25 586.88,-1152.25"/>
<text text-anchor="start" x="715.5" y="-1159.45" font-family="Times New Roman,serif" font-weight="bold" font-size="14.00">Properties</text>
<polygon fill="none" stroke="black" points="586.88,-1130.5 586.88,-1152.25 907.88,-1152.25 907.88,-1130.5 586.88,-1130.5"/>
<text text-anchor="start" x="621.75" y="-1135.95" font-family="Times New Roman,serif" font-size="14.00">[Bool] OutputOnlyOnEnter (default = False) </text>
<polygon fill="none" stroke="black" points="586.88,-1108 586.88,-1130.5 907.88,-1130.5 907.88,-1108 586.88,-1108"/>
<text text-anchor="start" x="723" y="-1115.2" font-family="Times New Roman,serif" font-weight="bold" font-size="14.00">Outputs</text>
<polygon fill="none" stroke="black" points="586.88,-1086.25 586.88,-1108 907.88,-1108 907.88,-1086.25 586.88,-1086.25"/>
<text text-anchor="start" x="701.25" y="-1091.7" font-family="Times New Roman,serif" font-size="14.00">[Bool] IsLimited</text>
<polygon fill="none" stroke="black" points="585.88,-1085.25 585.88,-1198.25 908.88,-1198.25 908.88,-1085.25 585.88,-1085.25"/>
</g>
<!-- 16848&#45;&gt;16845 -->
<g id="edge3" class="edge">
<title>16848:16868&#45;&gt;16845:16867</title>
<path fill="none" stroke="#008000" stroke-dasharray="5,2" d="M747.38,-1084.75C747.38,-1054.43 777.95,-1058.31 787.38,-1029.5 809.61,-961.57 858.27,-870.04 799.65,-860.24"/>
<polygon fill="#008000" stroke="#008000" points="800.12,-856.76 789.88,-859.49 799.59,-863.74 800.12,-856.76"/>
<text text-anchor="middle" x="789" y="-1049.95" font-family="Times New Roman,serif" font-size="14.00" fill="#008000">Input</text>
</g>
<!-- 16860&#45;&gt;16851 -->
<g id="edge8" class="edge">
<title>16860&#45;&gt;16851</title>
<path fill="none" stroke="firebrick" stroke-width="2" d="M402.67,-388.84C414.01,-302.77 432.66,-161.27 440.6,-101"/>
<polygon fill="firebrick" stroke="firebrick" stroke-width="2" points="443.85,-103.12 441.69,-92.75 436.91,-102.2 443.85,-103.12"/>
<text text-anchor="middle" x="452" y="-260.45" font-family="Times New Roman,serif" font-size="14.00" fill="firebrick">Opening</text>
</g>
<!-- 16860&#45;&gt;16851 -->
<g id="edge9" class="edge">
<title>16860&#45;&gt;16851</title>
<path fill="none" stroke="firebrick" stroke-width="2" d="M453.84,-388.71C464.34,-372.74 473.7,-355.17 479.38,-337.25 505.76,-253.94 474.36,-149.8 455.93,-100.6"/>
<polygon fill="firebrick" stroke="firebrick" stroke-width="2" points="459.74,-100.76 452.87,-92.7 453.21,-103.29 459.74,-100.76"/>
<text text-anchor="middle" x="512.5" y="-260.45" font-family="Times New Roman,serif" font-size="14.00" fill="firebrick">Opened</text>
</g>
<!-- 16863 -->
<g id="node7" class="node">
<title>16863</title>
<polygon fill="none" stroke="black" stroke-width="2" points="392.38,-337.25 68.38,-337.25 68.38,-194.5 392.38,-194.5 392.38,-337.25"/>
<polygon fill="none" stroke="black" points="77.38,-309.75 77.38,-332.25 383.38,-332.25 383.38,-309.75 77.38,-309.75"/>
<text text-anchor="start" x="113.38" y="-316.95" font-family="Times New Roman,serif" font-weight="bold" font-size="14.00">SeqSelectorScreenOpenCloseState (7)</text>
<polygon fill="none" stroke="black" points="77.38,-287.25 77.38,-309.75 383.38,-309.75 383.38,-287.25 77.38,-287.25"/>
<text text-anchor="start" x="198.5" y="-294.45" font-family="Times New Roman,serif" font-weight="bold" font-size="14.00">Properties</text>
<polygon fill="none" stroke="black" points="77.38,-265.5 77.38,-287.25 383.38,-287.25 383.38,-265.5 77.38,-265.5"/>
<text text-anchor="start" x="80.38" y="-270.95" font-family="Times New Roman,serif" font-size="14.00">[Bool] NoChangeWhenChildIsBusy (default = False) </text>
<polygon fill="none" stroke="black" points="77.38,-243.75 77.38,-265.5 383.38,-265.5 383.38,-243.75 77.38,-243.75"/>
<text text-anchor="start" x="92.38" y="-249.2" font-family="Times New Roman,serif" font-size="14.00">[Bool] SelectChildOnEnterOnly (default = False) </text>
<polygon fill="none" stroke="black" points="77.38,-221.25 77.38,-243.75 383.38,-243.75 383.38,-221.25 77.38,-221.25"/>
<text text-anchor="start" x="211.25" y="-228.45" font-family="Times New Roman,serif" font-weight="bold" font-size="14.00">Inputs</text>
<polygon fill="none" stroke="black" points="77.38,-199.5 77.38,-221.25 383.38,-221.25 383.38,-199.5 77.38,-199.5"/>
<text text-anchor="start" x="89" y="-204.95" font-family="Times New Roman,serif" font-size="14.00">[String] ScreenName (default = DoCommand_00) </text>
<polygon fill="none" stroke="black" points="76.38,-198.5 76.38,-333.25 384.38,-333.25 384.38,-198.5 76.38,-198.5"/>
</g>
<!-- 16860&#45;&gt;16863 -->
<g id="edge10" class="edge">
<title>16860&#45;&gt;16863</title>
<path fill="none" stroke="firebrick" stroke-width="2" d="M342.3,-388.72C333.55,-377.34 324.37,-365.83 315.38,-355.25 312.74,-352.15 310.02,-349.02 307.25,-345.88"/>
<polygon fill="firebrick" stroke="firebrick" stroke-width="2" points="311.1,-344.93 301.83,-339.82 305.89,-349.6 311.1,-344.93"/>
<text text-anchor="middle" x="347.25" y="-357.7" font-family="Times New Roman,serif" font-size="14.00" fill="firebrick">Closed</text>
</g>
<!-- 16860&#45;&gt;16863 -->
<g id="edge11" class="edge">
<title>16860&#45;&gt;16863</title>
<path fill="none" stroke="firebrick" stroke-width="2" d="M284.1,-388.56C278.52,-382.97 273.3,-377.11 268.62,-371 263.28,-364.01 258.62,-356.2 254.57,-348.08"/>
<polygon fill="firebrick" stroke="firebrick" stroke-width="2" points="258.41,-348.03 251.04,-340.42 252.05,-350.97 258.41,-348.03"/>
<text text-anchor="middle" x="290.75" y="-357.7" font-family="Times New Roman,serif" font-size="14.00" fill="firebrick">Closing</text>
</g>
<!-- 16857 -->
<g id="node6" class="node">
<title>16857</title>
<polygon fill="none" stroke="black" stroke-width="2" points="462.38,-996.88 132.38,-996.88 132.38,-875.88 462.38,-875.88 462.38,-996.88"/>
<polygon fill="none" stroke="black" points="141.38,-969.38 141.38,-991.88 453.38,-991.88 453.38,-969.38 141.38,-969.38"/>
<text text-anchor="start" x="144.38" y="-976.58" font-family="Times New Roman,serif" font-weight="bold" font-size="14.00">SeqQueryGetPlayerRidingTargetCurrentGear (2)</text>
<polygon fill="none" stroke="black" points="141.38,-946.88 141.38,-969.38 453.38,-969.38 453.38,-946.88 141.38,-946.88"/>
<text text-anchor="start" x="265.5" y="-954.08" font-family="Times New Roman,serif" font-weight="bold" font-size="14.00">Properties</text>
<polygon fill="none" stroke="black" points="141.38,-925.12 141.38,-946.88 453.38,-946.88 453.38,-925.12 141.38,-925.12"/>
<text text-anchor="start" x="171.75" y="-930.58" font-family="Times New Roman,serif" font-size="14.00">[Bool] OutputOnlyOnEnter (default = False) </text>
<polygon fill="none" stroke="black" points="141.38,-902.62 141.38,-925.12 453.38,-925.12 453.38,-902.62 141.38,-902.62"/>
<text text-anchor="start" x="273" y="-909.83" font-family="Times New Roman,serif" font-weight="bold" font-size="14.00">Outputs</text>
<polygon fill="none" stroke="black" points="141.38,-880.88 141.38,-902.62 453.38,-902.62 453.38,-880.88 141.38,-880.88"/>
<text text-anchor="start" x="249" y="-886.33" font-family="Times New Roman,serif" font-size="14.00">[Int] CurrentGear</text>
<polygon fill="none" stroke="black" points="140.38,-879.88 140.38,-992.88 454.38,-992.88 454.38,-879.88 140.38,-879.88"/>
</g>
<!-- 16857&#45;&gt;16854 -->
<g id="edge7" class="edge">
<title>16857:16870&#45;&gt;16854:16869</title>
<path fill="none" stroke="#008000" stroke-dasharray="5,2" d="M297.38,-879.38C297.38,-839 279.63,-831.53 274.38,-791.5 263.8,-711.02 195.23,-609.93 262,-600.25"/>
<polygon fill="#008000" stroke="#008000" points="262.12,-603.75 271.86,-599.6 261.66,-596.77 262.12,-603.75"/>
<text text-anchor="middle" x="299" y="-811.95" font-family="Times New Roman,serif" font-size="14.00" fill="#008000">Input</text>
</g>
<!-- 16863&#45;&gt;16851 -->
<g id="edge12" class="edge">
<title>16863&#45;&gt;16851</title>
<path fill="none" stroke="firebrick" stroke-width="2" d="M272.42,-194.15C281.1,-182.3 290.78,-170.65 301.12,-160.75 329.36,-133.73 367.19,-110.83 396.88,-95.11"/>
<polygon fill="firebrick" stroke="firebrick" stroke-width="2" points="397.06,-98.96 404.33,-91.25 393.84,-92.74 397.06,-98.96"/>
<text text-anchor="middle" x="325" y="-163.2" font-family="Times New Roman,serif" font-size="14.00" fill="firebrick">Opening</text>
</g>
<!-- 16863&#45;&gt;16851 -->
<g id="edge13" class="edge">
<title>16863&#45;&gt;16851</title>
<path fill="none" stroke="firebrick" stroke-width="2" d="M327.8,-194.17C334.89,-188.35 341.82,-182.42 348.38,-176.5 375.68,-151.85 403.86,-120.44 422.57,-98.6"/>
<polygon fill="firebrick" stroke="firebrick" stroke-width="2" points="424.21,-102.07 428.02,-92.18 418.88,-97.54 424.21,-102.07"/>
<text text-anchor="middle" x="384.75" y="-163.2" font-family="Times New Roman,serif" font-size="14.00" fill="firebrick">Closing</text>
</g>
<!-- 16863&#45;&gt;16851 -->
<g id="edge14" class="edge">
<title>16863&#45;&gt;16851</title>
<path fill="none" stroke="firebrick" stroke-width="2" d="M224.71,-194.13C226.81,-181.93 231.16,-170.17 239.12,-160.75 259.94,-136.14 279.28,-154.28 309.38,-142.75 343.3,-129.76 379.71,-110.43 406.16,-95.32"/>
<polygon fill="firebrick" stroke="firebrick" stroke-width="2" points="406.26,-99.3 413.16,-91.27 402.75,-93.24 406.26,-99.3"/>
<text text-anchor="middle" x="261.5" y="-163.2" font-family="Times New Roman,serif" font-size="14.00" fill="firebrick">Opened</text>
</g>
<!-- 16866 -->
<g id="node8" class="node">
<title>16866</title>
<polygon fill="none" stroke="black" stroke-width="2" points="300.75,-142.75 0,-142.75 0,0 300.75,0 300.75,-142.75"/>
<polygon fill="none" stroke="black" points="9,-115.25 9,-137.75 291.75,-137.75 291.75,-115.25 9,-115.25"/>
<text text-anchor="start" x="64.88" y="-122.45" font-family="Times New Roman,serif" font-weight="bold" font-size="14.00">SeqOneShotOpenScreen (0)</text>
<polygon fill="none" stroke="black" points="9,-92.75 9,-115.25 291.75,-115.25 291.75,-92.75 9,-92.75"/>
<text text-anchor="start" x="118.5" y="-99.95" font-family="Times New Roman,serif" font-weight="bold" font-size="14.00">Properties</text>
<polygon fill="none" stroke="black" points="9,-71 9,-92.75 291.75,-92.75 291.75,-71 9,-71"/>
<text text-anchor="start" x="25.12" y="-76.45" font-family="Times New Roman,serif" font-size="14.00">[Bool] ExecuteEveryFrame (default = False) </text>
<polygon fill="none" stroke="black" points="9,-48.5 9,-71 291.75,-71 291.75,-48.5 9,-48.5"/>
<text text-anchor="start" x="131.25" y="-55.7" font-family="Times New Roman,serif" font-weight="bold" font-size="14.00">Inputs</text>
<polygon fill="none" stroke="black" points="9,-26.75 9,-48.5 291.75,-48.5 291.75,-26.75 9,-26.75"/>
<text text-anchor="start" x="78.75" y="-32.2" font-family="Times New Roman,serif" font-size="14.00">[Int] Option (default = 1) </text>
<polygon fill="none" stroke="black" points="9,-5 9,-26.75 291.75,-26.75 291.75,-5 9,-5"/>
<text text-anchor="start" x="12" y="-10.45" font-family="Times New Roman,serif" font-size="14.00">[String] ScreenName (default = HorseGauge_00) </text>
<polygon fill="none" stroke="black" points="8,-4 8,-138.75 292.75,-138.75 292.75,-4 8,-4"/>
</g>
<!-- 16863&#45;&gt;16866 -->
<g id="edge15" class="edge">
<title>16863&#45;&gt;16866</title>
<path fill="none" stroke="firebrick" stroke-width="2" d="M178.16,-194.21C174.98,-188.38 172.08,-182.43 169.62,-176.5 166.66,-169.34 164.15,-161.72 162.03,-153.98"/>
<polygon fill="firebrick" stroke="firebrick" stroke-width="2" points="165.84,-154.78 160.01,-145.93 159.05,-156.48 165.84,-154.78"/>
<text text-anchor="middle" x="190.25" y="-163.2" font-family="Times New Roman,serif" font-size="14.00" fill="firebrick">Closed</text>
</g>
<!-- 16875 -->
<g id="node9" class="node">
<title>16875</title>
<ellipse fill="mediumpurple" stroke="mediumpurple" cx="528.38" cy="-1141.75" rx="31.9" ry="18"/>
<text text-anchor="start" x="513" y="-1137.7" font-family="Times New Roman,serif" font-weight="bold" font-size="14.00" fill="white">Start</text>
</g>
<!-- 16875&#45;&gt;16845 -->
<g id="edge16" class="edge">
<title>16875&#45;&gt;16845</title>
<path fill="none" stroke="black" d="M537.38,-1124.11C547.61,-1105.19 565.18,-1072.69 582.84,-1040.06"/>
<polygon fill="black" stroke="black" points="585.91,-1041.73 587.59,-1031.27 579.75,-1038.4 585.91,-1041.73"/>
</g>
</g>
</svg>
