<?xml version="1.0" encoding="UTF-8" standalone="no"?>
<!DOCTYPE svg PUBLIC "-//W3C//DTD SVG 1.1//EN"
 "http://www.w3.org/Graphics/SVG/1.1/DTD/svg11.dtd">
<!-- Generated by graphviz version 9.0.0 (20230911.1827)
 -->
<!-- Title: _LocalModule_2fafbbf43963.module Pages: 1 -->
<svg width="756pt" height="496pt"
 viewBox="0.00 0.00 755.50 495.50" xmlns="http://www.w3.org/2000/svg" xmlns:xlink="http://www.w3.org/1999/xlink">
<g id="graph0" class="graph" transform="scale(1 1) rotate(0) translate(4 491.5)">
<title>_LocalModule_2fafbbf43963.module</title>
<polygon fill="lightgray" stroke="none" points="-4,4 -4,-491.5 751.5,-491.5 751.5,4 -4,4"/>
<!-- 16977 -->
<g id="node1" class="node">
<title>16977</title>
<polygon fill="none" stroke="black" stroke-width="2" points="531.12,-314.75 215.38,-314.75 215.38,-128.5 531.12,-128.5 531.12,-314.75"/>
<polygon fill="none" stroke="black" points="224.38,-287.25 224.38,-309.75 522.12,-309.75 522.12,-287.25 224.38,-287.25"/>
<text text-anchor="start" x="294.88" y="-294.45" font-family="Times New Roman,serif" font-weight="bold" font-size="14.00">Element_BoolSelector (0)</text>
<polygon fill="none" stroke="black" points="224.38,-264.75 224.38,-287.25 522.12,-287.25 522.12,-264.75 224.38,-264.75"/>
<text text-anchor="start" x="341.38" y="-271.95" font-family="Times New Roman,serif" font-weight="bold" font-size="14.00">Properties</text>
<polygon fill="none" stroke="black" points="224.38,-243 224.38,-264.75 522.12,-264.75 522.12,-243 224.38,-243"/>
<text text-anchor="start" x="276.12" y="-248.45" font-family="Times New Roman,serif" font-size="14.00">[Int] CalculateTiming (default = 0) </text>
<polygon fill="none" stroke="black" points="224.38,-221.25 224.38,-243 522.12,-243 522.12,-221.25 224.38,-221.25"/>
<text text-anchor="start" x="257" y="-226.7" font-family="Times New Roman,serif" font-size="14.00">[Bool] ChildFrameSync (default = False) </text>
<polygon fill="none" stroke="black" points="224.38,-199.5 224.38,-221.25 522.12,-221.25 522.12,-199.5 224.38,-199.5"/>
<text text-anchor="start" x="273.5" y="-204.95" font-family="Times New Roman,serif" font-size="14.00">[Bool] InputValue (default = False) </text>
<polygon fill="none" stroke="black" points="224.38,-177.75 224.38,-199.5 522.12,-199.5 522.12,-177.75 224.38,-177.75"/>
<text text-anchor="start" x="227.38" y="-183.2" font-family="Times New Roman,serif" font-size="14.00">[Bool] IsNoSelectWhenChildBusy (default = False) </text>
<polygon fill="none" stroke="black" points="224.38,-155.25 224.38,-177.75 522.12,-177.75 522.12,-155.25 224.38,-155.25"/>
<text text-anchor="start" x="354.12" y="-162.45" font-family="Times New Roman,serif" font-weight="bold" font-size="14.00">Inputs</text>
<polygon fill="none" stroke="black" points="224.38,-133.5 224.38,-155.25 522.12,-155.25 522.12,-133.5 224.38,-133.5"/>
<text text-anchor="start" x="289.25" y="-138.95" font-family="Times New Roman,serif" font-size="14.00">[Bool] Input (default = False) </text>
<polygon fill="none" stroke="black" points="223.38,-132.5 223.38,-310.75 523.12,-310.75 523.12,-132.5 223.38,-132.5"/>
</g>
<!-- 16983 -->
<g id="node2" class="node">
<title>16983</title>
<polygon fill="none" stroke="black" stroke-width="2" points="364.5,-76.75 0,-76.75 0,0 364.5,0 364.5,-76.75"/>
<polygon fill="none" stroke="black" points="9,-49.25 9,-71.75 355.5,-71.75 355.5,-49.25 9,-49.25"/>
<text text-anchor="start" x="99" y="-56.45" font-family="Times New Roman,serif" font-weight="bold" font-size="14.00">SeqExecuteOpenScreen (1)</text>
<polygon fill="none" stroke="black" points="9,-26.75 9,-49.25 355.5,-49.25 355.5,-26.75 9,-26.75"/>
<text text-anchor="start" x="163.12" y="-33.95" font-family="Times New Roman,serif" font-weight="bold" font-size="14.00">Inputs</text>
<polygon fill="none" stroke="black" points="9,-5 9,-26.75 355.5,-26.75 355.5,-5 9,-5"/>
<text text-anchor="start" x="12" y="-10.45" font-family="Times New Roman,serif" font-size="14.00">[String] ScreenName (default = ReverseRecorderGauge_00) </text>
<polygon fill="none" stroke="black" points="8,-4 8,-72.75 356.5,-72.75 356.5,-4 8,-4"/>
</g>
<!-- 16977&#45;&gt;16983 -->
<g id="edge1" class="edge">
<title>16977&#45;&gt;16983</title>
<path fill="none" stroke="firebrick" stroke-width="2" d="M275.79,-128.14C259.8,-112.97 243.88,-97.86 229.83,-84.53"/>
<polygon fill="firebrick" stroke="firebrick" stroke-width="2" points="233.65,-83.32 223.98,-78.98 228.83,-88.4 233.65,-83.32"/>
<text text-anchor="middle" x="268.38" y="-97.2" font-family="Times New Roman,serif" font-size="14.00" fill="firebrick">True</text>
</g>
<!-- 16986 -->
<g id="node3" class="node">
<title>16986</title>
<polygon fill="none" stroke="black" stroke-width="2" points="747.5,-76.75 383,-76.75 383,0 747.5,0 747.5,-76.75"/>
<polygon fill="none" stroke="black" points="392,-49.25 392,-71.75 738.5,-71.75 738.5,-49.25 392,-49.25"/>
<text text-anchor="start" x="481.25" y="-56.45" font-family="Times New Roman,serif" font-weight="bold" font-size="14.00">SeqExecuteCloseScreen (2)</text>
<polygon fill="none" stroke="black" points="392,-26.75 392,-49.25 738.5,-49.25 738.5,-26.75 392,-26.75"/>
<text text-anchor="start" x="546.12" y="-33.95" font-family="Times New Roman,serif" font-weight="bold" font-size="14.00">Inputs</text>
<polygon fill="none" stroke="black" points="392,-5 392,-26.75 738.5,-26.75 738.5,-5 392,-5"/>
<text text-anchor="start" x="395" y="-10.45" font-family="Times New Roman,serif" font-size="14.00">[String] ScreenName (default = ReverseRecorderGauge_00) </text>
<polygon fill="none" stroke="black" points="391,-4 391,-72.75 739.5,-72.75 739.5,-4 391,-4"/>
</g>
<!-- 16977&#45;&gt;16986 -->
<g id="edge2" class="edge">
<title>16977&#45;&gt;16986</title>
<path fill="none" stroke="firebrick" stroke-width="2" d="M471.22,-128.14C487.29,-112.97 503.29,-97.86 517.42,-84.53"/>
<polygon fill="firebrick" stroke="firebrick" stroke-width="2" points="518.43,-88.38 523.3,-78.97 513.63,-83.29 518.43,-88.38"/>
<text text-anchor="middle" x="516.88" y="-97.2" font-family="Times New Roman,serif" font-size="14.00" fill="firebrick">False</text>
</g>
<!-- 16980 -->
<g id="node4" class="node">
<title>16980</title>
<polygon fill="none" stroke="black" stroke-width="2" points="420.62,-487.5 131.88,-487.5 131.88,-366.5 420.62,-366.5 420.62,-487.5"/>
<polygon fill="none" stroke="black" points="140.88,-460 140.88,-482.5 411.62,-482.5 411.62,-460 140.88,-460"/>
<text text-anchor="start" x="143.88" y="-467.2" font-family="Times New Roman,serif" font-weight="bold" font-size="14.00">SeqQueryIsReverseRecorderRewinding (3)</text>
<polygon fill="none" stroke="black" points="140.88,-437.5 140.88,-460 411.62,-460 411.62,-437.5 140.88,-437.5"/>
<text text-anchor="start" x="244.38" y="-444.7" font-family="Times New Roman,serif" font-weight="bold" font-size="14.00">Properties</text>
<polygon fill="none" stroke="black" points="140.88,-415.75 140.88,-437.5 411.62,-437.5 411.62,-415.75 140.88,-415.75"/>
<text text-anchor="start" x="150.62" y="-421.2" font-family="Times New Roman,serif" font-size="14.00">[Bool] OutputOnlyOnEnter (default = False) </text>
<polygon fill="none" stroke="black" points="140.88,-393.25 140.88,-415.75 411.62,-415.75 411.62,-393.25 140.88,-393.25"/>
<text text-anchor="start" x="251.88" y="-400.45" font-family="Times New Roman,serif" font-weight="bold" font-size="14.00">Outputs</text>
<polygon fill="none" stroke="black" points="140.88,-371.5 140.88,-393.25 411.62,-393.25 411.62,-371.5 140.88,-371.5"/>
<text text-anchor="start" x="221.5" y="-376.95" font-family="Times New Roman,serif" font-size="14.00">[Bool] IsRewinding</text>
<polygon fill="none" stroke="black" points="139.88,-370.5 139.88,-483.5 412.62,-483.5 412.62,-370.5 139.88,-370.5"/>
</g>
<!-- 16980&#45;&gt;16977 -->
<g id="edge3" class="edge">
<title>16980:16988&#45;&gt;16977:16987</title>
<path fill="none" stroke="#008000" stroke-dasharray="5,2" d="M276.25,-370C276.25,-336.28 236.77,-346.06 224.25,-314.75 197.7,-248.38 152.88,-155.46 211.94,-145.5"/>
<polygon fill="#008000" stroke="#008000" points="212.04,-149 221.74,-144.74 211.5,-142.02 212.04,-149"/>
<text text-anchor="middle" x="281.88" y="-335.2" font-family="Times New Roman,serif" font-size="14.00" fill="#008000">Input</text>
</g>
<!-- 16991 -->
<g id="node5" class="node">
<title>16991</title>
<ellipse fill="mediumpurple" stroke="mediumpurple" cx="470.25" cy="-427" rx="31.9" ry="18"/>
<text text-anchor="start" x="454.88" y="-422.95" font-family="Times New Roman,serif" font-weight="bold" font-size="14.00" fill="white">Start</text>
</g>
<!-- 16991&#45;&gt;16977 -->
<g id="edge4" class="edge">
<title>16991&#45;&gt;16977</title>
<path fill="none" stroke="black" d="M462.31,-409.36C453.29,-390.44 437.79,-357.94 422.22,-325.31"/>
<polygon fill="black" stroke="black" points="425.51,-324.08 418.05,-316.56 419.2,-327.09 425.51,-324.08"/>
</g>
</g>
</svg>
