<?xml version="1.0" encoding="UTF-8" standalone="no"?>
<!DOCTYPE svg PUBLIC "-//W3C//DTD SVG 1.1//EN"
 "http://www.w3.org/Graphics/SVG/1.1/DTD/svg11.dtd">
<!-- Generated by graphviz version 9.0.0 (20230911.1827)
 -->
<!-- Title: _LocalModule_1cb6a9fdf487.module Pages: 1 -->
<svg width="1124pt" height="1312pt"
 viewBox="0.00 0.00 1124.14 1311.83" xmlns="http://www.w3.org/2000/svg" xmlns:xlink="http://www.w3.org/1999/xlink">
<g id="graph0" class="graph" transform="scale(1 1) rotate(0) translate(4 1307.83)">
<title>_LocalModule_1cb6a9fdf487.module</title>
<polygon fill="lightgray" stroke="none" points="-4,4 -4,-1307.83 1120.14,-1307.83 1120.14,4 -4,4"/>
<!-- 16903 -->
<g id="node1" class="node">
<title>16903</title>
<polygon fill="none" stroke="black" stroke-width="2" points="454.62,-1053.83 138.88,-1053.83 138.88,-867.58 454.62,-867.58 454.62,-1053.83"/>
<polygon fill="none" stroke="black" points="147.88,-1026.33 147.88,-1048.83 445.62,-1048.83 445.62,-1026.33 147.88,-1026.33"/>
<text text-anchor="start" x="218.38" y="-1033.53" font-family="Times New Roman,serif" font-weight="bold" font-size="14.00">Element_BoolSelector (2)</text>
<polygon fill="none" stroke="black" points="147.88,-1003.83 147.88,-1026.33 445.62,-1026.33 445.62,-1003.83 147.88,-1003.83"/>
<text text-anchor="start" x="264.88" y="-1011.03" font-family="Times New Roman,serif" font-weight="bold" font-size="14.00">Properties</text>
<polygon fill="none" stroke="black" points="147.88,-982.08 147.88,-1003.83 445.62,-1003.83 445.62,-982.08 147.88,-982.08"/>
<text text-anchor="start" x="199.62" y="-987.53" font-family="Times New Roman,serif" font-size="14.00">[Int] CalculateTiming (default = 0) </text>
<polygon fill="none" stroke="black" points="147.88,-960.33 147.88,-982.08 445.62,-982.08 445.62,-960.33 147.88,-960.33"/>
<text text-anchor="start" x="180.5" y="-965.78" font-family="Times New Roman,serif" font-size="14.00">[Bool] ChildFrameSync (default = False) </text>
<polygon fill="none" stroke="black" points="147.88,-938.58 147.88,-960.33 445.62,-960.33 445.62,-938.58 147.88,-938.58"/>
<text text-anchor="start" x="197" y="-944.03" font-family="Times New Roman,serif" font-size="14.00">[Bool] InputValue (default = False) </text>
<polygon fill="none" stroke="black" points="147.88,-916.83 147.88,-938.58 445.62,-938.58 445.62,-916.83 147.88,-916.83"/>
<text text-anchor="start" x="150.88" y="-922.28" font-family="Times New Roman,serif" font-size="14.00">[Bool] IsNoSelectWhenChildBusy (default = False) </text>
<polygon fill="none" stroke="black" points="147.88,-894.33 147.88,-916.83 445.62,-916.83 445.62,-894.33 147.88,-894.33"/>
<text text-anchor="start" x="277.62" y="-901.53" font-family="Times New Roman,serif" font-weight="bold" font-size="14.00">Inputs</text>
<polygon fill="none" stroke="black" points="147.88,-872.58 147.88,-894.33 445.62,-894.33 445.62,-872.58 147.88,-872.58"/>
<text text-anchor="start" x="212.75" y="-878.03" font-family="Times New Roman,serif" font-size="14.00">[Bool] Input (default = False) </text>
<polygon fill="none" stroke="black" points="146.88,-871.58 146.88,-1049.83 446.62,-1049.83 446.62,-871.58 146.88,-871.58"/>
</g>
<!-- 16909 -->
<g id="node2" class="node">
<title>16909</title>
<polygon fill="none" stroke="black" stroke-width="2" points="895.62,-804.58 579.88,-804.58 579.88,-618.33 895.62,-618.33 895.62,-804.58"/>
<polygon fill="none" stroke="black" points="588.88,-777.08 588.88,-799.58 886.62,-799.58 886.62,-777.08 588.88,-777.08"/>
<text text-anchor="start" x="659.38" y="-784.28" font-family="Times New Roman,serif" font-weight="bold" font-size="14.00">Element_BoolSelector (6)</text>
<polygon fill="none" stroke="black" points="588.88,-754.58 588.88,-777.08 886.62,-777.08 886.62,-754.58 588.88,-754.58"/>
<text text-anchor="start" x="705.88" y="-761.78" font-family="Times New Roman,serif" font-weight="bold" font-size="14.00">Properties</text>
<polygon fill="none" stroke="black" points="588.88,-732.83 588.88,-754.58 886.62,-754.58 886.62,-732.83 588.88,-732.83"/>
<text text-anchor="start" x="640.62" y="-738.28" font-family="Times New Roman,serif" font-size="14.00">[Int] CalculateTiming (default = 0) </text>
<polygon fill="none" stroke="black" points="588.88,-711.08 588.88,-732.83 886.62,-732.83 886.62,-711.08 588.88,-711.08"/>
<text text-anchor="start" x="621.5" y="-716.53" font-family="Times New Roman,serif" font-size="14.00">[Bool] ChildFrameSync (default = False) </text>
<polygon fill="none" stroke="black" points="588.88,-689.33 588.88,-711.08 886.62,-711.08 886.62,-689.33 588.88,-689.33"/>
<text text-anchor="start" x="638" y="-694.78" font-family="Times New Roman,serif" font-size="14.00">[Bool] InputValue (default = False) </text>
<polygon fill="none" stroke="black" points="588.88,-667.58 588.88,-689.33 886.62,-689.33 886.62,-667.58 588.88,-667.58"/>
<text text-anchor="start" x="591.88" y="-673.03" font-family="Times New Roman,serif" font-size="14.00">[Bool] IsNoSelectWhenChildBusy (default = False) </text>
<polygon fill="none" stroke="black" points="588.88,-645.08 588.88,-667.58 886.62,-667.58 886.62,-645.08 588.88,-645.08"/>
<text text-anchor="start" x="718.62" y="-652.28" font-family="Times New Roman,serif" font-weight="bold" font-size="14.00">Inputs</text>
<polygon fill="none" stroke="black" points="588.88,-623.33 588.88,-645.08 886.62,-645.08 886.62,-623.33 588.88,-623.33"/>
<text text-anchor="start" x="653.75" y="-628.78" font-family="Times New Roman,serif" font-size="14.00">[Bool] Input (default = False) </text>
<polygon fill="none" stroke="black" points="587.88,-622.33 587.88,-800.58 887.62,-800.58 887.62,-622.33 587.88,-622.33"/>
</g>
<!-- 16903&#45;&gt;16909 -->
<g id="edge1" class="edge">
<title>16903&#45;&gt;16909</title>
<path fill="none" stroke="firebrick" stroke-width="2" d="M455.03,-870.97C492.22,-850.12 531.98,-827.82 569.59,-806.74"/>
<polygon fill="firebrick" stroke="firebrick" stroke-width="2" points="569.97,-810.54 576.98,-802.59 566.54,-804.43 569.97,-810.54"/>
<text text-anchor="middle" x="542.88" y="-825.03" font-family="Times New Roman,serif" font-size="14.00" fill="firebrick">True</text>
</g>
<!-- 16918 -->
<g id="node3" class="node">
<title>16918</title>
<polygon fill="none" stroke="black" stroke-width="2" points="408,-317.71 133.5,-317.71 133.5,-240.96 408,-240.96 408,-317.71"/>
<polygon fill="none" stroke="black" points="142.5,-290.21 142.5,-312.71 399,-312.71 399,-290.21 142.5,-290.21"/>
<text text-anchor="start" x="210.38" y="-297.41" font-family="Times New Roman,serif" font-weight="bold" font-size="14.00">SeqOneShotEnd (4)</text>
<polygon fill="none" stroke="black" points="142.5,-267.71 142.5,-290.21 399,-290.21 399,-267.71 142.5,-267.71"/>
<text text-anchor="start" x="238.88" y="-274.91" font-family="Times New Roman,serif" font-weight="bold" font-size="14.00">Properties</text>
<polygon fill="none" stroke="black" points="142.5,-245.96 142.5,-267.71 399,-267.71 399,-245.96 142.5,-245.96"/>
<text text-anchor="start" x="145.5" y="-251.41" font-family="Times New Roman,serif" font-size="14.00">[Bool] ExecuteEveryFrame (default = False) </text>
<polygon fill="none" stroke="black" points="141.5,-244.96 141.5,-313.71 400,-313.71 400,-244.96 141.5,-244.96"/>
</g>
<!-- 16903&#45;&gt;16918 -->
<g id="edge2" class="edge">
<title>16903&#45;&gt;16918</title>
<path fill="none" stroke="firebrick" stroke-width="2" d="M258.88,-867.11C252.18,-846.83 246.24,-825.25 242.75,-804.58 213.5,-631.61 244.06,-422.39 261.03,-329.2"/>
<polygon fill="firebrick" stroke="firebrick" stroke-width="2" points="264.14,-331.61 262.53,-321.14 257.26,-330.33 264.14,-331.61"/>
<text text-anchor="middle" x="245.38" y="-587.03" font-family="Times New Roman,serif" font-size="14.00" fill="firebrick">False</text>
</g>
<!-- 16909&#45;&gt;16918 -->
<g id="edge4" class="edge">
<title>16909&#45;&gt;16918</title>
<path fill="none" stroke="firebrick" stroke-width="2" d="M721.25,-618.13C703.86,-545.22 669.77,-445.28 605.75,-380.33 544.91,-318.61 501.89,-349.34 417.75,-328.58 408.94,-326.41 399.9,-323.97 390.84,-321.37"/>
<polygon fill="firebrick" stroke="firebrick" stroke-width="2" points="393.28,-318.44 382.7,-318.98 391.31,-325.16 393.28,-318.44"/>
<text text-anchor="middle" x="718.88" y="-468.03" font-family="Times New Roman,serif" font-size="14.00" fill="firebrick">True</text>
</g>
<!-- 16921 -->
<g id="node5" class="node">
<title>16921</title>
<polygon fill="none" stroke="black" stroke-width="2" points="596.62,-566.58 280.88,-566.58 280.88,-380.33 596.62,-380.33 596.62,-566.58"/>
<polygon fill="none" stroke="black" points="289.88,-539.08 289.88,-561.58 587.62,-561.58 587.62,-539.08 289.88,-539.08"/>
<text text-anchor="start" x="356.62" y="-546.28" font-family="Times New Roman,serif" font-weight="bold" font-size="14.00">Element_BoolSelector (11)</text>
<polygon fill="none" stroke="black" points="289.88,-516.58 289.88,-539.08 587.62,-539.08 587.62,-516.58 289.88,-516.58"/>
<text text-anchor="start" x="406.88" y="-523.78" font-family="Times New Roman,serif" font-weight="bold" font-size="14.00">Properties</text>
<polygon fill="none" stroke="black" points="289.88,-494.83 289.88,-516.58 587.62,-516.58 587.62,-494.83 289.88,-494.83"/>
<text text-anchor="start" x="341.62" y="-500.28" font-family="Times New Roman,serif" font-size="14.00">[Int] CalculateTiming (default = 0) </text>
<polygon fill="none" stroke="black" points="289.88,-473.08 289.88,-494.83 587.62,-494.83 587.62,-473.08 289.88,-473.08"/>
<text text-anchor="start" x="322.5" y="-478.53" font-family="Times New Roman,serif" font-size="14.00">[Bool] ChildFrameSync (default = False) </text>
<polygon fill="none" stroke="black" points="289.88,-451.33 289.88,-473.08 587.62,-473.08 587.62,-451.33 289.88,-451.33"/>
<text text-anchor="start" x="339" y="-456.78" font-family="Times New Roman,serif" font-size="14.00">[Bool] InputValue (default = False) </text>
<polygon fill="none" stroke="black" points="289.88,-429.58 289.88,-451.33 587.62,-451.33 587.62,-429.58 289.88,-429.58"/>
<text text-anchor="start" x="292.88" y="-435.03" font-family="Times New Roman,serif" font-size="14.00">[Bool] IsNoSelectWhenChildBusy (default = False) </text>
<polygon fill="none" stroke="black" points="289.88,-407.08 289.88,-429.58 587.62,-429.58 587.62,-407.08 289.88,-407.08"/>
<text text-anchor="start" x="419.62" y="-414.28" font-family="Times New Roman,serif" font-weight="bold" font-size="14.00">Inputs</text>
<polygon fill="none" stroke="black" points="289.88,-385.33 289.88,-407.08 587.62,-407.08 587.62,-385.33 289.88,-385.33"/>
<text text-anchor="start" x="354.75" y="-390.78" font-family="Times New Roman,serif" font-size="14.00">[Bool] Input (default = False) </text>
<polygon fill="none" stroke="black" points="288.88,-384.33 288.88,-562.58 588.62,-562.58 588.62,-384.33 288.88,-384.33"/>
</g>
<!-- 16909&#45;&gt;16921 -->
<g id="edge5" class="edge">
<title>16909&#45;&gt;16921</title>
<path fill="none" stroke="firebrick" stroke-width="2" d="M620.44,-617.86C602.16,-603.43 583.21,-588.47 564.74,-573.9"/>
<polygon fill="firebrick" stroke="firebrick" stroke-width="2" points="568.12,-572.11 558.1,-568.66 563.78,-577.6 568.12,-572.11"/>
<text text-anchor="middle" x="611.38" y="-587.03" font-family="Times New Roman,serif" font-size="14.00" fill="firebrick">False</text>
</g>
<!-- 16906 -->
<g id="node4" class="node">
<title>16906</title>
<polygon fill="none" stroke="black" stroke-width="2" points="658,-1303.83 209.5,-1303.83 209.5,-1116.83 658,-1116.83 658,-1303.83"/>
<polygon fill="none" stroke="black" points="218.5,-1276.33 218.5,-1298.83 649,-1298.83 649,-1276.33 218.5,-1276.33"/>
<text text-anchor="start" x="302.88" y="-1283.53" font-family="Times New Roman,serif" font-weight="bold" font-size="14.00">SeqQueryGetNonStructGameDataBool (5)</text>
<polygon fill="none" stroke="black" points="218.5,-1253.83 218.5,-1276.33 649,-1276.33 649,-1253.83 218.5,-1253.83"/>
<text text-anchor="start" x="401.88" y="-1261.03" font-family="Times New Roman,serif" font-weight="bold" font-size="14.00">Properties</text>
<polygon fill="none" stroke="black" points="218.5,-1232.08 218.5,-1253.83 649,-1253.83 649,-1232.08 218.5,-1232.08"/>
<text text-anchor="start" x="308.12" y="-1237.53" font-family="Times New Roman,serif" font-size="14.00">[Bool] OutputOnlyOnEnter (default = False) </text>
<polygon fill="none" stroke="black" points="218.5,-1209.58 218.5,-1232.08 649,-1232.08 649,-1209.58 218.5,-1209.58"/>
<text text-anchor="start" x="414.62" y="-1216.78" font-family="Times New Roman,serif" font-weight="bold" font-size="14.00">Inputs</text>
<polygon fill="none" stroke="black" points="218.5,-1187.83 218.5,-1209.58 649,-1209.58 649,-1187.83 218.5,-1187.83"/>
<text text-anchor="start" x="334.38" y="-1193.28" font-family="Times New Roman,serif" font-size="14.00">[Int] GameDataIndex (default = &#45;1) </text>
<polygon fill="none" stroke="black" points="218.5,-1166.08 218.5,-1187.83 649,-1187.83 649,-1166.08 218.5,-1166.08"/>
<text text-anchor="start" x="221.5" y="-1171.53" font-family="Times New Roman,serif" font-size="14.00">[String] GameDataFullName (default = CharaDirectory_IsNeedOpenDemo) </text>
<polygon fill="none" stroke="black" points="218.5,-1143.58 218.5,-1166.08 649,-1166.08 649,-1143.58 218.5,-1143.58"/>
<text text-anchor="start" x="409.38" y="-1150.78" font-family="Times New Roman,serif" font-weight="bold" font-size="14.00">Outputs</text>
<polygon fill="none" stroke="black" points="218.5,-1121.83 218.5,-1143.58 649,-1143.58 649,-1121.83 218.5,-1121.83"/>
<text text-anchor="start" x="398.12" y="-1127.28" font-family="Times New Roman,serif" font-size="14.00">[Bool] Value</text>
<polygon fill="none" stroke="black" points="217.5,-1120.83 217.5,-1299.83 650,-1299.83 650,-1120.83 217.5,-1120.83"/>
</g>
<!-- 16906&#45;&gt;16903 -->
<g id="edge3" class="edge">
<title>16906:16940&#45;&gt;16903:16937</title>
<path fill="none" stroke="#008000" stroke-dasharray="5,2" d="M433.75,-1120.33C433.75,-1090.3 442.98,-1083.74 445.75,-1053.83 452.33,-982.66 514.93,-894.02 457.89,-884.54"/>
<polygon fill="#008000" stroke="#008000" points="458.49,-881.07 448.26,-883.82 457.97,-888.05 458.49,-881.07"/>
<text text-anchor="middle" x="454.38" y="-1085.53" font-family="Times New Roman,serif" font-size="14.00" fill="#008000">Input</text>
</g>
<!-- 16921&#45;&gt;16918 -->
<g id="edge9" class="edge">
<title>16921&#45;&gt;16918</title>
<path fill="none" stroke="firebrick" stroke-width="2" d="M357.95,-380.05C341.63,-361.39 325.15,-342.54 310.97,-326.33"/>
<polygon fill="firebrick" stroke="firebrick" stroke-width="2" points="314.99,-325.61 305.78,-320.39 309.72,-330.22 314.99,-325.61"/>
<text text-anchor="middle" x="353.38" y="-349.03" font-family="Times New Roman,serif" font-size="14.00" fill="firebrick">False</text>
</g>
<!-- 16927 -->
<g id="node9" class="node">
<title>16927</title>
<polygon fill="none" stroke="black" stroke-width="2" points="625.12,-328.58 426.38,-328.58 426.38,-230.08 625.12,-230.08 625.12,-328.58"/>
<polygon fill="none" stroke="black" points="435.38,-301.08 435.38,-323.58 616.12,-323.58 616.12,-301.08 435.38,-301.08"/>
<text text-anchor="start" x="445.88" y="-308.28" font-family="Times New Roman,serif" font-weight="bold" font-size="14.00">Element_Simultaneous (9)</text>
<polygon fill="none" stroke="black" points="435.38,-278.58 435.38,-301.08 616.12,-301.08 616.12,-278.58 435.38,-278.58"/>
<text text-anchor="start" x="493.88" y="-285.78" font-family="Times New Roman,serif" font-weight="bold" font-size="14.00">Properties</text>
<polygon fill="none" stroke="black" points="435.38,-256.83 435.38,-278.58 616.12,-278.58 616.12,-256.83 435.38,-256.83"/>
<text text-anchor="start" x="444.75" y="-262.28" font-family="Times New Roman,serif" font-size="14.00">[Int] EndPolicy (default = 0) </text>
<polygon fill="none" stroke="black" points="435.38,-235.08 435.38,-256.83 616.12,-256.83 616.12,-235.08 435.38,-235.08"/>
<text text-anchor="start" x="438.38" y="-240.53" font-family="Times New Roman,serif" font-size="14.00">[Int] ResultPolicy (default = 0) </text>
<polygon fill="none" stroke="black" points="434.38,-234.08 434.38,-324.58 617.12,-324.58 617.12,-234.08 434.38,-234.08"/>
</g>
<!-- 16921&#45;&gt;16927 -->
<g id="edge10" class="edge">
<title>16921&#45;&gt;16927</title>
<path fill="none" stroke="firebrick" stroke-width="2" d="M480.59,-380.05C486.91,-366.09 493.28,-352.03 499.16,-339.05"/>
<polygon fill="firebrick" stroke="firebrick" stroke-width="2" points="501.57,-342.2 502.51,-331.65 495.2,-339.32 501.57,-342.2"/>
<text text-anchor="middle" x="507.88" y="-349.03" font-family="Times New Roman,serif" font-size="14.00" fill="firebrick">True</text>
</g>
<!-- 16912 -->
<g id="node6" class="node">
<title>16912</title>
<polygon fill="none" stroke="black" stroke-width="2" points="895,-1065.08 584.5,-1065.08 584.5,-856.33 895,-856.33 895,-1065.08"/>
<polygon fill="none" stroke="black" points="593.5,-1037.58 593.5,-1060.08 886,-1060.08 886,-1037.58 593.5,-1037.58"/>
<text text-anchor="start" x="640.38" y="-1044.78" font-family="Times New Roman,serif" font-weight="bold" font-size="14.00">SeqQueryGetGameDataBool (3)</text>
<polygon fill="none" stroke="black" points="593.5,-1015.08 593.5,-1037.58 886,-1037.58 886,-1015.08 593.5,-1015.08"/>
<text text-anchor="start" x="707.88" y="-1022.28" font-family="Times New Roman,serif" font-weight="bold" font-size="14.00">Properties</text>
<polygon fill="none" stroke="black" points="593.5,-993.33 593.5,-1015.08 886,-1015.08 886,-993.33 593.5,-993.33"/>
<text text-anchor="start" x="614.12" y="-998.78" font-family="Times New Roman,serif" font-size="14.00">[Bool] OutputOnlyOnEnter (default = False) </text>
<polygon fill="none" stroke="black" points="593.5,-970.83 593.5,-993.33 886,-993.33 886,-970.83 593.5,-970.83"/>
<text text-anchor="start" x="720.62" y="-978.03" font-family="Times New Roman,serif" font-weight="bold" font-size="14.00">Inputs</text>
<polygon fill="none" stroke="black" points="593.5,-949.08 593.5,-970.83 886,-970.83 886,-949.08 593.5,-949.08"/>
<text text-anchor="start" x="640.38" y="-954.53" font-family="Times New Roman,serif" font-size="14.00">[Int] GameDataIndex (default = &#45;1) </text>
<polygon fill="none" stroke="black" points="593.5,-927.33 593.5,-949.08 886,-949.08 886,-927.33 593.5,-927.33"/>
<text text-anchor="start" x="596.5" y="-932.78" font-family="Times New Roman,serif" font-size="14.00">[String] GameDataName (default = Dm_SY_0009) </text>
<polygon fill="none" stroke="black" points="593.5,-905.58 593.5,-927.33 886,-927.33 886,-905.58 593.5,-905.58"/>
<text text-anchor="start" x="613.38" y="-911.03" font-family="Times New Roman,serif" font-size="14.00">[const void*] ParentStruct (default = nullptr) </text>
<polygon fill="none" stroke="black" points="593.5,-883.08 593.5,-905.58 886,-905.58 886,-883.08 593.5,-883.08"/>
<text text-anchor="start" x="715.38" y="-890.28" font-family="Times New Roman,serif" font-weight="bold" font-size="14.00">Outputs</text>
<polygon fill="none" stroke="black" points="593.5,-861.33 593.5,-883.08 886,-883.08 886,-861.33 593.5,-861.33"/>
<text text-anchor="start" x="704.12" y="-866.78" font-family="Times New Roman,serif" font-size="14.00">[Bool] Value</text>
<polygon fill="none" stroke="black" points="592.5,-860.33 592.5,-1061.08 887,-1061.08 887,-860.33 592.5,-860.33"/>
</g>
<!-- 16912&#45;&gt;16909 -->
<g id="edge6" class="edge">
<title>16912:16945&#45;&gt;16909:16941</title>
<path fill="none" stroke="#008000" stroke-dasharray="5,2" d="M739.75,-860.71C739.75,-787.07 853.29,-864.82 895.62,-804.58 907.2,-788.12 909.81,-637.73 895.62,-623.46 885.14,-612.91 779,-606.92 746.9,-616.02"/>
<polygon fill="#008000" stroke="#008000" points="745.15,-612.97 738.99,-621.59 749.18,-618.7 745.15,-612.97"/>
<text text-anchor="middle" x="886.38" y="-825.03" font-family="Times New Roman,serif" font-size="14.00" fill="#008000">Input</text>
</g>
<!-- 16915 -->
<g id="node7" class="node">
<title>16915</title>
<polygon fill="none" stroke="black" stroke-width="2" points="1062.12,-1303.83 713.38,-1303.83 713.38,-1116.83 1062.12,-1116.83 1062.12,-1303.83"/>
<polygon fill="none" stroke="black" points="722.38,-1276.33 722.38,-1298.83 1053.12,-1298.83 1053.12,-1276.33 722.38,-1276.33"/>
<text text-anchor="start" x="752.38" y="-1283.53" font-family="Times New Roman,serif" font-weight="bold" font-size="14.00">SeqQueryGetNonStructGameDataStruct (0)</text>
<polygon fill="none" stroke="black" points="722.38,-1253.83 722.38,-1276.33 1053.12,-1276.33 1053.12,-1253.83 722.38,-1253.83"/>
<text text-anchor="start" x="855.88" y="-1261.03" font-family="Times New Roman,serif" font-weight="bold" font-size="14.00">Properties</text>
<polygon fill="none" stroke="black" points="722.38,-1232.08 722.38,-1253.83 1053.12,-1253.83 1053.12,-1232.08 722.38,-1232.08"/>
<text text-anchor="start" x="762.12" y="-1237.53" font-family="Times New Roman,serif" font-size="14.00">[Bool] OutputOnlyOnEnter (default = False) </text>
<polygon fill="none" stroke="black" points="722.38,-1209.58 722.38,-1232.08 1053.12,-1232.08 1053.12,-1209.58 722.38,-1209.58"/>
<text text-anchor="start" x="868.62" y="-1216.78" font-family="Times New Roman,serif" font-weight="bold" font-size="14.00">Inputs</text>
<polygon fill="none" stroke="black" points="722.38,-1187.83 722.38,-1209.58 1053.12,-1209.58 1053.12,-1187.83 722.38,-1187.83"/>
<text text-anchor="start" x="788.38" y="-1193.28" font-family="Times New Roman,serif" font-size="14.00">[Int] GameDataIndex (default = &#45;1) </text>
<polygon fill="none" stroke="black" points="722.38,-1166.08 722.38,-1187.83 1053.12,-1187.83 1053.12,-1166.08 722.38,-1166.08"/>
<text text-anchor="start" x="725.38" y="-1171.53" font-family="Times New Roman,serif" font-size="14.00">[String] GameDataFullName (default = HavePlayedEvent) </text>
<polygon fill="none" stroke="black" points="722.38,-1143.58 722.38,-1166.08 1053.12,-1166.08 1053.12,-1143.58 722.38,-1143.58"/>
<text text-anchor="start" x="863.38" y="-1150.78" font-family="Times New Roman,serif" font-weight="bold" font-size="14.00">Outputs</text>
<polygon fill="none" stroke="black" points="722.38,-1121.83 722.38,-1143.58 1053.12,-1143.58 1053.12,-1121.83 722.38,-1121.83"/>
<text text-anchor="start" x="780.12" y="-1127.28" font-family="Times New Roman,serif" font-size="14.00">[const void*] Value (default = nullptr) </text>
<polygon fill="none" stroke="black" points="721.38,-1120.83 721.38,-1299.83 1054.12,-1299.83 1054.12,-1120.83 721.38,-1120.83"/>
</g>
<!-- 16915&#45;&gt;16912 -->
<g id="edge7" class="edge">
<title>16915:16948&#45;&gt;16912:16944</title>
<path fill="none" stroke="#008000" stroke-dasharray="5,2" d="M721.75,-1132.33C714.85,-1132.33 718.5,-1122.27 722.75,-1116.83 734.46,-1101.87 874.48,-1080.38 885.75,-1065.08 902.87,-1041.85 916.04,-945.67 896.98,-921.99"/>
<polygon fill="#008000" stroke="#008000" points="898.58,-918.88 888.09,-917.4 895.37,-925.1 898.58,-918.88"/>
<text text-anchor="middle" x="869.25" y="-1085.53" font-family="Times New Roman,serif" font-size="14.00" fill="#008000">ParentStruct</text>
</g>
<!-- 16933 -->
<g id="node8" class="node">
<title>16933</title>
<polygon fill="none" stroke="black" stroke-width="2" points="1079,-193.08 768.5,-193.08 768.5,-6.83 1079,-6.83 1079,-193.08"/>
<polygon fill="none" stroke="black" points="777.5,-165.58 777.5,-188.08 1070,-188.08 1070,-165.58 777.5,-165.58"/>
<text text-anchor="start" x="814.62" y="-172.78" font-family="Times New Roman,serif" font-weight="bold" font-size="14.00">SeqOneShotSetGameDataBool (10)</text>
<polygon fill="none" stroke="black" points="777.5,-143.08 777.5,-165.58 1070,-165.58 1070,-143.08 777.5,-143.08"/>
<text text-anchor="start" x="891.88" y="-150.28" font-family="Times New Roman,serif" font-weight="bold" font-size="14.00">Properties</text>
<polygon fill="none" stroke="black" points="777.5,-121.33 777.5,-143.08 1070,-143.08 1070,-121.33 777.5,-121.33"/>
<text text-anchor="start" x="798.5" y="-126.78" font-family="Times New Roman,serif" font-size="14.00">[Bool] ExecuteEveryFrame (default = False) </text>
<polygon fill="none" stroke="black" points="777.5,-98.83 777.5,-121.33 1070,-121.33 1070,-98.83 777.5,-98.83"/>
<text text-anchor="start" x="904.62" y="-106.03" font-family="Times New Roman,serif" font-weight="bold" font-size="14.00">Inputs</text>
<polygon fill="none" stroke="black" points="777.5,-77.08 777.5,-98.83 1070,-98.83 1070,-77.08 777.5,-77.08"/>
<text text-anchor="start" x="824.38" y="-82.53" font-family="Times New Roman,serif" font-size="14.00">[Int] GameDataIndex (default = &#45;1) </text>
<polygon fill="none" stroke="black" points="777.5,-55.33 777.5,-77.08 1070,-77.08 1070,-55.33 777.5,-55.33"/>
<text text-anchor="start" x="840.12" y="-60.78" font-family="Times New Roman,serif" font-size="14.00">[Bool] Value (default = True) </text>
<polygon fill="none" stroke="black" points="777.5,-33.58 777.5,-55.33 1070,-55.33 1070,-33.58 777.5,-33.58"/>
<text text-anchor="start" x="780.5" y="-39.03" font-family="Times New Roman,serif" font-size="14.00">[String] GameDataName (default = Dm_SY_0009) </text>
<polygon fill="none" stroke="black" points="777.5,-11.83 777.5,-33.58 1070,-33.58 1070,-11.83 777.5,-11.83"/>
<text text-anchor="start" x="797.38" y="-17.28" font-family="Times New Roman,serif" font-size="14.00">[const void*] ParentStruct (default = nullptr) </text>
<polygon fill="none" stroke="black" points="776.5,-10.83 776.5,-189.08 1071,-189.08 1071,-10.83 776.5,-10.83"/>
</g>
<!-- 16915&#45;&gt;16933 -->
<g id="edge8" class="edge">
<title>16915:16948&#45;&gt;16933:16956</title>
<path fill="none" stroke="#008000" stroke-dasharray="5,2" d="M887.75,-1120.33C887.75,-1107.28 902.28,-1110.68 907.75,-1098.83 933.48,-1043.13 923.75,-1023.06 923.75,-961.71 923.75,-961.71 923.75,-961.71 923.75,-278.33 923.75,-199.61 1038.91,-260.83 1079,-193.08 1119.99,-123.8 1135.74,-69.06 1079,-11.96 1068.74,-1.63 965.27,4.26 933.19,-4.51"/>
<polygon fill="#008000" stroke="#008000" points="931.28,-1.57 925,-10.1 935.23,-7.35 931.28,-1.57"/>
<text text-anchor="middle" x="958.25" y="-587.03" font-family="Times New Roman,serif" font-size="14.00" fill="#008000">ParentStruct</text>
</g>
<!-- 16927&#45;&gt;16933 -->
<g id="edge13" class="edge">
<title>16927&#45;&gt;16933</title>
<path fill="none" stroke="firebrick" stroke-width="2" d="M625.5,-245.75C664.5,-232.07 709.54,-215.12 757.84,-193.38"/>
<polygon fill="firebrick" stroke="firebrick" stroke-width="2" points="757.79,-197.25 765.44,-189.92 754.89,-190.88 757.79,-197.25"/>
</g>
<!-- 16930 -->
<g id="node11" class="node">
<title>16930</title>
<polygon fill="none" stroke="black" stroke-width="2" points="283.5,-171.33 0,-171.33 0,-28.58 283.5,-28.58 283.5,-171.33"/>
<polygon fill="none" stroke="black" points="9,-143.83 9,-166.33 274.5,-166.33 274.5,-143.83 9,-143.83"/>
<text text-anchor="start" x="51.38" y="-151.03" font-family="Times New Roman,serif" font-weight="bold" font-size="14.00">SeqOneShotRequestEvent (7)</text>
<polygon fill="none" stroke="black" points="9,-121.33 9,-143.83 274.5,-143.83 274.5,-121.33 9,-121.33"/>
<text text-anchor="start" x="109.88" y="-128.53" font-family="Times New Roman,serif" font-weight="bold" font-size="14.00">Properties</text>
<polygon fill="none" stroke="black" points="9,-99.58 9,-121.33 274.5,-121.33 274.5,-99.58 9,-99.58"/>
<text text-anchor="start" x="16.5" y="-105.03" font-family="Times New Roman,serif" font-size="14.00">[Bool] ExecuteEveryFrame (default = False) </text>
<polygon fill="none" stroke="black" points="9,-77.08 9,-99.58 274.5,-99.58 274.5,-77.08 9,-77.08"/>
<text text-anchor="start" x="122.62" y="-84.28" font-family="Times New Roman,serif" font-weight="bold" font-size="14.00">Inputs</text>
<polygon fill="none" stroke="black" points="9,-55.33 9,-77.08 274.5,-77.08 274.5,-55.33 9,-55.33"/>
<text text-anchor="start" x="19.5" y="-60.78" font-family="Times New Roman,serif" font-size="14.00">[Bool] IsBancParamValue (default = False) </text>
<polygon fill="none" stroke="black" points="9,-33.58 9,-55.33 274.5,-55.33 274.5,-33.58 9,-33.58"/>
<text text-anchor="start" x="12" y="-39.03" font-family="Times New Roman,serif" font-size="14.00">[String] EventName (default = Dm_SY_0009) </text>
<polygon fill="none" stroke="black" points="8,-32.58 8,-167.33 275.5,-167.33 275.5,-32.58 8,-32.58"/>
</g>
<!-- 16927&#45;&gt;16930 -->
<g id="edge12" class="edge">
<title>16927&#45;&gt;16930</title>
<path fill="none" stroke="firebrick" stroke-width="2" d="M426.17,-233.64C423,-232.42 419.86,-231.23 416.75,-230.08 362.79,-210.18 345.29,-216.47 292.75,-193.08 282.01,-188.3 271.11,-182.89 260.33,-177.14"/>
<polygon fill="firebrick" stroke="firebrick" stroke-width="2" points="263.59,-174.93 253.13,-173.23 260.24,-181.08 263.59,-174.93"/>
</g>
<!-- 16936 -->
<g id="node12" class="node">
<title>16936</title>
<polygon fill="none" stroke="black" stroke-width="2" points="750,-182.21 301.5,-182.21 301.5,-17.71 750,-17.71 750,-182.21"/>
<polygon fill="none" stroke="black" points="310.5,-154.71 310.5,-177.21 741,-177.21 741,-154.71 310.5,-154.71"/>
<text text-anchor="start" x="388.88" y="-161.91" font-family="Times New Roman,serif" font-weight="bold" font-size="14.00">SeqOneShotSetNonStructGameDataBool (8)</text>
<polygon fill="none" stroke="black" points="310.5,-132.21 310.5,-154.71 741,-154.71 741,-132.21 310.5,-132.21"/>
<text text-anchor="start" x="493.88" y="-139.41" font-family="Times New Roman,serif" font-weight="bold" font-size="14.00">Properties</text>
<polygon fill="none" stroke="black" points="310.5,-110.46 310.5,-132.21 741,-132.21 741,-110.46 310.5,-110.46"/>
<text text-anchor="start" x="400.5" y="-115.91" font-family="Times New Roman,serif" font-size="14.00">[Bool] ExecuteEveryFrame (default = False) </text>
<polygon fill="none" stroke="black" points="310.5,-87.96 310.5,-110.46 741,-110.46 741,-87.96 310.5,-87.96"/>
<text text-anchor="start" x="506.62" y="-95.16" font-family="Times New Roman,serif" font-weight="bold" font-size="14.00">Inputs</text>
<polygon fill="none" stroke="black" points="310.5,-66.21 310.5,-87.96 741,-87.96 741,-66.21 310.5,-66.21"/>
<text text-anchor="start" x="426.38" y="-71.66" font-family="Times New Roman,serif" font-size="14.00">[Int] GameDataIndex (default = &#45;1) </text>
<polygon fill="none" stroke="black" points="310.5,-44.46 310.5,-66.21 741,-66.21 741,-44.46 310.5,-44.46"/>
<text text-anchor="start" x="440.62" y="-49.91" font-family="Times New Roman,serif" font-size="14.00">[Bool] Value (default = False) </text>
<polygon fill="none" stroke="black" points="310.5,-22.71 310.5,-44.46 741,-44.46 741,-22.71 310.5,-22.71"/>
<text text-anchor="start" x="313.5" y="-28.16" font-family="Times New Roman,serif" font-size="14.00">[String] GameDataFullName (default = CharaDirectory_IsNeedOpenDemo) </text>
<polygon fill="none" stroke="black" points="309.5,-21.71 309.5,-178.21 742,-178.21 742,-21.71 309.5,-21.71"/>
</g>
<!-- 16927&#45;&gt;16936 -->
<g id="edge14" class="edge">
<title>16927&#45;&gt;16936</title>
<path fill="none" stroke="firebrick" stroke-width="2" d="M525.75,-229.86C525.75,-218.63 525.75,-206.31 525.75,-193.88"/>
<polygon fill="firebrick" stroke="firebrick" stroke-width="2" points="529.25,-195.48 525.75,-185.48 522.25,-195.48 529.25,-195.48"/>
</g>
<!-- 16924 -->
<g id="node10" class="node">
<title>16924</title>
<polygon fill="none" stroke="black" stroke-width="2" points="562,-771.96 251.5,-771.96 251.5,-650.96 562,-650.96 562,-771.96"/>
<polygon fill="none" stroke="black" points="260.5,-744.46 260.5,-766.96 553,-766.96 553,-744.46 260.5,-744.46"/>
<text text-anchor="start" x="263.5" y="-751.66" font-family="Times New Roman,serif" font-weight="bold" font-size="14.00">SeqQueryIsPlayerEnableUpdateRestartPos (1)</text>
<polygon fill="none" stroke="black" points="260.5,-721.96 260.5,-744.46 553,-744.46 553,-721.96 260.5,-721.96"/>
<text text-anchor="start" x="374.88" y="-729.16" font-family="Times New Roman,serif" font-weight="bold" font-size="14.00">Properties</text>
<polygon fill="none" stroke="black" points="260.5,-700.21 260.5,-721.96 553,-721.96 553,-700.21 260.5,-700.21"/>
<text text-anchor="start" x="281.12" y="-705.66" font-family="Times New Roman,serif" font-size="14.00">[Bool] OutputOnlyOnEnter (default = False) </text>
<polygon fill="none" stroke="black" points="260.5,-677.71 260.5,-700.21 553,-700.21 553,-677.71 260.5,-677.71"/>
<text text-anchor="start" x="382.38" y="-684.91" font-family="Times New Roman,serif" font-weight="bold" font-size="14.00">Outputs</text>
<polygon fill="none" stroke="black" points="260.5,-655.96 260.5,-677.71 553,-677.71 553,-655.96 260.5,-655.96"/>
<text text-anchor="start" x="362.88" y="-661.41" font-family="Times New Roman,serif" font-size="14.00">[Bool] IsEnable</text>
<polygon fill="none" stroke="black" points="259.5,-654.96 259.5,-767.96 554,-767.96 554,-654.96 259.5,-654.96"/>
</g>
<!-- 16924&#45;&gt;16921 -->
<g id="edge11" class="edge">
<title>16924:16950&#45;&gt;16921:16949</title>
<path fill="none" stroke="#008000" stroke-dasharray="5,2" d="M406.75,-654.46C406.75,-613.3 431.32,-604.2 467.5,-584.58 518.44,-556.96 558.59,-610.29 596.62,-566.58 623.05,-536.22 625,-414.01 596.62,-385.46 586.14,-374.91 480,-368.92 447.9,-378.02"/>
<polygon fill="#008000" stroke="#008000" points="446.15,-374.97 439.99,-383.59 450.18,-380.7 446.15,-374.97"/>
<text text-anchor="middle" x="481.38" y="-587.03" font-family="Times New Roman,serif" font-size="14.00" fill="#008000">Input</text>
</g>
<!-- 16960 -->
<g id="node13" class="node">
<title>16960</title>
<ellipse fill="mediumpurple" stroke="mediumpurple" cx="159.75" cy="-1210.33" rx="31.9" ry="18"/>
<text text-anchor="start" x="144.38" y="-1206.28" font-family="Times New Roman,serif" font-weight="bold" font-size="14.00" fill="white">Start</text>
</g>
<!-- 16960&#45;&gt;16903 -->
<g id="edge15" class="edge">
<title>16960&#45;&gt;16903</title>
<path fill="none" stroke="black" d="M166.48,-1192.29C174.1,-1173.48 187.22,-1142.46 200.75,-1116.83 209.98,-1099.34 220.42,-1081.16 230.93,-1063.66"/>
<polygon fill="black" stroke="black" points="233.8,-1065.67 235.98,-1055.31 227.81,-1062.05 233.8,-1065.67"/>
</g>
</g>
</svg>
