<?xml version="1.0" encoding="UTF-8" standalone="no"?>
<!DOCTYPE svg PUBLIC "-//W3C//DTD SVG 1.1//EN"
 "http://www.w3.org/Graphics/SVG/1.1/DTD/svg11.dtd">
<!-- Generated by graphviz version 9.0.0 (20230911.1827)
 -->
<!-- Title: _LocalModule_265b15c6e28f.module Pages: 1 -->
<svg width="506pt" height="562pt"
 viewBox="0.00 0.00 505.50 561.50" xmlns="http://www.w3.org/2000/svg" xmlns:xlink="http://www.w3.org/1999/xlink">
<g id="graph0" class="graph" transform="scale(1 1) rotate(0) translate(4 557.5)">
<title>_LocalModule_265b15c6e28f.module</title>
<polygon fill="lightgray" stroke="none" points="-4,4 -4,-557.5 501.5,-557.5 501.5,4 -4,4"/>
<!-- 16963 -->
<g id="node1" class="node">
<title>16963</title>
<polygon fill="none" stroke="black" stroke-width="2" points="497.5,-380.75 181.75,-380.75 181.75,-194.5 497.5,-194.5 497.5,-380.75"/>
<polygon fill="none" stroke="black" points="190.75,-353.25 190.75,-375.75 488.5,-375.75 488.5,-353.25 190.75,-353.25"/>
<text text-anchor="start" x="261.25" y="-360.45" font-family="Times New Roman,serif" font-weight="bold" font-size="14.00">Element_BoolSelector (2)</text>
<polygon fill="none" stroke="black" points="190.75,-330.75 190.75,-353.25 488.5,-353.25 488.5,-330.75 190.75,-330.75"/>
<text text-anchor="start" x="307.75" y="-337.95" font-family="Times New Roman,serif" font-weight="bold" font-size="14.00">Properties</text>
<polygon fill="none" stroke="black" points="190.75,-309 190.75,-330.75 488.5,-330.75 488.5,-309 190.75,-309"/>
<text text-anchor="start" x="242.5" y="-314.45" font-family="Times New Roman,serif" font-size="14.00">[Int] CalculateTiming (default = 0) </text>
<polygon fill="none" stroke="black" points="190.75,-287.25 190.75,-309 488.5,-309 488.5,-287.25 190.75,-287.25"/>
<text text-anchor="start" x="223.38" y="-292.7" font-family="Times New Roman,serif" font-size="14.00">[Bool] ChildFrameSync (default = False) </text>
<polygon fill="none" stroke="black" points="190.75,-265.5 190.75,-287.25 488.5,-287.25 488.5,-265.5 190.75,-265.5"/>
<text text-anchor="start" x="239.88" y="-270.95" font-family="Times New Roman,serif" font-size="14.00">[Bool] InputValue (default = False) </text>
<polygon fill="none" stroke="black" points="190.75,-243.75 190.75,-265.5 488.5,-265.5 488.5,-243.75 190.75,-243.75"/>
<text text-anchor="start" x="193.75" y="-249.2" font-family="Times New Roman,serif" font-size="14.00">[Bool] IsNoSelectWhenChildBusy (default = False) </text>
<polygon fill="none" stroke="black" points="190.75,-221.25 190.75,-243.75 488.5,-243.75 488.5,-221.25 190.75,-221.25"/>
<text text-anchor="start" x="320.5" y="-228.45" font-family="Times New Roman,serif" font-weight="bold" font-size="14.00">Inputs</text>
<polygon fill="none" stroke="black" points="190.75,-199.5 190.75,-221.25 488.5,-221.25 488.5,-199.5 190.75,-199.5"/>
<text text-anchor="start" x="255.62" y="-204.95" font-family="Times New Roman,serif" font-size="14.00">[Bool] Input (default = False) </text>
<polygon fill="none" stroke="black" points="189.75,-198.5 189.75,-376.75 489.5,-376.75 489.5,-198.5 189.75,-198.5"/>
</g>
<!-- 16969 -->
<g id="node2" class="node">
<title>16969</title>
<polygon fill="none" stroke="black" stroke-width="2" points="427.88,-142.75 153.38,-142.75 153.38,0 427.88,0 427.88,-142.75"/>
<polygon fill="none" stroke="black" points="162.38,-115.25 162.38,-137.75 418.88,-137.75 418.88,-115.25 162.38,-115.25"/>
<text text-anchor="start" x="174" y="-122.45" font-family="Times New Roman,serif" font-weight="bold" font-size="14.00">SeqOneShotRequestSaveLoadIcon (1)</text>
<polygon fill="none" stroke="black" points="162.38,-92.75 162.38,-115.25 418.88,-115.25 418.88,-92.75 162.38,-92.75"/>
<text text-anchor="start" x="258.75" y="-99.95" font-family="Times New Roman,serif" font-weight="bold" font-size="14.00">Properties</text>
<polygon fill="none" stroke="black" points="162.38,-71 162.38,-92.75 418.88,-92.75 418.88,-71 162.38,-71"/>
<text text-anchor="start" x="165.38" y="-76.45" font-family="Times New Roman,serif" font-size="14.00">[Bool] ExecuteEveryFrame (default = False) </text>
<polygon fill="none" stroke="black" points="162.38,-48.5 162.38,-71 418.88,-71 418.88,-48.5 162.38,-48.5"/>
<text text-anchor="start" x="271.5" y="-55.7" font-family="Times New Roman,serif" font-weight="bold" font-size="14.00">Inputs</text>
<polygon fill="none" stroke="black" points="162.38,-26.75 162.38,-48.5 418.88,-48.5 418.88,-26.75 162.38,-26.75"/>
<text text-anchor="start" x="217.5" y="-32.2" font-family="Times New Roman,serif" font-size="14.00">[Int] Reason (default = 2) </text>
<polygon fill="none" stroke="black" points="162.38,-5 162.38,-26.75 418.88,-26.75 418.88,-5 162.38,-5"/>
<text text-anchor="start" x="202.12" y="-10.45" font-family="Times New Roman,serif" font-size="14.00">[Bool] IsOpen (default = True) </text>
<polygon fill="none" stroke="black" points="161.38,-4 161.38,-138.75 419.88,-138.75 419.88,-4 161.38,-4"/>
</g>
<!-- 16963&#45;&gt;16969 -->
<g id="edge1" class="edge">
<title>16963&#45;&gt;16969</title>
<path fill="none" stroke="firebrick" stroke-width="2" d="M324.83,-194.24C322.62,-182.91 320.21,-171.54 317.62,-160.75 317.11,-158.59 316.57,-156.4 316.01,-154.19"/>
<polygon fill="firebrick" stroke="firebrick" stroke-width="2" points="319.78,-154.77 313.84,-146 313.01,-156.56 319.78,-154.77"/>
<text text-anchor="middle" x="336.25" y="-163.2" font-family="Times New Roman,serif" font-size="14.00" fill="firebrick">False</text>
</g>
<!-- 16963&#45;&gt;16969 -->
<g id="edge2" class="edge">
<title>16963&#45;&gt;16969</title>
<path fill="none" stroke="firebrick" stroke-width="2" d="M292.31,-194.23C290.38,-188.32 288.7,-182.38 287.38,-176.5 285.78,-169.41 284.76,-161.98 284.19,-154.5"/>
<polygon fill="firebrick" stroke="firebrick" stroke-width="2" points="287.76,-155.97 283.78,-146.15 280.77,-156.31 287.76,-155.97"/>
<text text-anchor="middle" x="300.75" y="-163.2" font-family="Times New Roman,serif" font-size="14.00" fill="firebrick">True</text>
</g>
<!-- 16966 -->
<g id="node3" class="node">
<title>16966</title>
<polygon fill="none" stroke="black" stroke-width="2" points="275.25,-553.5 0,-553.5 0,-432.5 275.25,-432.5 275.25,-553.5"/>
<polygon fill="none" stroke="black" points="9,-526 9,-548.5 266.25,-548.5 266.25,-526 9,-526"/>
<text text-anchor="start" x="48" y="-533.2" font-family="Times New Roman,serif" font-weight="bold" font-size="14.00">SeqQueryIsLoadingPause (0)</text>
<polygon fill="none" stroke="black" points="9,-503.5 9,-526 266.25,-526 266.25,-503.5 9,-503.5"/>
<text text-anchor="start" x="105.75" y="-510.7" font-family="Times New Roman,serif" font-weight="bold" font-size="14.00">Properties</text>
<polygon fill="none" stroke="black" points="9,-481.75 9,-503.5 266.25,-503.5 266.25,-481.75 9,-481.75"/>
<text text-anchor="start" x="12" y="-487.2" font-family="Times New Roman,serif" font-size="14.00">[Bool] OutputOnlyOnEnter (default = False) </text>
<polygon fill="none" stroke="black" points="9,-459.25 9,-481.75 266.25,-481.75 266.25,-459.25 9,-459.25"/>
<text text-anchor="start" x="113.25" y="-466.45" font-family="Times New Roman,serif" font-weight="bold" font-size="14.00">Outputs</text>
<polygon fill="none" stroke="black" points="9,-437.5 9,-459.25 266.25,-459.25 266.25,-437.5 9,-437.5"/>
<text text-anchor="start" x="73.12" y="-442.95" font-family="Times New Roman,serif" font-size="14.00">[Bool] IsLoadingPause</text>
<polygon fill="none" stroke="black" points="8,-436.5 8,-549.5 267.25,-549.5 267.25,-436.5 8,-436.5"/>
</g>
<!-- 16966&#45;&gt;16963 -->
<g id="edge3" class="edge">
<title>16966:16971&#45;&gt;16963:16970</title>
<path fill="none" stroke="#008000" stroke-dasharray="5,2" d="M267.62,-448C274.53,-448 270.05,-438.5 266.62,-432.5 246.37,-397.01 209.84,-416.82 190.62,-380.75 174.8,-351.03 156.38,-239.3 179.25,-215.22"/>
<polygon fill="#008000" stroke="#008000" points="180.51,-218.49 188.24,-211.24 177.68,-212.09 180.51,-218.49"/>
<text text-anchor="middle" x="263.25" y="-401.2" font-family="Times New Roman,serif" font-size="14.00" fill="#008000">Input</text>
</g>
<!-- 16966&#45;&gt;16969 -->
<g id="edge4" class="edge">
<title>16966:16971&#45;&gt;16969:16973</title>
<path fill="none" stroke="#008000" stroke-dasharray="5,2" d="M137.62,-436C137.62,-411.29 132.77,-405.42 131.38,-380.75 126.72,-298.1 124.46,-276.99 131.38,-194.5 137.78,-118.13 86.53,-25.35 150.37,-16.12"/>
<polygon fill="#008000" stroke="#008000" points="150.37,-19.63 160.11,-15.48 149.9,-12.65 150.37,-19.63"/>
<text text-anchor="middle" x="152.25" y="-282.2" font-family="Times New Roman,serif" font-size="14.00" fill="#008000">IsOpen</text>
</g>
<!-- 16974 -->
<g id="node4" class="node">
<title>16974</title>
<ellipse fill="mediumpurple" stroke="mediumpurple" cx="339.62" cy="-493" rx="31.9" ry="18"/>
<text text-anchor="start" x="324.25" y="-488.95" font-family="Times New Roman,serif" font-weight="bold" font-size="14.00" fill="white">Start</text>
</g>
<!-- 16974&#45;&gt;16963 -->
<g id="edge5" class="edge">
<title>16974&#45;&gt;16963</title>
<path fill="none" stroke="black" d="M339.62,-474.66C339.62,-455.84 339.62,-424.19 339.62,-392.28"/>
<polygon fill="black" stroke="black" points="343.13,-392.51 339.63,-382.51 336.13,-392.51 343.13,-392.51"/>
</g>
</g>
</svg>
