<?xml version="1.0" encoding="UTF-8" standalone="no"?>
<!DOCTYPE svg PUBLIC "-//W3C//DTD SVG 1.1//EN"
 "http://www.w3.org/Graphics/SVG/1.1/DTD/svg11.dtd">
<!-- Generated by graphviz version 9.0.0 (20230911.1827)
 -->
<!-- Title: _LocalModule_1884573672a3.module Pages: 1 -->
<svg width="822pt" height="668pt"
 viewBox="0.00 0.00 821.62 668.25" xmlns="http://www.w3.org/2000/svg" xmlns:xlink="http://www.w3.org/1999/xlink">
<g id="graph0" class="graph" transform="scale(1 1) rotate(0) translate(4 664.25)">
<title>_LocalModule_1884573672a3.module</title>
<polygon fill="lightgray" stroke="none" points="-4,4 -4,-664.25 817.62,-664.25 817.62,4 -4,4"/>
<!-- 16878 -->
<g id="node1" class="node">
<title>16878</title>
<polygon fill="none" stroke="black" stroke-width="2" points="588.75,-421.5 264.75,-421.5 264.75,-257 588.75,-257 588.75,-421.5"/>
<polygon fill="none" stroke="black" points="273.75,-394 273.75,-416.5 579.75,-416.5 579.75,-394 273.75,-394"/>
<text text-anchor="start" x="326.62" y="-401.2" font-family="Times New Roman,serif" font-weight="bold" font-size="14.00">SeqSelectorMathCompareInt (2)</text>
<polygon fill="none" stroke="black" points="273.75,-371.5 273.75,-394 579.75,-394 579.75,-371.5 273.75,-371.5"/>
<text text-anchor="start" x="394.88" y="-378.7" font-family="Times New Roman,serif" font-weight="bold" font-size="14.00">Properties</text>
<polygon fill="none" stroke="black" points="273.75,-349.75 273.75,-371.5 579.75,-371.5 579.75,-349.75 273.75,-349.75"/>
<text text-anchor="start" x="276.75" y="-355.2" font-family="Times New Roman,serif" font-size="14.00">[Bool] NoChangeWhenChildIsBusy (default = False) </text>
<polygon fill="none" stroke="black" points="273.75,-328 273.75,-349.75 579.75,-349.75 579.75,-328 273.75,-328"/>
<text text-anchor="start" x="288.75" y="-333.45" font-family="Times New Roman,serif" font-size="14.00">[Bool] SelectChildOnEnterOnly (default = False) </text>
<polygon fill="none" stroke="black" points="273.75,-305.5 273.75,-328 579.75,-328 579.75,-305.5 273.75,-305.5"/>
<text text-anchor="start" x="407.62" y="-312.7" font-family="Times New Roman,serif" font-weight="bold" font-size="14.00">Inputs</text>
<polygon fill="none" stroke="black" points="273.75,-283.75 273.75,-305.5 579.75,-305.5 579.75,-283.75 273.75,-283.75"/>
<text text-anchor="start" x="354" y="-289.2" font-family="Times New Roman,serif" font-size="14.00">[Int] ValueA (default = 0) </text>
<polygon fill="none" stroke="black" points="273.75,-262 273.75,-283.75 579.75,-283.75 579.75,-262 273.75,-262"/>
<text text-anchor="start" x="354.38" y="-267.45" font-family="Times New Roman,serif" font-size="14.00">[Int] ValueB (default = 0) </text>
<polygon fill="none" stroke="black" points="272.75,-261 272.75,-417.5 580.75,-417.5 580.75,-261 272.75,-261"/>
</g>
<!-- 16884 -->
<g id="node2" class="node">
<title>16884</title>
<polygon fill="none" stroke="black" stroke-width="2" points="509,-205.25 234.5,-205.25 234.5,-128.5 509,-128.5 509,-205.25"/>
<polygon fill="none" stroke="black" points="243.5,-177.75 243.5,-200.25 500,-200.25 500,-177.75 243.5,-177.75"/>
<text text-anchor="start" x="311.38" y="-184.95" font-family="Times New Roman,serif" font-weight="bold" font-size="14.00">SeqOneShotEnd (5)</text>
<polygon fill="none" stroke="black" points="243.5,-155.25 243.5,-177.75 500,-177.75 500,-155.25 243.5,-155.25"/>
<text text-anchor="start" x="339.88" y="-162.45" font-family="Times New Roman,serif" font-weight="bold" font-size="14.00">Properties</text>
<polygon fill="none" stroke="black" points="243.5,-133.5 243.5,-155.25 500,-155.25 500,-133.5 243.5,-133.5"/>
<text text-anchor="start" x="246.5" y="-138.95" font-family="Times New Roman,serif" font-size="14.00">[Bool] ExecuteEveryFrame (default = False) </text>
<polygon fill="none" stroke="black" points="242.5,-132.5 242.5,-201.25 501,-201.25 501,-132.5 242.5,-132.5"/>
</g>
<!-- 16878&#45;&gt;16884 -->
<g id="edge1" class="edge">
<title>16878&#45;&gt;16884</title>
<path fill="none" stroke="firebrick" stroke-width="2" d="M379,-256.61C376.75,-250.77 374.8,-244.87 373.25,-239 371.41,-232.02 370.33,-224.53 369.77,-217.12"/>
<polygon fill="firebrick" stroke="firebrick" stroke-width="2" points="373.33,-218.48 369.39,-208.64 366.34,-218.79 373.33,-218.48"/>
<text text-anchor="middle" x="389.5" y="-225.7" font-family="Times New Roman,serif" font-size="14.00" fill="firebrick">Equal</text>
</g>
<!-- 16878&#45;&gt;16884 -->
<g id="edge2" class="edge">
<title>16878&#45;&gt;16884</title>
<path fill="none" stroke="firebrick" stroke-width="2" d="M414.78,-256.53C412.06,-245.17 408.76,-233.8 404.75,-223.25 403.81,-220.78 402.76,-218.29 401.64,-215.81"/>
<polygon fill="firebrick" stroke="firebrick" stroke-width="2" points="405.56,-215.84 397.97,-208.44 399.29,-218.96 405.56,-215.84"/>
<text text-anchor="middle" x="428.75" y="-225.7" font-family="Times New Roman,serif" font-size="14.00" fill="firebrick">Bigger</text>
</g>
<!-- 16890 -->
<g id="node3" class="node">
<title>16890</title>
<polygon fill="none" stroke="black" stroke-width="2" points="802,-205.25 527.5,-205.25 527.5,-128.5 802,-128.5 802,-205.25"/>
<polygon fill="none" stroke="black" points="536.5,-177.75 536.5,-200.25 793,-200.25 793,-177.75 536.5,-177.75"/>
<text text-anchor="start" x="604.38" y="-184.95" font-family="Times New Roman,serif" font-weight="bold" font-size="14.00">SeqOneShotEnd (3)</text>
<polygon fill="none" stroke="black" points="536.5,-155.25 536.5,-177.75 793,-177.75 793,-155.25 536.5,-155.25"/>
<text text-anchor="start" x="632.88" y="-162.45" font-family="Times New Roman,serif" font-weight="bold" font-size="14.00">Properties</text>
<polygon fill="none" stroke="black" points="536.5,-133.5 536.5,-155.25 793,-155.25 793,-133.5 536.5,-133.5"/>
<text text-anchor="start" x="539.5" y="-138.95" font-family="Times New Roman,serif" font-size="14.00">[Bool] ExecuteEveryFrame (default = False) </text>
<polygon fill="none" stroke="black" points="535.5,-132.5 535.5,-201.25 794,-201.25 794,-132.5 535.5,-132.5"/>
</g>
<!-- 16878&#45;&gt;16890 -->
<g id="edge3" class="edge">
<title>16878&#45;&gt;16890</title>
<path fill="none" stroke="firebrick" stroke-width="2" d="M540.87,-256.56C562.3,-241.22 583.94,-225.73 603,-212.08"/>
<polygon fill="firebrick" stroke="firebrick" stroke-width="2" points="603.59,-215.96 609.68,-207.3 599.51,-210.27 603.59,-215.96"/>
<text text-anchor="middle" x="601.38" y="-225.7" font-family="Times New Roman,serif" font-size="14.00" fill="firebrick">Smaller</text>
</g>
<!-- 16887 -->
<g id="node5" class="node">
<title>16887</title>
<polygon fill="none" stroke="black" stroke-width="2" points="497.38,-56.38 246.12,-56.38 246.12,-20.38 497.38,-20.38 497.38,-56.38"/>
<polygon fill="none" stroke="black" points="255.12,-27.12 255.12,-49.62 488.38,-49.62 488.38,-27.12 255.12,-27.12"/>
<text text-anchor="start" x="258.12" y="-34.33" font-family="Times New Roman,serif" font-weight="bold" font-size="14.00">SeqExecuteGenericDummyAction (4)</text>
<polygon fill="none" stroke="black" points="254.12,-26.12 254.12,-50.62 489.38,-50.62 489.38,-26.12 254.12,-26.12"/>
</g>
<!-- 16884&#45;&gt;16887 -->
<g id="edge5" class="edge">
<title>16884&#45;&gt;16887</title>
<path fill="none" stroke="midnightblue" stroke-width="2" d="M371.75,-128.26C371.75,-108.97 371.75,-85.85 371.75,-68.03"/>
<polygon fill="midnightblue" stroke="midnightblue" stroke-width="2" points="375.25,-69.67 371.75,-59.67 368.25,-69.67 375.25,-69.67"/>
<text text-anchor="middle" x="399.88" y="-97.2" font-family="Times New Roman,serif" font-size="14.00" fill="midnightblue">Transition</text>
</g>
<!-- 16893 -->
<g id="node6" class="node">
<title>16893</title>
<polygon fill="none" stroke="black" stroke-width="2" points="813.62,-76.75 515.88,-76.75 515.88,0 813.62,0 813.62,-76.75"/>
<polygon fill="none" stroke="black" points="524.88,-49.25 524.88,-71.75 804.62,-71.75 804.62,-49.25 524.88,-49.25"/>
<text text-anchor="start" x="527.88" y="-56.45" font-family="Times New Roman,serif" font-weight="bold" font-size="14.00">ChangeGamePauseWithoutEvent.module (0)</text>
<polygon fill="none" stroke="black" points="524.88,-26.75 524.88,-49.25 804.62,-49.25 804.62,-26.75 524.88,-26.75"/>
<text text-anchor="start" x="645.62" y="-33.95" font-family="Times New Roman,serif" font-weight="bold" font-size="14.00">Inputs</text>
<polygon fill="none" stroke="black" points="524.88,-5 524.88,-26.75 804.62,-26.75 804.62,-5 524.88,-5"/>
<text text-anchor="start" x="573.62" y="-10.45" font-family="Times New Roman,serif" font-size="14.00">[Bool] IsPause (default = False) </text>
<polygon fill="none" stroke="black" points="523.88,-4 523.88,-72.75 805.62,-72.75 805.62,-4 523.88,-4"/>
</g>
<!-- 16890&#45;&gt;16893 -->
<g id="edge6" class="edge">
<title>16890&#45;&gt;16893</title>
<path fill="none" stroke="midnightblue" stroke-width="2" d="M664.75,-128.26C664.75,-115.76 664.75,-101.64 664.75,-88.41"/>
<polygon fill="midnightblue" stroke="midnightblue" stroke-width="2" points="668.25,-90.09 664.75,-80.09 661.25,-90.09 668.25,-90.09"/>
<text text-anchor="middle" x="692.88" y="-97.2" font-family="Times New Roman,serif" font-size="14.00" fill="midnightblue">Transition</text>
</g>
<!-- 16881 -->
<g id="node4" class="node">
<title>16881</title>
<polygon fill="none" stroke="black" stroke-width="2" points="535.5,-660.25 0,-660.25 0,-473.25 535.5,-473.25 535.5,-660.25"/>
<polygon fill="none" stroke="black" points="9,-632.75 9,-655.25 526.5,-655.25 526.5,-632.75 9,-632.75"/>
<text text-anchor="start" x="123.38" y="-639.95" font-family="Times New Roman,serif" font-weight="bold" font-size="14.00">SeqQueryGetNonStructGameDataIntDirect (1)</text>
<polygon fill="none" stroke="black" points="9,-610.25 9,-632.75 526.5,-632.75 526.5,-610.25 9,-610.25"/>
<text text-anchor="start" x="235.88" y="-617.45" font-family="Times New Roman,serif" font-weight="bold" font-size="14.00">Properties</text>
<polygon fill="none" stroke="black" points="9,-588.5 9,-610.25 526.5,-610.25 526.5,-588.5 9,-588.5"/>
<text text-anchor="start" x="142.12" y="-593.95" font-family="Times New Roman,serif" font-size="14.00">[Bool] OutputOnlyOnEnter (default = False) </text>
<polygon fill="none" stroke="black" points="9,-566 9,-588.5 526.5,-588.5 526.5,-566 9,-566"/>
<text text-anchor="start" x="248.62" y="-573.2" font-family="Times New Roman,serif" font-weight="bold" font-size="14.00">Inputs</text>
<polygon fill="none" stroke="black" points="9,-544.25 9,-566 526.5,-566 526.5,-544.25 9,-544.25"/>
<text text-anchor="start" x="168.38" y="-549.7" font-family="Times New Roman,serif" font-size="14.00">[Int] GameDataIndex (default = &#45;1) </text>
<polygon fill="none" stroke="black" points="9,-522.5 9,-544.25 526.5,-544.25 526.5,-522.5 9,-522.5"/>
<text text-anchor="start" x="12" y="-527.95" font-family="Times New Roman,serif" font-size="14.00">[String] GameDataFullName (default = Sequence_GamePauseWithoutEventRequestCount) </text>
<polygon fill="none" stroke="black" points="9,-500 9,-522.5 526.5,-522.5 526.5,-500 9,-500"/>
<text text-anchor="start" x="243.38" y="-507.2" font-family="Times New Roman,serif" font-weight="bold" font-size="14.00">Outputs</text>
<polygon fill="none" stroke="black" points="9,-478.25 9,-500 526.5,-500 526.5,-478.25 9,-478.25"/>
<text text-anchor="start" x="238.12" y="-483.7" font-family="Times New Roman,serif" font-size="14.00">[Int] Value</text>
<polygon fill="none" stroke="black" points="8,-477.25 8,-656.25 527.5,-656.25 527.5,-477.25 8,-477.25"/>
</g>
<!-- 16881&#45;&gt;16878 -->
<g id="edge4" class="edge">
<title>16881:16898&#45;&gt;16878:16895</title>
<path fill="none" stroke="#008000" stroke-dasharray="5,2" d="M267.75,-476.75C267.75,-390.34 189.78,-283.36 261.6,-273.92"/>
<polygon fill="#008000" stroke="#008000" points="261.47,-277.44 271.24,-273.34 261.05,-270.45 261.47,-277.44"/>
<text text-anchor="middle" x="287" y="-441.95" font-family="Times New Roman,serif" font-size="14.00" fill="#008000">ValueB</text>
</g>
<!-- 16900 -->
<g id="node7" class="node">
<title>16900</title>
<ellipse fill="mediumpurple" stroke="mediumpurple" cx="585.75" cy="-566.75" rx="31.9" ry="18"/>
<text text-anchor="start" x="570.38" y="-562.7" font-family="Times New Roman,serif" font-weight="bold" font-size="14.00" fill="white">Start</text>
</g>
<!-- 16900&#45;&gt;16878 -->
<g id="edge7" class="edge">
<title>16900&#45;&gt;16878</title>
<path fill="none" stroke="black" d="M579.96,-548.58C573.08,-529.39 560.52,-497.78 544.75,-473.25 535.42,-458.74 524.53,-444.22 513.22,-430.39"/>
<polygon fill="black" stroke="black" points="516.19,-428.49 507.1,-423.04 510.81,-432.97 516.19,-428.49"/>
</g>
</g>
</svg>
