<?xml version="1.0" encoding="UTF-8" standalone="no"?>
<!DOCTYPE svg PUBLIC "-//W3C//DTD SVG 1.1//EN"
 "http://www.w3.org/Graphics/SVG/1.1/DTD/svg11.dtd">
<!-- Generated by graphviz version 9.0.0 (20230911.1827)
 -->
<!-- Title: _LocalModule_e70eb858046b.module Pages: 1 -->
<svg width="1039pt" height="995pt"
 viewBox="0.00 0.00 1038.75 994.75" xmlns="http://www.w3.org/2000/svg" xmlns:xlink="http://www.w3.org/1999/xlink">
<g id="graph0" class="graph" transform="scale(1 1) rotate(0) translate(4 990.75)">
<title>_LocalModule_e70eb858046b.module</title>
<polygon fill="lightgray" stroke="none" points="-4,4 -4,-990.75 1034.75,-990.75 1034.75,4 -4,4"/>
<!-- 17513 -->
<g id="node1" class="node">
<title>17513</title>
<polygon fill="none" stroke="black" stroke-width="2" points="647.38,-487.5 323.38,-487.5 323.38,-323 647.38,-323 647.38,-487.5"/>
<polygon fill="none" stroke="black" points="332.38,-460 332.38,-482.5 638.38,-482.5 638.38,-460 332.38,-460"/>
<text text-anchor="start" x="426.5" y="-467.2" font-family="Times New Roman,serif" font-weight="bold" font-size="14.00">SeqSelectorU32 (0)</text>
<polygon fill="none" stroke="black" points="332.38,-437.5 332.38,-460 638.38,-460 638.38,-437.5 332.38,-437.5"/>
<text text-anchor="start" x="453.5" y="-444.7" font-family="Times New Roman,serif" font-weight="bold" font-size="14.00">Properties</text>
<polygon fill="none" stroke="black" points="332.38,-415.75 332.38,-437.5 638.38,-437.5 638.38,-415.75 332.38,-415.75"/>
<text text-anchor="start" x="335.38" y="-421.2" font-family="Times New Roman,serif" font-size="14.00">[Bool] NoChangeWhenChildIsBusy (default = False) </text>
<polygon fill="none" stroke="black" points="332.38,-394 332.38,-415.75 638.38,-415.75 638.38,-394 332.38,-394"/>
<text text-anchor="start" x="347.38" y="-399.45" font-family="Times New Roman,serif" font-size="14.00">[Bool] SelectChildOnEnterOnly (default = False) </text>
<polygon fill="none" stroke="black" points="332.38,-371.5 332.38,-394 638.38,-394 638.38,-371.5 332.38,-371.5"/>
<text text-anchor="start" x="466.25" y="-378.7" font-family="Times New Roman,serif" font-weight="bold" font-size="14.00">Inputs</text>
<polygon fill="none" stroke="black" points="332.38,-349.75 332.38,-371.5 638.38,-371.5 638.38,-349.75 332.38,-349.75"/>
<text text-anchor="start" x="376.25" y="-355.2" font-family="Times New Roman,serif" font-size="14.00">[const u32*] InputA (default = nullptr) </text>
<polygon fill="none" stroke="black" points="332.38,-328 332.38,-349.75 638.38,-349.75 638.38,-328 332.38,-328"/>
<text text-anchor="start" x="376.62" y="-333.45" font-family="Times New Roman,serif" font-size="14.00">[const u32*] InputB (default = nullptr) </text>
<polygon fill="none" stroke="black" points="331.38,-327 331.38,-483.5 639.38,-483.5 639.38,-327 331.38,-327"/>
</g>
<!-- 17525 -->
<g id="node2" class="node">
<title>17525</title>
<polygon fill="none" stroke="black" stroke-width="2" points="592.38,-271.25 268.38,-271.25 268.38,-128.5 592.38,-128.5 592.38,-271.25"/>
<polygon fill="none" stroke="black" points="277.38,-243.75 277.38,-266.25 583.38,-266.25 583.38,-243.75 277.38,-243.75"/>
<text text-anchor="start" x="313.38" y="-250.95" font-family="Times New Roman,serif" font-weight="bold" font-size="14.00">SeqSelectorScreenOpenCloseState (6)</text>
<polygon fill="none" stroke="black" points="277.38,-221.25 277.38,-243.75 583.38,-243.75 583.38,-221.25 277.38,-221.25"/>
<text text-anchor="start" x="398.5" y="-228.45" font-family="Times New Roman,serif" font-weight="bold" font-size="14.00">Properties</text>
<polygon fill="none" stroke="black" points="277.38,-199.5 277.38,-221.25 583.38,-221.25 583.38,-199.5 277.38,-199.5"/>
<text text-anchor="start" x="280.38" y="-204.95" font-family="Times New Roman,serif" font-size="14.00">[Bool] NoChangeWhenChildIsBusy (default = False) </text>
<polygon fill="none" stroke="black" points="277.38,-177.75 277.38,-199.5 583.38,-199.5 583.38,-177.75 277.38,-177.75"/>
<text text-anchor="start" x="292.38" y="-183.2" font-family="Times New Roman,serif" font-size="14.00">[Bool] SelectChildOnEnterOnly (default = False) </text>
<polygon fill="none" stroke="black" points="277.38,-155.25 277.38,-177.75 583.38,-177.75 583.38,-155.25 277.38,-155.25"/>
<text text-anchor="start" x="411.25" y="-162.45" font-family="Times New Roman,serif" font-weight="bold" font-size="14.00">Inputs</text>
<polygon fill="none" stroke="black" points="277.38,-133.5 277.38,-155.25 583.38,-155.25 583.38,-133.5 277.38,-133.5"/>
<text text-anchor="start" x="307" y="-138.95" font-family="Times New Roman,serif" font-size="14.00">[String] ScreenName (default = Pointer_00) </text>
<polygon fill="none" stroke="black" points="276.38,-132.5 276.38,-267.25 584.38,-267.25 584.38,-132.5 276.38,-132.5"/>
</g>
<!-- 17513&#45;&gt;17525 -->
<g id="edge1" class="edge">
<title>17513&#45;&gt;17525</title>
<path fill="none" stroke="firebrick" stroke-width="2" d="M437.58,-322.62C435.34,-316.78 433.4,-310.87 431.88,-305 430.03,-297.91 428.73,-290.46 427.86,-282.94"/>
<polygon fill="firebrick" stroke="firebrick" stroke-width="2" points="431.48,-284.16 427.1,-274.52 424.51,-284.79 431.48,-284.16"/>
<text text-anchor="middle" x="448.12" y="-291.7" font-family="Times New Roman,serif" font-size="14.00" fill="firebrick">Large</text>
</g>
<!-- 17513&#45;&gt;17525 -->
<g id="edge2" class="edge">
<title>17513&#45;&gt;17525</title>
<path fill="none" stroke="firebrick" stroke-width="2" d="M471.56,-322.8C469.13,-311.46 466.39,-300.02 463.38,-289.25 462.74,-286.97 462.06,-284.67 461.37,-282.35"/>
<polygon fill="firebrick" stroke="firebrick" stroke-width="2" points="465.18,-282.8 458.83,-274.32 458.5,-284.91 465.18,-282.8"/>
<text text-anchor="middle" x="483.75" y="-291.7" font-family="Times New Roman,serif" font-size="14.00" fill="firebrick">Small</text>
</g>
<!-- 17534 -->
<g id="node3" class="node">
<title>17534</title>
<polygon fill="none" stroke="black" stroke-width="2" points="934.38,-271.25 610.38,-271.25 610.38,-128.5 934.38,-128.5 934.38,-271.25"/>
<polygon fill="none" stroke="black" points="619.38,-243.75 619.38,-266.25 925.38,-266.25 925.38,-243.75 619.38,-243.75"/>
<text text-anchor="start" x="655.38" y="-250.95" font-family="Times New Roman,serif" font-weight="bold" font-size="14.00">SeqSelectorScreenOpenCloseState (5)</text>
<polygon fill="none" stroke="black" points="619.38,-221.25 619.38,-243.75 925.38,-243.75 925.38,-221.25 619.38,-221.25"/>
<text text-anchor="start" x="740.5" y="-228.45" font-family="Times New Roman,serif" font-weight="bold" font-size="14.00">Properties</text>
<polygon fill="none" stroke="black" points="619.38,-199.5 619.38,-221.25 925.38,-221.25 925.38,-199.5 619.38,-199.5"/>
<text text-anchor="start" x="622.38" y="-204.95" font-family="Times New Roman,serif" font-size="14.00">[Bool] NoChangeWhenChildIsBusy (default = False) </text>
<polygon fill="none" stroke="black" points="619.38,-177.75 619.38,-199.5 925.38,-199.5 925.38,-177.75 619.38,-177.75"/>
<text text-anchor="start" x="634.38" y="-183.2" font-family="Times New Roman,serif" font-size="14.00">[Bool] SelectChildOnEnterOnly (default = False) </text>
<polygon fill="none" stroke="black" points="619.38,-155.25 619.38,-177.75 925.38,-177.75 925.38,-155.25 619.38,-155.25"/>
<text text-anchor="start" x="753.25" y="-162.45" font-family="Times New Roman,serif" font-weight="bold" font-size="14.00">Inputs</text>
<polygon fill="none" stroke="black" points="619.38,-133.5 619.38,-155.25 925.38,-155.25 925.38,-133.5 619.38,-133.5"/>
<text text-anchor="start" x="649" y="-138.95" font-family="Times New Roman,serif" font-size="14.00">[String] ScreenName (default = Pointer_00) </text>
<polygon fill="none" stroke="black" points="618.38,-132.5 618.38,-267.25 926.38,-267.25 926.38,-132.5 618.38,-132.5"/>
</g>
<!-- 17513&#45;&gt;17534 -->
<g id="edge3" class="edge">
<title>17513&#45;&gt;17534</title>
<path fill="none" stroke="firebrick" stroke-width="2" d="M600.46,-322.7C621.15,-308.04 642.66,-292.79 663.18,-278.26"/>
<polygon fill="firebrick" stroke="firebrick" stroke-width="2" points="663.92,-282.02 670.06,-273.38 659.88,-276.31 663.92,-282.02"/>
<text text-anchor="middle" x="661.12" y="-291.7" font-family="Times New Roman,serif" font-size="14.00" fill="firebrick">Equal</text>
</g>
<!-- 17528 -->
<g id="node7" class="node">
<title>17528</title>
<polygon fill="none" stroke="black" stroke-width="2" points="742,-56.38 490.75,-56.38 490.75,-20.38 742,-20.38 742,-56.38"/>
<polygon fill="none" stroke="black" points="499.75,-27.12 499.75,-49.62 733,-49.62 733,-27.12 499.75,-27.12"/>
<text text-anchor="start" x="502.75" y="-34.33" font-family="Times New Roman,serif" font-weight="bold" font-size="14.00">SeqExecuteGenericDummyAction (8)</text>
<polygon fill="none" stroke="black" points="498.75,-26.12 498.75,-50.62 734,-50.62 734,-26.12 498.75,-26.12"/>
</g>
<!-- 17525&#45;&gt;17528 -->
<g id="edge7" class="edge">
<title>17525&#45;&gt;17528</title>
<path fill="none" stroke="firebrick" stroke-width="2" d="M457.59,-128.05C464.56,-115.86 473.02,-104.12 483.12,-94.75 498.85,-80.16 518.96,-69.14 538.76,-60.93"/>
<polygon fill="firebrick" stroke="firebrick" stroke-width="2" points="538.53,-64.78 546.56,-57.87 535.98,-58.26 538.53,-64.78"/>
<text text-anchor="middle" x="507" y="-97.2" font-family="Times New Roman,serif" font-size="14.00" fill="firebrick">Opening</text>
</g>
<!-- 17525&#45;&gt;17528 -->
<g id="edge8" class="edge">
<title>17525&#45;&gt;17528</title>
<path fill="none" stroke="firebrick" stroke-width="2" d="M512.77,-128.22C539.57,-105.24 567.55,-81.24 587.67,-63.99"/>
<polygon fill="firebrick" stroke="firebrick" stroke-width="2" points="588.72,-67.7 594.03,-58.53 584.17,-62.39 588.72,-67.7"/>
<text text-anchor="middle" x="573.5" y="-97.2" font-family="Times New Roman,serif" font-size="14.00" fill="firebrick">Opened</text>
</g>
<!-- 17531 -->
<g id="node8" class="node">
<title>17531</title>
<polygon fill="none" stroke="black" stroke-width="2" points="472.75,-76.75 202,-76.75 202,0 472.75,0 472.75,-76.75"/>
<polygon fill="none" stroke="black" points="211,-49.25 211,-71.75 463.75,-71.75 463.75,-49.25 211,-49.25"/>
<text text-anchor="start" x="254.12" y="-56.45" font-family="Times New Roman,serif" font-weight="bold" font-size="14.00">SeqExecuteOpenScreen (7)</text>
<polygon fill="none" stroke="black" points="211,-26.75 211,-49.25 463.75,-49.25 463.75,-26.75 211,-26.75"/>
<text text-anchor="start" x="318.25" y="-33.95" font-family="Times New Roman,serif" font-weight="bold" font-size="14.00">Inputs</text>
<polygon fill="none" stroke="black" points="211,-5 211,-26.75 463.75,-26.75 463.75,-5 211,-5"/>
<text text-anchor="start" x="214" y="-10.45" font-family="Times New Roman,serif" font-size="14.00">[String] ScreenName (default = Pointer_00) </text>
<polygon fill="none" stroke="black" points="210,-4 210,-72.75 464.75,-72.75 464.75,-4 210,-4"/>
</g>
<!-- 17525&#45;&gt;17531 -->
<g id="edge9" class="edge">
<title>17525&#45;&gt;17531</title>
<path fill="none" stroke="firebrick" stroke-width="2" d="M350.47,-128.14C346.68,-122.49 343.34,-116.59 340.62,-110.5 337.58,-103.68 335.8,-96.11 334.84,-88.54"/>
<polygon fill="firebrick" stroke="firebrick" stroke-width="2" points="338.45,-89.85 334.21,-80.14 331.47,-90.38 338.45,-89.85"/>
<text text-anchor="middle" x="361.25" y="-97.2" font-family="Times New Roman,serif" font-size="14.00" fill="firebrick">Closed</text>
</g>
<!-- 17525&#45;&gt;17531 -->
<g id="edge10" class="edge">
<title>17525&#45;&gt;17531</title>
<path fill="none" stroke="firebrick" stroke-width="2" d="M398.88,-128.05C393.12,-116.7 386.86,-105.24 380.38,-94.75 378.66,-91.98 376.84,-89.19 374.95,-86.41"/>
<polygon fill="firebrick" stroke="firebrick" stroke-width="2" points="378.7,-85.65 370.06,-79.51 372.99,-89.69 378.7,-85.65"/>
<text text-anchor="middle" x="409.75" y="-97.2" font-family="Times New Roman,serif" font-size="14.00" fill="firebrick">Closing</text>
</g>
<!-- 17534&#45;&gt;17528 -->
<g id="edge11" class="edge">
<title>17534&#45;&gt;17528</title>
<path fill="none" stroke="firebrick" stroke-width="2" d="M671.65,-128.27C665.61,-122.55 659.87,-116.6 654.62,-110.5 643.59,-97.67 634.46,-81.12 627.88,-67.21"/>
<polygon fill="firebrick" stroke="firebrick" stroke-width="2" points="631.71,-67.2 624.42,-59.51 625.33,-70.07 631.71,-67.2"/>
<text text-anchor="middle" x="675.75" y="-97.2" font-family="Times New Roman,serif" font-size="14.00" fill="firebrick">Closing</text>
</g>
<!-- 17534&#45;&gt;17528 -->
<g id="edge12" class="edge">
<title>17534&#45;&gt;17528</title>
<path fill="none" stroke="firebrick" stroke-width="2" d="M726.52,-128.1C717.52,-116.37 707.66,-104.79 697.38,-94.75 685.31,-82.98 670.46,-72.03 656.79,-63.03"/>
<polygon fill="firebrick" stroke="firebrick" stroke-width="2" points="659.97,-60.9 649.65,-58.47 656.2,-66.8 659.97,-60.9"/>
<text text-anchor="middle" x="731.25" y="-97.2" font-family="Times New Roman,serif" font-size="14.00" fill="firebrick">Closed</text>
</g>
<!-- 17537 -->
<g id="node9" class="node">
<title>17537</title>
<polygon fill="none" stroke="black" stroke-width="2" points="1030.75,-76.75 760,-76.75 760,0 1030.75,0 1030.75,-76.75"/>
<polygon fill="none" stroke="black" points="769,-49.25 769,-71.75 1021.75,-71.75 1021.75,-49.25 769,-49.25"/>
<text text-anchor="start" x="811.38" y="-56.45" font-family="Times New Roman,serif" font-weight="bold" font-size="14.00">SeqExecuteCloseScreen (4)</text>
<polygon fill="none" stroke="black" points="769,-26.75 769,-49.25 1021.75,-49.25 1021.75,-26.75 769,-26.75"/>
<text text-anchor="start" x="876.25" y="-33.95" font-family="Times New Roman,serif" font-weight="bold" font-size="14.00">Inputs</text>
<polygon fill="none" stroke="black" points="769,-5 769,-26.75 1021.75,-26.75 1021.75,-5 769,-5"/>
<text text-anchor="start" x="772" y="-10.45" font-family="Times New Roman,serif" font-size="14.00">[String] ScreenName (default = Pointer_00) </text>
<polygon fill="none" stroke="black" points="768,-4 768,-72.75 1022.75,-72.75 1022.75,-4 768,-4"/>
</g>
<!-- 17534&#45;&gt;17537 -->
<g id="edge13" class="edge">
<title>17534&#45;&gt;17537</title>
<path fill="none" stroke="firebrick" stroke-width="2" d="M798.05,-128.17C803.99,-116.38 811,-104.75 819.12,-94.75 821.89,-91.35 824.91,-88.05 828.11,-84.87"/>
<polygon fill="firebrick" stroke="firebrick" stroke-width="2" points="829.17,-88.66 834.13,-79.29 824.42,-83.52 829.17,-88.66"/>
<text text-anchor="middle" x="842" y="-97.2" font-family="Times New Roman,serif" font-size="14.00" fill="firebrick">Opening</text>
</g>
<!-- 17534&#45;&gt;17537 -->
<g id="edge14" class="edge">
<title>17534&#45;&gt;17537</title>
<path fill="none" stroke="firebrick" stroke-width="2" d="M852.79,-128.13C857.66,-122.4 862.25,-116.5 866.38,-110.5 871.2,-103.47 875.43,-95.51 879.05,-87.53"/>
<polygon fill="firebrick" stroke="firebrick" stroke-width="2" points="881.61,-90.45 882.29,-79.88 875.17,-87.73 881.61,-90.45"/>
<text text-anchor="middle" x="896.5" y="-97.2" font-family="Times New Roman,serif" font-size="14.00" fill="firebrick">Opened</text>
</g>
<!-- 17516 -->
<g id="node4" class="node">
<title>17516</title>
<polygon fill="none" stroke="black" stroke-width="2" points="324.75,-748 0,-748 0,-539.25 324.75,-539.25 324.75,-748"/>
<polygon fill="none" stroke="black" points="9,-720.5 9,-743 315.75,-743 315.75,-720.5 9,-720.5"/>
<text text-anchor="start" x="59.25" y="-727.7" font-family="Times New Roman,serif" font-weight="bold" font-size="14.00">SeqQueryGetGameDataEnum (2)</text>
<polygon fill="none" stroke="black" points="9,-698 9,-720.5 315.75,-720.5 315.75,-698 9,-698"/>
<text text-anchor="start" x="130.5" y="-705.2" font-family="Times New Roman,serif" font-weight="bold" font-size="14.00">Properties</text>
<polygon fill="none" stroke="black" points="9,-676.25 9,-698 315.75,-698 315.75,-676.25 9,-676.25"/>
<text text-anchor="start" x="36.75" y="-681.7" font-family="Times New Roman,serif" font-size="14.00">[Bool] OutputOnlyOnEnter (default = False) </text>
<polygon fill="none" stroke="black" points="9,-653.75 9,-676.25 315.75,-676.25 315.75,-653.75 9,-653.75"/>
<text text-anchor="start" x="143.25" y="-660.95" font-family="Times New Roman,serif" font-weight="bold" font-size="14.00">Inputs</text>
<polygon fill="none" stroke="black" points="9,-632 9,-653.75 315.75,-653.75 315.75,-632 9,-632"/>
<text text-anchor="start" x="63" y="-637.45" font-family="Times New Roman,serif" font-size="14.00">[Int] GameDataIndex (default = &#45;1) </text>
<polygon fill="none" stroke="black" points="9,-610.25 9,-632 315.75,-632 315.75,-610.25 9,-610.25"/>
<text text-anchor="start" x="12" y="-615.7" font-family="Times New Roman,serif" font-size="14.00">[String] GameDataName (default = CurrentReticleUI) </text>
<polygon fill="none" stroke="black" points="9,-588.5 9,-610.25 315.75,-610.25 315.75,-588.5 9,-588.5"/>
<text text-anchor="start" x="36" y="-593.95" font-family="Times New Roman,serif" font-size="14.00">[const void*] ParentStruct (default = nullptr) </text>
<polygon fill="none" stroke="black" points="9,-566 9,-588.5 315.75,-588.5 315.75,-566 9,-566"/>
<text text-anchor="start" x="138" y="-573.2" font-family="Times New Roman,serif" font-weight="bold" font-size="14.00">Outputs</text>
<polygon fill="none" stroke="black" points="9,-544.25 9,-566 315.75,-566 315.75,-544.25 9,-544.25"/>
<text text-anchor="start" x="57" y="-549.7" font-family="Times New Roman,serif" font-size="14.00">[const u32*] Value (default = nullptr) </text>
<polygon fill="none" stroke="black" points="8,-543.25 8,-744 316.75,-744 316.75,-543.25 8,-543.25"/>
</g>
<!-- 17516&#45;&gt;17513 -->
<g id="edge4" class="edge">
<title>17516:17543&#45;&gt;17513:17538</title>
<path fill="none" stroke="#008000" stroke-dasharray="5,2" d="M316.38,-554.62C355.3,-554.62 301.42,-397.73 321.49,-365.86"/>
<polygon fill="#008000" stroke="#008000" points="323.09,-368.98 330.06,-361 319.63,-362.89 323.09,-368.98"/>
<text text-anchor="middle" x="350.88" y="-507.95" font-family="Times New Roman,serif" font-size="14.00" fill="#008000">InputA</text>
</g>
<!-- 17519 -->
<g id="node5" class="node">
<title>17519</title>
<polygon fill="none" stroke="black" stroke-width="2" points="322.5,-986.75 2.25,-986.75 2.25,-799.75 322.5,-799.75 322.5,-986.75"/>
<polygon fill="none" stroke="black" points="11.25,-959.25 11.25,-981.75 313.5,-981.75 313.5,-959.25 11.25,-959.25"/>
<text text-anchor="start" x="27" y="-966.45" font-family="Times New Roman,serif" font-weight="bold" font-size="14.00">SeqQueryGetNonStructGameDataStruct (1)</text>
<polygon fill="none" stroke="black" points="11.25,-936.75 11.25,-959.25 313.5,-959.25 313.5,-936.75 11.25,-936.75"/>
<text text-anchor="start" x="130.5" y="-943.95" font-family="Times New Roman,serif" font-weight="bold" font-size="14.00">Properties</text>
<polygon fill="none" stroke="black" points="11.25,-915 11.25,-936.75 313.5,-936.75 313.5,-915 11.25,-915"/>
<text text-anchor="start" x="36.75" y="-920.45" font-family="Times New Roman,serif" font-size="14.00">[Bool] OutputOnlyOnEnter (default = False) </text>
<polygon fill="none" stroke="black" points="11.25,-892.5 11.25,-915 313.5,-915 313.5,-892.5 11.25,-892.5"/>
<text text-anchor="start" x="143.25" y="-899.7" font-family="Times New Roman,serif" font-weight="bold" font-size="14.00">Inputs</text>
<polygon fill="none" stroke="black" points="11.25,-870.75 11.25,-892.5 313.5,-892.5 313.5,-870.75 11.25,-870.75"/>
<text text-anchor="start" x="63" y="-876.2" font-family="Times New Roman,serif" font-size="14.00">[Int] GameDataIndex (default = &#45;1) </text>
<polygon fill="none" stroke="black" points="11.25,-849 11.25,-870.75 313.5,-870.75 313.5,-849 11.25,-849"/>
<text text-anchor="start" x="14.25" y="-854.45" font-family="Times New Roman,serif" font-size="14.00">[String] GameDataFullName (default = PlayerStatus) </text>
<polygon fill="none" stroke="black" points="11.25,-826.5 11.25,-849 313.5,-849 313.5,-826.5 11.25,-826.5"/>
<text text-anchor="start" x="138" y="-833.7" font-family="Times New Roman,serif" font-weight="bold" font-size="14.00">Outputs</text>
<polygon fill="none" stroke="black" points="11.25,-804.75 11.25,-826.5 313.5,-826.5 313.5,-804.75 11.25,-804.75"/>
<text text-anchor="start" x="54.75" y="-810.2" font-family="Times New Roman,serif" font-size="14.00">[const void*] Value (default = nullptr) </text>
<polygon fill="none" stroke="black" points="10.25,-803.75 10.25,-982.75 314.5,-982.75 314.5,-803.75 10.25,-803.75"/>
</g>
<!-- 17519&#45;&gt;17516 -->
<g id="edge5" class="edge">
<title>17519:17546&#45;&gt;17516:17542</title>
<path fill="none" stroke="#008000" stroke-dasharray="5,2" d="M162.38,-803.25C162.38,-730.95 273.63,-807.03 315.38,-748 323.37,-736.69 330.27,-639.72 322.51,-608.95"/>
<polygon fill="#008000" stroke="#008000" points="325.62,-607.32 317.21,-600.89 319.78,-611.17 325.62,-607.32"/>
<text text-anchor="middle" x="325.88" y="-768.45" font-family="Times New Roman,serif" font-size="14.00" fill="#008000">ParentStruct</text>
</g>
<!-- 17522 -->
<g id="node6" class="node">
<title>17522</title>
<polygon fill="none" stroke="black" stroke-width="2" points="627.88,-737.12 342.88,-737.12 342.88,-550.12 627.88,-550.12 627.88,-737.12"/>
<polygon fill="none" stroke="black" points="351.88,-709.62 351.88,-732.12 618.88,-732.12 618.88,-709.62 351.88,-709.62"/>
<text text-anchor="start" x="365.38" y="-716.83" font-family="Times New Roman,serif" font-weight="bold" font-size="14.00">SeqQueryCalcStringHashMurMur3 (3)</text>
<polygon fill="none" stroke="black" points="351.88,-687.12 351.88,-709.62 618.88,-709.62 618.88,-687.12 351.88,-687.12"/>
<text text-anchor="start" x="453.5" y="-694.33" font-family="Times New Roman,serif" font-weight="bold" font-size="14.00">Properties</text>
<polygon fill="none" stroke="black" points="351.88,-665.38 351.88,-687.12 618.88,-687.12 618.88,-665.38 351.88,-665.38"/>
<text text-anchor="start" x="366.12" y="-670.83" font-family="Times New Roman,serif" font-size="14.00">[Bool] IsCalcHashOnInit (default = False) </text>
<polygon fill="none" stroke="black" points="351.88,-643.62 351.88,-665.38 618.88,-665.38 618.88,-643.62 351.88,-643.62"/>
<text text-anchor="start" x="359.75" y="-649.08" font-family="Times New Roman,serif" font-size="14.00">[Bool] OutputOnlyOnEnter (default = False) </text>
<polygon fill="none" stroke="black" points="351.88,-621.12 351.88,-643.62 618.88,-643.62 618.88,-621.12 351.88,-621.12"/>
<text text-anchor="start" x="466.25" y="-628.33" font-family="Times New Roman,serif" font-weight="bold" font-size="14.00">Inputs</text>
<polygon fill="none" stroke="black" points="351.88,-599.38 351.88,-621.12 618.88,-621.12 618.88,-599.38 351.88,-599.38"/>
<text text-anchor="start" x="396.12" y="-604.83" font-family="Times New Roman,serif" font-size="14.00">[String] String (default = None) </text>
<polygon fill="none" stroke="black" points="351.88,-576.88 351.88,-599.38 618.88,-599.38 618.88,-576.88 351.88,-576.88"/>
<text text-anchor="start" x="461" y="-584.08" font-family="Times New Roman,serif" font-weight="bold" font-size="14.00">Outputs</text>
<polygon fill="none" stroke="black" points="351.88,-555.12 351.88,-576.88 618.88,-576.88 618.88,-555.12 351.88,-555.12"/>
<text text-anchor="start" x="354.88" y="-560.58" font-family="Times New Roman,serif" font-size="14.00">[const u32*] MurMur3Hash (default = nullptr) </text>
<polygon fill="none" stroke="black" points="350.88,-554.12 350.88,-733.12 619.88,-733.12 619.88,-554.12 350.88,-554.12"/>
</g>
<!-- 17522&#45;&gt;17513 -->
<g id="edge6" class="edge">
<title>17522:17548&#45;&gt;17513:17539</title>
<path fill="none" stroke="#008000" stroke-dasharray="5,2" d="M485.38,-553.62C485.38,-514.74 625.69,-519.77 647.38,-487.5 686.85,-428.75 697.27,-378.45 647.38,-328.25 636.62,-317.43 527.7,-311.3 494.76,-320.65"/>
<polygon fill="#008000" stroke="#008000" points="492.78,-317.76 486.61,-326.38 496.81,-323.49 492.78,-317.76"/>
<text text-anchor="middle" x="631.5" y="-507.95" font-family="Times New Roman,serif" font-size="14.00" fill="#008000">InputB</text>
</g>
<!-- 17553 -->
<g id="node10" class="node">
<title>17553</title>
<ellipse fill="mediumpurple" stroke="mediumpurple" cx="677.38" cy="-643.62" rx="31.9" ry="18"/>
<text text-anchor="start" x="662" y="-639.58" font-family="Times New Roman,serif" font-weight="bold" font-size="14.00" fill="white">Start</text>
</g>
<!-- 17553&#45;&gt;17513 -->
<g id="edge15" class="edge">
<title>17553&#45;&gt;17513</title>
<path fill="none" stroke="black" d="M678.89,-625.32C680.43,-597.51 679.7,-542.28 654.38,-505.5 652.25,-502.42 650,-499.42 647.63,-496.5"/>
<polygon fill="black" stroke="black" points="650.41,-494.35 641.2,-489.11 645.13,-498.95 650.41,-494.35"/>
</g>
</g>
</svg>
