<?xml version="1.0" encoding="UTF-8" standalone="no"?>
<!DOCTYPE svg PUBLIC "-//W3C//DTD SVG 1.1//EN"
 "http://www.w3.org/Graphics/SVG/1.1/DTD/svg11.dtd">
<!-- Generated by graphviz version 9.0.0 (20230911.1827)
 -->
<!-- Title: ActionGuide.module Pages: 1 -->
<svg width="1132pt" height="1471pt"
 viewBox="0.00 0.00 1132.00 1470.50" xmlns="http://www.w3.org/2000/svg" xmlns:xlink="http://www.w3.org/1999/xlink">
<g id="graph0" class="graph" transform="scale(1 1) rotate(0) translate(4 1466.5)">
<title>ActionGuide.module</title>
<polygon fill="lightgray" stroke="none" points="-4,4 -4,-1466.5 1128,-1466.5 1128,4 -4,4"/>
<!-- 2 -->
<g id="node1" class="node">
<title>2</title>
<polygon fill="none" stroke="black" stroke-width="2" points="759.12,-940.25 560.38,-940.25 560.38,-841.75 759.12,-841.75 759.12,-940.25"/>
<polygon fill="none" stroke="black" points="569.38,-912.75 569.38,-935.25 750.12,-935.25 750.12,-912.75 569.38,-912.75"/>
<text text-anchor="start" x="579.88" y="-919.95" font-family="Times New Roman,serif" font-weight="bold" font-size="14.00">Element_Simultaneous (8)</text>
<polygon fill="none" stroke="black" points="569.38,-890.25 569.38,-912.75 750.12,-912.75 750.12,-890.25 569.38,-890.25"/>
<text text-anchor="start" x="627.88" y="-897.45" font-family="Times New Roman,serif" font-weight="bold" font-size="14.00">Properties</text>
<polygon fill="none" stroke="black" points="569.38,-868.5 569.38,-890.25 750.12,-890.25 750.12,-868.5 569.38,-868.5"/>
<text text-anchor="start" x="578.75" y="-873.95" font-family="Times New Roman,serif" font-size="14.00">[Int] EndPolicy (default = 0) </text>
<polygon fill="none" stroke="black" points="569.38,-846.75 569.38,-868.5 750.12,-868.5 750.12,-846.75 569.38,-846.75"/>
<text text-anchor="start" x="572.38" y="-852.2" font-family="Times New Roman,serif" font-size="14.00">[Int] ResultPolicy (default = 0) </text>
<polygon fill="none" stroke="black" points="568.38,-845.75 568.38,-936.25 751.12,-936.25 751.12,-845.75 568.38,-845.75"/>
</g>
<!-- 5 -->
<g id="node2" class="node">
<title>5</title>
<polygon fill="none" stroke="black" stroke-width="2" points="831.5,-538.75 488,-538.75 488,-462 831.5,-462 831.5,-538.75"/>
<polygon fill="none" stroke="black" points="497,-511.25 497,-533.75 822.5,-533.75 822.5,-511.25 497,-511.25"/>
<text text-anchor="start" x="548.38" y="-518.45" font-family="Times New Roman,serif" font-weight="bold" font-size="14.00">SeqExecuteLoadAndOpenScreen (6)</text>
<polygon fill="none" stroke="black" points="497,-488.75 497,-511.25 822.5,-511.25 822.5,-488.75 497,-488.75"/>
<text text-anchor="start" x="640.62" y="-495.95" font-family="Times New Roman,serif" font-weight="bold" font-size="14.00">Inputs</text>
<polygon fill="none" stroke="black" points="497,-467 497,-488.75 822.5,-488.75 822.5,-467 497,-467"/>
<text text-anchor="start" x="500" y="-472.45" font-family="Times New Roman,serif" font-size="14.00">[String] ScreenName (default = SystemActionGuide_00) </text>
<polygon fill="none" stroke="black" points="496,-466 496,-534.75 823.5,-534.75 823.5,-466 496,-466"/>
</g>
<!-- 2&#45;&gt;5 -->
<g id="edge1" class="edge">
<title>2&#45;&gt;5</title>
<path fill="none" stroke="firebrick" stroke-width="2" d="M659.75,-841.57C659.75,-767.11 659.75,-625.32 659.75,-550.47"/>
<polygon fill="firebrick" stroke="firebrick" stroke-width="2" points="663.25,-552.08 659.75,-542.08 656.25,-552.08 663.25,-552.08"/>
</g>
<!-- 8 -->
<g id="node3" class="node">
<title>8</title>
<polygon fill="none" stroke="black" stroke-width="2" points="1124,-560.88 849.5,-560.88 849.5,-439.88 1124,-439.88 1124,-560.88"/>
<polygon fill="none" stroke="black" points="858.5,-533.38 858.5,-555.88 1115,-555.88 1115,-533.38 858.5,-533.38"/>
<text text-anchor="start" x="861.88" y="-540.58" font-family="Times New Roman,serif" font-weight="bold" font-size="14.00">SeqOneShotOpenPauseMenuOverlay (9)</text>
<polygon fill="none" stroke="black" points="858.5,-510.88 858.5,-533.38 1115,-533.38 1115,-510.88 858.5,-510.88"/>
<text text-anchor="start" x="954.88" y="-518.08" font-family="Times New Roman,serif" font-weight="bold" font-size="14.00">Properties</text>
<polygon fill="none" stroke="black" points="858.5,-489.12 858.5,-510.88 1115,-510.88 1115,-489.12 858.5,-489.12"/>
<text text-anchor="start" x="861.5" y="-494.57" font-family="Times New Roman,serif" font-size="14.00">[Bool] ExecuteEveryFrame (default = False) </text>
<polygon fill="none" stroke="black" points="858.5,-466.62 858.5,-489.12 1115,-489.12 1115,-466.62 858.5,-466.62"/>
<text text-anchor="start" x="967.62" y="-473.82" font-family="Times New Roman,serif" font-weight="bold" font-size="14.00">Inputs</text>
<polygon fill="none" stroke="black" points="858.5,-444.88 858.5,-466.62 1115,-466.62 1115,-444.88 858.5,-444.88"/>
<text text-anchor="start" x="876.12" y="-450.32" font-family="Times New Roman,serif" font-size="14.00">[String] Preset (default = ActionGuide) </text>
<polygon fill="none" stroke="black" points="857.5,-443.88 857.5,-556.88 1116,-556.88 1116,-443.88 857.5,-443.88"/>
</g>
<!-- 2&#45;&gt;8 -->
<g id="edge2" class="edge">
<title>2&#45;&gt;8</title>
<path fill="none" stroke="firebrick" stroke-width="2" d="M700.5,-841.57C758.04,-773.19 863.36,-648.02 928.95,-570.06"/>
<polygon fill="firebrick" stroke="firebrick" stroke-width="2" points="930.65,-573.49 934.41,-563.58 925.29,-568.98 930.65,-573.49"/>
</g>
<!-- 11 -->
<g id="node4" class="node">
<title>11</title>
<polygon fill="none" stroke="black" stroke-width="2" points="469.62,-593.5 153.88,-593.5 153.88,-407.25 469.62,-407.25 469.62,-593.5"/>
<polygon fill="none" stroke="black" points="162.88,-566 162.88,-588.5 460.62,-588.5 460.62,-566 162.88,-566"/>
<text text-anchor="start" x="233.38" y="-573.2" font-family="Times New Roman,serif" font-weight="bold" font-size="14.00">Element_BoolSelector (2)</text>
<polygon fill="none" stroke="black" points="162.88,-543.5 162.88,-566 460.62,-566 460.62,-543.5 162.88,-543.5"/>
<text text-anchor="start" x="279.88" y="-550.7" font-family="Times New Roman,serif" font-weight="bold" font-size="14.00">Properties</text>
<polygon fill="none" stroke="black" points="162.88,-521.75 162.88,-543.5 460.62,-543.5 460.62,-521.75 162.88,-521.75"/>
<text text-anchor="start" x="214.62" y="-527.2" font-family="Times New Roman,serif" font-size="14.00">[Int] CalculateTiming (default = 0) </text>
<polygon fill="none" stroke="black" points="162.88,-500 162.88,-521.75 460.62,-521.75 460.62,-500 162.88,-500"/>
<text text-anchor="start" x="195.5" y="-505.45" font-family="Times New Roman,serif" font-size="14.00">[Bool] ChildFrameSync (default = False) </text>
<polygon fill="none" stroke="black" points="162.88,-478.25 162.88,-500 460.62,-500 460.62,-478.25 162.88,-478.25"/>
<text text-anchor="start" x="212" y="-483.7" font-family="Times New Roman,serif" font-size="14.00">[Bool] InputValue (default = False) </text>
<polygon fill="none" stroke="black" points="162.88,-456.5 162.88,-478.25 460.62,-478.25 460.62,-456.5 162.88,-456.5"/>
<text text-anchor="start" x="165.88" y="-461.95" font-family="Times New Roman,serif" font-size="14.00">[Bool] IsNoSelectWhenChildBusy (default = False) </text>
<polygon fill="none" stroke="black" points="162.88,-434 162.88,-456.5 460.62,-456.5 460.62,-434 162.88,-434"/>
<text text-anchor="start" x="292.62" y="-441.2" font-family="Times New Roman,serif" font-weight="bold" font-size="14.00">Inputs</text>
<polygon fill="none" stroke="black" points="162.88,-412.25 162.88,-434 460.62,-434 460.62,-412.25 162.88,-412.25"/>
<text text-anchor="start" x="227.75" y="-417.7" font-family="Times New Roman,serif" font-size="14.00">[Bool] Input (default = False) </text>
<polygon fill="none" stroke="black" points="161.88,-411.25 161.88,-589.5 461.62,-589.5 461.62,-411.25 161.88,-411.25"/>
</g>
<!-- 2&#45;&gt;11 -->
<g id="edge3" class="edge">
<title>2&#45;&gt;11</title>
<path fill="none" stroke="midnightblue" stroke-width="2" d="M629.89,-841.27C592.91,-783.03 526.03,-684.34 454.75,-611.5 451.48,-608.16 448.11,-604.84 444.66,-601.54"/>
<polygon fill="midnightblue" stroke="midnightblue" stroke-width="2" points="448.38,-600.22 438.68,-595.96 443.6,-605.34 448.38,-600.22"/>
<text text-anchor="middle" x="495.88" y="-613.95" font-family="Times New Roman,serif" font-size="14.00" fill="midnightblue">Transition</text>
</g>
<!-- 20 -->
<g id="node5" class="node">
<title>20</title>
<polygon fill="none" stroke="black" stroke-width="2" points="309,-355.5 34.5,-355.5 34.5,-278.75 309,-278.75 309,-355.5"/>
<polygon fill="none" stroke="black" points="43.5,-328 43.5,-350.5 300,-350.5 300,-328 43.5,-328"/>
<text text-anchor="start" x="111.38" y="-335.2" font-family="Times New Roman,serif" font-weight="bold" font-size="14.00">SeqOneShotEnd (0)</text>
<polygon fill="none" stroke="black" points="43.5,-305.5 43.5,-328 300,-328 300,-305.5 43.5,-305.5"/>
<text text-anchor="start" x="139.88" y="-312.7" font-family="Times New Roman,serif" font-weight="bold" font-size="14.00">Properties</text>
<polygon fill="none" stroke="black" points="43.5,-283.75 43.5,-305.5 300,-305.5 300,-283.75 43.5,-283.75"/>
<text text-anchor="start" x="46.5" y="-289.2" font-family="Times New Roman,serif" font-size="14.00">[Bool] ExecuteEveryFrame (default = False) </text>
<polygon fill="none" stroke="black" points="42.5,-282.75 42.5,-351.5 301,-351.5 301,-282.75 42.5,-282.75"/>
</g>
<!-- 11&#45;&gt;20 -->
<g id="edge4" class="edge">
<title>11&#45;&gt;20</title>
<path fill="none" stroke="firebrick" stroke-width="2" d="M240.31,-406.89C228.92,-392.14 217.58,-377.46 207.5,-364.4"/>
<polygon fill="firebrick" stroke="firebrick" stroke-width="2" points="211.46,-363.82 202.58,-358.04 205.93,-368.1 211.46,-363.82"/>
<text text-anchor="middle" x="238.88" y="-375.95" font-family="Times New Roman,serif" font-size="14.00" fill="firebrick">True</text>
</g>
<!-- 29 -->
<g id="node6" class="node">
<title>29</title>
<polygon fill="none" stroke="black" stroke-width="2" points="578.38,-335.12 327.12,-335.12 327.12,-299.12 578.38,-299.12 578.38,-335.12"/>
<polygon fill="none" stroke="black" points="336.12,-305.88 336.12,-328.38 569.38,-328.38 569.38,-305.88 336.12,-305.88"/>
<text text-anchor="start" x="339.12" y="-313.07" font-family="Times New Roman,serif" font-weight="bold" font-size="14.00">SeqExecuteGenericDummyAction (5)</text>
<polygon fill="none" stroke="black" points="335.12,-304.88 335.12,-329.38 570.38,-329.38 570.38,-304.88 335.12,-304.88"/>
</g>
<!-- 11&#45;&gt;29 -->
<g id="edge5" class="edge">
<title>11&#45;&gt;29</title>
<path fill="none" stroke="firebrick" stroke-width="2" d="M383.7,-406.89C401.68,-383.77 419.55,-360.81 432.6,-344.03"/>
<polygon fill="firebrick" stroke="firebrick" stroke-width="2" points="434.08,-347.82 437.46,-337.78 428.56,-343.52 434.08,-347.82"/>
<text text-anchor="middle" x="422.38" y="-375.95" font-family="Times New Roman,serif" font-size="14.00" fill="firebrick">False</text>
</g>
<!-- 23 -->
<g id="node9" class="node">
<title>23</title>
<polygon fill="none" stroke="black" stroke-width="2" points="343.5,-227 0,-227 0,-128.5 343.5,-128.5 343.5,-227"/>
<polygon fill="none" stroke="black" points="9,-199.5 9,-222 334.5,-222 334.5,-199.5 9,-199.5"/>
<text text-anchor="start" x="53.62" y="-206.7" font-family="Times New Roman,serif" font-weight="bold" font-size="14.00">SeqExecuteCloseAndUnloadScreen (7)</text>
<polygon fill="none" stroke="black" points="9,-177 9,-199.5 334.5,-199.5 334.5,-177 9,-177"/>
<text text-anchor="start" x="152.62" y="-184.2" font-family="Times New Roman,serif" font-weight="bold" font-size="14.00">Inputs</text>
<polygon fill="none" stroke="black" points="9,-155.25 9,-177 334.5,-177 334.5,-155.25 9,-155.25"/>
<text text-anchor="start" x="54" y="-160.7" font-family="Times New Roman,serif" font-size="14.00">[Bool] IsUnloadRequest (default = False) </text>
<polygon fill="none" stroke="black" points="9,-133.5 9,-155.25 334.5,-155.25 334.5,-133.5 9,-133.5"/>
<text text-anchor="start" x="12" y="-138.95" font-family="Times New Roman,serif" font-size="14.00">[String] ScreenName (default = SystemActionGuide_00) </text>
<polygon fill="none" stroke="black" points="8,-132.5 8,-223 335.5,-223 335.5,-132.5 8,-132.5"/>
</g>
<!-- 20&#45;&gt;23 -->
<g id="edge8" class="edge">
<title>20&#45;&gt;23</title>
<path fill="none" stroke="midnightblue" stroke-width="2" d="M171.75,-278.59C171.75,-266.24 171.75,-252.18 171.75,-238.59"/>
<polygon fill="midnightblue" stroke="midnightblue" stroke-width="2" points="175.25,-240.37 171.75,-230.37 168.25,-240.37 175.25,-240.37"/>
<text text-anchor="middle" x="199.88" y="-247.45" font-family="Times New Roman,serif" font-size="14.00" fill="midnightblue">Transition</text>
</g>
<!-- 14 -->
<g id="node7" class="node">
<title>14</title>
<polygon fill="none" stroke="black" stroke-width="2" points="468.5,-1136.75 155,-1136.75 155,-645.25 468.5,-645.25 468.5,-1136.75"/>
<polygon fill="none" stroke="black" points="164,-1109.25 164,-1131.75 459.5,-1131.75 459.5,-1109.25 164,-1109.25"/>
<text text-anchor="start" x="182" y="-1116.45" font-family="Times New Roman,serif" font-weight="bold" font-size="14.00">SeqQueryControllerTrigMaskChecker (3)</text>
<polygon fill="none" stroke="black" points="164,-1086.75 164,-1109.25 459.5,-1109.25 459.5,-1086.75 164,-1086.75"/>
<text text-anchor="start" x="279.88" y="-1093.95" font-family="Times New Roman,serif" font-weight="bold" font-size="14.00">Properties</text>
<polygon fill="none" stroke="black" points="164,-1065 164,-1086.75 459.5,-1086.75 459.5,-1065 164,-1065"/>
<text text-anchor="start" x="186.12" y="-1070.45" font-family="Times New Roman,serif" font-size="14.00">[Bool] OutputOnlyOnEnter (default = False) </text>
<polygon fill="none" stroke="black" points="164,-1042.5 164,-1065 459.5,-1065 459.5,-1042.5 164,-1042.5"/>
<text text-anchor="start" x="292.62" y="-1049.7" font-family="Times New Roman,serif" font-weight="bold" font-size="14.00">Inputs</text>
<polygon fill="none" stroke="black" points="164,-1020.75 164,-1042.5 459.5,-1042.5 459.5,-1020.75 164,-1020.75"/>
<text text-anchor="start" x="167" y="-1026.2" font-family="Times New Roman,serif" font-size="14.00">[const u32*] ControllerTrigMask (default = nullptr) </text>
<polygon fill="none" stroke="black" points="164,-998.25 164,-1020.75 459.5,-1020.75 459.5,-998.25 164,-998.25"/>
<text text-anchor="start" x="287.38" y="-1005.45" font-family="Times New Roman,serif" font-weight="bold" font-size="14.00">Outputs</text>
<polygon fill="none" stroke="black" points="164,-976.5 164,-998.25 459.5,-998.25 459.5,-976.5 164,-976.5"/>
<text text-anchor="start" x="275.38" y="-981.95" font-family="Times New Roman,serif" font-size="14.00">[Bool] TrigA</text>
<polygon fill="none" stroke="black" points="164,-954.75 164,-976.5 459.5,-976.5 459.5,-954.75 164,-954.75"/>
<text text-anchor="start" x="275.75" y="-960.2" font-family="Times New Roman,serif" font-size="14.00">[Bool] TrigB</text>
<polygon fill="none" stroke="black" points="164,-933 164,-954.75 459.5,-954.75 459.5,-933 164,-933"/>
<text text-anchor="start" x="263.38" y="-938.45" font-family="Times New Roman,serif" font-size="14.00">[Bool] TrigDown</text>
<polygon fill="none" stroke="black" points="164,-911.25 164,-933 459.5,-933 459.5,-911.25 164,-911.25"/>
<text text-anchor="start" x="276.12" y="-916.7" font-family="Times New Roman,serif" font-size="14.00">[Bool] TrigL</text>
<polygon fill="none" stroke="black" points="164,-889.5 164,-911.25 459.5,-911.25 459.5,-889.5 164,-889.5"/>
<text text-anchor="start" x="269" y="-894.95" font-family="Times New Roman,serif" font-size="14.00">[Bool] TrigLeft</text>
<polygon fill="none" stroke="black" points="164,-867.75 164,-889.5 459.5,-889.5 459.5,-867.75 164,-867.75"/>
<text text-anchor="start" x="258.12" y="-873.2" font-family="Times New Roman,serif" font-size="14.00">[Bool] TrigLSPush</text>
<polygon fill="none" stroke="black" points="164,-846 164,-867.75 459.5,-867.75 459.5,-846 164,-846"/>
<text text-anchor="start" x="263" y="-851.45" font-family="Times New Roman,serif" font-size="14.00">[Bool] TrigMinus</text>
<polygon fill="none" stroke="black" points="164,-824.25 164,-846 459.5,-846 459.5,-824.25 164,-824.25"/>
<text text-anchor="start" x="268.25" y="-829.7" font-family="Times New Roman,serif" font-size="14.00">[Bool] TrigPlus</text>
<polygon fill="none" stroke="black" points="164,-802.5 164,-824.25 459.5,-824.25 459.5,-802.5 164,-802.5"/>
<text text-anchor="start" x="275.38" y="-807.95" font-family="Times New Roman,serif" font-size="14.00">[Bool] TrigR</text>
<polygon fill="none" stroke="black" points="164,-780.75 164,-802.5 459.5,-802.5 459.5,-780.75 164,-780.75"/>
<text text-anchor="start" x="265.25" y="-786.2" font-family="Times New Roman,serif" font-size="14.00">[Bool] TrigRight</text>
<polygon fill="none" stroke="black" points="164,-759 164,-780.75 459.5,-780.75 459.5,-759 164,-759"/>
<text text-anchor="start" x="257.38" y="-764.45" font-family="Times New Roman,serif" font-size="14.00">[Bool] TrigRSPush</text>
<polygon fill="none" stroke="black" points="164,-737.25 164,-759 459.5,-759 459.5,-737.25 164,-737.25"/>
<text text-anchor="start" x="271.62" y="-742.7" font-family="Times New Roman,serif" font-size="14.00">[Bool] TrigUp</text>
<polygon fill="none" stroke="black" points="164,-715.5 164,-737.25 459.5,-737.25 459.5,-715.5 164,-715.5"/>
<text text-anchor="start" x="275.38" y="-720.95" font-family="Times New Roman,serif" font-size="14.00">[Bool] TrigX</text>
<polygon fill="none" stroke="black" points="164,-693.75 164,-715.5 459.5,-715.5 459.5,-693.75 164,-693.75"/>
<text text-anchor="start" x="275.38" y="-699.2" font-family="Times New Roman,serif" font-size="14.00">[Bool] TrigY</text>
<polygon fill="none" stroke="black" points="164,-672 164,-693.75 459.5,-693.75 459.5,-672 164,-672"/>
<text text-anchor="start" x="272" y="-677.45" font-family="Times New Roman,serif" font-size="14.00">[Bool] TrigZL</text>
<polygon fill="none" stroke="black" points="164,-650.25 164,-672 459.5,-672 459.5,-650.25 164,-650.25"/>
<text text-anchor="start" x="271.25" y="-655.7" font-family="Times New Roman,serif" font-size="14.00">[Bool] TrigZR</text>
<polygon fill="none" stroke="black" points="163,-649.25 163,-1132.75 460.5,-1132.75 460.5,-649.25 163,-649.25"/>
</g>
<!-- 14&#45;&gt;11 -->
<g id="edge6" class="edge">
<title>14:35&#45;&gt;11:32</title>
<path fill="none" stroke="#008000" stroke-dasharray="5,2" d="M460.75,-966C603.31,-966 533.66,-767.15 459.75,-645.25 450.83,-630.55 434.39,-641.97 425.5,-627.25 421.88,-621.26 421.6,-617.31 425.5,-611.5 437.31,-593.92 457.81,-611.08 469.62,-593.5 480.85,-576.8 483.81,-426.65 469.62,-412.38 459.14,-401.83 353,-395.84 320.9,-404.94"/>
<polygon fill="#008000" stroke="#008000" points="319.15,-401.89 312.99,-410.5 323.18,-407.61 319.15,-401.89"/>
<text text-anchor="middle" x="440.38" y="-613.95" font-family="Times New Roman,serif" font-size="14.00" fill="#008000">Input</text>
</g>
<!-- 17 -->
<g id="node8" class="node">
<title>17</title>
<polygon fill="none" stroke="black" stroke-width="2" points="501.5,-1462.5 122,-1462.5 122,-1188.5 501.5,-1188.5 501.5,-1462.5"/>
<polygon fill="none" stroke="black" points="131,-1435 131,-1457.5 492.5,-1457.5 492.5,-1435 131,-1435"/>
<text text-anchor="start" x="210.5" y="-1442.2" font-family="Times New Roman,serif" font-weight="bold" font-size="14.00">SeqQueryControllerGetMask (4)</text>
<polygon fill="none" stroke="black" points="131,-1412.5 131,-1435 492.5,-1435 492.5,-1412.5 131,-1412.5"/>
<text text-anchor="start" x="279.88" y="-1419.7" font-family="Times New Roman,serif" font-weight="bold" font-size="14.00">Properties</text>
<polygon fill="none" stroke="black" points="131,-1390.75 131,-1412.5 492.5,-1412.5 492.5,-1390.75 131,-1390.75"/>
<text text-anchor="start" x="186.12" y="-1396.2" font-family="Times New Roman,serif" font-size="14.00">[Bool] OutputOnlyOnEnter (default = False) </text>
<polygon fill="none" stroke="black" points="131,-1368.25 131,-1390.75 492.5,-1390.75 492.5,-1368.25 131,-1368.25"/>
<text text-anchor="start" x="292.62" y="-1375.45" font-family="Times New Roman,serif" font-weight="bold" font-size="14.00">Inputs</text>
<polygon fill="none" stroke="black" points="131,-1346.5 131,-1368.25 492.5,-1368.25 492.5,-1346.5 131,-1346.5"/>
<text text-anchor="start" x="215.75" y="-1351.95" font-family="Times New Roman,serif" font-size="14.00">[Int] ControllerIndex (default = 0) </text>
<polygon fill="none" stroke="black" points="131,-1324.75 131,-1346.5 492.5,-1346.5 492.5,-1324.75 131,-1324.75"/>
<text text-anchor="start" x="189.5" y="-1330.2" font-family="Times New Roman,serif" font-size="14.00">[String] ControllerUserName (default = UI) </text>
<polygon fill="none" stroke="black" points="131,-1302.25 131,-1324.75 492.5,-1324.75 492.5,-1302.25 131,-1302.25"/>
<text text-anchor="start" x="287.38" y="-1309.45" font-family="Times New Roman,serif" font-weight="bold" font-size="14.00">Outputs</text>
<polygon fill="none" stroke="black" points="131,-1280.5 131,-1302.25 492.5,-1302.25 492.5,-1280.5 131,-1280.5"/>
<text text-anchor="start" x="164.75" y="-1285.95" font-family="Times New Roman,serif" font-size="14.00">[const u32*] ControllerHoldMask (default = nullptr) </text>
<polygon fill="none" stroke="black" points="131,-1258.75 131,-1280.5 492.5,-1280.5 492.5,-1258.75 131,-1258.75"/>
<text text-anchor="start" x="157.25" y="-1264.2" font-family="Times New Roman,serif" font-size="14.00">[const u32*] ControllerReleaseMask (default = nullptr) </text>
<polygon fill="none" stroke="black" points="131,-1237 131,-1258.75 492.5,-1258.75 492.5,-1237 131,-1237"/>
<text text-anchor="start" x="159.12" y="-1242.45" font-family="Times New Roman,serif" font-size="14.00">[const u32*] ControllerRepeatMask (default = nullptr) </text>
<polygon fill="none" stroke="black" points="131,-1215.25 131,-1237 492.5,-1237 492.5,-1215.25 131,-1215.25"/>
<text text-anchor="start" x="167" y="-1220.7" font-family="Times New Roman,serif" font-size="14.00">[const u32*] ControllerTrigMask (default = nullptr) </text>
<polygon fill="none" stroke="black" points="131,-1193.5 131,-1215.25 492.5,-1215.25 492.5,-1193.5 131,-1193.5"/>
<text text-anchor="start" x="134" y="-1198.95" font-family="Times New Roman,serif" font-size="14.00">[const u32*] ControllerTrigWithRepeatMask (default = nullptr) </text>
<polygon fill="none" stroke="black" points="130,-1192.5 130,-1458.5 493.5,-1458.5 493.5,-1192.5 130,-1192.5"/>
</g>
<!-- 17&#45;&gt;14 -->
<g id="edge7" class="edge">
<title>17:55&#45;&gt;14:33</title>
<path fill="none" stroke="#008000" stroke-dasharray="5,2" d="M493.75,-1226.5C533.99,-1226.5 509.49,-1062.6 471.28,-1035.71"/>
<polygon fill="#008000" stroke="#008000" points="472.77,-1032.53 462.18,-1032.5 470.45,-1039.13 472.77,-1032.53"/>
<text text-anchor="middle" x="569.88" y="-1157.2" font-family="Times New Roman,serif" font-size="14.00" fill="#008000">ControllerTrigMask</text>
</g>
<!-- 26 -->
<g id="node10" class="node">
<title>26</title>
<polygon fill="none" stroke="black" stroke-width="2" points="310.12,-76.75 33.38,-76.75 33.38,0 310.12,0 310.12,-76.75"/>
<polygon fill="none" stroke="black" points="42.38,-49.25 42.38,-71.75 301.12,-71.75 301.12,-49.25 42.38,-49.25"/>
<text text-anchor="start" x="104.62" y="-56.45" font-family="Times New Roman,serif" font-weight="bold" font-size="14.00">Element_StateEnd (1)</text>
<polygon fill="none" stroke="black" points="42.38,-26.75 42.38,-49.25 301.12,-49.25 301.12,-26.75 42.38,-26.75"/>
<text text-anchor="start" x="139.88" y="-33.95" font-family="Times New Roman,serif" font-weight="bold" font-size="14.00">Properties</text>
<polygon fill="none" stroke="black" points="42.38,-5 42.38,-26.75 301.12,-26.75 301.12,-5 42.38,-5"/>
<text text-anchor="start" x="45.38" y="-10.45" font-family="Times New Roman,serif" font-size="14.00">[String] TransitionCommand (default = End) </text>
<polygon fill="none" stroke="black" points="41.38,-4 41.38,-72.75 302.12,-72.75 302.12,-4 41.38,-4"/>
</g>
<!-- 23&#45;&gt;26 -->
<g id="edge9" class="edge">
<title>23&#45;&gt;26</title>
<path fill="none" stroke="midnightblue" stroke-width="2" d="M171.75,-128.32C171.75,-115.29 171.75,-101.2 171.75,-88.16"/>
<polygon fill="midnightblue" stroke="midnightblue" stroke-width="2" points="175.25,-90.04 171.75,-80.04 168.25,-90.04 175.25,-90.04"/>
<text text-anchor="middle" x="199.88" y="-97.2" font-family="Times New Roman,serif" font-size="14.00" fill="midnightblue">Transition</text>
</g>
<!-- 59 -->
<g id="node11" class="node">
<title>59</title>
<ellipse fill="mediumpurple" stroke="mediumpurple" cx="659.75" cy="-1325.5" rx="31.39" ry="18"/>
<text text-anchor="start" x="644.75" y="-1321.45" font-family="Times New Roman,serif" font-weight="bold" font-size="14.00" fill="white">Root</text>
</g>
<!-- 59&#45;&gt;2 -->
<g id="edge10" class="edge">
<title>59&#45;&gt;2</title>
<path fill="none" stroke="black" d="M659.75,-1307.01C659.75,-1247.65 659.75,-1052.01 659.75,-952.01"/>
<polygon fill="black" stroke="black" points="663.25,-952.11 659.75,-942.11 656.25,-952.11 663.25,-952.11"/>
</g>
</g>
</svg>
