<?xml version="1.0" encoding="UTF-8" standalone="no"?>
<!DOCTYPE svg PUBLIC "-//W3C//DTD SVG 1.1//EN"
 "http://www.w3.org/Graphics/SVG/1.1/DTD/svg11.dtd">
<!-- Generated by graphviz version 9.0.0 (20230911.1827)
 -->
<!-- Title: AfterInitializeTerrain.module Pages: 1 -->
<svg width="1001pt" height="1135pt"
 viewBox="0.00 0.00 1000.88 1135.00" xmlns="http://www.w3.org/2000/svg" xmlns:xlink="http://www.w3.org/1999/xlink">
<g id="graph0" class="graph" transform="scale(1 1) rotate(0) translate(4 1131)">
<title>AfterInitializeTerrain.module</title>
<polygon fill="lightgray" stroke="none" points="-4,4 -4,-1131 996.88,-1131 996.88,4 -4,4"/>
<!-- 706 -->
<g id="node1" class="node">
<title>706</title>
<polygon fill="none" stroke="black" stroke-width="2" points="485.5,-954.25 169.75,-954.25 169.75,-768 485.5,-768 485.5,-954.25"/>
<polygon fill="none" stroke="black" points="178.75,-926.75 178.75,-949.25 476.5,-949.25 476.5,-926.75 178.75,-926.75"/>
<text text-anchor="start" x="244.75" y="-933.95" font-family="Times New Roman,serif" font-weight="bold" font-size="14.00">Element_StringSelector (3)</text>
<polygon fill="none" stroke="black" points="178.75,-904.25 178.75,-926.75 476.5,-926.75 476.5,-904.25 178.75,-904.25"/>
<text text-anchor="start" x="295.75" y="-911.45" font-family="Times New Roman,serif" font-weight="bold" font-size="14.00">Properties</text>
<polygon fill="none" stroke="black" points="178.75,-882.5 178.75,-904.25 476.5,-904.25 476.5,-882.5 178.75,-882.5"/>
<text text-anchor="start" x="230.5" y="-887.95" font-family="Times New Roman,serif" font-size="14.00">[Int] CalculateTiming (default = 0) </text>
<polygon fill="none" stroke="black" points="178.75,-860.75 178.75,-882.5 476.5,-882.5 476.5,-860.75 178.75,-860.75"/>
<text text-anchor="start" x="211.38" y="-866.2" font-family="Times New Roman,serif" font-size="14.00">[Bool] ChildFrameSync (default = False) </text>
<polygon fill="none" stroke="black" points="178.75,-839 178.75,-860.75 476.5,-860.75 476.5,-839 178.75,-839"/>
<text text-anchor="start" x="181.75" y="-844.45" font-family="Times New Roman,serif" font-size="14.00">[Bool] IsNoSelectWhenChildBusy (default = False) </text>
<polygon fill="none" stroke="black" points="178.75,-817.25 178.75,-839 476.5,-839 476.5,-817.25 178.75,-817.25"/>
<text text-anchor="start" x="239.5" y="-822.7" font-family="Times New Roman,serif" font-size="14.00">[String] InputValue (default = ) </text>
<polygon fill="none" stroke="black" points="178.75,-794.75 178.75,-817.25 476.5,-817.25 476.5,-794.75 178.75,-794.75"/>
<text text-anchor="start" x="308.5" y="-801.95" font-family="Times New Roman,serif" font-weight="bold" font-size="14.00">Inputs</text>
<polygon fill="none" stroke="black" points="178.75,-773 178.75,-794.75 476.5,-794.75 476.5,-773 178.75,-773"/>
<text text-anchor="start" x="255.25" y="-778.45" font-family="Times New Roman,serif" font-size="14.00">[String] Input (default = ) </text>
<polygon fill="none" stroke="black" points="177.75,-772 177.75,-950.25 477.5,-950.25 477.5,-772 177.75,-772"/>
</g>
<!-- 712 -->
<g id="node2" class="node">
<title>712</title>
<polygon fill="none" stroke="black" stroke-width="2" points="448.88,-716.25 174.38,-716.25 174.38,-639.5 448.88,-639.5 448.88,-716.25"/>
<polygon fill="none" stroke="black" points="183.38,-688.75 183.38,-711.25 439.88,-711.25 439.88,-688.75 183.38,-688.75"/>
<text text-anchor="start" x="251.25" y="-695.95" font-family="Times New Roman,serif" font-weight="bold" font-size="14.00">SeqOneShotEnd (4)</text>
<polygon fill="none" stroke="black" points="183.38,-666.25 183.38,-688.75 439.88,-688.75 439.88,-666.25 183.38,-666.25"/>
<text text-anchor="start" x="279.75" y="-673.45" font-family="Times New Roman,serif" font-weight="bold" font-size="14.00">Properties</text>
<polygon fill="none" stroke="black" points="183.38,-644.5 183.38,-666.25 439.88,-666.25 439.88,-644.5 183.38,-644.5"/>
<text text-anchor="start" x="186.38" y="-649.95" font-family="Times New Roman,serif" font-size="14.00">[Bool] ExecuteEveryFrame (default = False) </text>
<polygon fill="none" stroke="black" points="182.38,-643.5 182.38,-712.25 440.88,-712.25 440.88,-643.5 182.38,-643.5"/>
</g>
<!-- 706&#45;&gt;712 -->
<g id="edge1" class="edge">
<title>706&#45;&gt;712</title>
<path fill="none" stroke="firebrick" stroke-width="2" d="M319.46,-767.64C318.25,-753.88 317.04,-740.19 315.94,-727.81"/>
<polygon fill="firebrick" stroke="firebrick" stroke-width="2" points="319.57,-729.06 315.2,-719.41 312.6,-729.68 319.57,-729.06"/>
</g>
<!-- 715 -->
<g id="node3" class="node">
<title>715</title>
<polygon fill="none" stroke="black" stroke-width="2" points="741.88,-716.25 467.38,-716.25 467.38,-639.5 741.88,-639.5 741.88,-716.25"/>
<polygon fill="none" stroke="black" points="476.38,-688.75 476.38,-711.25 732.88,-711.25 732.88,-688.75 476.38,-688.75"/>
<text text-anchor="start" x="544.25" y="-695.95" font-family="Times New Roman,serif" font-weight="bold" font-size="14.00">SeqOneShotEnd (5)</text>
<polygon fill="none" stroke="black" points="476.38,-666.25 476.38,-688.75 732.88,-688.75 732.88,-666.25 476.38,-666.25"/>
<text text-anchor="start" x="572.75" y="-673.45" font-family="Times New Roman,serif" font-weight="bold" font-size="14.00">Properties</text>
<polygon fill="none" stroke="black" points="476.38,-644.5 476.38,-666.25 732.88,-666.25 732.88,-644.5 476.38,-644.5"/>
<text text-anchor="start" x="479.38" y="-649.95" font-family="Times New Roman,serif" font-size="14.00">[Bool] ExecuteEveryFrame (default = False) </text>
<polygon fill="none" stroke="black" points="475.38,-643.5 475.38,-712.25 733.88,-712.25 733.88,-643.5 475.38,-643.5"/>
</g>
<!-- 706&#45;&gt;715 -->
<g id="edge2" class="edge">
<title>706&#45;&gt;715</title>
<path fill="none" stroke="firebrick" stroke-width="2" d="M468.97,-767.64C492.91,-751.98 516.74,-736.38 537.59,-722.74"/>
<polygon fill="firebrick" stroke="firebrick" stroke-width="2" points="537.97,-726.67 544.42,-718.27 534.13,-720.82 537.97,-726.67"/>
<text text-anchor="middle" x="534.5" y="-736.7" font-family="Times New Roman,serif" font-size="14.00" fill="firebrick">Default</text>
</g>
<!-- 718 -->
<g id="node5" class="node">
<title>718</title>
<polygon fill="none" stroke="black" stroke-width="2" points="746.38,-587.75 462.88,-587.75 462.88,-380.5 746.38,-380.5 746.38,-587.75"/>
<polygon fill="none" stroke="black" points="471.88,-560.25 471.88,-582.75 737.38,-582.75 737.38,-560.25 471.88,-560.25"/>
<text text-anchor="start" x="533.75" y="-567.45" font-family="Times New Roman,serif" font-weight="bold" font-size="14.00">Element_Sequential (1)</text>
<polygon fill="none" stroke="black" points="471.88,-537.75 471.88,-560.25 737.38,-560.25 737.38,-537.75 471.88,-537.75"/>
<text text-anchor="start" x="572.75" y="-544.95" font-family="Times New Roman,serif" font-weight="bold" font-size="14.00">Properties</text>
<polygon fill="none" stroke="black" points="471.88,-516 471.88,-537.75 737.38,-537.75 737.38,-516 471.88,-516"/>
<text text-anchor="start" x="520.62" y="-521.45" font-family="Times New Roman,serif" font-size="14.00">[Int] BusyPolicy (default = 0) </text>
<polygon fill="none" stroke="black" points="471.88,-494.25 471.88,-516 737.38,-516 737.38,-494.25 471.88,-494.25"/>
<text text-anchor="start" x="523.62" y="-499.7" font-family="Times New Roman,serif" font-size="14.00">[Int] NumLoop (default = 0) </text>
<polygon fill="none" stroke="black" points="471.88,-472.5 471.88,-494.25 737.38,-494.25 737.38,-472.5 471.88,-472.5"/>
<text text-anchor="start" x="522.88" y="-477.95" font-family="Times New Roman,serif" font-size="14.00">[Int] PlayPolicy (default = 0) </text>
<polygon fill="none" stroke="black" points="471.88,-450.75 471.88,-472.5 737.38,-472.5 737.38,-450.75 471.88,-450.75"/>
<text text-anchor="start" x="517.25" y="-456.2" font-family="Times New Roman,serif" font-size="14.00">[Int] ResultPolicy (default = 0) </text>
<polygon fill="none" stroke="black" points="471.88,-429 471.88,-450.75 737.38,-450.75 737.38,-429 471.88,-429"/>
<text text-anchor="start" x="498.12" y="-434.45" font-family="Times New Roman,serif" font-size="14.00">[Bool] IsDelayJudge (default = False) </text>
<polygon fill="none" stroke="black" points="471.88,-407.25 471.88,-429 737.38,-429 737.38,-407.25 471.88,-407.25"/>
<text text-anchor="start" x="514.62" y="-412.7" font-family="Times New Roman,serif" font-size="14.00">[Bool] IsLoop (default = False) </text>
<polygon fill="none" stroke="black" points="471.88,-385.5 471.88,-407.25 737.38,-407.25 737.38,-385.5 471.88,-385.5"/>
<text text-anchor="start" x="474.88" y="-390.95" font-family="Times New Roman,serif" font-size="14.00">[Bool] IsUpdateNextInFrame (default = True) </text>
<polygon fill="none" stroke="black" points="470.88,-384.5 470.88,-583.75 738.38,-583.75 738.38,-384.5 470.88,-384.5"/>
</g>
<!-- 715&#45;&gt;718 -->
<g id="edge4" class="edge">
<title>715&#45;&gt;718</title>
<path fill="none" stroke="midnightblue" stroke-width="2" d="M604.62,-639.45C604.62,-627.55 604.62,-613.71 604.62,-599.3"/>
<polygon fill="midnightblue" stroke="midnightblue" stroke-width="2" points="608.13,-601.21 604.63,-591.21 601.13,-601.21 608.13,-601.21"/>
<text text-anchor="middle" x="632.75" y="-608.2" font-family="Times New Roman,serif" font-size="14.00" fill="midnightblue">Transition</text>
</g>
<!-- 709 -->
<g id="node4" class="node">
<title>709</title>
<polygon fill="none" stroke="black" stroke-width="2" points="372.38,-1127 94.88,-1127 94.88,-1006 372.38,-1006 372.38,-1127"/>
<polygon fill="none" stroke="black" points="103.88,-1099.5 103.88,-1122 363.38,-1122 363.38,-1099.5 103.88,-1099.5"/>
<text text-anchor="start" x="121.88" y="-1106.7" font-family="Times New Roman,serif" font-weight="bold" font-size="14.00">Element_ModuleIF_Input_String (9)</text>
<polygon fill="none" stroke="black" points="103.88,-1077 103.88,-1099.5 363.38,-1099.5 363.38,-1077 103.88,-1077"/>
<text text-anchor="start" x="201.75" y="-1084.2" font-family="Times New Roman,serif" font-weight="bold" font-size="14.00">Properties</text>
<polygon fill="none" stroke="black" points="103.88,-1055.25 103.88,-1077 363.38,-1077 363.38,-1055.25 103.88,-1055.25"/>
<text text-anchor="start" x="106.88" y="-1060.7" font-family="Times New Roman,serif" font-size="14.00">[String] Name (default = TerrainSceneName) </text>
<polygon fill="none" stroke="black" points="103.88,-1032.75 103.88,-1055.25 363.38,-1055.25 363.38,-1032.75 103.88,-1032.75"/>
<text text-anchor="start" x="209.25" y="-1039.95" font-family="Times New Roman,serif" font-weight="bold" font-size="14.00">Outputs</text>
<polygon fill="none" stroke="black" points="103.88,-1011 103.88,-1032.75 363.38,-1032.75 363.38,-1011 103.88,-1011"/>
<text text-anchor="start" x="196.12" y="-1016.45" font-family="Times New Roman,serif" font-size="14.00">[String] Input</text>
<polygon fill="none" stroke="black" points="102.88,-1010 102.88,-1123 364.38,-1123 364.38,-1010 102.88,-1010"/>
</g>
<!-- 709&#45;&gt;706 -->
<g id="edge3" class="edge">
<title>709:735&#45;&gt;706:734</title>
<path fill="none" stroke="#008000" stroke-dasharray="5,2" d="M233.62,-1009.5C233.62,-974.85 191.94,-986.24 178.62,-954.25 151.15,-888.26 107.16,-795.01 166.3,-785"/>
<polygon fill="#008000" stroke="#008000" points="166.42,-788.51 176.12,-784.24 165.88,-781.53 166.42,-788.51"/>
<text text-anchor="middle" x="238.25" y="-974.7" font-family="Times New Roman,serif" font-size="14.00" fill="#008000">Input</text>
</g>
<!-- 721 -->
<g id="node6" class="node">
<title>721</title>
<polygon fill="none" stroke="black" stroke-width="2" points="491,-343.5 292.25,-343.5 292.25,-245 491,-245 491,-343.5"/>
<polygon fill="none" stroke="black" points="301.25,-316 301.25,-338.5 482,-338.5 482,-316 301.25,-316"/>
<text text-anchor="start" x="311.75" y="-323.2" font-family="Times New Roman,serif" font-weight="bold" font-size="14.00">Element_Simultaneous (7)</text>
<polygon fill="none" stroke="black" points="301.25,-293.5 301.25,-316 482,-316 482,-293.5 301.25,-293.5"/>
<text text-anchor="start" x="359.75" y="-300.7" font-family="Times New Roman,serif" font-weight="bold" font-size="14.00">Properties</text>
<polygon fill="none" stroke="black" points="301.25,-271.75 301.25,-293.5 482,-293.5 482,-271.75 301.25,-271.75"/>
<text text-anchor="start" x="310.62" y="-277.2" font-family="Times New Roman,serif" font-size="14.00">[Int] EndPolicy (default = 0) </text>
<polygon fill="none" stroke="black" points="301.25,-250 301.25,-271.75 482,-271.75 482,-250 301.25,-250"/>
<text text-anchor="start" x="304.25" y="-255.45" font-family="Times New Roman,serif" font-size="14.00">[Int] ResultPolicy (default = 0) </text>
<polygon fill="none" stroke="black" points="300.25,-249 300.25,-339.5 483,-339.5 483,-249 300.25,-249"/>
</g>
<!-- 718&#45;&gt;721 -->
<g id="edge5" class="edge">
<title>718&#45;&gt;721</title>
<path fill="none" stroke="firebrick" stroke-width="2" d="M487.84,-380.12C476.71,-370.3 465.74,-360.62 455.4,-351.51"/>
<polygon fill="firebrick" stroke="firebrick" stroke-width="2" points="458.97,-349.99 449.16,-346 454.34,-355.24 458.97,-349.99"/>
</g>
<!-- 730 -->
<g id="node7" class="node">
<title>730</title>
<polygon fill="none" stroke="black" stroke-width="2" points="700.62,-312.25 508.62,-312.25 508.62,-276.25 700.62,-276.25 700.62,-312.25"/>
<polygon fill="none" stroke="black" points="517.62,-283 517.62,-305.5 691.62,-305.5 691.62,-283 517.62,-283"/>
<text text-anchor="start" x="520.62" y="-290.2" font-family="Times New Roman,serif" font-weight="bold" font-size="14.00">WaitCaveStable.module (2)</text>
<polygon fill="none" stroke="black" points="516.62,-282 516.62,-306.5 692.62,-306.5 692.62,-282 516.62,-282"/>
</g>
<!-- 718&#45;&gt;730 -->
<g id="edge6" class="edge">
<title>718&#45;&gt;730</title>
<path fill="none" stroke="firebrick" stroke-width="2" d="M604.62,-380.12C604.62,-359.48 604.62,-339.44 604.62,-324.01"/>
<polygon fill="firebrick" stroke="firebrick" stroke-width="2" points="608.13,-325.74 604.63,-315.74 601.13,-325.74 608.13,-325.74"/>
</g>
<!-- 733 -->
<g id="node8" class="node">
<title>733</title>
<polygon fill="none" stroke="black" stroke-width="2" points="992.88,-332.62 718.38,-332.62 718.38,-255.88 992.88,-255.88 992.88,-332.62"/>
<polygon fill="none" stroke="black" points="727.38,-305.12 727.38,-327.62 983.88,-327.62 983.88,-305.12 727.38,-305.12"/>
<text text-anchor="start" x="795.25" y="-312.32" font-family="Times New Roman,serif" font-weight="bold" font-size="14.00">SeqOneShotEnd (8)</text>
<polygon fill="none" stroke="black" points="727.38,-282.62 727.38,-305.12 983.88,-305.12 983.88,-282.62 727.38,-282.62"/>
<text text-anchor="start" x="823.75" y="-289.82" font-family="Times New Roman,serif" font-weight="bold" font-size="14.00">Properties</text>
<polygon fill="none" stroke="black" points="727.38,-260.88 727.38,-282.62 983.88,-282.62 983.88,-260.88 727.38,-260.88"/>
<text text-anchor="start" x="730.38" y="-266.32" font-family="Times New Roman,serif" font-size="14.00">[Bool] ExecuteEveryFrame (default = False) </text>
<polygon fill="none" stroke="black" points="726.38,-259.88 726.38,-328.62 984.88,-328.62 984.88,-259.88 726.38,-259.88"/>
</g>
<!-- 718&#45;&gt;733 -->
<g id="edge7" class="edge">
<title>718&#45;&gt;733</title>
<path fill="none" stroke="firebrick" stroke-width="2" d="M742.24,-380.12C761.22,-365.91 779.83,-351.99 796.3,-339.65"/>
<polygon fill="firebrick" stroke="firebrick" stroke-width="2" points="796.89,-343.58 802.8,-334.79 792.7,-337.98 796.89,-343.58"/>
</g>
<!-- 724 -->
<g id="node9" class="node">
<title>724</title>
<polygon fill="none" stroke="black" stroke-width="2" points="383.25,-208 0,-208 0,0 383.25,0 383.25,-208"/>
<polygon fill="none" stroke="black" points="9,-180.5 9,-203 374.25,-203 374.25,-180.5 9,-180.5"/>
<text text-anchor="start" x="107.62" y="-187.7" font-family="Times New Roman,serif" font-weight="bold" font-size="14.00">SeqExecuteCreateActor (0)</text>
<polygon fill="none" stroke="black" points="9,-158 9,-180.5 374.25,-180.5 374.25,-158 9,-158"/>
<text text-anchor="start" x="172.5" y="-165.2" font-family="Times New Roman,serif" font-weight="bold" font-size="14.00">Inputs</text>
<polygon fill="none" stroke="black" points="9,-136.25 9,-158 374.25,-158 374.25,-136.25 9,-136.25"/>
<text text-anchor="start" x="12" y="-141.7" font-family="Times New Roman,serif" font-size="14.00">[Bool] IsNoDeleteOnSwitchingMainAndMinus (default = False) </text>
<polygon fill="none" stroke="black" points="9,-114.5 9,-136.25 374.25,-136.25 374.25,-114.5 9,-114.5"/>
<text text-anchor="start" x="101.62" y="-119.95" font-family="Times New Roman,serif" font-size="14.00">[Bool] IsSleep (default = False) </text>
<polygon fill="none" stroke="black" points="9,-92.75 9,-114.5 374.25,-114.5 374.25,-92.75 9,-92.75"/>
<text text-anchor="start" x="79.12" y="-98.2" font-family="Times New Roman,serif" font-size="14.00">[String] ActorName (default = Horizon) </text>
<polygon fill="none" stroke="black" points="9,-71 9,-92.75 374.25,-92.75 374.25,-71 9,-71"/>
<text text-anchor="start" x="66" y="-76.45" font-family="Times New Roman,serif" font-size="14.00">[Vector3F] InitPos (default = (0.0, 0.0, 0.0)) </text>
<polygon fill="none" stroke="black" points="9,-49.25 9,-71 374.25,-71 374.25,-49.25 9,-49.25"/>
<text text-anchor="start" x="28.88" y="-54.7" font-family="Times New Roman,serif" font-size="14.00">[bb::OverwriteParam*] OverwriteParam (default = nullptr) </text>
<polygon fill="none" stroke="black" points="9,-26.75 9,-49.25 374.25,-49.25 374.25,-26.75 9,-26.75"/>
<text text-anchor="start" x="167.25" y="-33.95" font-family="Times New Roman,serif" font-weight="bold" font-size="14.00">Outputs</text>
<polygon fill="none" stroke="black" points="9,-5 9,-26.75 374.25,-26.75 374.25,-5 9,-5"/>
<text text-anchor="start" x="21" y="-10.45" font-family="Times New Roman,serif" font-size="14.00">[engine::actor::ActorBaseLink*] ActorLink (default = nullptr) </text>
<polygon fill="none" stroke="black" points="8,-4 8,-204 375.25,-204 375.25,-4 8,-4"/>
</g>
<!-- 721&#45;&gt;724 -->
<g id="edge8" class="edge">
<title>721&#45;&gt;724</title>
<path fill="none" stroke="firebrick" stroke-width="2" d="M339.86,-244.53C330.36,-235.58 320.1,-225.92 309.56,-216"/>
<polygon fill="firebrick" stroke="firebrick" stroke-width="2" points="313.34,-214.76 303.66,-210.45 308.54,-219.85 313.34,-214.76"/>
</g>
<!-- 727 -->
<g id="node10" class="node">
<title>727</title>
<polygon fill="none" stroke="black" stroke-width="2" points="784.25,-208 401,-208 401,0 784.25,0 784.25,-208"/>
<polygon fill="none" stroke="black" points="410,-180.5 410,-203 775.25,-203 775.25,-180.5 410,-180.5"/>
<text text-anchor="start" x="508.62" y="-187.7" font-family="Times New Roman,serif" font-weight="bold" font-size="14.00">SeqExecuteCreateActor (6)</text>
<polygon fill="none" stroke="black" points="410,-158 410,-180.5 775.25,-180.5 775.25,-158 410,-158"/>
<text text-anchor="start" x="573.5" y="-165.2" font-family="Times New Roman,serif" font-weight="bold" font-size="14.00">Inputs</text>
<polygon fill="none" stroke="black" points="410,-136.25 410,-158 775.25,-158 775.25,-136.25 410,-136.25"/>
<text text-anchor="start" x="413" y="-141.7" font-family="Times New Roman,serif" font-size="14.00">[Bool] IsNoDeleteOnSwitchingMainAndMinus (default = False) </text>
<polygon fill="none" stroke="black" points="410,-114.5 410,-136.25 775.25,-136.25 775.25,-114.5 410,-114.5"/>
<text text-anchor="start" x="502.62" y="-119.95" font-family="Times New Roman,serif" font-size="14.00">[Bool] IsSleep (default = False) </text>
<polygon fill="none" stroke="black" points="410,-92.75 410,-114.5 775.25,-114.5 775.25,-92.75 410,-92.75"/>
<text text-anchor="start" x="461" y="-98.2" font-family="Times New Roman,serif" font-size="14.00">[String] ActorName (default = MinusFieldFull) </text>
<polygon fill="none" stroke="black" points="410,-71 410,-92.75 775.25,-92.75 775.25,-71 410,-71"/>
<text text-anchor="start" x="458" y="-76.45" font-family="Times New Roman,serif" font-size="14.00">[Vector3F] InitPos (default = (0.0, &#45;200.0, 0.0)) </text>
<polygon fill="none" stroke="black" points="410,-49.25 410,-71 775.25,-71 775.25,-49.25 410,-49.25"/>
<text text-anchor="start" x="429.88" y="-54.7" font-family="Times New Roman,serif" font-size="14.00">[bb::OverwriteParam*] OverwriteParam (default = nullptr) </text>
<polygon fill="none" stroke="black" points="410,-26.75 410,-49.25 775.25,-49.25 775.25,-26.75 410,-26.75"/>
<text text-anchor="start" x="568.25" y="-33.95" font-family="Times New Roman,serif" font-weight="bold" font-size="14.00">Outputs</text>
<polygon fill="none" stroke="black" points="410,-5 410,-26.75 775.25,-26.75 775.25,-5 410,-5"/>
<text text-anchor="start" x="422" y="-10.45" font-family="Times New Roman,serif" font-size="14.00">[engine::actor::ActorBaseLink*] ActorLink (default = nullptr) </text>
<polygon fill="none" stroke="black" points="409,-4 409,-204 776.25,-204 776.25,-4 409,-4"/>
</g>
<!-- 721&#45;&gt;727 -->
<g id="edge9" class="edge">
<title>721&#45;&gt;727</title>
<path fill="none" stroke="firebrick" stroke-width="2" d="M443.65,-244.53C453.2,-235.58 463.51,-225.92 474.1,-216"/>
<polygon fill="firebrick" stroke="firebrick" stroke-width="2" points="475.13,-219.84 480.04,-210.45 470.35,-214.73 475.13,-219.84"/>
</g>
<!-- 748 -->
<g id="node11" class="node">
<title>748</title>
<ellipse fill="mediumpurple" stroke="mediumpurple" cx="421.62" cy="-1066.5" rx="31.39" ry="18"/>
<text text-anchor="start" x="406.62" y="-1062.45" font-family="Times New Roman,serif" font-weight="bold" font-size="14.00" fill="white">Root</text>
</g>
<!-- 748&#45;&gt;706 -->
<g id="edge10" class="edge">
<title>748&#45;&gt;706</title>
<path fill="none" stroke="black" d="M413.93,-1048.86C405.19,-1029.94 390.17,-997.44 375.09,-964.81"/>
<polygon fill="black" stroke="black" points="378.42,-963.67 371.04,-956.06 372.06,-966.61 378.42,-963.67"/>
</g>
</g>
</svg>
