<?xml version="1.0" encoding="UTF-8" standalone="no"?>
<!DOCTYPE svg PUBLIC "-//W3C//DTD SVG 1.1//EN"
 "http://www.w3.org/Graphics/SVG/1.1/DTD/svg11.dtd">
<!-- Generated by graphviz version 9.0.0 (20230911.1827)
 -->
<!-- Title: AfterSetupModelSceneCommon.module Pages: 1 -->
<svg width="292pt" height="490pt"
 viewBox="0.00 0.00 291.50 489.75" xmlns="http://www.w3.org/2000/svg" xmlns:xlink="http://www.w3.org/1999/xlink">
<g id="graph0" class="graph" transform="scale(1 1) rotate(0) translate(4 485.75)">
<title>AfterSetupModelSceneCommon.module</title>
<polygon fill="lightgray" stroke="none" points="-4,4 -4,-485.75 287.5,-485.75 287.5,4 -4,4"/>
<!-- 855 -->
<g id="node1" class="node">
<title>855</title>
<polygon fill="none" stroke="black" stroke-width="2" points="283.5,-408.75 0,-408.75 0,-201.5 283.5,-201.5 283.5,-408.75"/>
<polygon fill="none" stroke="black" points="9,-381.25 9,-403.75 274.5,-403.75 274.5,-381.25 9,-381.25"/>
<text text-anchor="start" x="70.88" y="-388.45" font-family="Times New Roman,serif" font-weight="bold" font-size="14.00">Element_Sequential (2)</text>
<polygon fill="none" stroke="black" points="9,-358.75 9,-381.25 274.5,-381.25 274.5,-358.75 9,-358.75"/>
<text text-anchor="start" x="109.88" y="-365.95" font-family="Times New Roman,serif" font-weight="bold" font-size="14.00">Properties</text>
<polygon fill="none" stroke="black" points="9,-337 9,-358.75 274.5,-358.75 274.5,-337 9,-337"/>
<text text-anchor="start" x="57.75" y="-342.45" font-family="Times New Roman,serif" font-size="14.00">[Int] BusyPolicy (default = 0) </text>
<polygon fill="none" stroke="black" points="9,-315.25 9,-337 274.5,-337 274.5,-315.25 9,-315.25"/>
<text text-anchor="start" x="60.75" y="-320.7" font-family="Times New Roman,serif" font-size="14.00">[Int] NumLoop (default = 0) </text>
<polygon fill="none" stroke="black" points="9,-293.5 9,-315.25 274.5,-315.25 274.5,-293.5 9,-293.5"/>
<text text-anchor="start" x="60" y="-298.95" font-family="Times New Roman,serif" font-size="14.00">[Int] PlayPolicy (default = 0) </text>
<polygon fill="none" stroke="black" points="9,-271.75 9,-293.5 274.5,-293.5 274.5,-271.75 9,-271.75"/>
<text text-anchor="start" x="54.38" y="-277.2" font-family="Times New Roman,serif" font-size="14.00">[Int] ResultPolicy (default = 0) </text>
<polygon fill="none" stroke="black" points="9,-250 9,-271.75 274.5,-271.75 274.5,-250 9,-250"/>
<text text-anchor="start" x="35.25" y="-255.45" font-family="Times New Roman,serif" font-size="14.00">[Bool] IsDelayJudge (default = False) </text>
<polygon fill="none" stroke="black" points="9,-228.25 9,-250 274.5,-250 274.5,-228.25 9,-228.25"/>
<text text-anchor="start" x="51.75" y="-233.7" font-family="Times New Roman,serif" font-size="14.00">[Bool] IsLoop (default = False) </text>
<polygon fill="none" stroke="black" points="9,-206.5 9,-228.25 274.5,-228.25 274.5,-206.5 9,-206.5"/>
<text text-anchor="start" x="12" y="-211.95" font-family="Times New Roman,serif" font-size="14.00">[Bool] IsUpdateNextInFrame (default = True) </text>
<polygon fill="none" stroke="black" points="8,-205.5 8,-404.75 275.5,-404.75 275.5,-205.5 8,-205.5"/>
</g>
<!-- 858 -->
<g id="node2" class="node">
<title>858</title>
<polygon fill="none" stroke="black" stroke-width="2" points="243.38,-164.5 40.12,-164.5 40.12,-128.5 243.38,-128.5 243.38,-164.5"/>
<polygon fill="none" stroke="black" points="49.12,-135.25 49.12,-157.75 234.38,-157.75 234.38,-135.25 49.12,-135.25"/>
<text text-anchor="start" x="52.12" y="-142.45" font-family="Times New Roman,serif" font-weight="bold" font-size="14.00">LowPrioSequence.module (0)</text>
<polygon fill="none" stroke="black" points="48.12,-134.25 48.12,-158.75 235.38,-158.75 235.38,-134.25 48.12,-134.25"/>
</g>
<!-- 855&#45;&gt;858 -->
<g id="edge1" class="edge">
<title>855&#45;&gt;858</title>
<path fill="none" stroke="firebrick" stroke-width="2" d="M141.75,-201.4C141.75,-192.28 141.75,-183.65 141.75,-176.07"/>
<polygon fill="firebrick" stroke="firebrick" stroke-width="2" points="145.25,-177.81 141.75,-167.81 138.25,-177.81 145.25,-177.81"/>
</g>
<!-- 861 -->
<g id="node3" class="node">
<title>861</title>
<polygon fill="none" stroke="black" stroke-width="2" points="279,-76.75 4.5,-76.75 4.5,0 279,0 279,-76.75"/>
<polygon fill="none" stroke="black" points="13.5,-49.25 13.5,-71.75 270,-71.75 270,-49.25 13.5,-49.25"/>
<text text-anchor="start" x="27.38" y="-56.45" font-family="Times New Roman,serif" font-weight="bold" font-size="14.00">SeqOneShotCreateTerrainSystem (1)</text>
<polygon fill="none" stroke="black" points="13.5,-26.75 13.5,-49.25 270,-49.25 270,-26.75 13.5,-26.75"/>
<text text-anchor="start" x="109.88" y="-33.95" font-family="Times New Roman,serif" font-weight="bold" font-size="14.00">Properties</text>
<polygon fill="none" stroke="black" points="13.5,-5 13.5,-26.75 270,-26.75 270,-5 13.5,-5"/>
<text text-anchor="start" x="16.5" y="-10.45" font-family="Times New Roman,serif" font-size="14.00">[Bool] ExecuteEveryFrame (default = False) </text>
<polygon fill="none" stroke="black" points="12.5,-4 12.5,-72.75 271,-72.75 271,-4 12.5,-4"/>
</g>
<!-- 858&#45;&gt;861 -->
<g id="edge2" class="edge">
<title>858&#45;&gt;861</title>
<path fill="none" stroke="firebrick" stroke-width="2" d="M141.75,-128.45C141.75,-117.54 141.75,-102.78 141.75,-88.42"/>
<polygon fill="firebrick" stroke="firebrick" stroke-width="2" points="145.25,-90.09 141.75,-80.09 138.25,-90.09 145.25,-90.09"/>
<text text-anchor="middle" x="181.12" y="-97.2" font-family="Times New Roman,serif" font-size="14.00" fill="firebrick">LowPrioChild</text>
</g>
<!-- 862 -->
<g id="node4" class="node">
<title>862</title>
<ellipse fill="mediumpurple" stroke="mediumpurple" cx="141.75" cy="-463.75" rx="31.39" ry="18"/>
<text text-anchor="start" x="126.75" y="-459.7" font-family="Times New Roman,serif" font-weight="bold" font-size="14.00" fill="white">Root</text>
</g>
<!-- 862&#45;&gt;855 -->
<g id="edge3" class="edge">
<title>862&#45;&gt;855</title>
<path fill="none" stroke="black" d="M141.75,-445.39C141.75,-438.52 141.75,-430.01 141.75,-420.62"/>
<polygon fill="black" stroke="black" points="145.25,-420.73 141.75,-410.73 138.25,-420.73 145.25,-420.73"/>
</g>
</g>
</svg>
