<?xml version="1.0" encoding="UTF-8" standalone="no"?>
<!DOCTYPE svg PUBLIC "-//W3C//DTD SVG 1.1//EN"
 "http://www.w3.org/Graphics/SVG/1.1/DTD/svg11.dtd">
<!-- Generated by graphviz version 9.0.0 (20230911.1827)
 -->
<!-- Title: AutoBuilderShortcut.module Pages: 1 -->
<svg width="1551pt" height="1543pt"
 viewBox="0.00 0.00 1551.00 1543.00" xmlns="http://www.w3.org/2000/svg" xmlns:xlink="http://www.w3.org/1999/xlink">
<g id="graph0" class="graph" transform="scale(1 1) rotate(0) translate(4 1539)">
<title>AutoBuilderShortcut.module</title>
<polygon fill="lightgray" stroke="none" points="-4,4 -4,-1539 1547,-1539 1547,4 -4,4"/>
<!-- 1893 -->
<g id="node1" class="node">
<title>1893</title>
<polygon fill="none" stroke="black" stroke-width="2" points="1122.62,-1462 773.12,-1462 773.12,-1319.25 1122.62,-1319.25 1122.62,-1462"/>
<polygon fill="none" stroke="black" points="782.12,-1434.5 782.12,-1457 1113.62,-1457 1113.62,-1434.5 782.12,-1434.5"/>
<text text-anchor="start" x="827.12" y="-1441.7" font-family="Times New Roman,serif" font-weight="bold" font-size="14.00">SeqSelectorScreenOpenCloseState (10)</text>
<polygon fill="none" stroke="black" points="782.12,-1412 782.12,-1434.5 1113.62,-1434.5 1113.62,-1412 782.12,-1412"/>
<text text-anchor="start" x="916" y="-1419.2" font-family="Times New Roman,serif" font-weight="bold" font-size="14.00">Properties</text>
<polygon fill="none" stroke="black" points="782.12,-1390.25 782.12,-1412 1113.62,-1412 1113.62,-1390.25 782.12,-1390.25"/>
<text text-anchor="start" x="797.88" y="-1395.7" font-family="Times New Roman,serif" font-size="14.00">[Bool] NoChangeWhenChildIsBusy (default = False) </text>
<polygon fill="none" stroke="black" points="782.12,-1368.5 782.12,-1390.25 1113.62,-1390.25 1113.62,-1368.5 782.12,-1368.5"/>
<text text-anchor="start" x="809.88" y="-1373.95" font-family="Times New Roman,serif" font-size="14.00">[Bool] SelectChildOnEnterOnly (default = False) </text>
<polygon fill="none" stroke="black" points="782.12,-1346 782.12,-1368.5 1113.62,-1368.5 1113.62,-1346 782.12,-1346"/>
<text text-anchor="start" x="928.75" y="-1353.2" font-family="Times New Roman,serif" font-weight="bold" font-size="14.00">Inputs</text>
<polygon fill="none" stroke="black" points="782.12,-1324.25 782.12,-1346 1113.62,-1346 1113.62,-1324.25 782.12,-1324.25"/>
<text text-anchor="start" x="785.12" y="-1329.7" font-family="Times New Roman,serif" font-size="14.00">[String] ScreenName (default = AutoBuilderShortCut_00) </text>
<polygon fill="none" stroke="black" points="781.12,-1323.25 781.12,-1458 1114.62,-1458 1114.62,-1323.25 781.12,-1323.25"/>
</g>
<!-- 1896 -->
<g id="node2" class="node">
<title>1896</title>
<polygon fill="none" stroke="black" stroke-width="2" points="905.5,-1247.12 654.25,-1247.12 654.25,-1211.12 905.5,-1211.12 905.5,-1247.12"/>
<polygon fill="none" stroke="black" points="663.25,-1217.88 663.25,-1240.38 896.5,-1240.38 896.5,-1217.88 663.25,-1217.88"/>
<text text-anchor="start" x="666.25" y="-1225.08" font-family="Times New Roman,serif" font-weight="bold" font-size="14.00">SeqExecuteGenericDummyAction (0)</text>
<polygon fill="none" stroke="black" points="662.25,-1216.88 662.25,-1241.38 897.5,-1241.38 897.5,-1216.88 662.25,-1216.88"/>
</g>
<!-- 1893&#45;&gt;1896 -->
<g id="edge1" class="edge">
<title>1893&#45;&gt;1896</title>
<path fill="none" stroke="firebrick" stroke-width="2" d="M859.56,-1318.99C853.03,-1313.12 846.65,-1307.17 840.62,-1301.25 826.28,-1287.15 811.59,-1270.05 800.25,-1256.14"/>
<polygon fill="firebrick" stroke="firebrick" stroke-width="2" points="804.22,-1255.49 795.22,-1249.89 798.76,-1259.88 804.22,-1255.49"/>
<text text-anchor="middle" x="864.5" y="-1287.95" font-family="Times New Roman,serif" font-size="14.00" fill="firebrick">Opening</text>
</g>
<!-- 1893&#45;&gt;1896 -->
<g id="edge2" class="edge">
<title>1893&#45;&gt;1896</title>
<path fill="none" stroke="firebrick" stroke-width="2" d="M914.61,-1318.93C906.93,-1306.87 898,-1295.14 887.88,-1285.5 873.59,-1271.9 855.31,-1260.84 837.86,-1252.28"/>
<polygon fill="firebrick" stroke="firebrick" stroke-width="2" points="841.01,-1249.89 830.47,-1248.81 838.04,-1256.23 841.01,-1249.89"/>
<text text-anchor="middle" x="924" y="-1287.95" font-family="Times New Roman,serif" font-size="14.00" fill="firebrick">Opened</text>
</g>
<!-- 1899 -->
<g id="node3" class="node">
<title>1899</title>
<polygon fill="none" stroke="black" stroke-width="2" points="1198.12,-1267.5 923.62,-1267.5 923.62,-1190.75 1198.12,-1190.75 1198.12,-1267.5"/>
<polygon fill="none" stroke="black" points="932.62,-1240 932.62,-1262.5 1189.12,-1262.5 1189.12,-1240 932.62,-1240"/>
<text text-anchor="start" x="1000.5" y="-1247.2" font-family="Times New Roman,serif" font-weight="bold" font-size="14.00">SeqOneShotEnd (2)</text>
<polygon fill="none" stroke="black" points="932.62,-1217.5 932.62,-1240 1189.12,-1240 1189.12,-1217.5 932.62,-1217.5"/>
<text text-anchor="start" x="1029" y="-1224.7" font-family="Times New Roman,serif" font-weight="bold" font-size="14.00">Properties</text>
<polygon fill="none" stroke="black" points="932.62,-1195.75 932.62,-1217.5 1189.12,-1217.5 1189.12,-1195.75 932.62,-1195.75"/>
<text text-anchor="start" x="935.62" y="-1201.2" font-family="Times New Roman,serif" font-size="14.00">[Bool] ExecuteEveryFrame (default = False) </text>
<polygon fill="none" stroke="black" points="931.62,-1194.75 931.62,-1263.5 1190.12,-1263.5 1190.12,-1194.75 931.62,-1194.75"/>
</g>
<!-- 1893&#45;&gt;1899 -->
<g id="edge3" class="edge">
<title>1893&#45;&gt;1899</title>
<path fill="none" stroke="firebrick" stroke-width="2" d="M973.08,-1319.02C978.78,-1307.28 985.45,-1295.64 993.12,-1285.5 995.61,-1282.22 998.33,-1279.01 1001.2,-1275.9"/>
<polygon fill="firebrick" stroke="firebrick" stroke-width="2" points="1002.44,-1279.62 1006.98,-1270.05 997.46,-1274.7 1002.44,-1279.62"/>
<text text-anchor="middle" x="1013.75" y="-1287.95" font-family="Times New Roman,serif" font-size="14.00" fill="firebrick">Closed</text>
</g>
<!-- 1893&#45;&gt;1899 -->
<g id="edge4" class="edge">
<title>1893&#45;&gt;1899</title>
<path fill="none" stroke="firebrick" stroke-width="2" d="M1020.16,-1319C1024.72,-1313.2 1029.02,-1307.25 1032.88,-1301.25 1037.46,-1294.11 1041.5,-1286.09 1044.98,-1278.09"/>
<polygon fill="firebrick" stroke="firebrick" stroke-width="2" points="1047.56,-1281.03 1048.1,-1270.45 1041.08,-1278.39 1047.56,-1281.03"/>
<text text-anchor="middle" x="1063.25" y="-1287.95" font-family="Times New Roman,serif" font-size="14.00" fill="firebrick">Closing</text>
</g>
<!-- 1902 -->
<g id="node4" class="node">
<title>1902</title>
<polygon fill="none" stroke="black" stroke-width="2" points="1204.12,-1139 917.62,-1139 917.62,-931.75 1204.12,-931.75 1204.12,-1139"/>
<polygon fill="none" stroke="black" points="926.62,-1111.5 926.62,-1134 1195.12,-1134 1195.12,-1111.5 926.62,-1111.5"/>
<text text-anchor="start" x="990" y="-1118.7" font-family="Times New Roman,serif" font-weight="bold" font-size="14.00">Element_Sequential (3)</text>
<polygon fill="none" stroke="black" points="926.62,-1089 926.62,-1111.5 1195.12,-1111.5 1195.12,-1089 926.62,-1089"/>
<text text-anchor="start" x="1029" y="-1096.2" font-family="Times New Roman,serif" font-weight="bold" font-size="14.00">Properties</text>
<polygon fill="none" stroke="black" points="926.62,-1067.25 926.62,-1089 1195.12,-1089 1195.12,-1067.25 926.62,-1067.25"/>
<text text-anchor="start" x="976.88" y="-1072.7" font-family="Times New Roman,serif" font-size="14.00">[Int] BusyPolicy (default = 0) </text>
<polygon fill="none" stroke="black" points="926.62,-1045.5 926.62,-1067.25 1195.12,-1067.25 1195.12,-1045.5 926.62,-1045.5"/>
<text text-anchor="start" x="979.88" y="-1050.95" font-family="Times New Roman,serif" font-size="14.00">[Int] NumLoop (default = 0) </text>
<polygon fill="none" stroke="black" points="926.62,-1023.75 926.62,-1045.5 1195.12,-1045.5 1195.12,-1023.75 926.62,-1023.75"/>
<text text-anchor="start" x="979.12" y="-1029.2" font-family="Times New Roman,serif" font-size="14.00">[Int] PlayPolicy (default = 0) </text>
<polygon fill="none" stroke="black" points="926.62,-1002 926.62,-1023.75 1195.12,-1023.75 1195.12,-1002 926.62,-1002"/>
<text text-anchor="start" x="973.5" y="-1007.45" font-family="Times New Roman,serif" font-size="14.00">[Int] ResultPolicy (default = 0) </text>
<polygon fill="none" stroke="black" points="926.62,-980.25 926.62,-1002 1195.12,-1002 1195.12,-980.25 926.62,-980.25"/>
<text text-anchor="start" x="954.38" y="-985.7" font-family="Times New Roman,serif" font-size="14.00">[Bool] IsDelayJudge (default = False) </text>
<polygon fill="none" stroke="black" points="926.62,-958.5 926.62,-980.25 1195.12,-980.25 1195.12,-958.5 926.62,-958.5"/>
<text text-anchor="start" x="970.88" y="-963.95" font-family="Times New Roman,serif" font-size="14.00">[Bool] IsLoop (default = False) </text>
<polygon fill="none" stroke="black" points="926.62,-936.75 926.62,-958.5 1195.12,-958.5 1195.12,-936.75 926.62,-936.75"/>
<text text-anchor="start" x="929.62" y="-942.2" font-family="Times New Roman,serif" font-size="14.00">[Bool] IsUpdateNextInFrame (default = False) </text>
<polygon fill="none" stroke="black" points="925.62,-935.75 925.62,-1135 1196.12,-1135 1196.12,-935.75 925.62,-935.75"/>
</g>
<!-- 1899&#45;&gt;1902 -->
<g id="edge5" class="edge">
<title>1899&#45;&gt;1902</title>
<path fill="none" stroke="midnightblue" stroke-width="2" d="M1060.88,-1190.7C1060.88,-1178.8 1060.88,-1164.96 1060.88,-1150.55"/>
<polygon fill="midnightblue" stroke="midnightblue" stroke-width="2" points="1064.38,-1152.46 1060.88,-1142.46 1057.38,-1152.46 1064.38,-1152.46"/>
<text text-anchor="middle" x="1089" y="-1159.45" font-family="Times New Roman,serif" font-size="14.00" fill="midnightblue">Transition</text>
</g>
<!-- 1905 -->
<g id="node5" class="node">
<title>1905</title>
<polygon fill="none" stroke="black" stroke-width="2" points="899.38,-793.62 662.38,-793.62 662.38,-757.62 899.38,-757.62 899.38,-793.62"/>
<polygon fill="none" stroke="black" points="671.38,-764.38 671.38,-786.88 890.38,-786.88 890.38,-764.38 671.38,-764.38"/>
<text text-anchor="start" x="674.38" y="-771.58" font-family="Times New Roman,serif" font-weight="bold" font-size="14.00">WaitAutoBuilderDraft.module (12)</text>
<polygon fill="none" stroke="black" points="670.38,-763.38 670.38,-787.88 891.38,-787.88 891.38,-763.38 670.38,-763.38"/>
</g>
<!-- 1902&#45;&gt;1905 -->
<g id="edge6" class="edge">
<title>1902&#45;&gt;1905</title>
<path fill="none" stroke="firebrick" stroke-width="2" d="M949,-931.39C897.27,-883.77 840.18,-831.22 807.62,-801.24"/>
<polygon fill="firebrick" stroke="firebrick" stroke-width="2" points="811.45,-800.01 801.72,-795.81 806.71,-805.16 811.45,-800.01"/>
</g>
<!-- 1908 -->
<g id="node6" class="node">
<title>1908</title>
<polygon fill="none" stroke="black" stroke-width="2" points="1204.12,-879.25 917.62,-879.25 917.62,-672 1204.12,-672 1204.12,-879.25"/>
<polygon fill="none" stroke="black" points="926.62,-851.75 926.62,-874.25 1195.12,-874.25 1195.12,-851.75 926.62,-851.75"/>
<text text-anchor="start" x="990" y="-858.95" font-family="Times New Roman,serif" font-weight="bold" font-size="14.00">Element_Sequential (5)</text>
<polygon fill="none" stroke="black" points="926.62,-829.25 926.62,-851.75 1195.12,-851.75 1195.12,-829.25 926.62,-829.25"/>
<text text-anchor="start" x="1029" y="-836.45" font-family="Times New Roman,serif" font-weight="bold" font-size="14.00">Properties</text>
<polygon fill="none" stroke="black" points="926.62,-807.5 926.62,-829.25 1195.12,-829.25 1195.12,-807.5 926.62,-807.5"/>
<text text-anchor="start" x="976.88" y="-812.95" font-family="Times New Roman,serif" font-size="14.00">[Int] BusyPolicy (default = 0) </text>
<polygon fill="none" stroke="black" points="926.62,-785.75 926.62,-807.5 1195.12,-807.5 1195.12,-785.75 926.62,-785.75"/>
<text text-anchor="start" x="979.88" y="-791.2" font-family="Times New Roman,serif" font-size="14.00">[Int] NumLoop (default = 0) </text>
<polygon fill="none" stroke="black" points="926.62,-764 926.62,-785.75 1195.12,-785.75 1195.12,-764 926.62,-764"/>
<text text-anchor="start" x="979.12" y="-769.45" font-family="Times New Roman,serif" font-size="14.00">[Int] PlayPolicy (default = 0) </text>
<polygon fill="none" stroke="black" points="926.62,-742.25 926.62,-764 1195.12,-764 1195.12,-742.25 926.62,-742.25"/>
<text text-anchor="start" x="973.5" y="-747.7" font-family="Times New Roman,serif" font-size="14.00">[Int] ResultPolicy (default = 0) </text>
<polygon fill="none" stroke="black" points="926.62,-720.5 926.62,-742.25 1195.12,-742.25 1195.12,-720.5 926.62,-720.5"/>
<text text-anchor="start" x="954.38" y="-725.95" font-family="Times New Roman,serif" font-size="14.00">[Bool] IsDelayJudge (default = False) </text>
<polygon fill="none" stroke="black" points="926.62,-698.75 926.62,-720.5 1195.12,-720.5 1195.12,-698.75 926.62,-698.75"/>
<text text-anchor="start" x="970.88" y="-704.2" font-family="Times New Roman,serif" font-size="14.00">[Bool] IsLoop (default = False) </text>
<polygon fill="none" stroke="black" points="926.62,-677 926.62,-698.75 1195.12,-698.75 1195.12,-677 926.62,-677"/>
<text text-anchor="start" x="929.62" y="-682.45" font-family="Times New Roman,serif" font-size="14.00">[Bool] IsUpdateNextInFrame (default = False) </text>
<polygon fill="none" stroke="black" points="925.62,-676 925.62,-875.25 1196.12,-875.25 1196.12,-676 925.62,-676"/>
</g>
<!-- 1902&#45;&gt;1908 -->
<g id="edge7" class="edge">
<title>1902&#45;&gt;1908</title>
<path fill="none" stroke="firebrick" stroke-width="2" d="M1060.88,-931.39C1060.88,-918.03 1060.88,-904.28 1060.88,-890.74"/>
<polygon fill="firebrick" stroke="firebrick" stroke-width="2" points="1064.38,-892.47 1060.88,-882.47 1057.38,-892.47 1064.38,-892.47"/>
</g>
<!-- 1947 -->
<g id="node7" class="node">
<title>1947</title>
<polygon fill="none" stroke="black" stroke-width="2" points="1503.88,-814 1221.88,-814 1221.88,-737.25 1503.88,-737.25 1503.88,-814"/>
<polygon fill="none" stroke="black" points="1230.88,-786.5 1230.88,-809 1494.88,-809 1494.88,-786.5 1230.88,-786.5"/>
<text text-anchor="start" x="1295.75" y="-793.7" font-family="Times New Roman,serif" font-weight="bold" font-size="14.00">Element_StateEnd (1)</text>
<polygon fill="none" stroke="black" points="1230.88,-764 1230.88,-786.5 1494.88,-786.5 1494.88,-764 1230.88,-764"/>
<text text-anchor="start" x="1331" y="-771.2" font-family="Times New Roman,serif" font-weight="bold" font-size="14.00">Properties</text>
<polygon fill="none" stroke="black" points="1230.88,-742.25 1230.88,-764 1494.88,-764 1494.88,-742.25 1230.88,-742.25"/>
<text text-anchor="start" x="1233.88" y="-747.7" font-family="Times New Roman,serif" font-size="14.00">[String] TransitionCommand (default = Main) </text>
<polygon fill="none" stroke="black" points="1229.88,-741.25 1229.88,-810 1495.88,-810 1495.88,-741.25 1229.88,-741.25"/>
</g>
<!-- 1902&#45;&gt;1947 -->
<g id="edge8" class="edge">
<title>1902&#45;&gt;1947</title>
<path fill="none" stroke="midnightblue" stroke-width="2" d="M1181.54,-931.39C1226.06,-893.39 1274.26,-852.25 1309.77,-821.95"/>
<polygon fill="midnightblue" stroke="midnightblue" stroke-width="2" points="1310.88,-825.6 1316.21,-816.45 1306.33,-820.28 1310.88,-825.6"/>
<text text-anchor="middle" x="1240" y="-900.45" font-family="Times New Roman,serif" font-size="14.00" fill="midnightblue">Transition</text>
</g>
<!-- 1911 -->
<g id="node8" class="node">
<title>1911</title>
<polygon fill="none" stroke="black" stroke-width="2" points="959.62,-575.25 610.12,-575.25 610.12,-476.75 959.62,-476.75 959.62,-575.25"/>
<polygon fill="none" stroke="black" points="619.12,-547.75 619.12,-570.25 950.62,-570.25 950.62,-547.75 619.12,-547.75"/>
<text text-anchor="start" x="666.75" y="-554.95" font-family="Times New Roman,serif" font-weight="bold" font-size="14.00">SeqExecuteCloseAndUnloadScreen (4)</text>
<polygon fill="none" stroke="black" points="619.12,-525.25 619.12,-547.75 950.62,-547.75 950.62,-525.25 619.12,-525.25"/>
<text text-anchor="start" x="765.75" y="-532.45" font-family="Times New Roman,serif" font-weight="bold" font-size="14.00">Inputs</text>
<polygon fill="none" stroke="black" points="619.12,-503.5 619.12,-525.25 950.62,-525.25 950.62,-503.5 619.12,-503.5"/>
<text text-anchor="start" x="667.12" y="-508.95" font-family="Times New Roman,serif" font-size="14.00">[Bool] IsUnloadRequest (default = False) </text>
<polygon fill="none" stroke="black" points="619.12,-481.75 619.12,-503.5 950.62,-503.5 950.62,-481.75 619.12,-481.75"/>
<text text-anchor="start" x="622.12" y="-487.2" font-family="Times New Roman,serif" font-size="14.00">[String] ScreenName (default = AutoBuilderShortCut_00) </text>
<polygon fill="none" stroke="black" points="618.12,-480.75 618.12,-571.25 951.62,-571.25 951.62,-480.75 618.12,-480.75"/>
</g>
<!-- 1908&#45;&gt;1911 -->
<g id="edge9" class="edge">
<title>1908&#45;&gt;1911</title>
<path fill="none" stroke="firebrick" stroke-width="2" d="M946.22,-671.76C912.39,-641.4 876.63,-609.32 847.39,-583.09"/>
<polygon fill="firebrick" stroke="firebrick" stroke-width="2" points="850.97,-581.59 841.18,-577.52 846.29,-586.8 850.97,-581.59"/>
</g>
<!-- 1914 -->
<g id="node9" class="node">
<title>1914</title>
<polygon fill="none" stroke="black" stroke-width="2" points="1176.25,-575.25 977.5,-575.25 977.5,-476.75 1176.25,-476.75 1176.25,-575.25"/>
<polygon fill="none" stroke="black" points="986.5,-547.75 986.5,-570.25 1167.25,-570.25 1167.25,-547.75 986.5,-547.75"/>
<text text-anchor="start" x="997" y="-554.95" font-family="Times New Roman,serif" font-weight="bold" font-size="14.00">Element_Simultaneous (7)</text>
<polygon fill="none" stroke="black" points="986.5,-525.25 986.5,-547.75 1167.25,-547.75 1167.25,-525.25 986.5,-525.25"/>
<text text-anchor="start" x="1045" y="-532.45" font-family="Times New Roman,serif" font-weight="bold" font-size="14.00">Properties</text>
<polygon fill="none" stroke="black" points="986.5,-503.5 986.5,-525.25 1167.25,-525.25 1167.25,-503.5 986.5,-503.5"/>
<text text-anchor="start" x="995.88" y="-508.95" font-family="Times New Roman,serif" font-size="14.00">[Int] EndPolicy (default = 0) </text>
<polygon fill="none" stroke="black" points="986.5,-481.75 986.5,-503.5 1167.25,-503.5 1167.25,-481.75 986.5,-481.75"/>
<text text-anchor="start" x="989.5" y="-487.2" font-family="Times New Roman,serif" font-size="14.00">[Int] ResultPolicy (default = 0) </text>
<polygon fill="none" stroke="black" points="985.5,-480.75 985.5,-571.25 1168.25,-571.25 1168.25,-480.75 985.5,-480.75"/>
</g>
<!-- 1908&#45;&gt;1914 -->
<g id="edge10" class="edge">
<title>1908&#45;&gt;1914</title>
<path fill="none" stroke="firebrick" stroke-width="2" d="M1067.52,-671.76C1069.39,-642.84 1071.36,-612.34 1073.01,-586.84"/>
<polygon fill="firebrick" stroke="firebrick" stroke-width="2" points="1076.39,-588.73 1073.55,-578.52 1069.41,-588.27 1076.39,-588.73"/>
</g>
<!-- 1917 -->
<g id="node10" class="node">
<title>1917</title>
<polygon fill="none" stroke="black" stroke-width="2" points="912.12,-326 703.62,-326 703.62,-249.25 912.12,-249.25 912.12,-326"/>
<polygon fill="none" stroke="black" points="712.62,-298.5 712.62,-321 903.12,-321 903.12,-298.5 712.62,-298.5"/>
<text text-anchor="start" x="728" y="-305.7" font-family="Times New Roman,serif" font-weight="bold" font-size="14.00">SetVisibleHUD.module (6)</text>
<polygon fill="none" stroke="black" points="712.62,-276 712.62,-298.5 903.12,-298.5 903.12,-276 712.62,-276"/>
<text text-anchor="start" x="788.75" y="-283.2" font-family="Times New Roman,serif" font-weight="bold" font-size="14.00">Inputs</text>
<polygon fill="none" stroke="black" points="712.62,-254.25 712.62,-276 903.12,-276 903.12,-254.25 712.62,-254.25"/>
<text text-anchor="start" x="715.62" y="-259.7" font-family="Times New Roman,serif" font-size="14.00">[Bool] IsVisible (default = True) </text>
<polygon fill="none" stroke="black" points="711.62,-253.25 711.62,-322 904.12,-322 904.12,-253.25 711.62,-253.25"/>
</g>
<!-- 1914&#45;&gt;1917 -->
<g id="edge11" class="edge">
<title>1914&#45;&gt;1917</title>
<path fill="none" stroke="firebrick" stroke-width="2" d="M1021.46,-476.31C973.83,-434.45 905.66,-374.55 859.24,-333.76"/>
<polygon fill="firebrick" stroke="firebrick" stroke-width="2" points="862.93,-332.34 853.11,-328.37 858.31,-337.6 862.93,-332.34"/>
</g>
<!-- 1920 -->
<g id="node11" class="node">
<title>1920</title>
<polygon fill="none" stroke="black" stroke-width="2" points="1223.12,-359 930.62,-359 930.62,-216.25 1223.12,-216.25 1223.12,-359"/>
<polygon fill="none" stroke="black" points="939.62,-331.5 939.62,-354 1214.12,-354 1214.12,-331.5 939.62,-331.5"/>
<text text-anchor="start" x="973.75" y="-338.7" font-family="Times New Roman,serif" font-weight="bold" font-size="14.00">SeqOneShotSetScreenVisible (11)</text>
<polygon fill="none" stroke="black" points="939.62,-309 939.62,-331.5 1214.12,-331.5 1214.12,-309 939.62,-309"/>
<text text-anchor="start" x="1045" y="-316.2" font-family="Times New Roman,serif" font-weight="bold" font-size="14.00">Properties</text>
<polygon fill="none" stroke="black" points="939.62,-287.25 939.62,-309 1214.12,-309 1214.12,-287.25 939.62,-287.25"/>
<text text-anchor="start" x="951.62" y="-292.7" font-family="Times New Roman,serif" font-size="14.00">[Bool] ExecuteEveryFrame (default = False) </text>
<polygon fill="none" stroke="black" points="939.62,-264.75 939.62,-287.25 1214.12,-287.25 1214.12,-264.75 939.62,-264.75"/>
<text text-anchor="start" x="1057.75" y="-271.95" font-family="Times New Roman,serif" font-weight="bold" font-size="14.00">Inputs</text>
<polygon fill="none" stroke="black" points="939.62,-243 939.62,-264.75 1214.12,-264.75 1214.12,-243 939.62,-243"/>
<text text-anchor="start" x="984.62" y="-248.45" font-family="Times New Roman,serif" font-size="14.00">[Bool] IsVisible (default = True) </text>
<polygon fill="none" stroke="black" points="939.62,-221.25 939.62,-243 1214.12,-243 1214.12,-221.25 939.62,-221.25"/>
<text text-anchor="start" x="942.62" y="-226.7" font-family="Times New Roman,serif" font-size="14.00">[String] ScreenName (default = SimpleInfo_00) </text>
<polygon fill="none" stroke="black" points="938.62,-220.25 938.62,-355 1215.12,-355 1215.12,-220.25 938.62,-220.25"/>
</g>
<!-- 1914&#45;&gt;1920 -->
<g id="edge12" class="edge">
<title>1914&#45;&gt;1920</title>
<path fill="none" stroke="firebrick" stroke-width="2" d="M1076.88,-476.31C1076.88,-445.82 1076.88,-405.77 1076.88,-370.49"/>
<polygon fill="firebrick" stroke="firebrick" stroke-width="2" points="1080.38,-372.25 1076.88,-362.25 1073.38,-372.25 1080.38,-372.25"/>
</g>
<!-- 1923 -->
<g id="node12" class="node">
<title>1923</title>
<polygon fill="none" stroke="black" stroke-width="2" points="667.75,-380.75 352,-380.75 352,-194.5 667.75,-194.5 667.75,-380.75"/>
<polygon fill="none" stroke="black" points="361,-353.25 361,-375.75 658.75,-375.75 658.75,-353.25 361,-353.25"/>
<text text-anchor="start" x="427.75" y="-360.45" font-family="Times New Roman,serif" font-weight="bold" font-size="14.00">Element_BoolSelector (17)</text>
<polygon fill="none" stroke="black" points="361,-330.75 361,-353.25 658.75,-353.25 658.75,-330.75 361,-330.75"/>
<text text-anchor="start" x="478" y="-337.95" font-family="Times New Roman,serif" font-weight="bold" font-size="14.00">Properties</text>
<polygon fill="none" stroke="black" points="361,-309 361,-330.75 658.75,-330.75 658.75,-309 361,-309"/>
<text text-anchor="start" x="412.75" y="-314.45" font-family="Times New Roman,serif" font-size="14.00">[Int] CalculateTiming (default = 0) </text>
<polygon fill="none" stroke="black" points="361,-287.25 361,-309 658.75,-309 658.75,-287.25 361,-287.25"/>
<text text-anchor="start" x="393.62" y="-292.7" font-family="Times New Roman,serif" font-size="14.00">[Bool] ChildFrameSync (default = False) </text>
<polygon fill="none" stroke="black" points="361,-265.5 361,-287.25 658.75,-287.25 658.75,-265.5 361,-265.5"/>
<text text-anchor="start" x="410.12" y="-270.95" font-family="Times New Roman,serif" font-size="14.00">[Bool] InputValue (default = False) </text>
<polygon fill="none" stroke="black" points="361,-243.75 361,-265.5 658.75,-265.5 658.75,-243.75 361,-243.75"/>
<text text-anchor="start" x="364" y="-249.2" font-family="Times New Roman,serif" font-size="14.00">[Bool] IsNoSelectWhenChildBusy (default = False) </text>
<polygon fill="none" stroke="black" points="361,-221.25 361,-243.75 658.75,-243.75 658.75,-221.25 361,-221.25"/>
<text text-anchor="start" x="490.75" y="-228.45" font-family="Times New Roman,serif" font-weight="bold" font-size="14.00">Inputs</text>
<polygon fill="none" stroke="black" points="361,-199.5 361,-221.25 658.75,-221.25 658.75,-199.5 361,-199.5"/>
<text text-anchor="start" x="425.88" y="-204.95" font-family="Times New Roman,serif" font-size="14.00">[Bool] Input (default = False) </text>
<polygon fill="none" stroke="black" points="360,-198.5 360,-376.75 659.75,-376.75 659.75,-198.5 360,-198.5"/>
</g>
<!-- 1914&#45;&gt;1923 -->
<g id="edge13" class="edge">
<title>1914&#45;&gt;1923</title>
<path fill="none" stroke="firebrick" stroke-width="2" d="M1031.03,-476.44C1013.12,-460.13 991.47,-443.34 968.88,-432.5 857.15,-378.88 812.34,-420.25 694.88,-380.75 689.49,-378.94 684.06,-377 678.61,-374.95"/>
<polygon fill="firebrick" stroke="firebrick" stroke-width="2" points="681.54,-372.33 670.95,-371.99 679.01,-378.86 681.54,-372.33"/>
</g>
<!-- 1944 -->
<g id="node13" class="node">
<title>1944</title>
<polygon fill="none" stroke="black" stroke-width="2" points="1543,-348.12 1240.75,-348.12 1240.75,-227.12 1543,-227.12 1543,-348.12"/>
<polygon fill="none" stroke="black" points="1249.75,-320.62 1249.75,-343.12 1534,-343.12 1534,-320.62 1249.75,-320.62"/>
<text text-anchor="start" x="1301.5" y="-327.82" font-family="Times New Roman,serif" font-weight="bold" font-size="14.00">SeqOneShotReleasePause (9)</text>
<polygon fill="none" stroke="black" points="1249.75,-298.12 1249.75,-320.62 1534,-320.62 1534,-298.12 1249.75,-298.12"/>
<text text-anchor="start" x="1360" y="-305.32" font-family="Times New Roman,serif" font-weight="bold" font-size="14.00">Properties</text>
<polygon fill="none" stroke="black" points="1249.75,-276.38 1249.75,-298.12 1534,-298.12 1534,-276.38 1249.75,-276.38"/>
<text text-anchor="start" x="1266.62" y="-281.82" font-family="Times New Roman,serif" font-size="14.00">[Bool] ExecuteEveryFrame (default = False) </text>
<polygon fill="none" stroke="black" points="1249.75,-253.88 1249.75,-276.38 1534,-276.38 1534,-253.88 1249.75,-253.88"/>
<text text-anchor="start" x="1372.75" y="-261.07" font-family="Times New Roman,serif" font-weight="bold" font-size="14.00">Inputs</text>
<polygon fill="none" stroke="black" points="1249.75,-232.12 1249.75,-253.88 1534,-253.88 1534,-232.12 1249.75,-232.12"/>
<text text-anchor="start" x="1252.75" y="-237.57" font-family="Times New Roman,serif" font-size="14.00">[String] PauseType (default = AutoBuilderPause) </text>
<polygon fill="none" stroke="black" points="1248.75,-231.12 1248.75,-344.12 1535,-344.12 1535,-231.12 1248.75,-231.12"/>
</g>
<!-- 1914&#45;&gt;1944 -->
<g id="edge14" class="edge">
<title>1914&#45;&gt;1944</title>
<path fill="none" stroke="firebrick" stroke-width="2" d="M1141.76,-476.31C1188.31,-441.38 1251.61,-393.88 1302.88,-355.41"/>
<polygon fill="firebrick" stroke="firebrick" stroke-width="2" points="1303.66,-359.2 1309.55,-350.4 1299.45,-353.6 1303.66,-359.2"/>
</g>
<!-- 1938 -->
<g id="node14" class="node">
<title>1938</title>
<polygon fill="none" stroke="black" stroke-width="2" points="499.12,-109.75 224.62,-109.75 224.62,-33 499.12,-33 499.12,-109.75"/>
<polygon fill="none" stroke="black" points="233.62,-82.25 233.62,-104.75 490.12,-104.75 490.12,-82.25 233.62,-82.25"/>
<text text-anchor="start" x="297.75" y="-89.45" font-family="Times New Roman,serif" font-weight="bold" font-size="14.00">SeqOneShotEnd (18)</text>
<polygon fill="none" stroke="black" points="233.62,-59.75 233.62,-82.25 490.12,-82.25 490.12,-59.75 233.62,-59.75"/>
<text text-anchor="start" x="330" y="-66.95" font-family="Times New Roman,serif" font-weight="bold" font-size="14.00">Properties</text>
<polygon fill="none" stroke="black" points="233.62,-38 233.62,-59.75 490.12,-59.75 490.12,-38 233.62,-38"/>
<text text-anchor="start" x="236.62" y="-43.45" font-family="Times New Roman,serif" font-size="14.00">[Bool] ExecuteEveryFrame (default = False) </text>
<polygon fill="none" stroke="black" points="232.62,-37 232.62,-105.75 491.12,-105.75 491.12,-37 232.62,-37"/>
</g>
<!-- 1923&#45;&gt;1938 -->
<g id="edge15" class="edge">
<title>1923&#45;&gt;1938</title>
<path fill="none" stroke="firebrick" stroke-width="2" d="M446.04,-194.21C428.25,-168.46 409.66,-141.56 394.5,-119.6"/>
<polygon fill="firebrick" stroke="firebrick" stroke-width="2" points="398.28,-118.92 389.72,-112.69 392.53,-122.9 398.28,-118.92"/>
<text text-anchor="middle" x="445" y="-163.2" font-family="Times New Roman,serif" font-size="14.00" fill="firebrick">True</text>
</g>
<!-- 1941 -->
<g id="node15" class="node">
<title>1941</title>
<polygon fill="none" stroke="black" stroke-width="2" points="798.5,-142.75 517.25,-142.75 517.25,0 798.5,0 798.5,-142.75"/>
<polygon fill="none" stroke="black" points="526.25,-115.25 526.25,-137.75 789.5,-137.75 789.5,-115.25 526.25,-115.25"/>
<text text-anchor="start" x="558.5" y="-122.45" font-family="Times New Roman,serif" font-weight="bold" font-size="14.00">SeqOneShotSetScreenVisible (8)</text>
<polygon fill="none" stroke="black" points="526.25,-92.75 526.25,-115.25 789.5,-115.25 789.5,-92.75 526.25,-92.75"/>
<text text-anchor="start" x="626" y="-99.95" font-family="Times New Roman,serif" font-weight="bold" font-size="14.00">Properties</text>
<polygon fill="none" stroke="black" points="526.25,-71 526.25,-92.75 789.5,-92.75 789.5,-71 526.25,-71"/>
<text text-anchor="start" x="532.62" y="-76.45" font-family="Times New Roman,serif" font-size="14.00">[Bool] ExecuteEveryFrame (default = False) </text>
<polygon fill="none" stroke="black" points="526.25,-48.5 526.25,-71 789.5,-71 789.5,-48.5 526.25,-48.5"/>
<text text-anchor="start" x="638.75" y="-55.7" font-family="Times New Roman,serif" font-weight="bold" font-size="14.00">Inputs</text>
<polygon fill="none" stroke="black" points="526.25,-26.75 526.25,-48.5 789.5,-48.5 789.5,-26.75 526.25,-26.75"/>
<text text-anchor="start" x="565.62" y="-32.2" font-family="Times New Roman,serif" font-size="14.00">[Bool] IsVisible (default = True) </text>
<polygon fill="none" stroke="black" points="526.25,-5 526.25,-26.75 789.5,-26.75 789.5,-5 526.25,-5"/>
<text text-anchor="start" x="529.25" y="-10.45" font-family="Times New Roman,serif" font-size="14.00">[String] ScreenName (default = AppMap_00) </text>
<polygon fill="none" stroke="black" points="525.25,-4 525.25,-138.75 790.5,-138.75 790.5,-4 525.25,-4"/>
</g>
<!-- 1923&#45;&gt;1941 -->
<g id="edge16" class="edge">
<title>1923&#45;&gt;1941</title>
<path fill="none" stroke="firebrick" stroke-width="2" d="M573.71,-194.21C583.31,-180.31 593.14,-166.08 602.54,-152.47"/>
<polygon fill="firebrick" stroke="firebrick" stroke-width="2" points="604.45,-155.87 607.26,-145.65 598.69,-151.89 604.45,-155.87"/>
<text text-anchor="middle" x="607.5" y="-163.2" font-family="Times New Roman,serif" font-size="14.00" fill="firebrick">False</text>
</g>
<!-- 1926 -->
<g id="node16" class="node">
<title>1926</title>
<polygon fill="none" stroke="black" stroke-width="2" points="592.5,-619.5 317.25,-619.5 317.25,-432.5 592.5,-432.5 592.5,-619.5"/>
<polygon fill="none" stroke="black" points="326.25,-592 326.25,-614.5 583.5,-614.5 583.5,-592 326.25,-592"/>
<text text-anchor="start" x="374.62" y="-599.2" font-family="Times New Roman,serif" font-weight="bold" font-size="14.00">SeqQueryIsEqualU32 (14)</text>
<polygon fill="none" stroke="black" points="326.25,-569.5 326.25,-592 583.5,-592 583.5,-569.5 326.25,-569.5"/>
<text text-anchor="start" x="423" y="-576.7" font-family="Times New Roman,serif" font-weight="bold" font-size="14.00">Properties</text>
<polygon fill="none" stroke="black" points="326.25,-547.75 326.25,-569.5 583.5,-569.5 583.5,-547.75 326.25,-547.75"/>
<text text-anchor="start" x="329.25" y="-553.2" font-family="Times New Roman,serif" font-size="14.00">[Bool] OutputOnlyOnEnter (default = False) </text>
<polygon fill="none" stroke="black" points="326.25,-525.25 326.25,-547.75 583.5,-547.75 583.5,-525.25 326.25,-525.25"/>
<text text-anchor="start" x="435.75" y="-532.45" font-family="Times New Roman,serif" font-weight="bold" font-size="14.00">Inputs</text>
<polygon fill="none" stroke="black" points="326.25,-503.5 326.25,-525.25 583.5,-525.25 583.5,-503.5 326.25,-503.5"/>
<text text-anchor="start" x="344.62" y="-508.95" font-family="Times New Roman,serif" font-size="14.00">[const u32*] ValueA (default = nullptr) </text>
<polygon fill="none" stroke="black" points="326.25,-481.75 326.25,-503.5 583.5,-503.5 583.5,-481.75 326.25,-481.75"/>
<text text-anchor="start" x="345" y="-487.2" font-family="Times New Roman,serif" font-size="14.00">[const u32*] ValueB (default = nullptr) </text>
<polygon fill="none" stroke="black" points="326.25,-459.25 326.25,-481.75 583.5,-481.75 583.5,-459.25 326.25,-459.25"/>
<text text-anchor="start" x="430.5" y="-466.45" font-family="Times New Roman,serif" font-weight="bold" font-size="14.00">Outputs</text>
<polygon fill="none" stroke="black" points="326.25,-437.5 326.25,-459.25 583.5,-459.25 583.5,-437.5 326.25,-437.5"/>
<text text-anchor="start" x="414" y="-442.95" font-family="Times New Roman,serif" font-size="14.00">[Bool] IsEqual</text>
<polygon fill="none" stroke="black" points="325.25,-436.5 325.25,-615.5 584.5,-615.5 584.5,-436.5 325.25,-436.5"/>
</g>
<!-- 1926&#45;&gt;1923 -->
<g id="edge17" class="edge">
<title>1926:1957&#45;&gt;1923:1954</title>
<path fill="none" stroke="#008000" stroke-dasharray="5,2" d="M454.88,-436C454.88,-411.56 652.8,-400.08 667.75,-380.75 692.38,-348.91 696.12,-228.18 667.75,-199.62 657.27,-189.08 551.12,-183.09 519.02,-192.19"/>
<polygon fill="#008000" stroke="#008000" points="517.28,-189.14 511.11,-197.75 521.31,-194.86 517.28,-189.14"/>
<text text-anchor="middle" x="616.5" y="-401.2" font-family="Times New Roman,serif" font-size="14.00" fill="#008000">Input</text>
</g>
<!-- 1929 -->
<g id="node17" class="node">
<title>1929</title>
<polygon fill="none" stroke="black" stroke-width="2" points="310.5,-880 5.25,-880 5.25,-671.25 310.5,-671.25 310.5,-880"/>
<polygon fill="none" stroke="black" points="14.25,-852.5 14.25,-875 301.5,-875 301.5,-852.5 14.25,-852.5"/>
<text text-anchor="start" x="51" y="-859.7" font-family="Times New Roman,serif" font-weight="bold" font-size="14.00">SeqQueryGetGameDataEnum (15)</text>
<polygon fill="none" stroke="black" points="14.25,-830 14.25,-852.5 301.5,-852.5 301.5,-830 14.25,-830"/>
<text text-anchor="start" x="126" y="-837.2" font-family="Times New Roman,serif" font-weight="bold" font-size="14.00">Properties</text>
<polygon fill="none" stroke="black" points="14.25,-808.25 14.25,-830 301.5,-830 301.5,-808.25 14.25,-808.25"/>
<text text-anchor="start" x="32.25" y="-813.7" font-family="Times New Roman,serif" font-size="14.00">[Bool] OutputOnlyOnEnter (default = False) </text>
<polygon fill="none" stroke="black" points="14.25,-785.75 14.25,-808.25 301.5,-808.25 301.5,-785.75 14.25,-785.75"/>
<text text-anchor="start" x="138.75" y="-792.95" font-family="Times New Roman,serif" font-weight="bold" font-size="14.00">Inputs</text>
<polygon fill="none" stroke="black" points="14.25,-764 14.25,-785.75 301.5,-785.75 301.5,-764 14.25,-764"/>
<text text-anchor="start" x="58.5" y="-769.45" font-family="Times New Roman,serif" font-size="14.00">[Int] GameDataIndex (default = &#45;1) </text>
<polygon fill="none" stroke="black" points="14.25,-742.25 14.25,-764 301.5,-764 301.5,-742.25 14.25,-742.25"/>
<text text-anchor="start" x="17.25" y="-747.7" font-family="Times New Roman,serif" font-size="14.00">[String] GameDataName (default = DisplayMode) </text>
<polygon fill="none" stroke="black" points="14.25,-720.5 14.25,-742.25 301.5,-742.25 301.5,-720.5 14.25,-720.5"/>
<text text-anchor="start" x="31.5" y="-725.95" font-family="Times New Roman,serif" font-size="14.00">[const void*] ParentStruct (default = nullptr) </text>
<polygon fill="none" stroke="black" points="14.25,-698 14.25,-720.5 301.5,-720.5 301.5,-698 14.25,-698"/>
<text text-anchor="start" x="133.5" y="-705.2" font-family="Times New Roman,serif" font-weight="bold" font-size="14.00">Outputs</text>
<polygon fill="none" stroke="black" points="14.25,-676.25 14.25,-698 301.5,-698 301.5,-676.25 14.25,-676.25"/>
<text text-anchor="start" x="52.5" y="-681.7" font-family="Times New Roman,serif" font-size="14.00">[const u32*] Value (default = nullptr) </text>
<polygon fill="none" stroke="black" points="13.25,-675.25 13.25,-876 302.5,-876 302.5,-675.25 13.25,-675.25"/>
</g>
<!-- 1929&#45;&gt;1926 -->
<g id="edge18" class="edge">
<title>1929:1961&#45;&gt;1926:1955</title>
<path fill="none" stroke="#008000" stroke-dasharray="5,2" d="M302.88,-686.62C337.32,-686.62 297.19,-549.7 315.31,-519.74"/>
<polygon fill="#008000" stroke="#008000" points="316.81,-522.93 323.58,-514.78 313.2,-516.93 316.81,-522.93"/>
<text text-anchor="middle" x="338.5" y="-639.95" font-family="Times New Roman,serif" font-size="14.00" fill="#008000">ValueA</text>
</g>
<!-- 1932 -->
<g id="node18" class="node">
<title>1932</title>
<polygon fill="none" stroke="black" stroke-width="2" points="315.75,-1128.88 0,-1128.88 0,-941.88 315.75,-941.88 315.75,-1128.88"/>
<polygon fill="none" stroke="black" points="9,-1101.38 9,-1123.88 306.75,-1123.88 306.75,-1101.38 9,-1101.38"/>
<text text-anchor="start" x="18.75" y="-1108.58" font-family="Times New Roman,serif" font-weight="bold" font-size="14.00">SeqQueryGetNonStructGameDataStruct (13)</text>
<polygon fill="none" stroke="black" points="9,-1078.88 9,-1101.38 306.75,-1101.38 306.75,-1078.88 9,-1078.88"/>
<text text-anchor="start" x="126" y="-1086.08" font-family="Times New Roman,serif" font-weight="bold" font-size="14.00">Properties</text>
<polygon fill="none" stroke="black" points="9,-1057.12 9,-1078.88 306.75,-1078.88 306.75,-1057.12 9,-1057.12"/>
<text text-anchor="start" x="32.25" y="-1062.58" font-family="Times New Roman,serif" font-size="14.00">[Bool] OutputOnlyOnEnter (default = False) </text>
<polygon fill="none" stroke="black" points="9,-1034.62 9,-1057.12 306.75,-1057.12 306.75,-1034.62 9,-1034.62"/>
<text text-anchor="start" x="138.75" y="-1041.83" font-family="Times New Roman,serif" font-weight="bold" font-size="14.00">Inputs</text>
<polygon fill="none" stroke="black" points="9,-1012.88 9,-1034.62 306.75,-1034.62 306.75,-1012.88 9,-1012.88"/>
<text text-anchor="start" x="58.5" y="-1018.33" font-family="Times New Roman,serif" font-size="14.00">[Int] GameDataIndex (default = &#45;1) </text>
<polygon fill="none" stroke="black" points="9,-991.12 9,-1012.88 306.75,-1012.88 306.75,-991.12 9,-991.12"/>
<text text-anchor="start" x="12" y="-996.58" font-family="Times New Roman,serif" font-size="14.00">[String] GameDataFullName (default = OptionData) </text>
<polygon fill="none" stroke="black" points="9,-968.62 9,-991.12 306.75,-991.12 306.75,-968.62 9,-968.62"/>
<text text-anchor="start" x="133.5" y="-975.83" font-family="Times New Roman,serif" font-weight="bold" font-size="14.00">Outputs</text>
<polygon fill="none" stroke="black" points="9,-946.88 9,-968.62 306.75,-968.62 306.75,-946.88 9,-946.88"/>
<text text-anchor="start" x="50.25" y="-952.33" font-family="Times New Roman,serif" font-size="14.00">[const void*] Value (default = nullptr) </text>
<polygon fill="none" stroke="black" points="8,-945.88 8,-1124.88 307.75,-1124.88 307.75,-945.88 8,-945.88"/>
</g>
<!-- 1932&#45;&gt;1929 -->
<g id="edge19" class="edge">
<title>1932:1964&#45;&gt;1929:1960</title>
<path fill="none" stroke="#008000" stroke-dasharray="5,2" d="M157.88,-945.38C157.88,-875.09 263.61,-938.96 301.88,-880 309.41,-868.39 316.62,-771.63 308.97,-740.93"/>
<polygon fill="#008000" stroke="#008000" points="312.11,-739.34 303.7,-732.89 306.26,-743.17 312.11,-739.34"/>
<text text-anchor="middle" x="317.38" y="-900.45" font-family="Times New Roman,serif" font-size="14.00" fill="#008000">ParentStruct</text>
</g>
<!-- 1935 -->
<g id="node19" class="node">
<title>1935</title>
<polygon fill="none" stroke="black" stroke-width="2" points="613.38,-869.12 328.38,-869.12 328.38,-682.12 613.38,-682.12 613.38,-869.12"/>
<polygon fill="none" stroke="black" points="337.38,-841.62 337.38,-864.12 604.38,-864.12 604.38,-841.62 337.38,-841.62"/>
<text text-anchor="start" x="347.12" y="-848.83" font-family="Times New Roman,serif" font-weight="bold" font-size="14.00">SeqQueryCalcStringHashMurMur3 (16)</text>
<polygon fill="none" stroke="black" points="337.38,-819.12 337.38,-841.62 604.38,-841.62 604.38,-819.12 337.38,-819.12"/>
<text text-anchor="start" x="439" y="-826.33" font-family="Times New Roman,serif" font-weight="bold" font-size="14.00">Properties</text>
<polygon fill="none" stroke="black" points="337.38,-797.38 337.38,-819.12 604.38,-819.12 604.38,-797.38 337.38,-797.38"/>
<text text-anchor="start" x="351.62" y="-802.83" font-family="Times New Roman,serif" font-size="14.00">[Bool] IsCalcHashOnInit (default = False) </text>
<polygon fill="none" stroke="black" points="337.38,-775.62 337.38,-797.38 604.38,-797.38 604.38,-775.62 337.38,-775.62"/>
<text text-anchor="start" x="345.25" y="-781.08" font-family="Times New Roman,serif" font-size="14.00">[Bool] OutputOnlyOnEnter (default = False) </text>
<polygon fill="none" stroke="black" points="337.38,-753.12 337.38,-775.62 604.38,-775.62 604.38,-753.12 337.38,-753.12"/>
<text text-anchor="start" x="451.75" y="-760.33" font-family="Times New Roman,serif" font-weight="bold" font-size="14.00">Inputs</text>
<polygon fill="none" stroke="black" points="337.38,-731.38 337.38,-753.12 604.38,-753.12 604.38,-731.38 337.38,-731.38"/>
<text text-anchor="start" x="386.5" y="-736.83" font-family="Times New Roman,serif" font-size="14.00">[String] String (default = Pro) </text>
<polygon fill="none" stroke="black" points="337.38,-708.88 337.38,-731.38 604.38,-731.38 604.38,-708.88 337.38,-708.88"/>
<text text-anchor="start" x="446.5" y="-716.08" font-family="Times New Roman,serif" font-weight="bold" font-size="14.00">Outputs</text>
<polygon fill="none" stroke="black" points="337.38,-687.12 337.38,-708.88 604.38,-708.88 604.38,-687.12 337.38,-687.12"/>
<text text-anchor="start" x="340.38" y="-692.58" font-family="Times New Roman,serif" font-size="14.00">[const u32*] MurMur3Hash (default = nullptr) </text>
<polygon fill="none" stroke="black" points="336.38,-686.12 336.38,-865.12 605.38,-865.12 605.38,-686.12 336.38,-686.12"/>
</g>
<!-- 1935&#45;&gt;1926 -->
<g id="edge20" class="edge">
<title>1935:1966&#45;&gt;1926:1956</title>
<path fill="none" stroke="#008000" stroke-dasharray="5,2" d="M470.88,-685.62C470.88,-627.44 554.73,-669.86 583.88,-619.5 595.92,-598.69 608.66,-520.91 594.49,-498.86"/>
<polygon fill="#008000" stroke="#008000" points="596.53,-496 586.17,-493.79 592.89,-501.98 596.53,-496"/>
<text text-anchor="middle" x="584.12" y="-639.95" font-family="Times New Roman,serif" font-size="14.00" fill="#008000">ValueB</text>
</g>
<!-- 1970 -->
<g id="node20" class="node">
<title>1970</title>
<ellipse fill="mediumpurple" stroke="mediumpurple" cx="947.88" cy="-1517" rx="31.39" ry="18"/>
<text text-anchor="start" x="932.88" y="-1512.95" font-family="Times New Roman,serif" font-weight="bold" font-size="14.00" fill="white">Root</text>
</g>
<!-- 1970&#45;&gt;1893 -->
<g id="edge21" class="edge">
<title>1970&#45;&gt;1893</title>
<path fill="none" stroke="black" d="M947.88,-1498.71C947.88,-1491.65 947.88,-1482.95 947.88,-1473.58"/>
<polygon fill="black" stroke="black" points="951.38,-1473.85 947.88,-1463.85 944.38,-1473.85 951.38,-1473.85"/>
</g>
</g>
</svg>
