<?xml version="1.0" encoding="UTF-8" standalone="no"?>
<!DOCTYPE svg PUBLIC "-//W3C//DTD SVG 1.1//EN"
 "http://www.w3.org/Graphics/SVG/1.1/DTD/svg11.dtd">
<!-- Generated by graphviz version 9.0.0 (20230911.1827)
 -->
<!-- Title: BeforePlusMenu.module Pages: 1 -->
<svg width="2268pt" height="935pt"
 viewBox="0.00 0.00 2267.50 935.26" xmlns="http://www.w3.org/2000/svg" xmlns:xlink="http://www.w3.org/1999/xlink">
<g id="graph0" class="graph" transform="scale(1 1) rotate(0) translate(4 931.26)">
<title>BeforePlusMenu.module</title>
<polygon fill="lightgray" stroke="none" points="-4,4 -4,-931.26 2263.5,-931.26 2263.5,4 -4,4"/>
<!-- 3033 -->
<g id="node1" class="node">
<title>3033</title>
<polygon fill="none" stroke="black" stroke-width="2" points="909.75,-633.38 711,-633.38 711,-534.88 909.75,-534.88 909.75,-633.38"/>
<polygon fill="none" stroke="black" points="720,-605.88 720,-628.38 900.75,-628.38 900.75,-605.88 720,-605.88"/>
<text text-anchor="start" x="726.75" y="-613.08" font-family="Times New Roman,serif" font-weight="bold" font-size="14.00">Element_Simultaneous (10)</text>
<polygon fill="none" stroke="black" points="720,-583.38 720,-605.88 900.75,-605.88 900.75,-583.38 720,-583.38"/>
<text text-anchor="start" x="778.5" y="-590.58" font-family="Times New Roman,serif" font-weight="bold" font-size="14.00">Properties</text>
<polygon fill="none" stroke="black" points="720,-561.63 720,-583.38 900.75,-583.38 900.75,-561.63 720,-561.63"/>
<text text-anchor="start" x="729.38" y="-567.08" font-family="Times New Roman,serif" font-size="14.00">[Int] EndPolicy (default = 0) </text>
<polygon fill="none" stroke="black" points="720,-539.88 720,-561.63 900.75,-561.63 900.75,-539.88 720,-539.88"/>
<text text-anchor="start" x="723" y="-545.33" font-family="Times New Roman,serif" font-size="14.00">[Int] ResultPolicy (default = 0) </text>
<polygon fill="none" stroke="black" points="719,-538.88 719,-629.38 901.75,-629.38 901.75,-538.88 719,-538.88"/>
</g>
<!-- 3036 -->
<g id="node2" class="node">
<title>3036</title>
<polygon fill="none" stroke="black" stroke-width="2" points="1148.25,-427.63 832.5,-427.63 832.5,-241.38 1148.25,-241.38 1148.25,-427.63"/>
<polygon fill="none" stroke="black" points="841.5,-400.13 841.5,-422.63 1139.25,-422.63 1139.25,-400.13 841.5,-400.13"/>
<text text-anchor="start" x="912" y="-407.33" font-family="Times New Roman,serif" font-weight="bold" font-size="14.00">Element_BoolSelector (6)</text>
<polygon fill="none" stroke="black" points="841.5,-377.63 841.5,-400.13 1139.25,-400.13 1139.25,-377.63 841.5,-377.63"/>
<text text-anchor="start" x="958.5" y="-384.83" font-family="Times New Roman,serif" font-weight="bold" font-size="14.00">Properties</text>
<polygon fill="none" stroke="black" points="841.5,-355.88 841.5,-377.63 1139.25,-377.63 1139.25,-355.88 841.5,-355.88"/>
<text text-anchor="start" x="893.25" y="-361.33" font-family="Times New Roman,serif" font-size="14.00">[Int] CalculateTiming (default = 0) </text>
<polygon fill="none" stroke="black" points="841.5,-334.13 841.5,-355.88 1139.25,-355.88 1139.25,-334.13 841.5,-334.13"/>
<text text-anchor="start" x="874.12" y="-339.58" font-family="Times New Roman,serif" font-size="14.00">[Bool] ChildFrameSync (default = False) </text>
<polygon fill="none" stroke="black" points="841.5,-312.38 841.5,-334.13 1139.25,-334.13 1139.25,-312.38 841.5,-312.38"/>
<text text-anchor="start" x="890.62" y="-317.83" font-family="Times New Roman,serif" font-size="14.00">[Bool] InputValue (default = False) </text>
<polygon fill="none" stroke="black" points="841.5,-290.63 841.5,-312.38 1139.25,-312.38 1139.25,-290.63 841.5,-290.63"/>
<text text-anchor="start" x="844.5" y="-296.08" font-family="Times New Roman,serif" font-size="14.00">[Bool] IsNoSelectWhenChildBusy (default = False) </text>
<polygon fill="none" stroke="black" points="841.5,-268.13 841.5,-290.63 1139.25,-290.63 1139.25,-268.13 841.5,-268.13"/>
<text text-anchor="start" x="971.25" y="-275.33" font-family="Times New Roman,serif" font-weight="bold" font-size="14.00">Inputs</text>
<polygon fill="none" stroke="black" points="841.5,-246.38 841.5,-268.13 1139.25,-268.13 1139.25,-246.38 841.5,-246.38"/>
<text text-anchor="start" x="906.38" y="-251.83" font-family="Times New Roman,serif" font-size="14.00">[Bool] Input (default = False) </text>
<polygon fill="none" stroke="black" points="840.5,-245.38 840.5,-423.63 1140.25,-423.63 1140.25,-245.38 840.5,-245.38"/>
</g>
<!-- 3033&#45;&gt;3036 -->
<g id="edge1" class="edge">
<title>3033&#45;&gt;3036</title>
<path fill="none" stroke="firebrick" stroke-width="2" d="M845.72,-534.51C865.98,-506.64 892.17,-470.6 916.7,-436.87"/>
<polygon fill="firebrick" stroke="firebrick" stroke-width="2" points="918.4,-440.48 921.45,-430.33 912.74,-436.36 918.4,-440.48"/>
</g>
<!-- 3051 -->
<g id="node3" class="node">
<title>3051</title>
<polygon fill="none" stroke="black" stroke-width="2" points="612.75,-383.76 414,-383.76 414,-285.26 612.75,-285.26 612.75,-383.76"/>
<polygon fill="none" stroke="black" points="423,-356.26 423,-378.76 603.75,-378.76 603.75,-356.26 423,-356.26"/>
<text text-anchor="start" x="429.75" y="-363.46" font-family="Times New Roman,serif" font-weight="bold" font-size="14.00">Element_Simultaneous (11)</text>
<polygon fill="none" stroke="black" points="423,-333.76 423,-356.26 603.75,-356.26 603.75,-333.76 423,-333.76"/>
<text text-anchor="start" x="481.5" y="-340.96" font-family="Times New Roman,serif" font-weight="bold" font-size="14.00">Properties</text>
<polygon fill="none" stroke="black" points="423,-312.01 423,-333.76 603.75,-333.76 603.75,-312.01 423,-312.01"/>
<text text-anchor="start" x="432.38" y="-317.46" font-family="Times New Roman,serif" font-size="14.00">[Int] EndPolicy (default = 0) </text>
<polygon fill="none" stroke="black" points="423,-290.26 423,-312.01 603.75,-312.01 603.75,-290.26 423,-290.26"/>
<text text-anchor="start" x="426" y="-295.71" font-family="Times New Roman,serif" font-size="14.00">[Int] ResultPolicy (default = 0) </text>
<polygon fill="none" stroke="black" points="422,-289.26 422,-379.76 604.75,-379.76 604.75,-289.26 422,-289.26"/>
</g>
<!-- 3033&#45;&gt;3051 -->
<g id="edge2" class="edge">
<title>3033&#45;&gt;3051</title>
<path fill="none" stroke="firebrick" stroke-width="2" d="M752.05,-534.51C702.79,-493.43 632.21,-434.59 580.58,-391.54"/>
<polygon fill="firebrick" stroke="firebrick" stroke-width="2" points="584.07,-389.89 574.14,-386.17 579.58,-395.27 584.07,-389.89"/>
</g>
<!-- 3060 -->
<g id="node4" class="node">
<title>3060</title>
<polygon fill="none" stroke="black" stroke-width="2" points="1926.75,-383.76 1728,-383.76 1728,-285.26 1926.75,-285.26 1926.75,-383.76"/>
<polygon fill="none" stroke="black" points="1737,-356.26 1737,-378.76 1917.75,-378.76 1917.75,-356.26 1737,-356.26"/>
<text text-anchor="start" x="1747.5" y="-363.46" font-family="Times New Roman,serif" font-weight="bold" font-size="14.00">Element_Simultaneous (3)</text>
<polygon fill="none" stroke="black" points="1737,-333.76 1737,-356.26 1917.75,-356.26 1917.75,-333.76 1737,-333.76"/>
<text text-anchor="start" x="1795.5" y="-340.96" font-family="Times New Roman,serif" font-weight="bold" font-size="14.00">Properties</text>
<polygon fill="none" stroke="black" points="1737,-312.01 1737,-333.76 1917.75,-333.76 1917.75,-312.01 1737,-312.01"/>
<text text-anchor="start" x="1746.38" y="-317.46" font-family="Times New Roman,serif" font-size="14.00">[Int] EndPolicy (default = 0) </text>
<polygon fill="none" stroke="black" points="1737,-290.26 1737,-312.01 1917.75,-312.01 1917.75,-290.26 1737,-290.26"/>
<text text-anchor="start" x="1740" y="-295.71" font-family="Times New Roman,serif" font-size="14.00">[Int] ResultPolicy (default = 0) </text>
<polygon fill="none" stroke="black" points="1736,-289.26 1736,-379.76 1918.75,-379.76 1918.75,-289.26 1736,-289.26"/>
</g>
<!-- 3033&#45;&gt;3060 -->
<g id="edge3" class="edge">
<title>3033&#45;&gt;3060</title>
<path fill="none" stroke="firebrick" stroke-width="2" d="M848.16,-534.58C867.13,-513.91 891.91,-491.82 919.38,-479.76 928.95,-475.55 1660.39,-431.1 1670.38,-428.01 1698.25,-419.37 1726.43,-404.94 1751.06,-390.02"/>
<polygon fill="firebrick" stroke="firebrick" stroke-width="2" points="1751.44,-393.9 1758.1,-385.66 1747.76,-387.95 1751.44,-393.9"/>
</g>
<!-- 3045 -->
<g id="node5" class="node">
<title>3045</title>
<polygon fill="none" stroke="black" stroke-width="2" points="983,-167.51 701.75,-167.51 701.75,-24.76 983,-24.76 983,-167.51"/>
<polygon fill="none" stroke="black" points="710.75,-140.01 710.75,-162.51 974,-162.51 974,-140.01 710.75,-140.01"/>
<text text-anchor="start" x="756.12" y="-147.21" font-family="Times New Roman,serif" font-weight="bold" font-size="14.00">SeqOneShotCloseScreen (0)</text>
<polygon fill="none" stroke="black" points="710.75,-117.51 710.75,-140.01 974,-140.01 974,-117.51 710.75,-117.51"/>
<text text-anchor="start" x="810.5" y="-124.71" font-family="Times New Roman,serif" font-weight="bold" font-size="14.00">Properties</text>
<polygon fill="none" stroke="black" points="710.75,-95.76 710.75,-117.51 974,-117.51 974,-95.76 710.75,-95.76"/>
<text text-anchor="start" x="717.12" y="-101.21" font-family="Times New Roman,serif" font-size="14.00">[Bool] ExecuteEveryFrame (default = False) </text>
<polygon fill="none" stroke="black" points="710.75,-73.26 710.75,-95.76 974,-95.76 974,-73.26 710.75,-73.26"/>
<text text-anchor="start" x="823.25" y="-80.46" font-family="Times New Roman,serif" font-weight="bold" font-size="14.00">Inputs</text>
<polygon fill="none" stroke="black" points="710.75,-51.51 710.75,-73.26 974,-73.26 974,-51.51 710.75,-51.51"/>
<text text-anchor="start" x="752.38" y="-56.96" font-family="Times New Roman,serif" font-size="14.00">[Bool] IsDirect (default = True) </text>
<polygon fill="none" stroke="black" points="710.75,-29.76 710.75,-51.51 974,-51.51 974,-29.76 710.75,-29.76"/>
<text text-anchor="start" x="713.75" y="-35.21" font-family="Times New Roman,serif" font-size="14.00">[String] ScreenName (default = AppMap_00) </text>
<polygon fill="none" stroke="black" points="709.75,-28.76 709.75,-163.51 975,-163.51 975,-28.76 709.75,-28.76"/>
</g>
<!-- 3036&#45;&gt;3045 -->
<g id="edge4" class="edge">
<title>3036&#45;&gt;3045</title>
<path fill="none" stroke="firebrick" stroke-width="2" d="M932.52,-241.1C919.36,-220.09 905.49,-197.93 892.67,-177.47"/>
<polygon fill="firebrick" stroke="firebrick" stroke-width="2" points="896.55,-177.06 888.28,-170.45 890.62,-180.78 896.55,-177.06"/>
<text text-anchor="middle" x="934.5" y="-209.71" font-family="Times New Roman,serif" font-size="14.00" fill="firebrick">True</text>
</g>
<!-- 3048 -->
<g id="node6" class="node">
<title>3048</title>
<polygon fill="none" stroke="black" stroke-width="2" points="1275.62,-134.51 1001.12,-134.51 1001.12,-57.76 1275.62,-57.76 1275.62,-134.51"/>
<polygon fill="none" stroke="black" points="1010.12,-107.01 1010.12,-129.51 1266.62,-129.51 1266.62,-107.01 1010.12,-107.01"/>
<text text-anchor="start" x="1078" y="-114.21" font-family="Times New Roman,serif" font-weight="bold" font-size="14.00">SeqOneShotEnd (7)</text>
<polygon fill="none" stroke="black" points="1010.12,-84.51 1010.12,-107.01 1266.62,-107.01 1266.62,-84.51 1010.12,-84.51"/>
<text text-anchor="start" x="1106.5" y="-91.71" font-family="Times New Roman,serif" font-weight="bold" font-size="14.00">Properties</text>
<polygon fill="none" stroke="black" points="1010.12,-62.76 1010.12,-84.51 1266.62,-84.51 1266.62,-62.76 1010.12,-62.76"/>
<text text-anchor="start" x="1013.12" y="-68.21" font-family="Times New Roman,serif" font-size="14.00">[Bool] ExecuteEveryFrame (default = False) </text>
<polygon fill="none" stroke="black" points="1009.12,-61.76 1009.12,-130.51 1267.62,-130.51 1267.62,-61.76 1009.12,-61.76"/>
</g>
<!-- 3036&#45;&gt;3048 -->
<g id="edge5" class="edge">
<title>3036&#45;&gt;3048</title>
<path fill="none" stroke="firebrick" stroke-width="2" d="M1048.23,-241.1C1068.97,-207.98 1091.49,-172.01 1108.84,-144.31"/>
<polygon fill="firebrick" stroke="firebrick" stroke-width="2" points="1110.8,-147.78 1113.14,-137.44 1104.86,-144.06 1110.8,-147.78"/>
<text text-anchor="middle" x="1083" y="-209.71" font-family="Times New Roman,serif" font-size="14.00" fill="firebrick">False</text>
</g>
<!-- 3054 -->
<g id="node9" class="node">
<title>3054</title>
<polygon fill="none" stroke="black" stroke-width="2" points="684,-156.63 342.75,-156.63 342.75,-35.63 684,-35.63 684,-156.63"/>
<polygon fill="none" stroke="black" points="351.75,-129.13 351.75,-151.63 675,-151.63 675,-129.13 351.75,-129.13"/>
<text text-anchor="start" x="354.75" y="-136.33" font-family="Times New Roman,serif" font-weight="bold" font-size="14.00">SeqOndeShotSetDoCommandForceCloseMode (12)</text>
<polygon fill="none" stroke="black" points="351.75,-106.63 351.75,-129.13 675,-129.13 675,-106.63 351.75,-106.63"/>
<text text-anchor="start" x="481.5" y="-113.83" font-family="Times New Roman,serif" font-weight="bold" font-size="14.00">Properties</text>
<polygon fill="none" stroke="black" points="351.75,-84.88 351.75,-106.63 675,-106.63 675,-84.88 351.75,-84.88"/>
<text text-anchor="start" x="388.12" y="-90.33" font-family="Times New Roman,serif" font-size="14.00">[Bool] ExecuteEveryFrame (default = False) </text>
<polygon fill="none" stroke="black" points="351.75,-62.38 351.75,-84.88 675,-84.88 675,-62.38 351.75,-62.38"/>
<text text-anchor="start" x="494.25" y="-69.58" font-family="Times New Roman,serif" font-weight="bold" font-size="14.00">Inputs</text>
<polygon fill="none" stroke="black" points="351.75,-40.63 351.75,-62.38 675,-62.38 675,-40.63 351.75,-40.63"/>
<text text-anchor="start" x="407.62" y="-46.08" font-family="Times New Roman,serif" font-size="14.00">[Bool] IsForceClose (default = True) </text>
<polygon fill="none" stroke="black" points="350.75,-39.63 350.75,-152.63 676,-152.63 676,-39.63 350.75,-39.63"/>
</g>
<!-- 3051&#45;&gt;3054 -->
<g id="edge8" class="edge">
<title>3051&#45;&gt;3054</title>
<path fill="none" stroke="firebrick" stroke-width="2" d="M513.38,-284.82C513.38,-251.26 513.38,-206.11 513.38,-168.5"/>
<polygon fill="firebrick" stroke="firebrick" stroke-width="2" points="516.88,-170.12 513.38,-160.12 509.88,-170.12 516.88,-170.12"/>
</g>
<!-- 3057 -->
<g id="node10" class="node">
<title>3057</title>
<polygon fill="none" stroke="black" stroke-width="2" points="324.75,-167.51 0,-167.51 0,-24.76 324.75,-24.76 324.75,-167.51"/>
<polygon fill="none" stroke="black" points="9,-140.01 9,-162.51 315.75,-162.51 315.75,-140.01 9,-140.01"/>
<text text-anchor="start" x="72.38" y="-147.21" font-family="Times New Roman,serif" font-weight="bold" font-size="14.00">SeqOneShotCloseScreen (13)</text>
<polygon fill="none" stroke="black" points="9,-117.51 9,-140.01 315.75,-140.01 315.75,-117.51 9,-117.51"/>
<text text-anchor="start" x="130.5" y="-124.71" font-family="Times New Roman,serif" font-weight="bold" font-size="14.00">Properties</text>
<polygon fill="none" stroke="black" points="9,-95.76 9,-117.51 315.75,-117.51 315.75,-95.76 9,-95.76"/>
<text text-anchor="start" x="37.12" y="-101.21" font-family="Times New Roman,serif" font-size="14.00">[Bool] ExecuteEveryFrame (default = False) </text>
<polygon fill="none" stroke="black" points="9,-73.26 9,-95.76 315.75,-95.76 315.75,-73.26 9,-73.26"/>
<text text-anchor="start" x="143.25" y="-80.46" font-family="Times New Roman,serif" font-weight="bold" font-size="14.00">Inputs</text>
<polygon fill="none" stroke="black" points="9,-51.51 9,-73.26 315.75,-73.26 315.75,-51.51 9,-51.51"/>
<text text-anchor="start" x="72.38" y="-56.96" font-family="Times New Roman,serif" font-size="14.00">[Bool] IsDirect (default = True) </text>
<polygon fill="none" stroke="black" points="9,-29.76 9,-51.51 315.75,-51.51 315.75,-29.76 9,-29.76"/>
<text text-anchor="start" x="12" y="-35.21" font-family="Times New Roman,serif" font-size="14.00">[String] ScreenName (default = EnvironmentInfo_00) </text>
<polygon fill="none" stroke="black" points="8,-28.76 8,-163.51 316.75,-163.51 316.75,-28.76 8,-28.76"/>
</g>
<!-- 3051&#45;&gt;3057 -->
<g id="edge9" class="edge">
<title>3051&#45;&gt;3057</title>
<path fill="none" stroke="firebrick" stroke-width="2" d="M441.07,-284.82C393.74,-252.94 330.88,-210.61 276.83,-174.21"/>
<polygon fill="firebrick" stroke="firebrick" stroke-width="2" points="280.31,-172.33 270.06,-169.65 276.4,-178.14 280.31,-172.33"/>
</g>
<!-- 3063 -->
<g id="node11" class="node">
<title>3063</title>
<polygon fill="none" stroke="black" stroke-width="2" points="2259.5,-114.13 2047.25,-114.13 2047.25,-78.13 2259.5,-78.13 2259.5,-114.13"/>
<polygon fill="none" stroke="black" points="2056.25,-84.88 2056.25,-107.38 2250.5,-107.38 2250.5,-84.88 2056.25,-84.88"/>
<text text-anchor="start" x="2059.25" y="-92.08" font-family="Times New Roman,serif" font-weight="bold" font-size="14.00">PlusMinusPauseOn.module (1)</text>
<polygon fill="none" stroke="black" points="2055.25,-83.88 2055.25,-108.38 2251.5,-108.38 2251.5,-83.88 2055.25,-83.88"/>
</g>
<!-- 3060&#45;&gt;3063 -->
<g id="edge10" class="edge">
<title>3060&#45;&gt;3063</title>
<path fill="none" stroke="firebrick" stroke-width="2" d="M1901.57,-284.78C1942.45,-257.44 1993.8,-222.27 2038.38,-189.26 2068.14,-167.21 2101.02,-140.64 2123.97,-121.71"/>
<polygon fill="firebrick" stroke="firebrick" stroke-width="2" points="2124.75,-125.6 2130.22,-116.53 2120.29,-120.21 2124.75,-125.6"/>
</g>
<!-- 3066 -->
<g id="node12" class="node">
<title>3066</title>
<polygon fill="none" stroke="black" stroke-width="2" points="2029.38,-167.51 1723.38,-167.51 1723.38,-24.76 2029.38,-24.76 2029.38,-167.51"/>
<polygon fill="none" stroke="black" points="1732.38,-140.01 1732.38,-162.51 2020.38,-162.51 2020.38,-140.01 1732.38,-140.01"/>
<text text-anchor="start" x="1793.88" y="-147.21" font-family="Times New Roman,serif" font-weight="bold" font-size="14.00">SeqOneShotStartSound (2)</text>
<polygon fill="none" stroke="black" points="1732.38,-117.51 1732.38,-140.01 2020.38,-140.01 2020.38,-117.51 1732.38,-117.51"/>
<text text-anchor="start" x="1844.5" y="-124.71" font-family="Times New Roman,serif" font-weight="bold" font-size="14.00">Properties</text>
<polygon fill="none" stroke="black" points="1732.38,-95.76 1732.38,-117.51 2020.38,-117.51 2020.38,-95.76 1732.38,-95.76"/>
<text text-anchor="start" x="1751.12" y="-101.21" font-family="Times New Roman,serif" font-size="14.00">[Bool] ExecuteEveryFrame (default = False) </text>
<polygon fill="none" stroke="black" points="1732.38,-73.26 1732.38,-95.76 2020.38,-95.76 2020.38,-73.26 1732.38,-73.26"/>
<text text-anchor="start" x="1857.25" y="-80.46" font-family="Times New Roman,serif" font-weight="bold" font-size="14.00">Inputs</text>
<polygon fill="none" stroke="black" points="1732.38,-51.51 1732.38,-73.26 2020.38,-73.26 2020.38,-51.51 1732.38,-51.51"/>
<text text-anchor="start" x="1746.25" y="-56.96" font-family="Times New Roman,serif" font-size="14.00">[String] ScreenName (default = GlobalSound) </text>
<polygon fill="none" stroke="black" points="1732.38,-29.76 1732.38,-51.51 2020.38,-51.51 2020.38,-29.76 1732.38,-29.76"/>
<text text-anchor="start" x="1735.38" y="-35.21" font-family="Times New Roman,serif" font-size="14.00">[String] SLinkKey (default = mc_PlusMenuOpen) </text>
<polygon fill="none" stroke="black" points="1731.38,-28.76 1731.38,-163.51 2021.38,-163.51 2021.38,-28.76 1731.38,-28.76"/>
</g>
<!-- 3060&#45;&gt;3066 -->
<g id="edge11" class="edge">
<title>3060&#45;&gt;3066</title>
<path fill="none" stroke="firebrick" stroke-width="2" d="M1837.47,-284.82C1843.79,-254.33 1852.09,-214.27 1859.4,-179"/>
<polygon fill="firebrick" stroke="firebrick" stroke-width="2" points="1862.52,-181.2 1861.13,-170.7 1855.67,-179.78 1862.52,-181.2"/>
</g>
<!-- 3069 -->
<g id="node13" class="node">
<title>3069</title>
<polygon fill="none" stroke="black" stroke-width="2" points="1705.25,-189.26 1293.5,-189.26 1293.5,-3.01 1705.25,-3.01 1705.25,-189.26"/>
<polygon fill="none" stroke="black" points="1302.5,-161.76 1302.5,-184.26 1696.25,-184.26 1696.25,-161.76 1302.5,-161.76"/>
<text text-anchor="start" x="1394" y="-168.96" font-family="Times New Roman,serif" font-weight="bold" font-size="14.00">SeqOneShotSetGameDataBool (9)</text>
<polygon fill="none" stroke="black" points="1302.5,-139.26 1302.5,-161.76 1696.25,-161.76 1696.25,-139.26 1302.5,-139.26"/>
<text text-anchor="start" x="1467.5" y="-146.46" font-family="Times New Roman,serif" font-weight="bold" font-size="14.00">Properties</text>
<polygon fill="none" stroke="black" points="1302.5,-117.51 1302.5,-139.26 1696.25,-139.26 1696.25,-117.51 1302.5,-117.51"/>
<text text-anchor="start" x="1374.12" y="-122.96" font-family="Times New Roman,serif" font-size="14.00">[Bool] ExecuteEveryFrame (default = False) </text>
<polygon fill="none" stroke="black" points="1302.5,-95.01 1302.5,-117.51 1696.25,-117.51 1696.25,-95.01 1302.5,-95.01"/>
<text text-anchor="start" x="1480.25" y="-102.21" font-family="Times New Roman,serif" font-weight="bold" font-size="14.00">Inputs</text>
<polygon fill="none" stroke="black" points="1302.5,-73.26 1302.5,-95.01 1696.25,-95.01 1696.25,-73.26 1302.5,-73.26"/>
<text text-anchor="start" x="1400" y="-78.71" font-family="Times New Roman,serif" font-size="14.00">[Int] GameDataIndex (default = &#45;1) </text>
<polygon fill="none" stroke="black" points="1302.5,-51.51 1302.5,-73.26 1696.25,-73.26 1696.25,-51.51 1302.5,-51.51"/>
<text text-anchor="start" x="1414.25" y="-56.96" font-family="Times New Roman,serif" font-size="14.00">[Bool] Value (default = False) </text>
<polygon fill="none" stroke="black" points="1302.5,-29.76 1302.5,-51.51 1696.25,-51.51 1696.25,-29.76 1302.5,-29.76"/>
<text text-anchor="start" x="1305.5" y="-35.21" font-family="Times New Roman,serif" font-size="14.00">[String] GameDataName (default = IsRequestedTransitionPlusMenu) </text>
<polygon fill="none" stroke="black" points="1302.5,-8.01 1302.5,-29.76 1696.25,-29.76 1696.25,-8.01 1302.5,-8.01"/>
<text text-anchor="start" x="1373" y="-13.46" font-family="Times New Roman,serif" font-size="14.00">[const void*] ParentStruct (default = nullptr) </text>
<polygon fill="none" stroke="black" points="1301.5,-7.01 1301.5,-185.26 1697.25,-185.26 1697.25,-7.01 1301.5,-7.01"/>
</g>
<!-- 3060&#45;&gt;3069 -->
<g id="edge12" class="edge">
<title>3060&#45;&gt;3069</title>
<path fill="none" stroke="firebrick" stroke-width="2" d="M1785.92,-284.77C1763.14,-259.75 1733.46,-229.87 1703.38,-207.26 1698.4,-203.52 1693.28,-199.83 1688.05,-196.19"/>
<polygon fill="firebrick" stroke="firebrick" stroke-width="2" points="1691.27,-194.15 1681.04,-191.42 1687.33,-199.94 1691.27,-194.15"/>
</g>
<!-- 3039 -->
<g id="node7" class="node">
<title>3039</title>
<polygon fill="none" stroke="black" stroke-width="2" points="1266.5,-688.51 928.25,-688.51 928.25,-479.76 1266.5,-479.76 1266.5,-688.51"/>
<polygon fill="none" stroke="black" points="937.25,-661.01 937.25,-683.51 1257.5,-683.51 1257.5,-661.01 937.25,-661.01"/>
<text text-anchor="start" x="998" y="-668.21" font-family="Times New Roman,serif" font-weight="bold" font-size="14.00">SeqQueryGetGameDataBool (5)</text>
<polygon fill="none" stroke="black" points="937.25,-638.51 937.25,-661.01 1257.5,-661.01 1257.5,-638.51 937.25,-638.51"/>
<text text-anchor="start" x="1065.5" y="-645.71" font-family="Times New Roman,serif" font-weight="bold" font-size="14.00">Properties</text>
<polygon fill="none" stroke="black" points="937.25,-616.76 937.25,-638.51 1257.5,-638.51 1257.5,-616.76 937.25,-616.76"/>
<text text-anchor="start" x="971.75" y="-622.21" font-family="Times New Roman,serif" font-size="14.00">[Bool] OutputOnlyOnEnter (default = False) </text>
<polygon fill="none" stroke="black" points="937.25,-594.26 937.25,-616.76 1257.5,-616.76 1257.5,-594.26 937.25,-594.26"/>
<text text-anchor="start" x="1078.25" y="-601.46" font-family="Times New Roman,serif" font-weight="bold" font-size="14.00">Inputs</text>
<polygon fill="none" stroke="black" points="937.25,-572.51 937.25,-594.26 1257.5,-594.26 1257.5,-572.51 937.25,-572.51"/>
<text text-anchor="start" x="998" y="-577.96" font-family="Times New Roman,serif" font-size="14.00">[Int] GameDataIndex (default = &#45;1) </text>
<polygon fill="none" stroke="black" points="937.25,-550.76 937.25,-572.51 1257.5,-572.51 1257.5,-550.76 937.25,-550.76"/>
<text text-anchor="start" x="940.25" y="-556.21" font-family="Times New Roman,serif" font-size="14.00">[String] GameDataName (default = Obj_DRStone_Get) </text>
<polygon fill="none" stroke="black" points="937.25,-529.01 937.25,-550.76 1257.5,-550.76 1257.5,-529.01 937.25,-529.01"/>
<text text-anchor="start" x="971" y="-534.46" font-family="Times New Roman,serif" font-size="14.00">[const void*] ParentStruct (default = nullptr) </text>
<polygon fill="none" stroke="black" points="937.25,-506.51 937.25,-529.01 1257.5,-529.01 1257.5,-506.51 937.25,-506.51"/>
<text text-anchor="start" x="1073" y="-513.71" font-family="Times New Roman,serif" font-weight="bold" font-size="14.00">Outputs</text>
<polygon fill="none" stroke="black" points="937.25,-484.76 937.25,-506.51 1257.5,-506.51 1257.5,-484.76 937.25,-484.76"/>
<text text-anchor="start" x="1061.75" y="-490.21" font-family="Times New Roman,serif" font-size="14.00">[Bool] Value</text>
<polygon fill="none" stroke="black" points="936.25,-483.76 936.25,-684.51 1258.5,-684.51 1258.5,-483.76 936.25,-483.76"/>
</g>
<!-- 3039&#45;&gt;3036 -->
<g id="edge6" class="edge">
<title>3039:3077&#45;&gt;3036:3073</title>
<path fill="none" stroke="#008000" stroke-dasharray="5,2" d="M1097.38,-484.13C1097.38,-450.34 1136.14,-459.18 1148.25,-427.63 1177.1,-352.48 1204.99,-303.61 1148.25,-246.51 1137.77,-235.96 1031.62,-229.97 999.52,-239.08"/>
<polygon fill="#008000" stroke="#008000" points="997.78,-236.02 991.61,-244.64 1001.81,-241.75 997.78,-236.02"/>
<text text-anchor="middle" x="1148" y="-448.46" font-family="Times New Roman,serif" font-size="14.00" fill="#008000">Input</text>
</g>
<!-- 3042 -->
<g id="node8" class="node">
<title>3042</title>
<polygon fill="none" stroke="black" stroke-width="2" points="1244.75,-927.26 950,-927.26 950,-740.26 1244.75,-740.26 1244.75,-927.26"/>
<polygon fill="none" stroke="black" points="959,-899.76 959,-922.26 1235.75,-922.26 1235.75,-899.76 959,-899.76"/>
<text text-anchor="start" x="962" y="-906.96" font-family="Times New Roman,serif" font-weight="bold" font-size="14.00">SeqQueryGetNonStructGameDataStruct (4)</text>
<polygon fill="none" stroke="black" points="959,-877.26 959,-899.76 1235.75,-899.76 1235.75,-877.26 959,-877.26"/>
<text text-anchor="start" x="1065.5" y="-884.46" font-family="Times New Roman,serif" font-weight="bold" font-size="14.00">Properties</text>
<polygon fill="none" stroke="black" points="959,-855.51 959,-877.26 1235.75,-877.26 1235.75,-855.51 959,-855.51"/>
<text text-anchor="start" x="971.75" y="-860.96" font-family="Times New Roman,serif" font-size="14.00">[Bool] OutputOnlyOnEnter (default = False) </text>
<polygon fill="none" stroke="black" points="959,-833.01 959,-855.51 1235.75,-855.51 1235.75,-833.01 959,-833.01"/>
<text text-anchor="start" x="1078.25" y="-840.21" font-family="Times New Roman,serif" font-weight="bold" font-size="14.00">Inputs</text>
<polygon fill="none" stroke="black" points="959,-811.26 959,-833.01 1235.75,-833.01 1235.75,-811.26 959,-811.26"/>
<text text-anchor="start" x="998" y="-816.71" font-family="Times New Roman,serif" font-size="14.00">[Int] GameDataIndex (default = &#45;1) </text>
<polygon fill="none" stroke="black" points="959,-789.51 959,-811.26 1235.75,-811.26 1235.75,-789.51 959,-789.51"/>
<text text-anchor="start" x="968.38" y="-794.96" font-family="Times New Roman,serif" font-size="14.00">[String] GameDataFullName (default = IsGet) </text>
<polygon fill="none" stroke="black" points="959,-767.01 959,-789.51 1235.75,-789.51 1235.75,-767.01 959,-767.01"/>
<text text-anchor="start" x="1073" y="-774.21" font-family="Times New Roman,serif" font-weight="bold" font-size="14.00">Outputs</text>
<polygon fill="none" stroke="black" points="959,-745.26 959,-767.01 1235.75,-767.01 1235.75,-745.26 959,-745.26"/>
<text text-anchor="start" x="989.75" y="-750.71" font-family="Times New Roman,serif" font-size="14.00">[const void*] Value (default = nullptr) </text>
<polygon fill="none" stroke="black" points="958,-744.26 958,-923.26 1236.75,-923.26 1236.75,-744.26 958,-744.26"/>
</g>
<!-- 3042&#45;&gt;3039 -->
<g id="edge7" class="edge">
<title>3042:3080&#45;&gt;3039:3076</title>
<path fill="none" stroke="#008000" stroke-dasharray="5,2" d="M1097.38,-743.76C1097.38,-668.53 1213.51,-749.63 1257.38,-688.51 1293.42,-638.28 1320.72,-551.82 1269.65,-541.21"/>
<polygon fill="#008000" stroke="#008000" points="1270.17,-537.74 1259.88,-540.28 1269.5,-544.71 1270.17,-537.74"/>
<text text-anchor="middle" x="1268.88" y="-708.96" font-family="Times New Roman,serif" font-size="14.00" fill="#008000">ParentStruct</text>
</g>
<!-- 3072 -->
<g id="node14" class="node">
<title>3072</title>
<polygon fill="none" stroke="black" stroke-width="2" points="1661,-428.01 1337.75,-428.01 1337.75,-241.01 1661,-241.01 1661,-428.01"/>
<polygon fill="none" stroke="black" points="1346.75,-400.51 1346.75,-423.01 1652,-423.01 1652,-400.51 1346.75,-400.51"/>
<text text-anchor="start" x="1364" y="-407.71" font-family="Times New Roman,serif" font-weight="bold" font-size="14.00">SeqQueryGetNonStructGameDataStruct (8)</text>
<polygon fill="none" stroke="black" points="1346.75,-378.01 1346.75,-400.51 1652,-400.51 1652,-378.01 1346.75,-378.01"/>
<text text-anchor="start" x="1467.5" y="-385.21" font-family="Times New Roman,serif" font-weight="bold" font-size="14.00">Properties</text>
<polygon fill="none" stroke="black" points="1346.75,-356.26 1346.75,-378.01 1652,-378.01 1652,-356.26 1346.75,-356.26"/>
<text text-anchor="start" x="1373.75" y="-361.71" font-family="Times New Roman,serif" font-size="14.00">[Bool] OutputOnlyOnEnter (default = False) </text>
<polygon fill="none" stroke="black" points="1346.75,-333.76 1346.75,-356.26 1652,-356.26 1652,-333.76 1346.75,-333.76"/>
<text text-anchor="start" x="1480.25" y="-340.96" font-family="Times New Roman,serif" font-weight="bold" font-size="14.00">Inputs</text>
<polygon fill="none" stroke="black" points="1346.75,-312.01 1346.75,-333.76 1652,-333.76 1652,-312.01 1346.75,-312.01"/>
<text text-anchor="start" x="1400" y="-317.46" font-family="Times New Roman,serif" font-size="14.00">[Int] GameDataIndex (default = &#45;1) </text>
<polygon fill="none" stroke="black" points="1346.75,-290.26 1346.75,-312.01 1652,-312.01 1652,-290.26 1346.75,-290.26"/>
<text text-anchor="start" x="1349.75" y="-295.71" font-family="Times New Roman,serif" font-size="14.00">[String] GameDataFullName (default = DebugParam) </text>
<polygon fill="none" stroke="black" points="1346.75,-267.76 1346.75,-290.26 1652,-290.26 1652,-267.76 1346.75,-267.76"/>
<text text-anchor="start" x="1475" y="-274.96" font-family="Times New Roman,serif" font-weight="bold" font-size="14.00">Outputs</text>
<polygon fill="none" stroke="black" points="1346.75,-246.01 1346.75,-267.76 1652,-267.76 1652,-246.01 1346.75,-246.01"/>
<text text-anchor="start" x="1391.75" y="-251.46" font-family="Times New Roman,serif" font-size="14.00">[const void*] Value (default = nullptr) </text>
<polygon fill="none" stroke="black" points="1345.75,-245.01 1345.75,-424.01 1653,-424.01 1653,-245.01 1345.75,-245.01"/>
</g>
<!-- 3072&#45;&gt;3069 -->
<g id="edge13" class="edge">
<title>3072:3094&#45;&gt;3069:3091</title>
<path fill="none" stroke="#008000" stroke-dasharray="5,2" d="M1499.38,-244.51C1499.38,-182.27 1574.21,-223.2 1634.38,-207.26 1665.79,-198.94 1685.3,-214.91 1705.25,-189.26 1717.61,-173.37 1719.45,-22.4 1705.25,-8.13 1698.32,-1.17 1551.26,3.01 1510.03,-3.21"/>
<polygon fill="#008000" stroke="#008000" points="1508.97,0.13 1500.8,-6.61 1511.39,-6.44 1508.97,0.13"/>
<text text-anchor="middle" x="1668.88" y="-209.71" font-family="Times New Roman,serif" font-size="14.00" fill="#008000">ParentStruct</text>
</g>
<!-- 3095 -->
<g id="node15" class="node">
<title>3095</title>
<ellipse fill="mediumpurple" stroke="mediumpurple" cx="810.38" cy="-833.76" rx="31.39" ry="18"/>
<text text-anchor="start" x="795.38" y="-829.71" font-family="Times New Roman,serif" font-weight="bold" font-size="14.00" fill="white">Root</text>
</g>
<!-- 3095&#45;&gt;3033 -->
<g id="edge14" class="edge">
<title>3095&#45;&gt;3033</title>
<path fill="none" stroke="black" d="M810.38,-815.35C810.38,-780.43 810.38,-700.44 810.38,-644.61"/>
<polygon fill="black" stroke="black" points="813.88,-644.95 810.38,-634.95 806.88,-644.95 813.88,-644.95"/>
</g>
</g>
</svg>
