<?xml version="1.0" encoding="UTF-8" standalone="no"?>
<!DOCTYPE svg PUBLIC "-//W3C//DTD SVG 1.1//EN"
 "http://www.w3.org/Graphics/SVG/1.1/DTD/svg11.dtd">
<!-- Generated by graphviz version 9.0.0 (20230911.1827)
 -->
<!-- Title: BeforeGameOver.module Pages: 1 -->
<svg width="2041pt" height="954pt"
 viewBox="0.00 0.00 2040.88 954.00" xmlns="http://www.w3.org/2000/svg" xmlns:xlink="http://www.w3.org/1999/xlink">
<g id="graph0" class="graph" transform="scale(1 1) rotate(0) translate(4 950)">
<title>BeforeGameOver.module</title>
<polygon fill="lightgray" stroke="none" points="-4,4 -4,-950 2036.88,-950 2036.88,4 -4,4"/>
<!-- 2505 -->
<g id="node1" class="node">
<title>2505</title>
<polygon fill="none" stroke="black" stroke-width="2" points="857.62,-652.12 658.88,-652.12 658.88,-553.62 857.62,-553.62 857.62,-652.12"/>
<polygon fill="none" stroke="black" points="667.88,-624.62 667.88,-647.12 848.62,-647.12 848.62,-624.62 667.88,-624.62"/>
<text text-anchor="start" x="678.38" y="-631.83" font-family="Times New Roman,serif" font-weight="bold" font-size="14.00">Element_Simultaneous (0)</text>
<polygon fill="none" stroke="black" points="667.88,-602.12 667.88,-624.62 848.62,-624.62 848.62,-602.12 667.88,-602.12"/>
<text text-anchor="start" x="726.38" y="-609.33" font-family="Times New Roman,serif" font-weight="bold" font-size="14.00">Properties</text>
<polygon fill="none" stroke="black" points="667.88,-580.38 667.88,-602.12 848.62,-602.12 848.62,-580.38 667.88,-580.38"/>
<text text-anchor="start" x="677.25" y="-585.83" font-family="Times New Roman,serif" font-size="14.00">[Int] EndPolicy (default = 0) </text>
<polygon fill="none" stroke="black" points="667.88,-558.62 667.88,-580.38 848.62,-580.38 848.62,-558.62 667.88,-558.62"/>
<text text-anchor="start" x="670.88" y="-564.08" font-family="Times New Roman,serif" font-size="14.00">[Int] ResultPolicy (default = 0) </text>
<polygon fill="none" stroke="black" points="666.88,-557.62 666.88,-648.12 849.62,-648.12 849.62,-557.62 666.88,-557.62"/>
</g>
<!-- 2508 -->
<g id="node2" class="node">
<title>2508</title>
<polygon fill="none" stroke="black" stroke-width="2" points="1147.62,-391.62 948.88,-391.62 948.88,-293.12 1147.62,-293.12 1147.62,-391.62"/>
<polygon fill="none" stroke="black" points="957.88,-364.12 957.88,-386.62 1138.62,-386.62 1138.62,-364.12 957.88,-364.12"/>
<text text-anchor="start" x="964.62" y="-371.32" font-family="Times New Roman,serif" font-weight="bold" font-size="14.00">Element_Simultaneous (11)</text>
<polygon fill="none" stroke="black" points="957.88,-341.62 957.88,-364.12 1138.62,-364.12 1138.62,-341.62 957.88,-341.62"/>
<text text-anchor="start" x="1016.38" y="-348.82" font-family="Times New Roman,serif" font-weight="bold" font-size="14.00">Properties</text>
<polygon fill="none" stroke="black" points="957.88,-319.88 957.88,-341.62 1138.62,-341.62 1138.62,-319.88 957.88,-319.88"/>
<text text-anchor="start" x="967.25" y="-325.32" font-family="Times New Roman,serif" font-size="14.00">[Int] EndPolicy (default = 0) </text>
<polygon fill="none" stroke="black" points="957.88,-298.12 957.88,-319.88 1138.62,-319.88 1138.62,-298.12 957.88,-298.12"/>
<text text-anchor="start" x="960.88" y="-303.57" font-family="Times New Roman,serif" font-size="14.00">[Int] ResultPolicy (default = 0) </text>
<polygon fill="none" stroke="black" points="956.88,-297.12 956.88,-387.62 1139.62,-387.62 1139.62,-297.12 956.88,-297.12"/>
</g>
<!-- 2505&#45;&gt;2508 -->
<g id="edge1" class="edge">
<title>2505&#45;&gt;2508</title>
<path fill="none" stroke="firebrick" stroke-width="2" d="M816.77,-553.46C852.82,-523.28 899.74,-483.35 940.25,-446.75 956.73,-431.86 974.27,-415.37 990.3,-400.02"/>
<polygon fill="firebrick" stroke="firebrick" stroke-width="2" points="991.57,-403.66 996.36,-394.21 986.72,-398.61 991.57,-403.66"/>
</g>
<!-- 2520 -->
<g id="node3" class="node">
<title>2520</title>
<polygon fill="none" stroke="black" stroke-width="2" points="1436.62,-391.62 1237.88,-391.62 1237.88,-293.12 1436.62,-293.12 1436.62,-391.62"/>
<polygon fill="none" stroke="black" points="1246.88,-364.12 1246.88,-386.62 1427.62,-386.62 1427.62,-364.12 1246.88,-364.12"/>
<text text-anchor="start" x="1257.38" y="-371.32" font-family="Times New Roman,serif" font-weight="bold" font-size="14.00">Element_Simultaneous (1)</text>
<polygon fill="none" stroke="black" points="1246.88,-341.62 1246.88,-364.12 1427.62,-364.12 1427.62,-341.62 1246.88,-341.62"/>
<text text-anchor="start" x="1305.38" y="-348.82" font-family="Times New Roman,serif" font-weight="bold" font-size="14.00">Properties</text>
<polygon fill="none" stroke="black" points="1246.88,-319.88 1246.88,-341.62 1427.62,-341.62 1427.62,-319.88 1246.88,-319.88"/>
<text text-anchor="start" x="1256.25" y="-325.32" font-family="Times New Roman,serif" font-size="14.00">[Int] EndPolicy (default = 0) </text>
<polygon fill="none" stroke="black" points="1246.88,-298.12 1246.88,-319.88 1427.62,-319.88 1427.62,-298.12 1246.88,-298.12"/>
<text text-anchor="start" x="1249.88" y="-303.57" font-family="Times New Roman,serif" font-size="14.00">[Int] ResultPolicy (default = 0) </text>
<polygon fill="none" stroke="black" points="1245.88,-297.12 1245.88,-387.62 1428.62,-387.62 1428.62,-297.12 1245.88,-297.12"/>
</g>
<!-- 2505&#45;&gt;2520 -->
<g id="edge2" class="edge">
<title>2505&#45;&gt;2520</title>
<path fill="none" stroke="firebrick" stroke-width="2" d="M858.1,-567.58C939.65,-538.48 1057.2,-494.02 1156.25,-446.75 1186.91,-432.12 1219.43,-414.31 1248.32,-397.63"/>
<polygon fill="firebrick" stroke="firebrick" stroke-width="2" points="1248.46,-401.6 1255.35,-393.54 1244.94,-395.54 1248.46,-401.6"/>
</g>
<!-- 2541 -->
<g id="node4" class="node">
<title>2541</title>
<polygon fill="none" stroke="black" stroke-width="2" points="274.5,-380.75 0,-380.75 0,-304 274.5,-304 274.5,-380.75"/>
<polygon fill="none" stroke="black" points="9,-353.25 9,-375.75 265.5,-375.75 265.5,-353.25 9,-353.25"/>
<text text-anchor="start" x="28.88" y="-360.45" font-family="Times New Roman,serif" font-weight="bold" font-size="14.00">SeqOneShotSetFootprintIsDead (8)</text>
<polygon fill="none" stroke="black" points="9,-330.75 9,-353.25 265.5,-353.25 265.5,-330.75 9,-330.75"/>
<text text-anchor="start" x="105.38" y="-337.95" font-family="Times New Roman,serif" font-weight="bold" font-size="14.00">Properties</text>
<polygon fill="none" stroke="black" points="9,-309 9,-330.75 265.5,-330.75 265.5,-309 9,-309"/>
<text text-anchor="start" x="12" y="-314.45" font-family="Times New Roman,serif" font-size="14.00">[Bool] ExecuteEveryFrame (default = False) </text>
<polygon fill="none" stroke="black" points="8,-308 8,-376.75 266.5,-376.75 266.5,-308 8,-308"/>
</g>
<!-- 2505&#45;&gt;2541 -->
<g id="edge3" class="edge">
<title>2505&#45;&gt;2541</title>
<path fill="none" stroke="firebrick" stroke-width="2" d="M658.68,-578.51C560.37,-553.34 407.33,-508.43 284.25,-446.75 252.06,-430.62 219.03,-408.03 192.44,-388.07"/>
<polygon fill="firebrick" stroke="firebrick" stroke-width="2" points="195.81,-386.24 185.73,-382.97 191.58,-391.81 195.81,-386.24"/>
</g>
<!-- 2544 -->
<g id="node5" class="node">
<title>2544</title>
<polygon fill="none" stroke="black" stroke-width="2" points="567.5,-413.75 293,-413.75 293,-271 567.5,-271 567.5,-413.75"/>
<polygon fill="none" stroke="black" points="302,-386.25 302,-408.75 558.5,-408.75 558.5,-386.25 302,-386.25"/>
<text text-anchor="start" x="308" y="-393.45" font-family="Times New Roman,serif" font-weight="bold" font-size="14.00">SeqOneShotSetDisplayHeartGauge (13)</text>
<polygon fill="none" stroke="black" points="302,-363.75 302,-386.25 558.5,-386.25 558.5,-363.75 302,-363.75"/>
<text text-anchor="start" x="398.38" y="-370.95" font-family="Times New Roman,serif" font-weight="bold" font-size="14.00">Properties</text>
<polygon fill="none" stroke="black" points="302,-342 302,-363.75 558.5,-363.75 558.5,-342 302,-342"/>
<text text-anchor="start" x="305" y="-347.45" font-family="Times New Roman,serif" font-size="14.00">[Bool] ExecuteEveryFrame (default = False) </text>
<polygon fill="none" stroke="black" points="302,-319.5 302,-342 558.5,-342 558.5,-319.5 302,-319.5"/>
<text text-anchor="start" x="411.12" y="-326.7" font-family="Times New Roman,serif" font-weight="bold" font-size="14.00">Inputs</text>
<polygon fill="none" stroke="black" points="302,-297.75 302,-319.5 558.5,-319.5 558.5,-297.75 302,-297.75"/>
<text text-anchor="start" x="336.12" y="-303.2" font-family="Times New Roman,serif" font-size="14.00">[Bool] IsDisplay (default = True) </text>
<polygon fill="none" stroke="black" points="302,-276 302,-297.75 558.5,-297.75 558.5,-276 302,-276"/>
<text text-anchor="start" x="330.12" y="-281.45" font-family="Times New Roman,serif" font-size="14.00">[Bool] IsForDemo (default = True) </text>
<polygon fill="none" stroke="black" points="301,-275 301,-409.75 559.5,-409.75 559.5,-275 301,-275"/>
</g>
<!-- 2505&#45;&gt;2544 -->
<g id="edge4" class="edge">
<title>2505&#45;&gt;2544</title>
<path fill="none" stroke="firebrick" stroke-width="2" d="M696.56,-553.25C649.44,-516.12 583.58,-464.22 529.14,-421.31"/>
<polygon fill="firebrick" stroke="firebrick" stroke-width="2" points="532.56,-419.55 522.54,-416.11 528.23,-425.05 532.56,-419.55"/>
</g>
<!-- 2547 -->
<g id="node6" class="node">
<title>2547</title>
<polygon fill="none" stroke="black" stroke-width="2" points="931.12,-424.62 585.38,-424.62 585.38,-260.12 931.12,-260.12 931.12,-424.62"/>
<polygon fill="none" stroke="black" points="594.38,-397.12 594.38,-419.62 922.12,-419.62 922.12,-397.12 594.38,-397.12"/>
<text text-anchor="start" x="617.62" y="-404.32" font-family="Times New Roman,serif" font-weight="bold" font-size="14.00">SeqOneShotSetNonStructGameDataBool (14)</text>
<polygon fill="none" stroke="black" points="594.38,-374.62 594.38,-397.12 922.12,-397.12 922.12,-374.62 594.38,-374.62"/>
<text text-anchor="start" x="726.38" y="-381.82" font-family="Times New Roman,serif" font-weight="bold" font-size="14.00">Properties</text>
<polygon fill="none" stroke="black" points="594.38,-352.88 594.38,-374.62 922.12,-374.62 922.12,-352.88 594.38,-352.88"/>
<text text-anchor="start" x="633" y="-358.32" font-family="Times New Roman,serif" font-size="14.00">[Bool] ExecuteEveryFrame (default = False) </text>
<polygon fill="none" stroke="black" points="594.38,-330.38 594.38,-352.88 922.12,-352.88 922.12,-330.38 594.38,-330.38"/>
<text text-anchor="start" x="739.12" y="-337.57" font-family="Times New Roman,serif" font-weight="bold" font-size="14.00">Inputs</text>
<polygon fill="none" stroke="black" points="594.38,-308.62 594.38,-330.38 922.12,-330.38 922.12,-308.62 594.38,-308.62"/>
<text text-anchor="start" x="658.88" y="-314.07" font-family="Times New Roman,serif" font-size="14.00">[Int] GameDataIndex (default = &#45;1) </text>
<polygon fill="none" stroke="black" points="594.38,-286.88 594.38,-308.62 922.12,-308.62 922.12,-286.88 594.38,-286.88"/>
<text text-anchor="start" x="673.12" y="-292.32" font-family="Times New Roman,serif" font-size="14.00">[Bool] Value (default = False) </text>
<polygon fill="none" stroke="black" points="594.38,-265.12 594.38,-286.88 922.12,-286.88 922.12,-265.12 594.38,-265.12"/>
<text text-anchor="start" x="597.38" y="-270.57" font-family="Times New Roman,serif" font-size="14.00">[String] GameDataFullName (default = IsGameOverTrig) </text>
<polygon fill="none" stroke="black" points="593.38,-264.12 593.38,-420.62 923.12,-420.62 923.12,-264.12 593.38,-264.12"/>
</g>
<!-- 2505&#45;&gt;2547 -->
<g id="edge5" class="edge">
<title>2505&#45;&gt;2547</title>
<path fill="none" stroke="firebrick" stroke-width="2" d="M758.25,-553.25C758.25,-520.37 758.25,-475.9 758.25,-436.35"/>
<polygon fill="firebrick" stroke="firebrick" stroke-width="2" points="761.75,-438.1 758.25,-428.1 754.75,-438.1 761.75,-438.1"/>
</g>
<!-- 2511 -->
<g id="node7" class="node">
<title>2511</title>
<polygon fill="none" stroke="black" stroke-width="2" points="689.25,-164.5 395.25,-164.5 395.25,-21.75 689.25,-21.75 689.25,-164.5"/>
<polygon fill="none" stroke="black" points="404.25,-137 404.25,-159.5 680.25,-159.5 680.25,-137 404.25,-137"/>
<text text-anchor="start" x="456" y="-144.2" font-family="Times New Roman,serif" font-weight="bold" font-size="14.00">SeqOneShotCloseScreen (9)</text>
<polygon fill="none" stroke="black" points="404.25,-114.5 404.25,-137 680.25,-137 680.25,-114.5 404.25,-114.5"/>
<text text-anchor="start" x="510.38" y="-121.7" font-family="Times New Roman,serif" font-weight="bold" font-size="14.00">Properties</text>
<polygon fill="none" stroke="black" points="404.25,-92.75 404.25,-114.5 680.25,-114.5 680.25,-92.75 404.25,-92.75"/>
<text text-anchor="start" x="417" y="-98.2" font-family="Times New Roman,serif" font-size="14.00">[Bool] ExecuteEveryFrame (default = False) </text>
<polygon fill="none" stroke="black" points="404.25,-70.25 404.25,-92.75 680.25,-92.75 680.25,-70.25 404.25,-70.25"/>
<text text-anchor="start" x="523.12" y="-77.45" font-family="Times New Roman,serif" font-weight="bold" font-size="14.00">Inputs</text>
<polygon fill="none" stroke="black" points="404.25,-48.5 404.25,-70.25 680.25,-70.25 680.25,-48.5 404.25,-48.5"/>
<text text-anchor="start" x="452.25" y="-53.95" font-family="Times New Roman,serif" font-size="14.00">[Bool] IsDirect (default = True) </text>
<polygon fill="none" stroke="black" points="404.25,-26.75 404.25,-48.5 680.25,-48.5 680.25,-26.75 404.25,-26.75"/>
<text text-anchor="start" x="407.25" y="-32.2" font-family="Times New Roman,serif" font-size="14.00">[String] ScreenName (default = InstantTips_00) </text>
<polygon fill="none" stroke="black" points="403.25,-25.75 403.25,-160.5 681.25,-160.5 681.25,-25.75 403.25,-25.75"/>
</g>
<!-- 2508&#45;&gt;2511 -->
<g id="edge6" class="edge">
<title>2508&#45;&gt;2511</title>
<path fill="none" stroke="firebrick" stroke-width="2" d="M1008.31,-292.7C989.61,-272.9 965.82,-251.55 940.25,-238 843.05,-186.52 800.71,-226.23 698.25,-186.25 686.23,-181.56 674.06,-176.01 662.09,-169.99"/>
<polygon fill="firebrick" stroke="firebrick" stroke-width="2" points="665.28,-167.7 654.79,-166.22 662.07,-173.92 665.28,-167.7"/>
</g>
<!-- 2514 -->
<g id="node8" class="node">
<title>2514</title>
<polygon fill="none" stroke="black" stroke-width="2" points="1049.62,-164.5 706.88,-164.5 706.88,-21.75 1049.62,-21.75 1049.62,-164.5"/>
<polygon fill="none" stroke="black" points="715.88,-137 715.88,-159.5 1040.62,-159.5 1040.62,-137 715.88,-137"/>
<text text-anchor="start" x="788.25" y="-144.2" font-family="Times New Roman,serif" font-weight="bold" font-size="14.00">SeqOneShotCloseScreen (10)</text>
<polygon fill="none" stroke="black" points="715.88,-114.5 715.88,-137 1040.62,-137 1040.62,-114.5 715.88,-114.5"/>
<text text-anchor="start" x="846.38" y="-121.7" font-family="Times New Roman,serif" font-weight="bold" font-size="14.00">Properties</text>
<polygon fill="none" stroke="black" points="715.88,-92.75 715.88,-114.5 1040.62,-114.5 1040.62,-92.75 715.88,-92.75"/>
<text text-anchor="start" x="753" y="-98.2" font-family="Times New Roman,serif" font-size="14.00">[Bool] ExecuteEveryFrame (default = False) </text>
<polygon fill="none" stroke="black" points="715.88,-70.25 715.88,-92.75 1040.62,-92.75 1040.62,-70.25 715.88,-70.25"/>
<text text-anchor="start" x="859.12" y="-77.45" font-family="Times New Roman,serif" font-weight="bold" font-size="14.00">Inputs</text>
<polygon fill="none" stroke="black" points="715.88,-48.5 715.88,-70.25 1040.62,-70.25 1040.62,-48.5 715.88,-48.5"/>
<text text-anchor="start" x="788.25" y="-53.95" font-family="Times New Roman,serif" font-size="14.00">[Bool] IsDirect (default = True) </text>
<polygon fill="none" stroke="black" points="715.88,-26.75 715.88,-48.5 1040.62,-48.5 1040.62,-26.75 715.88,-26.75"/>
<text text-anchor="start" x="718.88" y="-32.2" font-family="Times New Roman,serif" font-size="14.00">[String] ScreenName (default = InstantTipsWithPict_00) </text>
<polygon fill="none" stroke="black" points="714.88,-25.75 714.88,-160.5 1041.62,-160.5 1041.62,-25.75 714.88,-25.75"/>
</g>
<!-- 2508&#45;&gt;2514 -->
<g id="edge7" class="edge">
<title>2508&#45;&gt;2514</title>
<path fill="none" stroke="firebrick" stroke-width="2" d="M1014.87,-292.82C991.59,-258.97 960.01,-213.03 933.07,-173.85"/>
<polygon fill="firebrick" stroke="firebrick" stroke-width="2" points="936.95,-173.32 928.4,-167.07 931.18,-177.29 936.95,-173.32"/>
</g>
<!-- 2517 -->
<g id="node9" class="node">
<title>2517</title>
<polygon fill="none" stroke="black" stroke-width="2" points="1342.5,-131.5 1068,-131.5 1068,-54.75 1342.5,-54.75 1342.5,-131.5"/>
<polygon fill="none" stroke="black" points="1077,-104 1077,-126.5 1333.5,-126.5 1333.5,-104 1077,-104"/>
<text text-anchor="start" x="1101.38" y="-111.2" font-family="Times New Roman,serif" font-weight="bold" font-size="14.00">SeqOneShotResetInstantTips (12)</text>
<polygon fill="none" stroke="black" points="1077,-81.5 1077,-104 1333.5,-104 1333.5,-81.5 1077,-81.5"/>
<text text-anchor="start" x="1173.38" y="-88.7" font-family="Times New Roman,serif" font-weight="bold" font-size="14.00">Properties</text>
<polygon fill="none" stroke="black" points="1077,-59.75 1077,-81.5 1333.5,-81.5 1333.5,-59.75 1077,-59.75"/>
<text text-anchor="start" x="1080" y="-65.2" font-family="Times New Roman,serif" font-size="14.00">[Bool] ExecuteEveryFrame (default = False) </text>
<polygon fill="none" stroke="black" points="1076,-58.75 1076,-127.5 1334.5,-127.5 1334.5,-58.75 1076,-58.75"/>
</g>
<!-- 2508&#45;&gt;2517 -->
<g id="edge8" class="edge">
<title>2508&#45;&gt;2517</title>
<path fill="none" stroke="firebrick" stroke-width="2" d="M1079.08,-292.82C1106.98,-248.89 1147.8,-184.6 1175.39,-141.15"/>
<polygon fill="firebrick" stroke="firebrick" stroke-width="2" points="1177.38,-144.54 1179.79,-134.22 1171.47,-140.79 1177.38,-144.54"/>
</g>
<!-- 2523 -->
<g id="node10" class="node">
<title>2523</title>
<polygon fill="none" stroke="black" stroke-width="2" points="1637.62,-186.25 1360.88,-186.25 1360.88,0 1637.62,0 1637.62,-186.25"/>
<polygon fill="none" stroke="black" points="1369.88,-158.75 1369.88,-181.25 1628.62,-181.25 1628.62,-158.75 1369.88,-158.75"/>
<text text-anchor="start" x="1393.88" y="-165.95" font-family="Times New Roman,serif" font-weight="bold" font-size="14.00">SeqOneShotSetGameDataBool (5)</text>
<polygon fill="none" stroke="black" points="1369.88,-136.25 1369.88,-158.75 1628.62,-158.75 1628.62,-136.25 1369.88,-136.25"/>
<text text-anchor="start" x="1467.38" y="-143.45" font-family="Times New Roman,serif" font-weight="bold" font-size="14.00">Properties</text>
<polygon fill="none" stroke="black" points="1369.88,-114.5 1369.88,-136.25 1628.62,-136.25 1628.62,-114.5 1369.88,-114.5"/>
<text text-anchor="start" x="1374" y="-119.95" font-family="Times New Roman,serif" font-size="14.00">[Bool] ExecuteEveryFrame (default = False) </text>
<polygon fill="none" stroke="black" points="1369.88,-92 1369.88,-114.5 1628.62,-114.5 1628.62,-92 1369.88,-92"/>
<text text-anchor="start" x="1480.12" y="-99.2" font-family="Times New Roman,serif" font-weight="bold" font-size="14.00">Inputs</text>
<polygon fill="none" stroke="black" points="1369.88,-70.25 1369.88,-92 1628.62,-92 1628.62,-70.25 1369.88,-70.25"/>
<text text-anchor="start" x="1399.88" y="-75.7" font-family="Times New Roman,serif" font-size="14.00">[Int] GameDataIndex (default = &#45;1) </text>
<polygon fill="none" stroke="black" points="1369.88,-48.5 1369.88,-70.25 1628.62,-70.25 1628.62,-48.5 1369.88,-48.5"/>
<text text-anchor="start" x="1415.62" y="-53.95" font-family="Times New Roman,serif" font-size="14.00">[Bool] Value (default = True) </text>
<polygon fill="none" stroke="black" points="1369.88,-26.75 1369.88,-48.5 1628.62,-48.5 1628.62,-26.75 1369.88,-26.75"/>
<text text-anchor="start" x="1376.25" y="-32.2" font-family="Times New Roman,serif" font-size="14.00">[String] GameDataName (default = IsValid) </text>
<polygon fill="none" stroke="black" points="1369.88,-5 1369.88,-26.75 1628.62,-26.75 1628.62,-5 1369.88,-5"/>
<text text-anchor="start" x="1372.88" y="-10.45" font-family="Times New Roman,serif" font-size="14.00">[const void*] ParentStruct (default = nullptr) </text>
<polygon fill="none" stroke="black" points="1368.88,-4 1368.88,-182.25 1629.62,-182.25 1629.62,-4 1368.88,-4"/>
</g>
<!-- 2520&#45;&gt;2523 -->
<g id="edge9" class="edge">
<title>2520&#45;&gt;2523</title>
<path fill="none" stroke="firebrick" stroke-width="2" d="M1367.47,-292.9C1384.03,-266.55 1405.04,-233.46 1424.25,-204.25 1426.04,-201.53 1427.85,-198.78 1429.69,-196.01"/>
<polygon fill="firebrick" stroke="firebrick" stroke-width="2" points="1431.71,-199.29 1434.34,-189.03 1425.88,-195.42 1431.71,-199.29"/>
</g>
<!-- 2535 -->
<g id="node11" class="node">
<title>2535</title>
<polygon fill="none" stroke="black" stroke-width="2" points="1932.62,-186.25 1655.88,-186.25 1655.88,0 1932.62,0 1932.62,-186.25"/>
<polygon fill="none" stroke="black" points="1664.88,-158.75 1664.88,-181.25 1923.62,-181.25 1923.62,-158.75 1664.88,-158.75"/>
<text text-anchor="start" x="1678.75" y="-165.95" font-family="Times New Roman,serif" font-weight="bold" font-size="14.00">SeqOneShotSetGameDataVector3 (6)</text>
<polygon fill="none" stroke="black" points="1664.88,-136.25 1664.88,-158.75 1923.62,-158.75 1923.62,-136.25 1664.88,-136.25"/>
<text text-anchor="start" x="1762.38" y="-143.45" font-family="Times New Roman,serif" font-weight="bold" font-size="14.00">Properties</text>
<polygon fill="none" stroke="black" points="1664.88,-114.5 1664.88,-136.25 1923.62,-136.25 1923.62,-114.5 1664.88,-114.5"/>
<text text-anchor="start" x="1669" y="-119.95" font-family="Times New Roman,serif" font-size="14.00">[Bool] ExecuteEveryFrame (default = False) </text>
<polygon fill="none" stroke="black" points="1664.88,-92 1664.88,-114.5 1923.62,-114.5 1923.62,-92 1664.88,-92"/>
<text text-anchor="start" x="1775.12" y="-99.2" font-family="Times New Roman,serif" font-weight="bold" font-size="14.00">Inputs</text>
<polygon fill="none" stroke="black" points="1664.88,-70.25 1664.88,-92 1923.62,-92 1923.62,-70.25 1664.88,-70.25"/>
<text text-anchor="start" x="1694.88" y="-75.7" font-family="Times New Roman,serif" font-size="14.00">[Int] GameDataIndex (default = &#45;1) </text>
<polygon fill="none" stroke="black" points="1664.88,-48.5 1664.88,-70.25 1923.62,-70.25 1923.62,-48.5 1664.88,-48.5"/>
<text text-anchor="start" x="1680.25" y="-53.95" font-family="Times New Roman,serif" font-size="14.00">[String] GameDataName (default = Pos) </text>
<polygon fill="none" stroke="black" points="1664.88,-26.75 1664.88,-48.5 1923.62,-48.5 1923.62,-26.75 1664.88,-26.75"/>
<text text-anchor="start" x="1672.75" y="-32.2" font-family="Times New Roman,serif" font-size="14.00">[Vector3F] Value (default = (0.0, 0.0, 0.0)) </text>
<polygon fill="none" stroke="black" points="1664.88,-5 1664.88,-26.75 1923.62,-26.75 1923.62,-5 1664.88,-5"/>
<text text-anchor="start" x="1667.88" y="-10.45" font-family="Times New Roman,serif" font-size="14.00">[const void*] ParentStruct (default = nullptr) </text>
<polygon fill="none" stroke="black" points="1663.88,-4 1663.88,-182.25 1924.62,-182.25 1924.62,-4 1663.88,-4"/>
</g>
<!-- 2520&#45;&gt;2535 -->
<g id="edge10" class="edge">
<title>2520&#45;&gt;2535</title>
<path fill="none" stroke="firebrick" stroke-width="2" d="M1378.43,-292.69C1397.29,-273.14 1421.04,-251.97 1446.25,-238 1523.5,-195.19 1559.11,-220.33 1645.01,-186.46"/>
<polygon fill="firebrick" stroke="firebrick" stroke-width="2" points="1644.75,-190.35 1652.66,-183.3 1642.08,-183.88 1644.75,-190.35"/>
</g>
<!-- 2526 -->
<g id="node12" class="node">
<title>2526</title>
<polygon fill="none" stroke="black" stroke-width="2" points="1739.75,-446.75 1454.75,-446.75 1454.75,-238 1739.75,-238 1739.75,-446.75"/>
<polygon fill="none" stroke="black" points="1463.75,-419.25 1463.75,-441.75 1730.75,-441.75 1730.75,-419.25 1463.75,-419.25"/>
<text text-anchor="start" x="1493.38" y="-426.45" font-family="Times New Roman,serif" font-weight="bold" font-size="14.00">SeqQueryGetGameDataStruct (4)</text>
<polygon fill="none" stroke="black" points="1463.75,-396.75 1463.75,-419.25 1730.75,-419.25 1730.75,-396.75 1463.75,-396.75"/>
<text text-anchor="start" x="1565.38" y="-403.95" font-family="Times New Roman,serif" font-weight="bold" font-size="14.00">Properties</text>
<polygon fill="none" stroke="black" points="1463.75,-375 1463.75,-396.75 1730.75,-396.75 1730.75,-375 1463.75,-375"/>
<text text-anchor="start" x="1471.62" y="-380.45" font-family="Times New Roman,serif" font-size="14.00">[Bool] OutputOnlyOnEnter (default = False) </text>
<polygon fill="none" stroke="black" points="1463.75,-352.5 1463.75,-375 1730.75,-375 1730.75,-352.5 1463.75,-352.5"/>
<text text-anchor="start" x="1578.12" y="-359.7" font-family="Times New Roman,serif" font-weight="bold" font-size="14.00">Inputs</text>
<polygon fill="none" stroke="black" points="1463.75,-330.75 1463.75,-352.5 1730.75,-352.5 1730.75,-330.75 1463.75,-330.75"/>
<text text-anchor="start" x="1497.88" y="-336.2" font-family="Times New Roman,serif" font-size="14.00">[Int] GameDataIndex (default = &#45;1) </text>
<polygon fill="none" stroke="black" points="1463.75,-309 1463.75,-330.75 1730.75,-330.75 1730.75,-309 1463.75,-309"/>
<text text-anchor="start" x="1466.75" y="-314.45" font-family="Times New Roman,serif" font-size="14.00">[String] GameDataName (default = DeadIcon) </text>
<polygon fill="none" stroke="black" points="1463.75,-287.25 1463.75,-309 1730.75,-309 1730.75,-287.25 1463.75,-287.25"/>
<text text-anchor="start" x="1470.88" y="-292.7" font-family="Times New Roman,serif" font-size="14.00">[const void*] ParentStruct (default = nullptr) </text>
<polygon fill="none" stroke="black" points="1463.75,-264.75 1463.75,-287.25 1730.75,-287.25 1730.75,-264.75 1463.75,-264.75"/>
<text text-anchor="start" x="1572.88" y="-271.95" font-family="Times New Roman,serif" font-weight="bold" font-size="14.00">Outputs</text>
<polygon fill="none" stroke="black" points="1463.75,-243 1463.75,-264.75 1730.75,-264.75 1730.75,-243 1463.75,-243"/>
<text text-anchor="start" x="1489.62" y="-248.45" font-family="Times New Roman,serif" font-size="14.00">[const void*] Value (default = nullptr) </text>
<polygon fill="none" stroke="black" points="1462.75,-242 1462.75,-442.75 1731.75,-442.75 1731.75,-242 1462.75,-242"/>
</g>
<!-- 2526&#45;&gt;2523 -->
<g id="edge11" class="edge">
<title>2526:2559&#45;&gt;2523:2555</title>
<path fill="none" stroke="#008000" stroke-dasharray="5,2" d="M1597.25,-242.38C1597.25,-213.88 1621.05,-213.82 1628.25,-186.25 1632.31,-170.67 1643.89,-58.26 1635.56,-25.23"/>
<polygon fill="#008000" stroke="#008000" points="1638.69,-23.59 1630.11,-17.37 1632.94,-27.58 1638.69,-23.59"/>
<text text-anchor="middle" x="1652.75" y="-206.7" font-family="Times New Roman,serif" font-size="14.00" fill="#008000">ParentStruct</text>
</g>
<!-- 2526&#45;&gt;2535 -->
<g id="edge12" class="edge">
<title>2526:2559&#45;&gt;2535:2570</title>
<path fill="none" stroke="#008000" stroke-dasharray="5,2" d="M1732.25,-253.38C1739.1,-253.38 1734.34,-244.11 1731.25,-238 1720.77,-217.23 1709.72,-218.39 1691.25,-204.25 1680.09,-195.71 1671.81,-198.68 1665.25,-186.25 1657.74,-172.01 1648.59,-58.66 1657.71,-25.32"/>
<polygon fill="#008000" stroke="#008000" points="1660.43,-27.53 1663.37,-17.36 1654.72,-23.48 1660.43,-27.53"/>
<text text-anchor="middle" x="1749.75" y="-206.7" font-family="Times New Roman,serif" font-size="14.00" fill="#008000">ParentStruct</text>
</g>
<!-- 2529 -->
<g id="node13" class="node">
<title>2529</title>
<polygon fill="none" stroke="black" stroke-width="2" points="1737.88,-707.25 1456.62,-707.25 1456.62,-498.5 1737.88,-498.5 1737.88,-707.25"/>
<polygon fill="none" stroke="black" points="1465.62,-679.75 1465.62,-702.25 1728.88,-702.25 1728.88,-679.75 1465.62,-679.75"/>
<text text-anchor="start" x="1493.38" y="-686.95" font-family="Times New Roman,serif" font-weight="bold" font-size="14.00">SeqQueryGetGameDataStruct (3)</text>
<polygon fill="none" stroke="black" points="1465.62,-657.25 1465.62,-679.75 1728.88,-679.75 1728.88,-657.25 1465.62,-657.25"/>
<text text-anchor="start" x="1565.38" y="-664.45" font-family="Times New Roman,serif" font-weight="bold" font-size="14.00">Properties</text>
<polygon fill="none" stroke="black" points="1465.62,-635.5 1465.62,-657.25 1728.88,-657.25 1728.88,-635.5 1465.62,-635.5"/>
<text text-anchor="start" x="1471.62" y="-640.95" font-family="Times New Roman,serif" font-size="14.00">[Bool] OutputOnlyOnEnter (default = False) </text>
<polygon fill="none" stroke="black" points="1465.62,-613 1465.62,-635.5 1728.88,-635.5 1728.88,-613 1465.62,-613"/>
<text text-anchor="start" x="1578.12" y="-620.2" font-family="Times New Roman,serif" font-weight="bold" font-size="14.00">Inputs</text>
<polygon fill="none" stroke="black" points="1465.62,-591.25 1465.62,-613 1728.88,-613 1728.88,-591.25 1465.62,-591.25"/>
<text text-anchor="start" x="1497.88" y="-596.7" font-family="Times New Roman,serif" font-size="14.00">[Int] GameDataIndex (default = &#45;1) </text>
<polygon fill="none" stroke="black" points="1465.62,-569.5 1465.62,-591.25 1728.88,-591.25 1728.88,-569.5 1465.62,-569.5"/>
<text text-anchor="start" x="1468.62" y="-574.95" font-family="Times New Roman,serif" font-size="14.00">[String] GameDataName (default = IconData) </text>
<polygon fill="none" stroke="black" points="1465.62,-547.75 1465.62,-569.5 1728.88,-569.5 1728.88,-547.75 1465.62,-547.75"/>
<text text-anchor="start" x="1470.88" y="-553.2" font-family="Times New Roman,serif" font-size="14.00">[const void*] ParentStruct (default = nullptr) </text>
<polygon fill="none" stroke="black" points="1465.62,-525.25 1465.62,-547.75 1728.88,-547.75 1728.88,-525.25 1465.62,-525.25"/>
<text text-anchor="start" x="1572.88" y="-532.45" font-family="Times New Roman,serif" font-weight="bold" font-size="14.00">Outputs</text>
<polygon fill="none" stroke="black" points="1465.62,-503.5 1465.62,-525.25 1728.88,-525.25 1728.88,-503.5 1465.62,-503.5"/>
<text text-anchor="start" x="1489.62" y="-508.95" font-family="Times New Roman,serif" font-size="14.00">[const void*] Value (default = nullptr) </text>
<polygon fill="none" stroke="black" points="1464.62,-502.5 1464.62,-703.25 1729.88,-703.25 1729.88,-502.5 1464.62,-502.5"/>
</g>
<!-- 2529&#45;&gt;2526 -->
<g id="edge13" class="edge">
<title>2529:2563&#45;&gt;2526:2558</title>
<path fill="none" stroke="#008000" stroke-dasharray="5,2" d="M1597.25,-502.88C1597.25,-438.31 1695.3,-500.39 1731.25,-446.75 1738.96,-435.25 1746.05,-338.41 1738.36,-307.69"/>
<polygon fill="#008000" stroke="#008000" points="1741.49,-306.08 1733.08,-299.64 1735.64,-309.92 1741.49,-306.08"/>
<text text-anchor="middle" x="1740.75" y="-467.2" font-family="Times New Roman,serif" font-size="14.00" fill="#008000">ParentStruct</text>
</g>
<!-- 2532 -->
<g id="node14" class="node">
<title>2532</title>
<polygon fill="none" stroke="black" stroke-width="2" points="1748.38,-946 1446.12,-946 1446.12,-759 1748.38,-759 1748.38,-946"/>
<polygon fill="none" stroke="black" points="1455.12,-918.5 1455.12,-941 1739.38,-941 1739.38,-918.5 1455.12,-918.5"/>
<text text-anchor="start" x="1461.88" y="-925.7" font-family="Times New Roman,serif" font-weight="bold" font-size="14.00">SeqQueryGetNonStructGameDataStruct (2)</text>
<polygon fill="none" stroke="black" points="1455.12,-896 1455.12,-918.5 1739.38,-918.5 1739.38,-896 1455.12,-896"/>
<text text-anchor="start" x="1565.38" y="-903.2" font-family="Times New Roman,serif" font-weight="bold" font-size="14.00">Properties</text>
<polygon fill="none" stroke="black" points="1455.12,-874.25 1455.12,-896 1739.38,-896 1739.38,-874.25 1455.12,-874.25"/>
<text text-anchor="start" x="1471.62" y="-879.7" font-family="Times New Roman,serif" font-size="14.00">[Bool] OutputOnlyOnEnter (default = False) </text>
<polygon fill="none" stroke="black" points="1455.12,-851.75 1455.12,-874.25 1739.38,-874.25 1739.38,-851.75 1455.12,-851.75"/>
<text text-anchor="start" x="1578.12" y="-858.95" font-family="Times New Roman,serif" font-weight="bold" font-size="14.00">Inputs</text>
<polygon fill="none" stroke="black" points="1455.12,-830 1455.12,-851.75 1739.38,-851.75 1739.38,-830 1455.12,-830"/>
<text text-anchor="start" x="1497.88" y="-835.45" font-family="Times New Roman,serif" font-size="14.00">[Int] GameDataIndex (default = &#45;1) </text>
<polygon fill="none" stroke="black" points="1455.12,-808.25 1455.12,-830 1739.38,-830 1739.38,-808.25 1455.12,-808.25"/>
<text text-anchor="start" x="1458.12" y="-813.7" font-family="Times New Roman,serif" font-size="14.00">[String] GameDataFullName (default = MapData) </text>
<polygon fill="none" stroke="black" points="1455.12,-785.75 1455.12,-808.25 1739.38,-808.25 1739.38,-785.75 1455.12,-785.75"/>
<text text-anchor="start" x="1572.88" y="-792.95" font-family="Times New Roman,serif" font-weight="bold" font-size="14.00">Outputs</text>
<polygon fill="none" stroke="black" points="1455.12,-764 1455.12,-785.75 1739.38,-785.75 1739.38,-764 1455.12,-764"/>
<text text-anchor="start" x="1489.62" y="-769.45" font-family="Times New Roman,serif" font-size="14.00">[const void*] Value (default = nullptr) </text>
<polygon fill="none" stroke="black" points="1454.12,-763 1454.12,-942 1740.38,-942 1740.38,-763 1454.12,-763"/>
</g>
<!-- 2532&#45;&gt;2529 -->
<g id="edge14" class="edge">
<title>2532:2566&#45;&gt;2529:2562</title>
<path fill="none" stroke="#008000" stroke-dasharray="5,2" d="M1597.25,-762.5C1597.25,-698.9 1693.84,-760.08 1729.25,-707.25 1763.68,-655.9 1792.39,-570.42 1741.51,-559.94"/>
<polygon fill="#008000" stroke="#008000" points="1742.04,-556.47 1731.76,-559.02 1741.38,-563.44 1742.04,-556.47"/>
<text text-anchor="middle" x="1738.75" y="-727.7" font-family="Times New Roman,serif" font-size="14.00" fill="#008000">ParentStruct</text>
</g>
<!-- 2538 -->
<g id="node15" class="node">
<title>2538</title>
<polygon fill="none" stroke="black" stroke-width="2" points="2032.88,-402.88 1757.62,-402.88 1757.62,-281.88 2032.88,-281.88 2032.88,-402.88"/>
<polygon fill="none" stroke="black" points="1766.62,-375.38 1766.62,-397.88 2023.88,-397.88 2023.88,-375.38 1766.62,-375.38"/>
<text text-anchor="start" x="1831.5" y="-382.57" font-family="Times New Roman,serif" font-weight="bold" font-size="14.00">SeqGetPlayerPos (7)</text>
<polygon fill="none" stroke="black" points="1766.62,-352.88 1766.62,-375.38 2023.88,-375.38 2023.88,-352.88 1766.62,-352.88"/>
<text text-anchor="start" x="1863.38" y="-360.07" font-family="Times New Roman,serif" font-weight="bold" font-size="14.00">Properties</text>
<polygon fill="none" stroke="black" points="1766.62,-331.12 1766.62,-352.88 2023.88,-352.88 2023.88,-331.12 1766.62,-331.12"/>
<text text-anchor="start" x="1769.62" y="-336.57" font-family="Times New Roman,serif" font-size="14.00">[Bool] OutputOnlyOnEnter (default = False) </text>
<polygon fill="none" stroke="black" points="1766.62,-308.62 1766.62,-331.12 2023.88,-331.12 2023.88,-308.62 1766.62,-308.62"/>
<text text-anchor="start" x="1870.88" y="-315.82" font-family="Times New Roman,serif" font-weight="bold" font-size="14.00">Outputs</text>
<polygon fill="none" stroke="black" points="1766.62,-286.88 1766.62,-308.62 2023.88,-308.62 2023.88,-286.88 1766.62,-286.88"/>
<text text-anchor="start" x="1851.38" y="-292.32" font-family="Times New Roman,serif" font-size="14.00">[Vector3F] Pos</text>
<polygon fill="none" stroke="black" points="1765.62,-285.88 1765.62,-398.88 2024.88,-398.88 2024.88,-285.88 1765.62,-285.88"/>
</g>
<!-- 2538&#45;&gt;2535 -->
<g id="edge15" class="edge">
<title>2538:2571&#45;&gt;2535:2569</title>
<path fill="none" stroke="#008000" stroke-dasharray="5,2" d="M1895.25,-285.38C1895.25,-239.6 1916.82,-231.58 1923.25,-186.25 1931.96,-124.86 1983.26,-47.81 1935.56,-38.14"/>
<polygon fill="#008000" stroke="#008000" points="1936.03,-34.67 1925.76,-37.26 1935.41,-41.64 1936.03,-34.67"/>
<text text-anchor="middle" x="1934" y="-206.7" font-family="Times New Roman,serif" font-size="14.00" fill="#008000">Value</text>
</g>
<!-- 2577 -->
<g id="node16" class="node">
<title>2577</title>
<ellipse fill="mediumpurple" stroke="mediumpurple" cx="758.25" cy="-852.5" rx="31.39" ry="18"/>
<text text-anchor="start" x="743.25" y="-848.45" font-family="Times New Roman,serif" font-weight="bold" font-size="14.00" fill="white">Root</text>
</g>
<!-- 2577&#45;&gt;2505 -->
<g id="edge16" class="edge">
<title>2577&#45;&gt;2505</title>
<path fill="none" stroke="black" d="M758.25,-834.09C758.25,-799.17 758.25,-719.18 758.25,-663.35"/>
<polygon fill="black" stroke="black" points="761.75,-663.69 758.25,-653.69 754.75,-663.69 761.75,-663.69"/>
</g>
</g>
</svg>
