<?xml version="1.0" encoding="UTF-8" standalone="no"?>
<!DOCTYPE svg PUBLIC "-//W3C//DTD SVG 1.1//EN"
 "http://www.w3.org/Graphics/SVG/1.1/DTD/svg11.dtd">
<!-- Generated by graphviz version 9.0.0 (20230911.1827)
 -->
<!-- Title: BeforeInitializeOpeningField.module Pages: 1 -->
<svg width="1489pt" height="920pt"
 viewBox="0.00 0.00 1488.50 920.00" xmlns="http://www.w3.org/2000/svg" xmlns:xlink="http://www.w3.org/1999/xlink">
<g id="graph0" class="graph" transform="scale(1 1) rotate(0) translate(4 916)">
<title>BeforeInitializeOpeningField.module</title>
<polygon fill="lightgray" stroke="none" points="-4,4 -4,-916 1484.5,-916 1484.5,4 -4,4"/>
<!-- 2672 -->
<g id="node1" class="node">
<title>2672</title>
<polygon fill="none" stroke="black" stroke-width="2" points="1046,-839 762.5,-839 762.5,-631.75 1046,-631.75 1046,-839"/>
<polygon fill="none" stroke="black" points="771.5,-811.5 771.5,-834 1037,-834 1037,-811.5 771.5,-811.5"/>
<text text-anchor="start" x="833.38" y="-818.7" font-family="Times New Roman,serif" font-weight="bold" font-size="14.00">Element_Sequential (0)</text>
<polygon fill="none" stroke="black" points="771.5,-789 771.5,-811.5 1037,-811.5 1037,-789 771.5,-789"/>
<text text-anchor="start" x="872.38" y="-796.2" font-family="Times New Roman,serif" font-weight="bold" font-size="14.00">Properties</text>
<polygon fill="none" stroke="black" points="771.5,-767.25 771.5,-789 1037,-789 1037,-767.25 771.5,-767.25"/>
<text text-anchor="start" x="820.25" y="-772.7" font-family="Times New Roman,serif" font-size="14.00">[Int] BusyPolicy (default = 0) </text>
<polygon fill="none" stroke="black" points="771.5,-745.5 771.5,-767.25 1037,-767.25 1037,-745.5 771.5,-745.5"/>
<text text-anchor="start" x="823.25" y="-750.95" font-family="Times New Roman,serif" font-size="14.00">[Int] NumLoop (default = 0) </text>
<polygon fill="none" stroke="black" points="771.5,-723.75 771.5,-745.5 1037,-745.5 1037,-723.75 771.5,-723.75"/>
<text text-anchor="start" x="822.5" y="-729.2" font-family="Times New Roman,serif" font-size="14.00">[Int] PlayPolicy (default = 0) </text>
<polygon fill="none" stroke="black" points="771.5,-702 771.5,-723.75 1037,-723.75 1037,-702 771.5,-702"/>
<text text-anchor="start" x="816.88" y="-707.45" font-family="Times New Roman,serif" font-size="14.00">[Int] ResultPolicy (default = 0) </text>
<polygon fill="none" stroke="black" points="771.5,-680.25 771.5,-702 1037,-702 1037,-680.25 771.5,-680.25"/>
<text text-anchor="start" x="797.75" y="-685.7" font-family="Times New Roman,serif" font-size="14.00">[Bool] IsDelayJudge (default = False) </text>
<polygon fill="none" stroke="black" points="771.5,-658.5 771.5,-680.25 1037,-680.25 1037,-658.5 771.5,-658.5"/>
<text text-anchor="start" x="814.25" y="-663.95" font-family="Times New Roman,serif" font-size="14.00">[Bool] IsLoop (default = False) </text>
<polygon fill="none" stroke="black" points="771.5,-636.75 771.5,-658.5 1037,-658.5 1037,-636.75 771.5,-636.75"/>
<text text-anchor="start" x="774.5" y="-642.2" font-family="Times New Roman,serif" font-size="14.00">[Bool] IsUpdateNextInFrame (default = True) </text>
<polygon fill="none" stroke="black" points="770.5,-635.75 770.5,-835 1038,-835 1038,-635.75 770.5,-635.75"/>
</g>
<!-- 2675 -->
<g id="node2" class="node">
<title>2675</title>
<polygon fill="none" stroke="black" stroke-width="2" points="592.12,-569.5 276.38,-569.5 276.38,-383.25 592.12,-383.25 592.12,-569.5"/>
<polygon fill="none" stroke="black" points="285.38,-542 285.38,-564.5 583.12,-564.5 583.12,-542 285.38,-542"/>
<text text-anchor="start" x="355.88" y="-549.2" font-family="Times New Roman,serif" font-weight="bold" font-size="14.00">Element_BoolSelector (4)</text>
<polygon fill="none" stroke="black" points="285.38,-519.5 285.38,-542 583.12,-542 583.12,-519.5 285.38,-519.5"/>
<text text-anchor="start" x="402.38" y="-526.7" font-family="Times New Roman,serif" font-weight="bold" font-size="14.00">Properties</text>
<polygon fill="none" stroke="black" points="285.38,-497.75 285.38,-519.5 583.12,-519.5 583.12,-497.75 285.38,-497.75"/>
<text text-anchor="start" x="337.12" y="-503.2" font-family="Times New Roman,serif" font-size="14.00">[Int] CalculateTiming (default = 0) </text>
<polygon fill="none" stroke="black" points="285.38,-476 285.38,-497.75 583.12,-497.75 583.12,-476 285.38,-476"/>
<text text-anchor="start" x="318" y="-481.45" font-family="Times New Roman,serif" font-size="14.00">[Bool] ChildFrameSync (default = False) </text>
<polygon fill="none" stroke="black" points="285.38,-454.25 285.38,-476 583.12,-476 583.12,-454.25 285.38,-454.25"/>
<text text-anchor="start" x="334.5" y="-459.7" font-family="Times New Roman,serif" font-size="14.00">[Bool] InputValue (default = False) </text>
<polygon fill="none" stroke="black" points="285.38,-432.5 285.38,-454.25 583.12,-454.25 583.12,-432.5 285.38,-432.5"/>
<text text-anchor="start" x="288.38" y="-437.95" font-family="Times New Roman,serif" font-size="14.00">[Bool] IsNoSelectWhenChildBusy (default = False) </text>
<polygon fill="none" stroke="black" points="285.38,-410 285.38,-432.5 583.12,-432.5 583.12,-410 285.38,-410"/>
<text text-anchor="start" x="415.12" y="-417.2" font-family="Times New Roman,serif" font-weight="bold" font-size="14.00">Inputs</text>
<polygon fill="none" stroke="black" points="285.38,-388.25 285.38,-410 583.12,-410 583.12,-388.25 285.38,-388.25"/>
<text text-anchor="start" x="350.25" y="-393.7" font-family="Times New Roman,serif" font-size="14.00">[Bool] Input (default = False) </text>
<polygon fill="none" stroke="black" points="284.38,-387.25 284.38,-565.5 584.12,-565.5 584.12,-387.25 284.38,-387.25"/>
</g>
<!-- 2672&#45;&gt;2675 -->
<g id="edge1" class="edge">
<title>2672&#45;&gt;2675</title>
<path fill="none" stroke="firebrick" stroke-width="2" d="M762.28,-656.74C711.88,-629.19 654.68,-597.91 602.32,-569.28"/>
<polygon fill="firebrick" stroke="firebrick" stroke-width="2" points="605.37,-566.96 594.92,-565.23 602.01,-573.1 605.37,-566.96"/>
</g>
<!-- 2693 -->
<g id="node3" class="node">
<title>2693</title>
<polygon fill="none" stroke="black" stroke-width="2" points="1046,-580 762.5,-580 762.5,-372.75 1046,-372.75 1046,-580"/>
<polygon fill="none" stroke="black" points="771.5,-552.5 771.5,-575 1037,-575 1037,-552.5 771.5,-552.5"/>
<text text-anchor="start" x="829.62" y="-559.7" font-family="Times New Roman,serif" font-weight="bold" font-size="14.00">Element_Sequential (10)</text>
<polygon fill="none" stroke="black" points="771.5,-530 771.5,-552.5 1037,-552.5 1037,-530 771.5,-530"/>
<text text-anchor="start" x="872.38" y="-537.2" font-family="Times New Roman,serif" font-weight="bold" font-size="14.00">Properties</text>
<polygon fill="none" stroke="black" points="771.5,-508.25 771.5,-530 1037,-530 1037,-508.25 771.5,-508.25"/>
<text text-anchor="start" x="820.25" y="-513.7" font-family="Times New Roman,serif" font-size="14.00">[Int] BusyPolicy (default = 0) </text>
<polygon fill="none" stroke="black" points="771.5,-486.5 771.5,-508.25 1037,-508.25 1037,-486.5 771.5,-486.5"/>
<text text-anchor="start" x="823.25" y="-491.95" font-family="Times New Roman,serif" font-size="14.00">[Int] NumLoop (default = 0) </text>
<polygon fill="none" stroke="black" points="771.5,-464.75 771.5,-486.5 1037,-486.5 1037,-464.75 771.5,-464.75"/>
<text text-anchor="start" x="822.5" y="-470.2" font-family="Times New Roman,serif" font-size="14.00">[Int] PlayPolicy (default = 0) </text>
<polygon fill="none" stroke="black" points="771.5,-443 771.5,-464.75 1037,-464.75 1037,-443 771.5,-443"/>
<text text-anchor="start" x="816.88" y="-448.45" font-family="Times New Roman,serif" font-size="14.00">[Int] ResultPolicy (default = 0) </text>
<polygon fill="none" stroke="black" points="771.5,-421.25 771.5,-443 1037,-443 1037,-421.25 771.5,-421.25"/>
<text text-anchor="start" x="797.75" y="-426.7" font-family="Times New Roman,serif" font-size="14.00">[Bool] IsDelayJudge (default = False) </text>
<polygon fill="none" stroke="black" points="771.5,-399.5 771.5,-421.25 1037,-421.25 1037,-399.5 771.5,-399.5"/>
<text text-anchor="start" x="814.25" y="-404.95" font-family="Times New Roman,serif" font-size="14.00">[Bool] IsLoop (default = False) </text>
<polygon fill="none" stroke="black" points="771.5,-377.75 771.5,-399.5 1037,-399.5 1037,-377.75 771.5,-377.75"/>
<text text-anchor="start" x="774.5" y="-383.2" font-family="Times New Roman,serif" font-size="14.00">[Bool] IsUpdateNextInFrame (default = True) </text>
<polygon fill="none" stroke="black" points="770.5,-376.75 770.5,-576 1038,-576 1038,-376.75 770.5,-376.75"/>
</g>
<!-- 2672&#45;&gt;2693 -->
<g id="edge2" class="edge">
<title>2672&#45;&gt;2693</title>
<path fill="none" stroke="firebrick" stroke-width="2" d="M904.25,-631.32C904.25,-618.36 904.25,-605.04 904.25,-591.92"/>
<polygon fill="firebrick" stroke="firebrick" stroke-width="2" points="907.75,-593.48 904.25,-583.48 900.75,-593.48 907.75,-593.48"/>
</g>
<!-- 2702 -->
<g id="node4" class="node">
<title>2702</title>
<polygon fill="none" stroke="black" stroke-width="2" points="1352.62,-525.62 1153.88,-525.62 1153.88,-427.12 1352.62,-427.12 1352.62,-525.62"/>
<polygon fill="none" stroke="black" points="1162.88,-498.12 1162.88,-520.62 1343.62,-520.62 1343.62,-498.12 1162.88,-498.12"/>
<text text-anchor="start" x="1173.38" y="-505.32" font-family="Times New Roman,serif" font-weight="bold" font-size="14.00">Element_Simultaneous (3)</text>
<polygon fill="none" stroke="black" points="1162.88,-475.62 1162.88,-498.12 1343.62,-498.12 1343.62,-475.62 1162.88,-475.62"/>
<text text-anchor="start" x="1221.38" y="-482.82" font-family="Times New Roman,serif" font-weight="bold" font-size="14.00">Properties</text>
<polygon fill="none" stroke="black" points="1162.88,-453.88 1162.88,-475.62 1343.62,-475.62 1343.62,-453.88 1162.88,-453.88"/>
<text text-anchor="start" x="1172.25" y="-459.32" font-family="Times New Roman,serif" font-size="14.00">[Int] EndPolicy (default = 0) </text>
<polygon fill="none" stroke="black" points="1162.88,-432.12 1162.88,-453.88 1343.62,-453.88 1343.62,-432.12 1162.88,-432.12"/>
<text text-anchor="start" x="1165.88" y="-437.57" font-family="Times New Roman,serif" font-size="14.00">[Int] ResultPolicy (default = 0) </text>
<polygon fill="none" stroke="black" points="1161.88,-431.12 1161.88,-521.62 1344.62,-521.62 1344.62,-431.12 1161.88,-431.12"/>
</g>
<!-- 2672&#45;&gt;2702 -->
<g id="edge3" class="edge">
<title>2672&#45;&gt;2702</title>
<path fill="none" stroke="firebrick" stroke-width="2" d="M1044.19,-631.32C1090.01,-597.58 1139.15,-561.4 1178.26,-532.6"/>
<polygon fill="firebrick" stroke="firebrick" stroke-width="2" points="1179.05,-536.36 1185.03,-527.61 1174.9,-530.72 1179.05,-536.36"/>
</g>
<!-- 2681 -->
<g id="node5" class="node">
<title>2681</title>
<polygon fill="none" stroke="black" stroke-width="2" points="274.5,-255.75 0,-255.75 0,-179 274.5,-179 274.5,-255.75"/>
<polygon fill="none" stroke="black" points="9,-228.25 9,-250.75 265.5,-250.75 265.5,-228.25 9,-228.25"/>
<text text-anchor="start" x="76.88" y="-235.45" font-family="Times New Roman,serif" font-weight="bold" font-size="14.00">SeqOneShotEnd (5)</text>
<polygon fill="none" stroke="black" points="9,-205.75 9,-228.25 265.5,-228.25 265.5,-205.75 9,-205.75"/>
<text text-anchor="start" x="105.38" y="-212.95" font-family="Times New Roman,serif" font-weight="bold" font-size="14.00">Properties</text>
<polygon fill="none" stroke="black" points="9,-184 9,-205.75 265.5,-205.75 265.5,-184 9,-184"/>
<text text-anchor="start" x="12" y="-189.45" font-family="Times New Roman,serif" font-size="14.00">[Bool] ExecuteEveryFrame (default = False) </text>
<polygon fill="none" stroke="black" points="8,-183 8,-251.75 266.5,-251.75 266.5,-183 8,-183"/>
</g>
<!-- 2675&#45;&gt;2681 -->
<g id="edge4" class="edge">
<title>2675&#45;&gt;2681</title>
<path fill="none" stroke="firebrick" stroke-width="2" d="M327.45,-382.96C280.44,-342.28 227.38,-296.37 189.27,-263.39"/>
<polygon fill="firebrick" stroke="firebrick" stroke-width="2" points="193.03,-262.01 183.17,-258.11 188.44,-267.3 193.03,-262.01"/>
<text text-anchor="middle" x="308.38" y="-341.45" font-family="Times New Roman,serif" font-size="14.00" fill="firebrick">True</text>
</g>
<!-- 2684 -->
<g id="node6" class="node">
<title>2684</title>
<polygon fill="none" stroke="black" stroke-width="2" points="576,-321 292.5,-321 292.5,-113.75 576,-113.75 576,-321"/>
<polygon fill="none" stroke="black" points="301.5,-293.5 301.5,-316 567,-316 567,-293.5 301.5,-293.5"/>
<text text-anchor="start" x="363.38" y="-300.7" font-family="Times New Roman,serif" font-weight="bold" font-size="14.00">Element_Sequential (6)</text>
<polygon fill="none" stroke="black" points="301.5,-271 301.5,-293.5 567,-293.5 567,-271 301.5,-271"/>
<text text-anchor="start" x="402.38" y="-278.2" font-family="Times New Roman,serif" font-weight="bold" font-size="14.00">Properties</text>
<polygon fill="none" stroke="black" points="301.5,-249.25 301.5,-271 567,-271 567,-249.25 301.5,-249.25"/>
<text text-anchor="start" x="350.25" y="-254.7" font-family="Times New Roman,serif" font-size="14.00">[Int] BusyPolicy (default = 0) </text>
<polygon fill="none" stroke="black" points="301.5,-227.5 301.5,-249.25 567,-249.25 567,-227.5 301.5,-227.5"/>
<text text-anchor="start" x="353.25" y="-232.95" font-family="Times New Roman,serif" font-size="14.00">[Int] NumLoop (default = 0) </text>
<polygon fill="none" stroke="black" points="301.5,-205.75 301.5,-227.5 567,-227.5 567,-205.75 301.5,-205.75"/>
<text text-anchor="start" x="352.5" y="-211.2" font-family="Times New Roman,serif" font-size="14.00">[Int] PlayPolicy (default = 0) </text>
<polygon fill="none" stroke="black" points="301.5,-184 301.5,-205.75 567,-205.75 567,-184 301.5,-184"/>
<text text-anchor="start" x="346.88" y="-189.45" font-family="Times New Roman,serif" font-size="14.00">[Int] ResultPolicy (default = 0) </text>
<polygon fill="none" stroke="black" points="301.5,-162.25 301.5,-184 567,-184 567,-162.25 301.5,-162.25"/>
<text text-anchor="start" x="327.75" y="-167.7" font-family="Times New Roman,serif" font-size="14.00">[Bool] IsDelayJudge (default = False) </text>
<polygon fill="none" stroke="black" points="301.5,-140.5 301.5,-162.25 567,-162.25 567,-140.5 301.5,-140.5"/>
<text text-anchor="start" x="344.25" y="-145.95" font-family="Times New Roman,serif" font-size="14.00">[Bool] IsLoop (default = False) </text>
<polygon fill="none" stroke="black" points="301.5,-118.75 301.5,-140.5 567,-140.5 567,-118.75 301.5,-118.75"/>
<text text-anchor="start" x="304.5" y="-124.2" font-family="Times New Roman,serif" font-size="14.00">[Bool] IsUpdateNextInFrame (default = True) </text>
<polygon fill="none" stroke="black" points="300.5,-117.75 300.5,-317 568,-317 568,-117.75 300.5,-117.75"/>
</g>
<!-- 2675&#45;&gt;2684 -->
<g id="edge5" class="edge">
<title>2675&#45;&gt;2684</title>
<path fill="none" stroke="firebrick" stroke-width="2" d="M434.25,-382.96C434.25,-366.55 434.25,-349.28 434.25,-332.36"/>
<polygon fill="firebrick" stroke="firebrick" stroke-width="2" points="437.75,-334.33 434.25,-324.33 430.75,-334.33 437.75,-334.33"/>
<text text-anchor="middle" x="448.88" y="-341.45" font-family="Times New Roman,serif" font-size="14.00" fill="firebrick">False</text>
</g>
<!-- 2696 -->
<g id="node10" class="node">
<title>2696</title>
<polygon fill="none" stroke="black" stroke-width="2" points="880.5,-255.75 594,-255.75 594,-179 880.5,-179 880.5,-255.75"/>
<polygon fill="none" stroke="black" points="603,-228.25 603,-250.75 871.5,-250.75 871.5,-228.25 603,-228.25"/>
<text text-anchor="start" x="630.75" y="-235.45" font-family="Times New Roman,serif" font-weight="bold" font-size="14.00">SeqExecuteLoadLayoutArchive (9)</text>
<polygon fill="none" stroke="black" points="603,-205.75 603,-228.25 871.5,-228.25 871.5,-205.75 603,-205.75"/>
<text text-anchor="start" x="718.12" y="-212.95" font-family="Times New Roman,serif" font-weight="bold" font-size="14.00">Inputs</text>
<polygon fill="none" stroke="black" points="603,-184 603,-205.75 871.5,-205.75 871.5,-184 603,-184"/>
<text text-anchor="start" x="606" y="-189.45" font-family="Times New Roman,serif" font-size="14.00">[String] ArchiveCategory (default = Common) </text>
<polygon fill="none" stroke="black" points="602,-183 602,-251.75 872.5,-251.75 872.5,-183 602,-183"/>
</g>
<!-- 2693&#45;&gt;2696 -->
<g id="edge9" class="edge">
<title>2693&#45;&gt;2696</title>
<path fill="none" stroke="firebrick" stroke-width="2" d="M837.29,-372.32C813.21,-335.28 787.23,-295.29 767.78,-265.36"/>
<polygon fill="firebrick" stroke="firebrick" stroke-width="2" points="771.74,-265.02 763.35,-258.55 765.87,-268.84 771.74,-265.02"/>
</g>
<!-- 2699 -->
<g id="node11" class="node">
<title>2699</title>
<polygon fill="none" stroke="black" stroke-width="2" points="1188.38,-277.88 898.12,-277.88 898.12,-156.88 1188.38,-156.88 1188.38,-277.88"/>
<polygon fill="none" stroke="black" points="907.12,-250.38 907.12,-272.88 1179.38,-272.88 1179.38,-250.38 907.12,-250.38"/>
<text text-anchor="start" x="958.5" y="-257.57" font-family="Times New Roman,serif" font-weight="bold" font-size="14.00">SeqOneShotLoadScreen (8)</text>
<polygon fill="none" stroke="black" points="907.12,-227.88 907.12,-250.38 1179.38,-250.38 1179.38,-227.88 907.12,-227.88"/>
<text text-anchor="start" x="1011.38" y="-235.07" font-family="Times New Roman,serif" font-weight="bold" font-size="14.00">Properties</text>
<polygon fill="none" stroke="black" points="907.12,-206.12 907.12,-227.88 1179.38,-227.88 1179.38,-206.12 907.12,-206.12"/>
<text text-anchor="start" x="918" y="-211.57" font-family="Times New Roman,serif" font-size="14.00">[Bool] ExecuteEveryFrame (default = False) </text>
<polygon fill="none" stroke="black" points="907.12,-183.62 907.12,-206.12 1179.38,-206.12 1179.38,-183.62 907.12,-183.62"/>
<text text-anchor="start" x="1024.12" y="-190.82" font-family="Times New Roman,serif" font-weight="bold" font-size="14.00">Inputs</text>
<polygon fill="none" stroke="black" points="907.12,-161.88 907.12,-183.62 1179.38,-183.62 1179.38,-161.88 907.12,-161.88"/>
<text text-anchor="start" x="910.12" y="-167.32" font-family="Times New Roman,serif" font-size="14.00">[String] ScreenName (default = EventFade_00) </text>
<polygon fill="none" stroke="black" points="906.12,-160.88 906.12,-273.88 1180.38,-273.88 1180.38,-160.88 906.12,-160.88"/>
</g>
<!-- 2693&#45;&gt;2699 -->
<g id="edge10" class="edge">
<title>2693&#45;&gt;2699</title>
<path fill="none" stroke="firebrick" stroke-width="2" d="M959.99,-372.32C975.25,-344.09 991.45,-314.15 1005.45,-288.26"/>
<polygon fill="firebrick" stroke="firebrick" stroke-width="2" points="1007.79,-291.3 1009.47,-280.83 1001.63,-287.97 1007.79,-291.3"/>
</g>
<!-- 2705 -->
<g id="node12" class="node">
<title>2705</title>
<polygon fill="none" stroke="black" stroke-width="2" points="1480.5,-288.75 1206,-288.75 1206,-146 1480.5,-146 1480.5,-288.75"/>
<polygon fill="none" stroke="black" points="1215,-261.25 1215,-283.75 1471.5,-283.75 1471.5,-261.25 1215,-261.25"/>
<text text-anchor="start" x="1253.62" y="-268.45" font-family="Times New Roman,serif" font-weight="bold" font-size="14.00">SeqOneShotCloseScenery (2)</text>
<polygon fill="none" stroke="black" points="1215,-238.75 1215,-261.25 1471.5,-261.25 1471.5,-238.75 1215,-238.75"/>
<text text-anchor="start" x="1311.38" y="-245.95" font-family="Times New Roman,serif" font-weight="bold" font-size="14.00">Properties</text>
<polygon fill="none" stroke="black" points="1215,-217 1215,-238.75 1471.5,-238.75 1471.5,-217 1215,-217"/>
<text text-anchor="start" x="1218" y="-222.45" font-family="Times New Roman,serif" font-size="14.00">[Bool] ExecuteEveryFrame (default = False) </text>
<polygon fill="none" stroke="black" points="1215,-194.5 1215,-217 1471.5,-217 1471.5,-194.5 1215,-194.5"/>
<text text-anchor="start" x="1324.12" y="-201.7" font-family="Times New Roman,serif" font-weight="bold" font-size="14.00">Inputs</text>
<polygon fill="none" stroke="black" points="1215,-172.75 1215,-194.5 1471.5,-194.5 1471.5,-172.75 1215,-172.75"/>
<text text-anchor="start" x="1251" y="-178.2" font-family="Times New Roman,serif" font-size="14.00">[Float] FadeTime (default = 1.0) </text>
<polygon fill="none" stroke="black" points="1215,-151 1215,-172.75 1471.5,-172.75 1471.5,-151 1215,-151"/>
<text text-anchor="start" x="1233.75" y="-156.45" font-family="Times New Roman,serif" font-size="14.00">[String] NextSceneryName (default = ) </text>
<polygon fill="none" stroke="black" points="1214,-150 1214,-284.75 1472.5,-284.75 1472.5,-150 1214,-150"/>
</g>
<!-- 2702&#45;&gt;2705 -->
<g id="edge11" class="edge">
<title>2702&#45;&gt;2705</title>
<path fill="none" stroke="firebrick" stroke-width="2" d="M1270.28,-426.73C1282.8,-390.99 1300.1,-341.59 1314.71,-299.86"/>
<polygon fill="firebrick" stroke="firebrick" stroke-width="2" points="1317.46,-302.61 1317.46,-292.01 1310.85,-300.29 1317.46,-302.61"/>
</g>
<!-- 2687 -->
<g id="node8" class="node">
<title>2687</title>
<polygon fill="none" stroke="black" stroke-width="2" points="417,-56.38 175.5,-56.38 175.5,-20.38 417,-20.38 417,-56.38"/>
<polygon fill="none" stroke="black" points="184.5,-27.12 184.5,-49.62 408,-49.62 408,-27.12 184.5,-27.12"/>
<text text-anchor="start" x="187.5" y="-34.33" font-family="Times New Roman,serif" font-weight="bold" font-size="14.00">BeforeInitializeCommon.module (1)</text>
<polygon fill="none" stroke="black" points="183.5,-26.12 183.5,-50.62 409,-50.62 409,-26.12 183.5,-26.12"/>
</g>
<!-- 2684&#45;&gt;2687 -->
<g id="edge7" class="edge">
<title>2684&#45;&gt;2687</title>
<path fill="none" stroke="firebrick" stroke-width="2" d="M353.97,-113.41C340.14,-95.67 326.92,-78.72 316.64,-65.52"/>
<polygon fill="firebrick" stroke="firebrick" stroke-width="2" points="320.47,-64.74 311.56,-59.01 314.95,-69.05 320.47,-64.74"/>
</g>
<!-- 2690 -->
<g id="node9" class="node">
<title>2690</title>
<polygon fill="none" stroke="black" stroke-width="2" points="709.5,-76.75 435,-76.75 435,0 709.5,0 709.5,-76.75"/>
<polygon fill="none" stroke="black" points="444,-49.25 444,-71.75 700.5,-71.75 700.5,-49.25 444,-49.25"/>
<text text-anchor="start" x="470.25" y="-56.45" font-family="Times New Roman,serif" font-weight="bold" font-size="14.00">SeqOneShotAdjustSceneHeap (7)</text>
<polygon fill="none" stroke="black" points="444,-26.75 444,-49.25 700.5,-49.25 700.5,-26.75 444,-26.75"/>
<text text-anchor="start" x="540.38" y="-33.95" font-family="Times New Roman,serif" font-weight="bold" font-size="14.00">Properties</text>
<polygon fill="none" stroke="black" points="444,-5 444,-26.75 700.5,-26.75 700.5,-5 444,-5"/>
<text text-anchor="start" x="447" y="-10.45" font-family="Times New Roman,serif" font-size="14.00">[Bool] ExecuteEveryFrame (default = False) </text>
<polygon fill="none" stroke="black" points="443,-4 443,-72.75 701.5,-72.75 701.5,-4 443,-4"/>
</g>
<!-- 2684&#45;&gt;2690 -->
<g id="edge8" class="edge">
<title>2684&#45;&gt;2690</title>
<path fill="none" stroke="firebrick" stroke-width="2" d="M514.53,-113.41C521.93,-103.92 529.15,-94.65 535.85,-86.07"/>
<polygon fill="firebrick" stroke="firebrick" stroke-width="2" points="537.63,-89.47 541.02,-79.43 532.11,-85.16 537.63,-89.47"/>
</g>
<!-- 2678 -->
<g id="node7" class="node">
<title>2678</title>
<polygon fill="none" stroke="black" stroke-width="2" points="605.62,-795.88 262.88,-795.88 262.88,-674.88 605.62,-674.88 605.62,-795.88"/>
<polygon fill="none" stroke="black" points="271.88,-768.38 271.88,-790.88 596.62,-790.88 596.62,-768.38 271.88,-768.38"/>
<text text-anchor="start" x="323.25" y="-775.58" font-family="Times New Roman,serif" font-weight="bold" font-size="14.00">Element_ModuleIF_Input_Bool (11)</text>
<polygon fill="none" stroke="black" points="271.88,-745.88 271.88,-768.38 596.62,-768.38 596.62,-745.88 271.88,-745.88"/>
<text text-anchor="start" x="402.38" y="-753.08" font-family="Times New Roman,serif" font-weight="bold" font-size="14.00">Properties</text>
<polygon fill="none" stroke="black" points="271.88,-724.12 271.88,-745.88 596.62,-745.88 596.62,-724.12 271.88,-724.12"/>
<text text-anchor="start" x="274.88" y="-729.58" font-family="Times New Roman,serif" font-size="14.00">[String] Name (default = IsSkipBeforeInitializeCommon) </text>
<polygon fill="none" stroke="black" points="271.88,-701.62 271.88,-724.12 596.62,-724.12 596.62,-701.62 271.88,-701.62"/>
<text text-anchor="start" x="409.88" y="-708.83" font-family="Times New Roman,serif" font-weight="bold" font-size="14.00">Outputs</text>
<polygon fill="none" stroke="black" points="271.88,-679.88 271.88,-701.62 596.62,-701.62 596.62,-679.88 271.88,-679.88"/>
<text text-anchor="start" x="399.75" y="-685.33" font-family="Times New Roman,serif" font-size="14.00">[Bool] Input</text>
<polygon fill="none" stroke="black" points="270.88,-678.88 270.88,-791.88 597.62,-791.88 597.62,-678.88 270.88,-678.88"/>
</g>
<!-- 2678&#45;&gt;2675 -->
<g id="edge6" class="edge">
<title>2678:2707&#45;&gt;2675:2706</title>
<path fill="none" stroke="#008000" stroke-dasharray="5,2" d="M434.25,-678.38C434.25,-593.14 552.5,-644.96 592.12,-569.5 629.55,-498.23 648.87,-445.48 592.12,-388.38 581.64,-377.83 475.5,-371.84 443.4,-380.94"/>
<polygon fill="#008000" stroke="#008000" points="441.65,-377.89 435.49,-386.5 445.68,-383.61 441.65,-377.89"/>
<text text-anchor="middle" x="580.88" y="-600.45" font-family="Times New Roman,serif" font-size="14.00" fill="#008000">Input</text>
</g>
<!-- 2712 -->
<g id="node13" class="node">
<title>2712</title>
<ellipse fill="mediumpurple" stroke="mediumpurple" cx="904.25" cy="-894" rx="31.39" ry="18"/>
<text text-anchor="start" x="889.25" y="-889.95" font-family="Times New Roman,serif" font-weight="bold" font-size="14.00" fill="white">Root</text>
</g>
<!-- 2712&#45;&gt;2672 -->
<g id="edge12" class="edge">
<title>2712&#45;&gt;2672</title>
<path fill="none" stroke="black" d="M904.25,-875.64C904.25,-868.77 904.25,-860.26 904.25,-850.87"/>
<polygon fill="black" stroke="black" points="907.75,-850.98 904.25,-840.98 900.75,-850.98 907.75,-850.98"/>
</g>
</g>
</svg>
