<?xml version="1.0" encoding="UTF-8" standalone="no"?>
<!DOCTYPE svg PUBLIC "-//W3C//DTD SVG 1.1//EN"
 "http://www.w3.org/Graphics/SVG/1.1/DTD/svg11.dtd">
<!-- Generated by graphviz version 9.0.0 (20230911.1827)
 -->
<!-- Title: BeforeSpecialPowerShortcut.module Pages: 1 -->
<svg width="1181pt" height="469pt"
 viewBox="0.00 0.00 1180.88 468.75" xmlns="http://www.w3.org/2000/svg" xmlns:xlink="http://www.w3.org/1999/xlink">
<g id="graph0" class="graph" transform="scale(1 1) rotate(0) translate(4 464.75)">
<title>BeforeSpecialPowerShortcut.module</title>
<polygon fill="lightgray" stroke="none" points="-4,4 -4,-464.75 1176.88,-464.75 1176.88,4 -4,4"/>
<!-- 3280 -->
<g id="node1" class="node">
<title>3280</title>
<polygon fill="none" stroke="black" stroke-width="2" points="576.38,-387.75 372.38,-387.75 372.38,-351.75 576.38,-351.75 576.38,-387.75"/>
<polygon fill="none" stroke="black" points="381.38,-358.5 381.38,-381 567.38,-381 567.38,-358.5 381.38,-358.5"/>
<text text-anchor="start" x="384.38" y="-365.7" font-family="Times New Roman,serif" font-weight="bold" font-size="14.00">ShortCutPauseOn.module (0)</text>
<polygon fill="none" stroke="black" points="380.38,-357.5 380.38,-382 568.38,-382 568.38,-357.5 380.38,-357.5"/>
</g>
<!-- 3283 -->
<g id="node2" class="node">
<title>3283</title>
<polygon fill="none" stroke="black" stroke-width="2" points="573.75,-300 375,-300 375,-201.5 573.75,-201.5 573.75,-300"/>
<polygon fill="none" stroke="black" points="384,-272.5 384,-295 564.75,-295 564.75,-272.5 384,-272.5"/>
<text text-anchor="start" x="394.5" y="-279.7" font-family="Times New Roman,serif" font-weight="bold" font-size="14.00">Element_Simultaneous (1)</text>
<polygon fill="none" stroke="black" points="384,-250 384,-272.5 564.75,-272.5 564.75,-250 384,-250"/>
<text text-anchor="start" x="442.5" y="-257.2" font-family="Times New Roman,serif" font-weight="bold" font-size="14.00">Properties</text>
<polygon fill="none" stroke="black" points="384,-228.25 384,-250 564.75,-250 564.75,-228.25 384,-228.25"/>
<text text-anchor="start" x="393.38" y="-233.7" font-family="Times New Roman,serif" font-size="14.00">[Int] EndPolicy (default = 0) </text>
<polygon fill="none" stroke="black" points="384,-206.5 384,-228.25 564.75,-228.25 564.75,-206.5 384,-206.5"/>
<text text-anchor="start" x="387" y="-211.95" font-family="Times New Roman,serif" font-size="14.00">[Int] ResultPolicy (default = 0) </text>
<polygon fill="none" stroke="black" points="383,-205.5 383,-296 565.75,-296 565.75,-205.5 383,-205.5"/>
</g>
<!-- 3280&#45;&gt;3283 -->
<g id="edge1" class="edge">
<title>3280&#45;&gt;3283</title>
<path fill="none" stroke="firebrick" stroke-width="2" d="M474.38,-351.49C474.38,-340.75 474.38,-326.24 474.38,-311.61"/>
<polygon fill="firebrick" stroke="firebrick" stroke-width="2" points="477.88,-313.5 474.38,-303.5 470.88,-313.5 477.88,-313.5"/>
<text text-anchor="middle" x="512.62" y="-320.45" font-family="Times New Roman,serif" font-size="14.00" fill="firebrick">OnPauseStart</text>
</g>
<!-- 3286 -->
<g id="node3" class="node">
<title>3286</title>
<polygon fill="none" stroke="black" stroke-width="2" points="288.75,-142.75 0,-142.75 0,-21.75 288.75,-21.75 288.75,-142.75"/>
<polygon fill="none" stroke="black" points="9,-115.25 9,-137.75 279.75,-137.75 279.75,-115.25 9,-115.25"/>
<text text-anchor="start" x="12" y="-122.45" font-family="Times New Roman,serif" font-weight="bold" font-size="14.00">SeqOneShotSetupShortCutBeforeFocus (2)</text>
<polygon fill="none" stroke="black" points="9,-92.75 9,-115.25 279.75,-115.25 279.75,-92.75 9,-92.75"/>
<text text-anchor="start" x="112.5" y="-99.95" font-family="Times New Roman,serif" font-weight="bold" font-size="14.00">Properties</text>
<polygon fill="none" stroke="black" points="9,-71 9,-92.75 279.75,-92.75 279.75,-71 9,-71"/>
<text text-anchor="start" x="19.12" y="-76.45" font-family="Times New Roman,serif" font-size="14.00">[Bool] ExecuteEveryFrame (default = False) </text>
<polygon fill="none" stroke="black" points="9,-48.5 9,-71 279.75,-71 279.75,-48.5 9,-48.5"/>
<text text-anchor="start" x="125.25" y="-55.7" font-family="Times New Roman,serif" font-weight="bold" font-size="14.00">Inputs</text>
<polygon fill="none" stroke="black" points="9,-26.75 9,-48.5 279.75,-48.5 279.75,-26.75 9,-26.75"/>
<text text-anchor="start" x="33.75" y="-32.2" font-family="Times New Roman,serif" font-size="14.00">[String] Type (default = SpecialPower) </text>
<polygon fill="none" stroke="black" points="8,-25.75 8,-138.75 280.75,-138.75 280.75,-25.75 8,-25.75"/>
</g>
<!-- 3283&#45;&gt;3286 -->
<g id="edge2" class="edge">
<title>3283&#45;&gt;3286</title>
<path fill="none" stroke="firebrick" stroke-width="2" d="M374.95,-202.33C349.87,-190.17 323.07,-176.99 298.38,-164.5 288.15,-159.33 277.59,-153.91 266.99,-148.43"/>
<polygon fill="firebrick" stroke="firebrick" stroke-width="2" points="270.02,-146.06 259.53,-144.56 266.8,-152.27 270.02,-146.06"/>
</g>
<!-- 3289 -->
<g id="node4" class="node">
<title>3289</title>
<polygon fill="none" stroke="black" stroke-width="2" points="641.62,-153.62 307.12,-153.62 307.12,-10.88 641.62,-10.88 641.62,-153.62"/>
<polygon fill="none" stroke="black" points="316.12,-126.12 316.12,-148.62 632.62,-148.62 632.62,-126.12 316.12,-126.12"/>
<text text-anchor="start" x="388.88" y="-133.32" font-family="Times New Roman,serif" font-weight="bold" font-size="14.00">SeqOneShotOpenScreen (3)</text>
<polygon fill="none" stroke="black" points="316.12,-103.62 316.12,-126.12 632.62,-126.12 632.62,-103.62 316.12,-103.62"/>
<text text-anchor="start" x="442.5" y="-110.83" font-family="Times New Roman,serif" font-weight="bold" font-size="14.00">Properties</text>
<polygon fill="none" stroke="black" points="316.12,-81.88 316.12,-103.62 632.62,-103.62 632.62,-81.88 316.12,-81.88"/>
<text text-anchor="start" x="349.12" y="-87.33" font-family="Times New Roman,serif" font-size="14.00">[Bool] ExecuteEveryFrame (default = False) </text>
<polygon fill="none" stroke="black" points="316.12,-59.38 316.12,-81.88 632.62,-81.88 632.62,-59.38 316.12,-59.38"/>
<text text-anchor="start" x="455.25" y="-66.58" font-family="Times New Roman,serif" font-weight="bold" font-size="14.00">Inputs</text>
<polygon fill="none" stroke="black" points="316.12,-37.62 316.12,-59.38 632.62,-59.38 632.62,-37.62 316.12,-37.62"/>
<text text-anchor="start" x="402.75" y="-43.08" font-family="Times New Roman,serif" font-size="14.00">[Int] Option (default = 1) </text>
<polygon fill="none" stroke="black" points="316.12,-15.88 316.12,-37.62 632.62,-37.62 632.62,-15.88 316.12,-15.88"/>
<text text-anchor="start" x="319.12" y="-21.32" font-family="Times New Roman,serif" font-size="14.00">[String] ScreenName (default = ShortCutMainItem_00) </text>
<polygon fill="none" stroke="black" points="315.12,-14.88 315.12,-149.62 633.62,-149.62 633.62,-14.88 315.12,-14.88"/>
</g>
<!-- 3283&#45;&gt;3289 -->
<g id="edge3" class="edge">
<title>3283&#45;&gt;3289</title>
<path fill="none" stroke="firebrick" stroke-width="2" d="M474.38,-201.14C474.38,-189.83 474.38,-177.47 474.38,-165.15"/>
<polygon fill="firebrick" stroke="firebrick" stroke-width="2" points="477.88,-166.91 474.38,-156.91 470.88,-166.91 477.88,-166.91"/>
</g>
<!-- 3292 -->
<g id="node5" class="node">
<title>3292</title>
<polygon fill="none" stroke="black" stroke-width="2" points="1172.88,-164.5 659.88,-164.5 659.88,0 1172.88,0 1172.88,-164.5"/>
<polygon fill="none" stroke="black" points="668.88,-137 668.88,-159.5 1163.88,-159.5 1163.88,-137 668.88,-137"/>
<text text-anchor="start" x="777.62" y="-144.2" font-family="Times New Roman,serif" font-weight="bold" font-size="14.00">SeqOneShotSetNonStructGameDataFloat (4)</text>
<polygon fill="none" stroke="black" points="668.88,-114.5 668.88,-137 1163.88,-137 1163.88,-114.5 668.88,-114.5"/>
<text text-anchor="start" x="884.5" y="-121.7" font-family="Times New Roman,serif" font-weight="bold" font-size="14.00">Properties</text>
<polygon fill="none" stroke="black" points="668.88,-92.75 668.88,-114.5 1163.88,-114.5 1163.88,-92.75 668.88,-92.75"/>
<text text-anchor="start" x="791.12" y="-98.2" font-family="Times New Roman,serif" font-size="14.00">[Bool] ExecuteEveryFrame (default = False) </text>
<polygon fill="none" stroke="black" points="668.88,-70.25 668.88,-92.75 1163.88,-92.75 1163.88,-70.25 668.88,-70.25"/>
<text text-anchor="start" x="897.25" y="-77.45" font-family="Times New Roman,serif" font-weight="bold" font-size="14.00">Inputs</text>
<polygon fill="none" stroke="black" points="668.88,-48.5 668.88,-70.25 1163.88,-70.25 1163.88,-48.5 668.88,-48.5"/>
<text text-anchor="start" x="817" y="-53.95" font-family="Times New Roman,serif" font-size="14.00">[Int] GameDataIndex (default = &#45;1) </text>
<polygon fill="none" stroke="black" points="668.88,-26.75 668.88,-48.5 1163.88,-48.5 1163.88,-26.75 668.88,-26.75"/>
<text text-anchor="start" x="836.5" y="-32.2" font-family="Times New Roman,serif" font-size="14.00">[Float] Value (default = 0.0) </text>
<polygon fill="none" stroke="black" points="668.88,-5 668.88,-26.75 1163.88,-26.75 1163.88,-5 668.88,-5"/>
<text text-anchor="start" x="671.88" y="-10.45" font-family="Times New Roman,serif" font-size="14.00">[String] GameDataFullName (default = Sequence_SpecialPowerShortcutOpenCounter) </text>
<polygon fill="none" stroke="black" points="667.88,-4 667.88,-160.5 1164.88,-160.5 1164.88,-4 667.88,-4"/>
</g>
<!-- 3283&#45;&gt;3292 -->
<g id="edge4" class="edge">
<title>3283&#45;&gt;3292</title>
<path fill="none" stroke="firebrick" stroke-width="2" d="M574.12,-212.18C608.55,-199.21 648.67,-184.09 689.07,-168.88"/>
<polygon fill="firebrick" stroke="firebrick" stroke-width="2" points="688.67,-172.77 696.79,-165.97 686.2,-166.22 688.67,-172.77"/>
</g>
<!-- 3299 -->
<g id="node6" class="node">
<title>3299</title>
<ellipse fill="mediumpurple" stroke="mediumpurple" cx="474.38" cy="-442.75" rx="31.39" ry="18"/>
<text text-anchor="start" x="459.38" y="-438.7" font-family="Times New Roman,serif" font-weight="bold" font-size="14.00" fill="white">Root</text>
</g>
<!-- 3299&#45;&gt;3280 -->
<g id="edge5" class="edge">
<title>3299&#45;&gt;3280</title>
<path fill="none" stroke="black" d="M474.38,-424.56C474.38,-416.98 474.38,-407.85 474.38,-399.29"/>
<polygon fill="black" stroke="black" points="477.88,-399.29 474.38,-389.29 470.88,-399.29 477.88,-399.29"/>
</g>
</g>
</svg>
