<?xml version="1.0" encoding="UTF-8" standalone="no"?>
<!DOCTYPE svg PUBLIC "-//W3C//DTD SVG 1.1//EN"
 "http://www.w3.org/Graphics/SVG/1.1/DTD/svg11.dtd">
<!-- Generated by graphviz version 9.0.0 (20230911.1827)
 -->
<!-- Title: BeforeChangeBanc.module Pages: 1 -->
<svg width="1715pt" height="512pt"
 viewBox="0.00 0.00 1715.00 512.09" xmlns="http://www.w3.org/2000/svg" xmlns:xlink="http://www.w3.org/1999/xlink">
<g id="graph0" class="graph" transform="scale(1 1) rotate(0) translate(4 508.09)">
<title>BeforeChangeBanc.module</title>
<polygon fill="lightgray" stroke="none" points="-4,4 -4,-508.09 1711,-508.09 1711,4 -4,4"/>
<!-- 2074 -->
<g id="node1" class="node">
<title>2074</title>
<polygon fill="none" stroke="black" stroke-width="2" points="874.25,-386.84 675.5,-386.84 675.5,-288.34 874.25,-288.34 874.25,-386.84"/>
<polygon fill="none" stroke="black" points="684.5,-359.34 684.5,-381.84 865.25,-381.84 865.25,-359.34 684.5,-359.34"/>
<text text-anchor="start" x="695" y="-366.54" font-family="Times New Roman,serif" font-weight="bold" font-size="14.00">Element_Simultaneous (1)</text>
<polygon fill="none" stroke="black" points="684.5,-336.84 684.5,-359.34 865.25,-359.34 865.25,-336.84 684.5,-336.84"/>
<text text-anchor="start" x="743" y="-344.04" font-family="Times New Roman,serif" font-weight="bold" font-size="14.00">Properties</text>
<polygon fill="none" stroke="black" points="684.5,-315.09 684.5,-336.84 865.25,-336.84 865.25,-315.09 684.5,-315.09"/>
<text text-anchor="start" x="693.88" y="-320.54" font-family="Times New Roman,serif" font-size="14.00">[Int] EndPolicy (default = 0) </text>
<polygon fill="none" stroke="black" points="684.5,-293.34 684.5,-315.09 865.25,-315.09 865.25,-293.34 684.5,-293.34"/>
<text text-anchor="start" x="687.5" y="-298.79" font-family="Times New Roman,serif" font-size="14.00">[Int] ResultPolicy (default = 0) </text>
<polygon fill="none" stroke="black" points="683.5,-292.34 683.5,-382.84 866.25,-382.84 866.25,-292.34 683.5,-292.34"/>
</g>
<!-- 2077 -->
<g id="node2" class="node">
<title>2077</title>
<polygon fill="none" stroke="black" stroke-width="2" points="472.62,-117.21 315.12,-117.21 315.12,-81.21 472.62,-81.21 472.62,-117.21"/>
<polygon fill="none" stroke="black" points="324.12,-87.96 324.12,-110.46 463.62,-110.46 463.62,-87.96 324.12,-87.96"/>
<text text-anchor="start" x="327.12" y="-95.16" font-family="Times New Roman,serif" font-weight="bold" font-size="14.00">CloseHUD.module (0)</text>
<polygon fill="none" stroke="black" points="323.12,-86.96 323.12,-111.46 464.62,-111.46 464.62,-86.96 323.12,-86.96"/>
</g>
<!-- 2074&#45;&gt;2077 -->
<g id="edge1" class="edge">
<title>2074&#45;&gt;2077</title>
<path fill="none" stroke="firebrick" stroke-width="2" d="M675,-297.83C615.94,-272.45 541.31,-235.93 481.88,-192.34 456.01,-173.36 431.21,-146.32 414.56,-126.44"/>
<polygon fill="firebrick" stroke="firebrick" stroke-width="2" points="418.27,-125.44 409.22,-119.93 412.86,-129.88 418.27,-125.44"/>
</g>
<!-- 2080 -->
<g id="node3" class="node">
<title>2080</title>
<polygon fill="none" stroke="black" stroke-width="2" points="297,-192.34 6.75,-192.34 6.75,-6.09 297,-6.09 297,-192.34"/>
<polygon fill="none" stroke="black" points="15.75,-164.84 15.75,-187.34 288,-187.34 288,-164.84 15.75,-164.84"/>
<text text-anchor="start" x="46.5" y="-172.04" font-family="Times New Roman,serif" font-weight="bold" font-size="14.00">SeqOneShotSetGameDataBool (2)</text>
<polygon fill="none" stroke="black" points="15.75,-142.34 15.75,-164.84 288,-164.84 288,-142.34 15.75,-142.34"/>
<text text-anchor="start" x="120" y="-149.54" font-family="Times New Roman,serif" font-weight="bold" font-size="14.00">Properties</text>
<polygon fill="none" stroke="black" points="15.75,-120.59 15.75,-142.34 288,-142.34 288,-120.59 15.75,-120.59"/>
<text text-anchor="start" x="26.62" y="-126.04" font-family="Times New Roman,serif" font-size="14.00">[Bool] ExecuteEveryFrame (default = False) </text>
<polygon fill="none" stroke="black" points="15.75,-98.09 15.75,-120.59 288,-120.59 288,-98.09 15.75,-98.09"/>
<text text-anchor="start" x="132.75" y="-105.29" font-family="Times New Roman,serif" font-weight="bold" font-size="14.00">Inputs</text>
<polygon fill="none" stroke="black" points="15.75,-76.34 15.75,-98.09 288,-98.09 288,-76.34 15.75,-76.34"/>
<text text-anchor="start" x="52.5" y="-81.79" font-family="Times New Roman,serif" font-size="14.00">[Int] GameDataIndex (default = &#45;1) </text>
<polygon fill="none" stroke="black" points="15.75,-54.59 15.75,-76.34 288,-76.34 288,-54.59 15.75,-54.59"/>
<text text-anchor="start" x="68.25" y="-60.04" font-family="Times New Roman,serif" font-size="14.00">[Bool] Value (default = True) </text>
<polygon fill="none" stroke="black" points="15.75,-32.84 15.75,-54.59 288,-54.59 288,-32.84 15.75,-32.84"/>
<text text-anchor="start" x="18.75" y="-38.29" font-family="Times New Roman,serif" font-size="14.00">[String] GameDataName (default = IsStopLog) </text>
<polygon fill="none" stroke="black" points="15.75,-11.09 15.75,-32.84 288,-32.84 288,-11.09 15.75,-11.09"/>
<text text-anchor="start" x="25.5" y="-16.54" font-family="Times New Roman,serif" font-size="14.00">[const void*] ParentStruct (default = nullptr) </text>
<polygon fill="none" stroke="black" points="14.75,-10.09 14.75,-188.34 289,-188.34 289,-10.09 14.75,-10.09"/>
</g>
<!-- 2074&#45;&gt;2080 -->
<g id="edge2" class="edge">
<title>2074&#45;&gt;2080</title>
<path fill="none" stroke="firebrick" stroke-width="2" d="M675.37,-313.41C581.22,-289.82 436.71,-249.27 307.75,-193.02"/>
<polygon fill="firebrick" stroke="firebrick" stroke-width="2" points="310.64,-190.47 300.07,-189.64 307.81,-196.87 310.64,-190.47"/>
</g>
<!-- 2086 -->
<g id="node4" class="node">
<title>2086</title>
<polygon fill="none" stroke="black" stroke-width="2" points="765.12,-137.59 490.62,-137.59 490.62,-60.84 765.12,-60.84 765.12,-137.59"/>
<polygon fill="none" stroke="black" points="499.62,-110.09 499.62,-132.59 756.12,-132.59 756.12,-110.09 499.62,-110.09"/>
<text text-anchor="start" x="502.62" y="-117.29" font-family="Times New Roman,serif" font-weight="bold" font-size="14.00">SeqExecuteSetIsEnableUpdateSensor (4)</text>
<polygon fill="none" stroke="black" points="499.62,-87.59 499.62,-110.09 756.12,-110.09 756.12,-87.59 499.62,-87.59"/>
<text text-anchor="start" x="608.75" y="-94.79" font-family="Times New Roman,serif" font-weight="bold" font-size="14.00">Inputs</text>
<polygon fill="none" stroke="black" points="499.62,-65.84 499.62,-87.59 756.12,-87.59 756.12,-65.84 499.62,-65.84"/>
<text text-anchor="start" x="534.5" y="-71.29" font-family="Times New Roman,serif" font-size="14.00">[Bool] IsEnable (default = False) </text>
<polygon fill="none" stroke="black" points="498.62,-64.84 498.62,-133.59 757.12,-133.59 757.12,-64.84 498.62,-64.84"/>
</g>
<!-- 2074&#45;&gt;2086 -->
<g id="edge3" class="edge">
<title>2074&#45;&gt;2086</title>
<path fill="none" stroke="firebrick" stroke-width="2" d="M744.59,-287.9C719.05,-246.82 682.7,-188.37 657.38,-147.65"/>
<polygon fill="firebrick" stroke="firebrick" stroke-width="2" points="661.2,-147.17 652.95,-140.53 655.26,-150.87 661.2,-147.17"/>
</g>
<!-- 2089 -->
<g id="node5" class="node">
<title>2089</title>
<polygon fill="none" stroke="black" stroke-width="2" points="1058.12,-137.59 783.62,-137.59 783.62,-60.84 1058.12,-60.84 1058.12,-137.59"/>
<polygon fill="none" stroke="black" points="792.62,-110.09 792.62,-132.59 1049.12,-132.59 1049.12,-110.09 792.62,-110.09"/>
<text text-anchor="start" x="806.12" y="-117.29" font-family="Times New Roman,serif" font-weight="bold" font-size="14.00">SeqOneShotResetBancWorkTime (5)</text>
<polygon fill="none" stroke="black" points="792.62,-87.59 792.62,-110.09 1049.12,-110.09 1049.12,-87.59 792.62,-87.59"/>
<text text-anchor="start" x="889" y="-94.79" font-family="Times New Roman,serif" font-weight="bold" font-size="14.00">Properties</text>
<polygon fill="none" stroke="black" points="792.62,-65.84 792.62,-87.59 1049.12,-87.59 1049.12,-65.84 792.62,-65.84"/>
<text text-anchor="start" x="795.62" y="-71.29" font-family="Times New Roman,serif" font-size="14.00">[Bool] ExecuteEveryFrame (default = False) </text>
<polygon fill="none" stroke="black" points="791.62,-64.84 791.62,-133.59 1050.12,-133.59 1050.12,-64.84 791.62,-64.84"/>
</g>
<!-- 2074&#45;&gt;2089 -->
<g id="edge4" class="edge">
<title>2074&#45;&gt;2089</title>
<path fill="none" stroke="firebrick" stroke-width="2" d="M804.95,-287.9C830.32,-246.82 866.42,-188.37 891.57,-147.65"/>
<polygon fill="firebrick" stroke="firebrick" stroke-width="2" points="893.69,-150.88 895.97,-140.54 887.73,-147.2 893.69,-150.88"/>
</g>
<!-- 2092 -->
<g id="node6" class="node">
<title>2092</title>
<polygon fill="none" stroke="black" stroke-width="2" points="1351.12,-137.59 1076.62,-137.59 1076.62,-60.84 1351.12,-60.84 1351.12,-137.59"/>
<polygon fill="none" stroke="black" points="1085.62,-110.09 1085.62,-132.59 1342.12,-132.59 1342.12,-110.09 1085.62,-110.09"/>
<text text-anchor="start" x="1088.62" y="-117.29" font-family="Times New Roman,serif" font-weight="bold" font-size="14.00">SeqOneShotFinalizeCaveMarkerMgr (6)</text>
<polygon fill="none" stroke="black" points="1085.62,-87.59 1085.62,-110.09 1342.12,-110.09 1342.12,-87.59 1085.62,-87.59"/>
<text text-anchor="start" x="1182" y="-94.79" font-family="Times New Roman,serif" font-weight="bold" font-size="14.00">Properties</text>
<polygon fill="none" stroke="black" points="1085.62,-65.84 1085.62,-87.59 1342.12,-87.59 1342.12,-65.84 1085.62,-65.84"/>
<text text-anchor="start" x="1088.62" y="-71.29" font-family="Times New Roman,serif" font-size="14.00">[Bool] ExecuteEveryFrame (default = False) </text>
<polygon fill="none" stroke="black" points="1084.62,-64.84 1084.62,-133.59 1343.12,-133.59 1343.12,-64.84 1084.62,-64.84"/>
</g>
<!-- 2074&#45;&gt;2092 -->
<g id="edge5" class="edge">
<title>2074&#45;&gt;2092</title>
<path fill="none" stroke="firebrick" stroke-width="2" d="M874.49,-290.45C931.54,-263.27 1004.06,-227.42 1066.88,-192.34 1093.57,-177.43 1122.21,-159.85 1147.06,-144.08"/>
<polygon fill="firebrick" stroke="firebrick" stroke-width="2" points="1147.64,-147.86 1154.19,-139.53 1143.87,-141.96 1147.64,-147.86"/>
</g>
<!-- 2095 -->
<g id="node7" class="node">
<title>2095</title>
<polygon fill="none" stroke="black" stroke-width="2" points="1707,-159.71 1368.75,-159.71 1368.75,-38.71 1707,-38.71 1707,-159.71"/>
<polygon fill="none" stroke="black" points="1377.75,-132.21 1377.75,-154.71 1698,-154.71 1698,-132.21 1377.75,-132.21"/>
<text text-anchor="start" x="1380.75" y="-139.41" font-family="Times New Roman,serif" font-weight="bold" font-size="14.00">SeqOneShotSetBancLoadingInfoForPlayReport (7)</text>
<polygon fill="none" stroke="black" points="1377.75,-109.71 1377.75,-132.21 1698,-132.21 1698,-109.71 1377.75,-109.71"/>
<text text-anchor="start" x="1506" y="-116.91" font-family="Times New Roman,serif" font-weight="bold" font-size="14.00">Properties</text>
<polygon fill="none" stroke="black" points="1377.75,-87.96 1377.75,-109.71 1698,-109.71 1698,-87.96 1377.75,-87.96"/>
<text text-anchor="start" x="1412.62" y="-93.41" font-family="Times New Roman,serif" font-size="14.00">[Bool] ExecuteEveryFrame (default = False) </text>
<polygon fill="none" stroke="black" points="1377.75,-65.46 1377.75,-87.96 1698,-87.96 1698,-65.46 1377.75,-65.46"/>
<text text-anchor="start" x="1518.75" y="-72.66" font-family="Times New Roman,serif" font-weight="bold" font-size="14.00">Inputs</text>
<polygon fill="none" stroke="black" points="1377.75,-43.71 1377.75,-65.46 1698,-65.46 1698,-43.71 1377.75,-43.71"/>
<text text-anchor="start" x="1456.5" y="-49.16" font-family="Times New Roman,serif" font-size="14.00">[Bool] Bool (default = True) </text>
<polygon fill="none" stroke="black" points="1376.75,-42.71 1376.75,-155.71 1699,-155.71 1699,-42.71 1376.75,-42.71"/>
</g>
<!-- 2074&#45;&gt;2095 -->
<g id="edge6" class="edge">
<title>2074&#45;&gt;2095</title>
<path fill="none" stroke="firebrick" stroke-width="2" d="M874.57,-319.44C992.76,-297.43 1194.53,-254.51 1359.88,-192.34 1380.35,-184.64 1401.51,-175.16 1421.78,-165.25"/>
<polygon fill="firebrick" stroke="firebrick" stroke-width="2" points="1421.85,-169.12 1429.25,-161.54 1418.74,-162.85 1421.85,-169.12"/>
</g>
<!-- 2083 -->
<g id="node8" class="node">
<title>2083</title>
<polygon fill="none" stroke="black" stroke-width="2" points="303.75,-431.09 0,-431.09 0,-244.09 303.75,-244.09 303.75,-431.09"/>
<polygon fill="none" stroke="black" points="9,-403.59 9,-426.09 294.75,-426.09 294.75,-403.59 9,-403.59"/>
<text text-anchor="start" x="16.5" y="-410.79" font-family="Times New Roman,serif" font-weight="bold" font-size="14.00">SeqQueryGetNonStructGameDataStruct (3)</text>
<polygon fill="none" stroke="black" points="9,-381.09 9,-403.59 294.75,-403.59 294.75,-381.09 9,-381.09"/>
<text text-anchor="start" x="120" y="-388.29" font-family="Times New Roman,serif" font-weight="bold" font-size="14.00">Properties</text>
<polygon fill="none" stroke="black" points="9,-359.34 9,-381.09 294.75,-381.09 294.75,-359.34 9,-359.34"/>
<text text-anchor="start" x="26.25" y="-364.79" font-family="Times New Roman,serif" font-size="14.00">[Bool] OutputOnlyOnEnter (default = False) </text>
<polygon fill="none" stroke="black" points="9,-336.84 9,-359.34 294.75,-359.34 294.75,-336.84 9,-336.84"/>
<text text-anchor="start" x="132.75" y="-344.04" font-family="Times New Roman,serif" font-weight="bold" font-size="14.00">Inputs</text>
<polygon fill="none" stroke="black" points="9,-315.09 9,-336.84 294.75,-336.84 294.75,-315.09 9,-315.09"/>
<text text-anchor="start" x="52.5" y="-320.54" font-family="Times New Roman,serif" font-size="14.00">[Int] GameDataIndex (default = &#45;1) </text>
<polygon fill="none" stroke="black" points="9,-293.34 9,-315.09 294.75,-315.09 294.75,-293.34 9,-293.34"/>
<text text-anchor="start" x="12" y="-298.79" font-family="Times New Roman,serif" font-size="14.00">[String] GameDataFullName (default = Footprint) </text>
<polygon fill="none" stroke="black" points="9,-270.84 9,-293.34 294.75,-293.34 294.75,-270.84 9,-270.84"/>
<text text-anchor="start" x="127.5" y="-278.04" font-family="Times New Roman,serif" font-weight="bold" font-size="14.00">Outputs</text>
<polygon fill="none" stroke="black" points="9,-249.09 9,-270.84 294.75,-270.84 294.75,-249.09 9,-249.09"/>
<text text-anchor="start" x="44.25" y="-254.54" font-family="Times New Roman,serif" font-size="14.00">[const void*] Value (default = nullptr) </text>
<polygon fill="none" stroke="black" points="8,-248.09 8,-427.09 295.75,-427.09 295.75,-248.09 8,-248.09"/>
</g>
<!-- 2083&#45;&gt;2080 -->
<g id="edge7" class="edge">
<title>2083:2102&#45;&gt;2080:2099</title>
<path fill="none" stroke="#008000" stroke-dasharray="5,2" d="M151.88,-247.59C151.88,-213.13 187.69,-222.64 219.88,-210.34 252.75,-197.76 275.12,-219.91 297,-192.34 303.25,-184.45 304.09,-18.35 297,-11.21 287.5,-1.65 192.47,3.89 161.55,-3.96"/>
<polygon fill="#008000" stroke="#008000" points="159.65,-1.02 153.15,-9.39 163.45,-6.9 159.65,-1.02"/>
<text text-anchor="middle" x="254.38" y="-212.79" font-family="Times New Roman,serif" font-size="14.00" fill="#008000">ParentStruct</text>
</g>
<!-- 2105 -->
<g id="node9" class="node">
<title>2105</title>
<ellipse fill="mediumpurple" stroke="mediumpurple" cx="774.88" cy="-486.09" rx="31.39" ry="18"/>
<text text-anchor="start" x="759.88" y="-482.04" font-family="Times New Roman,serif" font-weight="bold" font-size="14.00" fill="white">Root</text>
</g>
<!-- 2105&#45;&gt;2074 -->
<g id="edge8" class="edge">
<title>2105&#45;&gt;2074</title>
<path fill="none" stroke="black" d="M774.88,-467.71C774.88,-450.62 774.88,-423.54 774.88,-398.58"/>
<polygon fill="black" stroke="black" points="778.38,-398.82 774.88,-388.82 771.38,-398.82 778.38,-398.82"/>
</g>
</g>
</svg>
