<?xml version="1.0" encoding="UTF-8" standalone="no"?>
<!DOCTYPE svg PUBLIC "-//W3C//DTD SVG 1.1//EN"
 "http://www.w3.org/Graphics/SVG/1.1/DTD/svg11.dtd">
<!-- Generated by graphviz version 9.0.0 (20230911.1827)
 -->
<!-- Title: BeforeAutoBuilderShortcut.module Pages: 1 -->
<svg width="3475pt" height="686pt"
 viewBox="0.00 0.00 3475.38 685.75" xmlns="http://www.w3.org/2000/svg" xmlns:xlink="http://www.w3.org/1999/xlink">
<g id="graph0" class="graph" transform="scale(1 1) rotate(0) translate(4 681.75)">
<title>BeforeAutoBuilderShortcut.module</title>
<polygon fill="lightgray" stroke="none" points="-4,4 -4,-681.75 3471.38,-681.75 3471.38,4 -4,4"/>
<!-- 1973 -->
<g id="node1" class="node">
<title>1973</title>
<polygon fill="none" stroke="black" stroke-width="2" points="1395,-560.5 1196.25,-560.5 1196.25,-462 1395,-462 1395,-560.5"/>
<polygon fill="none" stroke="black" points="1205.25,-533 1205.25,-555.5 1386,-555.5 1386,-533 1205.25,-533"/>
<text text-anchor="start" x="1215.75" y="-540.2" font-family="Times New Roman,serif" font-weight="bold" font-size="14.00">Element_Simultaneous (0)</text>
<polygon fill="none" stroke="black" points="1205.25,-510.5 1205.25,-533 1386,-533 1386,-510.5 1205.25,-510.5"/>
<text text-anchor="start" x="1263.75" y="-517.7" font-family="Times New Roman,serif" font-weight="bold" font-size="14.00">Properties</text>
<polygon fill="none" stroke="black" points="1205.25,-488.75 1205.25,-510.5 1386,-510.5 1386,-488.75 1205.25,-488.75"/>
<text text-anchor="start" x="1214.62" y="-494.2" font-family="Times New Roman,serif" font-size="14.00">[Int] EndPolicy (default = 0) </text>
<polygon fill="none" stroke="black" points="1205.25,-467 1205.25,-488.75 1386,-488.75 1386,-467 1205.25,-467"/>
<text text-anchor="start" x="1208.25" y="-472.45" font-family="Times New Roman,serif" font-size="14.00">[Int] ResultPolicy (default = 0) </text>
<polygon fill="none" stroke="black" points="1204.25,-466 1204.25,-556.5 1387,-556.5 1387,-466 1204.25,-466"/>
</g>
<!-- 1976 -->
<g id="node2" class="node">
<title>1976</title>
<polygon fill="none" stroke="black" stroke-width="2" points="1171.75,-333.38 869.5,-333.38 869.5,-212.38 1171.75,-212.38 1171.75,-333.38"/>
<polygon fill="none" stroke="black" points="878.5,-305.88 878.5,-328.38 1162.75,-328.38 1162.75,-305.88 878.5,-305.88"/>
<text text-anchor="start" x="925.75" y="-313.07" font-family="Times New Roman,serif" font-weight="bold" font-size="14.00">SeqOneShotRequestPause (12)</text>
<polygon fill="none" stroke="black" points="878.5,-283.38 878.5,-305.88 1162.75,-305.88 1162.75,-283.38 878.5,-283.38"/>
<text text-anchor="start" x="988.75" y="-290.57" font-family="Times New Roman,serif" font-weight="bold" font-size="14.00">Properties</text>
<polygon fill="none" stroke="black" points="878.5,-261.62 878.5,-283.38 1162.75,-283.38 1162.75,-261.62 878.5,-261.62"/>
<text text-anchor="start" x="895.38" y="-267.07" font-family="Times New Roman,serif" font-size="14.00">[Bool] ExecuteEveryFrame (default = False) </text>
<polygon fill="none" stroke="black" points="878.5,-239.12 878.5,-261.62 1162.75,-261.62 1162.75,-239.12 878.5,-239.12"/>
<text text-anchor="start" x="1001.5" y="-246.32" font-family="Times New Roman,serif" font-weight="bold" font-size="14.00">Inputs</text>
<polygon fill="none" stroke="black" points="878.5,-217.38 878.5,-239.12 1162.75,-239.12 1162.75,-217.38 878.5,-217.38"/>
<text text-anchor="start" x="881.5" y="-222.82" font-family="Times New Roman,serif" font-size="14.00">[String] PauseType (default = AutoBuilderPause) </text>
<polygon fill="none" stroke="black" points="877.5,-216.38 877.5,-329.38 1163.75,-329.38 1163.75,-216.38 877.5,-216.38"/>
</g>
<!-- 1973&#45;&gt;1976 -->
<g id="edge1" class="edge">
<title>1973&#45;&gt;1976</title>
<path fill="none" stroke="firebrick" stroke-width="2" d="M1238.98,-461.56C1198.51,-426.77 1143.54,-379.52 1098.88,-341.14"/>
<polygon fill="firebrick" stroke="firebrick" stroke-width="2" points="1102.54,-339.67 1092.67,-335.8 1097.98,-344.98 1102.54,-339.67"/>
</g>
<!-- 1979 -->
<g id="node3" class="node">
<title>1979</title>
<polygon fill="none" stroke="black" stroke-width="2" points="1401.38,-311.25 1189.88,-311.25 1189.88,-234.5 1401.38,-234.5 1401.38,-311.25"/>
<polygon fill="none" stroke="black" points="1198.88,-283.75 1198.88,-306.25 1392.38,-306.25 1392.38,-283.75 1198.88,-283.75"/>
<text text-anchor="start" x="1215.75" y="-290.95" font-family="Times New Roman,serif" font-weight="bold" font-size="14.00">SetVisibleHUD.module (1)</text>
<polygon fill="none" stroke="black" points="1198.88,-261.25 1198.88,-283.75 1392.38,-283.75 1392.38,-261.25 1198.88,-261.25"/>
<text text-anchor="start" x="1276.5" y="-268.45" font-family="Times New Roman,serif" font-weight="bold" font-size="14.00">Inputs</text>
<polygon fill="none" stroke="black" points="1198.88,-239.5 1198.88,-261.25 1392.38,-261.25 1392.38,-239.5 1198.88,-239.5"/>
<text text-anchor="start" x="1201.88" y="-244.95" font-family="Times New Roman,serif" font-size="14.00">[Bool] IsVisible (default = False) </text>
<polygon fill="none" stroke="black" points="1197.88,-238.5 1197.88,-307.25 1393.38,-307.25 1393.38,-238.5 1197.88,-238.5"/>
</g>
<!-- 1973&#45;&gt;1979 -->
<g id="edge2" class="edge">
<title>1973&#45;&gt;1979</title>
<path fill="none" stroke="firebrick" stroke-width="2" d="M1295.62,-461.56C1295.62,-421.09 1295.62,-363.76 1295.62,-323.14"/>
<polygon fill="firebrick" stroke="firebrick" stroke-width="2" points="1299.13,-324.65 1295.63,-314.65 1292.13,-324.65 1299.13,-324.65"/>
</g>
<!-- 1982 -->
<g id="node4" class="node">
<title>1982</title>
<polygon fill="none" stroke="black" stroke-width="2" points="1618,-322.12 1419.25,-322.12 1419.25,-223.62 1618,-223.62 1618,-322.12"/>
<polygon fill="none" stroke="black" points="1428.25,-294.62 1428.25,-317.12 1609,-317.12 1609,-294.62 1428.25,-294.62"/>
<text text-anchor="start" x="1438.75" y="-301.82" font-family="Times New Roman,serif" font-weight="bold" font-size="14.00">Element_Simultaneous (3)</text>
<polygon fill="none" stroke="black" points="1428.25,-272.12 1428.25,-294.62 1609,-294.62 1609,-272.12 1428.25,-272.12"/>
<text text-anchor="start" x="1486.75" y="-279.32" font-family="Times New Roman,serif" font-weight="bold" font-size="14.00">Properties</text>
<polygon fill="none" stroke="black" points="1428.25,-250.38 1428.25,-272.12 1609,-272.12 1609,-250.38 1428.25,-250.38"/>
<text text-anchor="start" x="1437.62" y="-255.82" font-family="Times New Roman,serif" font-size="14.00">[Int] EndPolicy (default = 0) </text>
<polygon fill="none" stroke="black" points="1428.25,-228.62 1428.25,-250.38 1609,-250.38 1609,-228.62 1428.25,-228.62"/>
<text text-anchor="start" x="1431.25" y="-234.07" font-family="Times New Roman,serif" font-size="14.00">[Int] ResultPolicy (default = 0) </text>
<polygon fill="none" stroke="black" points="1427.25,-227.62 1427.25,-318.12 1610,-318.12 1610,-227.62 1427.25,-227.62"/>
</g>
<!-- 1973&#45;&gt;1982 -->
<g id="edge3" class="edge">
<title>1973&#45;&gt;1982</title>
<path fill="none" stroke="firebrick" stroke-width="2" d="M1341.56,-461.56C1377.39,-423.58 1427.23,-370.75 1464.9,-330.82"/>
<polygon fill="firebrick" stroke="firebrick" stroke-width="2" points="1466.36,-334.38 1470.67,-324.7 1461.26,-329.58 1466.36,-334.38"/>
</g>
<!-- 2012 -->
<g id="node5" class="node">
<title>2012</title>
<polygon fill="none" stroke="black" stroke-width="2" points="3024,-322.12 2825.25,-322.12 2825.25,-223.62 3024,-223.62 3024,-322.12"/>
<polygon fill="none" stroke="black" points="2834.25,-294.62 2834.25,-317.12 3015,-317.12 3015,-294.62 2834.25,-294.62"/>
<text text-anchor="start" x="2841" y="-301.82" font-family="Times New Roman,serif" font-weight="bold" font-size="14.00">Element_Simultaneous (17)</text>
<polygon fill="none" stroke="black" points="2834.25,-272.12 2834.25,-294.62 3015,-294.62 3015,-272.12 2834.25,-272.12"/>
<text text-anchor="start" x="2892.75" y="-279.32" font-family="Times New Roman,serif" font-weight="bold" font-size="14.00">Properties</text>
<polygon fill="none" stroke="black" points="2834.25,-250.38 2834.25,-272.12 3015,-272.12 3015,-250.38 2834.25,-250.38"/>
<text text-anchor="start" x="2843.62" y="-255.82" font-family="Times New Roman,serif" font-size="14.00">[Int] EndPolicy (default = 0) </text>
<polygon fill="none" stroke="black" points="2834.25,-228.62 2834.25,-250.38 3015,-250.38 3015,-228.62 2834.25,-228.62"/>
<text text-anchor="start" x="2837.25" y="-234.07" font-family="Times New Roman,serif" font-size="14.00">[Int] ResultPolicy (default = 0) </text>
<polygon fill="none" stroke="black" points="2833.25,-227.62 2833.25,-318.12 3016,-318.12 3016,-227.62 2833.25,-227.62"/>
</g>
<!-- 1973&#45;&gt;2012 -->
<g id="edge4" class="edge">
<title>1973&#45;&gt;2012</title>
<path fill="none" stroke="firebrick" stroke-width="2" d="M1395.38,-495.78C1682.98,-454.04 2512.4,-333.69 2813.63,-289.98"/>
<polygon fill="firebrick" stroke="firebrick" stroke-width="2" points="2812.59,-293.67 2821.99,-288.77 2811.59,-286.74 2812.59,-293.67"/>
</g>
<!-- 2021 -->
<g id="node6" class="node">
<title>2021</title>
<polygon fill="none" stroke="black" stroke-width="2" points="851.5,-366 451.75,-366 451.75,-179.75 851.5,-179.75 851.5,-366"/>
<polygon fill="none" stroke="black" points="460.75,-338.5 460.75,-361 842.5,-361 842.5,-338.5 460.75,-338.5"/>
<text text-anchor="start" x="542.5" y="-345.7" font-family="Times New Roman,serif" font-weight="bold" font-size="14.00">SeqOneShotSetGameDataBool (14)</text>
<polygon fill="none" stroke="black" points="460.75,-316 460.75,-338.5 842.5,-338.5 842.5,-316 460.75,-316"/>
<text text-anchor="start" x="619.75" y="-323.2" font-family="Times New Roman,serif" font-weight="bold" font-size="14.00">Properties</text>
<polygon fill="none" stroke="black" points="460.75,-294.25 460.75,-316 842.5,-316 842.5,-294.25 460.75,-294.25"/>
<text text-anchor="start" x="526.38" y="-299.7" font-family="Times New Roman,serif" font-size="14.00">[Bool] ExecuteEveryFrame (default = False) </text>
<polygon fill="none" stroke="black" points="460.75,-271.75 460.75,-294.25 842.5,-294.25 842.5,-271.75 460.75,-271.75"/>
<text text-anchor="start" x="632.5" y="-278.95" font-family="Times New Roman,serif" font-weight="bold" font-size="14.00">Inputs</text>
<polygon fill="none" stroke="black" points="460.75,-250 460.75,-271.75 842.5,-271.75 842.5,-250 460.75,-250"/>
<text text-anchor="start" x="552.25" y="-255.45" font-family="Times New Roman,serif" font-size="14.00">[Int] GameDataIndex (default = &#45;1) </text>
<polygon fill="none" stroke="black" points="460.75,-228.25 460.75,-250 842.5,-250 842.5,-228.25 460.75,-228.25"/>
<text text-anchor="start" x="566.5" y="-233.7" font-family="Times New Roman,serif" font-size="14.00">[Bool] Value (default = False) </text>
<polygon fill="none" stroke="black" points="460.75,-206.5 460.75,-228.25 842.5,-228.25 842.5,-206.5 460.75,-206.5"/>
<text text-anchor="start" x="463.75" y="-211.95" font-family="Times New Roman,serif" font-size="14.00">[String] GameDataName (default = IsNeedSelectAutoBuilderDraft) </text>
<polygon fill="none" stroke="black" points="460.75,-184.75 460.75,-206.5 842.5,-206.5 842.5,-184.75 460.75,-184.75"/>
<text text-anchor="start" x="525.25" y="-190.2" font-family="Times New Roman,serif" font-size="14.00">[const void*] ParentStruct (default = nullptr) </text>
<polygon fill="none" stroke="black" points="459.75,-183.75 459.75,-362 843.5,-362 843.5,-183.75 459.75,-183.75"/>
</g>
<!-- 1973&#45;&gt;2021 -->
<g id="edge5" class="edge">
<title>1973&#45;&gt;2021</title>
<path fill="none" stroke="firebrick" stroke-width="2" d="M1195.77,-480.1C1109.49,-453.38 981.53,-412.1 862.37,-366.62"/>
<polygon fill="firebrick" stroke="firebrick" stroke-width="2" points="865.39,-364.03 854.8,-363.72 862.88,-370.57 865.39,-364.03"/>
</g>
<!-- 1985 -->
<g id="node7" class="node">
<title>1985</title>
<polygon fill="none" stroke="black" stroke-width="2" points="281.25,-142.75 0,-142.75 0,0 281.25,0 281.25,-142.75"/>
<polygon fill="none" stroke="black" points="9,-115.25 9,-137.75 272.25,-137.75 272.25,-115.25 9,-115.25"/>
<text text-anchor="start" x="41.25" y="-122.45" font-family="Times New Roman,serif" font-weight="bold" font-size="14.00">SeqOneShotSetScreenVisible (2)</text>
<polygon fill="none" stroke="black" points="9,-92.75 9,-115.25 272.25,-115.25 272.25,-92.75 9,-92.75"/>
<text text-anchor="start" x="108.75" y="-99.95" font-family="Times New Roman,serif" font-weight="bold" font-size="14.00">Properties</text>
<polygon fill="none" stroke="black" points="9,-71 9,-92.75 272.25,-92.75 272.25,-71 9,-71"/>
<text text-anchor="start" x="15.38" y="-76.45" font-family="Times New Roman,serif" font-size="14.00">[Bool] ExecuteEveryFrame (default = False) </text>
<polygon fill="none" stroke="black" points="9,-48.5 9,-71 272.25,-71 272.25,-48.5 9,-48.5"/>
<text text-anchor="start" x="121.5" y="-55.7" font-family="Times New Roman,serif" font-weight="bold" font-size="14.00">Inputs</text>
<polygon fill="none" stroke="black" points="9,-26.75 9,-48.5 272.25,-48.5 272.25,-26.75 9,-26.75"/>
<text text-anchor="start" x="46.88" y="-32.2" font-family="Times New Roman,serif" font-size="14.00">[Bool] IsVisible (default = False) </text>
<polygon fill="none" stroke="black" points="9,-5 9,-26.75 272.25,-26.75 272.25,-5 9,-5"/>
<text text-anchor="start" x="12" y="-10.45" font-family="Times New Roman,serif" font-size="14.00">[String] ScreenName (default = AppMap_00) </text>
<polygon fill="none" stroke="black" points="8,-4 8,-138.75 273.25,-138.75 273.25,-4 8,-4"/>
</g>
<!-- 1982&#45;&gt;1985 -->
<g id="edge6" class="edge">
<title>1982&#45;&gt;1985</title>
<path fill="none" stroke="firebrick" stroke-width="2" d="M1475.41,-223.29C1457.26,-206.28 1434.75,-189.1 1410.62,-179.75 1354.62,-158.05 421.39,-157.41 292.67,-142.44"/>
<polygon fill="firebrick" stroke="firebrick" stroke-width="2" points="295.09,-139.28 284.67,-141.17 293.99,-146.19 295.09,-139.28"/>
</g>
<!-- 1988 -->
<g id="node8" class="node">
<title>1988</title>
<polygon fill="none" stroke="black" stroke-width="2" points="580.25,-142.75 299,-142.75 299,0 580.25,0 580.25,-142.75"/>
<polygon fill="none" stroke="black" points="308,-115.25 308,-137.75 571.25,-137.75 571.25,-115.25 308,-115.25"/>
<text text-anchor="start" x="340.25" y="-122.45" font-family="Times New Roman,serif" font-weight="bold" font-size="14.00">SeqOneShotSetScreenVisible (4)</text>
<polygon fill="none" stroke="black" points="308,-92.75 308,-115.25 571.25,-115.25 571.25,-92.75 308,-92.75"/>
<text text-anchor="start" x="407.75" y="-99.95" font-family="Times New Roman,serif" font-weight="bold" font-size="14.00">Properties</text>
<polygon fill="none" stroke="black" points="308,-71 308,-92.75 571.25,-92.75 571.25,-71 308,-71"/>
<text text-anchor="start" x="314.38" y="-76.45" font-family="Times New Roman,serif" font-size="14.00">[Bool] ExecuteEveryFrame (default = False) </text>
<polygon fill="none" stroke="black" points="308,-48.5 308,-71 571.25,-71 571.25,-48.5 308,-48.5"/>
<text text-anchor="start" x="420.5" y="-55.7" font-family="Times New Roman,serif" font-weight="bold" font-size="14.00">Inputs</text>
<polygon fill="none" stroke="black" points="308,-26.75 308,-48.5 571.25,-48.5 571.25,-26.75 308,-26.75"/>
<text text-anchor="start" x="347.38" y="-32.2" font-family="Times New Roman,serif" font-size="14.00">[Bool] IsVisible (default = True) </text>
<polygon fill="none" stroke="black" points="308,-5 308,-26.75 571.25,-26.75 571.25,-5 308,-5"/>
<text text-anchor="start" x="311" y="-10.45" font-family="Times New Roman,serif" font-size="14.00">[String] ScreenName (default = BossLife_00) </text>
<polygon fill="none" stroke="black" points="307,-4 307,-138.75 572.25,-138.75 572.25,-4 307,-4"/>
</g>
<!-- 1982&#45;&gt;1988 -->
<g id="edge7" class="edge">
<title>1982&#45;&gt;1988</title>
<path fill="none" stroke="firebrick" stroke-width="2" d="M1475.09,-223.2C1456.98,-206.28 1434.58,-189.2 1410.62,-179.75 1328.31,-147.29 718.56,-163.62 591.72,-142.85"/>
<polygon fill="firebrick" stroke="firebrick" stroke-width="2" points="594.15,-139.76 583.66,-141.24 592.78,-146.63 594.15,-139.76"/>
</g>
<!-- 1991 -->
<g id="node9" class="node">
<title>1991</title>
<polygon fill="none" stroke="black" stroke-width="2" points="883.12,-142.75 598.12,-142.75 598.12,0 883.12,0 883.12,-142.75"/>
<polygon fill="none" stroke="black" points="607.12,-115.25 607.12,-137.75 874.12,-137.75 874.12,-115.25 607.12,-115.25"/>
<text text-anchor="start" x="641.25" y="-122.45" font-family="Times New Roman,serif" font-weight="bold" font-size="14.00">SeqOneShotSetScreenVisible (5)</text>
<polygon fill="none" stroke="black" points="607.12,-92.75 607.12,-115.25 874.12,-115.25 874.12,-92.75 607.12,-92.75"/>
<text text-anchor="start" x="708.75" y="-99.95" font-family="Times New Roman,serif" font-weight="bold" font-size="14.00">Properties</text>
<polygon fill="none" stroke="black" points="607.12,-71 607.12,-92.75 874.12,-92.75 874.12,-71 607.12,-71"/>
<text text-anchor="start" x="615.38" y="-76.45" font-family="Times New Roman,serif" font-size="14.00">[Bool] ExecuteEveryFrame (default = False) </text>
<polygon fill="none" stroke="black" points="607.12,-48.5 607.12,-71 874.12,-71 874.12,-48.5 607.12,-48.5"/>
<text text-anchor="start" x="721.5" y="-55.7" font-family="Times New Roman,serif" font-weight="bold" font-size="14.00">Inputs</text>
<polygon fill="none" stroke="black" points="607.12,-26.75 607.12,-48.5 874.12,-48.5 874.12,-26.75 607.12,-26.75"/>
<text text-anchor="start" x="648.38" y="-32.2" font-family="Times New Roman,serif" font-size="14.00">[Bool] IsVisible (default = True) </text>
<polygon fill="none" stroke="black" points="607.12,-5 607.12,-26.75 874.12,-26.75 874.12,-5 607.12,-5"/>
<text text-anchor="start" x="610.12" y="-10.45" font-family="Times New Roman,serif" font-size="14.00">[String] ScreenName (default = Challenge_00) </text>
<polygon fill="none" stroke="black" points="606.12,-4 606.12,-138.75 875.12,-138.75 875.12,-4 606.12,-4"/>
</g>
<!-- 1982&#45;&gt;1991 -->
<g id="edge8" class="edge">
<title>1982&#45;&gt;1991</title>
<path fill="none" stroke="firebrick" stroke-width="2" d="M1474.7,-223.28C1456.62,-206.49 1434.34,-189.46 1410.62,-179.75 1306.76,-137.21 1020.97,-169.73 894.61,-143.12"/>
<polygon fill="firebrick" stroke="firebrick" stroke-width="2" points="897.1,-140.11 886.57,-141.24 895.5,-146.93 897.1,-140.11"/>
</g>
<!-- 1994 -->
<g id="node10" class="node">
<title>1994</title>
<polygon fill="none" stroke="black" stroke-width="2" points="1200.25,-142.75 901,-142.75 901,0 1200.25,0 1200.25,-142.75"/>
<polygon fill="none" stroke="black" points="910,-115.25 910,-137.75 1191.25,-137.75 1191.25,-115.25 910,-115.25"/>
<text text-anchor="start" x="951.25" y="-122.45" font-family="Times New Roman,serif" font-weight="bold" font-size="14.00">SeqOneShotSetScreenVisible (6)</text>
<polygon fill="none" stroke="black" points="910,-92.75 910,-115.25 1191.25,-115.25 1191.25,-92.75 910,-92.75"/>
<text text-anchor="start" x="1018.75" y="-99.95" font-family="Times New Roman,serif" font-weight="bold" font-size="14.00">Properties</text>
<polygon fill="none" stroke="black" points="910,-71 910,-92.75 1191.25,-92.75 1191.25,-71 910,-71"/>
<text text-anchor="start" x="925.38" y="-76.45" font-family="Times New Roman,serif" font-size="14.00">[Bool] ExecuteEveryFrame (default = False) </text>
<polygon fill="none" stroke="black" points="910,-48.5 910,-71 1191.25,-71 1191.25,-48.5 910,-48.5"/>
<text text-anchor="start" x="1031.5" y="-55.7" font-family="Times New Roman,serif" font-weight="bold" font-size="14.00">Inputs</text>
<polygon fill="none" stroke="black" points="910,-26.75 910,-48.5 1191.25,-48.5 1191.25,-26.75 910,-26.75"/>
<text text-anchor="start" x="958.38" y="-32.2" font-family="Times New Roman,serif" font-size="14.00">[Bool] IsVisible (default = True) </text>
<polygon fill="none" stroke="black" points="910,-5 910,-26.75 1191.25,-26.75 1191.25,-5 910,-5"/>
<text text-anchor="start" x="913" y="-10.45" font-family="Times New Roman,serif" font-size="14.00">[String] ScreenName (default = GetWindow_00) </text>
<polygon fill="none" stroke="black" points="909,-4 909,-138.75 1192.25,-138.75 1192.25,-4 909,-4"/>
</g>
<!-- 1982&#45;&gt;1994 -->
<g id="edge9" class="edge">
<title>1982&#45;&gt;1994</title>
<path fill="none" stroke="firebrick" stroke-width="2" d="M1472.51,-223.22C1454.65,-207.04 1433.1,-190.45 1410.62,-179.75 1331.81,-142.24 1299.01,-167.39 1211.45,-143.05"/>
<polygon fill="firebrick" stroke="firebrick" stroke-width="2" points="1213.97,-140.14 1203.39,-140.68 1212,-146.86 1213.97,-140.14"/>
</g>
<!-- 1997 -->
<g id="node11" class="node">
<title>1997</title>
<polygon fill="none" stroke="black" stroke-width="2" points="1512.62,-142.75 1218.62,-142.75 1218.62,0 1512.62,0 1512.62,-142.75"/>
<polygon fill="none" stroke="black" points="1227.62,-115.25 1227.62,-137.75 1503.62,-137.75 1503.62,-115.25 1227.62,-115.25"/>
<text text-anchor="start" x="1266.25" y="-122.45" font-family="Times New Roman,serif" font-weight="bold" font-size="14.00">SeqOneShotSetScreenVisible (7)</text>
<polygon fill="none" stroke="black" points="1227.62,-92.75 1227.62,-115.25 1503.62,-115.25 1503.62,-92.75 1227.62,-92.75"/>
<text text-anchor="start" x="1333.75" y="-99.95" font-family="Times New Roman,serif" font-weight="bold" font-size="14.00">Properties</text>
<polygon fill="none" stroke="black" points="1227.62,-71 1227.62,-92.75 1503.62,-92.75 1503.62,-71 1227.62,-71"/>
<text text-anchor="start" x="1240.38" y="-76.45" font-family="Times New Roman,serif" font-size="14.00">[Bool] ExecuteEveryFrame (default = False) </text>
<polygon fill="none" stroke="black" points="1227.62,-48.5 1227.62,-71 1503.62,-71 1503.62,-48.5 1227.62,-48.5"/>
<text text-anchor="start" x="1346.5" y="-55.7" font-family="Times New Roman,serif" font-weight="bold" font-size="14.00">Inputs</text>
<polygon fill="none" stroke="black" points="1227.62,-26.75 1227.62,-48.5 1503.62,-48.5 1503.62,-26.75 1227.62,-26.75"/>
<text text-anchor="start" x="1273.38" y="-32.2" font-family="Times New Roman,serif" font-size="14.00">[Bool] IsVisible (default = True) </text>
<polygon fill="none" stroke="black" points="1227.62,-5 1227.62,-26.75 1503.62,-26.75 1503.62,-5 1227.62,-5"/>
<text text-anchor="start" x="1230.62" y="-10.45" font-family="Times New Roman,serif" font-size="14.00">[String] ScreenName (default = InstantTips_00) </text>
<polygon fill="none" stroke="black" points="1226.62,-4 1226.62,-138.75 1504.62,-138.75 1504.62,-4 1226.62,-4"/>
</g>
<!-- 1982&#45;&gt;1997 -->
<g id="edge10" class="edge">
<title>1982&#45;&gt;1997</title>
<path fill="none" stroke="firebrick" stroke-width="2" d="M1481.39,-223.33C1465,-201.95 1445.31,-176.27 1426.85,-152.21"/>
<polygon fill="firebrick" stroke="firebrick" stroke-width="2" points="1430.55,-151.28 1421.69,-145.48 1425,-155.54 1430.55,-151.28"/>
</g>
<!-- 2000 -->
<g id="node12" class="node">
<title>2000</title>
<polygon fill="none" stroke="black" stroke-width="2" points="1810.88,-142.75 1530.38,-142.75 1530.38,0 1810.88,0 1810.88,-142.75"/>
<polygon fill="none" stroke="black" points="1539.38,-115.25 1539.38,-137.75 1801.88,-137.75 1801.88,-115.25 1539.38,-115.25"/>
<text text-anchor="start" x="1571.25" y="-122.45" font-family="Times New Roman,serif" font-weight="bold" font-size="14.00">SeqOneShotSetScreenVisible (8)</text>
<polygon fill="none" stroke="black" points="1539.38,-92.75 1539.38,-115.25 1801.88,-115.25 1801.88,-92.75 1539.38,-92.75"/>
<text text-anchor="start" x="1638.75" y="-99.95" font-family="Times New Roman,serif" font-weight="bold" font-size="14.00">Properties</text>
<polygon fill="none" stroke="black" points="1539.38,-71 1539.38,-92.75 1801.88,-92.75 1801.88,-71 1539.38,-71"/>
<text text-anchor="start" x="1545.38" y="-76.45" font-family="Times New Roman,serif" font-size="14.00">[Bool] ExecuteEveryFrame (default = False) </text>
<polygon fill="none" stroke="black" points="1539.38,-48.5 1539.38,-71 1801.88,-71 1801.88,-48.5 1539.38,-48.5"/>
<text text-anchor="start" x="1651.5" y="-55.7" font-family="Times New Roman,serif" font-weight="bold" font-size="14.00">Inputs</text>
<polygon fill="none" stroke="black" points="1539.38,-26.75 1539.38,-48.5 1801.88,-48.5 1801.88,-26.75 1539.38,-26.75"/>
<text text-anchor="start" x="1578.38" y="-32.2" font-family="Times New Roman,serif" font-size="14.00">[Bool] IsVisible (default = True) </text>
<polygon fill="none" stroke="black" points="1539.38,-5 1539.38,-26.75 1801.88,-26.75 1801.88,-5 1539.38,-5"/>
<text text-anchor="start" x="1542.38" y="-10.45" font-family="Times New Roman,serif" font-size="14.00">[String] ScreenName (default = Location_00) </text>
<polygon fill="none" stroke="black" points="1538.38,-4 1538.38,-138.75 1802.88,-138.75 1802.88,-4 1538.38,-4"/>
</g>
<!-- 1982&#45;&gt;2000 -->
<g id="edge11" class="edge">
<title>1982&#45;&gt;2000</title>
<path fill="none" stroke="firebrick" stroke-width="2" d="M1555.61,-223.33C1571.9,-201.95 1591.46,-176.27 1609.8,-152.21"/>
<polygon fill="firebrick" stroke="firebrick" stroke-width="2" points="1611.65,-155.56 1614.92,-145.48 1606.08,-151.32 1611.65,-155.56"/>
</g>
<!-- 2003 -->
<g id="node13" class="node">
<title>2003</title>
<polygon fill="none" stroke="black" stroke-width="2" points="2128.62,-142.75 1828.62,-142.75 1828.62,0 2128.62,0 2128.62,-142.75"/>
<polygon fill="none" stroke="black" points="1837.62,-115.25 1837.62,-137.75 2119.62,-137.75 2119.62,-115.25 1837.62,-115.25"/>
<text text-anchor="start" x="1879.25" y="-122.45" font-family="Times New Roman,serif" font-weight="bold" font-size="14.00">SeqOneShotSetScreenVisible (9)</text>
<polygon fill="none" stroke="black" points="1837.62,-92.75 1837.62,-115.25 2119.62,-115.25 2119.62,-92.75 1837.62,-92.75"/>
<text text-anchor="start" x="1946.75" y="-99.95" font-family="Times New Roman,serif" font-weight="bold" font-size="14.00">Properties</text>
<polygon fill="none" stroke="black" points="1837.62,-71 1837.62,-92.75 2119.62,-92.75 2119.62,-71 1837.62,-71"/>
<text text-anchor="start" x="1853.38" y="-76.45" font-family="Times New Roman,serif" font-size="14.00">[Bool] ExecuteEveryFrame (default = False) </text>
<polygon fill="none" stroke="black" points="1837.62,-48.5 1837.62,-71 2119.62,-71 2119.62,-48.5 1837.62,-48.5"/>
<text text-anchor="start" x="1959.5" y="-55.7" font-family="Times New Roman,serif" font-weight="bold" font-size="14.00">Inputs</text>
<polygon fill="none" stroke="black" points="1837.62,-26.75 1837.62,-48.5 2119.62,-48.5 2119.62,-26.75 1837.62,-26.75"/>
<text text-anchor="start" x="1886.38" y="-32.2" font-family="Times New Roman,serif" font-size="14.00">[Bool] IsVisible (default = True) </text>
<polygon fill="none" stroke="black" points="1837.62,-5 1837.62,-26.75 2119.62,-26.75 2119.62,-5 1837.62,-5"/>
<text text-anchor="start" x="1840.62" y="-10.45" font-family="Times New Roman,serif" font-size="14.00">[String] ScreenName (default = NumDisplay_00) </text>
<polygon fill="none" stroke="black" points="1836.62,-4 1836.62,-138.75 2120.62,-138.75 2120.62,-4 1836.62,-4"/>
</g>
<!-- 1982&#45;&gt;2003 -->
<g id="edge12" class="edge">
<title>1982&#45;&gt;2003</title>
<path fill="none" stroke="firebrick" stroke-width="2" d="M1618.4,-229.41C1674.43,-205.49 1745.88,-174.84 1818.21,-143.36"/>
<polygon fill="firebrick" stroke="firebrick" stroke-width="2" points="1817.88,-147.32 1825.65,-140.12 1815.08,-140.9 1817.88,-147.32"/>
</g>
<!-- 2006 -->
<g id="node14" class="node">
<title>2006</title>
<polygon fill="none" stroke="black" stroke-width="2" points="2420.88,-142.75 2146.38,-142.75 2146.38,0 2420.88,0 2420.88,-142.75"/>
<polygon fill="none" stroke="black" points="2155.38,-115.25 2155.38,-137.75 2411.88,-137.75 2411.88,-115.25 2155.38,-115.25"/>
<text text-anchor="start" x="2180.5" y="-122.45" font-family="Times New Roman,serif" font-weight="bold" font-size="14.00">SeqOneShotSetScreenVisible (10)</text>
<polygon fill="none" stroke="black" points="2155.38,-92.75 2155.38,-115.25 2411.88,-115.25 2411.88,-92.75 2155.38,-92.75"/>
<text text-anchor="start" x="2251.75" y="-99.95" font-family="Times New Roman,serif" font-weight="bold" font-size="14.00">Properties</text>
<polygon fill="none" stroke="black" points="2155.38,-71 2155.38,-92.75 2411.88,-92.75 2411.88,-71 2155.38,-71"/>
<text text-anchor="start" x="2158.38" y="-76.45" font-family="Times New Roman,serif" font-size="14.00">[Bool] ExecuteEveryFrame (default = False) </text>
<polygon fill="none" stroke="black" points="2155.38,-48.5 2155.38,-71 2411.88,-71 2411.88,-48.5 2155.38,-48.5"/>
<text text-anchor="start" x="2264.5" y="-55.7" font-family="Times New Roman,serif" font-weight="bold" font-size="14.00">Inputs</text>
<polygon fill="none" stroke="black" points="2155.38,-26.75 2155.38,-48.5 2411.88,-48.5 2411.88,-26.75 2155.38,-26.75"/>
<text text-anchor="start" x="2191.38" y="-32.2" font-family="Times New Roman,serif" font-size="14.00">[Bool] IsVisible (default = True) </text>
<polygon fill="none" stroke="black" points="2155.38,-5 2155.38,-26.75 2411.88,-26.75 2411.88,-5 2155.38,-5"/>
<text text-anchor="start" x="2159.12" y="-10.45" font-family="Times New Roman,serif" font-size="14.00">[String] ScreenName (default = PickUp_00) </text>
<polygon fill="none" stroke="black" points="2154.38,-4 2154.38,-138.75 2412.88,-138.75 2412.88,-4 2154.38,-4"/>
</g>
<!-- 1982&#45;&gt;2006 -->
<g id="edge13" class="edge">
<title>1982&#45;&gt;2006</title>
<path fill="none" stroke="firebrick" stroke-width="2" d="M1618.43,-258.71C1740.09,-240.96 1951.25,-204.67 2135.37,-143.38"/>
<polygon fill="firebrick" stroke="firebrick" stroke-width="2" points="2134.83,-147.26 2143.19,-140.75 2132.6,-140.62 2134.83,-147.26"/>
</g>
<!-- 2009 -->
<g id="node15" class="node">
<title>2009</title>
<polygon fill="none" stroke="black" stroke-width="2" points="2731.88,-142.75 2439.38,-142.75 2439.38,0 2731.88,0 2731.88,-142.75"/>
<polygon fill="none" stroke="black" points="2448.38,-115.25 2448.38,-137.75 2722.88,-137.75 2722.88,-115.25 2448.38,-115.25"/>
<text text-anchor="start" x="2482.5" y="-122.45" font-family="Times New Roman,serif" font-weight="bold" font-size="14.00">SeqOneShotSetScreenVisible (11)</text>
<polygon fill="none" stroke="black" points="2448.38,-92.75 2448.38,-115.25 2722.88,-115.25 2722.88,-92.75 2448.38,-92.75"/>
<text text-anchor="start" x="2553.75" y="-99.95" font-family="Times New Roman,serif" font-weight="bold" font-size="14.00">Properties</text>
<polygon fill="none" stroke="black" points="2448.38,-71 2448.38,-92.75 2722.88,-92.75 2722.88,-71 2448.38,-71"/>
<text text-anchor="start" x="2460.38" y="-76.45" font-family="Times New Roman,serif" font-size="14.00">[Bool] ExecuteEveryFrame (default = False) </text>
<polygon fill="none" stroke="black" points="2448.38,-48.5 2448.38,-71 2722.88,-71 2722.88,-48.5 2448.38,-48.5"/>
<text text-anchor="start" x="2566.5" y="-55.7" font-family="Times New Roman,serif" font-weight="bold" font-size="14.00">Inputs</text>
<polygon fill="none" stroke="black" points="2448.38,-26.75 2448.38,-48.5 2722.88,-48.5 2722.88,-26.75 2448.38,-26.75"/>
<text text-anchor="start" x="2493.38" y="-32.2" font-family="Times New Roman,serif" font-size="14.00">[Bool] IsVisible (default = True) </text>
<polygon fill="none" stroke="black" points="2448.38,-5 2448.38,-26.75 2722.88,-26.75 2722.88,-5 2448.38,-5"/>
<text text-anchor="start" x="2451.38" y="-10.45" font-family="Times New Roman,serif" font-size="14.00">[String] ScreenName (default = SimpleInfo_00) </text>
<polygon fill="none" stroke="black" points="2447.38,-4 2447.38,-138.75 2723.88,-138.75 2723.88,-4 2447.38,-4"/>
</g>
<!-- 1982&#45;&gt;2009 -->
<g id="edge14" class="edge">
<title>1982&#45;&gt;2009</title>
<path fill="none" stroke="firebrick" stroke-width="2" d="M1618.29,-266.97C1785.86,-256.71 2133.72,-226.81 2428.2,-143"/>
<polygon fill="firebrick" stroke="firebrick" stroke-width="2" points="2427.54,-146.83 2436.18,-140.71 2425.6,-140.11 2427.54,-146.83"/>
</g>
<!-- 2015 -->
<g id="node16" class="node">
<title>2015</title>
<polygon fill="none" stroke="black" stroke-width="2" points="3099.38,-131.88 2749.88,-131.88 2749.88,-10.88 3099.38,-10.88 3099.38,-131.88"/>
<polygon fill="none" stroke="black" points="2758.88,-104.38 2758.88,-126.88 3090.38,-126.88 3090.38,-104.38 2758.88,-104.38"/>
<text text-anchor="start" x="2836.12" y="-111.58" font-family="Times New Roman,serif" font-weight="bold" font-size="14.00">SeqOneShotLoadScreen (15)</text>
<polygon fill="none" stroke="black" points="2758.88,-81.88 2758.88,-104.38 3090.38,-104.38 3090.38,-81.88 2758.88,-81.88"/>
<text text-anchor="start" x="2892.75" y="-89.08" font-family="Times New Roman,serif" font-weight="bold" font-size="14.00">Properties</text>
<polygon fill="none" stroke="black" points="2758.88,-60.12 2758.88,-81.88 3090.38,-81.88 3090.38,-60.12 2758.88,-60.12"/>
<text text-anchor="start" x="2799.38" y="-65.58" font-family="Times New Roman,serif" font-size="14.00">[Bool] ExecuteEveryFrame (default = False) </text>
<polygon fill="none" stroke="black" points="2758.88,-37.62 2758.88,-60.12 3090.38,-60.12 3090.38,-37.62 2758.88,-37.62"/>
<text text-anchor="start" x="2905.5" y="-44.83" font-family="Times New Roman,serif" font-weight="bold" font-size="14.00">Inputs</text>
<polygon fill="none" stroke="black" points="2758.88,-15.88 2758.88,-37.62 3090.38,-37.62 3090.38,-15.88 2758.88,-15.88"/>
<text text-anchor="start" x="2761.88" y="-21.32" font-family="Times New Roman,serif" font-size="14.00">[String] ScreenName (default = AutoBuilderShortCut_00) </text>
<polygon fill="none" stroke="black" points="2757.88,-14.88 2757.88,-127.88 3091.38,-127.88 3091.38,-14.88 2757.88,-14.88"/>
</g>
<!-- 2012&#45;&gt;2015 -->
<g id="edge15" class="edge">
<title>2012&#45;&gt;2015</title>
<path fill="none" stroke="firebrick" stroke-width="2" d="M2924.62,-223.33C2924.62,-199.42 2924.62,-170.12 2924.62,-143.72"/>
<polygon fill="firebrick" stroke="firebrick" stroke-width="2" points="2928.13,-145.24 2924.63,-135.24 2921.13,-145.24 2928.13,-145.24"/>
</g>
<!-- 2018 -->
<g id="node17" class="node">
<title>2018</title>
<polygon fill="none" stroke="black" stroke-width="2" points="3467.38,-142.75 3117.88,-142.75 3117.88,0 3467.38,0 3467.38,-142.75"/>
<polygon fill="none" stroke="black" points="3126.88,-115.25 3126.88,-137.75 3458.38,-137.75 3458.38,-115.25 3126.88,-115.25"/>
<text text-anchor="start" x="3203.38" y="-122.45" font-family="Times New Roman,serif" font-weight="bold" font-size="14.00">SeqOneShotOpenScreen (16)</text>
<polygon fill="none" stroke="black" points="3126.88,-92.75 3126.88,-115.25 3458.38,-115.25 3458.38,-92.75 3126.88,-92.75"/>
<text text-anchor="start" x="3260.75" y="-99.95" font-family="Times New Roman,serif" font-weight="bold" font-size="14.00">Properties</text>
<polygon fill="none" stroke="black" points="3126.88,-71 3126.88,-92.75 3458.38,-92.75 3458.38,-71 3126.88,-71"/>
<text text-anchor="start" x="3167.38" y="-76.45" font-family="Times New Roman,serif" font-size="14.00">[Bool] ExecuteEveryFrame (default = False) </text>
<polygon fill="none" stroke="black" points="3126.88,-48.5 3126.88,-71 3458.38,-71 3458.38,-48.5 3126.88,-48.5"/>
<text text-anchor="start" x="3273.5" y="-55.7" font-family="Times New Roman,serif" font-weight="bold" font-size="14.00">Inputs</text>
<polygon fill="none" stroke="black" points="3126.88,-26.75 3126.88,-48.5 3458.38,-48.5 3458.38,-26.75 3126.88,-26.75"/>
<text text-anchor="start" x="3221" y="-32.2" font-family="Times New Roman,serif" font-size="14.00">[Int] Option (default = 1) </text>
<polygon fill="none" stroke="black" points="3126.88,-5 3126.88,-26.75 3458.38,-26.75 3458.38,-5 3126.88,-5"/>
<text text-anchor="start" x="3129.88" y="-10.45" font-family="Times New Roman,serif" font-size="14.00">[String] ScreenName (default = AutoBuilderShortCut_00) </text>
<polygon fill="none" stroke="black" points="3125.88,-4 3125.88,-138.75 3459.38,-138.75 3459.38,-4 3125.88,-4"/>
</g>
<!-- 2012&#45;&gt;2018 -->
<g id="edge16" class="edge">
<title>2012&#45;&gt;2018</title>
<path fill="none" stroke="firebrick" stroke-width="2" d="M3014.18,-223.33C3055.69,-200.82 3106,-173.55 3152.38,-148.41"/>
<polygon fill="firebrick" stroke="firebrick" stroke-width="2" points="3152.42,-152.36 3159.55,-144.52 3149.09,-146.21 3152.42,-152.36"/>
</g>
<!-- 2024 -->
<g id="node18" class="node">
<title>2024</title>
<polygon fill="none" stroke="black" stroke-width="2" points="811.75,-604.75 491.5,-604.75 491.5,-417.75 811.75,-417.75 811.75,-604.75"/>
<polygon fill="none" stroke="black" points="500.5,-577.25 500.5,-599.75 802.75,-599.75 802.75,-577.25 500.5,-577.25"/>
<text text-anchor="start" x="512.5" y="-584.45" font-family="Times New Roman,serif" font-weight="bold" font-size="14.00">SeqQueryGetNonStructGameDataStruct (13)</text>
<polygon fill="none" stroke="black" points="500.5,-554.75 500.5,-577.25 802.75,-577.25 802.75,-554.75 500.5,-554.75"/>
<text text-anchor="start" x="619.75" y="-561.95" font-family="Times New Roman,serif" font-weight="bold" font-size="14.00">Properties</text>
<polygon fill="none" stroke="black" points="500.5,-533 500.5,-554.75 802.75,-554.75 802.75,-533 500.5,-533"/>
<text text-anchor="start" x="526" y="-538.45" font-family="Times New Roman,serif" font-size="14.00">[Bool] OutputOnlyOnEnter (default = False) </text>
<polygon fill="none" stroke="black" points="500.5,-510.5 500.5,-533 802.75,-533 802.75,-510.5 500.5,-510.5"/>
<text text-anchor="start" x="632.5" y="-517.7" font-family="Times New Roman,serif" font-weight="bold" font-size="14.00">Inputs</text>
<polygon fill="none" stroke="black" points="500.5,-488.75 500.5,-510.5 802.75,-510.5 802.75,-488.75 500.5,-488.75"/>
<text text-anchor="start" x="552.25" y="-494.2" font-family="Times New Roman,serif" font-size="14.00">[Int] GameDataIndex (default = &#45;1) </text>
<polygon fill="none" stroke="black" points="500.5,-467 500.5,-488.75 802.75,-488.75 802.75,-467 500.5,-467"/>
<text text-anchor="start" x="503.5" y="-472.45" font-family="Times New Roman,serif" font-size="14.00">[String] GameDataFullName (default = PlayerStatus) </text>
<polygon fill="none" stroke="black" points="500.5,-444.5 500.5,-467 802.75,-467 802.75,-444.5 500.5,-444.5"/>
<text text-anchor="start" x="627.25" y="-451.7" font-family="Times New Roman,serif" font-weight="bold" font-size="14.00">Outputs</text>
<polygon fill="none" stroke="black" points="500.5,-422.75 500.5,-444.5 802.75,-444.5 802.75,-422.75 500.5,-422.75"/>
<text text-anchor="start" x="544" y="-428.2" font-family="Times New Roman,serif" font-size="14.00">[const void*] Value (default = nullptr) </text>
<polygon fill="none" stroke="black" points="499.5,-421.75 499.5,-600.75 803.75,-600.75 803.75,-421.75 499.5,-421.75"/>
</g>
<!-- 2024&#45;&gt;2021 -->
<g id="edge17" class="edge">
<title>2024:2054&#45;&gt;2021:2051</title>
<path fill="none" stroke="#008000" stroke-dasharray="5,2" d="M651.62,-421.25C651.62,-360.72 724.23,-399.93 782.62,-384 813.15,-375.67 832.16,-391.04 851.5,-366 863.8,-350.07 865.69,-199.14 851.5,-184.88 844.78,-178.13 702.64,-174.05 662.25,-180.03"/>
<polygon fill="#008000" stroke="#008000" points="661.26,-176.66 653.05,-183.36 663.64,-183.24 661.26,-176.66"/>
<text text-anchor="middle" x="817.12" y="-386.45" font-family="Times New Roman,serif" font-size="14.00" fill="#008000">ParentStruct</text>
</g>
<!-- 2055 -->
<g id="node19" class="node">
<title>2055</title>
<ellipse fill="mediumpurple" stroke="mediumpurple" cx="1295.62" cy="-659.75" rx="31.39" ry="18"/>
<text text-anchor="start" x="1280.62" y="-655.7" font-family="Times New Roman,serif" font-weight="bold" font-size="14.00" fill="white">Root</text>
</g>
<!-- 2055&#45;&gt;1973 -->
<g id="edge18" class="edge">
<title>2055&#45;&gt;1973</title>
<path fill="none" stroke="black" d="M1295.62,-641.37C1295.62,-624.28 1295.62,-597.2 1295.62,-572.25"/>
<polygon fill="black" stroke="black" points="1299.13,-572.49 1295.63,-562.49 1292.13,-572.49 1299.13,-572.49"/>
</g>
</g>
</svg>
