<?xml version="1.0" encoding="UTF-8" standalone="no"?>
<!DOCTYPE svg PUBLIC "-//W3C//DTD SVG 1.1//EN"
 "http://www.w3.org/Graphics/SVG/1.1/DTD/svg11.dtd">
<!-- Generated by graphviz version 9.0.0 (20230911.1827)
 -->
<!-- Title: ChangeGamePauseWithoutEvent.module Pages: 1 -->
<svg width="2864pt" height="1708pt"
 viewBox="0.00 0.00 2864.38 1708.00" xmlns="http://www.w3.org/2000/svg" xmlns:xlink="http://www.w3.org/1999/xlink">
<g id="graph0" class="graph" transform="scale(1 1) rotate(0) translate(4 1704)">
<title>ChangeGamePauseWithoutEvent.module</title>
<polygon fill="lightgray" stroke="none" points="-4,4 -4,-1704 2860.38,-1704 2860.38,4 -4,4"/>
<!-- 4556 -->
<g id="node1" class="node">
<title>4556</title>
<polygon fill="none" stroke="black" stroke-width="2" points="1193,-1526.88 877.25,-1526.88 877.25,-1340.62 1193,-1340.62 1193,-1526.88"/>
<polygon fill="none" stroke="black" points="886.25,-1499.38 886.25,-1521.88 1184,-1521.88 1184,-1499.38 886.25,-1499.38"/>
<text text-anchor="start" x="956.75" y="-1506.58" font-family="Times New Roman,serif" font-weight="bold" font-size="14.00">Element_BoolSelector (1)</text>
<polygon fill="none" stroke="black" points="886.25,-1476.88 886.25,-1499.38 1184,-1499.38 1184,-1476.88 886.25,-1476.88"/>
<text text-anchor="start" x="1003.25" y="-1484.08" font-family="Times New Roman,serif" font-weight="bold" font-size="14.00">Properties</text>
<polygon fill="none" stroke="black" points="886.25,-1455.12 886.25,-1476.88 1184,-1476.88 1184,-1455.12 886.25,-1455.12"/>
<text text-anchor="start" x="938" y="-1460.58" font-family="Times New Roman,serif" font-size="14.00">[Int] CalculateTiming (default = 0) </text>
<polygon fill="none" stroke="black" points="886.25,-1433.38 886.25,-1455.12 1184,-1455.12 1184,-1433.38 886.25,-1433.38"/>
<text text-anchor="start" x="918.88" y="-1438.83" font-family="Times New Roman,serif" font-size="14.00">[Bool] ChildFrameSync (default = False) </text>
<polygon fill="none" stroke="black" points="886.25,-1411.62 886.25,-1433.38 1184,-1433.38 1184,-1411.62 886.25,-1411.62"/>
<text text-anchor="start" x="935.38" y="-1417.08" font-family="Times New Roman,serif" font-size="14.00">[Bool] InputValue (default = False) </text>
<polygon fill="none" stroke="black" points="886.25,-1389.88 886.25,-1411.62 1184,-1411.62 1184,-1389.88 886.25,-1389.88"/>
<text text-anchor="start" x="889.25" y="-1395.33" font-family="Times New Roman,serif" font-size="14.00">[Bool] IsNoSelectWhenChildBusy (default = False) </text>
<polygon fill="none" stroke="black" points="886.25,-1367.38 886.25,-1389.88 1184,-1389.88 1184,-1367.38 886.25,-1367.38"/>
<text text-anchor="start" x="1016" y="-1374.58" font-family="Times New Roman,serif" font-weight="bold" font-size="14.00">Inputs</text>
<polygon fill="none" stroke="black" points="886.25,-1345.62 886.25,-1367.38 1184,-1367.38 1184,-1345.62 886.25,-1345.62"/>
<text text-anchor="start" x="951.12" y="-1351.08" font-family="Times New Roman,serif" font-size="14.00">[Bool] Input (default = False) </text>
<polygon fill="none" stroke="black" points="885.25,-1344.62 885.25,-1522.88 1185,-1522.88 1185,-1344.62 885.25,-1344.62"/>
</g>
<!-- 4562 -->
<g id="node2" class="node">
<title>4562</title>
<polygon fill="none" stroke="black" stroke-width="2" points="787.5,-1255.5 588.75,-1255.5 588.75,-1157 787.5,-1157 787.5,-1255.5"/>
<polygon fill="none" stroke="black" points="597.75,-1228 597.75,-1250.5 778.5,-1250.5 778.5,-1228 597.75,-1228"/>
<text text-anchor="start" x="608.25" y="-1235.2" font-family="Times New Roman,serif" font-weight="bold" font-size="14.00">Element_Simultaneous (0)</text>
<polygon fill="none" stroke="black" points="597.75,-1205.5 597.75,-1228 778.5,-1228 778.5,-1205.5 597.75,-1205.5"/>
<text text-anchor="start" x="656.25" y="-1212.7" font-family="Times New Roman,serif" font-weight="bold" font-size="14.00">Properties</text>
<polygon fill="none" stroke="black" points="597.75,-1183.75 597.75,-1205.5 778.5,-1205.5 778.5,-1183.75 597.75,-1183.75"/>
<text text-anchor="start" x="607.12" y="-1189.2" font-family="Times New Roman,serif" font-size="14.00">[Int] EndPolicy (default = 0) </text>
<polygon fill="none" stroke="black" points="597.75,-1162 597.75,-1183.75 778.5,-1183.75 778.5,-1162 597.75,-1162"/>
<text text-anchor="start" x="600.75" y="-1167.45" font-family="Times New Roman,serif" font-size="14.00">[Int] ResultPolicy (default = 0) </text>
<polygon fill="none" stroke="black" points="596.75,-1161 596.75,-1251.5 779.5,-1251.5 779.5,-1161 596.75,-1161"/>
</g>
<!-- 4556&#45;&gt;4562 -->
<g id="edge1" class="edge">
<title>4556&#45;&gt;4562</title>
<path fill="none" stroke="firebrick" stroke-width="2" d="M892.74,-1340.22C851.87,-1313.66 808.62,-1285.56 772.47,-1262.06"/>
<polygon fill="firebrick" stroke="firebrick" stroke-width="2" points="775.78,-1260.04 765.49,-1257.53 771.97,-1265.91 775.78,-1260.04"/>
<text text-anchor="middle" x="875.25" y="-1308.95" font-family="Times New Roman,serif" font-size="14.00" fill="firebrick">True</text>
</g>
<!-- 4574 -->
<g id="node3" class="node">
<title>4574</title>
<polygon fill="none" stroke="black" stroke-width="2" points="1699.12,-1288.5 1375.12,-1288.5 1375.12,-1124 1699.12,-1124 1699.12,-1288.5"/>
<polygon fill="none" stroke="black" points="1384.12,-1261 1384.12,-1283.5 1690.12,-1283.5 1690.12,-1261 1384.12,-1261"/>
<text text-anchor="start" x="1433.25" y="-1268.2" font-family="Times New Roman,serif" font-weight="bold" font-size="14.00">SeqSelectorMathCompareInt (12)</text>
<polygon fill="none" stroke="black" points="1384.12,-1238.5 1384.12,-1261 1690.12,-1261 1690.12,-1238.5 1384.12,-1238.5"/>
<text text-anchor="start" x="1505.25" y="-1245.7" font-family="Times New Roman,serif" font-weight="bold" font-size="14.00">Properties</text>
<polygon fill="none" stroke="black" points="1384.12,-1216.75 1384.12,-1238.5 1690.12,-1238.5 1690.12,-1216.75 1384.12,-1216.75"/>
<text text-anchor="start" x="1387.12" y="-1222.2" font-family="Times New Roman,serif" font-size="14.00">[Bool] NoChangeWhenChildIsBusy (default = False) </text>
<polygon fill="none" stroke="black" points="1384.12,-1195 1384.12,-1216.75 1690.12,-1216.75 1690.12,-1195 1384.12,-1195"/>
<text text-anchor="start" x="1399.12" y="-1200.45" font-family="Times New Roman,serif" font-size="14.00">[Bool] SelectChildOnEnterOnly (default = False) </text>
<polygon fill="none" stroke="black" points="1384.12,-1172.5 1384.12,-1195 1690.12,-1195 1690.12,-1172.5 1384.12,-1172.5"/>
<text text-anchor="start" x="1518" y="-1179.7" font-family="Times New Roman,serif" font-weight="bold" font-size="14.00">Inputs</text>
<polygon fill="none" stroke="black" points="1384.12,-1150.75 1384.12,-1172.5 1690.12,-1172.5 1690.12,-1150.75 1384.12,-1150.75"/>
<text text-anchor="start" x="1464.38" y="-1156.2" font-family="Times New Roman,serif" font-size="14.00">[Int] ValueA (default = 0) </text>
<polygon fill="none" stroke="black" points="1384.12,-1129 1384.12,-1150.75 1690.12,-1150.75 1690.12,-1129 1384.12,-1129"/>
<text text-anchor="start" x="1464.75" y="-1134.45" font-family="Times New Roman,serif" font-size="14.00">[Int] ValueB (default = 0) </text>
<polygon fill="none" stroke="black" points="1383.12,-1128 1383.12,-1284.5 1691.12,-1284.5 1691.12,-1128 1383.12,-1128"/>
</g>
<!-- 4556&#45;&gt;4574 -->
<g id="edge2" class="edge">
<title>4556&#45;&gt;4574</title>
<path fill="none" stroke="firebrick" stroke-width="2" d="M1193.27,-1361.71C1247.79,-1337.22 1309.11,-1309.68 1364.71,-1284.7"/>
<polygon fill="firebrick" stroke="firebrick" stroke-width="2" points="1364.57,-1288.6 1372.26,-1281.31 1361.7,-1282.21 1364.57,-1288.6"/>
<text text-anchor="middle" x="1315.75" y="-1308.95" font-family="Times New Roman,serif" font-size="14.00" fill="firebrick">False</text>
</g>
<!-- 4565 -->
<g id="node5" class="node">
<title>4565</title>
<polygon fill="none" stroke="black" stroke-width="2" points="344.25,-1050.5 0,-1050.5 0,-929.5 344.25,-929.5 344.25,-1050.5"/>
<polygon fill="none" stroke="black" points="9,-1023 9,-1045.5 335.25,-1045.5 335.25,-1023 9,-1023"/>
<text text-anchor="start" x="81" y="-1030.2" font-family="Times New Roman,serif" font-weight="bold" font-size="14.00">SeqOneShotRequestPause (5)</text>
<polygon fill="none" stroke="black" points="9,-1000.5 9,-1023 335.25,-1023 335.25,-1000.5 9,-1000.5"/>
<text text-anchor="start" x="140.25" y="-1007.7" font-family="Times New Roman,serif" font-weight="bold" font-size="14.00">Properties</text>
<polygon fill="none" stroke="black" points="9,-978.75 9,-1000.5 335.25,-1000.5 335.25,-978.75 9,-978.75"/>
<text text-anchor="start" x="46.88" y="-984.2" font-family="Times New Roman,serif" font-size="14.00">[Bool] ExecuteEveryFrame (default = False) </text>
<polygon fill="none" stroke="black" points="9,-956.25 9,-978.75 335.25,-978.75 335.25,-956.25 9,-956.25"/>
<text text-anchor="start" x="153" y="-963.45" font-family="Times New Roman,serif" font-weight="bold" font-size="14.00">Inputs</text>
<polygon fill="none" stroke="black" points="9,-934.5 9,-956.25 335.25,-956.25 335.25,-934.5 9,-934.5"/>
<text text-anchor="start" x="12" y="-939.95" font-family="Times New Roman,serif" font-size="14.00">[String] PauseType (default = GamePauseWithoutEvent) </text>
<polygon fill="none" stroke="black" points="8,-933.5 8,-1046.5 336.25,-1046.5 336.25,-933.5 8,-933.5"/>
</g>
<!-- 4562&#45;&gt;4565 -->
<g id="edge4" class="edge">
<title>4562&#45;&gt;4565</title>
<path fill="none" stroke="firebrick" stroke-width="2" d="M588.35,-1166.96C521.49,-1140.98 431.66,-1105.45 353.12,-1072.25 340.48,-1066.91 327.39,-1061.26 314.3,-1055.53"/>
<polygon fill="firebrick" stroke="firebrick" stroke-width="2" points="317.14,-1052.95 306.57,-1052.14 314.32,-1059.36 317.14,-1052.95"/>
</g>
<!-- 4568 -->
<g id="node6" class="node">
<title>4568</title>
<polygon fill="none" stroke="black" stroke-width="2" points="897.88,-1072.25 362.38,-1072.25 362.38,-907.75 897.88,-907.75 897.88,-1072.25"/>
<polygon fill="none" stroke="black" points="371.38,-1044.75 371.38,-1067.25 888.88,-1067.25 888.88,-1044.75 371.38,-1044.75"/>
<text text-anchor="start" x="496.25" y="-1051.95" font-family="Times New Roman,serif" font-weight="bold" font-size="14.00">SeqOneShotAddNonStructGameDataInt (2)</text>
<polygon fill="none" stroke="black" points="371.38,-1022.25 371.38,-1044.75 888.88,-1044.75 888.88,-1022.25 371.38,-1022.25"/>
<text text-anchor="start" x="598.25" y="-1029.45" font-family="Times New Roman,serif" font-weight="bold" font-size="14.00">Properties</text>
<polygon fill="none" stroke="black" points="371.38,-1000.5 371.38,-1022.25 888.88,-1022.25 888.88,-1000.5 371.38,-1000.5"/>
<text text-anchor="start" x="504.88" y="-1005.95" font-family="Times New Roman,serif" font-size="14.00">[Bool] ExecuteEveryFrame (default = False) </text>
<polygon fill="none" stroke="black" points="371.38,-978 371.38,-1000.5 888.88,-1000.5 888.88,-978 371.38,-978"/>
<text text-anchor="start" x="611" y="-985.2" font-family="Times New Roman,serif" font-weight="bold" font-size="14.00">Inputs</text>
<polygon fill="none" stroke="black" points="371.38,-956.25 371.38,-978 888.88,-978 888.88,-956.25 371.38,-956.25"/>
<text text-anchor="start" x="530.75" y="-961.7" font-family="Times New Roman,serif" font-size="14.00">[Int] GameDataIndex (default = &#45;1) </text>
<polygon fill="none" stroke="black" points="371.38,-934.5 371.38,-956.25 888.88,-956.25 888.88,-934.5 371.38,-934.5"/>
<text text-anchor="start" x="562.25" y="-939.95" font-family="Times New Roman,serif" font-size="14.00">[Int] Value (default = 1) </text>
<polygon fill="none" stroke="black" points="371.38,-912.75 371.38,-934.5 888.88,-934.5 888.88,-912.75 371.38,-912.75"/>
<text text-anchor="start" x="374.38" y="-918.2" font-family="Times New Roman,serif" font-size="14.00">[String] GameDataFullName (default = Sequence_GamePauseWithoutEventRequestCount) </text>
<polygon fill="none" stroke="black" points="370.38,-911.75 370.38,-1068.25 889.88,-1068.25 889.88,-911.75 370.38,-911.75"/>
</g>
<!-- 4562&#45;&gt;4568 -->
<g id="edge5" class="edge">
<title>4562&#45;&gt;4568</title>
<path fill="none" stroke="firebrick" stroke-width="2" d="M674.96,-1156.63C669.11,-1135.02 662.02,-1108.81 655.22,-1083.69"/>
<polygon fill="firebrick" stroke="firebrick" stroke-width="2" points="659,-1084.29 653.01,-1075.55 652.25,-1086.12 659,-1084.29"/>
</g>
<!-- 4571 -->
<g id="node7" class="node">
<title>4571</title>
<polygon fill="none" stroke="black" stroke-width="2" points="1382,-1072.25 916.25,-1072.25 916.25,-907.75 1382,-907.75 1382,-1072.25"/>
<polygon fill="none" stroke="black" points="925.25,-1044.75 925.25,-1067.25 1373,-1067.25 1373,-1044.75 925.25,-1044.75"/>
<text text-anchor="start" x="1012.25" y="-1051.95" font-family="Times New Roman,serif" font-weight="bold" font-size="14.00">SeqOneShotSetNonStructGameDataBool (4)</text>
<polygon fill="none" stroke="black" points="925.25,-1022.25 925.25,-1044.75 1373,-1044.75 1373,-1022.25 925.25,-1022.25"/>
<text text-anchor="start" x="1117.25" y="-1029.45" font-family="Times New Roman,serif" font-weight="bold" font-size="14.00">Properties</text>
<polygon fill="none" stroke="black" points="925.25,-1000.5 925.25,-1022.25 1373,-1022.25 1373,-1000.5 925.25,-1000.5"/>
<text text-anchor="start" x="1023.88" y="-1005.95" font-family="Times New Roman,serif" font-size="14.00">[Bool] ExecuteEveryFrame (default = False) </text>
<polygon fill="none" stroke="black" points="925.25,-978 925.25,-1000.5 1373,-1000.5 1373,-978 925.25,-978"/>
<text text-anchor="start" x="1130" y="-985.2" font-family="Times New Roman,serif" font-weight="bold" font-size="14.00">Inputs</text>
<polygon fill="none" stroke="black" points="925.25,-956.25 925.25,-978 1373,-978 1373,-956.25 925.25,-956.25"/>
<text text-anchor="start" x="1049.75" y="-961.7" font-family="Times New Roman,serif" font-size="14.00">[Int] GameDataIndex (default = &#45;1) </text>
<polygon fill="none" stroke="black" points="925.25,-934.5 925.25,-956.25 1373,-956.25 1373,-934.5 925.25,-934.5"/>
<text text-anchor="start" x="1065.5" y="-939.95" font-family="Times New Roman,serif" font-size="14.00">[Bool] Value (default = True) </text>
<polygon fill="none" stroke="black" points="925.25,-912.75 925.25,-934.5 1373,-934.5 1373,-912.75 925.25,-912.75"/>
<text text-anchor="start" x="928.25" y="-918.2" font-family="Times New Roman,serif" font-size="14.00">[String] GameDataFullName (default = Sequence_IsGamePauseWithoutEvent) </text>
<polygon fill="none" stroke="black" points="924.25,-911.75 924.25,-1068.25 1374,-1068.25 1374,-911.75 924.25,-911.75"/>
</g>
<!-- 4562&#45;&gt;4571 -->
<g id="edge6" class="edge">
<title>4562&#45;&gt;4571</title>
<path fill="none" stroke="firebrick" stroke-width="2" d="M787.87,-1158.89C839.05,-1135.11 903.08,-1105.35 962.97,-1077.52"/>
<polygon fill="firebrick" stroke="firebrick" stroke-width="2" points="962.98,-1081.37 970.57,-1073.98 960.03,-1075.02 962.98,-1081.37"/>
</g>
<!-- 4580 -->
<g id="node8" class="node">
<title>4580</title>
<polygon fill="none" stroke="black" stroke-width="2" points="1674.38,-1028.38 1399.88,-1028.38 1399.88,-951.62 1674.38,-951.62 1674.38,-1028.38"/>
<polygon fill="none" stroke="black" points="1408.88,-1000.88 1408.88,-1023.38 1665.38,-1023.38 1665.38,-1000.88 1408.88,-1000.88"/>
<text text-anchor="start" x="1473" y="-1008.08" font-family="Times New Roman,serif" font-weight="bold" font-size="14.00">SeqOneShotEnd (14)</text>
<polygon fill="none" stroke="black" points="1408.88,-978.38 1408.88,-1000.88 1665.38,-1000.88 1665.38,-978.38 1408.88,-978.38"/>
<text text-anchor="start" x="1505.25" y="-985.58" font-family="Times New Roman,serif" font-weight="bold" font-size="14.00">Properties</text>
<polygon fill="none" stroke="black" points="1408.88,-956.62 1408.88,-978.38 1665.38,-978.38 1665.38,-956.62 1408.88,-956.62"/>
<text text-anchor="start" x="1411.88" y="-962.08" font-family="Times New Roman,serif" font-size="14.00">[Bool] ExecuteEveryFrame (default = False) </text>
<polygon fill="none" stroke="black" points="1407.88,-955.62 1407.88,-1024.38 1666.38,-1024.38 1666.38,-955.62 1407.88,-955.62"/>
</g>
<!-- 4574&#45;&gt;4580 -->
<g id="edge7" class="edge">
<title>4574&#45;&gt;4580</title>
<path fill="none" stroke="firebrick" stroke-width="2" d="M1511.3,-1123.6C1510.04,-1117.68 1508.95,-1111.78 1508.12,-1106 1504.96,-1083.9 1509.68,-1059.89 1516.17,-1039.56"/>
<polygon fill="firebrick" stroke="firebrick" stroke-width="2" points="1518.99,-1042.13 1518.93,-1031.53 1512.37,-1039.85 1518.99,-1042.13"/>
<text text-anchor="middle" x="1526.12" y="-1092.7" font-family="Times New Roman,serif" font-size="14.00" fill="firebrick">Bigger</text>
</g>
<!-- 4574&#45;&gt;4580 -->
<g id="edge8" class="edge">
<title>4574&#45;&gt;4580</title>
<path fill="none" stroke="firebrick" stroke-width="2" d="M1543.34,-1123.76C1543.65,-1117.75 1543.92,-1111.78 1544.12,-1106 1544.89,-1084.34 1543.75,-1060.42 1542.19,-1040.03"/>
<polygon fill="firebrick" stroke="firebrick" stroke-width="2" points="1545.82,-1041.48 1541.5,-1031.8 1538.84,-1042.06 1545.82,-1041.48"/>
<text text-anchor="middle" x="1559.88" y="-1092.7" font-family="Times New Roman,serif" font-size="14.00" fill="firebrick">Equal</text>
</g>
<!-- 4586 -->
<g id="node9" class="node">
<title>4586</title>
<polygon fill="none" stroke="black" stroke-width="2" points="2080.38,-1028.38 1805.88,-1028.38 1805.88,-951.62 2080.38,-951.62 2080.38,-1028.38"/>
<polygon fill="none" stroke="black" points="1814.88,-1000.88 1814.88,-1023.38 2071.38,-1023.38 2071.38,-1000.88 1814.88,-1000.88"/>
<text text-anchor="start" x="1879" y="-1008.08" font-family="Times New Roman,serif" font-weight="bold" font-size="14.00">SeqOneShotEnd (15)</text>
<polygon fill="none" stroke="black" points="1814.88,-978.38 1814.88,-1000.88 2071.38,-1000.88 2071.38,-978.38 1814.88,-978.38"/>
<text text-anchor="start" x="1911.25" y="-985.58" font-family="Times New Roman,serif" font-weight="bold" font-size="14.00">Properties</text>
<polygon fill="none" stroke="black" points="1814.88,-956.62 1814.88,-978.38 2071.38,-978.38 2071.38,-956.62 1814.88,-956.62"/>
<text text-anchor="start" x="1817.88" y="-962.08" font-family="Times New Roman,serif" font-size="14.00">[Bool] ExecuteEveryFrame (default = False) </text>
<polygon fill="none" stroke="black" points="1813.88,-955.62 1813.88,-1024.38 2072.38,-1024.38 2072.38,-955.62 1813.88,-955.62"/>
</g>
<!-- 4574&#45;&gt;4586 -->
<g id="edge9" class="edge">
<title>4574&#45;&gt;4586</title>
<path fill="none" stroke="firebrick" stroke-width="2" d="M1691.77,-1123.64C1749.52,-1093.17 1812.8,-1059.77 1861.42,-1034.11"/>
<polygon fill="firebrick" stroke="firebrick" stroke-width="2" points="1861.68,-1037.94 1868.89,-1030.17 1858.41,-1031.74 1861.68,-1037.94"/>
<text text-anchor="middle" x="1772.75" y="-1092.7" font-family="Times New Roman,serif" font-size="14.00" fill="firebrick">Smaller</text>
</g>
<!-- 4559 -->
<g id="node4" class="node">
<title>4559</title>
<polygon fill="none" stroke="black" stroke-width="2" points="1072.12,-1700 826.12,-1700 826.12,-1579 1072.12,-1579 1072.12,-1700"/>
<polygon fill="none" stroke="black" points="835.12,-1672.5 835.12,-1695 1063.12,-1695 1063.12,-1672.5 835.12,-1672.5"/>
<text text-anchor="start" x="838.12" y="-1679.7" font-family="Times New Roman,serif" font-weight="bold" font-size="14.00">Element_ModuleIF_Input_Bool (19)</text>
<polygon fill="none" stroke="black" points="835.12,-1650 835.12,-1672.5 1063.12,-1672.5 1063.12,-1650 835.12,-1650"/>
<text text-anchor="start" x="917.25" y="-1657.2" font-family="Times New Roman,serif" font-weight="bold" font-size="14.00">Properties</text>
<polygon fill="none" stroke="black" points="835.12,-1628.25 835.12,-1650 1063.12,-1650 1063.12,-1628.25 835.12,-1628.25"/>
<text text-anchor="start" x="853.5" y="-1633.7" font-family="Times New Roman,serif" font-size="14.00">[String] Name (default = IsPause) </text>
<polygon fill="none" stroke="black" points="835.12,-1605.75 835.12,-1628.25 1063.12,-1628.25 1063.12,-1605.75 835.12,-1605.75"/>
<text text-anchor="start" x="924.75" y="-1612.95" font-family="Times New Roman,serif" font-weight="bold" font-size="14.00">Outputs</text>
<polygon fill="none" stroke="black" points="835.12,-1584 835.12,-1605.75 1063.12,-1605.75 1063.12,-1584 835.12,-1584"/>
<text text-anchor="start" x="914.62" y="-1589.45" font-family="Times New Roman,serif" font-size="14.00">[Bool] Input</text>
<polygon fill="none" stroke="black" points="834.12,-1583 834.12,-1696 1064.12,-1696 1064.12,-1583 834.12,-1583"/>
</g>
<!-- 4559&#45;&gt;4556 -->
<g id="edge3" class="edge">
<title>4559:4615&#45;&gt;4556:4614</title>
<path fill="none" stroke="#008000" stroke-dasharray="5,2" d="M949.12,-1582.5C949.12,-1545.15 901.58,-1560.88 886.12,-1526.88 856.54,-1461.81 814.43,-1367.73 873.78,-1357.64"/>
<polygon fill="#008000" stroke="#008000" points="873.92,-1361.14 883.62,-1356.87 873.37,-1354.16 873.92,-1361.14"/>
<text text-anchor="middle" x="953.75" y="-1547.7" font-family="Times New Roman,serif" font-size="14.00" fill="#008000">Input</text>
</g>
<!-- 4583 -->
<g id="node11" class="node">
<title>4583</title>
<polygon fill="none" stroke="black" stroke-width="2" points="1869.12,-813.25 1149.12,-813.25 1149.12,-691.5 1869.12,-691.5 1869.12,-813.25"/>
<polygon fill="none" stroke="black" points="1158.12,-785.75 1158.12,-808.25 1860.12,-808.25 1860.12,-785.75 1158.12,-785.75"/>
<text text-anchor="start" x="1412.75" y="-792.95" font-family="Times New Roman,serif" font-weight="bold" font-size="14.00">SeqOneShotEmitAppError (18)</text>
<polygon fill="none" stroke="black" points="1158.12,-763.25 1158.12,-785.75 1860.12,-785.75 1860.12,-763.25 1158.12,-763.25"/>
<text text-anchor="start" x="1477.25" y="-770.45" font-family="Times New Roman,serif" font-weight="bold" font-size="14.00">Properties</text>
<polygon fill="none" stroke="black" points="1158.12,-741.5 1158.12,-763.25 1860.12,-763.25 1860.12,-741.5 1158.12,-741.5"/>
<text text-anchor="start" x="1383.88" y="-746.95" font-family="Times New Roman,serif" font-size="14.00">[Bool] ExecuteEveryFrame (default = False) </text>
<polygon fill="none" stroke="black" points="1158.12,-719 1158.12,-741.5 1860.12,-741.5 1860.12,-719 1158.12,-719"/>
<text text-anchor="start" x="1490" y="-726.2" font-family="Times New Roman,serif" font-weight="bold" font-size="14.00">Inputs</text>
<polygon fill="none" stroke="black" points="1158.12,-696.5 1158.12,-719 1860.12,-719 1860.12,-696.5 1158.12,-696.5"/>
<text text-anchor="start" x="1161.12" y="-702.7" font-family="Times New Roman,serif" font-size="14.00">[String] Error (default = [Seq]GamePauseWithoutEventのアンダーフロー検知（必ずバグ報告してください）) </text>
<polygon fill="none" stroke="black" points="1157.12,-695.5 1157.12,-809.25 1861.12,-809.25 1861.12,-695.5 1157.12,-695.5"/>
</g>
<!-- 4580&#45;&gt;4583 -->
<g id="edge11" class="edge">
<title>4580&#45;&gt;4583</title>
<path fill="none" stroke="midnightblue" stroke-width="2" d="M1532.63,-951.14C1528.59,-917.18 1522.56,-866.44 1517.62,-824.85"/>
<polygon fill="midnightblue" stroke="midnightblue" stroke-width="2" points="1521.3,-826.19 1516.65,-816.67 1514.35,-827.01 1521.3,-826.19"/>
<text text-anchor="middle" x="1552.25" y="-876.45" font-family="Times New Roman,serif" font-size="14.00" fill="midnightblue">Transition</text>
</g>
<!-- 4589 -->
<g id="node12" class="node">
<title>4589</title>
<polygon fill="none" stroke="black" stroke-width="2" points="2170.88,-856 1887.38,-856 1887.38,-648.75 2170.88,-648.75 2170.88,-856"/>
<polygon fill="none" stroke="black" points="1896.38,-828.5 1896.38,-851 2161.88,-851 2161.88,-828.5 1896.38,-828.5"/>
<text text-anchor="start" x="1954.5" y="-835.7" font-family="Times New Roman,serif" font-weight="bold" font-size="14.00">Element_Sequential (16)</text>
<polygon fill="none" stroke="black" points="1896.38,-806 1896.38,-828.5 2161.88,-828.5 2161.88,-806 1896.38,-806"/>
<text text-anchor="start" x="1997.25" y="-813.2" font-family="Times New Roman,serif" font-weight="bold" font-size="14.00">Properties</text>
<polygon fill="none" stroke="black" points="1896.38,-784.25 1896.38,-806 2161.88,-806 2161.88,-784.25 1896.38,-784.25"/>
<text text-anchor="start" x="1945.12" y="-789.7" font-family="Times New Roman,serif" font-size="14.00">[Int] BusyPolicy (default = 0) </text>
<polygon fill="none" stroke="black" points="1896.38,-762.5 1896.38,-784.25 2161.88,-784.25 2161.88,-762.5 1896.38,-762.5"/>
<text text-anchor="start" x="1948.12" y="-767.95" font-family="Times New Roman,serif" font-size="14.00">[Int] NumLoop (default = 0) </text>
<polygon fill="none" stroke="black" points="1896.38,-740.75 1896.38,-762.5 2161.88,-762.5 2161.88,-740.75 1896.38,-740.75"/>
<text text-anchor="start" x="1947.38" y="-746.2" font-family="Times New Roman,serif" font-size="14.00">[Int] PlayPolicy (default = 0) </text>
<polygon fill="none" stroke="black" points="1896.38,-719 1896.38,-740.75 2161.88,-740.75 2161.88,-719 1896.38,-719"/>
<text text-anchor="start" x="1941.75" y="-724.45" font-family="Times New Roman,serif" font-size="14.00">[Int] ResultPolicy (default = 0) </text>
<polygon fill="none" stroke="black" points="1896.38,-697.25 1896.38,-719 2161.88,-719 2161.88,-697.25 1896.38,-697.25"/>
<text text-anchor="start" x="1922.62" y="-702.7" font-family="Times New Roman,serif" font-size="14.00">[Bool] IsDelayJudge (default = False) </text>
<polygon fill="none" stroke="black" points="1896.38,-675.5 1896.38,-697.25 2161.88,-697.25 2161.88,-675.5 1896.38,-675.5"/>
<text text-anchor="start" x="1939.12" y="-680.95" font-family="Times New Roman,serif" font-size="14.00">[Bool] IsLoop (default = False) </text>
<polygon fill="none" stroke="black" points="1896.38,-653.75 1896.38,-675.5 2161.88,-675.5 2161.88,-653.75 1896.38,-653.75"/>
<text text-anchor="start" x="1899.38" y="-659.2" font-family="Times New Roman,serif" font-size="14.00">[Bool] IsUpdateNextInFrame (default = True) </text>
<polygon fill="none" stroke="black" points="1895.38,-652.75 1895.38,-852 2162.88,-852 2162.88,-652.75 1895.38,-652.75"/>
</g>
<!-- 4586&#45;&gt;4589 -->
<g id="edge12" class="edge">
<title>4586&#45;&gt;4589</title>
<path fill="none" stroke="midnightblue" stroke-width="2" d="M1956.94,-951.14C1965.33,-928.16 1976.52,-897.49 1987.59,-867.18"/>
<polygon fill="midnightblue" stroke="midnightblue" stroke-width="2" points="1990.31,-869.92 1990.45,-859.32 1983.74,-867.52 1990.31,-869.92"/>
<text text-anchor="middle" x="2011.25" y="-876.45" font-family="Times New Roman,serif" font-size="14.00" fill="midnightblue">Transition</text>
</g>
<!-- 4577 -->
<g id="node10" class="node">
<title>4577</title>
<polygon fill="none" stroke="black" stroke-width="2" points="1804.88,-1527.25 1269.38,-1527.25 1269.38,-1340.25 1804.88,-1340.25 1804.88,-1527.25"/>
<polygon fill="none" stroke="black" points="1278.38,-1499.75 1278.38,-1522.25 1795.88,-1522.25 1795.88,-1499.75 1278.38,-1499.75"/>
<text text-anchor="start" x="1389" y="-1506.95" font-family="Times New Roman,serif" font-weight="bold" font-size="14.00">SeqQueryGetNonStructGameDataIntDirect (11)</text>
<polygon fill="none" stroke="black" points="1278.38,-1477.25 1278.38,-1499.75 1795.88,-1499.75 1795.88,-1477.25 1278.38,-1477.25"/>
<text text-anchor="start" x="1505.25" y="-1484.45" font-family="Times New Roman,serif" font-weight="bold" font-size="14.00">Properties</text>
<polygon fill="none" stroke="black" points="1278.38,-1455.5 1278.38,-1477.25 1795.88,-1477.25 1795.88,-1455.5 1278.38,-1455.5"/>
<text text-anchor="start" x="1411.5" y="-1460.95" font-family="Times New Roman,serif" font-size="14.00">[Bool] OutputOnlyOnEnter (default = False) </text>
<polygon fill="none" stroke="black" points="1278.38,-1433 1278.38,-1455.5 1795.88,-1455.5 1795.88,-1433 1278.38,-1433"/>
<text text-anchor="start" x="1518" y="-1440.2" font-family="Times New Roman,serif" font-weight="bold" font-size="14.00">Inputs</text>
<polygon fill="none" stroke="black" points="1278.38,-1411.25 1278.38,-1433 1795.88,-1433 1795.88,-1411.25 1278.38,-1411.25"/>
<text text-anchor="start" x="1437.75" y="-1416.7" font-family="Times New Roman,serif" font-size="14.00">[Int] GameDataIndex (default = &#45;1) </text>
<polygon fill="none" stroke="black" points="1278.38,-1389.5 1278.38,-1411.25 1795.88,-1411.25 1795.88,-1389.5 1278.38,-1389.5"/>
<text text-anchor="start" x="1281.38" y="-1394.95" font-family="Times New Roman,serif" font-size="14.00">[String] GameDataFullName (default = Sequence_GamePauseWithoutEventRequestCount) </text>
<polygon fill="none" stroke="black" points="1278.38,-1367 1278.38,-1389.5 1795.88,-1389.5 1795.88,-1367 1278.38,-1367"/>
<text text-anchor="start" x="1512.75" y="-1374.2" font-family="Times New Roman,serif" font-weight="bold" font-size="14.00">Outputs</text>
<polygon fill="none" stroke="black" points="1278.38,-1345.25 1278.38,-1367 1795.88,-1367 1795.88,-1345.25 1278.38,-1345.25"/>
<text text-anchor="start" x="1507.5" y="-1350.7" font-family="Times New Roman,serif" font-size="14.00">[Int] Value</text>
<polygon fill="none" stroke="black" points="1277.38,-1344.25 1277.38,-1523.25 1796.88,-1523.25 1796.88,-1344.25 1277.38,-1344.25"/>
</g>
<!-- 4577&#45;&gt;4574 -->
<g id="edge10" class="edge">
<title>4577:4627&#45;&gt;4574:4624</title>
<path fill="none" stroke="#008000" stroke-dasharray="5,2" d="M1537.12,-1343.75C1537.12,-1267.68 1654.86,-1350.37 1699.12,-1288.5 1740.31,-1230.94 1749.02,-1179.45 1699.12,-1129.25 1688.37,-1118.43 1579.45,-1112.3 1546.51,-1121.65"/>
<polygon fill="#008000" stroke="#008000" points="1544.53,-1118.76 1538.36,-1127.38 1548.56,-1124.49 1544.53,-1118.76"/>
<text text-anchor="middle" x="1694.38" y="-1308.95" font-family="Times New Roman,serif" font-size="14.00" fill="#008000">ValueB</text>
</g>
<!-- 4592 -->
<g id="node13" class="node">
<title>4592</title>
<polygon fill="none" stroke="black" stroke-width="2" points="2102.5,-564 1903.75,-564 1903.75,-465.5 2102.5,-465.5 2102.5,-564"/>
<polygon fill="none" stroke="black" points="1912.75,-536.5 1912.75,-559 2093.5,-559 2093.5,-536.5 1912.75,-536.5"/>
<text text-anchor="start" x="1919.5" y="-543.7" font-family="Times New Roman,serif" font-weight="bold" font-size="14.00">Element_Simultaneous (13)</text>
<polygon fill="none" stroke="black" points="1912.75,-514 1912.75,-536.5 2093.5,-536.5 2093.5,-514 1912.75,-514"/>
<text text-anchor="start" x="1971.25" y="-521.2" font-family="Times New Roman,serif" font-weight="bold" font-size="14.00">Properties</text>
<polygon fill="none" stroke="black" points="1912.75,-492.25 1912.75,-514 2093.5,-514 2093.5,-492.25 1912.75,-492.25"/>
<text text-anchor="start" x="1922.12" y="-497.7" font-family="Times New Roman,serif" font-size="14.00">[Int] EndPolicy (default = 0) </text>
<polygon fill="none" stroke="black" points="1912.75,-470.5 1912.75,-492.25 2093.5,-492.25 2093.5,-470.5 1912.75,-470.5"/>
<text text-anchor="start" x="1915.75" y="-475.95" font-family="Times New Roman,serif" font-size="14.00">[Int] ResultPolicy (default = 0) </text>
<polygon fill="none" stroke="black" points="1911.75,-469.5 1911.75,-560 2094.5,-560 2094.5,-469.5 1911.75,-469.5"/>
</g>
<!-- 4589&#45;&gt;4592 -->
<g id="edge13" class="edge">
<title>4589&#45;&gt;4592</title>
<path fill="none" stroke="firebrick" stroke-width="2" d="M2017.76,-648.37C2015.01,-623.48 2012.17,-597.7 2009.72,-575.56"/>
<polygon fill="firebrick" stroke="firebrick" stroke-width="2" points="2013.39,-576.9 2008.82,-567.35 2006.44,-577.67 2013.39,-576.9"/>
</g>
<!-- 4601 -->
<g id="node14" class="node">
<title>4601</title>
<polygon fill="none" stroke="black" stroke-width="2" points="2622.12,-597 2298.12,-597 2298.12,-432.5 2622.12,-432.5 2622.12,-597"/>
<polygon fill="none" stroke="black" points="2307.12,-569.5 2307.12,-592 2613.12,-592 2613.12,-569.5 2307.12,-569.5"/>
<text text-anchor="start" x="2360" y="-576.7" font-family="Times New Roman,serif" font-weight="bold" font-size="14.00">SeqSelectorMathCompareInt (9)</text>
<polygon fill="none" stroke="black" points="2307.12,-547 2307.12,-569.5 2613.12,-569.5 2613.12,-547 2307.12,-547"/>
<text text-anchor="start" x="2428.25" y="-554.2" font-family="Times New Roman,serif" font-weight="bold" font-size="14.00">Properties</text>
<polygon fill="none" stroke="black" points="2307.12,-525.25 2307.12,-547 2613.12,-547 2613.12,-525.25 2307.12,-525.25"/>
<text text-anchor="start" x="2310.12" y="-530.7" font-family="Times New Roman,serif" font-size="14.00">[Bool] NoChangeWhenChildIsBusy (default = False) </text>
<polygon fill="none" stroke="black" points="2307.12,-503.5 2307.12,-525.25 2613.12,-525.25 2613.12,-503.5 2307.12,-503.5"/>
<text text-anchor="start" x="2322.12" y="-508.95" font-family="Times New Roman,serif" font-size="14.00">[Bool] SelectChildOnEnterOnly (default = False) </text>
<polygon fill="none" stroke="black" points="2307.12,-481 2307.12,-503.5 2613.12,-503.5 2613.12,-481 2307.12,-481"/>
<text text-anchor="start" x="2441" y="-488.2" font-family="Times New Roman,serif" font-weight="bold" font-size="14.00">Inputs</text>
<polygon fill="none" stroke="black" points="2307.12,-459.25 2307.12,-481 2613.12,-481 2613.12,-459.25 2307.12,-459.25"/>
<text text-anchor="start" x="2387.38" y="-464.7" font-family="Times New Roman,serif" font-size="14.00">[Int] ValueA (default = 0) </text>
<polygon fill="none" stroke="black" points="2307.12,-437.5 2307.12,-459.25 2613.12,-459.25 2613.12,-437.5 2307.12,-437.5"/>
<text text-anchor="start" x="2387.75" y="-442.95" font-family="Times New Roman,serif" font-size="14.00">[Int] ValueB (default = 0) </text>
<polygon fill="none" stroke="black" points="2306.12,-436.5 2306.12,-593 2614.12,-593 2614.12,-436.5 2306.12,-436.5"/>
</g>
<!-- 4589&#45;&gt;4601 -->
<g id="edge14" class="edge">
<title>4589&#45;&gt;4601</title>
<path fill="none" stroke="firebrick" stroke-width="2" d="M2171.32,-655.61C2175.27,-653.27 2179.22,-650.98 2183.12,-648.75 2216.24,-629.89 2252.45,-611.19 2287.45,-594.04"/>
<polygon fill="firebrick" stroke="firebrick" stroke-width="2" points="2287.59,-597.87 2295.05,-590.34 2284.53,-591.57 2287.59,-597.87"/>
</g>
<!-- 4595 -->
<g id="node15" class="node">
<title>4595</title>
<polygon fill="none" stroke="black" stroke-width="2" points="1717.25,-359 1373,-359 1373,-238 1717.25,-238 1717.25,-359"/>
<polygon fill="none" stroke="black" points="1382,-331.5 1382,-354 1708.25,-354 1708.25,-331.5 1382,-331.5"/>
<text text-anchor="start" x="1454.75" y="-338.7" font-family="Times New Roman,serif" font-weight="bold" font-size="14.00">SeqOneShotReleasePause (8)</text>
<polygon fill="none" stroke="black" points="1382,-309 1382,-331.5 1708.25,-331.5 1708.25,-309 1382,-309"/>
<text text-anchor="start" x="1513.25" y="-316.2" font-family="Times New Roman,serif" font-weight="bold" font-size="14.00">Properties</text>
<polygon fill="none" stroke="black" points="1382,-287.25 1382,-309 1708.25,-309 1708.25,-287.25 1382,-287.25"/>
<text text-anchor="start" x="1419.88" y="-292.7" font-family="Times New Roman,serif" font-size="14.00">[Bool] ExecuteEveryFrame (default = False) </text>
<polygon fill="none" stroke="black" points="1382,-264.75 1382,-287.25 1708.25,-287.25 1708.25,-264.75 1382,-264.75"/>
<text text-anchor="start" x="1526" y="-271.95" font-family="Times New Roman,serif" font-weight="bold" font-size="14.00">Inputs</text>
<polygon fill="none" stroke="black" points="1382,-243 1382,-264.75 1708.25,-264.75 1708.25,-243 1382,-243"/>
<text text-anchor="start" x="1385" y="-248.45" font-family="Times New Roman,serif" font-size="14.00">[String] PauseType (default = GamePauseWithoutEvent) </text>
<polygon fill="none" stroke="black" points="1381,-242 1381,-355 1709.25,-355 1709.25,-242 1381,-242"/>
</g>
<!-- 4592&#45;&gt;4595 -->
<g id="edge15" class="edge">
<title>4592&#45;&gt;4595</title>
<path fill="none" stroke="firebrick" stroke-width="2" d="M1903.46,-467.13C1839.13,-437.03 1754.53,-397.46 1683.69,-364.32"/>
<polygon fill="firebrick" stroke="firebrick" stroke-width="2" points="1686.63,-361.83 1676.09,-360.76 1683.66,-368.17 1686.63,-361.83"/>
</g>
<!-- 4598 -->
<g id="node16" class="node">
<title>4598</title>
<polygon fill="none" stroke="black" stroke-width="2" points="2270.88,-380.75 1735.38,-380.75 1735.38,-216.25 2270.88,-216.25 2270.88,-380.75"/>
<polygon fill="none" stroke="black" points="1744.38,-353.25 1744.38,-375.75 2261.88,-375.75 2261.88,-353.25 1744.38,-353.25"/>
<text text-anchor="start" x="1869.25" y="-360.45" font-family="Times New Roman,serif" font-weight="bold" font-size="14.00">SeqOneShotAddNonStructGameDataInt (6)</text>
<polygon fill="none" stroke="black" points="1744.38,-330.75 1744.38,-353.25 2261.88,-353.25 2261.88,-330.75 1744.38,-330.75"/>
<text text-anchor="start" x="1971.25" y="-337.95" font-family="Times New Roman,serif" font-weight="bold" font-size="14.00">Properties</text>
<polygon fill="none" stroke="black" points="1744.38,-309 1744.38,-330.75 2261.88,-330.75 2261.88,-309 1744.38,-309"/>
<text text-anchor="start" x="1877.88" y="-314.45" font-family="Times New Roman,serif" font-size="14.00">[Bool] ExecuteEveryFrame (default = False) </text>
<polygon fill="none" stroke="black" points="1744.38,-286.5 1744.38,-309 2261.88,-309 2261.88,-286.5 1744.38,-286.5"/>
<text text-anchor="start" x="1984" y="-293.7" font-family="Times New Roman,serif" font-weight="bold" font-size="14.00">Inputs</text>
<polygon fill="none" stroke="black" points="1744.38,-264.75 1744.38,-286.5 2261.88,-286.5 2261.88,-264.75 1744.38,-264.75"/>
<text text-anchor="start" x="1903.75" y="-270.2" font-family="Times New Roman,serif" font-size="14.00">[Int] GameDataIndex (default = &#45;1) </text>
<polygon fill="none" stroke="black" points="1744.38,-243 1744.38,-264.75 2261.88,-264.75 2261.88,-243 1744.38,-243"/>
<text text-anchor="start" x="1933" y="-248.45" font-family="Times New Roman,serif" font-size="14.00">[Int] Value (default = &#45;1) </text>
<polygon fill="none" stroke="black" points="1744.38,-221.25 1744.38,-243 2261.88,-243 2261.88,-221.25 1744.38,-221.25"/>
<text text-anchor="start" x="1747.38" y="-226.7" font-family="Times New Roman,serif" font-size="14.00">[String] GameDataFullName (default = Sequence_GamePauseWithoutEventRequestCount) </text>
<polygon fill="none" stroke="black" points="1743.38,-220.25 1743.38,-376.75 2262.88,-376.75 2262.88,-220.25 1743.38,-220.25"/>
</g>
<!-- 4592&#45;&gt;4598 -->
<g id="edge16" class="edge">
<title>4592&#45;&gt;4598</title>
<path fill="none" stroke="firebrick" stroke-width="2" d="M2003.12,-465.13C2003.12,-443.61 2003.12,-417.55 2003.12,-392.53"/>
<polygon fill="firebrick" stroke="firebrick" stroke-width="2" points="2006.63,-394.15 2003.13,-384.15 1999.63,-394.15 2006.63,-394.15"/>
</g>
<!-- 4607 -->
<g id="node17" class="node">
<title>4607</title>
<polygon fill="none" stroke="black" stroke-width="2" points="2563.38,-336.88 2288.88,-336.88 2288.88,-260.12 2563.38,-260.12 2563.38,-336.88"/>
<polygon fill="none" stroke="black" points="2297.88,-309.38 2297.88,-331.88 2554.38,-331.88 2554.38,-309.38 2297.88,-309.38"/>
<text text-anchor="start" x="2362" y="-316.57" font-family="Times New Roman,serif" font-weight="bold" font-size="14.00">SeqOneShotEnd (17)</text>
<polygon fill="none" stroke="black" points="2297.88,-286.88 2297.88,-309.38 2554.38,-309.38 2554.38,-286.88 2297.88,-286.88"/>
<text text-anchor="start" x="2394.25" y="-294.07" font-family="Times New Roman,serif" font-weight="bold" font-size="14.00">Properties</text>
<polygon fill="none" stroke="black" points="2297.88,-265.12 2297.88,-286.88 2554.38,-286.88 2554.38,-265.12 2297.88,-265.12"/>
<text text-anchor="start" x="2300.88" y="-270.57" font-family="Times New Roman,serif" font-size="14.00">[Bool] ExecuteEveryFrame (default = False) </text>
<polygon fill="none" stroke="black" points="2296.88,-264.12 2296.88,-332.88 2555.38,-332.88 2555.38,-264.12 2296.88,-264.12"/>
</g>
<!-- 4601&#45;&gt;4607 -->
<g id="edge17" class="edge">
<title>4601&#45;&gt;4607</title>
<path fill="none" stroke="firebrick" stroke-width="2" d="M2420.35,-432.06C2418.48,-426.2 2416.87,-420.32 2415.62,-414.5 2411.05,-393.1 2412.28,-369.03 2415.21,-348.47"/>
<polygon fill="firebrick" stroke="firebrick" stroke-width="2" points="2418.42,-350.55 2416.55,-340.12 2411.51,-349.43 2418.42,-350.55"/>
<text text-anchor="middle" x="2430.88" y="-401.2" font-family="Times New Roman,serif" font-size="14.00" fill="firebrick">Equal</text>
</g>
<!-- 4601&#45;&gt;4607 -->
<g id="edge18" class="edge">
<title>4601&#45;&gt;4607</title>
<path fill="none" stroke="firebrick" stroke-width="2" d="M2451.9,-432.26C2450.47,-420.98 2448.88,-409.56 2447.12,-398.75 2444.43,-382.08 2440.8,-363.98 2437.33,-347.85"/>
<polygon fill="firebrick" stroke="firebrick" stroke-width="2" points="2441.17,-349.02 2435.61,-340 2434.33,-350.52 2441.17,-349.02"/>
<text text-anchor="middle" x="2467.12" y="-401.2" font-family="Times New Roman,serif" font-size="14.00" fill="firebrick">Bigger</text>
</g>
<!-- 4613 -->
<g id="node18" class="node">
<title>4613</title>
<polygon fill="none" stroke="black" stroke-width="2" points="2856.38,-336.88 2581.88,-336.88 2581.88,-260.12 2856.38,-260.12 2856.38,-336.88"/>
<polygon fill="none" stroke="black" points="2590.88,-309.38 2590.88,-331.88 2847.38,-331.88 2847.38,-309.38 2590.88,-309.38"/>
<text text-anchor="start" x="2655" y="-316.57" font-family="Times New Roman,serif" font-weight="bold" font-size="14.00">SeqOneShotEnd (10)</text>
<polygon fill="none" stroke="black" points="2590.88,-286.88 2590.88,-309.38 2847.38,-309.38 2847.38,-286.88 2590.88,-286.88"/>
<text text-anchor="start" x="2687.25" y="-294.07" font-family="Times New Roman,serif" font-weight="bold" font-size="14.00">Properties</text>
<polygon fill="none" stroke="black" points="2590.88,-265.12 2590.88,-286.88 2847.38,-286.88 2847.38,-265.12 2590.88,-265.12"/>
<text text-anchor="start" x="2593.88" y="-270.57" font-family="Times New Roman,serif" font-size="14.00">[Bool] ExecuteEveryFrame (default = False) </text>
<polygon fill="none" stroke="black" points="2589.88,-264.12 2589.88,-332.88 2848.38,-332.88 2848.38,-264.12 2589.88,-264.12"/>
</g>
<!-- 4601&#45;&gt;4613 -->
<g id="edge19" class="edge">
<title>4601&#45;&gt;4613</title>
<path fill="none" stroke="firebrick" stroke-width="2" d="M2558.78,-432.14C2594.69,-402.43 2633.96,-369.95 2664.65,-344.56"/>
<polygon fill="firebrick" stroke="firebrick" stroke-width="2" points="2665.67,-348.26 2671.15,-339.19 2661.21,-342.87 2665.67,-348.26"/>
<text text-anchor="middle" x="2617.75" y="-401.2" font-family="Times New Roman,serif" font-size="14.00" fill="firebrick">Smaller</text>
</g>
<!-- 4610 -->
<g id="node20" class="node">
<title>4610</title>
<polygon fill="none" stroke="black" stroke-width="2" points="2659,-164.5 2193.25,-164.5 2193.25,0 2659,0 2659,-164.5"/>
<polygon fill="none" stroke="black" points="2202.25,-137 2202.25,-159.5 2650,-159.5 2650,-137 2202.25,-137"/>
<text text-anchor="start" x="2289.25" y="-144.2" font-family="Times New Roman,serif" font-weight="bold" font-size="14.00">SeqOneShotSetNonStructGameDataBool (7)</text>
<polygon fill="none" stroke="black" points="2202.25,-114.5 2202.25,-137 2650,-137 2650,-114.5 2202.25,-114.5"/>
<text text-anchor="start" x="2394.25" y="-121.7" font-family="Times New Roman,serif" font-weight="bold" font-size="14.00">Properties</text>
<polygon fill="none" stroke="black" points="2202.25,-92.75 2202.25,-114.5 2650,-114.5 2650,-92.75 2202.25,-92.75"/>
<text text-anchor="start" x="2300.88" y="-98.2" font-family="Times New Roman,serif" font-size="14.00">[Bool] ExecuteEveryFrame (default = False) </text>
<polygon fill="none" stroke="black" points="2202.25,-70.25 2202.25,-92.75 2650,-92.75 2650,-70.25 2202.25,-70.25"/>
<text text-anchor="start" x="2407" y="-77.45" font-family="Times New Roman,serif" font-weight="bold" font-size="14.00">Inputs</text>
<polygon fill="none" stroke="black" points="2202.25,-48.5 2202.25,-70.25 2650,-70.25 2650,-48.5 2202.25,-48.5"/>
<text text-anchor="start" x="2326.75" y="-53.95" font-family="Times New Roman,serif" font-size="14.00">[Int] GameDataIndex (default = &#45;1) </text>
<polygon fill="none" stroke="black" points="2202.25,-26.75 2202.25,-48.5 2650,-48.5 2650,-26.75 2202.25,-26.75"/>
<text text-anchor="start" x="2341" y="-32.2" font-family="Times New Roman,serif" font-size="14.00">[Bool] Value (default = False) </text>
<polygon fill="none" stroke="black" points="2202.25,-5 2202.25,-26.75 2650,-26.75 2650,-5 2202.25,-5"/>
<text text-anchor="start" x="2205.25" y="-10.45" font-family="Times New Roman,serif" font-size="14.00">[String] GameDataFullName (default = Sequence_IsGamePauseWithoutEvent) </text>
<polygon fill="none" stroke="black" points="2201.25,-4 2201.25,-160.5 2651,-160.5 2651,-4 2201.25,-4"/>
</g>
<!-- 4607&#45;&gt;4610 -->
<g id="edge21" class="edge">
<title>4607&#45;&gt;4610</title>
<path fill="none" stroke="midnightblue" stroke-width="2" d="M2426.12,-259.69C2426.12,-236.36 2426.12,-205.35 2426.12,-175.83"/>
<polygon fill="midnightblue" stroke="midnightblue" stroke-width="2" points="2429.63,-177.64 2426.13,-167.64 2422.63,-177.64 2429.63,-177.64"/>
<text text-anchor="middle" x="2454.25" y="-184.95" font-family="Times New Roman,serif" font-size="14.00" fill="midnightblue">Transition</text>
</g>
<!-- 4604 -->
<g id="node19" class="node">
<title>4604</title>
<polygon fill="none" stroke="black" stroke-width="2" points="2727.88,-845.88 2192.38,-845.88 2192.38,-658.88 2727.88,-658.88 2727.88,-845.88"/>
<polygon fill="none" stroke="black" points="2201.38,-818.38 2201.38,-840.88 2718.88,-840.88 2718.88,-818.38 2201.38,-818.38"/>
<text text-anchor="start" x="2315.75" y="-825.58" font-family="Times New Roman,serif" font-weight="bold" font-size="14.00">SeqQueryGetNonStructGameDataIntDirect (3)</text>
<polygon fill="none" stroke="black" points="2201.38,-795.88 2201.38,-818.38 2718.88,-818.38 2718.88,-795.88 2201.38,-795.88"/>
<text text-anchor="start" x="2428.25" y="-803.08" font-family="Times New Roman,serif" font-weight="bold" font-size="14.00">Properties</text>
<polygon fill="none" stroke="black" points="2201.38,-774.12 2201.38,-795.88 2718.88,-795.88 2718.88,-774.12 2201.38,-774.12"/>
<text text-anchor="start" x="2334.5" y="-779.58" font-family="Times New Roman,serif" font-size="14.00">[Bool] OutputOnlyOnEnter (default = False) </text>
<polygon fill="none" stroke="black" points="2201.38,-751.62 2201.38,-774.12 2718.88,-774.12 2718.88,-751.62 2201.38,-751.62"/>
<text text-anchor="start" x="2441" y="-758.83" font-family="Times New Roman,serif" font-weight="bold" font-size="14.00">Inputs</text>
<polygon fill="none" stroke="black" points="2201.38,-729.88 2201.38,-751.62 2718.88,-751.62 2718.88,-729.88 2201.38,-729.88"/>
<text text-anchor="start" x="2360.75" y="-735.33" font-family="Times New Roman,serif" font-size="14.00">[Int] GameDataIndex (default = &#45;1) </text>
<polygon fill="none" stroke="black" points="2201.38,-708.12 2201.38,-729.88 2718.88,-729.88 2718.88,-708.12 2201.38,-708.12"/>
<text text-anchor="start" x="2204.38" y="-713.58" font-family="Times New Roman,serif" font-size="14.00">[String] GameDataFullName (default = Sequence_GamePauseWithoutEventRequestCount) </text>
<polygon fill="none" stroke="black" points="2201.38,-685.62 2201.38,-708.12 2718.88,-708.12 2718.88,-685.62 2201.38,-685.62"/>
<text text-anchor="start" x="2435.75" y="-692.83" font-family="Times New Roman,serif" font-weight="bold" font-size="14.00">Outputs</text>
<polygon fill="none" stroke="black" points="2201.38,-663.88 2201.38,-685.62 2718.88,-685.62 2718.88,-663.88 2201.38,-663.88"/>
<text text-anchor="start" x="2430.5" y="-669.33" font-family="Times New Roman,serif" font-size="14.00">[Int] Value</text>
<polygon fill="none" stroke="black" points="2200.38,-662.88 2200.38,-841.88 2719.88,-841.88 2719.88,-662.88 2200.38,-662.88"/>
</g>
<!-- 4604&#45;&gt;4601 -->
<g id="edge20" class="edge">
<title>4604:4637&#45;&gt;4601:4634</title>
<path fill="none" stroke="#008000" stroke-dasharray="5,2" d="M2460.12,-662.38C2460.12,-584.73 2578.7,-661.36 2622.12,-597 2661.72,-538.33 2672.02,-487.95 2622.12,-437.75 2611.37,-426.93 2502.45,-420.8 2469.51,-430.15"/>
<polygon fill="#008000" stroke="#008000" points="2467.53,-427.26 2461.36,-435.88 2471.56,-432.99 2467.53,-427.26"/>
<text text-anchor="middle" x="2621.38" y="-617.45" font-family="Times New Roman,serif" font-size="14.00" fill="#008000">ValueB</text>
</g>
<!-- 4641 -->
<g id="node21" class="node">
<title>4641</title>
<ellipse fill="mediumpurple" stroke="mediumpurple" cx="1121.12" cy="-1639.5" rx="31.39" ry="18"/>
<text text-anchor="start" x="1106.12" y="-1635.45" font-family="Times New Roman,serif" font-weight="bold" font-size="14.00" fill="white">Root</text>
</g>
<!-- 4641&#45;&gt;4556 -->
<g id="edge22" class="edge">
<title>4641&#45;&gt;4556</title>
<path fill="none" stroke="black" d="M1113.94,-1621.48C1105.93,-1602.49 1092.28,-1570.16 1078.57,-1537.68"/>
<polygon fill="black" stroke="black" points="1081.83,-1536.39 1074.71,-1528.54 1075.38,-1539.12 1081.83,-1536.39"/>
</g>
</g>
</svg>
