<?xml version="1.0" encoding="UTF-8" standalone="no"?>
<!DOCTYPE svg PUBLIC "-//W3C//DTD SVG 1.1//EN"
 "http://www.w3.org/Graphics/SVG/1.1/DTD/svg11.dtd">
<!-- Generated by graphviz version 9.0.0 (20230911.1827)
 -->
<!-- Title: ChangeGamePause.module Pages: 1 -->
<svg width="2537pt" height="1708pt"
 viewBox="0.00 0.00 2536.50 1708.00" xmlns="http://www.w3.org/2000/svg" xmlns:xlink="http://www.w3.org/1999/xlink">
<g id="graph0" class="graph" transform="scale(1 1) rotate(0) translate(4 1704)">
<title>ChangeGamePause.module</title>
<polygon fill="lightgray" stroke="none" points="-4,4 -4,-1704 2532.5,-1704 2532.5,4 -4,4"/>
<!-- 4468 -->
<g id="node1" class="node">
<title>4468</title>
<polygon fill="none" stroke="black" stroke-width="2" points="997.12,-1526.88 681.38,-1526.88 681.38,-1340.62 997.12,-1340.62 997.12,-1526.88"/>
<polygon fill="none" stroke="black" points="690.38,-1499.38 690.38,-1521.88 988.12,-1521.88 988.12,-1499.38 690.38,-1499.38"/>
<text text-anchor="start" x="760.88" y="-1506.58" font-family="Times New Roman,serif" font-weight="bold" font-size="14.00">Element_BoolSelector (1)</text>
<polygon fill="none" stroke="black" points="690.38,-1476.88 690.38,-1499.38 988.12,-1499.38 988.12,-1476.88 690.38,-1476.88"/>
<text text-anchor="start" x="807.38" y="-1484.08" font-family="Times New Roman,serif" font-weight="bold" font-size="14.00">Properties</text>
<polygon fill="none" stroke="black" points="690.38,-1455.12 690.38,-1476.88 988.12,-1476.88 988.12,-1455.12 690.38,-1455.12"/>
<text text-anchor="start" x="742.12" y="-1460.58" font-family="Times New Roman,serif" font-size="14.00">[Int] CalculateTiming (default = 0) </text>
<polygon fill="none" stroke="black" points="690.38,-1433.38 690.38,-1455.12 988.12,-1455.12 988.12,-1433.38 690.38,-1433.38"/>
<text text-anchor="start" x="723" y="-1438.83" font-family="Times New Roman,serif" font-size="14.00">[Bool] ChildFrameSync (default = False) </text>
<polygon fill="none" stroke="black" points="690.38,-1411.62 690.38,-1433.38 988.12,-1433.38 988.12,-1411.62 690.38,-1411.62"/>
<text text-anchor="start" x="739.5" y="-1417.08" font-family="Times New Roman,serif" font-size="14.00">[Bool] InputValue (default = False) </text>
<polygon fill="none" stroke="black" points="690.38,-1389.88 690.38,-1411.62 988.12,-1411.62 988.12,-1389.88 690.38,-1389.88"/>
<text text-anchor="start" x="693.38" y="-1395.33" font-family="Times New Roman,serif" font-size="14.00">[Bool] IsNoSelectWhenChildBusy (default = False) </text>
<polygon fill="none" stroke="black" points="690.38,-1367.38 690.38,-1389.88 988.12,-1389.88 988.12,-1367.38 690.38,-1367.38"/>
<text text-anchor="start" x="820.12" y="-1374.58" font-family="Times New Roman,serif" font-weight="bold" font-size="14.00">Inputs</text>
<polygon fill="none" stroke="black" points="690.38,-1345.62 690.38,-1367.38 988.12,-1367.38 988.12,-1345.62 690.38,-1345.62"/>
<text text-anchor="start" x="755.25" y="-1351.08" font-family="Times New Roman,serif" font-size="14.00">[Bool] Input (default = False) </text>
<polygon fill="none" stroke="black" points="689.38,-1344.62 689.38,-1522.88 989.12,-1522.88 989.12,-1344.62 689.38,-1344.62"/>
</g>
<!-- 4474 -->
<g id="node2" class="node">
<title>4474</title>
<polygon fill="none" stroke="black" stroke-width="2" points="673.62,-1255.5 474.88,-1255.5 474.88,-1157 673.62,-1157 673.62,-1255.5"/>
<polygon fill="none" stroke="black" points="483.88,-1228 483.88,-1250.5 664.62,-1250.5 664.62,-1228 483.88,-1228"/>
<text text-anchor="start" x="494.38" y="-1235.2" font-family="Times New Roman,serif" font-weight="bold" font-size="14.00">Element_Simultaneous (0)</text>
<polygon fill="none" stroke="black" points="483.88,-1205.5 483.88,-1228 664.62,-1228 664.62,-1205.5 483.88,-1205.5"/>
<text text-anchor="start" x="542.38" y="-1212.7" font-family="Times New Roman,serif" font-weight="bold" font-size="14.00">Properties</text>
<polygon fill="none" stroke="black" points="483.88,-1183.75 483.88,-1205.5 664.62,-1205.5 664.62,-1183.75 483.88,-1183.75"/>
<text text-anchor="start" x="493.25" y="-1189.2" font-family="Times New Roman,serif" font-size="14.00">[Int] EndPolicy (default = 0) </text>
<polygon fill="none" stroke="black" points="483.88,-1162 483.88,-1183.75 664.62,-1183.75 664.62,-1162 483.88,-1162"/>
<text text-anchor="start" x="486.88" y="-1167.45" font-family="Times New Roman,serif" font-size="14.00">[Int] ResultPolicy (default = 0) </text>
<polygon fill="none" stroke="black" points="482.88,-1161 482.88,-1251.5 665.62,-1251.5 665.62,-1161 482.88,-1161"/>
</g>
<!-- 4468&#45;&gt;4474 -->
<g id="edge1" class="edge">
<title>4468&#45;&gt;4474</title>
<path fill="none" stroke="firebrick" stroke-width="2" d="M730.7,-1340.38C700,-1314.26 667.53,-1286.63 640.18,-1263.35"/>
<polygon fill="firebrick" stroke="firebrick" stroke-width="2" points="643.67,-1261.73 633.79,-1257.91 639.14,-1267.06 643.67,-1261.73"/>
<text text-anchor="middle" x="720.38" y="-1308.95" font-family="Times New Roman,serif" font-size="14.00" fill="firebrick">True</text>
</g>
<!-- 4486 -->
<g id="node3" class="node">
<title>4486</title>
<polygon fill="none" stroke="black" stroke-width="2" points="1450.25,-1288.5 1126.25,-1288.5 1126.25,-1124 1450.25,-1124 1450.25,-1288.5"/>
<polygon fill="none" stroke="black" points="1135.25,-1261 1135.25,-1283.5 1441.25,-1283.5 1441.25,-1261 1135.25,-1261"/>
<text text-anchor="start" x="1184.38" y="-1268.2" font-family="Times New Roman,serif" font-weight="bold" font-size="14.00">SeqSelectorMathCompareInt (12)</text>
<polygon fill="none" stroke="black" points="1135.25,-1238.5 1135.25,-1261 1441.25,-1261 1441.25,-1238.5 1135.25,-1238.5"/>
<text text-anchor="start" x="1256.38" y="-1245.7" font-family="Times New Roman,serif" font-weight="bold" font-size="14.00">Properties</text>
<polygon fill="none" stroke="black" points="1135.25,-1216.75 1135.25,-1238.5 1441.25,-1238.5 1441.25,-1216.75 1135.25,-1216.75"/>
<text text-anchor="start" x="1138.25" y="-1222.2" font-family="Times New Roman,serif" font-size="14.00">[Bool] NoChangeWhenChildIsBusy (default = False) </text>
<polygon fill="none" stroke="black" points="1135.25,-1195 1135.25,-1216.75 1441.25,-1216.75 1441.25,-1195 1135.25,-1195"/>
<text text-anchor="start" x="1150.25" y="-1200.45" font-family="Times New Roman,serif" font-size="14.00">[Bool] SelectChildOnEnterOnly (default = False) </text>
<polygon fill="none" stroke="black" points="1135.25,-1172.5 1135.25,-1195 1441.25,-1195 1441.25,-1172.5 1135.25,-1172.5"/>
<text text-anchor="start" x="1269.12" y="-1179.7" font-family="Times New Roman,serif" font-weight="bold" font-size="14.00">Inputs</text>
<polygon fill="none" stroke="black" points="1135.25,-1150.75 1135.25,-1172.5 1441.25,-1172.5 1441.25,-1150.75 1135.25,-1150.75"/>
<text text-anchor="start" x="1215.5" y="-1156.2" font-family="Times New Roman,serif" font-size="14.00">[Int] ValueA (default = 0) </text>
<polygon fill="none" stroke="black" points="1135.25,-1129 1135.25,-1150.75 1441.25,-1150.75 1441.25,-1129 1135.25,-1129"/>
<text text-anchor="start" x="1215.88" y="-1134.45" font-family="Times New Roman,serif" font-size="14.00">[Int] ValueB (default = 0) </text>
<polygon fill="none" stroke="black" points="1134.25,-1128 1134.25,-1284.5 1442.25,-1284.5 1442.25,-1128 1134.25,-1128"/>
</g>
<!-- 4468&#45;&gt;4486 -->
<g id="edge2" class="edge">
<title>4468&#45;&gt;4486</title>
<path fill="none" stroke="firebrick" stroke-width="2" d="M997.55,-1353.25C1035.96,-1333.96 1077.2,-1313.25 1116.2,-1293.66"/>
<polygon fill="firebrick" stroke="firebrick" stroke-width="2" points="1116,-1297.68 1123.36,-1290.06 1112.86,-1291.42 1116,-1297.68"/>
<text text-anchor="middle" x="1090.88" y="-1308.95" font-family="Times New Roman,serif" font-size="14.00" fill="firebrick">False</text>
</g>
<!-- 4477 -->
<g id="node5" class="node">
<title>4477</title>
<polygon fill="none" stroke="black" stroke-width="2" points="274.5,-1050.5 0,-1050.5 0,-929.5 274.5,-929.5 274.5,-1050.5"/>
<polygon fill="none" stroke="black" points="9,-1023 9,-1045.5 265.5,-1045.5 265.5,-1023 9,-1023"/>
<text text-anchor="start" x="46.12" y="-1030.2" font-family="Times New Roman,serif" font-weight="bold" font-size="14.00">SeqOneShotRequestPause (5)</text>
<polygon fill="none" stroke="black" points="9,-1000.5 9,-1023 265.5,-1023 265.5,-1000.5 9,-1000.5"/>
<text text-anchor="start" x="105.38" y="-1007.7" font-family="Times New Roman,serif" font-weight="bold" font-size="14.00">Properties</text>
<polygon fill="none" stroke="black" points="9,-978.75 9,-1000.5 265.5,-1000.5 265.5,-978.75 9,-978.75"/>
<text text-anchor="start" x="12" y="-984.2" font-family="Times New Roman,serif" font-size="14.00">[Bool] ExecuteEveryFrame (default = False) </text>
<polygon fill="none" stroke="black" points="9,-956.25 9,-978.75 265.5,-978.75 265.5,-956.25 9,-956.25"/>
<text text-anchor="start" x="118.12" y="-963.45" font-family="Times New Roman,serif" font-weight="bold" font-size="14.00">Inputs</text>
<polygon fill="none" stroke="black" points="9,-934.5 9,-956.25 265.5,-956.25 265.5,-934.5 9,-934.5"/>
<text text-anchor="start" x="15.38" y="-939.95" font-family="Times New Roman,serif" font-size="14.00">[String] PauseType (default = GamePause) </text>
<polygon fill="none" stroke="black" points="8,-933.5 8,-1046.5 266.5,-1046.5 266.5,-933.5 8,-933.5"/>
</g>
<!-- 4474&#45;&gt;4477 -->
<g id="edge4" class="edge">
<title>4474&#45;&gt;4477</title>
<path fill="none" stroke="firebrick" stroke-width="2" d="M474.66,-1162.08C418.03,-1136.94 346.08,-1104.03 283.25,-1072.25 273.15,-1067.14 262.73,-1061.7 252.33,-1056.15"/>
<polygon fill="firebrick" stroke="firebrick" stroke-width="2" points="255.51,-1053.88 245.05,-1052.23 252.2,-1060.05 255.51,-1053.88"/>
</g>
<!-- 4480 -->
<g id="node6" class="node">
<title>4480</title>
<polygon fill="none" stroke="black" stroke-width="2" points="751.75,-1072.25 292.75,-1072.25 292.75,-907.75 751.75,-907.75 751.75,-1072.25"/>
<polygon fill="none" stroke="black" points="301.75,-1044.75 301.75,-1067.25 742.75,-1067.25 742.75,-1044.75 301.75,-1044.75"/>
<text text-anchor="start" x="388.38" y="-1051.95" font-family="Times New Roman,serif" font-weight="bold" font-size="14.00">SeqOneShotAddNonStructGameDataInt (2)</text>
<polygon fill="none" stroke="black" points="301.75,-1022.25 301.75,-1044.75 742.75,-1044.75 742.75,-1022.25 301.75,-1022.25"/>
<text text-anchor="start" x="490.38" y="-1029.45" font-family="Times New Roman,serif" font-weight="bold" font-size="14.00">Properties</text>
<polygon fill="none" stroke="black" points="301.75,-1000.5 301.75,-1022.25 742.75,-1022.25 742.75,-1000.5 301.75,-1000.5"/>
<text text-anchor="start" x="397" y="-1005.95" font-family="Times New Roman,serif" font-size="14.00">[Bool] ExecuteEveryFrame (default = False) </text>
<polygon fill="none" stroke="black" points="301.75,-978 301.75,-1000.5 742.75,-1000.5 742.75,-978 301.75,-978"/>
<text text-anchor="start" x="503.12" y="-985.2" font-family="Times New Roman,serif" font-weight="bold" font-size="14.00">Inputs</text>
<polygon fill="none" stroke="black" points="301.75,-956.25 301.75,-978 742.75,-978 742.75,-956.25 301.75,-956.25"/>
<text text-anchor="start" x="422.88" y="-961.7" font-family="Times New Roman,serif" font-size="14.00">[Int] GameDataIndex (default = &#45;1) </text>
<polygon fill="none" stroke="black" points="301.75,-934.5 301.75,-956.25 742.75,-956.25 742.75,-934.5 301.75,-934.5"/>
<text text-anchor="start" x="454.38" y="-939.95" font-family="Times New Roman,serif" font-size="14.00">[Int] Value (default = 1) </text>
<polygon fill="none" stroke="black" points="301.75,-912.75 301.75,-934.5 742.75,-934.5 742.75,-912.75 301.75,-912.75"/>
<text text-anchor="start" x="304.75" y="-918.2" font-family="Times New Roman,serif" font-size="14.00">[String] GameDataFullName (default = Sequence_GamePauseRequestCount) </text>
<polygon fill="none" stroke="black" points="300.75,-911.75 300.75,-1068.25 743.75,-1068.25 743.75,-911.75 300.75,-911.75"/>
</g>
<!-- 4474&#45;&gt;4480 -->
<g id="edge5" class="edge">
<title>4474&#45;&gt;4480</title>
<path fill="none" stroke="firebrick" stroke-width="2" d="M562.45,-1156.63C557.2,-1135.02 550.84,-1108.81 544.75,-1083.69"/>
<polygon fill="firebrick" stroke="firebrick" stroke-width="2" points="548.54,-1084.46 542.78,-1075.57 541.73,-1086.11 548.54,-1084.46"/>
</g>
<!-- 4483 -->
<g id="node7" class="node">
<title>4483</title>
<polygon fill="none" stroke="black" stroke-width="2" points="1126.38,-1072.25 770.12,-1072.25 770.12,-907.75 1126.38,-907.75 1126.38,-1072.25"/>
<polygon fill="none" stroke="black" points="779.12,-1044.75 779.12,-1067.25 1117.38,-1067.25 1117.38,-1044.75 779.12,-1044.75"/>
<text text-anchor="start" x="811.38" y="-1051.95" font-family="Times New Roman,serif" font-weight="bold" font-size="14.00">SeqOneShotSetNonStructGameDataBool (4)</text>
<polygon fill="none" stroke="black" points="779.12,-1022.25 779.12,-1044.75 1117.38,-1044.75 1117.38,-1022.25 779.12,-1022.25"/>
<text text-anchor="start" x="916.38" y="-1029.45" font-family="Times New Roman,serif" font-weight="bold" font-size="14.00">Properties</text>
<polygon fill="none" stroke="black" points="779.12,-1000.5 779.12,-1022.25 1117.38,-1022.25 1117.38,-1000.5 779.12,-1000.5"/>
<text text-anchor="start" x="823" y="-1005.95" font-family="Times New Roman,serif" font-size="14.00">[Bool] ExecuteEveryFrame (default = False) </text>
<polygon fill="none" stroke="black" points="779.12,-978 779.12,-1000.5 1117.38,-1000.5 1117.38,-978 779.12,-978"/>
<text text-anchor="start" x="929.12" y="-985.2" font-family="Times New Roman,serif" font-weight="bold" font-size="14.00">Inputs</text>
<polygon fill="none" stroke="black" points="779.12,-956.25 779.12,-978 1117.38,-978 1117.38,-956.25 779.12,-956.25"/>
<text text-anchor="start" x="848.88" y="-961.7" font-family="Times New Roman,serif" font-size="14.00">[Int] GameDataIndex (default = &#45;1) </text>
<polygon fill="none" stroke="black" points="779.12,-934.5 779.12,-956.25 1117.38,-956.25 1117.38,-934.5 779.12,-934.5"/>
<text text-anchor="start" x="864.62" y="-939.95" font-family="Times New Roman,serif" font-size="14.00">[Bool] Value (default = True) </text>
<polygon fill="none" stroke="black" points="779.12,-912.75 779.12,-934.5 1117.38,-934.5 1117.38,-912.75 779.12,-912.75"/>
<text text-anchor="start" x="782.12" y="-918.2" font-family="Times New Roman,serif" font-size="14.00">[String] GameDataFullName (default = Sequence_IsPause) </text>
<polygon fill="none" stroke="black" points="778.12,-911.75 778.12,-1068.25 1118.38,-1068.25 1118.38,-911.75 778.12,-911.75"/>
</g>
<!-- 4474&#45;&gt;4483 -->
<g id="edge6" class="edge">
<title>4474&#45;&gt;4483</title>
<path fill="none" stroke="firebrick" stroke-width="2" d="M659.12,-1156.63C699.56,-1133.47 749.2,-1105.03 795.85,-1078.3"/>
<polygon fill="firebrick" stroke="firebrick" stroke-width="2" points="796.2,-1082.14 803.13,-1074.13 792.72,-1076.07 796.2,-1082.14"/>
</g>
<!-- 4492 -->
<g id="node8" class="node">
<title>4492</title>
<polygon fill="none" stroke="black" stroke-width="2" points="1418.5,-1028.38 1144,-1028.38 1144,-951.62 1418.5,-951.62 1418.5,-1028.38"/>
<polygon fill="none" stroke="black" points="1153,-1000.88 1153,-1023.38 1409.5,-1023.38 1409.5,-1000.88 1153,-1000.88"/>
<text text-anchor="start" x="1217.12" y="-1008.08" font-family="Times New Roman,serif" font-weight="bold" font-size="14.00">SeqOneShotEnd (14)</text>
<polygon fill="none" stroke="black" points="1153,-978.38 1153,-1000.88 1409.5,-1000.88 1409.5,-978.38 1153,-978.38"/>
<text text-anchor="start" x="1249.38" y="-985.58" font-family="Times New Roman,serif" font-weight="bold" font-size="14.00">Properties</text>
<polygon fill="none" stroke="black" points="1153,-956.62 1153,-978.38 1409.5,-978.38 1409.5,-956.62 1153,-956.62"/>
<text text-anchor="start" x="1156" y="-962.08" font-family="Times New Roman,serif" font-size="14.00">[Bool] ExecuteEveryFrame (default = False) </text>
<polygon fill="none" stroke="black" points="1152,-955.62 1152,-1024.38 1410.5,-1024.38 1410.5,-955.62 1152,-955.62"/>
</g>
<!-- 4486&#45;&gt;4492 -->
<g id="edge7" class="edge">
<title>4486&#45;&gt;4492</title>
<path fill="none" stroke="firebrick" stroke-width="2" d="M1256.13,-1123.53C1254.59,-1117.66 1253.27,-1111.78 1252.25,-1106 1248.37,-1083.91 1253.04,-1059.8 1259.69,-1039.39"/>
<polygon fill="firebrick" stroke="firebrick" stroke-width="2" points="1262.4,-1042.22 1262.42,-1031.63 1255.8,-1039.9 1262.4,-1042.22"/>
<text text-anchor="middle" x="1270.25" y="-1092.7" font-family="Times New Roman,serif" font-size="14.00" fill="firebrick">Bigger</text>
</g>
<!-- 4486&#45;&gt;4492 -->
<g id="edge8" class="edge">
<title>4486&#45;&gt;4492</title>
<path fill="none" stroke="firebrick" stroke-width="2" d="M1288.96,-1123.57C1288.85,-1112.37 1288.63,-1101.02 1288.25,-1090.25 1287.67,-1073.86 1286.56,-1055.97 1285.39,-1039.95"/>
<polygon fill="firebrick" stroke="firebrick" stroke-width="2" points="1289.01,-1041.4 1284.76,-1031.69 1282.03,-1041.92 1289.01,-1041.4"/>
<text text-anchor="middle" x="1304" y="-1092.7" font-family="Times New Roman,serif" font-size="14.00" fill="firebrick">Equal</text>
</g>
<!-- 4498 -->
<g id="node9" class="node">
<title>4498</title>
<polygon fill="none" stroke="black" stroke-width="2" points="1805.5,-1028.38 1531,-1028.38 1531,-951.62 1805.5,-951.62 1805.5,-1028.38"/>
<polygon fill="none" stroke="black" points="1540,-1000.88 1540,-1023.38 1796.5,-1023.38 1796.5,-1000.88 1540,-1000.88"/>
<text text-anchor="start" x="1604.12" y="-1008.08" font-family="Times New Roman,serif" font-weight="bold" font-size="14.00">SeqOneShotEnd (15)</text>
<polygon fill="none" stroke="black" points="1540,-978.38 1540,-1000.88 1796.5,-1000.88 1796.5,-978.38 1540,-978.38"/>
<text text-anchor="start" x="1636.38" y="-985.58" font-family="Times New Roman,serif" font-weight="bold" font-size="14.00">Properties</text>
<polygon fill="none" stroke="black" points="1540,-956.62 1540,-978.38 1796.5,-978.38 1796.5,-956.62 1540,-956.62"/>
<text text-anchor="start" x="1543" y="-962.08" font-family="Times New Roman,serif" font-size="14.00">[Bool] ExecuteEveryFrame (default = False) </text>
<polygon fill="none" stroke="black" points="1539,-955.62 1539,-1024.38 1797.5,-1024.38 1797.5,-955.62 1539,-955.62"/>
</g>
<!-- 4486&#45;&gt;4498 -->
<g id="edge9" class="edge">
<title>4486&#45;&gt;4498</title>
<path fill="none" stroke="firebrick" stroke-width="2" d="M1433,-1123.64C1486.93,-1093.23 1546.02,-1059.91 1591.5,-1034.28"/>
<polygon fill="firebrick" stroke="firebrick" stroke-width="2" points="1591.65,-1038.21 1598.64,-1030.25 1588.21,-1032.11 1591.65,-1038.21"/>
<text text-anchor="middle" x="1509.88" y="-1092.7" font-family="Times New Roman,serif" font-size="14.00" fill="firebrick">Smaller</text>
</g>
<!-- 4471 -->
<g id="node4" class="node">
<title>4471</title>
<polygon fill="none" stroke="black" stroke-width="2" points="876.25,-1700 630.25,-1700 630.25,-1579 876.25,-1579 876.25,-1700"/>
<polygon fill="none" stroke="black" points="639.25,-1672.5 639.25,-1695 867.25,-1695 867.25,-1672.5 639.25,-1672.5"/>
<text text-anchor="start" x="642.25" y="-1679.7" font-family="Times New Roman,serif" font-weight="bold" font-size="14.00">Element_ModuleIF_Input_Bool (19)</text>
<polygon fill="none" stroke="black" points="639.25,-1650 639.25,-1672.5 867.25,-1672.5 867.25,-1650 639.25,-1650"/>
<text text-anchor="start" x="721.38" y="-1657.2" font-family="Times New Roman,serif" font-weight="bold" font-size="14.00">Properties</text>
<polygon fill="none" stroke="black" points="639.25,-1628.25 639.25,-1650 867.25,-1650 867.25,-1628.25 639.25,-1628.25"/>
<text text-anchor="start" x="657.62" y="-1633.7" font-family="Times New Roman,serif" font-size="14.00">[String] Name (default = IsPause) </text>
<polygon fill="none" stroke="black" points="639.25,-1605.75 639.25,-1628.25 867.25,-1628.25 867.25,-1605.75 639.25,-1605.75"/>
<text text-anchor="start" x="728.88" y="-1612.95" font-family="Times New Roman,serif" font-weight="bold" font-size="14.00">Outputs</text>
<polygon fill="none" stroke="black" points="639.25,-1584 639.25,-1605.75 867.25,-1605.75 867.25,-1584 639.25,-1584"/>
<text text-anchor="start" x="718.75" y="-1589.45" font-family="Times New Roman,serif" font-size="14.00">[Bool] Input</text>
<polygon fill="none" stroke="black" points="638.25,-1583 638.25,-1696 868.25,-1696 868.25,-1583 638.25,-1583"/>
</g>
<!-- 4471&#45;&gt;4468 -->
<g id="edge3" class="edge">
<title>4471:4527&#45;&gt;4468:4526</title>
<path fill="none" stroke="#008000" stroke-dasharray="5,2" d="M753.25,-1582.5C753.25,-1545.15 705.71,-1560.88 690.25,-1526.88 660.67,-1461.81 618.55,-1367.73 677.91,-1357.64"/>
<polygon fill="#008000" stroke="#008000" points="678.04,-1361.14 687.74,-1356.87 677.5,-1354.16 678.04,-1361.14"/>
<text text-anchor="middle" x="757.88" y="-1547.7" font-family="Times New Roman,serif" font-size="14.00" fill="#008000">Input</text>
</g>
<!-- 4495 -->
<g id="node11" class="node">
<title>4495</title>
<polygon fill="none" stroke="black" stroke-width="2" points="1579,-813.25 935.5,-813.25 935.5,-691.5 1579,-691.5 1579,-813.25"/>
<polygon fill="none" stroke="black" points="944.5,-785.75 944.5,-808.25 1570,-808.25 1570,-785.75 944.5,-785.75"/>
<text text-anchor="start" x="1160.88" y="-792.95" font-family="Times New Roman,serif" font-weight="bold" font-size="14.00">SeqOneShotEmitAppError (18)</text>
<polygon fill="none" stroke="black" points="944.5,-763.25 944.5,-785.75 1570,-785.75 1570,-763.25 944.5,-763.25"/>
<text text-anchor="start" x="1225.38" y="-770.45" font-family="Times New Roman,serif" font-weight="bold" font-size="14.00">Properties</text>
<polygon fill="none" stroke="black" points="944.5,-741.5 944.5,-763.25 1570,-763.25 1570,-741.5 944.5,-741.5"/>
<text text-anchor="start" x="1132" y="-746.95" font-family="Times New Roman,serif" font-size="14.00">[Bool] ExecuteEveryFrame (default = False) </text>
<polygon fill="none" stroke="black" points="944.5,-719 944.5,-741.5 1570,-741.5 1570,-719 944.5,-719"/>
<text text-anchor="start" x="1238.12" y="-726.2" font-family="Times New Roman,serif" font-weight="bold" font-size="14.00">Inputs</text>
<polygon fill="none" stroke="black" points="944.5,-696.5 944.5,-719 1570,-719 1570,-696.5 944.5,-696.5"/>
<text text-anchor="start" x="947.5" y="-702.7" font-family="Times New Roman,serif" font-size="14.00">[String] Error (default = [Seq]GamePauseのアンダーフロー検知（必ずバグ報告してください）) </text>
<polygon fill="none" stroke="black" points="943.5,-695.5 943.5,-809.25 1571,-809.25 1571,-695.5 943.5,-695.5"/>
</g>
<!-- 4492&#45;&gt;4495 -->
<g id="edge11" class="edge">
<title>4492&#45;&gt;4495</title>
<path fill="none" stroke="midnightblue" stroke-width="2" d="M1277.39,-951.14C1273.94,-917.25 1268.79,-866.65 1264.56,-825.12"/>
<polygon fill="midnightblue" stroke="midnightblue" stroke-width="2" points="1268.19,-826.27 1263.7,-816.68 1261.23,-826.98 1268.19,-826.27"/>
<text text-anchor="middle" x="1298.38" y="-876.45" font-family="Times New Roman,serif" font-size="14.00" fill="midnightblue">Transition</text>
</g>
<!-- 4501 -->
<g id="node12" class="node">
<title>4501</title>
<polygon fill="none" stroke="black" stroke-width="2" points="1881,-856 1597.5,-856 1597.5,-648.75 1881,-648.75 1881,-856"/>
<polygon fill="none" stroke="black" points="1606.5,-828.5 1606.5,-851 1872,-851 1872,-828.5 1606.5,-828.5"/>
<text text-anchor="start" x="1664.62" y="-835.7" font-family="Times New Roman,serif" font-weight="bold" font-size="14.00">Element_Sequential (16)</text>
<polygon fill="none" stroke="black" points="1606.5,-806 1606.5,-828.5 1872,-828.5 1872,-806 1606.5,-806"/>
<text text-anchor="start" x="1707.38" y="-813.2" font-family="Times New Roman,serif" font-weight="bold" font-size="14.00">Properties</text>
<polygon fill="none" stroke="black" points="1606.5,-784.25 1606.5,-806 1872,-806 1872,-784.25 1606.5,-784.25"/>
<text text-anchor="start" x="1655.25" y="-789.7" font-family="Times New Roman,serif" font-size="14.00">[Int] BusyPolicy (default = 0) </text>
<polygon fill="none" stroke="black" points="1606.5,-762.5 1606.5,-784.25 1872,-784.25 1872,-762.5 1606.5,-762.5"/>
<text text-anchor="start" x="1658.25" y="-767.95" font-family="Times New Roman,serif" font-size="14.00">[Int] NumLoop (default = 0) </text>
<polygon fill="none" stroke="black" points="1606.5,-740.75 1606.5,-762.5 1872,-762.5 1872,-740.75 1606.5,-740.75"/>
<text text-anchor="start" x="1657.5" y="-746.2" font-family="Times New Roman,serif" font-size="14.00">[Int] PlayPolicy (default = 0) </text>
<polygon fill="none" stroke="black" points="1606.5,-719 1606.5,-740.75 1872,-740.75 1872,-719 1606.5,-719"/>
<text text-anchor="start" x="1651.88" y="-724.45" font-family="Times New Roman,serif" font-size="14.00">[Int] ResultPolicy (default = 0) </text>
<polygon fill="none" stroke="black" points="1606.5,-697.25 1606.5,-719 1872,-719 1872,-697.25 1606.5,-697.25"/>
<text text-anchor="start" x="1632.75" y="-702.7" font-family="Times New Roman,serif" font-size="14.00">[Bool] IsDelayJudge (default = False) </text>
<polygon fill="none" stroke="black" points="1606.5,-675.5 1606.5,-697.25 1872,-697.25 1872,-675.5 1606.5,-675.5"/>
<text text-anchor="start" x="1649.25" y="-680.95" font-family="Times New Roman,serif" font-size="14.00">[Bool] IsLoop (default = False) </text>
<polygon fill="none" stroke="black" points="1606.5,-653.75 1606.5,-675.5 1872,-675.5 1872,-653.75 1606.5,-653.75"/>
<text text-anchor="start" x="1609.5" y="-659.2" font-family="Times New Roman,serif" font-size="14.00">[Bool] IsUpdateNextInFrame (default = True) </text>
<polygon fill="none" stroke="black" points="1605.5,-652.75 1605.5,-852 1873,-852 1873,-652.75 1605.5,-652.75"/>
</g>
<!-- 4498&#45;&gt;4501 -->
<g id="edge12" class="edge">
<title>4498&#45;&gt;4501</title>
<path fill="none" stroke="midnightblue" stroke-width="2" d="M1679.66,-951.14C1686.58,-928.16 1695.82,-897.49 1704.96,-867.18"/>
<polygon fill="midnightblue" stroke="midnightblue" stroke-width="2" points="1707.77,-869.96 1707.31,-859.38 1701.07,-867.94 1707.77,-869.96"/>
<text text-anchor="middle" x="1729.38" y="-876.45" font-family="Times New Roman,serif" font-size="14.00" fill="midnightblue">Transition</text>
</g>
<!-- 4489 -->
<g id="node10" class="node">
<title>4489</title>
<polygon fill="none" stroke="black" stroke-width="2" points="1517.75,-1527.25 1058.75,-1527.25 1058.75,-1340.25 1517.75,-1340.25 1517.75,-1527.25"/>
<polygon fill="none" stroke="black" points="1067.75,-1499.75 1067.75,-1522.25 1508.75,-1522.25 1508.75,-1499.75 1067.75,-1499.75"/>
<text text-anchor="start" x="1140.12" y="-1506.95" font-family="Times New Roman,serif" font-weight="bold" font-size="14.00">SeqQueryGetNonStructGameDataIntDirect (11)</text>
<polygon fill="none" stroke="black" points="1067.75,-1477.25 1067.75,-1499.75 1508.75,-1499.75 1508.75,-1477.25 1067.75,-1477.25"/>
<text text-anchor="start" x="1256.38" y="-1484.45" font-family="Times New Roman,serif" font-weight="bold" font-size="14.00">Properties</text>
<polygon fill="none" stroke="black" points="1067.75,-1455.5 1067.75,-1477.25 1508.75,-1477.25 1508.75,-1455.5 1067.75,-1455.5"/>
<text text-anchor="start" x="1162.62" y="-1460.95" font-family="Times New Roman,serif" font-size="14.00">[Bool] OutputOnlyOnEnter (default = False) </text>
<polygon fill="none" stroke="black" points="1067.75,-1433 1067.75,-1455.5 1508.75,-1455.5 1508.75,-1433 1067.75,-1433"/>
<text text-anchor="start" x="1269.12" y="-1440.2" font-family="Times New Roman,serif" font-weight="bold" font-size="14.00">Inputs</text>
<polygon fill="none" stroke="black" points="1067.75,-1411.25 1067.75,-1433 1508.75,-1433 1508.75,-1411.25 1067.75,-1411.25"/>
<text text-anchor="start" x="1188.88" y="-1416.7" font-family="Times New Roman,serif" font-size="14.00">[Int] GameDataIndex (default = &#45;1) </text>
<polygon fill="none" stroke="black" points="1067.75,-1389.5 1067.75,-1411.25 1508.75,-1411.25 1508.75,-1389.5 1067.75,-1389.5"/>
<text text-anchor="start" x="1070.75" y="-1394.95" font-family="Times New Roman,serif" font-size="14.00">[String] GameDataFullName (default = Sequence_GamePauseRequestCount) </text>
<polygon fill="none" stroke="black" points="1067.75,-1367 1067.75,-1389.5 1508.75,-1389.5 1508.75,-1367 1067.75,-1367"/>
<text text-anchor="start" x="1263.88" y="-1374.2" font-family="Times New Roman,serif" font-weight="bold" font-size="14.00">Outputs</text>
<polygon fill="none" stroke="black" points="1067.75,-1345.25 1067.75,-1367 1508.75,-1367 1508.75,-1345.25 1067.75,-1345.25"/>
<text text-anchor="start" x="1258.62" y="-1350.7" font-family="Times New Roman,serif" font-size="14.00">[Int] Value</text>
<polygon fill="none" stroke="black" points="1066.75,-1344.25 1066.75,-1523.25 1509.75,-1523.25 1509.75,-1344.25 1066.75,-1344.25"/>
</g>
<!-- 4489&#45;&gt;4486 -->
<g id="edge10" class="edge">
<title>4489:4539&#45;&gt;4486:4536</title>
<path fill="none" stroke="#008000" stroke-dasharray="5,2" d="M1288.25,-1343.75C1288.25,-1267.68 1405.98,-1350.37 1450.25,-1288.5 1491.44,-1230.94 1500.14,-1179.45 1450.25,-1129.25 1439.49,-1118.43 1330.57,-1112.3 1297.63,-1121.65"/>
<polygon fill="#008000" stroke="#008000" points="1295.65,-1118.76 1289.49,-1127.38 1299.68,-1124.49 1295.65,-1118.76"/>
<text text-anchor="middle" x="1445.5" y="-1308.95" font-family="Times New Roman,serif" font-size="14.00" fill="#008000">ValueB</text>
</g>
<!-- 4504 -->
<g id="node13" class="node">
<title>4504</title>
<polygon fill="none" stroke="black" stroke-width="2" points="1812.62,-564 1613.88,-564 1613.88,-465.5 1812.62,-465.5 1812.62,-564"/>
<polygon fill="none" stroke="black" points="1622.88,-536.5 1622.88,-559 1803.62,-559 1803.62,-536.5 1622.88,-536.5"/>
<text text-anchor="start" x="1629.62" y="-543.7" font-family="Times New Roman,serif" font-weight="bold" font-size="14.00">Element_Simultaneous (13)</text>
<polygon fill="none" stroke="black" points="1622.88,-514 1622.88,-536.5 1803.62,-536.5 1803.62,-514 1622.88,-514"/>
<text text-anchor="start" x="1681.38" y="-521.2" font-family="Times New Roman,serif" font-weight="bold" font-size="14.00">Properties</text>
<polygon fill="none" stroke="black" points="1622.88,-492.25 1622.88,-514 1803.62,-514 1803.62,-492.25 1622.88,-492.25"/>
<text text-anchor="start" x="1632.25" y="-497.7" font-family="Times New Roman,serif" font-size="14.00">[Int] EndPolicy (default = 0) </text>
<polygon fill="none" stroke="black" points="1622.88,-470.5 1622.88,-492.25 1803.62,-492.25 1803.62,-470.5 1622.88,-470.5"/>
<text text-anchor="start" x="1625.88" y="-475.95" font-family="Times New Roman,serif" font-size="14.00">[Int] ResultPolicy (default = 0) </text>
<polygon fill="none" stroke="black" points="1621.88,-469.5 1621.88,-560 1804.62,-560 1804.62,-469.5 1621.88,-469.5"/>
</g>
<!-- 4501&#45;&gt;4504 -->
<g id="edge13" class="edge">
<title>4501&#45;&gt;4504</title>
<path fill="none" stroke="firebrick" stroke-width="2" d="M1727.88,-648.37C1725.14,-623.48 1722.29,-597.7 1719.85,-575.56"/>
<polygon fill="firebrick" stroke="firebrick" stroke-width="2" points="1723.52,-576.9 1718.94,-567.35 1716.56,-577.67 1723.52,-576.9"/>
</g>
<!-- 4513 -->
<g id="node14" class="node">
<title>4513</title>
<polygon fill="none" stroke="black" stroke-width="2" points="2293.25,-597 1969.25,-597 1969.25,-432.5 2293.25,-432.5 2293.25,-597"/>
<polygon fill="none" stroke="black" points="1978.25,-569.5 1978.25,-592 2284.25,-592 2284.25,-569.5 1978.25,-569.5"/>
<text text-anchor="start" x="2031.12" y="-576.7" font-family="Times New Roman,serif" font-weight="bold" font-size="14.00">SeqSelectorMathCompareInt (9)</text>
<polygon fill="none" stroke="black" points="1978.25,-547 1978.25,-569.5 2284.25,-569.5 2284.25,-547 1978.25,-547"/>
<text text-anchor="start" x="2099.38" y="-554.2" font-family="Times New Roman,serif" font-weight="bold" font-size="14.00">Properties</text>
<polygon fill="none" stroke="black" points="1978.25,-525.25 1978.25,-547 2284.25,-547 2284.25,-525.25 1978.25,-525.25"/>
<text text-anchor="start" x="1981.25" y="-530.7" font-family="Times New Roman,serif" font-size="14.00">[Bool] NoChangeWhenChildIsBusy (default = False) </text>
<polygon fill="none" stroke="black" points="1978.25,-503.5 1978.25,-525.25 2284.25,-525.25 2284.25,-503.5 1978.25,-503.5"/>
<text text-anchor="start" x="1993.25" y="-508.95" font-family="Times New Roman,serif" font-size="14.00">[Bool] SelectChildOnEnterOnly (default = False) </text>
<polygon fill="none" stroke="black" points="1978.25,-481 1978.25,-503.5 2284.25,-503.5 2284.25,-481 1978.25,-481"/>
<text text-anchor="start" x="2112.12" y="-488.2" font-family="Times New Roman,serif" font-weight="bold" font-size="14.00">Inputs</text>
<polygon fill="none" stroke="black" points="1978.25,-459.25 1978.25,-481 2284.25,-481 2284.25,-459.25 1978.25,-459.25"/>
<text text-anchor="start" x="2058.5" y="-464.7" font-family="Times New Roman,serif" font-size="14.00">[Int] ValueA (default = 0) </text>
<polygon fill="none" stroke="black" points="1978.25,-437.5 1978.25,-459.25 2284.25,-459.25 2284.25,-437.5 1978.25,-437.5"/>
<text text-anchor="start" x="2058.88" y="-442.95" font-family="Times New Roman,serif" font-size="14.00">[Int] ValueB (default = 0) </text>
<polygon fill="none" stroke="black" points="1977.25,-436.5 1977.25,-593 2285.25,-593 2285.25,-436.5 1977.25,-436.5"/>
</g>
<!-- 4501&#45;&gt;4513 -->
<g id="edge14" class="edge">
<title>4501&#45;&gt;4513</title>
<path fill="none" stroke="firebrick" stroke-width="2" d="M1881.21,-656.19C1885.26,-653.66 1889.28,-651.18 1893.25,-648.75 1918.14,-633.54 1944.84,-617.94 1971.03,-603.03"/>
<polygon fill="firebrick" stroke="firebrick" stroke-width="2" points="1971.44,-606.82 1978.41,-598.84 1967.98,-600.73 1971.44,-606.82"/>
</g>
<!-- 4507 -->
<g id="node15" class="node">
<title>4507</title>
<polygon fill="none" stroke="black" stroke-width="2" points="1465.5,-359 1191,-359 1191,-238 1465.5,-238 1465.5,-359"/>
<polygon fill="none" stroke="black" points="1200,-331.5 1200,-354 1456.5,-354 1456.5,-331.5 1200,-331.5"/>
<text text-anchor="start" x="1237.88" y="-338.7" font-family="Times New Roman,serif" font-weight="bold" font-size="14.00">SeqOneShotReleasePause (8)</text>
<polygon fill="none" stroke="black" points="1200,-309 1200,-331.5 1456.5,-331.5 1456.5,-309 1200,-309"/>
<text text-anchor="start" x="1296.38" y="-316.2" font-family="Times New Roman,serif" font-weight="bold" font-size="14.00">Properties</text>
<polygon fill="none" stroke="black" points="1200,-287.25 1200,-309 1456.5,-309 1456.5,-287.25 1200,-287.25"/>
<text text-anchor="start" x="1203" y="-292.7" font-family="Times New Roman,serif" font-size="14.00">[Bool] ExecuteEveryFrame (default = False) </text>
<polygon fill="none" stroke="black" points="1200,-264.75 1200,-287.25 1456.5,-287.25 1456.5,-264.75 1200,-264.75"/>
<text text-anchor="start" x="1309.12" y="-271.95" font-family="Times New Roman,serif" font-weight="bold" font-size="14.00">Inputs</text>
<polygon fill="none" stroke="black" points="1200,-243 1200,-264.75 1456.5,-264.75 1456.5,-243 1200,-243"/>
<text text-anchor="start" x="1206.38" y="-248.45" font-family="Times New Roman,serif" font-size="14.00">[String] PauseType (default = GamePause) </text>
<polygon fill="none" stroke="black" points="1199,-242 1199,-355 1457.5,-355 1457.5,-242 1199,-242"/>
</g>
<!-- 4504&#45;&gt;4507 -->
<g id="edge15" class="edge">
<title>4504&#45;&gt;4507</title>
<path fill="none" stroke="firebrick" stroke-width="2" d="M1625.89,-465.13C1572.62,-435.49 1503.85,-397.22 1445.84,-364.94"/>
<polygon fill="firebrick" stroke="firebrick" stroke-width="2" points="1448.97,-362.68 1438.53,-360.87 1445.57,-368.79 1448.97,-362.68"/>
</g>
<!-- 4510 -->
<g id="node16" class="node">
<title>4510</title>
<polygon fill="none" stroke="black" stroke-width="2" points="1942.75,-380.75 1483.75,-380.75 1483.75,-216.25 1942.75,-216.25 1942.75,-380.75"/>
<polygon fill="none" stroke="black" points="1492.75,-353.25 1492.75,-375.75 1933.75,-375.75 1933.75,-353.25 1492.75,-353.25"/>
<text text-anchor="start" x="1579.38" y="-360.45" font-family="Times New Roman,serif" font-weight="bold" font-size="14.00">SeqOneShotAddNonStructGameDataInt (6)</text>
<polygon fill="none" stroke="black" points="1492.75,-330.75 1492.75,-353.25 1933.75,-353.25 1933.75,-330.75 1492.75,-330.75"/>
<text text-anchor="start" x="1681.38" y="-337.95" font-family="Times New Roman,serif" font-weight="bold" font-size="14.00">Properties</text>
<polygon fill="none" stroke="black" points="1492.75,-309 1492.75,-330.75 1933.75,-330.75 1933.75,-309 1492.75,-309"/>
<text text-anchor="start" x="1588" y="-314.45" font-family="Times New Roman,serif" font-size="14.00">[Bool] ExecuteEveryFrame (default = False) </text>
<polygon fill="none" stroke="black" points="1492.75,-286.5 1492.75,-309 1933.75,-309 1933.75,-286.5 1492.75,-286.5"/>
<text text-anchor="start" x="1694.12" y="-293.7" font-family="Times New Roman,serif" font-weight="bold" font-size="14.00">Inputs</text>
<polygon fill="none" stroke="black" points="1492.75,-264.75 1492.75,-286.5 1933.75,-286.5 1933.75,-264.75 1492.75,-264.75"/>
<text text-anchor="start" x="1613.88" y="-270.2" font-family="Times New Roman,serif" font-size="14.00">[Int] GameDataIndex (default = &#45;1) </text>
<polygon fill="none" stroke="black" points="1492.75,-243 1492.75,-264.75 1933.75,-264.75 1933.75,-243 1492.75,-243"/>
<text text-anchor="start" x="1643.12" y="-248.45" font-family="Times New Roman,serif" font-size="14.00">[Int] Value (default = &#45;1) </text>
<polygon fill="none" stroke="black" points="1492.75,-221.25 1492.75,-243 1933.75,-243 1933.75,-221.25 1492.75,-221.25"/>
<text text-anchor="start" x="1495.75" y="-226.7" font-family="Times New Roman,serif" font-size="14.00">[String] GameDataFullName (default = Sequence_GamePauseRequestCount) </text>
<polygon fill="none" stroke="black" points="1491.75,-220.25 1491.75,-376.75 1934.75,-376.75 1934.75,-220.25 1491.75,-220.25"/>
</g>
<!-- 4504&#45;&gt;4510 -->
<g id="edge16" class="edge">
<title>4504&#45;&gt;4510</title>
<path fill="none" stroke="firebrick" stroke-width="2" d="M1713.25,-465.13C1713.25,-443.61 1713.25,-417.55 1713.25,-392.53"/>
<polygon fill="firebrick" stroke="firebrick" stroke-width="2" points="1716.75,-394.15 1713.25,-384.15 1709.75,-394.15 1716.75,-394.15"/>
</g>
<!-- 4519 -->
<g id="node17" class="node">
<title>4519</title>
<polygon fill="none" stroke="black" stroke-width="2" points="2235.5,-336.88 1961,-336.88 1961,-260.12 2235.5,-260.12 2235.5,-336.88"/>
<polygon fill="none" stroke="black" points="1970,-309.38 1970,-331.88 2226.5,-331.88 2226.5,-309.38 1970,-309.38"/>
<text text-anchor="start" x="2034.12" y="-316.57" font-family="Times New Roman,serif" font-weight="bold" font-size="14.00">SeqOneShotEnd (17)</text>
<polygon fill="none" stroke="black" points="1970,-286.88 1970,-309.38 2226.5,-309.38 2226.5,-286.88 1970,-286.88"/>
<text text-anchor="start" x="2066.38" y="-294.07" font-family="Times New Roman,serif" font-weight="bold" font-size="14.00">Properties</text>
<polygon fill="none" stroke="black" points="1970,-265.12 1970,-286.88 2226.5,-286.88 2226.5,-265.12 1970,-265.12"/>
<text text-anchor="start" x="1973" y="-270.57" font-family="Times New Roman,serif" font-size="14.00">[Bool] ExecuteEveryFrame (default = False) </text>
<polygon fill="none" stroke="black" points="1969,-264.12 1969,-332.88 2227.5,-332.88 2227.5,-264.12 1969,-264.12"/>
</g>
<!-- 4513&#45;&gt;4519 -->
<g id="edge17" class="edge">
<title>4513&#45;&gt;4519</title>
<path fill="none" stroke="firebrick" stroke-width="2" d="M2091.48,-432.06C2089.61,-426.2 2087.99,-420.32 2086.75,-414.5 2082.17,-393.08 2083.59,-369.01 2086.72,-348.45"/>
<polygon fill="firebrick" stroke="firebrick" stroke-width="2" points="2089.91,-350.55 2088.16,-340.1 2083.01,-349.36 2089.91,-350.55"/>
<text text-anchor="middle" x="2102" y="-401.2" font-family="Times New Roman,serif" font-size="14.00" fill="firebrick">Equal</text>
</g>
<!-- 4513&#45;&gt;4519 -->
<g id="edge18" class="edge">
<title>4513&#45;&gt;4519</title>
<path fill="none" stroke="firebrick" stroke-width="2" d="M2122.92,-432.27C2121.51,-420.99 2119.95,-409.57 2118.25,-398.75 2115.64,-382.1 2112.18,-364 2108.87,-347.87"/>
<polygon fill="firebrick" stroke="firebrick" stroke-width="2" points="2112.7,-349.1 2107.23,-340.03 2105.85,-350.53 2112.7,-349.1"/>
<text text-anchor="middle" x="2138.25" y="-401.2" font-family="Times New Roman,serif" font-size="14.00" fill="firebrick">Bigger</text>
</g>
<!-- 4525 -->
<g id="node18" class="node">
<title>4525</title>
<polygon fill="none" stroke="black" stroke-width="2" points="2528.5,-336.88 2254,-336.88 2254,-260.12 2528.5,-260.12 2528.5,-336.88"/>
<polygon fill="none" stroke="black" points="2263,-309.38 2263,-331.88 2519.5,-331.88 2519.5,-309.38 2263,-309.38"/>
<text text-anchor="start" x="2327.12" y="-316.57" font-family="Times New Roman,serif" font-weight="bold" font-size="14.00">SeqOneShotEnd (10)</text>
<polygon fill="none" stroke="black" points="2263,-286.88 2263,-309.38 2519.5,-309.38 2519.5,-286.88 2263,-286.88"/>
<text text-anchor="start" x="2359.38" y="-294.07" font-family="Times New Roman,serif" font-weight="bold" font-size="14.00">Properties</text>
<polygon fill="none" stroke="black" points="2263,-265.12 2263,-286.88 2519.5,-286.88 2519.5,-265.12 2263,-265.12"/>
<text text-anchor="start" x="2266" y="-270.57" font-family="Times New Roman,serif" font-size="14.00">[Bool] ExecuteEveryFrame (default = False) </text>
<polygon fill="none" stroke="black" points="2262,-264.12 2262,-332.88 2520.5,-332.88 2520.5,-264.12 2262,-264.12"/>
</g>
<!-- 4513&#45;&gt;4525 -->
<g id="edge19" class="edge">
<title>4513&#45;&gt;4525</title>
<path fill="none" stroke="firebrick" stroke-width="2" d="M2230.29,-432.14C2266.34,-402.43 2305.76,-369.95 2336.57,-344.56"/>
<polygon fill="firebrick" stroke="firebrick" stroke-width="2" points="2337.6,-348.25 2343.09,-339.19 2333.15,-342.84 2337.6,-348.25"/>
<text text-anchor="middle" x="2288.88" y="-401.2" font-family="Times New Roman,serif" font-size="14.00" fill="firebrick">Smaller</text>
</g>
<!-- 4522 -->
<g id="node20" class="node">
<title>4522</title>
<polygon fill="none" stroke="black" stroke-width="2" points="2276.38,-164.5 1920.12,-164.5 1920.12,0 2276.38,0 2276.38,-164.5"/>
<polygon fill="none" stroke="black" points="1929.12,-137 1929.12,-159.5 2267.38,-159.5 2267.38,-137 1929.12,-137"/>
<text text-anchor="start" x="1961.38" y="-144.2" font-family="Times New Roman,serif" font-weight="bold" font-size="14.00">SeqOneShotSetNonStructGameDataBool (7)</text>
<polygon fill="none" stroke="black" points="1929.12,-114.5 1929.12,-137 2267.38,-137 2267.38,-114.5 1929.12,-114.5"/>
<text text-anchor="start" x="2066.38" y="-121.7" font-family="Times New Roman,serif" font-weight="bold" font-size="14.00">Properties</text>
<polygon fill="none" stroke="black" points="1929.12,-92.75 1929.12,-114.5 2267.38,-114.5 2267.38,-92.75 1929.12,-92.75"/>
<text text-anchor="start" x="1973" y="-98.2" font-family="Times New Roman,serif" font-size="14.00">[Bool] ExecuteEveryFrame (default = False) </text>
<polygon fill="none" stroke="black" points="1929.12,-70.25 1929.12,-92.75 2267.38,-92.75 2267.38,-70.25 1929.12,-70.25"/>
<text text-anchor="start" x="2079.12" y="-77.45" font-family="Times New Roman,serif" font-weight="bold" font-size="14.00">Inputs</text>
<polygon fill="none" stroke="black" points="1929.12,-48.5 1929.12,-70.25 2267.38,-70.25 2267.38,-48.5 1929.12,-48.5"/>
<text text-anchor="start" x="1998.88" y="-53.95" font-family="Times New Roman,serif" font-size="14.00">[Int] GameDataIndex (default = &#45;1) </text>
<polygon fill="none" stroke="black" points="1929.12,-26.75 1929.12,-48.5 2267.38,-48.5 2267.38,-26.75 1929.12,-26.75"/>
<text text-anchor="start" x="2013.12" y="-32.2" font-family="Times New Roman,serif" font-size="14.00">[Bool] Value (default = False) </text>
<polygon fill="none" stroke="black" points="1929.12,-5 1929.12,-26.75 2267.38,-26.75 2267.38,-5 1929.12,-5"/>
<text text-anchor="start" x="1932.12" y="-10.45" font-family="Times New Roman,serif" font-size="14.00">[String] GameDataFullName (default = Sequence_IsPause) </text>
<polygon fill="none" stroke="black" points="1928.12,-4 1928.12,-160.5 2268.38,-160.5 2268.38,-4 1928.12,-4"/>
</g>
<!-- 4519&#45;&gt;4522 -->
<g id="edge21" class="edge">
<title>4519&#45;&gt;4522</title>
<path fill="none" stroke="midnightblue" stroke-width="2" d="M2098.25,-259.69C2098.25,-236.36 2098.25,-205.35 2098.25,-175.83"/>
<polygon fill="midnightblue" stroke="midnightblue" stroke-width="2" points="2101.75,-177.64 2098.25,-167.64 2094.75,-177.64 2101.75,-177.64"/>
<text text-anchor="middle" x="2126.38" y="-184.95" font-family="Times New Roman,serif" font-size="14.00" fill="midnightblue">Transition</text>
</g>
<!-- 4516 -->
<g id="node19" class="node">
<title>4516</title>
<polygon fill="none" stroke="black" stroke-width="2" points="2360.75,-845.88 1901.75,-845.88 1901.75,-658.88 2360.75,-658.88 2360.75,-845.88"/>
<polygon fill="none" stroke="black" points="1910.75,-818.38 1910.75,-840.88 2351.75,-840.88 2351.75,-818.38 1910.75,-818.38"/>
<text text-anchor="start" x="1986.88" y="-825.58" font-family="Times New Roman,serif" font-weight="bold" font-size="14.00">SeqQueryGetNonStructGameDataIntDirect (3)</text>
<polygon fill="none" stroke="black" points="1910.75,-795.88 1910.75,-818.38 2351.75,-818.38 2351.75,-795.88 1910.75,-795.88"/>
<text text-anchor="start" x="2099.38" y="-803.08" font-family="Times New Roman,serif" font-weight="bold" font-size="14.00">Properties</text>
<polygon fill="none" stroke="black" points="1910.75,-774.12 1910.75,-795.88 2351.75,-795.88 2351.75,-774.12 1910.75,-774.12"/>
<text text-anchor="start" x="2005.62" y="-779.58" font-family="Times New Roman,serif" font-size="14.00">[Bool] OutputOnlyOnEnter (default = False) </text>
<polygon fill="none" stroke="black" points="1910.75,-751.62 1910.75,-774.12 2351.75,-774.12 2351.75,-751.62 1910.75,-751.62"/>
<text text-anchor="start" x="2112.12" y="-758.83" font-family="Times New Roman,serif" font-weight="bold" font-size="14.00">Inputs</text>
<polygon fill="none" stroke="black" points="1910.75,-729.88 1910.75,-751.62 2351.75,-751.62 2351.75,-729.88 1910.75,-729.88"/>
<text text-anchor="start" x="2031.88" y="-735.33" font-family="Times New Roman,serif" font-size="14.00">[Int] GameDataIndex (default = &#45;1) </text>
<polygon fill="none" stroke="black" points="1910.75,-708.12 1910.75,-729.88 2351.75,-729.88 2351.75,-708.12 1910.75,-708.12"/>
<text text-anchor="start" x="1913.75" y="-713.58" font-family="Times New Roman,serif" font-size="14.00">[String] GameDataFullName (default = Sequence_GamePauseRequestCount) </text>
<polygon fill="none" stroke="black" points="1910.75,-685.62 1910.75,-708.12 2351.75,-708.12 2351.75,-685.62 1910.75,-685.62"/>
<text text-anchor="start" x="2106.88" y="-692.83" font-family="Times New Roman,serif" font-weight="bold" font-size="14.00">Outputs</text>
<polygon fill="none" stroke="black" points="1910.75,-663.88 1910.75,-685.62 2351.75,-685.62 2351.75,-663.88 1910.75,-663.88"/>
<text text-anchor="start" x="2101.62" y="-669.33" font-family="Times New Roman,serif" font-size="14.00">[Int] Value</text>
<polygon fill="none" stroke="black" points="1909.75,-662.88 1909.75,-841.88 2352.75,-841.88 2352.75,-662.88 1909.75,-662.88"/>
</g>
<!-- 4516&#45;&gt;4513 -->
<g id="edge20" class="edge">
<title>4516:4549&#45;&gt;4513:4546</title>
<path fill="none" stroke="#008000" stroke-dasharray="5,2" d="M2131.25,-662.38C2131.25,-584.73 2249.82,-661.36 2293.25,-597 2332.84,-538.33 2343.14,-487.95 2293.25,-437.75 2282.49,-426.93 2173.57,-420.8 2140.63,-430.15"/>
<polygon fill="#008000" stroke="#008000" points="2138.65,-427.26 2132.49,-435.88 2142.68,-432.99 2138.65,-427.26"/>
<text text-anchor="middle" x="2292.5" y="-617.45" font-family="Times New Roman,serif" font-size="14.00" fill="#008000">ValueB</text>
</g>
<!-- 4553 -->
<g id="node21" class="node">
<title>4553</title>
<ellipse fill="mediumpurple" stroke="mediumpurple" cx="925.25" cy="-1639.5" rx="31.39" ry="18"/>
<text text-anchor="start" x="910.25" y="-1635.45" font-family="Times New Roman,serif" font-weight="bold" font-size="14.00" fill="white">Root</text>
</g>
<!-- 4553&#45;&gt;4468 -->
<g id="edge22" class="edge">
<title>4553&#45;&gt;4468</title>
<path fill="none" stroke="black" d="M918.07,-1621.48C910.05,-1602.49 896.4,-1570.16 882.7,-1537.68"/>
<polygon fill="black" stroke="black" points="885.95,-1536.39 878.84,-1528.54 879.5,-1539.12 885.95,-1536.39"/>
</g>
</g>
</svg>
