<?xml version="1.0" encoding="UTF-8" standalone="no"?>
<!DOCTYPE svg PUBLIC "-//W3C//DTD SVG 1.1//EN"
 "http://www.w3.org/Graphics/SVG/1.1/DTD/svg11.dtd">
<!-- Generated by graphviz version 9.0.0 (20230911.1827)
 -->
<!-- Title: ChangePostGamePause.module Pages: 1 -->
<svg width="2664pt" height="1708pt"
 viewBox="0.00 0.00 2663.88 1708.00" xmlns="http://www.w3.org/2000/svg" xmlns:xlink="http://www.w3.org/1999/xlink">
<g id="graph0" class="graph" transform="scale(1 1) rotate(0) translate(4 1704)">
<title>ChangePostGamePause.module</title>
<polygon fill="lightgray" stroke="none" points="-4,4 -4,-1704 2659.88,-1704 2659.88,4 -4,4"/>
<!-- 4644 -->
<g id="node1" class="node">
<title>4644</title>
<polygon fill="none" stroke="black" stroke-width="2" points="1075.5,-1526.88 759.75,-1526.88 759.75,-1340.62 1075.5,-1340.62 1075.5,-1526.88"/>
<polygon fill="none" stroke="black" points="768.75,-1499.38 768.75,-1521.88 1066.5,-1521.88 1066.5,-1499.38 768.75,-1499.38"/>
<text text-anchor="start" x="839.25" y="-1506.58" font-family="Times New Roman,serif" font-weight="bold" font-size="14.00">Element_BoolSelector (1)</text>
<polygon fill="none" stroke="black" points="768.75,-1476.88 768.75,-1499.38 1066.5,-1499.38 1066.5,-1476.88 768.75,-1476.88"/>
<text text-anchor="start" x="885.75" y="-1484.08" font-family="Times New Roman,serif" font-weight="bold" font-size="14.00">Properties</text>
<polygon fill="none" stroke="black" points="768.75,-1455.12 768.75,-1476.88 1066.5,-1476.88 1066.5,-1455.12 768.75,-1455.12"/>
<text text-anchor="start" x="820.5" y="-1460.58" font-family="Times New Roman,serif" font-size="14.00">[Int] CalculateTiming (default = 0) </text>
<polygon fill="none" stroke="black" points="768.75,-1433.38 768.75,-1455.12 1066.5,-1455.12 1066.5,-1433.38 768.75,-1433.38"/>
<text text-anchor="start" x="801.38" y="-1438.83" font-family="Times New Roman,serif" font-size="14.00">[Bool] ChildFrameSync (default = False) </text>
<polygon fill="none" stroke="black" points="768.75,-1411.62 768.75,-1433.38 1066.5,-1433.38 1066.5,-1411.62 768.75,-1411.62"/>
<text text-anchor="start" x="817.88" y="-1417.08" font-family="Times New Roman,serif" font-size="14.00">[Bool] InputValue (default = False) </text>
<polygon fill="none" stroke="black" points="768.75,-1389.88 768.75,-1411.62 1066.5,-1411.62 1066.5,-1389.88 768.75,-1389.88"/>
<text text-anchor="start" x="771.75" y="-1395.33" font-family="Times New Roman,serif" font-size="14.00">[Bool] IsNoSelectWhenChildBusy (default = False) </text>
<polygon fill="none" stroke="black" points="768.75,-1367.38 768.75,-1389.88 1066.5,-1389.88 1066.5,-1367.38 768.75,-1367.38"/>
<text text-anchor="start" x="898.5" y="-1374.58" font-family="Times New Roman,serif" font-weight="bold" font-size="14.00">Inputs</text>
<polygon fill="none" stroke="black" points="768.75,-1345.62 768.75,-1367.38 1066.5,-1367.38 1066.5,-1345.62 768.75,-1345.62"/>
<text text-anchor="start" x="833.62" y="-1351.08" font-family="Times New Roman,serif" font-size="14.00">[Bool] Input (default = False) </text>
<polygon fill="none" stroke="black" points="767.75,-1344.62 767.75,-1522.88 1067.5,-1522.88 1067.5,-1344.62 767.75,-1344.62"/>
</g>
<!-- 4650 -->
<g id="node2" class="node">
<title>4650</title>
<polygon fill="none" stroke="black" stroke-width="2" points="708,-1255.5 509.25,-1255.5 509.25,-1157 708,-1157 708,-1255.5"/>
<polygon fill="none" stroke="black" points="518.25,-1228 518.25,-1250.5 699,-1250.5 699,-1228 518.25,-1228"/>
<text text-anchor="start" x="528.75" y="-1235.2" font-family="Times New Roman,serif" font-weight="bold" font-size="14.00">Element_Simultaneous (0)</text>
<polygon fill="none" stroke="black" points="518.25,-1205.5 518.25,-1228 699,-1228 699,-1205.5 518.25,-1205.5"/>
<text text-anchor="start" x="576.75" y="-1212.7" font-family="Times New Roman,serif" font-weight="bold" font-size="14.00">Properties</text>
<polygon fill="none" stroke="black" points="518.25,-1183.75 518.25,-1205.5 699,-1205.5 699,-1183.75 518.25,-1183.75"/>
<text text-anchor="start" x="527.62" y="-1189.2" font-family="Times New Roman,serif" font-size="14.00">[Int] EndPolicy (default = 0) </text>
<polygon fill="none" stroke="black" points="518.25,-1162 518.25,-1183.75 699,-1183.75 699,-1162 518.25,-1162"/>
<text text-anchor="start" x="521.25" y="-1167.45" font-family="Times New Roman,serif" font-size="14.00">[Int] ResultPolicy (default = 0) </text>
<polygon fill="none" stroke="black" points="517.25,-1161 517.25,-1251.5 700,-1251.5 700,-1161 517.25,-1161"/>
</g>
<!-- 4644&#45;&gt;4650 -->
<g id="edge1" class="edge">
<title>4644&#45;&gt;4650</title>
<path fill="none" stroke="firebrick" stroke-width="2" d="M791.05,-1340.38C754.79,-1313.92 716.41,-1285.91 684.26,-1262.45"/>
<polygon fill="firebrick" stroke="firebrick" stroke-width="2" points="687.95,-1260.8 677.81,-1257.74 683.82,-1266.46 687.95,-1260.8"/>
<text text-anchor="middle" x="776.75" y="-1308.95" font-family="Times New Roman,serif" font-size="14.00" fill="firebrick">True</text>
</g>
<!-- 4662 -->
<g id="node3" class="node">
<title>4662</title>
<polygon fill="none" stroke="black" stroke-width="2" points="1549.62,-1288.5 1225.62,-1288.5 1225.62,-1124 1549.62,-1124 1549.62,-1288.5"/>
<polygon fill="none" stroke="black" points="1234.62,-1261 1234.62,-1283.5 1540.62,-1283.5 1540.62,-1261 1234.62,-1261"/>
<text text-anchor="start" x="1283.75" y="-1268.2" font-family="Times New Roman,serif" font-weight="bold" font-size="14.00">SeqSelectorMathCompareInt (12)</text>
<polygon fill="none" stroke="black" points="1234.62,-1238.5 1234.62,-1261 1540.62,-1261 1540.62,-1238.5 1234.62,-1238.5"/>
<text text-anchor="start" x="1355.75" y="-1245.7" font-family="Times New Roman,serif" font-weight="bold" font-size="14.00">Properties</text>
<polygon fill="none" stroke="black" points="1234.62,-1216.75 1234.62,-1238.5 1540.62,-1238.5 1540.62,-1216.75 1234.62,-1216.75"/>
<text text-anchor="start" x="1237.62" y="-1222.2" font-family="Times New Roman,serif" font-size="14.00">[Bool] NoChangeWhenChildIsBusy (default = False) </text>
<polygon fill="none" stroke="black" points="1234.62,-1195 1234.62,-1216.75 1540.62,-1216.75 1540.62,-1195 1234.62,-1195"/>
<text text-anchor="start" x="1249.62" y="-1200.45" font-family="Times New Roman,serif" font-size="14.00">[Bool] SelectChildOnEnterOnly (default = False) </text>
<polygon fill="none" stroke="black" points="1234.62,-1172.5 1234.62,-1195 1540.62,-1195 1540.62,-1172.5 1234.62,-1172.5"/>
<text text-anchor="start" x="1368.5" y="-1179.7" font-family="Times New Roman,serif" font-weight="bold" font-size="14.00">Inputs</text>
<polygon fill="none" stroke="black" points="1234.62,-1150.75 1234.62,-1172.5 1540.62,-1172.5 1540.62,-1150.75 1234.62,-1150.75"/>
<text text-anchor="start" x="1314.88" y="-1156.2" font-family="Times New Roman,serif" font-size="14.00">[Int] ValueA (default = 0) </text>
<polygon fill="none" stroke="black" points="1234.62,-1129 1234.62,-1150.75 1540.62,-1150.75 1540.62,-1129 1234.62,-1129"/>
<text text-anchor="start" x="1315.25" y="-1134.45" font-family="Times New Roman,serif" font-size="14.00">[Int] ValueB (default = 0) </text>
<polygon fill="none" stroke="black" points="1233.62,-1128 1233.62,-1284.5 1541.62,-1284.5 1541.62,-1128 1233.62,-1128"/>
</g>
<!-- 4644&#45;&gt;4662 -->
<g id="edge2" class="edge">
<title>4644&#45;&gt;4662</title>
<path fill="none" stroke="firebrick" stroke-width="2" d="M1075.76,-1356.88C1120.5,-1335.41 1169.41,-1311.95 1214.96,-1290.09"/>
<polygon fill="firebrick" stroke="firebrick" stroke-width="2" points="1215,-1293.96 1222.5,-1286.48 1211.97,-1287.65 1215,-1293.96"/>
<text text-anchor="middle" x="1181.25" y="-1308.95" font-family="Times New Roman,serif" font-size="14.00" fill="firebrick">False</text>
</g>
<!-- 4653 -->
<g id="node5" class="node">
<title>4653</title>
<polygon fill="none" stroke="black" stroke-width="2" points="293.25,-1050.5 0,-1050.5 0,-929.5 293.25,-929.5 293.25,-1050.5"/>
<polygon fill="none" stroke="black" points="9,-1023 9,-1045.5 284.25,-1045.5 284.25,-1023 9,-1023"/>
<text text-anchor="start" x="55.5" y="-1030.2" font-family="Times New Roman,serif" font-weight="bold" font-size="14.00">SeqOneShotRequestPause (5)</text>
<polygon fill="none" stroke="black" points="9,-1000.5 9,-1023 284.25,-1023 284.25,-1000.5 9,-1000.5"/>
<text text-anchor="start" x="114.75" y="-1007.7" font-family="Times New Roman,serif" font-weight="bold" font-size="14.00">Properties</text>
<polygon fill="none" stroke="black" points="9,-978.75 9,-1000.5 284.25,-1000.5 284.25,-978.75 9,-978.75"/>
<text text-anchor="start" x="21.38" y="-984.2" font-family="Times New Roman,serif" font-size="14.00">[Bool] ExecuteEveryFrame (default = False) </text>
<polygon fill="none" stroke="black" points="9,-956.25 9,-978.75 284.25,-978.75 284.25,-956.25 9,-956.25"/>
<text text-anchor="start" x="127.5" y="-963.45" font-family="Times New Roman,serif" font-weight="bold" font-size="14.00">Inputs</text>
<polygon fill="none" stroke="black" points="9,-934.5 9,-956.25 284.25,-956.25 284.25,-934.5 9,-934.5"/>
<text text-anchor="start" x="12" y="-939.95" font-family="Times New Roman,serif" font-size="14.00">[String] PauseType (default = PostGamePause) </text>
<polygon fill="none" stroke="black" points="8,-933.5 8,-1046.5 285.25,-1046.5 285.25,-933.5 8,-933.5"/>
</g>
<!-- 4650&#45;&gt;4653 -->
<g id="edge4" class="edge">
<title>4650&#45;&gt;4653</title>
<path fill="none" stroke="firebrick" stroke-width="2" d="M508.95,-1164.02C448.74,-1138.59 370.72,-1104.73 302.62,-1072.25 291.86,-1067.12 280.75,-1061.66 269.66,-1056.09"/>
<polygon fill="firebrick" stroke="firebrick" stroke-width="2" points="272.68,-1053.7 262.18,-1052.32 269.53,-1059.95 272.68,-1053.7"/>
</g>
<!-- 4656 -->
<g id="node6" class="node">
<title>4656</title>
<polygon fill="none" stroke="black" stroke-width="2" points="795.88,-1072.25 311.38,-1072.25 311.38,-907.75 795.88,-907.75 795.88,-1072.25"/>
<polygon fill="none" stroke="black" points="320.38,-1044.75 320.38,-1067.25 786.88,-1067.25 786.88,-1044.75 320.38,-1044.75"/>
<text text-anchor="start" x="419.75" y="-1051.95" font-family="Times New Roman,serif" font-weight="bold" font-size="14.00">SeqOneShotAddNonStructGameDataInt (2)</text>
<polygon fill="none" stroke="black" points="320.38,-1022.25 320.38,-1044.75 786.88,-1044.75 786.88,-1022.25 320.38,-1022.25"/>
<text text-anchor="start" x="521.75" y="-1029.45" font-family="Times New Roman,serif" font-weight="bold" font-size="14.00">Properties</text>
<polygon fill="none" stroke="black" points="320.38,-1000.5 320.38,-1022.25 786.88,-1022.25 786.88,-1000.5 320.38,-1000.5"/>
<text text-anchor="start" x="428.38" y="-1005.95" font-family="Times New Roman,serif" font-size="14.00">[Bool] ExecuteEveryFrame (default = False) </text>
<polygon fill="none" stroke="black" points="320.38,-978 320.38,-1000.5 786.88,-1000.5 786.88,-978 320.38,-978"/>
<text text-anchor="start" x="534.5" y="-985.2" font-family="Times New Roman,serif" font-weight="bold" font-size="14.00">Inputs</text>
<polygon fill="none" stroke="black" points="320.38,-956.25 320.38,-978 786.88,-978 786.88,-956.25 320.38,-956.25"/>
<text text-anchor="start" x="454.25" y="-961.7" font-family="Times New Roman,serif" font-size="14.00">[Int] GameDataIndex (default = &#45;1) </text>
<polygon fill="none" stroke="black" points="320.38,-934.5 320.38,-956.25 786.88,-956.25 786.88,-934.5 320.38,-934.5"/>
<text text-anchor="start" x="485.75" y="-939.95" font-family="Times New Roman,serif" font-size="14.00">[Int] Value (default = 1) </text>
<polygon fill="none" stroke="black" points="320.38,-912.75 320.38,-934.5 786.88,-934.5 786.88,-912.75 320.38,-912.75"/>
<text text-anchor="start" x="323.38" y="-918.2" font-family="Times New Roman,serif" font-size="14.00">[String] GameDataFullName (default = Sequence_PostGamePauseRequestCount) </text>
<polygon fill="none" stroke="black" points="319.38,-911.75 319.38,-1068.25 787.88,-1068.25 787.88,-911.75 319.38,-911.75"/>
</g>
<!-- 4650&#45;&gt;4656 -->
<g id="edge5" class="edge">
<title>4650&#45;&gt;4656</title>
<path fill="none" stroke="firebrick" stroke-width="2" d="M596.14,-1156.63C590.6,-1135.02 583.87,-1108.81 577.42,-1083.69"/>
<polygon fill="firebrick" stroke="firebrick" stroke-width="2" points="581.21,-1084.37 575.33,-1075.56 574.43,-1086.11 581.21,-1084.37"/>
</g>
<!-- 4659 -->
<g id="node7" class="node">
<title>4659</title>
<polygon fill="none" stroke="black" stroke-width="2" points="1229,-1072.25 814.25,-1072.25 814.25,-907.75 1229,-907.75 1229,-1072.25"/>
<polygon fill="none" stroke="black" points="823.25,-1044.75 823.25,-1067.25 1220,-1067.25 1220,-1044.75 823.25,-1044.75"/>
<text text-anchor="start" x="884.75" y="-1051.95" font-family="Times New Roman,serif" font-weight="bold" font-size="14.00">SeqOneShotSetNonStructGameDataBool (4)</text>
<polygon fill="none" stroke="black" points="823.25,-1022.25 823.25,-1044.75 1220,-1044.75 1220,-1022.25 823.25,-1022.25"/>
<text text-anchor="start" x="989.75" y="-1029.45" font-family="Times New Roman,serif" font-weight="bold" font-size="14.00">Properties</text>
<polygon fill="none" stroke="black" points="823.25,-1000.5 823.25,-1022.25 1220,-1022.25 1220,-1000.5 823.25,-1000.5"/>
<text text-anchor="start" x="896.38" y="-1005.95" font-family="Times New Roman,serif" font-size="14.00">[Bool] ExecuteEveryFrame (default = False) </text>
<polygon fill="none" stroke="black" points="823.25,-978 823.25,-1000.5 1220,-1000.5 1220,-978 823.25,-978"/>
<text text-anchor="start" x="1002.5" y="-985.2" font-family="Times New Roman,serif" font-weight="bold" font-size="14.00">Inputs</text>
<polygon fill="none" stroke="black" points="823.25,-956.25 823.25,-978 1220,-978 1220,-956.25 823.25,-956.25"/>
<text text-anchor="start" x="922.25" y="-961.7" font-family="Times New Roman,serif" font-size="14.00">[Int] GameDataIndex (default = &#45;1) </text>
<polygon fill="none" stroke="black" points="823.25,-934.5 823.25,-956.25 1220,-956.25 1220,-934.5 823.25,-934.5"/>
<text text-anchor="start" x="938" y="-939.95" font-family="Times New Roman,serif" font-size="14.00">[Bool] Value (default = True) </text>
<polygon fill="none" stroke="black" points="823.25,-912.75 823.25,-934.5 1220,-934.5 1220,-912.75 823.25,-912.75"/>
<text text-anchor="start" x="826.25" y="-918.2" font-family="Times New Roman,serif" font-size="14.00">[String] GameDataFullName (default = Sequence_IsPostGamePause) </text>
<polygon fill="none" stroke="black" points="822.25,-911.75 822.25,-1068.25 1221,-1068.25 1221,-911.75 822.25,-911.75"/>
</g>
<!-- 4650&#45;&gt;4659 -->
<g id="edge6" class="edge">
<title>4650&#45;&gt;4659</title>
<path fill="none" stroke="firebrick" stroke-width="2" d="M702.34,-1156.63C747.28,-1133.32 802.5,-1104.67 854.31,-1077.8"/>
<polygon fill="firebrick" stroke="firebrick" stroke-width="2" points="854.33,-1081.73 861.59,-1074.02 851.1,-1075.52 854.33,-1081.73"/>
</g>
<!-- 4668 -->
<g id="node8" class="node">
<title>4668</title>
<polygon fill="none" stroke="black" stroke-width="2" points="1521.88,-1028.38 1247.38,-1028.38 1247.38,-951.62 1521.88,-951.62 1521.88,-1028.38"/>
<polygon fill="none" stroke="black" points="1256.38,-1000.88 1256.38,-1023.38 1512.88,-1023.38 1512.88,-1000.88 1256.38,-1000.88"/>
<text text-anchor="start" x="1320.5" y="-1008.08" font-family="Times New Roman,serif" font-weight="bold" font-size="14.00">SeqOneShotEnd (14)</text>
<polygon fill="none" stroke="black" points="1256.38,-978.38 1256.38,-1000.88 1512.88,-1000.88 1512.88,-978.38 1256.38,-978.38"/>
<text text-anchor="start" x="1352.75" y="-985.58" font-family="Times New Roman,serif" font-weight="bold" font-size="14.00">Properties</text>
<polygon fill="none" stroke="black" points="1256.38,-956.62 1256.38,-978.38 1512.88,-978.38 1512.88,-956.62 1256.38,-956.62"/>
<text text-anchor="start" x="1259.38" y="-962.08" font-family="Times New Roman,serif" font-size="14.00">[Bool] ExecuteEveryFrame (default = False) </text>
<polygon fill="none" stroke="black" points="1255.38,-955.62 1255.38,-1024.38 1513.88,-1024.38 1513.88,-955.62 1255.38,-955.62"/>
</g>
<!-- 4662&#45;&gt;4668 -->
<g id="edge7" class="edge">
<title>4662&#45;&gt;4668</title>
<path fill="none" stroke="firebrick" stroke-width="2" d="M1359.13,-1123.68C1357.74,-1117.75 1356.54,-1111.81 1355.62,-1106 1352.14,-1083.84 1356.87,-1059.72 1363.46,-1039.32"/>
<polygon fill="firebrick" stroke="firebrick" stroke-width="2" points="1366.17,-1042.17 1366.16,-1031.57 1359.56,-1039.86 1366.17,-1042.17"/>
<text text-anchor="middle" x="1373.62" y="-1092.7" font-family="Times New Roman,serif" font-size="14.00" fill="firebrick">Bigger</text>
</g>
<!-- 4662&#45;&gt;4668 -->
<g id="edge8" class="edge">
<title>4662&#45;&gt;4668</title>
<path fill="none" stroke="firebrick" stroke-width="2" d="M1391.88,-1123.58C1392.05,-1112.38 1392,-1101.03 1391.62,-1090.25 1391.05,-1073.86 1389.94,-1055.97 1388.76,-1039.95"/>
<polygon fill="firebrick" stroke="firebrick" stroke-width="2" points="1392.38,-1041.4 1388.14,-1031.69 1385.4,-1041.92 1392.38,-1041.4"/>
<text text-anchor="middle" x="1407.38" y="-1092.7" font-family="Times New Roman,serif" font-size="14.00" fill="firebrick">Equal</text>
</g>
<!-- 4674 -->
<g id="node9" class="node">
<title>4674</title>
<polygon fill="none" stroke="black" stroke-width="2" points="1914.88,-1028.38 1640.38,-1028.38 1640.38,-951.62 1914.88,-951.62 1914.88,-1028.38"/>
<polygon fill="none" stroke="black" points="1649.38,-1000.88 1649.38,-1023.38 1905.88,-1023.38 1905.88,-1000.88 1649.38,-1000.88"/>
<text text-anchor="start" x="1713.5" y="-1008.08" font-family="Times New Roman,serif" font-weight="bold" font-size="14.00">SeqOneShotEnd (15)</text>
<polygon fill="none" stroke="black" points="1649.38,-978.38 1649.38,-1000.88 1905.88,-1000.88 1905.88,-978.38 1649.38,-978.38"/>
<text text-anchor="start" x="1745.75" y="-985.58" font-family="Times New Roman,serif" font-weight="bold" font-size="14.00">Properties</text>
<polygon fill="none" stroke="black" points="1649.38,-956.62 1649.38,-978.38 1905.88,-978.38 1905.88,-956.62 1649.38,-956.62"/>
<text text-anchor="start" x="1652.38" y="-962.08" font-family="Times New Roman,serif" font-size="14.00">[Bool] ExecuteEveryFrame (default = False) </text>
<polygon fill="none" stroke="black" points="1648.38,-955.62 1648.38,-1024.38 1906.88,-1024.38 1906.88,-955.62 1648.38,-955.62"/>
</g>
<!-- 4662&#45;&gt;4674 -->
<g id="edge9" class="edge">
<title>4662&#45;&gt;4674</title>
<path fill="none" stroke="firebrick" stroke-width="2" d="M1536.18,-1123.64C1591.53,-1093.23 1652.18,-1059.91 1698.85,-1034.28"/>
<polygon fill="firebrick" stroke="firebrick" stroke-width="2" points="1699.16,-1038.1 1706.24,-1030.22 1695.79,-1031.97 1699.16,-1038.1"/>
<text text-anchor="middle" x="1614.25" y="-1092.7" font-family="Times New Roman,serif" font-size="14.00" fill="firebrick">Smaller</text>
</g>
<!-- 4647 -->
<g id="node4" class="node">
<title>4647</title>
<polygon fill="none" stroke="black" stroke-width="2" points="954.62,-1700 708.62,-1700 708.62,-1579 954.62,-1579 954.62,-1700"/>
<polygon fill="none" stroke="black" points="717.62,-1672.5 717.62,-1695 945.62,-1695 945.62,-1672.5 717.62,-1672.5"/>
<text text-anchor="start" x="720.62" y="-1679.7" font-family="Times New Roman,serif" font-weight="bold" font-size="14.00">Element_ModuleIF_Input_Bool (19)</text>
<polygon fill="none" stroke="black" points="717.62,-1650 717.62,-1672.5 945.62,-1672.5 945.62,-1650 717.62,-1650"/>
<text text-anchor="start" x="799.75" y="-1657.2" font-family="Times New Roman,serif" font-weight="bold" font-size="14.00">Properties</text>
<polygon fill="none" stroke="black" points="717.62,-1628.25 717.62,-1650 945.62,-1650 945.62,-1628.25 717.62,-1628.25"/>
<text text-anchor="start" x="736" y="-1633.7" font-family="Times New Roman,serif" font-size="14.00">[String] Name (default = IsPause) </text>
<polygon fill="none" stroke="black" points="717.62,-1605.75 717.62,-1628.25 945.62,-1628.25 945.62,-1605.75 717.62,-1605.75"/>
<text text-anchor="start" x="807.25" y="-1612.95" font-family="Times New Roman,serif" font-weight="bold" font-size="14.00">Outputs</text>
<polygon fill="none" stroke="black" points="717.62,-1584 717.62,-1605.75 945.62,-1605.75 945.62,-1584 717.62,-1584"/>
<text text-anchor="start" x="797.12" y="-1589.45" font-family="Times New Roman,serif" font-size="14.00">[Bool] Input</text>
<polygon fill="none" stroke="black" points="716.62,-1583 716.62,-1696 946.62,-1696 946.62,-1583 716.62,-1583"/>
</g>
<!-- 4647&#45;&gt;4644 -->
<g id="edge3" class="edge">
<title>4647:4703&#45;&gt;4644:4702</title>
<path fill="none" stroke="#008000" stroke-dasharray="5,2" d="M831.62,-1582.5C831.62,-1545.15 784.08,-1560.88 768.62,-1526.88 739.04,-1461.81 696.93,-1367.73 756.28,-1357.64"/>
<polygon fill="#008000" stroke="#008000" points="756.42,-1361.14 766.12,-1356.87 755.87,-1354.16 756.42,-1361.14"/>
<text text-anchor="middle" x="836.25" y="-1547.7" font-family="Times New Roman,serif" font-size="14.00" fill="#008000">Input</text>
</g>
<!-- 4671 -->
<g id="node11" class="node">
<title>4671</title>
<polygon fill="none" stroke="black" stroke-width="2" points="1694.12,-813.25 1025.12,-813.25 1025.12,-691.5 1694.12,-691.5 1694.12,-813.25"/>
<polygon fill="none" stroke="black" points="1034.12,-785.75 1034.12,-808.25 1685.12,-808.25 1685.12,-785.75 1034.12,-785.75"/>
<text text-anchor="start" x="1263.25" y="-792.95" font-family="Times New Roman,serif" font-weight="bold" font-size="14.00">SeqOneShotEmitAppError (18)</text>
<polygon fill="none" stroke="black" points="1034.12,-763.25 1034.12,-785.75 1685.12,-785.75 1685.12,-763.25 1034.12,-763.25"/>
<text text-anchor="start" x="1327.75" y="-770.45" font-family="Times New Roman,serif" font-weight="bold" font-size="14.00">Properties</text>
<polygon fill="none" stroke="black" points="1034.12,-741.5 1034.12,-763.25 1685.12,-763.25 1685.12,-741.5 1034.12,-741.5"/>
<text text-anchor="start" x="1234.38" y="-746.95" font-family="Times New Roman,serif" font-size="14.00">[Bool] ExecuteEveryFrame (default = False) </text>
<polygon fill="none" stroke="black" points="1034.12,-719 1034.12,-741.5 1685.12,-741.5 1685.12,-719 1034.12,-719"/>
<text text-anchor="start" x="1340.5" y="-726.2" font-family="Times New Roman,serif" font-weight="bold" font-size="14.00">Inputs</text>
<polygon fill="none" stroke="black" points="1034.12,-696.5 1034.12,-719 1685.12,-719 1685.12,-696.5 1034.12,-696.5"/>
<text text-anchor="start" x="1037.12" y="-702.7" font-family="Times New Roman,serif" font-size="14.00">[String] Error (default = [Seq]PostGamePauseのアンダーフロー検知（必ずバグ報告してください）) </text>
<polygon fill="none" stroke="black" points="1033.12,-695.5 1033.12,-809.25 1686.12,-809.25 1686.12,-695.5 1033.12,-695.5"/>
</g>
<!-- 4668&#45;&gt;4671 -->
<g id="edge11" class="edge">
<title>4668&#45;&gt;4671</title>
<path fill="none" stroke="midnightblue" stroke-width="2" d="M1380.61,-951.14C1377,-917.18 1371.62,-866.44 1367.21,-824.85"/>
<polygon fill="midnightblue" stroke="midnightblue" stroke-width="2" points="1370.88,-826.25 1366.34,-816.67 1363.92,-826.99 1370.88,-826.25"/>
<text text-anchor="middle" x="1400.75" y="-876.45" font-family="Times New Roman,serif" font-size="14.00" fill="midnightblue">Transition</text>
</g>
<!-- 4677 -->
<g id="node12" class="node">
<title>4677</title>
<polygon fill="none" stroke="black" stroke-width="2" points="1995.38,-856 1711.88,-856 1711.88,-648.75 1995.38,-648.75 1995.38,-856"/>
<polygon fill="none" stroke="black" points="1720.88,-828.5 1720.88,-851 1986.38,-851 1986.38,-828.5 1720.88,-828.5"/>
<text text-anchor="start" x="1779" y="-835.7" font-family="Times New Roman,serif" font-weight="bold" font-size="14.00">Element_Sequential (17)</text>
<polygon fill="none" stroke="black" points="1720.88,-806 1720.88,-828.5 1986.38,-828.5 1986.38,-806 1720.88,-806"/>
<text text-anchor="start" x="1821.75" y="-813.2" font-family="Times New Roman,serif" font-weight="bold" font-size="14.00">Properties</text>
<polygon fill="none" stroke="black" points="1720.88,-784.25 1720.88,-806 1986.38,-806 1986.38,-784.25 1720.88,-784.25"/>
<text text-anchor="start" x="1769.62" y="-789.7" font-family="Times New Roman,serif" font-size="14.00">[Int] BusyPolicy (default = 0) </text>
<polygon fill="none" stroke="black" points="1720.88,-762.5 1720.88,-784.25 1986.38,-784.25 1986.38,-762.5 1720.88,-762.5"/>
<text text-anchor="start" x="1772.62" y="-767.95" font-family="Times New Roman,serif" font-size="14.00">[Int] NumLoop (default = 0) </text>
<polygon fill="none" stroke="black" points="1720.88,-740.75 1720.88,-762.5 1986.38,-762.5 1986.38,-740.75 1720.88,-740.75"/>
<text text-anchor="start" x="1771.88" y="-746.2" font-family="Times New Roman,serif" font-size="14.00">[Int] PlayPolicy (default = 0) </text>
<polygon fill="none" stroke="black" points="1720.88,-719 1720.88,-740.75 1986.38,-740.75 1986.38,-719 1720.88,-719"/>
<text text-anchor="start" x="1766.25" y="-724.45" font-family="Times New Roman,serif" font-size="14.00">[Int] ResultPolicy (default = 0) </text>
<polygon fill="none" stroke="black" points="1720.88,-697.25 1720.88,-719 1986.38,-719 1986.38,-697.25 1720.88,-697.25"/>
<text text-anchor="start" x="1747.12" y="-702.7" font-family="Times New Roman,serif" font-size="14.00">[Bool] IsDelayJudge (default = False) </text>
<polygon fill="none" stroke="black" points="1720.88,-675.5 1720.88,-697.25 1986.38,-697.25 1986.38,-675.5 1720.88,-675.5"/>
<text text-anchor="start" x="1763.62" y="-680.95" font-family="Times New Roman,serif" font-size="14.00">[Bool] IsLoop (default = False) </text>
<polygon fill="none" stroke="black" points="1720.88,-653.75 1720.88,-675.5 1986.38,-675.5 1986.38,-653.75 1720.88,-653.75"/>
<text text-anchor="start" x="1723.88" y="-659.2" font-family="Times New Roman,serif" font-size="14.00">[Bool] IsUpdateNextInFrame (default = True) </text>
<polygon fill="none" stroke="black" points="1719.88,-652.75 1719.88,-852 1987.38,-852 1987.38,-652.75 1719.88,-652.75"/>
</g>
<!-- 4674&#45;&gt;4677 -->
<g id="edge12" class="edge">
<title>4674&#45;&gt;4677</title>
<path fill="none" stroke="midnightblue" stroke-width="2" d="M1789.84,-951.14C1797.25,-928.16 1807.14,-897.49 1816.92,-867.18"/>
<polygon fill="midnightblue" stroke="midnightblue" stroke-width="2" points="1819.7,-869.95 1819.44,-859.36 1813.04,-867.8 1819.7,-869.95"/>
<text text-anchor="middle" x="1840.75" y="-876.45" font-family="Times New Roman,serif" font-size="14.00" fill="midnightblue">Transition</text>
</g>
<!-- 4665 -->
<g id="node10" class="node">
<title>4665</title>
<polygon fill="none" stroke="black" stroke-width="2" points="1629.88,-1527.25 1145.38,-1527.25 1145.38,-1340.25 1629.88,-1340.25 1629.88,-1527.25"/>
<polygon fill="none" stroke="black" points="1154.38,-1499.75 1154.38,-1522.25 1620.88,-1522.25 1620.88,-1499.75 1154.38,-1499.75"/>
<text text-anchor="start" x="1239.5" y="-1506.95" font-family="Times New Roman,serif" font-weight="bold" font-size="14.00">SeqQueryGetNonStructGameDataIntDirect (11)</text>
<polygon fill="none" stroke="black" points="1154.38,-1477.25 1154.38,-1499.75 1620.88,-1499.75 1620.88,-1477.25 1154.38,-1477.25"/>
<text text-anchor="start" x="1355.75" y="-1484.45" font-family="Times New Roman,serif" font-weight="bold" font-size="14.00">Properties</text>
<polygon fill="none" stroke="black" points="1154.38,-1455.5 1154.38,-1477.25 1620.88,-1477.25 1620.88,-1455.5 1154.38,-1455.5"/>
<text text-anchor="start" x="1262" y="-1460.95" font-family="Times New Roman,serif" font-size="14.00">[Bool] OutputOnlyOnEnter (default = False) </text>
<polygon fill="none" stroke="black" points="1154.38,-1433 1154.38,-1455.5 1620.88,-1455.5 1620.88,-1433 1154.38,-1433"/>
<text text-anchor="start" x="1368.5" y="-1440.2" font-family="Times New Roman,serif" font-weight="bold" font-size="14.00">Inputs</text>
<polygon fill="none" stroke="black" points="1154.38,-1411.25 1154.38,-1433 1620.88,-1433 1620.88,-1411.25 1154.38,-1411.25"/>
<text text-anchor="start" x="1288.25" y="-1416.7" font-family="Times New Roman,serif" font-size="14.00">[Int] GameDataIndex (default = &#45;1) </text>
<polygon fill="none" stroke="black" points="1154.38,-1389.5 1154.38,-1411.25 1620.88,-1411.25 1620.88,-1389.5 1154.38,-1389.5"/>
<text text-anchor="start" x="1157.38" y="-1394.95" font-family="Times New Roman,serif" font-size="14.00">[String] GameDataFullName (default = Sequence_PostGamePauseRequestCount) </text>
<polygon fill="none" stroke="black" points="1154.38,-1367 1154.38,-1389.5 1620.88,-1389.5 1620.88,-1367 1154.38,-1367"/>
<text text-anchor="start" x="1363.25" y="-1374.2" font-family="Times New Roman,serif" font-weight="bold" font-size="14.00">Outputs</text>
<polygon fill="none" stroke="black" points="1154.38,-1345.25 1154.38,-1367 1620.88,-1367 1620.88,-1345.25 1154.38,-1345.25"/>
<text text-anchor="start" x="1358" y="-1350.7" font-family="Times New Roman,serif" font-size="14.00">[Int] Value</text>
<polygon fill="none" stroke="black" points="1153.38,-1344.25 1153.38,-1523.25 1621.88,-1523.25 1621.88,-1344.25 1153.38,-1344.25"/>
</g>
<!-- 4665&#45;&gt;4662 -->
<g id="edge10" class="edge">
<title>4665:4715&#45;&gt;4662:4712</title>
<path fill="none" stroke="#008000" stroke-dasharray="5,2" d="M1387.62,-1343.75C1387.62,-1267.68 1505.36,-1350.37 1549.62,-1288.5 1590.81,-1230.94 1599.52,-1179.45 1549.62,-1129.25 1538.87,-1118.43 1429.95,-1112.3 1397.01,-1121.65"/>
<polygon fill="#008000" stroke="#008000" points="1395.03,-1118.76 1388.86,-1127.38 1399.06,-1124.49 1395.03,-1118.76"/>
<text text-anchor="middle" x="1544.88" y="-1308.95" font-family="Times New Roman,serif" font-size="14.00" fill="#008000">ValueB</text>
</g>
<!-- 4680 -->
<g id="node13" class="node">
<title>4680</title>
<polygon fill="none" stroke="black" stroke-width="2" points="1927,-564 1728.25,-564 1728.25,-465.5 1927,-465.5 1927,-564"/>
<polygon fill="none" stroke="black" points="1737.25,-536.5 1737.25,-559 1918,-559 1918,-536.5 1737.25,-536.5"/>
<text text-anchor="start" x="1744" y="-543.7" font-family="Times New Roman,serif" font-weight="bold" font-size="14.00">Element_Simultaneous (13)</text>
<polygon fill="none" stroke="black" points="1737.25,-514 1737.25,-536.5 1918,-536.5 1918,-514 1737.25,-514"/>
<text text-anchor="start" x="1795.75" y="-521.2" font-family="Times New Roman,serif" font-weight="bold" font-size="14.00">Properties</text>
<polygon fill="none" stroke="black" points="1737.25,-492.25 1737.25,-514 1918,-514 1918,-492.25 1737.25,-492.25"/>
<text text-anchor="start" x="1746.62" y="-497.7" font-family="Times New Roman,serif" font-size="14.00">[Int] EndPolicy (default = 0) </text>
<polygon fill="none" stroke="black" points="1737.25,-470.5 1737.25,-492.25 1918,-492.25 1918,-470.5 1737.25,-470.5"/>
<text text-anchor="start" x="1740.25" y="-475.95" font-family="Times New Roman,serif" font-size="14.00">[Int] ResultPolicy (default = 0) </text>
<polygon fill="none" stroke="black" points="1736.25,-469.5 1736.25,-560 1919,-560 1919,-469.5 1736.25,-469.5"/>
</g>
<!-- 4677&#45;&gt;4680 -->
<g id="edge13" class="edge">
<title>4677&#45;&gt;4680</title>
<path fill="none" stroke="firebrick" stroke-width="2" d="M1842.26,-648.37C1839.51,-623.48 1836.67,-597.7 1834.22,-575.56"/>
<polygon fill="firebrick" stroke="firebrick" stroke-width="2" points="1837.89,-576.9 1833.32,-567.35 1830.94,-577.67 1837.89,-576.9"/>
</g>
<!-- 4689 -->
<g id="node14" class="node">
<title>4689</title>
<polygon fill="none" stroke="black" stroke-width="2" points="2420.62,-597 2096.62,-597 2096.62,-432.5 2420.62,-432.5 2420.62,-597"/>
<polygon fill="none" stroke="black" points="2105.62,-569.5 2105.62,-592 2411.62,-592 2411.62,-569.5 2105.62,-569.5"/>
<text text-anchor="start" x="2158.5" y="-576.7" font-family="Times New Roman,serif" font-weight="bold" font-size="14.00">SeqSelectorMathCompareInt (9)</text>
<polygon fill="none" stroke="black" points="2105.62,-547 2105.62,-569.5 2411.62,-569.5 2411.62,-547 2105.62,-547"/>
<text text-anchor="start" x="2226.75" y="-554.2" font-family="Times New Roman,serif" font-weight="bold" font-size="14.00">Properties</text>
<polygon fill="none" stroke="black" points="2105.62,-525.25 2105.62,-547 2411.62,-547 2411.62,-525.25 2105.62,-525.25"/>
<text text-anchor="start" x="2108.62" y="-530.7" font-family="Times New Roman,serif" font-size="14.00">[Bool] NoChangeWhenChildIsBusy (default = False) </text>
<polygon fill="none" stroke="black" points="2105.62,-503.5 2105.62,-525.25 2411.62,-525.25 2411.62,-503.5 2105.62,-503.5"/>
<text text-anchor="start" x="2120.62" y="-508.95" font-family="Times New Roman,serif" font-size="14.00">[Bool] SelectChildOnEnterOnly (default = False) </text>
<polygon fill="none" stroke="black" points="2105.62,-481 2105.62,-503.5 2411.62,-503.5 2411.62,-481 2105.62,-481"/>
<text text-anchor="start" x="2239.5" y="-488.2" font-family="Times New Roman,serif" font-weight="bold" font-size="14.00">Inputs</text>
<polygon fill="none" stroke="black" points="2105.62,-459.25 2105.62,-481 2411.62,-481 2411.62,-459.25 2105.62,-459.25"/>
<text text-anchor="start" x="2185.88" y="-464.7" font-family="Times New Roman,serif" font-size="14.00">[Int] ValueA (default = 0) </text>
<polygon fill="none" stroke="black" points="2105.62,-437.5 2105.62,-459.25 2411.62,-459.25 2411.62,-437.5 2105.62,-437.5"/>
<text text-anchor="start" x="2186.25" y="-442.95" font-family="Times New Roman,serif" font-size="14.00">[Int] ValueB (default = 0) </text>
<polygon fill="none" stroke="black" points="2104.62,-436.5 2104.62,-593 2412.62,-593 2412.62,-436.5 2104.62,-436.5"/>
</g>
<!-- 4677&#45;&gt;4689 -->
<g id="edge14" class="edge">
<title>4677&#45;&gt;4689</title>
<path fill="none" stroke="firebrick" stroke-width="2" d="M1995.52,-656.07C1999.58,-653.58 2003.62,-651.14 2007.62,-648.75 2033.47,-633.34 2061.25,-617.73 2088.58,-602.88"/>
<polygon fill="firebrick" stroke="firebrick" stroke-width="2" points="2088.83,-606.72 2095.96,-598.88 2085.5,-600.56 2088.83,-606.72"/>
</g>
<!-- 4683 -->
<g id="node15" class="node">
<title>4683</title>
<polygon fill="none" stroke="black" stroke-width="2" points="1567.25,-359 1274,-359 1274,-238 1567.25,-238 1567.25,-359"/>
<polygon fill="none" stroke="black" points="1283,-331.5 1283,-354 1558.25,-354 1558.25,-331.5 1283,-331.5"/>
<text text-anchor="start" x="1330.25" y="-338.7" font-family="Times New Roman,serif" font-weight="bold" font-size="14.00">SeqOneShotReleasePause (8)</text>
<polygon fill="none" stroke="black" points="1283,-309 1283,-331.5 1558.25,-331.5 1558.25,-309 1283,-309"/>
<text text-anchor="start" x="1388.75" y="-316.2" font-family="Times New Roman,serif" font-weight="bold" font-size="14.00">Properties</text>
<polygon fill="none" stroke="black" points="1283,-287.25 1283,-309 1558.25,-309 1558.25,-287.25 1283,-287.25"/>
<text text-anchor="start" x="1295.38" y="-292.7" font-family="Times New Roman,serif" font-size="14.00">[Bool] ExecuteEveryFrame (default = False) </text>
<polygon fill="none" stroke="black" points="1283,-264.75 1283,-287.25 1558.25,-287.25 1558.25,-264.75 1283,-264.75"/>
<text text-anchor="start" x="1401.5" y="-271.95" font-family="Times New Roman,serif" font-weight="bold" font-size="14.00">Inputs</text>
<polygon fill="none" stroke="black" points="1283,-243 1283,-264.75 1558.25,-264.75 1558.25,-243 1283,-243"/>
<text text-anchor="start" x="1286" y="-248.45" font-family="Times New Roman,serif" font-size="14.00">[String] PauseType (default = PostGamePause) </text>
<polygon fill="none" stroke="black" points="1282,-242 1282,-355 1559.25,-355 1559.25,-242 1282,-242"/>
</g>
<!-- 4680&#45;&gt;4683 -->
<g id="edge15" class="edge">
<title>4680&#45;&gt;4683</title>
<path fill="none" stroke="firebrick" stroke-width="2" d="M1735.27,-465.13C1678.84,-435.43 1605.96,-397.06 1544.56,-364.74"/>
<polygon fill="firebrick" stroke="firebrick" stroke-width="2" points="1547.57,-362.37 1537.09,-360.81 1544.31,-368.56 1547.57,-362.37"/>
</g>
<!-- 4686 -->
<g id="node16" class="node">
<title>4686</title>
<polygon fill="none" stroke="black" stroke-width="2" points="2069.88,-380.75 1585.38,-380.75 1585.38,-216.25 2069.88,-216.25 2069.88,-380.75"/>
<polygon fill="none" stroke="black" points="1594.38,-353.25 1594.38,-375.75 2060.88,-375.75 2060.88,-353.25 1594.38,-353.25"/>
<text text-anchor="start" x="1693.75" y="-360.45" font-family="Times New Roman,serif" font-weight="bold" font-size="14.00">SeqOneShotAddNonStructGameDataInt (6)</text>
<polygon fill="none" stroke="black" points="1594.38,-330.75 1594.38,-353.25 2060.88,-353.25 2060.88,-330.75 1594.38,-330.75"/>
<text text-anchor="start" x="1795.75" y="-337.95" font-family="Times New Roman,serif" font-weight="bold" font-size="14.00">Properties</text>
<polygon fill="none" stroke="black" points="1594.38,-309 1594.38,-330.75 2060.88,-330.75 2060.88,-309 1594.38,-309"/>
<text text-anchor="start" x="1702.38" y="-314.45" font-family="Times New Roman,serif" font-size="14.00">[Bool] ExecuteEveryFrame (default = False) </text>
<polygon fill="none" stroke="black" points="1594.38,-286.5 1594.38,-309 2060.88,-309 2060.88,-286.5 1594.38,-286.5"/>
<text text-anchor="start" x="1808.5" y="-293.7" font-family="Times New Roman,serif" font-weight="bold" font-size="14.00">Inputs</text>
<polygon fill="none" stroke="black" points="1594.38,-264.75 1594.38,-286.5 2060.88,-286.5 2060.88,-264.75 1594.38,-264.75"/>
<text text-anchor="start" x="1728.25" y="-270.2" font-family="Times New Roman,serif" font-size="14.00">[Int] GameDataIndex (default = &#45;1) </text>
<polygon fill="none" stroke="black" points="1594.38,-243 1594.38,-264.75 2060.88,-264.75 2060.88,-243 1594.38,-243"/>
<text text-anchor="start" x="1757.5" y="-248.45" font-family="Times New Roman,serif" font-size="14.00">[Int] Value (default = &#45;1) </text>
<polygon fill="none" stroke="black" points="1594.38,-221.25 1594.38,-243 2060.88,-243 2060.88,-221.25 1594.38,-221.25"/>
<text text-anchor="start" x="1597.38" y="-226.7" font-family="Times New Roman,serif" font-size="14.00">[String] GameDataFullName (default = Sequence_PostGamePauseRequestCount) </text>
<polygon fill="none" stroke="black" points="1593.38,-220.25 1593.38,-376.75 2061.88,-376.75 2061.88,-220.25 1593.38,-220.25"/>
</g>
<!-- 4680&#45;&gt;4686 -->
<g id="edge16" class="edge">
<title>4680&#45;&gt;4686</title>
<path fill="none" stroke="firebrick" stroke-width="2" d="M1827.62,-465.13C1827.62,-443.61 1827.62,-417.55 1827.62,-392.53"/>
<polygon fill="firebrick" stroke="firebrick" stroke-width="2" points="1831.13,-394.15 1827.63,-384.15 1824.13,-394.15 1831.13,-394.15"/>
</g>
<!-- 4695 -->
<g id="node17" class="node">
<title>4695</title>
<polygon fill="none" stroke="black" stroke-width="2" points="2362.88,-336.88 2088.38,-336.88 2088.38,-260.12 2362.88,-260.12 2362.88,-336.88"/>
<polygon fill="none" stroke="black" points="2097.38,-309.38 2097.38,-331.88 2353.88,-331.88 2353.88,-309.38 2097.38,-309.38"/>
<text text-anchor="start" x="2161.5" y="-316.57" font-family="Times New Roman,serif" font-weight="bold" font-size="14.00">SeqOneShotEnd (16)</text>
<polygon fill="none" stroke="black" points="2097.38,-286.88 2097.38,-309.38 2353.88,-309.38 2353.88,-286.88 2097.38,-286.88"/>
<text text-anchor="start" x="2193.75" y="-294.07" font-family="Times New Roman,serif" font-weight="bold" font-size="14.00">Properties</text>
<polygon fill="none" stroke="black" points="2097.38,-265.12 2097.38,-286.88 2353.88,-286.88 2353.88,-265.12 2097.38,-265.12"/>
<text text-anchor="start" x="2100.38" y="-270.57" font-family="Times New Roman,serif" font-size="14.00">[Bool] ExecuteEveryFrame (default = False) </text>
<polygon fill="none" stroke="black" points="2096.38,-264.12 2096.38,-332.88 2354.88,-332.88 2354.88,-264.12 2096.38,-264.12"/>
</g>
<!-- 4689&#45;&gt;4695 -->
<g id="edge17" class="edge">
<title>4689&#45;&gt;4695</title>
<path fill="none" stroke="firebrick" stroke-width="2" d="M2218.85,-432.06C2216.98,-426.2 2215.37,-420.32 2214.12,-414.5 2209.54,-393.08 2210.96,-369.01 2214.09,-348.45"/>
<polygon fill="firebrick" stroke="firebrick" stroke-width="2" points="2217.28,-350.55 2215.53,-340.1 2210.39,-349.36 2217.28,-350.55"/>
<text text-anchor="middle" x="2229.38" y="-401.2" font-family="Times New Roman,serif" font-size="14.00" fill="firebrick">Equal</text>
</g>
<!-- 4689&#45;&gt;4695 -->
<g id="edge18" class="edge">
<title>4689&#45;&gt;4695</title>
<path fill="none" stroke="firebrick" stroke-width="2" d="M2250.3,-432.27C2248.89,-420.99 2247.32,-409.57 2245.62,-398.75 2243.01,-382.1 2239.55,-364 2236.24,-347.87"/>
<polygon fill="firebrick" stroke="firebrick" stroke-width="2" points="2240.07,-349.1 2234.61,-340.03 2233.22,-350.53 2240.07,-349.1"/>
<text text-anchor="middle" x="2265.62" y="-401.2" font-family="Times New Roman,serif" font-size="14.00" fill="firebrick">Bigger</text>
</g>
<!-- 4701 -->
<g id="node18" class="node">
<title>4701</title>
<polygon fill="none" stroke="black" stroke-width="2" points="2655.88,-336.88 2381.38,-336.88 2381.38,-260.12 2655.88,-260.12 2655.88,-336.88"/>
<polygon fill="none" stroke="black" points="2390.38,-309.38 2390.38,-331.88 2646.88,-331.88 2646.88,-309.38 2390.38,-309.38"/>
<text text-anchor="start" x="2454.5" y="-316.57" font-family="Times New Roman,serif" font-weight="bold" font-size="14.00">SeqOneShotEnd (10)</text>
<polygon fill="none" stroke="black" points="2390.38,-286.88 2390.38,-309.38 2646.88,-309.38 2646.88,-286.88 2390.38,-286.88"/>
<text text-anchor="start" x="2486.75" y="-294.07" font-family="Times New Roman,serif" font-weight="bold" font-size="14.00">Properties</text>
<polygon fill="none" stroke="black" points="2390.38,-265.12 2390.38,-286.88 2646.88,-286.88 2646.88,-265.12 2390.38,-265.12"/>
<text text-anchor="start" x="2393.38" y="-270.57" font-family="Times New Roman,serif" font-size="14.00">[Bool] ExecuteEveryFrame (default = False) </text>
<polygon fill="none" stroke="black" points="2389.38,-264.12 2389.38,-332.88 2647.88,-332.88 2647.88,-264.12 2389.38,-264.12"/>
</g>
<!-- 4689&#45;&gt;4701 -->
<g id="edge19" class="edge">
<title>4689&#45;&gt;4701</title>
<path fill="none" stroke="firebrick" stroke-width="2" d="M2357.66,-432.14C2393.71,-402.43 2433.13,-369.95 2463.94,-344.56"/>
<polygon fill="firebrick" stroke="firebrick" stroke-width="2" points="2464.97,-348.25 2470.47,-339.19 2460.52,-342.84 2464.97,-348.25"/>
<text text-anchor="middle" x="2416.25" y="-401.2" font-family="Times New Roman,serif" font-size="14.00" fill="firebrick">Smaller</text>
</g>
<!-- 4698 -->
<g id="node20" class="node">
<title>4698</title>
<polygon fill="none" stroke="black" stroke-width="2" points="2433,-164.5 2018.25,-164.5 2018.25,0 2433,0 2433,-164.5"/>
<polygon fill="none" stroke="black" points="2027.25,-137 2027.25,-159.5 2424,-159.5 2424,-137 2027.25,-137"/>
<text text-anchor="start" x="2088.75" y="-144.2" font-family="Times New Roman,serif" font-weight="bold" font-size="14.00">SeqOneShotSetNonStructGameDataBool (7)</text>
<polygon fill="none" stroke="black" points="2027.25,-114.5 2027.25,-137 2424,-137 2424,-114.5 2027.25,-114.5"/>
<text text-anchor="start" x="2193.75" y="-121.7" font-family="Times New Roman,serif" font-weight="bold" font-size="14.00">Properties</text>
<polygon fill="none" stroke="black" points="2027.25,-92.75 2027.25,-114.5 2424,-114.5 2424,-92.75 2027.25,-92.75"/>
<text text-anchor="start" x="2100.38" y="-98.2" font-family="Times New Roman,serif" font-size="14.00">[Bool] ExecuteEveryFrame (default = False) </text>
<polygon fill="none" stroke="black" points="2027.25,-70.25 2027.25,-92.75 2424,-92.75 2424,-70.25 2027.25,-70.25"/>
<text text-anchor="start" x="2206.5" y="-77.45" font-family="Times New Roman,serif" font-weight="bold" font-size="14.00">Inputs</text>
<polygon fill="none" stroke="black" points="2027.25,-48.5 2027.25,-70.25 2424,-70.25 2424,-48.5 2027.25,-48.5"/>
<text text-anchor="start" x="2126.25" y="-53.95" font-family="Times New Roman,serif" font-size="14.00">[Int] GameDataIndex (default = &#45;1) </text>
<polygon fill="none" stroke="black" points="2027.25,-26.75 2027.25,-48.5 2424,-48.5 2424,-26.75 2027.25,-26.75"/>
<text text-anchor="start" x="2140.5" y="-32.2" font-family="Times New Roman,serif" font-size="14.00">[Bool] Value (default = False) </text>
<polygon fill="none" stroke="black" points="2027.25,-5 2027.25,-26.75 2424,-26.75 2424,-5 2027.25,-5"/>
<text text-anchor="start" x="2030.25" y="-10.45" font-family="Times New Roman,serif" font-size="14.00">[String] GameDataFullName (default = Sequence_IsPostGamePause) </text>
<polygon fill="none" stroke="black" points="2026.25,-4 2026.25,-160.5 2425,-160.5 2425,-4 2026.25,-4"/>
</g>
<!-- 4695&#45;&gt;4698 -->
<g id="edge21" class="edge">
<title>4695&#45;&gt;4698</title>
<path fill="none" stroke="midnightblue" stroke-width="2" d="M2225.62,-259.69C2225.62,-236.36 2225.62,-205.35 2225.62,-175.83"/>
<polygon fill="midnightblue" stroke="midnightblue" stroke-width="2" points="2229.13,-177.64 2225.63,-167.64 2222.13,-177.64 2229.13,-177.64"/>
<text text-anchor="middle" x="2253.75" y="-184.95" font-family="Times New Roman,serif" font-size="14.00" fill="midnightblue">Transition</text>
</g>
<!-- 4692 -->
<g id="node19" class="node">
<title>4692</title>
<polygon fill="none" stroke="black" stroke-width="2" points="2500.88,-845.88 2016.38,-845.88 2016.38,-658.88 2500.88,-658.88 2500.88,-845.88"/>
<polygon fill="none" stroke="black" points="2025.38,-818.38 2025.38,-840.88 2491.88,-840.88 2491.88,-818.38 2025.38,-818.38"/>
<text text-anchor="start" x="2114.25" y="-825.58" font-family="Times New Roman,serif" font-weight="bold" font-size="14.00">SeqQueryGetNonStructGameDataIntDirect (3)</text>
<polygon fill="none" stroke="black" points="2025.38,-795.88 2025.38,-818.38 2491.88,-818.38 2491.88,-795.88 2025.38,-795.88"/>
<text text-anchor="start" x="2226.75" y="-803.08" font-family="Times New Roman,serif" font-weight="bold" font-size="14.00">Properties</text>
<polygon fill="none" stroke="black" points="2025.38,-774.12 2025.38,-795.88 2491.88,-795.88 2491.88,-774.12 2025.38,-774.12"/>
<text text-anchor="start" x="2133" y="-779.58" font-family="Times New Roman,serif" font-size="14.00">[Bool] OutputOnlyOnEnter (default = False) </text>
<polygon fill="none" stroke="black" points="2025.38,-751.62 2025.38,-774.12 2491.88,-774.12 2491.88,-751.62 2025.38,-751.62"/>
<text text-anchor="start" x="2239.5" y="-758.83" font-family="Times New Roman,serif" font-weight="bold" font-size="14.00">Inputs</text>
<polygon fill="none" stroke="black" points="2025.38,-729.88 2025.38,-751.62 2491.88,-751.62 2491.88,-729.88 2025.38,-729.88"/>
<text text-anchor="start" x="2159.25" y="-735.33" font-family="Times New Roman,serif" font-size="14.00">[Int] GameDataIndex (default = &#45;1) </text>
<polygon fill="none" stroke="black" points="2025.38,-708.12 2025.38,-729.88 2491.88,-729.88 2491.88,-708.12 2025.38,-708.12"/>
<text text-anchor="start" x="2028.38" y="-713.58" font-family="Times New Roman,serif" font-size="14.00">[String] GameDataFullName (default = Sequence_PostGamePauseRequestCount) </text>
<polygon fill="none" stroke="black" points="2025.38,-685.62 2025.38,-708.12 2491.88,-708.12 2491.88,-685.62 2025.38,-685.62"/>
<text text-anchor="start" x="2234.25" y="-692.83" font-family="Times New Roman,serif" font-weight="bold" font-size="14.00">Outputs</text>
<polygon fill="none" stroke="black" points="2025.38,-663.88 2025.38,-685.62 2491.88,-685.62 2491.88,-663.88 2025.38,-663.88"/>
<text text-anchor="start" x="2229" y="-669.33" font-family="Times New Roman,serif" font-size="14.00">[Int] Value</text>
<polygon fill="none" stroke="black" points="2024.38,-662.88 2024.38,-841.88 2492.88,-841.88 2492.88,-662.88 2024.38,-662.88"/>
</g>
<!-- 4692&#45;&gt;4689 -->
<g id="edge20" class="edge">
<title>4692:4725&#45;&gt;4689:4722</title>
<path fill="none" stroke="#008000" stroke-dasharray="5,2" d="M2258.62,-662.38C2258.62,-584.73 2377.2,-661.36 2420.62,-597 2460.22,-538.33 2470.52,-487.95 2420.62,-437.75 2409.87,-426.93 2300.95,-420.8 2268.01,-430.15"/>
<polygon fill="#008000" stroke="#008000" points="2266.03,-427.26 2259.86,-435.88 2270.06,-432.99 2266.03,-427.26"/>
<text text-anchor="middle" x="2419.88" y="-617.45" font-family="Times New Roman,serif" font-size="14.00" fill="#008000">ValueB</text>
</g>
<!-- 4729 -->
<g id="node21" class="node">
<title>4729</title>
<ellipse fill="mediumpurple" stroke="mediumpurple" cx="1003.62" cy="-1639.5" rx="31.39" ry="18"/>
<text text-anchor="start" x="988.62" y="-1635.45" font-family="Times New Roman,serif" font-weight="bold" font-size="14.00" fill="white">Root</text>
</g>
<!-- 4729&#45;&gt;4644 -->
<g id="edge22" class="edge">
<title>4729&#45;&gt;4644</title>
<path fill="none" stroke="black" d="M996.44,-1621.48C988.43,-1602.49 974.78,-1570.16 961.07,-1537.68"/>
<polygon fill="black" stroke="black" points="964.33,-1536.39 957.21,-1528.54 957.88,-1539.12 964.33,-1536.39"/>
</g>
</g>
</svg>
