<?xml version="1.0" encoding="UTF-8" standalone="no"?>
<!DOCTYPE svg PUBLIC "-//W3C//DTD SVG 1.1//EN"
 "http://www.w3.org/Graphics/SVG/1.1/DTD/svg11.dtd">
<!-- Generated by graphviz version 9.0.0 (20230911.1827)
 -->
<!-- Title: ChangePreGamePause.module Pages: 1 -->
<svg width="2636pt" height="1708pt"
 viewBox="0.00 0.00 2635.50 1708.00" xmlns="http://www.w3.org/2000/svg" xmlns:xlink="http://www.w3.org/1999/xlink">
<g id="graph0" class="graph" transform="scale(1 1) rotate(0) translate(4 1704)">
<title>ChangePreGamePause.module</title>
<polygon fill="lightgray" stroke="none" points="-4,4 -4,-1704 2631.5,-1704 2631.5,4 -4,4"/>
<!-- 4732 -->
<g id="node1" class="node">
<title>4732</title>
<polygon fill="none" stroke="black" stroke-width="2" points="1059.12,-1526.88 743.38,-1526.88 743.38,-1340.62 1059.12,-1340.62 1059.12,-1526.88"/>
<polygon fill="none" stroke="black" points="752.38,-1499.38 752.38,-1521.88 1050.12,-1521.88 1050.12,-1499.38 752.38,-1499.38"/>
<text text-anchor="start" x="822.88" y="-1506.58" font-family="Times New Roman,serif" font-weight="bold" font-size="14.00">Element_BoolSelector (1)</text>
<polygon fill="none" stroke="black" points="752.38,-1476.88 752.38,-1499.38 1050.12,-1499.38 1050.12,-1476.88 752.38,-1476.88"/>
<text text-anchor="start" x="869.38" y="-1484.08" font-family="Times New Roman,serif" font-weight="bold" font-size="14.00">Properties</text>
<polygon fill="none" stroke="black" points="752.38,-1455.12 752.38,-1476.88 1050.12,-1476.88 1050.12,-1455.12 752.38,-1455.12"/>
<text text-anchor="start" x="804.12" y="-1460.58" font-family="Times New Roman,serif" font-size="14.00">[Int] CalculateTiming (default = 0) </text>
<polygon fill="none" stroke="black" points="752.38,-1433.38 752.38,-1455.12 1050.12,-1455.12 1050.12,-1433.38 752.38,-1433.38"/>
<text text-anchor="start" x="785" y="-1438.83" font-family="Times New Roman,serif" font-size="14.00">[Bool] ChildFrameSync (default = False) </text>
<polygon fill="none" stroke="black" points="752.38,-1411.62 752.38,-1433.38 1050.12,-1433.38 1050.12,-1411.62 752.38,-1411.62"/>
<text text-anchor="start" x="801.5" y="-1417.08" font-family="Times New Roman,serif" font-size="14.00">[Bool] InputValue (default = False) </text>
<polygon fill="none" stroke="black" points="752.38,-1389.88 752.38,-1411.62 1050.12,-1411.62 1050.12,-1389.88 752.38,-1389.88"/>
<text text-anchor="start" x="755.38" y="-1395.33" font-family="Times New Roman,serif" font-size="14.00">[Bool] IsNoSelectWhenChildBusy (default = False) </text>
<polygon fill="none" stroke="black" points="752.38,-1367.38 752.38,-1389.88 1050.12,-1389.88 1050.12,-1367.38 752.38,-1367.38"/>
<text text-anchor="start" x="882.12" y="-1374.58" font-family="Times New Roman,serif" font-weight="bold" font-size="14.00">Inputs</text>
<polygon fill="none" stroke="black" points="752.38,-1345.62 752.38,-1367.38 1050.12,-1367.38 1050.12,-1345.62 752.38,-1345.62"/>
<text text-anchor="start" x="817.25" y="-1351.08" font-family="Times New Roman,serif" font-size="14.00">[Bool] Input (default = False) </text>
<polygon fill="none" stroke="black" points="751.38,-1344.62 751.38,-1522.88 1051.12,-1522.88 1051.12,-1344.62 751.38,-1344.62"/>
</g>
<!-- 4738 -->
<g id="node2" class="node">
<title>4738</title>
<polygon fill="none" stroke="black" stroke-width="2" points="697.62,-1255.5 498.88,-1255.5 498.88,-1157 697.62,-1157 697.62,-1255.5"/>
<polygon fill="none" stroke="black" points="507.88,-1228 507.88,-1250.5 688.62,-1250.5 688.62,-1228 507.88,-1228"/>
<text text-anchor="start" x="518.38" y="-1235.2" font-family="Times New Roman,serif" font-weight="bold" font-size="14.00">Element_Simultaneous (0)</text>
<polygon fill="none" stroke="black" points="507.88,-1205.5 507.88,-1228 688.62,-1228 688.62,-1205.5 507.88,-1205.5"/>
<text text-anchor="start" x="566.38" y="-1212.7" font-family="Times New Roman,serif" font-weight="bold" font-size="14.00">Properties</text>
<polygon fill="none" stroke="black" points="507.88,-1183.75 507.88,-1205.5 688.62,-1205.5 688.62,-1183.75 507.88,-1183.75"/>
<text text-anchor="start" x="517.25" y="-1189.2" font-family="Times New Roman,serif" font-size="14.00">[Int] EndPolicy (default = 0) </text>
<polygon fill="none" stroke="black" points="507.88,-1162 507.88,-1183.75 688.62,-1183.75 688.62,-1162 507.88,-1162"/>
<text text-anchor="start" x="510.88" y="-1167.45" font-family="Times New Roman,serif" font-size="14.00">[Int] ResultPolicy (default = 0) </text>
<polygon fill="none" stroke="black" points="506.88,-1161 506.88,-1251.5 689.62,-1251.5 689.62,-1161 506.88,-1161"/>
</g>
<!-- 4732&#45;&gt;4738 -->
<g id="edge1" class="edge">
<title>4732&#45;&gt;4738</title>
<path fill="none" stroke="firebrick" stroke-width="2" d="M777.13,-1340.38C741.73,-1314.03 704.27,-1286.15 672.82,-1262.75"/>
<polygon fill="firebrick" stroke="firebrick" stroke-width="2" points="676.23,-1260.92 666.12,-1257.76 672.05,-1266.54 676.23,-1260.92"/>
<text text-anchor="middle" x="763.38" y="-1308.95" font-family="Times New Roman,serif" font-size="14.00" fill="firebrick">True</text>
</g>
<!-- 4750 -->
<g id="node3" class="node">
<title>4750</title>
<polygon fill="none" stroke="black" stroke-width="2" points="1529.25,-1288.5 1205.25,-1288.5 1205.25,-1124 1529.25,-1124 1529.25,-1288.5"/>
<polygon fill="none" stroke="black" points="1214.25,-1261 1214.25,-1283.5 1520.25,-1283.5 1520.25,-1261 1214.25,-1261"/>
<text text-anchor="start" x="1263.38" y="-1268.2" font-family="Times New Roman,serif" font-weight="bold" font-size="14.00">SeqSelectorMathCompareInt (12)</text>
<polygon fill="none" stroke="black" points="1214.25,-1238.5 1214.25,-1261 1520.25,-1261 1520.25,-1238.5 1214.25,-1238.5"/>
<text text-anchor="start" x="1335.38" y="-1245.7" font-family="Times New Roman,serif" font-weight="bold" font-size="14.00">Properties</text>
<polygon fill="none" stroke="black" points="1214.25,-1216.75 1214.25,-1238.5 1520.25,-1238.5 1520.25,-1216.75 1214.25,-1216.75"/>
<text text-anchor="start" x="1217.25" y="-1222.2" font-family="Times New Roman,serif" font-size="14.00">[Bool] NoChangeWhenChildIsBusy (default = False) </text>
<polygon fill="none" stroke="black" points="1214.25,-1195 1214.25,-1216.75 1520.25,-1216.75 1520.25,-1195 1214.25,-1195"/>
<text text-anchor="start" x="1229.25" y="-1200.45" font-family="Times New Roman,serif" font-size="14.00">[Bool] SelectChildOnEnterOnly (default = False) </text>
<polygon fill="none" stroke="black" points="1214.25,-1172.5 1214.25,-1195 1520.25,-1195 1520.25,-1172.5 1214.25,-1172.5"/>
<text text-anchor="start" x="1348.12" y="-1179.7" font-family="Times New Roman,serif" font-weight="bold" font-size="14.00">Inputs</text>
<polygon fill="none" stroke="black" points="1214.25,-1150.75 1214.25,-1172.5 1520.25,-1172.5 1520.25,-1150.75 1214.25,-1150.75"/>
<text text-anchor="start" x="1294.5" y="-1156.2" font-family="Times New Roman,serif" font-size="14.00">[Int] ValueA (default = 0) </text>
<polygon fill="none" stroke="black" points="1214.25,-1129 1214.25,-1150.75 1520.25,-1150.75 1520.25,-1129 1214.25,-1129"/>
<text text-anchor="start" x="1294.88" y="-1134.45" font-family="Times New Roman,serif" font-size="14.00">[Int] ValueB (default = 0) </text>
<polygon fill="none" stroke="black" points="1213.25,-1128 1213.25,-1284.5 1521.25,-1284.5 1521.25,-1128 1213.25,-1128"/>
</g>
<!-- 4732&#45;&gt;4750 -->
<g id="edge2" class="edge">
<title>4732&#45;&gt;4750</title>
<path fill="none" stroke="firebrick" stroke-width="2" d="M1059.34,-1356.25C1102.93,-1335.16 1150.43,-1312.17 1194.79,-1290.71"/>
<polygon fill="firebrick" stroke="firebrick" stroke-width="2" points="1194.89,-1294.54 1202.37,-1287.04 1191.84,-1288.24 1194.89,-1294.54"/>
<text text-anchor="middle" x="1161.88" y="-1308.95" font-family="Times New Roman,serif" font-size="14.00" fill="firebrick">False</text>
</g>
<!-- 4741 -->
<g id="node5" class="node">
<title>4741</title>
<polygon fill="none" stroke="black" stroke-width="2" points="286.5,-1050.5 0,-1050.5 0,-929.5 286.5,-929.5 286.5,-1050.5"/>
<polygon fill="none" stroke="black" points="9,-1023 9,-1045.5 277.5,-1045.5 277.5,-1023 9,-1023"/>
<text text-anchor="start" x="52.12" y="-1030.2" font-family="Times New Roman,serif" font-weight="bold" font-size="14.00">SeqOneShotRequestPause (5)</text>
<polygon fill="none" stroke="black" points="9,-1000.5 9,-1023 277.5,-1023 277.5,-1000.5 9,-1000.5"/>
<text text-anchor="start" x="111.38" y="-1007.7" font-family="Times New Roman,serif" font-weight="bold" font-size="14.00">Properties</text>
<polygon fill="none" stroke="black" points="9,-978.75 9,-1000.5 277.5,-1000.5 277.5,-978.75 9,-978.75"/>
<text text-anchor="start" x="18" y="-984.2" font-family="Times New Roman,serif" font-size="14.00">[Bool] ExecuteEveryFrame (default = False) </text>
<polygon fill="none" stroke="black" points="9,-956.25 9,-978.75 277.5,-978.75 277.5,-956.25 9,-956.25"/>
<text text-anchor="start" x="124.12" y="-963.45" font-family="Times New Roman,serif" font-weight="bold" font-size="14.00">Inputs</text>
<polygon fill="none" stroke="black" points="9,-934.5 9,-956.25 277.5,-956.25 277.5,-934.5 9,-934.5"/>
<text text-anchor="start" x="12" y="-939.95" font-family="Times New Roman,serif" font-size="14.00">[String] PauseType (default = PreGamePause) </text>
<polygon fill="none" stroke="black" points="8,-933.5 8,-1046.5 278.5,-1046.5 278.5,-933.5 8,-933.5"/>
</g>
<!-- 4738&#45;&gt;4741 -->
<g id="edge4" class="edge">
<title>4738&#45;&gt;4741</title>
<path fill="none" stroke="firebrick" stroke-width="2" d="M498.43,-1163.73C438.92,-1138.41 362.17,-1104.76 295.25,-1072.25 284.64,-1067.09 273.69,-1061.6 262.76,-1055.99"/>
<polygon fill="firebrick" stroke="firebrick" stroke-width="2" points="265.92,-1053.68 255.43,-1052.21 262.71,-1059.9 265.92,-1053.68"/>
</g>
<!-- 4744 -->
<g id="node6" class="node">
<title>4744</title>
<polygon fill="none" stroke="black" stroke-width="2" points="782.12,-1072.25 304.38,-1072.25 304.38,-907.75 782.12,-907.75 782.12,-1072.25"/>
<polygon fill="none" stroke="black" points="313.38,-1044.75 313.38,-1067.25 773.12,-1067.25 773.12,-1044.75 313.38,-1044.75"/>
<text text-anchor="start" x="409.38" y="-1051.95" font-family="Times New Roman,serif" font-weight="bold" font-size="14.00">SeqOneShotAddNonStructGameDataInt (2)</text>
<polygon fill="none" stroke="black" points="313.38,-1022.25 313.38,-1044.75 773.12,-1044.75 773.12,-1022.25 313.38,-1022.25"/>
<text text-anchor="start" x="511.38" y="-1029.45" font-family="Times New Roman,serif" font-weight="bold" font-size="14.00">Properties</text>
<polygon fill="none" stroke="black" points="313.38,-1000.5 313.38,-1022.25 773.12,-1022.25 773.12,-1000.5 313.38,-1000.5"/>
<text text-anchor="start" x="418" y="-1005.95" font-family="Times New Roman,serif" font-size="14.00">[Bool] ExecuteEveryFrame (default = False) </text>
<polygon fill="none" stroke="black" points="313.38,-978 313.38,-1000.5 773.12,-1000.5 773.12,-978 313.38,-978"/>
<text text-anchor="start" x="524.12" y="-985.2" font-family="Times New Roman,serif" font-weight="bold" font-size="14.00">Inputs</text>
<polygon fill="none" stroke="black" points="313.38,-956.25 313.38,-978 773.12,-978 773.12,-956.25 313.38,-956.25"/>
<text text-anchor="start" x="443.88" y="-961.7" font-family="Times New Roman,serif" font-size="14.00">[Int] GameDataIndex (default = &#45;1) </text>
<polygon fill="none" stroke="black" points="313.38,-934.5 313.38,-956.25 773.12,-956.25 773.12,-934.5 313.38,-934.5"/>
<text text-anchor="start" x="475.38" y="-939.95" font-family="Times New Roman,serif" font-size="14.00">[Int] Value (default = 1) </text>
<polygon fill="none" stroke="black" points="313.38,-912.75 313.38,-934.5 773.12,-934.5 773.12,-912.75 313.38,-912.75"/>
<text text-anchor="start" x="316.38" y="-918.2" font-family="Times New Roman,serif" font-size="14.00">[String] GameDataFullName (default = Sequence_PreGamePauseRequestCount) </text>
<polygon fill="none" stroke="black" points="312.38,-911.75 312.38,-1068.25 774.12,-1068.25 774.12,-911.75 312.38,-911.75"/>
</g>
<!-- 4738&#45;&gt;4744 -->
<g id="edge5" class="edge">
<title>4738&#45;&gt;4744</title>
<path fill="none" stroke="firebrick" stroke-width="2" d="M585.77,-1156.63C580.22,-1135.02 573.49,-1108.81 567.04,-1083.69"/>
<polygon fill="firebrick" stroke="firebrick" stroke-width="2" points="570.83,-1084.37 564.96,-1075.56 564.05,-1086.11 570.83,-1084.37"/>
</g>
<!-- 4747 -->
<g id="node7" class="node">
<title>4747</title>
<polygon fill="none" stroke="black" stroke-width="2" points="1208.25,-1072.25 800.25,-1072.25 800.25,-907.75 1208.25,-907.75 1208.25,-1072.25"/>
<polygon fill="none" stroke="black" points="809.25,-1044.75 809.25,-1067.25 1199.25,-1067.25 1199.25,-1044.75 809.25,-1044.75"/>
<text text-anchor="start" x="867.38" y="-1051.95" font-family="Times New Roman,serif" font-weight="bold" font-size="14.00">SeqOneShotSetNonStructGameDataBool (4)</text>
<polygon fill="none" stroke="black" points="809.25,-1022.25 809.25,-1044.75 1199.25,-1044.75 1199.25,-1022.25 809.25,-1022.25"/>
<text text-anchor="start" x="972.38" y="-1029.45" font-family="Times New Roman,serif" font-weight="bold" font-size="14.00">Properties</text>
<polygon fill="none" stroke="black" points="809.25,-1000.5 809.25,-1022.25 1199.25,-1022.25 1199.25,-1000.5 809.25,-1000.5"/>
<text text-anchor="start" x="879" y="-1005.95" font-family="Times New Roman,serif" font-size="14.00">[Bool] ExecuteEveryFrame (default = False) </text>
<polygon fill="none" stroke="black" points="809.25,-978 809.25,-1000.5 1199.25,-1000.5 1199.25,-978 809.25,-978"/>
<text text-anchor="start" x="985.12" y="-985.2" font-family="Times New Roman,serif" font-weight="bold" font-size="14.00">Inputs</text>
<polygon fill="none" stroke="black" points="809.25,-956.25 809.25,-978 1199.25,-978 1199.25,-956.25 809.25,-956.25"/>
<text text-anchor="start" x="904.88" y="-961.7" font-family="Times New Roman,serif" font-size="14.00">[Int] GameDataIndex (default = &#45;1) </text>
<polygon fill="none" stroke="black" points="809.25,-934.5 809.25,-956.25 1199.25,-956.25 1199.25,-934.5 809.25,-934.5"/>
<text text-anchor="start" x="920.62" y="-939.95" font-family="Times New Roman,serif" font-size="14.00">[Bool] Value (default = True) </text>
<polygon fill="none" stroke="black" points="809.25,-912.75 809.25,-934.5 1199.25,-934.5 1199.25,-912.75 809.25,-912.75"/>
<text text-anchor="start" x="812.25" y="-918.2" font-family="Times New Roman,serif" font-size="14.00">[String] GameDataFullName (default = Sequence_IsPreGamePause) </text>
<polygon fill="none" stroke="black" points="808.25,-911.75 808.25,-1068.25 1200.25,-1068.25 1200.25,-911.75 808.25,-911.75"/>
</g>
<!-- 4738&#45;&gt;4747 -->
<g id="edge6" class="edge">
<title>4738&#45;&gt;4747</title>
<path fill="none" stroke="firebrick" stroke-width="2" d="M690.38,-1156.63C734.46,-1133.37 788.62,-1104.79 839.45,-1077.97"/>
<polygon fill="firebrick" stroke="firebrick" stroke-width="2" points="839.68,-1081.8 846.89,-1074.04 836.41,-1075.61 839.68,-1081.8"/>
</g>
<!-- 4756 -->
<g id="node8" class="node">
<title>4756</title>
<polygon fill="none" stroke="black" stroke-width="2" points="1500.5,-1028.38 1226,-1028.38 1226,-951.62 1500.5,-951.62 1500.5,-1028.38"/>
<polygon fill="none" stroke="black" points="1235,-1000.88 1235,-1023.38 1491.5,-1023.38 1491.5,-1000.88 1235,-1000.88"/>
<text text-anchor="start" x="1299.12" y="-1008.08" font-family="Times New Roman,serif" font-weight="bold" font-size="14.00">SeqOneShotEnd (14)</text>
<polygon fill="none" stroke="black" points="1235,-978.38 1235,-1000.88 1491.5,-1000.88 1491.5,-978.38 1235,-978.38"/>
<text text-anchor="start" x="1331.38" y="-985.58" font-family="Times New Roman,serif" font-weight="bold" font-size="14.00">Properties</text>
<polygon fill="none" stroke="black" points="1235,-956.62 1235,-978.38 1491.5,-978.38 1491.5,-956.62 1235,-956.62"/>
<text text-anchor="start" x="1238" y="-962.08" font-family="Times New Roman,serif" font-size="14.00">[Bool] ExecuteEveryFrame (default = False) </text>
<polygon fill="none" stroke="black" points="1234,-955.62 1234,-1024.38 1492.5,-1024.38 1492.5,-955.62 1234,-955.62"/>
</g>
<!-- 4750&#45;&gt;4756 -->
<g id="edge7" class="edge">
<title>4750&#45;&gt;4756</title>
<path fill="none" stroke="firebrick" stroke-width="2" d="M1337.87,-1123.71C1336.43,-1117.77 1335.19,-1111.83 1334.25,-1106 1330.67,-1083.86 1335.38,-1059.74 1341.98,-1039.34"/>
<polygon fill="firebrick" stroke="firebrick" stroke-width="2" points="1344.7,-1042.18 1344.69,-1031.58 1338.09,-1039.87 1344.7,-1042.18"/>
<text text-anchor="middle" x="1352.25" y="-1092.7" font-family="Times New Roman,serif" font-size="14.00" fill="firebrick">Bigger</text>
</g>
<!-- 4750&#45;&gt;4756 -->
<g id="edge8" class="edge">
<title>4750&#45;&gt;4756</title>
<path fill="none" stroke="firebrick" stroke-width="2" d="M1370.61,-1123.57C1370.72,-1112.38 1370.63,-1101.03 1370.25,-1090.25 1369.67,-1073.86 1368.56,-1055.97 1367.39,-1039.95"/>
<polygon fill="firebrick" stroke="firebrick" stroke-width="2" points="1371.01,-1041.4 1366.76,-1031.69 1364.03,-1041.92 1371.01,-1041.4"/>
<text text-anchor="middle" x="1386" y="-1092.7" font-family="Times New Roman,serif" font-size="14.00" fill="firebrick">Equal</text>
</g>
<!-- 4762 -->
<g id="node9" class="node">
<title>4762</title>
<polygon fill="none" stroke="black" stroke-width="2" points="1892.5,-1028.38 1618,-1028.38 1618,-951.62 1892.5,-951.62 1892.5,-1028.38"/>
<polygon fill="none" stroke="black" points="1627,-1000.88 1627,-1023.38 1883.5,-1023.38 1883.5,-1000.88 1627,-1000.88"/>
<text text-anchor="start" x="1691.12" y="-1008.08" font-family="Times New Roman,serif" font-weight="bold" font-size="14.00">SeqOneShotEnd (15)</text>
<polygon fill="none" stroke="black" points="1627,-978.38 1627,-1000.88 1883.5,-1000.88 1883.5,-978.38 1627,-978.38"/>
<text text-anchor="start" x="1723.38" y="-985.58" font-family="Times New Roman,serif" font-weight="bold" font-size="14.00">Properties</text>
<polygon fill="none" stroke="black" points="1627,-956.62 1627,-978.38 1883.5,-978.38 1883.5,-956.62 1627,-956.62"/>
<text text-anchor="start" x="1630" y="-962.08" font-family="Times New Roman,serif" font-size="14.00">[Bool] ExecuteEveryFrame (default = False) </text>
<polygon fill="none" stroke="black" points="1626,-955.62 1626,-1024.38 1884.5,-1024.38 1884.5,-955.62 1626,-955.62"/>
</g>
<!-- 4750&#45;&gt;4762 -->
<g id="edge9" class="edge">
<title>4750&#45;&gt;4762</title>
<path fill="none" stroke="firebrick" stroke-width="2" d="M1515.04,-1123.64C1570.11,-1093.23 1630.45,-1059.91 1676.88,-1034.28"/>
<polygon fill="firebrick" stroke="firebrick" stroke-width="2" points="1677.15,-1038.12 1684.22,-1030.22 1673.77,-1031.99 1677.15,-1038.12"/>
<text text-anchor="middle" x="1592.88" y="-1092.7" font-family="Times New Roman,serif" font-size="14.00" fill="firebrick">Smaller</text>
</g>
<!-- 4735 -->
<g id="node4" class="node">
<title>4735</title>
<polygon fill="none" stroke="black" stroke-width="2" points="938.25,-1700 692.25,-1700 692.25,-1579 938.25,-1579 938.25,-1700"/>
<polygon fill="none" stroke="black" points="701.25,-1672.5 701.25,-1695 929.25,-1695 929.25,-1672.5 701.25,-1672.5"/>
<text text-anchor="start" x="704.25" y="-1679.7" font-family="Times New Roman,serif" font-weight="bold" font-size="14.00">Element_ModuleIF_Input_Bool (19)</text>
<polygon fill="none" stroke="black" points="701.25,-1650 701.25,-1672.5 929.25,-1672.5 929.25,-1650 701.25,-1650"/>
<text text-anchor="start" x="783.38" y="-1657.2" font-family="Times New Roman,serif" font-weight="bold" font-size="14.00">Properties</text>
<polygon fill="none" stroke="black" points="701.25,-1628.25 701.25,-1650 929.25,-1650 929.25,-1628.25 701.25,-1628.25"/>
<text text-anchor="start" x="719.62" y="-1633.7" font-family="Times New Roman,serif" font-size="14.00">[String] Name (default = IsPause) </text>
<polygon fill="none" stroke="black" points="701.25,-1605.75 701.25,-1628.25 929.25,-1628.25 929.25,-1605.75 701.25,-1605.75"/>
<text text-anchor="start" x="790.88" y="-1612.95" font-family="Times New Roman,serif" font-weight="bold" font-size="14.00">Outputs</text>
<polygon fill="none" stroke="black" points="701.25,-1584 701.25,-1605.75 929.25,-1605.75 929.25,-1584 701.25,-1584"/>
<text text-anchor="start" x="780.75" y="-1589.45" font-family="Times New Roman,serif" font-size="14.00">[Bool] Input</text>
<polygon fill="none" stroke="black" points="700.25,-1583 700.25,-1696 930.25,-1696 930.25,-1583 700.25,-1583"/>
</g>
<!-- 4735&#45;&gt;4732 -->
<g id="edge3" class="edge">
<title>4735:4791&#45;&gt;4732:4790</title>
<path fill="none" stroke="#008000" stroke-dasharray="5,2" d="M815.25,-1582.5C815.25,-1545.15 767.71,-1560.88 752.25,-1526.88 722.67,-1461.81 680.55,-1367.73 739.91,-1357.64"/>
<polygon fill="#008000" stroke="#008000" points="740.04,-1361.14 749.74,-1356.87 739.5,-1354.16 740.04,-1361.14"/>
<text text-anchor="middle" x="819.88" y="-1547.7" font-family="Times New Roman,serif" font-size="14.00" fill="#008000">Input</text>
</g>
<!-- 4759 -->
<g id="node11" class="node">
<title>4759</title>
<polygon fill="none" stroke="black" stroke-width="2" points="1669.38,-813.25 1007.12,-813.25 1007.12,-691.5 1669.38,-691.5 1669.38,-813.25"/>
<polygon fill="none" stroke="black" points="1016.12,-785.75 1016.12,-808.25 1660.38,-808.25 1660.38,-785.75 1016.12,-785.75"/>
<text text-anchor="start" x="1241.88" y="-792.95" font-family="Times New Roman,serif" font-weight="bold" font-size="14.00">SeqOneShotEmitAppError (18)</text>
<polygon fill="none" stroke="black" points="1016.12,-763.25 1016.12,-785.75 1660.38,-785.75 1660.38,-763.25 1016.12,-763.25"/>
<text text-anchor="start" x="1306.38" y="-770.45" font-family="Times New Roman,serif" font-weight="bold" font-size="14.00">Properties</text>
<polygon fill="none" stroke="black" points="1016.12,-741.5 1016.12,-763.25 1660.38,-763.25 1660.38,-741.5 1016.12,-741.5"/>
<text text-anchor="start" x="1213" y="-746.95" font-family="Times New Roman,serif" font-size="14.00">[Bool] ExecuteEveryFrame (default = False) </text>
<polygon fill="none" stroke="black" points="1016.12,-719 1016.12,-741.5 1660.38,-741.5 1660.38,-719 1016.12,-719"/>
<text text-anchor="start" x="1319.12" y="-726.2" font-family="Times New Roman,serif" font-weight="bold" font-size="14.00">Inputs</text>
<polygon fill="none" stroke="black" points="1016.12,-696.5 1016.12,-719 1660.38,-719 1660.38,-696.5 1016.12,-696.5"/>
<text text-anchor="start" x="1019.12" y="-702.7" font-family="Times New Roman,serif" font-size="14.00">[String] Error (default = [Seq]PreGamePauseのアンダーフロー検知（必ずバグ報告してください）) </text>
<polygon fill="none" stroke="black" points="1015.12,-695.5 1015.12,-809.25 1661.38,-809.25 1661.38,-695.5 1015.12,-695.5"/>
</g>
<!-- 4756&#45;&gt;4759 -->
<g id="edge11" class="edge">
<title>4756&#45;&gt;4759</title>
<path fill="none" stroke="midnightblue" stroke-width="2" d="M1359.23,-951.14C1355.63,-917.18 1350.25,-866.44 1345.83,-824.85"/>
<polygon fill="midnightblue" stroke="midnightblue" stroke-width="2" points="1349.5,-826.25 1344.97,-816.67 1342.54,-826.99 1349.5,-826.25"/>
<text text-anchor="middle" x="1379.38" y="-876.45" font-family="Times New Roman,serif" font-size="14.00" fill="midnightblue">Transition</text>
</g>
<!-- 4765 -->
<g id="node12" class="node">
<title>4765</title>
<polygon fill="none" stroke="black" stroke-width="2" points="1971,-856 1687.5,-856 1687.5,-648.75 1971,-648.75 1971,-856"/>
<polygon fill="none" stroke="black" points="1696.5,-828.5 1696.5,-851 1962,-851 1962,-828.5 1696.5,-828.5"/>
<text text-anchor="start" x="1754.62" y="-835.7" font-family="Times New Roman,serif" font-weight="bold" font-size="14.00">Element_Sequential (16)</text>
<polygon fill="none" stroke="black" points="1696.5,-806 1696.5,-828.5 1962,-828.5 1962,-806 1696.5,-806"/>
<text text-anchor="start" x="1797.38" y="-813.2" font-family="Times New Roman,serif" font-weight="bold" font-size="14.00">Properties</text>
<polygon fill="none" stroke="black" points="1696.5,-784.25 1696.5,-806 1962,-806 1962,-784.25 1696.5,-784.25"/>
<text text-anchor="start" x="1745.25" y="-789.7" font-family="Times New Roman,serif" font-size="14.00">[Int] BusyPolicy (default = 0) </text>
<polygon fill="none" stroke="black" points="1696.5,-762.5 1696.5,-784.25 1962,-784.25 1962,-762.5 1696.5,-762.5"/>
<text text-anchor="start" x="1748.25" y="-767.95" font-family="Times New Roman,serif" font-size="14.00">[Int] NumLoop (default = 0) </text>
<polygon fill="none" stroke="black" points="1696.5,-740.75 1696.5,-762.5 1962,-762.5 1962,-740.75 1696.5,-740.75"/>
<text text-anchor="start" x="1747.5" y="-746.2" font-family="Times New Roman,serif" font-size="14.00">[Int] PlayPolicy (default = 0) </text>
<polygon fill="none" stroke="black" points="1696.5,-719 1696.5,-740.75 1962,-740.75 1962,-719 1696.5,-719"/>
<text text-anchor="start" x="1741.88" y="-724.45" font-family="Times New Roman,serif" font-size="14.00">[Int] ResultPolicy (default = 0) </text>
<polygon fill="none" stroke="black" points="1696.5,-697.25 1696.5,-719 1962,-719 1962,-697.25 1696.5,-697.25"/>
<text text-anchor="start" x="1722.75" y="-702.7" font-family="Times New Roman,serif" font-size="14.00">[Bool] IsDelayJudge (default = False) </text>
<polygon fill="none" stroke="black" points="1696.5,-675.5 1696.5,-697.25 1962,-697.25 1962,-675.5 1696.5,-675.5"/>
<text text-anchor="start" x="1739.25" y="-680.95" font-family="Times New Roman,serif" font-size="14.00">[Bool] IsLoop (default = False) </text>
<polygon fill="none" stroke="black" points="1696.5,-653.75 1696.5,-675.5 1962,-675.5 1962,-653.75 1696.5,-653.75"/>
<text text-anchor="start" x="1699.5" y="-659.2" font-family="Times New Roman,serif" font-size="14.00">[Bool] IsUpdateNextInFrame (default = True) </text>
<polygon fill="none" stroke="black" points="1695.5,-652.75 1695.5,-852 1963,-852 1963,-652.75 1695.5,-652.75"/>
</g>
<!-- 4762&#45;&gt;4765 -->
<g id="edge12" class="edge">
<title>4762&#45;&gt;4765</title>
<path fill="none" stroke="midnightblue" stroke-width="2" d="M1767.14,-951.14C1774.36,-928.16 1783.99,-897.49 1793.51,-867.18"/>
<polygon fill="midnightblue" stroke="midnightblue" stroke-width="2" points="1796.3,-869.96 1795.96,-859.37 1789.63,-867.86 1796.3,-869.96"/>
<text text-anchor="middle" x="1817.38" y="-876.45" font-family="Times New Roman,serif" font-size="14.00" fill="midnightblue">Transition</text>
</g>
<!-- 4753 -->
<g id="node10" class="node">
<title>4753</title>
<polygon fill="none" stroke="black" stroke-width="2" points="1606.12,-1527.25 1128.38,-1527.25 1128.38,-1340.25 1606.12,-1340.25 1606.12,-1527.25"/>
<polygon fill="none" stroke="black" points="1137.38,-1499.75 1137.38,-1522.25 1597.12,-1522.25 1597.12,-1499.75 1137.38,-1499.75"/>
<text text-anchor="start" x="1219.12" y="-1506.95" font-family="Times New Roman,serif" font-weight="bold" font-size="14.00">SeqQueryGetNonStructGameDataIntDirect (11)</text>
<polygon fill="none" stroke="black" points="1137.38,-1477.25 1137.38,-1499.75 1597.12,-1499.75 1597.12,-1477.25 1137.38,-1477.25"/>
<text text-anchor="start" x="1335.38" y="-1484.45" font-family="Times New Roman,serif" font-weight="bold" font-size="14.00">Properties</text>
<polygon fill="none" stroke="black" points="1137.38,-1455.5 1137.38,-1477.25 1597.12,-1477.25 1597.12,-1455.5 1137.38,-1455.5"/>
<text text-anchor="start" x="1241.62" y="-1460.95" font-family="Times New Roman,serif" font-size="14.00">[Bool] OutputOnlyOnEnter (default = False) </text>
<polygon fill="none" stroke="black" points="1137.38,-1433 1137.38,-1455.5 1597.12,-1455.5 1597.12,-1433 1137.38,-1433"/>
<text text-anchor="start" x="1348.12" y="-1440.2" font-family="Times New Roman,serif" font-weight="bold" font-size="14.00">Inputs</text>
<polygon fill="none" stroke="black" points="1137.38,-1411.25 1137.38,-1433 1597.12,-1433 1597.12,-1411.25 1137.38,-1411.25"/>
<text text-anchor="start" x="1267.88" y="-1416.7" font-family="Times New Roman,serif" font-size="14.00">[Int] GameDataIndex (default = &#45;1) </text>
<polygon fill="none" stroke="black" points="1137.38,-1389.5 1137.38,-1411.25 1597.12,-1411.25 1597.12,-1389.5 1137.38,-1389.5"/>
<text text-anchor="start" x="1140.38" y="-1394.95" font-family="Times New Roman,serif" font-size="14.00">[String] GameDataFullName (default = Sequence_PreGamePauseRequestCount) </text>
<polygon fill="none" stroke="black" points="1137.38,-1367 1137.38,-1389.5 1597.12,-1389.5 1597.12,-1367 1137.38,-1367"/>
<text text-anchor="start" x="1342.88" y="-1374.2" font-family="Times New Roman,serif" font-weight="bold" font-size="14.00">Outputs</text>
<polygon fill="none" stroke="black" points="1137.38,-1345.25 1137.38,-1367 1597.12,-1367 1597.12,-1345.25 1137.38,-1345.25"/>
<text text-anchor="start" x="1337.62" y="-1350.7" font-family="Times New Roman,serif" font-size="14.00">[Int] Value</text>
<polygon fill="none" stroke="black" points="1136.38,-1344.25 1136.38,-1523.25 1598.12,-1523.25 1598.12,-1344.25 1136.38,-1344.25"/>
</g>
<!-- 4753&#45;&gt;4750 -->
<g id="edge10" class="edge">
<title>4753:4803&#45;&gt;4750:4800</title>
<path fill="none" stroke="#008000" stroke-dasharray="5,2" d="M1367.25,-1343.75C1367.25,-1267.68 1484.98,-1350.37 1529.25,-1288.5 1570.44,-1230.94 1579.14,-1179.45 1529.25,-1129.25 1518.49,-1118.43 1409.57,-1112.3 1376.63,-1121.65"/>
<polygon fill="#008000" stroke="#008000" points="1374.65,-1118.76 1368.49,-1127.38 1378.68,-1124.49 1374.65,-1118.76"/>
<text text-anchor="middle" x="1524.5" y="-1308.95" font-family="Times New Roman,serif" font-size="14.00" fill="#008000">ValueB</text>
</g>
<!-- 4768 -->
<g id="node13" class="node">
<title>4768</title>
<polygon fill="none" stroke="black" stroke-width="2" points="1902.62,-564 1703.88,-564 1703.88,-465.5 1902.62,-465.5 1902.62,-564"/>
<polygon fill="none" stroke="black" points="1712.88,-536.5 1712.88,-559 1893.62,-559 1893.62,-536.5 1712.88,-536.5"/>
<text text-anchor="start" x="1719.62" y="-543.7" font-family="Times New Roman,serif" font-weight="bold" font-size="14.00">Element_Simultaneous (13)</text>
<polygon fill="none" stroke="black" points="1712.88,-514 1712.88,-536.5 1893.62,-536.5 1893.62,-514 1712.88,-514"/>
<text text-anchor="start" x="1771.38" y="-521.2" font-family="Times New Roman,serif" font-weight="bold" font-size="14.00">Properties</text>
<polygon fill="none" stroke="black" points="1712.88,-492.25 1712.88,-514 1893.62,-514 1893.62,-492.25 1712.88,-492.25"/>
<text text-anchor="start" x="1722.25" y="-497.7" font-family="Times New Roman,serif" font-size="14.00">[Int] EndPolicy (default = 0) </text>
<polygon fill="none" stroke="black" points="1712.88,-470.5 1712.88,-492.25 1893.62,-492.25 1893.62,-470.5 1712.88,-470.5"/>
<text text-anchor="start" x="1715.88" y="-475.95" font-family="Times New Roman,serif" font-size="14.00">[Int] ResultPolicy (default = 0) </text>
<polygon fill="none" stroke="black" points="1711.88,-469.5 1711.88,-560 1894.62,-560 1894.62,-469.5 1711.88,-469.5"/>
</g>
<!-- 4765&#45;&gt;4768 -->
<g id="edge13" class="edge">
<title>4765&#45;&gt;4768</title>
<path fill="none" stroke="firebrick" stroke-width="2" d="M1817.88,-648.37C1815.14,-623.48 1812.29,-597.7 1809.85,-575.56"/>
<polygon fill="firebrick" stroke="firebrick" stroke-width="2" points="1813.52,-576.9 1808.94,-567.35 1806.56,-577.67 1813.52,-576.9"/>
</g>
<!-- 4777 -->
<g id="node14" class="node">
<title>4777</title>
<polygon fill="none" stroke="black" stroke-width="2" points="2393.25,-597 2069.25,-597 2069.25,-432.5 2393.25,-432.5 2393.25,-597"/>
<polygon fill="none" stroke="black" points="2078.25,-569.5 2078.25,-592 2384.25,-592 2384.25,-569.5 2078.25,-569.5"/>
<text text-anchor="start" x="2131.12" y="-576.7" font-family="Times New Roman,serif" font-weight="bold" font-size="14.00">SeqSelectorMathCompareInt (9)</text>
<polygon fill="none" stroke="black" points="2078.25,-547 2078.25,-569.5 2384.25,-569.5 2384.25,-547 2078.25,-547"/>
<text text-anchor="start" x="2199.38" y="-554.2" font-family="Times New Roman,serif" font-weight="bold" font-size="14.00">Properties</text>
<polygon fill="none" stroke="black" points="2078.25,-525.25 2078.25,-547 2384.25,-547 2384.25,-525.25 2078.25,-525.25"/>
<text text-anchor="start" x="2081.25" y="-530.7" font-family="Times New Roman,serif" font-size="14.00">[Bool] NoChangeWhenChildIsBusy (default = False) </text>
<polygon fill="none" stroke="black" points="2078.25,-503.5 2078.25,-525.25 2384.25,-525.25 2384.25,-503.5 2078.25,-503.5"/>
<text text-anchor="start" x="2093.25" y="-508.95" font-family="Times New Roman,serif" font-size="14.00">[Bool] SelectChildOnEnterOnly (default = False) </text>
<polygon fill="none" stroke="black" points="2078.25,-481 2078.25,-503.5 2384.25,-503.5 2384.25,-481 2078.25,-481"/>
<text text-anchor="start" x="2212.12" y="-488.2" font-family="Times New Roman,serif" font-weight="bold" font-size="14.00">Inputs</text>
<polygon fill="none" stroke="black" points="2078.25,-459.25 2078.25,-481 2384.25,-481 2384.25,-459.25 2078.25,-459.25"/>
<text text-anchor="start" x="2158.5" y="-464.7" font-family="Times New Roman,serif" font-size="14.00">[Int] ValueA (default = 0) </text>
<polygon fill="none" stroke="black" points="2078.25,-437.5 2078.25,-459.25 2384.25,-459.25 2384.25,-437.5 2078.25,-437.5"/>
<text text-anchor="start" x="2158.88" y="-442.95" font-family="Times New Roman,serif" font-size="14.00">[Int] ValueB (default = 0) </text>
<polygon fill="none" stroke="black" points="2077.25,-436.5 2077.25,-593 2385.25,-593 2385.25,-436.5 2077.25,-436.5"/>
</g>
<!-- 4765&#45;&gt;4777 -->
<g id="edge14" class="edge">
<title>4765&#45;&gt;4777</title>
<path fill="none" stroke="firebrick" stroke-width="2" d="M1971.16,-656.1C1975.22,-653.6 1979.25,-651.15 1983.25,-648.75 2008.91,-633.37 2036.48,-617.74 2063.58,-602.85"/>
<polygon fill="firebrick" stroke="firebrick" stroke-width="2" points="2063.79,-606.73 2070.88,-598.86 2060.43,-600.59 2063.79,-606.73"/>
</g>
<!-- 4771 -->
<g id="node15" class="node">
<title>4771</title>
<polygon fill="none" stroke="black" stroke-width="2" points="1546.5,-359 1260,-359 1260,-238 1546.5,-238 1546.5,-359"/>
<polygon fill="none" stroke="black" points="1269,-331.5 1269,-354 1537.5,-354 1537.5,-331.5 1269,-331.5"/>
<text text-anchor="start" x="1312.88" y="-338.7" font-family="Times New Roman,serif" font-weight="bold" font-size="14.00">SeqOneShotReleasePause (8)</text>
<polygon fill="none" stroke="black" points="1269,-309 1269,-331.5 1537.5,-331.5 1537.5,-309 1269,-309"/>
<text text-anchor="start" x="1371.38" y="-316.2" font-family="Times New Roman,serif" font-weight="bold" font-size="14.00">Properties</text>
<polygon fill="none" stroke="black" points="1269,-287.25 1269,-309 1537.5,-309 1537.5,-287.25 1269,-287.25"/>
<text text-anchor="start" x="1278" y="-292.7" font-family="Times New Roman,serif" font-size="14.00">[Bool] ExecuteEveryFrame (default = False) </text>
<polygon fill="none" stroke="black" points="1269,-264.75 1269,-287.25 1537.5,-287.25 1537.5,-264.75 1269,-264.75"/>
<text text-anchor="start" x="1384.12" y="-271.95" font-family="Times New Roman,serif" font-weight="bold" font-size="14.00">Inputs</text>
<polygon fill="none" stroke="black" points="1269,-243 1269,-264.75 1537.5,-264.75 1537.5,-243 1269,-243"/>
<text text-anchor="start" x="1272" y="-248.45" font-family="Times New Roman,serif" font-size="14.00">[String] PauseType (default = PreGamePause) </text>
<polygon fill="none" stroke="black" points="1268,-242 1268,-355 1538.5,-355 1538.5,-242 1268,-242"/>
</g>
<!-- 4768&#45;&gt;4771 -->
<g id="edge15" class="edge">
<title>4768&#45;&gt;4771</title>
<path fill="none" stroke="firebrick" stroke-width="2" d="M1712.48,-465.13C1657.02,-435.43 1585.4,-397.06 1525.05,-364.74"/>
<polygon fill="firebrick" stroke="firebrick" stroke-width="2" points="1528.22,-362.46 1517.75,-360.83 1524.91,-368.63 1528.22,-362.46"/>
</g>
<!-- 4774 -->
<g id="node16" class="node">
<title>4774</title>
<polygon fill="none" stroke="black" stroke-width="2" points="2042.12,-380.75 1564.38,-380.75 1564.38,-216.25 2042.12,-216.25 2042.12,-380.75"/>
<polygon fill="none" stroke="black" points="1573.38,-353.25 1573.38,-375.75 2033.12,-375.75 2033.12,-353.25 1573.38,-353.25"/>
<text text-anchor="start" x="1669.38" y="-360.45" font-family="Times New Roman,serif" font-weight="bold" font-size="14.00">SeqOneShotAddNonStructGameDataInt (6)</text>
<polygon fill="none" stroke="black" points="1573.38,-330.75 1573.38,-353.25 2033.12,-353.25 2033.12,-330.75 1573.38,-330.75"/>
<text text-anchor="start" x="1771.38" y="-337.95" font-family="Times New Roman,serif" font-weight="bold" font-size="14.00">Properties</text>
<polygon fill="none" stroke="black" points="1573.38,-309 1573.38,-330.75 2033.12,-330.75 2033.12,-309 1573.38,-309"/>
<text text-anchor="start" x="1678" y="-314.45" font-family="Times New Roman,serif" font-size="14.00">[Bool] ExecuteEveryFrame (default = False) </text>
<polygon fill="none" stroke="black" points="1573.38,-286.5 1573.38,-309 2033.12,-309 2033.12,-286.5 1573.38,-286.5"/>
<text text-anchor="start" x="1784.12" y="-293.7" font-family="Times New Roman,serif" font-weight="bold" font-size="14.00">Inputs</text>
<polygon fill="none" stroke="black" points="1573.38,-264.75 1573.38,-286.5 2033.12,-286.5 2033.12,-264.75 1573.38,-264.75"/>
<text text-anchor="start" x="1703.88" y="-270.2" font-family="Times New Roman,serif" font-size="14.00">[Int] GameDataIndex (default = &#45;1) </text>
<polygon fill="none" stroke="black" points="1573.38,-243 1573.38,-264.75 2033.12,-264.75 2033.12,-243 1573.38,-243"/>
<text text-anchor="start" x="1733.12" y="-248.45" font-family="Times New Roman,serif" font-size="14.00">[Int] Value (default = &#45;1) </text>
<polygon fill="none" stroke="black" points="1573.38,-221.25 1573.38,-243 2033.12,-243 2033.12,-221.25 1573.38,-221.25"/>
<text text-anchor="start" x="1576.38" y="-226.7" font-family="Times New Roman,serif" font-size="14.00">[String] GameDataFullName (default = Sequence_PreGamePauseRequestCount) </text>
<polygon fill="none" stroke="black" points="1572.38,-220.25 1572.38,-376.75 2034.12,-376.75 2034.12,-220.25 1572.38,-220.25"/>
</g>
<!-- 4768&#45;&gt;4774 -->
<g id="edge16" class="edge">
<title>4768&#45;&gt;4774</title>
<path fill="none" stroke="firebrick" stroke-width="2" d="M1803.25,-465.13C1803.25,-443.61 1803.25,-417.55 1803.25,-392.53"/>
<polygon fill="firebrick" stroke="firebrick" stroke-width="2" points="1806.75,-394.15 1803.25,-384.15 1799.75,-394.15 1806.75,-394.15"/>
</g>
<!-- 4783 -->
<g id="node17" class="node">
<title>4783</title>
<polygon fill="none" stroke="black" stroke-width="2" points="2334.5,-336.88 2060,-336.88 2060,-260.12 2334.5,-260.12 2334.5,-336.88"/>
<polygon fill="none" stroke="black" points="2069,-309.38 2069,-331.88 2325.5,-331.88 2325.5,-309.38 2069,-309.38"/>
<text text-anchor="start" x="2133.12" y="-316.57" font-family="Times New Roman,serif" font-weight="bold" font-size="14.00">SeqOneShotEnd (17)</text>
<polygon fill="none" stroke="black" points="2069,-286.88 2069,-309.38 2325.5,-309.38 2325.5,-286.88 2069,-286.88"/>
<text text-anchor="start" x="2165.38" y="-294.07" font-family="Times New Roman,serif" font-weight="bold" font-size="14.00">Properties</text>
<polygon fill="none" stroke="black" points="2069,-265.12 2069,-286.88 2325.5,-286.88 2325.5,-265.12 2069,-265.12"/>
<text text-anchor="start" x="2072" y="-270.57" font-family="Times New Roman,serif" font-size="14.00">[Bool] ExecuteEveryFrame (default = False) </text>
<polygon fill="none" stroke="black" points="2068,-264.12 2068,-332.88 2326.5,-332.88 2326.5,-264.12 2068,-264.12"/>
</g>
<!-- 4777&#45;&gt;4783 -->
<g id="edge17" class="edge">
<title>4777&#45;&gt;4783</title>
<path fill="none" stroke="firebrick" stroke-width="2" d="M2191.48,-432.06C2189.61,-426.2 2187.99,-420.32 2186.75,-414.5 2182.17,-393.1 2183.41,-369.03 2186.33,-348.47"/>
<polygon fill="firebrick" stroke="firebrick" stroke-width="2" points="2189.54,-350.55 2187.68,-340.12 2182.63,-349.43 2189.54,-350.55"/>
<text text-anchor="middle" x="2202" y="-401.2" font-family="Times New Roman,serif" font-size="14.00" fill="firebrick">Equal</text>
</g>
<!-- 4777&#45;&gt;4783 -->
<g id="edge18" class="edge">
<title>4777&#45;&gt;4783</title>
<path fill="none" stroke="firebrick" stroke-width="2" d="M2223.02,-432.26C2221.59,-420.98 2220,-409.56 2218.25,-398.75 2215.55,-382.08 2211.93,-363.98 2208.45,-347.85"/>
<polygon fill="firebrick" stroke="firebrick" stroke-width="2" points="2212.29,-349.02 2206.73,-340 2205.45,-350.52 2212.29,-349.02"/>
<text text-anchor="middle" x="2238.25" y="-401.2" font-family="Times New Roman,serif" font-size="14.00" fill="firebrick">Bigger</text>
</g>
<!-- 4789 -->
<g id="node18" class="node">
<title>4789</title>
<polygon fill="none" stroke="black" stroke-width="2" points="2627.5,-336.88 2353,-336.88 2353,-260.12 2627.5,-260.12 2627.5,-336.88"/>
<polygon fill="none" stroke="black" points="2362,-309.38 2362,-331.88 2618.5,-331.88 2618.5,-309.38 2362,-309.38"/>
<text text-anchor="start" x="2426.12" y="-316.57" font-family="Times New Roman,serif" font-weight="bold" font-size="14.00">SeqOneShotEnd (10)</text>
<polygon fill="none" stroke="black" points="2362,-286.88 2362,-309.38 2618.5,-309.38 2618.5,-286.88 2362,-286.88"/>
<text text-anchor="start" x="2458.38" y="-294.07" font-family="Times New Roman,serif" font-weight="bold" font-size="14.00">Properties</text>
<polygon fill="none" stroke="black" points="2362,-265.12 2362,-286.88 2618.5,-286.88 2618.5,-265.12 2362,-265.12"/>
<text text-anchor="start" x="2365" y="-270.57" font-family="Times New Roman,serif" font-size="14.00">[Bool] ExecuteEveryFrame (default = False) </text>
<polygon fill="none" stroke="black" points="2361,-264.12 2361,-332.88 2619.5,-332.88 2619.5,-264.12 2361,-264.12"/>
</g>
<!-- 4777&#45;&gt;4789 -->
<g id="edge19" class="edge">
<title>4777&#45;&gt;4789</title>
<path fill="none" stroke="firebrick" stroke-width="2" d="M2329.91,-432.14C2365.82,-402.43 2405.09,-369.95 2435.78,-344.56"/>
<polygon fill="firebrick" stroke="firebrick" stroke-width="2" points="2436.8,-348.26 2442.27,-339.19 2432.33,-342.87 2436.8,-348.26"/>
<text text-anchor="middle" x="2388.88" y="-401.2" font-family="Times New Roman,serif" font-size="14.00" fill="firebrick">Smaller</text>
</g>
<!-- 4786 -->
<g id="node20" class="node">
<title>4786</title>
<polygon fill="none" stroke="black" stroke-width="2" points="2401.25,-164.5 1993.25,-164.5 1993.25,0 2401.25,0 2401.25,-164.5"/>
<polygon fill="none" stroke="black" points="2002.25,-137 2002.25,-159.5 2392.25,-159.5 2392.25,-137 2002.25,-137"/>
<text text-anchor="start" x="2060.38" y="-144.2" font-family="Times New Roman,serif" font-weight="bold" font-size="14.00">SeqOneShotSetNonStructGameDataBool (7)</text>
<polygon fill="none" stroke="black" points="2002.25,-114.5 2002.25,-137 2392.25,-137 2392.25,-114.5 2002.25,-114.5"/>
<text text-anchor="start" x="2165.38" y="-121.7" font-family="Times New Roman,serif" font-weight="bold" font-size="14.00">Properties</text>
<polygon fill="none" stroke="black" points="2002.25,-92.75 2002.25,-114.5 2392.25,-114.5 2392.25,-92.75 2002.25,-92.75"/>
<text text-anchor="start" x="2072" y="-98.2" font-family="Times New Roman,serif" font-size="14.00">[Bool] ExecuteEveryFrame (default = False) </text>
<polygon fill="none" stroke="black" points="2002.25,-70.25 2002.25,-92.75 2392.25,-92.75 2392.25,-70.25 2002.25,-70.25"/>
<text text-anchor="start" x="2178.12" y="-77.45" font-family="Times New Roman,serif" font-weight="bold" font-size="14.00">Inputs</text>
<polygon fill="none" stroke="black" points="2002.25,-48.5 2002.25,-70.25 2392.25,-70.25 2392.25,-48.5 2002.25,-48.5"/>
<text text-anchor="start" x="2097.88" y="-53.95" font-family="Times New Roman,serif" font-size="14.00">[Int] GameDataIndex (default = &#45;1) </text>
<polygon fill="none" stroke="black" points="2002.25,-26.75 2002.25,-48.5 2392.25,-48.5 2392.25,-26.75 2002.25,-26.75"/>
<text text-anchor="start" x="2112.12" y="-32.2" font-family="Times New Roman,serif" font-size="14.00">[Bool] Value (default = False) </text>
<polygon fill="none" stroke="black" points="2002.25,-5 2002.25,-26.75 2392.25,-26.75 2392.25,-5 2002.25,-5"/>
<text text-anchor="start" x="2005.25" y="-10.45" font-family="Times New Roman,serif" font-size="14.00">[String] GameDataFullName (default = Sequence_IsPreGamePause) </text>
<polygon fill="none" stroke="black" points="2001.25,-4 2001.25,-160.5 2393.25,-160.5 2393.25,-4 2001.25,-4"/>
</g>
<!-- 4783&#45;&gt;4786 -->
<g id="edge21" class="edge">
<title>4783&#45;&gt;4786</title>
<path fill="none" stroke="midnightblue" stroke-width="2" d="M2197.25,-259.69C2197.25,-236.36 2197.25,-205.35 2197.25,-175.83"/>
<polygon fill="midnightblue" stroke="midnightblue" stroke-width="2" points="2200.75,-177.64 2197.25,-167.64 2193.75,-177.64 2200.75,-177.64"/>
<text text-anchor="middle" x="2225.38" y="-184.95" font-family="Times New Roman,serif" font-size="14.00" fill="midnightblue">Transition</text>
</g>
<!-- 4780 -->
<g id="node19" class="node">
<title>4780</title>
<polygon fill="none" stroke="black" stroke-width="2" points="2470.12,-845.88 1992.38,-845.88 1992.38,-658.88 2470.12,-658.88 2470.12,-845.88"/>
<polygon fill="none" stroke="black" points="2001.38,-818.38 2001.38,-840.88 2461.12,-840.88 2461.12,-818.38 2001.38,-818.38"/>
<text text-anchor="start" x="2086.88" y="-825.58" font-family="Times New Roman,serif" font-weight="bold" font-size="14.00">SeqQueryGetNonStructGameDataIntDirect (3)</text>
<polygon fill="none" stroke="black" points="2001.38,-795.88 2001.38,-818.38 2461.12,-818.38 2461.12,-795.88 2001.38,-795.88"/>
<text text-anchor="start" x="2199.38" y="-803.08" font-family="Times New Roman,serif" font-weight="bold" font-size="14.00">Properties</text>
<polygon fill="none" stroke="black" points="2001.38,-774.12 2001.38,-795.88 2461.12,-795.88 2461.12,-774.12 2001.38,-774.12"/>
<text text-anchor="start" x="2105.62" y="-779.58" font-family="Times New Roman,serif" font-size="14.00">[Bool] OutputOnlyOnEnter (default = False) </text>
<polygon fill="none" stroke="black" points="2001.38,-751.62 2001.38,-774.12 2461.12,-774.12 2461.12,-751.62 2001.38,-751.62"/>
<text text-anchor="start" x="2212.12" y="-758.83" font-family="Times New Roman,serif" font-weight="bold" font-size="14.00">Inputs</text>
<polygon fill="none" stroke="black" points="2001.38,-729.88 2001.38,-751.62 2461.12,-751.62 2461.12,-729.88 2001.38,-729.88"/>
<text text-anchor="start" x="2131.88" y="-735.33" font-family="Times New Roman,serif" font-size="14.00">[Int] GameDataIndex (default = &#45;1) </text>
<polygon fill="none" stroke="black" points="2001.38,-708.12 2001.38,-729.88 2461.12,-729.88 2461.12,-708.12 2001.38,-708.12"/>
<text text-anchor="start" x="2004.38" y="-713.58" font-family="Times New Roman,serif" font-size="14.00">[String] GameDataFullName (default = Sequence_PreGamePauseRequestCount) </text>
<polygon fill="none" stroke="black" points="2001.38,-685.62 2001.38,-708.12 2461.12,-708.12 2461.12,-685.62 2001.38,-685.62"/>
<text text-anchor="start" x="2206.88" y="-692.83" font-family="Times New Roman,serif" font-weight="bold" font-size="14.00">Outputs</text>
<polygon fill="none" stroke="black" points="2001.38,-663.88 2001.38,-685.62 2461.12,-685.62 2461.12,-663.88 2001.38,-663.88"/>
<text text-anchor="start" x="2201.62" y="-669.33" font-family="Times New Roman,serif" font-size="14.00">[Int] Value</text>
<polygon fill="none" stroke="black" points="2000.38,-662.88 2000.38,-841.88 2462.12,-841.88 2462.12,-662.88 2000.38,-662.88"/>
</g>
<!-- 4780&#45;&gt;4777 -->
<g id="edge20" class="edge">
<title>4780:4813&#45;&gt;4777:4810</title>
<path fill="none" stroke="#008000" stroke-dasharray="5,2" d="M2231.25,-662.38C2231.25,-584.73 2349.82,-661.36 2393.25,-597 2432.84,-538.33 2443.14,-487.95 2393.25,-437.75 2382.49,-426.93 2273.57,-420.8 2240.63,-430.15"/>
<polygon fill="#008000" stroke="#008000" points="2238.65,-427.26 2232.49,-435.88 2242.68,-432.99 2238.65,-427.26"/>
<text text-anchor="middle" x="2392.5" y="-617.45" font-family="Times New Roman,serif" font-size="14.00" fill="#008000">ValueB</text>
</g>
<!-- 4817 -->
<g id="node21" class="node">
<title>4817</title>
<ellipse fill="mediumpurple" stroke="mediumpurple" cx="987.25" cy="-1639.5" rx="31.39" ry="18"/>
<text text-anchor="start" x="972.25" y="-1635.45" font-family="Times New Roman,serif" font-weight="bold" font-size="14.00" fill="white">Root</text>
</g>
<!-- 4817&#45;&gt;4732 -->
<g id="edge22" class="edge">
<title>4817&#45;&gt;4732</title>
<path fill="none" stroke="black" d="M980.07,-1621.48C972.05,-1602.49 958.4,-1570.16 944.7,-1537.68"/>
<polygon fill="black" stroke="black" points="947.95,-1536.39 940.84,-1528.54 941.5,-1539.12 947.95,-1536.39"/>
</g>
</g>
</svg>
