<?xml version="1.0" encoding="UTF-8" standalone="no"?>
<!DOCTYPE svg PUBLIC "-//W3C//DTD SVG 1.1//EN"
 "http://www.w3.org/Graphics/SVG/1.1/DTD/svg11.dtd">
<!-- Generated by graphviz version 9.0.0 (20230911.1827)
 -->
<!-- Title: ChangeBancOnEvent.module Pages: 1 -->
<svg width="2784pt" height="955pt"
 viewBox="0.00 0.00 2784.25 955.14" xmlns="http://www.w3.org/2000/svg" xmlns:xlink="http://www.w3.org/1999/xlink">
<g id="graph0" class="graph" transform="scale(1 1) rotate(0) translate(4 951.14)">
<title>ChangeBancOnEvent.module</title>
<polygon fill="lightgray" stroke="none" points="-4,4 -4,-951.14 2780.25,-951.14 2780.25,4 -4,4"/>
<!-- 4391 -->
<g id="node1" class="node">
<title>4391</title>
<polygon fill="none" stroke="black" stroke-width="2" points="1823.25,-707.64 1536.75,-707.64 1536.75,-500.39 1823.25,-500.39 1823.25,-707.64"/>
<polygon fill="none" stroke="black" points="1545.75,-680.14 1545.75,-702.64 1814.25,-702.64 1814.25,-680.14 1545.75,-680.14"/>
<text text-anchor="start" x="1609.12" y="-687.34" font-family="Times New Roman,serif" font-weight="bold" font-size="14.00">Element_Sequential (0)</text>
<polygon fill="none" stroke="black" points="1545.75,-657.64 1545.75,-680.14 1814.25,-680.14 1814.25,-657.64 1545.75,-657.64"/>
<text text-anchor="start" x="1648.12" y="-664.84" font-family="Times New Roman,serif" font-weight="bold" font-size="14.00">Properties</text>
<polygon fill="none" stroke="black" points="1545.75,-635.89 1545.75,-657.64 1814.25,-657.64 1814.25,-635.89 1545.75,-635.89"/>
<text text-anchor="start" x="1596" y="-641.34" font-family="Times New Roman,serif" font-size="14.00">[Int] BusyPolicy (default = 0) </text>
<polygon fill="none" stroke="black" points="1545.75,-614.14 1545.75,-635.89 1814.25,-635.89 1814.25,-614.14 1545.75,-614.14"/>
<text text-anchor="start" x="1599" y="-619.59" font-family="Times New Roman,serif" font-size="14.00">[Int] NumLoop (default = 0) </text>
<polygon fill="none" stroke="black" points="1545.75,-592.39 1545.75,-614.14 1814.25,-614.14 1814.25,-592.39 1545.75,-592.39"/>
<text text-anchor="start" x="1598.25" y="-597.84" font-family="Times New Roman,serif" font-size="14.00">[Int] PlayPolicy (default = 0) </text>
<polygon fill="none" stroke="black" points="1545.75,-570.64 1545.75,-592.39 1814.25,-592.39 1814.25,-570.64 1545.75,-570.64"/>
<text text-anchor="start" x="1592.62" y="-576.09" font-family="Times New Roman,serif" font-size="14.00">[Int] ResultPolicy (default = 0) </text>
<polygon fill="none" stroke="black" points="1545.75,-548.89 1545.75,-570.64 1814.25,-570.64 1814.25,-548.89 1545.75,-548.89"/>
<text text-anchor="start" x="1573.5" y="-554.34" font-family="Times New Roman,serif" font-size="14.00">[Bool] IsDelayJudge (default = False) </text>
<polygon fill="none" stroke="black" points="1545.75,-527.14 1545.75,-548.89 1814.25,-548.89 1814.25,-527.14 1545.75,-527.14"/>
<text text-anchor="start" x="1590" y="-532.59" font-family="Times New Roman,serif" font-size="14.00">[Bool] IsLoop (default = False) </text>
<polygon fill="none" stroke="black" points="1545.75,-505.39 1545.75,-527.14 1814.25,-527.14 1814.25,-505.39 1545.75,-505.39"/>
<text text-anchor="start" x="1548.75" y="-510.84" font-family="Times New Roman,serif" font-size="14.00">[Bool] IsUpdateNextInFrame (default = False) </text>
<polygon fill="none" stroke="black" points="1544.75,-504.39 1544.75,-703.64 1815.25,-703.64 1815.25,-504.39 1544.75,-504.39"/>
</g>
<!-- 4394 -->
<g id="node2" class="node">
<title>4394</title>
<polygon fill="none" stroke="black" stroke-width="2" points="852.12,-447.89 477.88,-447.89 477.88,-218.89 852.12,-218.89 852.12,-447.89"/>
<polygon fill="none" stroke="black" points="486.88,-420.39 486.88,-442.89 843.12,-442.89 843.12,-420.39 486.88,-420.39"/>
<text text-anchor="start" x="591.5" y="-427.59" font-family="Times New Roman,serif" font-weight="bold" font-size="14.00">ChangeBanc.module (2)</text>
<polygon fill="none" stroke="black" points="486.88,-397.89 486.88,-420.39 843.12,-420.39 843.12,-397.89 486.88,-397.89"/>
<text text-anchor="start" x="645.88" y="-405.09" font-family="Times New Roman,serif" font-weight="bold" font-size="14.00">Inputs</text>
<polygon fill="none" stroke="black" points="486.88,-376.14 486.88,-397.89 843.12,-397.89 843.12,-376.14 486.88,-376.14"/>
<text text-anchor="start" x="533.75" y="-381.59" font-family="Times New Roman,serif" font-size="14.00">[Bool] IsNeedResidentActors (default = True) </text>
<polygon fill="none" stroke="black" points="486.88,-354.39 486.88,-376.14 843.12,-376.14 843.12,-354.39 486.88,-354.39"/>
<text text-anchor="start" x="522.5" y="-359.84" font-family="Times New Roman,serif" font-size="14.00">[Bool] IsOverrideCancelSleepRot (default = True) </text>
<polygon fill="none" stroke="black" points="486.88,-332.64 486.88,-354.39 843.12,-354.39 843.12,-332.64 486.88,-332.64"/>
<text text-anchor="start" x="518.75" y="-338.09" font-family="Times New Roman,serif" font-size="14.00">[Bool] IsOverrideTraverseBasePos (default = True) </text>
<polygon fill="none" stroke="black" points="486.88,-310.89 486.88,-332.64 843.12,-332.64 843.12,-310.89 486.88,-310.89"/>
<text text-anchor="start" x="522.12" y="-316.34" font-family="Times New Roman,serif" font-size="14.00">[Bool] IsReleaseGameOverPause (default = False) </text>
<polygon fill="none" stroke="black" points="486.88,-289.14 486.88,-310.89 843.12,-310.89 843.12,-289.14 486.88,-289.14"/>
<text text-anchor="start" x="548.38" y="-294.59" font-family="Times New Roman,serif" font-size="14.00">[Bool] MainLayerVisible (default = True) </text>
<polygon fill="none" stroke="black" points="486.88,-267.39 486.88,-289.14 843.12,-289.14 843.12,-267.39 486.88,-267.39"/>
<text text-anchor="start" x="575.38" y="-272.84" font-family="Times New Roman,serif" font-size="14.00">[String] BancParam (default = ) </text>
<polygon fill="none" stroke="black" points="486.88,-245.64 486.88,-267.39 843.12,-267.39 843.12,-245.64 486.88,-245.64"/>
<text text-anchor="start" x="489.88" y="-251.09" font-family="Times New Roman,serif" font-size="14.00">[Vector3F] OverrideCancelSleepRot (default = (0.0, 0.0, 0.0)) </text>
<polygon fill="none" stroke="black" points="486.88,-223.89 486.88,-245.64 843.12,-245.64 843.12,-223.89 486.88,-223.89"/>
<text text-anchor="start" x="499.62" y="-229.34" font-family="Times New Roman,serif" font-size="14.00">[Vector3F] OverrideTraversePos (default = (0.0, 0.0, 0.0)) </text>
<polygon fill="none" stroke="black" points="485.88,-222.89 485.88,-443.89 844.12,-443.89 844.12,-222.89 485.88,-222.89"/>
</g>
<!-- 4391&#45;&gt;4394 -->
<g id="edge1" class="edge">
<title>4391&#45;&gt;4394</title>
<path fill="none" stroke="firebrick" stroke-width="2" d="M1536.43,-553.92C1484.17,-536.38 1424.54,-516.73 1370,-499.64 1319.17,-483.71 1307.54,-474.66 1255,-465.89 1171.84,-451.99 961.93,-471 863.64,-448.17"/>
<polygon fill="firebrick" stroke="firebrick" stroke-width="2" points="865.99,-445.16 855.43,-446.02 864.22,-451.94 865.99,-445.16"/>
</g>
<!-- 4409 -->
<g id="node3" class="node">
<title>4409</title>
<polygon fill="none" stroke="black" stroke-width="2" points="1897.38,-382.64 1698.62,-382.64 1698.62,-284.14 1897.38,-284.14 1897.38,-382.64"/>
<polygon fill="none" stroke="black" points="1707.62,-355.14 1707.62,-377.64 1888.38,-377.64 1888.38,-355.14 1707.62,-355.14"/>
<text text-anchor="start" x="1718.12" y="-362.34" font-family="Times New Roman,serif" font-weight="bold" font-size="14.00">Element_Simultaneous (6)</text>
<polygon fill="none" stroke="black" points="1707.62,-332.64 1707.62,-355.14 1888.38,-355.14 1888.38,-332.64 1707.62,-332.64"/>
<text text-anchor="start" x="1766.12" y="-339.84" font-family="Times New Roman,serif" font-weight="bold" font-size="14.00">Properties</text>
<polygon fill="none" stroke="black" points="1707.62,-310.89 1707.62,-332.64 1888.38,-332.64 1888.38,-310.89 1707.62,-310.89"/>
<text text-anchor="start" x="1717" y="-316.34" font-family="Times New Roman,serif" font-size="14.00">[Int] EndPolicy (default = 0) </text>
<polygon fill="none" stroke="black" points="1707.62,-289.14 1707.62,-310.89 1888.38,-310.89 1888.38,-289.14 1707.62,-289.14"/>
<text text-anchor="start" x="1710.62" y="-294.59" font-family="Times New Roman,serif" font-size="14.00">[Int] ResultPolicy (default = 0) </text>
<polygon fill="none" stroke="black" points="1706.62,-288.14 1706.62,-378.64 1889.38,-378.64 1889.38,-288.14 1706.62,-288.14"/>
</g>
<!-- 4391&#45;&gt;4409 -->
<g id="edge2" class="edge">
<title>4391&#45;&gt;4409</title>
<path fill="none" stroke="firebrick" stroke-width="2" d="M1725.28,-499.92C1741.17,-463.76 1758.45,-424.41 1772.19,-393.15"/>
<polygon fill="firebrick" stroke="firebrick" stroke-width="2" points="1774.66,-396.21 1775.48,-385.65 1768.26,-393.4 1774.66,-396.21"/>
</g>
<!-- 4412 -->
<g id="node8" class="node">
<title>4412</title>
<polygon fill="none" stroke="black" stroke-width="2" points="1589.75,-167.14 1210.25,-167.14 1210.25,-2.64 1589.75,-2.64 1589.75,-167.14"/>
<polygon fill="none" stroke="black" points="1219.25,-139.64 1219.25,-162.14 1580.75,-162.14 1580.75,-139.64 1219.25,-139.64"/>
<text text-anchor="start" x="1251.12" y="-146.84" font-family="Times New Roman,serif" font-weight="bold" font-size="14.00">SeqOneShotSetNonStructGameDataString16 (7)</text>
<polygon fill="none" stroke="black" points="1219.25,-117.14 1219.25,-139.64 1580.75,-139.64 1580.75,-117.14 1219.25,-117.14"/>
<text text-anchor="start" x="1368.12" y="-124.34" font-family="Times New Roman,serif" font-weight="bold" font-size="14.00">Properties</text>
<polygon fill="none" stroke="black" points="1219.25,-95.39 1219.25,-117.14 1580.75,-117.14 1580.75,-95.39 1219.25,-95.39"/>
<text text-anchor="start" x="1274.75" y="-100.84" font-family="Times New Roman,serif" font-size="14.00">[Bool] ExecuteEveryFrame (default = False) </text>
<polygon fill="none" stroke="black" points="1219.25,-72.89 1219.25,-95.39 1580.75,-95.39 1580.75,-72.89 1219.25,-72.89"/>
<text text-anchor="start" x="1380.88" y="-80.09" font-family="Times New Roman,serif" font-weight="bold" font-size="14.00">Inputs</text>
<polygon fill="none" stroke="black" points="1219.25,-51.14 1219.25,-72.89 1580.75,-72.89 1580.75,-51.14 1219.25,-51.14"/>
<text text-anchor="start" x="1300.62" y="-56.59" font-family="Times New Roman,serif" font-size="14.00">[Int] GameDataIndex (default = &#45;1) </text>
<polygon fill="none" stroke="black" points="1219.25,-29.39 1219.25,-51.14 1580.75,-51.14 1580.75,-29.39 1219.25,-29.39"/>
<text text-anchor="start" x="1222.25" y="-34.84" font-family="Times New Roman,serif" font-size="14.00">[String] GameDataFullName (default = Sequence_EventResult) </text>
<polygon fill="none" stroke="black" points="1219.25,-7.64 1219.25,-29.39 1580.75,-29.39 1580.75,-7.64 1219.25,-7.64"/>
<text text-anchor="start" x="1326.5" y="-13.09" font-family="Times New Roman,serif" font-size="14.00">[String] Value (default = ) </text>
<polygon fill="none" stroke="black" points="1218.25,-6.64 1218.25,-163.14 1581.75,-163.14 1581.75,-6.64 1218.25,-6.64"/>
</g>
<!-- 4409&#45;&gt;4412 -->
<g id="edge7" class="edge">
<title>4409&#45;&gt;4412</title>
<path fill="none" stroke="firebrick" stroke-width="2" d="M1719.37,-283.69C1668.62,-252.25 1601.14,-210.46 1541.29,-173.39"/>
<polygon fill="firebrick" stroke="firebrick" stroke-width="2" points="1544.67,-171.37 1534.32,-169.08 1540.98,-177.32 1544.67,-171.37"/>
</g>
<!-- 4415 -->
<g id="node9" class="node">
<title>4415</title>
<polygon fill="none" stroke="black" stroke-width="2" points="2028,-167.14 1608,-167.14 1608,-2.64 2028,-2.64 2028,-167.14"/>
<polygon fill="none" stroke="black" points="1617,-139.64 1617,-162.14 2019,-162.14 2019,-139.64 1617,-139.64"/>
<text text-anchor="start" x="1669.12" y="-146.84" font-family="Times New Roman,serif" font-weight="bold" font-size="14.00">SeqOneShotSetNonStructGameDataString64 (8)</text>
<polygon fill="none" stroke="black" points="1617,-117.14 1617,-139.64 2019,-139.64 2019,-117.14 1617,-117.14"/>
<text text-anchor="start" x="1786.12" y="-124.34" font-family="Times New Roman,serif" font-weight="bold" font-size="14.00">Properties</text>
<polygon fill="none" stroke="black" points="1617,-95.39 1617,-117.14 2019,-117.14 2019,-95.39 1617,-95.39"/>
<text text-anchor="start" x="1692.75" y="-100.84" font-family="Times New Roman,serif" font-size="14.00">[Bool] ExecuteEveryFrame (default = False) </text>
<polygon fill="none" stroke="black" points="1617,-72.89 1617,-95.39 2019,-95.39 2019,-72.89 1617,-72.89"/>
<text text-anchor="start" x="1798.88" y="-80.09" font-family="Times New Roman,serif" font-weight="bold" font-size="14.00">Inputs</text>
<polygon fill="none" stroke="black" points="1617,-51.14 1617,-72.89 2019,-72.89 2019,-51.14 1617,-51.14"/>
<text text-anchor="start" x="1718.62" y="-56.59" font-family="Times New Roman,serif" font-size="14.00">[Int] GameDataIndex (default = &#45;1) </text>
<polygon fill="none" stroke="black" points="1617,-29.39 1617,-51.14 2019,-51.14 2019,-29.39 1617,-29.39"/>
<text text-anchor="start" x="1620" y="-34.84" font-family="Times New Roman,serif" font-size="14.00">[String] GameDataFullName (default = Sequence_ReservedNextBanc) </text>
<polygon fill="none" stroke="black" points="1617,-7.64 1617,-29.39 2019,-29.39 2019,-7.64 1617,-7.64"/>
<text text-anchor="start" x="1744.5" y="-13.09" font-family="Times New Roman,serif" font-size="14.00">[String] Value (default = ) </text>
<polygon fill="none" stroke="black" points="1616,-6.64 1616,-163.14 2020,-163.14 2020,-6.64 1616,-6.64"/>
</g>
<!-- 4409&#45;&gt;4415 -->
<g id="edge8" class="edge">
<title>4409&#45;&gt;4415</title>
<path fill="none" stroke="firebrick" stroke-width="2" d="M1801.95,-283.69C1804.38,-253.81 1807.56,-214.56 1810.45,-178.92"/>
<polygon fill="firebrick" stroke="firebrick" stroke-width="2" points="1813.81,-180.75 1811.13,-170.5 1806.84,-180.19 1813.81,-180.75"/>
</g>
<!-- 4418 -->
<g id="node10" class="node">
<title>4418</title>
<polygon fill="none" stroke="black" stroke-width="2" points="2483.62,-167.14 2046.38,-167.14 2046.38,-2.64 2483.62,-2.64 2483.62,-167.14"/>
<polygon fill="none" stroke="black" points="2055.38,-139.64 2055.38,-162.14 2474.62,-162.14 2474.62,-139.64 2055.38,-139.64"/>
<text text-anchor="start" x="2118" y="-146.84" font-family="Times New Roman,serif" font-weight="bold" font-size="14.00">SeqOneShotSetNonStructGameDataVector3 (9)</text>
<polygon fill="none" stroke="black" points="2055.38,-117.14 2055.38,-139.64 2474.62,-139.64 2474.62,-117.14 2055.38,-117.14"/>
<text text-anchor="start" x="2233.12" y="-124.34" font-family="Times New Roman,serif" font-weight="bold" font-size="14.00">Properties</text>
<polygon fill="none" stroke="black" points="2055.38,-95.39 2055.38,-117.14 2474.62,-117.14 2474.62,-95.39 2055.38,-95.39"/>
<text text-anchor="start" x="2139.75" y="-100.84" font-family="Times New Roman,serif" font-size="14.00">[Bool] ExecuteEveryFrame (default = False) </text>
<polygon fill="none" stroke="black" points="2055.38,-72.89 2055.38,-95.39 2474.62,-95.39 2474.62,-72.89 2055.38,-72.89"/>
<text text-anchor="start" x="2245.88" y="-80.09" font-family="Times New Roman,serif" font-weight="bold" font-size="14.00">Inputs</text>
<polygon fill="none" stroke="black" points="2055.38,-51.14 2055.38,-72.89 2474.62,-72.89 2474.62,-51.14 2055.38,-51.14"/>
<text text-anchor="start" x="2165.62" y="-56.59" font-family="Times New Roman,serif" font-size="14.00">[Int] GameDataIndex (default = &#45;1) </text>
<polygon fill="none" stroke="black" points="2055.38,-29.39 2055.38,-51.14 2474.62,-51.14 2474.62,-29.39 2055.38,-29.39"/>
<text text-anchor="start" x="2058.38" y="-34.84" font-family="Times New Roman,serif" font-size="14.00">[String] GameDataFullName (default = Sequence_ReservedNextPosition) </text>
<polygon fill="none" stroke="black" points="2055.38,-7.64 2055.38,-29.39 2474.62,-29.39 2474.62,-7.64 2055.38,-7.64"/>
<text text-anchor="start" x="2143.5" y="-13.09" font-family="Times New Roman,serif" font-size="14.00">[Vector3F] Value (default = (0.0, 0.0, 0.0)) </text>
<polygon fill="none" stroke="black" points="2054.38,-6.64 2054.38,-163.14 2475.62,-163.14 2475.62,-6.64 2054.38,-6.64"/>
</g>
<!-- 4409&#45;&gt;4418 -->
<g id="edge9" class="edge">
<title>4409&#45;&gt;4418</title>
<path fill="none" stroke="firebrick" stroke-width="2" d="M1890.26,-283.69C1950.18,-252.06 2029.97,-209.95 2100.52,-172.71"/>
<polygon fill="firebrick" stroke="firebrick" stroke-width="2" points="2100.52,-176.66 2107.73,-168.9 2097.25,-170.47 2100.52,-176.66"/>
</g>
<!-- 4421 -->
<g id="node11" class="node">
<title>4421</title>
<polygon fill="none" stroke="black" stroke-width="2" points="1192.12,-167.14 793.88,-167.14 793.88,-2.64 1192.12,-2.64 1192.12,-167.14"/>
<polygon fill="none" stroke="black" points="802.88,-139.64 802.88,-162.14 1183.12,-162.14 1183.12,-139.64 802.88,-139.64"/>
<text text-anchor="start" x="848.62" y="-146.84" font-family="Times New Roman,serif" font-weight="bold" font-size="14.00">SeqOneShotSetNonStructGameDataEnum (10)</text>
<polygon fill="none" stroke="black" points="802.88,-117.14 802.88,-139.64 1183.12,-139.64 1183.12,-117.14 802.88,-117.14"/>
<text text-anchor="start" x="961.12" y="-124.34" font-family="Times New Roman,serif" font-weight="bold" font-size="14.00">Properties</text>
<polygon fill="none" stroke="black" points="802.88,-95.39 802.88,-117.14 1183.12,-117.14 1183.12,-95.39 802.88,-95.39"/>
<text text-anchor="start" x="867.75" y="-100.84" font-family="Times New Roman,serif" font-size="14.00">[Bool] ExecuteEveryFrame (default = False) </text>
<polygon fill="none" stroke="black" points="802.88,-72.89 802.88,-95.39 1183.12,-95.39 1183.12,-72.89 802.88,-72.89"/>
<text text-anchor="start" x="973.88" y="-80.09" font-family="Times New Roman,serif" font-weight="bold" font-size="14.00">Inputs</text>
<polygon fill="none" stroke="black" points="802.88,-51.14 802.88,-72.89 1183.12,-72.89 1183.12,-51.14 802.88,-51.14"/>
<text text-anchor="start" x="893.62" y="-56.59" font-family="Times New Roman,serif" font-size="14.00">[Int] GameDataIndex (default = &#45;1) </text>
<polygon fill="none" stroke="black" points="802.88,-29.39 802.88,-51.14 1183.12,-51.14 1183.12,-29.39 802.88,-29.39"/>
<text text-anchor="start" x="805.88" y="-34.84" font-family="Times New Roman,serif" font-size="14.00">[String] GameDataFullName (default = Sequence_ControlInEvent) </text>
<polygon fill="none" stroke="black" points="802.88,-7.64 802.88,-29.39 1183.12,-29.39 1183.12,-7.64 802.88,-7.64"/>
<text text-anchor="start" x="887.62" y="-13.09" font-family="Times New Roman,serif" font-size="14.00">[const u32*] Value (default = nullptr) </text>
<polygon fill="none" stroke="black" points="801.88,-6.64 801.88,-163.14 1184.12,-163.14 1184.12,-6.64 801.88,-6.64"/>
</g>
<!-- 4409&#45;&gt;4421 -->
<g id="edge10" class="edge">
<title>4409&#45;&gt;4421</title>
<path fill="none" stroke="firebrick" stroke-width="2" d="M1698.3,-308.12C1581.38,-278.91 1381.89,-226.74 1203.31,-167.86"/>
<polygon fill="firebrick" stroke="firebrick" stroke-width="2" points="1205.86,-165.02 1195.27,-165.19 1203.66,-171.66 1205.86,-165.02"/>
</g>
<!-- 4427 -->
<g id="node12" class="node">
<title>4427</title>
<polygon fill="none" stroke="black" stroke-width="2" points="2776.25,-156.26 2501.75,-156.26 2501.75,-13.51 2776.25,-13.51 2776.25,-156.26"/>
<polygon fill="none" stroke="black" points="2510.75,-128.76 2510.75,-151.26 2767.25,-151.26 2767.25,-128.76 2510.75,-128.76"/>
<text text-anchor="start" x="2538.88" y="-135.96" font-family="Times New Roman,serif" font-weight="bold" font-size="14.00">SeqOneShotSetLayerVisible (12)</text>
<polygon fill="none" stroke="black" points="2510.75,-106.26 2510.75,-128.76 2767.25,-128.76 2767.25,-106.26 2510.75,-106.26"/>
<text text-anchor="start" x="2607.12" y="-113.46" font-family="Times New Roman,serif" font-weight="bold" font-size="14.00">Properties</text>
<polygon fill="none" stroke="black" points="2510.75,-84.51 2510.75,-106.26 2767.25,-106.26 2767.25,-84.51 2510.75,-84.51"/>
<text text-anchor="start" x="2513.75" y="-89.96" font-family="Times New Roman,serif" font-size="14.00">[Bool] ExecuteEveryFrame (default = False) </text>
<polygon fill="none" stroke="black" points="2510.75,-62.01 2510.75,-84.51 2767.25,-84.51 2767.25,-62.01 2510.75,-62.01"/>
<text text-anchor="start" x="2619.88" y="-69.21" font-family="Times New Roman,serif" font-weight="bold" font-size="14.00">Inputs</text>
<polygon fill="none" stroke="black" points="2510.75,-40.26 2510.75,-62.01 2767.25,-62.01 2767.25,-40.26 2510.75,-40.26"/>
<text text-anchor="start" x="2533.25" y="-45.71" font-family="Times New Roman,serif" font-size="14.00">[Int] LayerTag (default = 460120899) </text>
<polygon fill="none" stroke="black" points="2510.75,-18.51 2510.75,-40.26 2767.25,-40.26 2767.25,-18.51 2510.75,-18.51"/>
<text text-anchor="start" x="2546.75" y="-23.96" font-family="Times New Roman,serif" font-size="14.00">[Bool] IsVisible (default = True) </text>
<polygon fill="none" stroke="black" points="2509.75,-17.51 2509.75,-152.26 2768.25,-152.26 2768.25,-17.51 2509.75,-17.51"/>
</g>
<!-- 4409&#45;&gt;4427 -->
<g id="edge11" class="edge">
<title>4409&#45;&gt;4427</title>
<path fill="none" stroke="firebrick" stroke-width="2" d="M1897.83,-317.51C2035.19,-295.07 2288.67,-246.54 2493,-167.14 2497.69,-165.31 2502.41,-163.37 2507.15,-161.32"/>
<polygon fill="firebrick" stroke="firebrick" stroke-width="2" points="2507.05,-165.19 2514.75,-157.92 2504.19,-158.81 2507.05,-165.19"/>
</g>
<!-- 4397 -->
<g id="node4" class="node">
<title>4397</title>
<polygon fill="none" stroke="black" stroke-width="2" points="406.5,-708.39 13.5,-708.39 13.5,-499.64 406.5,-499.64 406.5,-708.39"/>
<polygon fill="none" stroke="black" points="22.5,-680.89 22.5,-703.39 397.5,-703.39 397.5,-680.89 22.5,-680.89"/>
<text text-anchor="start" x="104.25" y="-688.09" font-family="Times New Roman,serif" font-weight="bold" font-size="14.00">SeqQueryGenericConcatString (3)</text>
<polygon fill="none" stroke="black" points="22.5,-658.39 22.5,-680.89 397.5,-680.89 397.5,-658.39 22.5,-658.39"/>
<text text-anchor="start" x="178.12" y="-665.59" font-family="Times New Roman,serif" font-weight="bold" font-size="14.00">Properties</text>
<polygon fill="none" stroke="black" points="22.5,-636.64 22.5,-658.39 397.5,-658.39 397.5,-636.64 22.5,-636.64"/>
<text text-anchor="start" x="84.38" y="-642.09" font-family="Times New Roman,serif" font-size="14.00">[Bool] OutputOnlyOnEnter (default = False) </text>
<polygon fill="none" stroke="black" points="22.5,-614.14 22.5,-636.64 397.5,-636.64 397.5,-614.14 22.5,-614.14"/>
<text text-anchor="start" x="190.88" y="-621.34" font-family="Times New Roman,serif" font-weight="bold" font-size="14.00">Inputs</text>
<polygon fill="none" stroke="black" points="22.5,-592.39 22.5,-614.14 397.5,-614.14 397.5,-592.39 22.5,-592.39"/>
<text text-anchor="start" x="49.88" y="-597.84" font-family="Times New Roman,serif" font-size="14.00">[String] Input0 (default = Work/Banc/GameBancParam/) </text>
<polygon fill="none" stroke="black" points="22.5,-570.64 22.5,-592.39 397.5,-592.39 397.5,-570.64 22.5,-570.64"/>
<text text-anchor="start" x="134.25" y="-576.09" font-family="Times New Roman,serif" font-size="14.00">[String] Input1 (default = ) </text>
<polygon fill="none" stroke="black" points="22.5,-548.89 22.5,-570.64 397.5,-570.64 397.5,-548.89 22.5,-548.89"/>
<text text-anchor="start" x="25.5" y="-554.34" font-family="Times New Roman,serif" font-size="14.00">[String] Input2 (default = .game__banc__GameBancParam.gyml) </text>
<polygon fill="none" stroke="black" points="22.5,-526.39 22.5,-548.89 397.5,-548.89 397.5,-526.39 22.5,-526.39"/>
<text text-anchor="start" x="185.62" y="-533.59" font-family="Times New Roman,serif" font-weight="bold" font-size="14.00">Outputs</text>
<polygon fill="none" stroke="black" points="22.5,-504.64 22.5,-526.39 397.5,-526.39 397.5,-504.64 22.5,-504.64"/>
<text text-anchor="start" x="167.62" y="-510.09" font-family="Times New Roman,serif" font-size="14.00">[String] Output</text>
<polygon fill="none" stroke="black" points="21.5,-503.64 21.5,-704.39 398.5,-704.39 398.5,-503.64 21.5,-503.64"/>
</g>
<!-- 4397&#45;&gt;4394 -->
<g id="edge3" class="edge">
<title>4397:4439&#45;&gt;4394:4433</title>
<path fill="none" stroke="#008000" stroke-dasharray="5,2" d="M399,-515.01C424.11,-515.01 451.61,-324.84 477.21,-285.47"/>
<polygon fill="#008000" stroke="#008000" points="479.23,-288.34 484.82,-279.34 474.84,-282.89 479.23,-288.34"/>
<text text-anchor="middle" x="455.88" y="-468.34" font-family="Times New Roman,serif" font-size="14.00" fill="#008000">BancParam</text>
</g>
<!-- 4400 -->
<g id="node5" class="node">
<title>4400</title>
<polygon fill="none" stroke="black" stroke-width="2" points="420,-947.14 0,-947.14 0,-760.14 420,-760.14 420,-947.14"/>
<polygon fill="none" stroke="black" points="9,-919.64 9,-942.14 411,-942.14 411,-919.64 9,-919.64"/>
<text text-anchor="start" x="67.12" y="-926.84" font-family="Times New Roman,serif" font-weight="bold" font-size="14.00">SeqQueryGetNonStructGameDataString64 (1)</text>
<polygon fill="none" stroke="black" points="9,-897.14 9,-919.64 411,-919.64 411,-897.14 9,-897.14"/>
<text text-anchor="start" x="178.12" y="-904.34" font-family="Times New Roman,serif" font-weight="bold" font-size="14.00">Properties</text>
<polygon fill="none" stroke="black" points="9,-875.39 9,-897.14 411,-897.14 411,-875.39 9,-875.39"/>
<text text-anchor="start" x="84.38" y="-880.84" font-family="Times New Roman,serif" font-size="14.00">[Bool] OutputOnlyOnEnter (default = False) </text>
<polygon fill="none" stroke="black" points="9,-852.89 9,-875.39 411,-875.39 411,-852.89 9,-852.89"/>
<text text-anchor="start" x="190.88" y="-860.09" font-family="Times New Roman,serif" font-weight="bold" font-size="14.00">Inputs</text>
<polygon fill="none" stroke="black" points="9,-831.14 9,-852.89 411,-852.89 411,-831.14 9,-831.14"/>
<text text-anchor="start" x="110.62" y="-836.59" font-family="Times New Roman,serif" font-size="14.00">[Int] GameDataIndex (default = &#45;1) </text>
<polygon fill="none" stroke="black" points="9,-809.39 9,-831.14 411,-831.14 411,-809.39 9,-809.39"/>
<text text-anchor="start" x="12" y="-814.84" font-family="Times New Roman,serif" font-size="14.00">[String] GameDataFullName (default = Sequence_ReservedNextBanc) </text>
<polygon fill="none" stroke="black" points="9,-786.89 9,-809.39 411,-809.39 411,-786.89 9,-786.89"/>
<text text-anchor="start" x="185.62" y="-794.09" font-family="Times New Roman,serif" font-weight="bold" font-size="14.00">Outputs</text>
<polygon fill="none" stroke="black" points="9,-765.14 9,-786.89 411,-786.89 411,-765.14 9,-765.14"/>
<text text-anchor="start" x="171.38" y="-770.59" font-family="Times New Roman,serif" font-size="14.00">[String] Value</text>
<polygon fill="none" stroke="black" points="8,-764.14 8,-943.14 412,-943.14 412,-764.14 8,-764.14"/>
</g>
<!-- 4400&#45;&gt;4397 -->
<g id="edge4" class="edge">
<title>4400:4442&#45;&gt;4397:4437</title>
<path fill="none" stroke="#008000" stroke-dasharray="5,2" d="M210,-763.64C210,-676.55 345.54,-777.91 398,-708.39 404.99,-699.12 410.71,-619.34 404.73,-590.97"/>
<polygon fill="#008000" stroke="#008000" points="407.77,-589.25 399.75,-582.32 401.7,-592.74 407.77,-589.25"/>
<text text-anchor="middle" x="394" y="-728.84" font-family="Times New Roman,serif" font-size="14.00" fill="#008000">Input1</text>
</g>
<!-- 4403 -->
<g id="node6" class="node">
<title>4403</title>
<polygon fill="none" stroke="black" stroke-width="2" points="905.75,-697.51 424.25,-697.51 424.25,-510.51 905.75,-510.51 905.75,-697.51"/>
<polygon fill="none" stroke="black" points="433.25,-670.01 433.25,-692.51 896.75,-692.51 896.75,-670.01 433.25,-670.01"/>
<text text-anchor="start" x="524" y="-677.21" font-family="Times New Roman,serif" font-weight="bold" font-size="14.00">SeqQueryGetNonStructGameDataVector3 (5)</text>
<polygon fill="none" stroke="black" points="433.25,-647.51 433.25,-670.01 896.75,-670.01 896.75,-647.51 433.25,-647.51"/>
<text text-anchor="start" x="633.12" y="-654.71" font-family="Times New Roman,serif" font-weight="bold" font-size="14.00">Properties</text>
<polygon fill="none" stroke="black" points="433.25,-625.76 433.25,-647.51 896.75,-647.51 896.75,-625.76 433.25,-625.76"/>
<text text-anchor="start" x="539.38" y="-631.21" font-family="Times New Roman,serif" font-size="14.00">[Bool] OutputOnlyOnEnter (default = False) </text>
<polygon fill="none" stroke="black" points="433.25,-603.26 433.25,-625.76 896.75,-625.76 896.75,-603.26 433.25,-603.26"/>
<text text-anchor="start" x="645.88" y="-610.46" font-family="Times New Roman,serif" font-weight="bold" font-size="14.00">Inputs</text>
<polygon fill="none" stroke="black" points="433.25,-581.51 433.25,-603.26 896.75,-603.26 896.75,-581.51 433.25,-581.51"/>
<text text-anchor="start" x="565.62" y="-586.96" font-family="Times New Roman,serif" font-size="14.00">[Int] GameDataIndex (default = &#45;1) </text>
<polygon fill="none" stroke="black" points="433.25,-559.76 433.25,-581.51 896.75,-581.51 896.75,-559.76 433.25,-559.76"/>
<text text-anchor="start" x="436.25" y="-565.21" font-family="Times New Roman,serif" font-size="14.00">[String] GameDataFullName (default = Sequence_ReservedNextCancelSleepRot) </text>
<polygon fill="none" stroke="black" points="433.25,-537.26 433.25,-559.76 896.75,-559.76 896.75,-537.26 433.25,-537.26"/>
<text text-anchor="start" x="640.62" y="-544.46" font-family="Times New Roman,serif" font-weight="bold" font-size="14.00">Outputs</text>
<polygon fill="none" stroke="black" points="433.25,-515.51 433.25,-537.26 896.75,-537.26 896.75,-515.51 433.25,-515.51"/>
<text text-anchor="start" x="616.25" y="-520.96" font-family="Times New Roman,serif" font-size="14.00">[Vector3F] Value</text>
<polygon fill="none" stroke="black" points="432.25,-514.51 432.25,-693.51 897.75,-693.51 897.75,-514.51 432.25,-514.51"/>
</g>
<!-- 4403&#45;&gt;4394 -->
<g id="edge5" class="edge">
<title>4403:4445&#45;&gt;4394:4434</title>
<path fill="none" stroke="#008000" stroke-dasharray="5,2" d="M665,-514.01C665,-429.62 794.64,-517.05 843,-447.89 853.53,-432.83 862.48,-301.05 851.04,-265.3"/>
<polygon fill="#008000" stroke="#008000" points="853.88,-263.25 844.94,-257.57 848.39,-267.59 853.88,-263.25"/>
<text text-anchor="middle" x="892.38" y="-468.34" font-family="Times New Roman,serif" font-size="14.00" fill="#008000">OverrideCancelSleepRot</text>
</g>
<!-- 4406 -->
<g id="node7" class="node">
<title>4406</title>
<polygon fill="none" stroke="black" stroke-width="2" points="1360.62,-697.51 923.38,-697.51 923.38,-510.51 1360.62,-510.51 1360.62,-697.51"/>
<polygon fill="none" stroke="black" points="932.38,-670.01 932.38,-692.51 1351.62,-692.51 1351.62,-670.01 932.38,-670.01"/>
<text text-anchor="start" x="1001" y="-677.21" font-family="Times New Roman,serif" font-weight="bold" font-size="14.00">SeqQueryGetNonStructGameDataVector3 (4)</text>
<polygon fill="none" stroke="black" points="932.38,-647.51 932.38,-670.01 1351.62,-670.01 1351.62,-647.51 932.38,-647.51"/>
<text text-anchor="start" x="1110.12" y="-654.71" font-family="Times New Roman,serif" font-weight="bold" font-size="14.00">Properties</text>
<polygon fill="none" stroke="black" points="932.38,-625.76 932.38,-647.51 1351.62,-647.51 1351.62,-625.76 932.38,-625.76"/>
<text text-anchor="start" x="1016.38" y="-631.21" font-family="Times New Roman,serif" font-size="14.00">[Bool] OutputOnlyOnEnter (default = False) </text>
<polygon fill="none" stroke="black" points="932.38,-603.26 932.38,-625.76 1351.62,-625.76 1351.62,-603.26 932.38,-603.26"/>
<text text-anchor="start" x="1122.88" y="-610.46" font-family="Times New Roman,serif" font-weight="bold" font-size="14.00">Inputs</text>
<polygon fill="none" stroke="black" points="932.38,-581.51 932.38,-603.26 1351.62,-603.26 1351.62,-581.51 932.38,-581.51"/>
<text text-anchor="start" x="1042.62" y="-586.96" font-family="Times New Roman,serif" font-size="14.00">[Int] GameDataIndex (default = &#45;1) </text>
<polygon fill="none" stroke="black" points="932.38,-559.76 932.38,-581.51 1351.62,-581.51 1351.62,-559.76 932.38,-559.76"/>
<text text-anchor="start" x="935.38" y="-565.21" font-family="Times New Roman,serif" font-size="14.00">[String] GameDataFullName (default = Sequence_ReservedNextPosition) </text>
<polygon fill="none" stroke="black" points="932.38,-537.26 932.38,-559.76 1351.62,-559.76 1351.62,-537.26 932.38,-537.26"/>
<text text-anchor="start" x="1117.62" y="-544.46" font-family="Times New Roman,serif" font-weight="bold" font-size="14.00">Outputs</text>
<polygon fill="none" stroke="black" points="932.38,-515.51 932.38,-537.26 1351.62,-537.26 1351.62,-515.51 932.38,-515.51"/>
<text text-anchor="start" x="1093.25" y="-520.96" font-family="Times New Roman,serif" font-size="14.00">[Vector3F] Value</text>
<polygon fill="none" stroke="black" points="931.38,-514.51 931.38,-693.51 1352.62,-693.51 1352.62,-514.51 931.38,-514.51"/>
</g>
<!-- 4406&#45;&gt;4394 -->
<g id="edge6" class="edge">
<title>4406:4448&#45;&gt;4394:4435</title>
<path fill="none" stroke="#008000" stroke-dasharray="5,2" d="M1142,-514.01C1142,-432.92 1045.17,-483.45 966,-465.89 942.89,-460.76 876.97,-465.36 861,-447.89 847.02,-432.58 862.55,-281.94 851.06,-243.35"/>
<polygon fill="#008000" stroke="#008000" points="853.87,-241.27 844.94,-235.58 848.37,-245.6 853.87,-241.27"/>
<text text-anchor="middle" x="1191.62" y="-468.34" font-family="Times New Roman,serif" font-size="14.00" fill="#008000">OverrideTraversePos</text>
</g>
<!-- 4424 -->
<g id="node13" class="node">
<title>4424</title>
<polygon fill="none" stroke="black" stroke-width="2" points="1155.5,-426.89 870.5,-426.89 870.5,-239.89 1155.5,-239.89 1155.5,-426.89"/>
<polygon fill="none" stroke="black" points="879.5,-399.39 879.5,-421.89 1146.5,-421.89 1146.5,-399.39 879.5,-399.39"/>
<text text-anchor="start" x="889.25" y="-406.59" font-family="Times New Roman,serif" font-weight="bold" font-size="14.00">SeqQueryCalcStringHashMurMur3 (11)</text>
<polygon fill="none" stroke="black" points="879.5,-376.89 879.5,-399.39 1146.5,-399.39 1146.5,-376.89 879.5,-376.89"/>
<text text-anchor="start" x="981.12" y="-384.09" font-family="Times New Roman,serif" font-weight="bold" font-size="14.00">Properties</text>
<polygon fill="none" stroke="black" points="879.5,-355.14 879.5,-376.89 1146.5,-376.89 1146.5,-355.14 879.5,-355.14"/>
<text text-anchor="start" x="895.25" y="-360.59" font-family="Times New Roman,serif" font-size="14.00">[Bool] IsCalcHashOnInit (default = True) </text>
<polygon fill="none" stroke="black" points="879.5,-333.39 879.5,-355.14 1146.5,-355.14 1146.5,-333.39 879.5,-333.39"/>
<text text-anchor="start" x="887.38" y="-338.84" font-family="Times New Roman,serif" font-size="14.00">[Bool] OutputOnlyOnEnter (default = False) </text>
<polygon fill="none" stroke="black" points="879.5,-310.89 879.5,-333.39 1146.5,-333.39 1146.5,-310.89 879.5,-310.89"/>
<text text-anchor="start" x="993.88" y="-318.09" font-family="Times New Roman,serif" font-weight="bold" font-size="14.00">Inputs</text>
<polygon fill="none" stroke="black" points="879.5,-289.14 879.5,-310.89 1146.5,-310.89 1146.5,-289.14 879.5,-289.14"/>
<text text-anchor="start" x="928.25" y="-294.59" font-family="Times New Roman,serif" font-size="14.00">[String] String (default = Idle) </text>
<polygon fill="none" stroke="black" points="879.5,-266.64 879.5,-289.14 1146.5,-289.14 1146.5,-266.64 879.5,-266.64"/>
<text text-anchor="start" x="988.62" y="-273.84" font-family="Times New Roman,serif" font-weight="bold" font-size="14.00">Outputs</text>
<polygon fill="none" stroke="black" points="879.5,-244.89 879.5,-266.64 1146.5,-266.64 1146.5,-244.89 879.5,-244.89"/>
<text text-anchor="start" x="882.5" y="-250.34" font-family="Times New Roman,serif" font-size="14.00">[const u32*] MurMur3Hash (default = nullptr) </text>
<polygon fill="none" stroke="black" points="878.5,-243.89 878.5,-422.89 1147.5,-422.89 1147.5,-243.89 878.5,-243.89"/>
</g>
<!-- 4424&#45;&gt;4421 -->
<g id="edge12" class="edge">
<title>4424:4462&#45;&gt;4421:4460</title>
<path fill="none" stroke="#008000" stroke-dasharray="5,2" d="M1013,-243.39C1013,-217.08 1004.24,-203.06 1023.5,-185.14 1051.09,-159.46 1166.93,-195.16 1192.12,-167.14 1203.95,-153.98 1204.61,-20.43 1192.12,-7.89 1185.43,-1.16 1043.83,2.9 1003.58,-3.05"/>
<polygon fill="#008000" stroke="#008000" points="1002.63,0.33 994.42,-6.37 1005.02,-6.25 1002.63,0.33"/>
<text text-anchor="middle" x="1039.75" y="-187.59" font-family="Times New Roman,serif" font-size="14.00" fill="#008000">Value</text>
</g>
<!-- 4465 -->
<g id="node14" class="node">
<title>4465</title>
<ellipse fill="mediumpurple" stroke="mediumpurple" cx="1680" cy="-853.64" rx="31.39" ry="18"/>
<text text-anchor="start" x="1665" y="-849.59" font-family="Times New Roman,serif" font-weight="bold" font-size="14.00" fill="white">Root</text>
</g>
<!-- 4465&#45;&gt;4391 -->
<g id="edge13" class="edge">
<title>4465&#45;&gt;4391</title>
<path fill="none" stroke="black" d="M1680,-835.22C1680,-810.77 1680,-764.19 1680,-719.29"/>
<polygon fill="black" stroke="black" points="1683.5,-719.44 1680,-709.44 1676.5,-719.44 1683.5,-719.44"/>
</g>
</g>
</svg>
