<?xml version="1.0" encoding="UTF-8" standalone="no"?>
<!DOCTYPE svg PUBLIC "-//W3C//DTD SVG 1.1//EN"
 "http://www.w3.org/Graphics/SVG/1.1/DTD/svg11.dtd">
<!-- Generated by graphviz version 9.0.0 (20230911.1827)
 -->
<!-- Title: CloseAppMenuOverlay.module Pages: 1 -->
<svg width="1699pt" height="1281pt"
 viewBox="0.00 0.00 1699.25 1281.00" xmlns="http://www.w3.org/2000/svg" xmlns:xlink="http://www.w3.org/1999/xlink">
<g id="graph0" class="graph" transform="scale(1 1) rotate(0) translate(4 1277)">
<title>CloseAppMenuOverlay.module</title>
<polygon fill="lightgray" stroke="none" points="-4,4 -4,-1277 1695.25,-1277 1695.25,4 -4,4"/>
<!-- 5071 -->
<g id="node1" class="node">
<title>5071</title>
<polygon fill="none" stroke="black" stroke-width="2" points="831.62,-1200 545.12,-1200 545.12,-992.75 831.62,-992.75 831.62,-1200"/>
<polygon fill="none" stroke="black" points="554.12,-1172.5 554.12,-1195 822.62,-1195 822.62,-1172.5 554.12,-1172.5"/>
<text text-anchor="start" x="617.5" y="-1179.7" font-family="Times New Roman,serif" font-weight="bold" font-size="14.00">Element_Sequential (4)</text>
<polygon fill="none" stroke="black" points="554.12,-1150 554.12,-1172.5 822.62,-1172.5 822.62,-1150 554.12,-1150"/>
<text text-anchor="start" x="656.5" y="-1157.2" font-family="Times New Roman,serif" font-weight="bold" font-size="14.00">Properties</text>
<polygon fill="none" stroke="black" points="554.12,-1128.25 554.12,-1150 822.62,-1150 822.62,-1128.25 554.12,-1128.25"/>
<text text-anchor="start" x="604.38" y="-1133.7" font-family="Times New Roman,serif" font-size="14.00">[Int] BusyPolicy (default = 0) </text>
<polygon fill="none" stroke="black" points="554.12,-1106.5 554.12,-1128.25 822.62,-1128.25 822.62,-1106.5 554.12,-1106.5"/>
<text text-anchor="start" x="607.38" y="-1111.95" font-family="Times New Roman,serif" font-size="14.00">[Int] NumLoop (default = 0) </text>
<polygon fill="none" stroke="black" points="554.12,-1084.75 554.12,-1106.5 822.62,-1106.5 822.62,-1084.75 554.12,-1084.75"/>
<text text-anchor="start" x="606.62" y="-1090.2" font-family="Times New Roman,serif" font-size="14.00">[Int] PlayPolicy (default = 0) </text>
<polygon fill="none" stroke="black" points="554.12,-1063 554.12,-1084.75 822.62,-1084.75 822.62,-1063 554.12,-1063"/>
<text text-anchor="start" x="601" y="-1068.45" font-family="Times New Roman,serif" font-size="14.00">[Int] ResultPolicy (default = 0) </text>
<polygon fill="none" stroke="black" points="554.12,-1041.25 554.12,-1063 822.62,-1063 822.62,-1041.25 554.12,-1041.25"/>
<text text-anchor="start" x="581.88" y="-1046.7" font-family="Times New Roman,serif" font-size="14.00">[Bool] IsDelayJudge (default = False) </text>
<polygon fill="none" stroke="black" points="554.12,-1019.5 554.12,-1041.25 822.62,-1041.25 822.62,-1019.5 554.12,-1019.5"/>
<text text-anchor="start" x="598.38" y="-1024.95" font-family="Times New Roman,serif" font-size="14.00">[Bool] IsLoop (default = False) </text>
<polygon fill="none" stroke="black" points="554.12,-997.75 554.12,-1019.5 822.62,-1019.5 822.62,-997.75 554.12,-997.75"/>
<text text-anchor="start" x="557.12" y="-1003.2" font-family="Times New Roman,serif" font-size="14.00">[Bool] IsUpdateNextInFrame (default = False) </text>
<polygon fill="none" stroke="black" points="553.12,-996.75 553.12,-1196 823.62,-1196 823.62,-996.75 553.12,-996.75"/>
</g>
<!-- 5074 -->
<g id="node2" class="node">
<title>5074</title>
<polygon fill="none" stroke="black" stroke-width="2" points="623.75,-933.62 425,-933.62 425,-835.12 623.75,-835.12 623.75,-933.62"/>
<polygon fill="none" stroke="black" points="434,-906.12 434,-928.62 614.75,-928.62 614.75,-906.12 434,-906.12"/>
<text text-anchor="start" x="444.5" y="-913.33" font-family="Times New Roman,serif" font-weight="bold" font-size="14.00">Element_Simultaneous (0)</text>
<polygon fill="none" stroke="black" points="434,-883.62 434,-906.12 614.75,-906.12 614.75,-883.62 434,-883.62"/>
<text text-anchor="start" x="492.5" y="-890.83" font-family="Times New Roman,serif" font-weight="bold" font-size="14.00">Properties</text>
<polygon fill="none" stroke="black" points="434,-861.88 434,-883.62 614.75,-883.62 614.75,-861.88 434,-861.88"/>
<text text-anchor="start" x="443.38" y="-867.33" font-family="Times New Roman,serif" font-size="14.00">[Int] EndPolicy (default = 0) </text>
<polygon fill="none" stroke="black" points="434,-840.12 434,-861.88 614.75,-861.88 614.75,-840.12 434,-840.12"/>
<text text-anchor="start" x="437" y="-845.58" font-family="Times New Roman,serif" font-size="14.00">[Int] ResultPolicy (default = 0) </text>
<polygon fill="none" stroke="black" points="433,-839.12 433,-929.62 615.75,-929.62 615.75,-839.12 433,-839.12"/>
</g>
<!-- 5071&#45;&gt;5074 -->
<g id="edge1" class="edge">
<title>5071&#45;&gt;5074</title>
<path fill="none" stroke="firebrick" stroke-width="2" d="M608.06,-992.53C594.69,-975.41 581.27,-958.22 569.2,-942.78"/>
<polygon fill="firebrick" stroke="firebrick" stroke-width="2" points="573.05,-942.01 564.13,-936.28 567.53,-946.32 573.05,-942.01"/>
</g>
<!-- 5095 -->
<g id="node3" class="node">
<title>5095</title>
<polygon fill="none" stroke="black" stroke-width="2" points="1044.5,-955.75 694.25,-955.75 694.25,-813 1044.5,-813 1044.5,-955.75"/>
<polygon fill="none" stroke="black" points="703.25,-928.25 703.25,-950.75 1035.5,-950.75 1035.5,-928.25 703.25,-928.25"/>
<text text-anchor="start" x="752.38" y="-935.45" font-family="Times New Roman,serif" font-weight="bold" font-size="14.00">SeqSelectorScreenOpenCloseState (7)</text>
<polygon fill="none" stroke="black" points="703.25,-905.75 703.25,-928.25 1035.5,-928.25 1035.5,-905.75 703.25,-905.75"/>
<text text-anchor="start" x="837.5" y="-912.95" font-family="Times New Roman,serif" font-weight="bold" font-size="14.00">Properties</text>
<polygon fill="none" stroke="black" points="703.25,-884 703.25,-905.75 1035.5,-905.75 1035.5,-884 703.25,-884"/>
<text text-anchor="start" x="719.38" y="-889.45" font-family="Times New Roman,serif" font-size="14.00">[Bool] NoChangeWhenChildIsBusy (default = False) </text>
<polygon fill="none" stroke="black" points="703.25,-862.25 703.25,-884 1035.5,-884 1035.5,-862.25 703.25,-862.25"/>
<text text-anchor="start" x="731.38" y="-867.7" font-family="Times New Roman,serif" font-size="14.00">[Bool] SelectChildOnEnterOnly (default = False) </text>
<polygon fill="none" stroke="black" points="703.25,-839.75 703.25,-862.25 1035.5,-862.25 1035.5,-839.75 703.25,-839.75"/>
<text text-anchor="start" x="850.25" y="-846.95" font-family="Times New Roman,serif" font-weight="bold" font-size="14.00">Inputs</text>
<polygon fill="none" stroke="black" points="703.25,-818 703.25,-839.75 1035.5,-839.75 1035.5,-818 703.25,-818"/>
<text text-anchor="start" x="706.25" y="-823.45" font-family="Times New Roman,serif" font-size="14.00">[String] ScreenName (default = InstantTipsAppMenu_00) </text>
<polygon fill="none" stroke="black" points="702.25,-817 702.25,-951.75 1036.5,-951.75 1036.5,-817 702.25,-817"/>
</g>
<!-- 5071&#45;&gt;5095 -->
<g id="edge2" class="edge">
<title>5071&#45;&gt;5095</title>
<path fill="none" stroke="firebrick" stroke-width="2" d="M777.02,-992.53C785.1,-983.16 793.19,-973.76 801.05,-964.64"/>
<polygon fill="firebrick" stroke="firebrick" stroke-width="2" points="802.65,-968.15 806.53,-958.29 797.35,-963.58 802.65,-968.15"/>
</g>
<!-- 5077 -->
<g id="node4" class="node">
<title>5077</title>
<polygon fill="none" stroke="black" stroke-width="2" points="330.75,-761.25 0,-761.25 0,-618.5 330.75,-618.5 330.75,-761.25"/>
<polygon fill="none" stroke="black" points="9,-733.75 9,-756.25 321.75,-756.25 321.75,-733.75 9,-733.75"/>
<text text-anchor="start" x="79.12" y="-740.95" font-family="Times New Roman,serif" font-weight="bold" font-size="14.00">SeqOneShotCloseScreen (1)</text>
<polygon fill="none" stroke="black" points="9,-711.25 9,-733.75 321.75,-733.75 321.75,-711.25 9,-711.25"/>
<text text-anchor="start" x="133.5" y="-718.45" font-family="Times New Roman,serif" font-weight="bold" font-size="14.00">Properties</text>
<polygon fill="none" stroke="black" points="9,-689.5 9,-711.25 321.75,-711.25 321.75,-689.5 9,-689.5"/>
<text text-anchor="start" x="40.12" y="-694.95" font-family="Times New Roman,serif" font-size="14.00">[Bool] ExecuteEveryFrame (default = False) </text>
<polygon fill="none" stroke="black" points="9,-667 9,-689.5 321.75,-689.5 321.75,-667 9,-667"/>
<text text-anchor="start" x="146.25" y="-674.2" font-family="Times New Roman,serif" font-weight="bold" font-size="14.00">Inputs</text>
<polygon fill="none" stroke="black" points="9,-645.25 9,-667 321.75,-667 321.75,-645.25 9,-645.25"/>
<text text-anchor="start" x="73.88" y="-650.7" font-family="Times New Roman,serif" font-size="14.00">[Bool] IsDirect (default = False) </text>
<polygon fill="none" stroke="black" points="9,-623.5 9,-645.25 321.75,-645.25 321.75,-623.5 9,-623.5"/>
<text text-anchor="start" x="12" y="-628.95" font-family="Times New Roman,serif" font-size="14.00">[String] ScreenName (default = AppMenuOverlay_00) </text>
<polygon fill="none" stroke="black" points="8,-622.5 8,-757.25 322.75,-757.25 322.75,-622.5 8,-622.5"/>
</g>
<!-- 5074&#45;&gt;5077 -->
<g id="edge3" class="edge">
<title>5074&#45;&gt;5077</title>
<path fill="none" stroke="firebrick" stroke-width="2" d="M433.78,-834.8C395.44,-814.24 349.84,-789.79 307.22,-766.93"/>
<polygon fill="firebrick" stroke="firebrick" stroke-width="2" points="310.45,-764.7 299.98,-763.05 307.14,-770.86 310.45,-764.7"/>
</g>
<!-- 5080 -->
<g id="node5" class="node">
<title>5080</title>
<polygon fill="none" stroke="black" stroke-width="2" points="699.5,-761.25 349.25,-761.25 349.25,-618.5 699.5,-618.5 699.5,-761.25"/>
<polygon fill="none" stroke="black" points="358.25,-733.75 358.25,-756.25 690.5,-756.25 690.5,-733.75 358.25,-733.75"/>
<text text-anchor="start" x="407.38" y="-740.95" font-family="Times New Roman,serif" font-weight="bold" font-size="14.00">SeqSelectorScreenOpenCloseState (5)</text>
<polygon fill="none" stroke="black" points="358.25,-711.25 358.25,-733.75 690.5,-733.75 690.5,-711.25 358.25,-711.25"/>
<text text-anchor="start" x="492.5" y="-718.45" font-family="Times New Roman,serif" font-weight="bold" font-size="14.00">Properties</text>
<polygon fill="none" stroke="black" points="358.25,-689.5 358.25,-711.25 690.5,-711.25 690.5,-689.5 358.25,-689.5"/>
<text text-anchor="start" x="374.38" y="-694.95" font-family="Times New Roman,serif" font-size="14.00">[Bool] NoChangeWhenChildIsBusy (default = False) </text>
<polygon fill="none" stroke="black" points="358.25,-667.75 358.25,-689.5 690.5,-689.5 690.5,-667.75 358.25,-667.75"/>
<text text-anchor="start" x="386.38" y="-673.2" font-family="Times New Roman,serif" font-size="14.00">[Bool] SelectChildOnEnterOnly (default = False) </text>
<polygon fill="none" stroke="black" points="358.25,-645.25 358.25,-667.75 690.5,-667.75 690.5,-645.25 358.25,-645.25"/>
<text text-anchor="start" x="505.25" y="-652.45" font-family="Times New Roman,serif" font-weight="bold" font-size="14.00">Inputs</text>
<polygon fill="none" stroke="black" points="358.25,-623.5 358.25,-645.25 690.5,-645.25 690.5,-623.5 358.25,-623.5"/>
<text text-anchor="start" x="361.25" y="-628.95" font-family="Times New Roman,serif" font-size="14.00">[String] ScreenName (default = InstantTipsAppMenu_00) </text>
<polygon fill="none" stroke="black" points="357.25,-622.5 357.25,-757.25 691.5,-757.25 691.5,-622.5 357.25,-622.5"/>
</g>
<!-- 5074&#45;&gt;5080 -->
<g id="edge4" class="edge">
<title>5074&#45;&gt;5080</title>
<path fill="none" stroke="firebrick" stroke-width="2" d="M524.38,-834.8C524.38,-816.01 524.38,-793.98 524.38,-772.88"/>
<polygon fill="firebrick" stroke="firebrick" stroke-width="2" points="527.88,-774.65 524.38,-764.65 520.88,-774.65 527.88,-774.65"/>
</g>
<!-- 5098 -->
<g id="node10" class="node">
<title>5098</title>
<polygon fill="none" stroke="black" stroke-width="2" points="991.62,-728.25 717.12,-728.25 717.12,-651.5 991.62,-651.5 991.62,-728.25"/>
<polygon fill="none" stroke="black" points="726.12,-700.75 726.12,-723.25 982.62,-723.25 982.62,-700.75 726.12,-700.75"/>
<text text-anchor="start" x="794" y="-707.95" font-family="Times New Roman,serif" font-weight="bold" font-size="14.00">SeqOneShotEnd (8)</text>
<polygon fill="none" stroke="black" points="726.12,-678.25 726.12,-700.75 982.62,-700.75 982.62,-678.25 726.12,-678.25"/>
<text text-anchor="start" x="822.5" y="-685.45" font-family="Times New Roman,serif" font-weight="bold" font-size="14.00">Properties</text>
<polygon fill="none" stroke="black" points="726.12,-656.5 726.12,-678.25 982.62,-678.25 982.62,-656.5 726.12,-656.5"/>
<text text-anchor="start" x="729.12" y="-661.95" font-family="Times New Roman,serif" font-size="14.00">[Bool] ExecuteEveryFrame (default = False) </text>
<polygon fill="none" stroke="black" points="725.12,-655.5 725.12,-724.25 983.62,-724.25 983.62,-655.5 725.12,-655.5"/>
</g>
<!-- 5095&#45;&gt;5098 -->
<g id="edge11" class="edge">
<title>5095&#45;&gt;5098</title>
<path fill="none" stroke="firebrick" stroke-width="2" d="M763.13,-812.53C758.92,-807 755.2,-801.16 752.12,-795 741.05,-772.78 753.44,-752.31 772.95,-735.51"/>
<polygon fill="firebrick" stroke="firebrick" stroke-width="2" points="773.69,-739.4 779.33,-730.43 769.33,-733.92 773.69,-739.4"/>
<text text-anchor="middle" x="776" y="-781.7" font-family="Times New Roman,serif" font-size="14.00" fill="firebrick">Opening</text>
</g>
<!-- 5095&#45;&gt;5098 -->
<g id="edge12" class="edge">
<title>5095&#45;&gt;5098</title>
<path fill="none" stroke="firebrick" stroke-width="2" d="M828.28,-812.69C826.03,-806.83 824.09,-800.9 822.62,-795 818.06,-776.62 821.94,-756.68 828.34,-739.21"/>
<polygon fill="firebrick" stroke="firebrick" stroke-width="2" points="830.96,-742.08 831.47,-731.49 824.47,-739.45 830.96,-742.08"/>
<text text-anchor="middle" x="844.75" y="-781.7" font-family="Times New Roman,serif" font-size="14.00" fill="firebrick">Closing</text>
</g>
<!-- 5095&#45;&gt;5098 -->
<g id="edge13" class="edge">
<title>5095&#45;&gt;5098</title>
<path fill="none" stroke="firebrick" stroke-width="2" d="M867.48,-812.75C866.94,-801.54 866.25,-790.07 865.38,-779.25 864.34,-766.51 862.82,-752.78 861.25,-740.03"/>
<polygon fill="firebrick" stroke="firebrick" stroke-width="2" points="864.92,-741.13 860.18,-731.65 857.97,-742.01 864.92,-741.13"/>
<text text-anchor="middle" x="889.5" y="-781.7" font-family="Times New Roman,serif" font-size="14.00" fill="firebrick">Opened</text>
</g>
<!-- 5101 -->
<g id="node11" class="node">
<title>5101</title>
<polygon fill="none" stroke="black" stroke-width="2" points="1284.62,-728.25 1010.12,-728.25 1010.12,-651.5 1284.62,-651.5 1284.62,-728.25"/>
<polygon fill="none" stroke="black" points="1019.12,-700.75 1019.12,-723.25 1275.62,-723.25 1275.62,-700.75 1019.12,-700.75"/>
<text text-anchor="start" x="1087" y="-707.95" font-family="Times New Roman,serif" font-weight="bold" font-size="14.00">SeqOneShotEnd (9)</text>
<polygon fill="none" stroke="black" points="1019.12,-678.25 1019.12,-700.75 1275.62,-700.75 1275.62,-678.25 1019.12,-678.25"/>
<text text-anchor="start" x="1115.5" y="-685.45" font-family="Times New Roman,serif" font-weight="bold" font-size="14.00">Properties</text>
<polygon fill="none" stroke="black" points="1019.12,-656.5 1019.12,-678.25 1275.62,-678.25 1275.62,-656.5 1019.12,-656.5"/>
<text text-anchor="start" x="1022.12" y="-661.95" font-family="Times New Roman,serif" font-size="14.00">[Bool] ExecuteEveryFrame (default = False) </text>
<polygon fill="none" stroke="black" points="1018.12,-655.5 1018.12,-724.25 1276.62,-724.25 1276.62,-655.5 1018.12,-655.5"/>
</g>
<!-- 5095&#45;&gt;5101 -->
<g id="edge14" class="edge">
<title>5095&#45;&gt;5101</title>
<path fill="none" stroke="firebrick" stroke-width="2" d="M971.71,-812.52C1009.21,-786.55 1050.54,-757.92 1083.69,-734.97"/>
<polygon fill="firebrick" stroke="firebrick" stroke-width="2" points="1084.1,-738.95 1090.33,-730.38 1080.11,-733.19 1084.1,-738.95"/>
<text text-anchor="middle" x="1037.25" y="-781.7" font-family="Times New Roman,serif" font-size="14.00" fill="firebrick">Closed</text>
</g>
<!-- 5083 -->
<g id="node6" class="node">
<title>5083</title>
<polygon fill="none" stroke="black" stroke-width="2" points="475.75,-512.38 277,-512.38 277,-413.88 475.75,-413.88 475.75,-512.38"/>
<polygon fill="none" stroke="black" points="286,-484.88 286,-507.38 466.75,-507.38 466.75,-484.88 286,-484.88"/>
<text text-anchor="start" x="292.75" y="-492.07" font-family="Times New Roman,serif" font-weight="bold" font-size="14.00">Element_Simultaneous (13)</text>
<polygon fill="none" stroke="black" points="286,-462.38 286,-484.88 466.75,-484.88 466.75,-462.38 286,-462.38"/>
<text text-anchor="start" x="344.5" y="-469.57" font-family="Times New Roman,serif" font-weight="bold" font-size="14.00">Properties</text>
<polygon fill="none" stroke="black" points="286,-440.62 286,-462.38 466.75,-462.38 466.75,-440.62 286,-440.62"/>
<text text-anchor="start" x="295.38" y="-446.07" font-family="Times New Roman,serif" font-size="14.00">[Int] EndPolicy (default = 0) </text>
<polygon fill="none" stroke="black" points="286,-418.88 286,-440.62 466.75,-440.62 466.75,-418.88 286,-418.88"/>
<text text-anchor="start" x="289" y="-424.32" font-family="Times New Roman,serif" font-size="14.00">[Int] ResultPolicy (default = 0) </text>
<polygon fill="none" stroke="black" points="285,-417.88 285,-508.38 467.75,-508.38 467.75,-417.88 285,-417.88"/>
</g>
<!-- 5080&#45;&gt;5083 -->
<g id="edge5" class="edge">
<title>5080&#45;&gt;5083</title>
<path fill="none" stroke="firebrick" stroke-width="2" d="M431.73,-618.15C426.77,-612.49 422.18,-606.59 418.12,-600.5 402.89,-577.6 393.02,-548.91 386.72,-523.75"/>
<polygon fill="firebrick" stroke="firebrick" stroke-width="2" points="390.55,-524.72 384.85,-515.79 383.73,-526.33 390.55,-524.72"/>
<text text-anchor="middle" x="442" y="-587.2" font-family="Times New Roman,serif" font-size="14.00" fill="firebrick">Opening</text>
</g>
<!-- 5080&#45;&gt;5083 -->
<g id="edge6" class="edge">
<title>5080&#45;&gt;5083</title>
<path fill="none" stroke="firebrick" stroke-width="2" d="M485.84,-618.18C479.24,-606.86 472.27,-595.38 465.38,-584.75 451.74,-563.74 435.78,-541.47 421.16,-521.87"/>
<polygon fill="firebrick" stroke="firebrick" stroke-width="2" points="424.95,-521.09 416.15,-515.19 419.35,-525.29 424.95,-521.09"/>
<text text-anchor="middle" x="496.5" y="-587.2" font-family="Times New Roman,serif" font-size="14.00" fill="firebrick">Opened</text>
</g>
<!-- 5092 -->
<g id="node7" class="node">
<title>5092</title>
<polygon fill="none" stroke="black" stroke-width="2" points="768.62,-501.5 494.12,-501.5 494.12,-424.75 768.62,-424.75 768.62,-501.5"/>
<polygon fill="none" stroke="black" points="503.12,-474 503.12,-496.5 759.62,-496.5 759.62,-474 503.12,-474"/>
<text text-anchor="start" x="571" y="-481.2" font-family="Times New Roman,serif" font-weight="bold" font-size="14.00">SeqOneShotEnd (6)</text>
<polygon fill="none" stroke="black" points="503.12,-451.5 503.12,-474 759.62,-474 759.62,-451.5 503.12,-451.5"/>
<text text-anchor="start" x="599.5" y="-458.7" font-family="Times New Roman,serif" font-weight="bold" font-size="14.00">Properties</text>
<polygon fill="none" stroke="black" points="503.12,-429.75 503.12,-451.5 759.62,-451.5 759.62,-429.75 503.12,-429.75"/>
<text text-anchor="start" x="506.12" y="-435.2" font-family="Times New Roman,serif" font-size="14.00">[Bool] ExecuteEveryFrame (default = False) </text>
<polygon fill="none" stroke="black" points="502.12,-428.75 502.12,-497.5 760.62,-497.5 760.62,-428.75 502.12,-428.75"/>
</g>
<!-- 5080&#45;&gt;5092 -->
<g id="edge7" class="edge">
<title>5080&#45;&gt;5092</title>
<path fill="none" stroke="firebrick" stroke-width="2" d="M551.88,-618.14C556.6,-606.88 561.61,-595.43 566.62,-584.75 578.09,-560.33 592.12,-533.84 604.19,-511.93"/>
<polygon fill="firebrick" stroke="firebrick" stroke-width="2" points="606.5,-514.98 608.29,-504.54 600.38,-511.59 606.5,-514.98"/>
<text text-anchor="middle" x="587.25" y="-587.2" font-family="Times New Roman,serif" font-size="14.00" fill="firebrick">Closed</text>
</g>
<!-- 5080&#45;&gt;5092 -->
<g id="edge8" class="edge">
<title>5080&#45;&gt;5092</title>
<path fill="none" stroke="firebrick" stroke-width="2" d="M595.96,-618.05C599.84,-612.36 603.37,-606.49 606.38,-600.5 619.97,-573.39 626.23,-539.93 629.1,-512.93"/>
<polygon fill="firebrick" stroke="firebrick" stroke-width="2" points="632.41,-515.09 629.85,-504.81 625.44,-514.45 632.41,-515.09"/>
<text text-anchor="middle" x="634.75" y="-587.2" font-family="Times New Roman,serif" font-size="14.00" fill="firebrick">Closing</text>
</g>
<!-- 5086 -->
<g id="node8" class="node">
<title>5086</title>
<polygon fill="none" stroke="black" stroke-width="2" points="371.5,-322.5 21.25,-322.5 21.25,-179.75 371.5,-179.75 371.5,-322.5"/>
<polygon fill="none" stroke="black" points="30.25,-295 30.25,-317.5 362.5,-317.5 362.5,-295 30.25,-295"/>
<text text-anchor="start" x="110.12" y="-302.2" font-family="Times New Roman,serif" font-weight="bold" font-size="14.00">SeqOneShotCloseScreen (3)</text>
<polygon fill="none" stroke="black" points="30.25,-272.5 30.25,-295 362.5,-295 362.5,-272.5 30.25,-272.5"/>
<text text-anchor="start" x="164.5" y="-279.7" font-family="Times New Roman,serif" font-weight="bold" font-size="14.00">Properties</text>
<polygon fill="none" stroke="black" points="30.25,-250.75 30.25,-272.5 362.5,-272.5 362.5,-250.75 30.25,-250.75"/>
<text text-anchor="start" x="71.12" y="-256.2" font-family="Times New Roman,serif" font-size="14.00">[Bool] ExecuteEveryFrame (default = False) </text>
<polygon fill="none" stroke="black" points="30.25,-228.25 30.25,-250.75 362.5,-250.75 362.5,-228.25 30.25,-228.25"/>
<text text-anchor="start" x="177.25" y="-235.45" font-family="Times New Roman,serif" font-weight="bold" font-size="14.00">Inputs</text>
<polygon fill="none" stroke="black" points="30.25,-206.5 30.25,-228.25 362.5,-228.25 362.5,-206.5 30.25,-206.5"/>
<text text-anchor="start" x="106.38" y="-211.95" font-family="Times New Roman,serif" font-size="14.00">[Bool] IsDirect (default = True) </text>
<polygon fill="none" stroke="black" points="30.25,-184.75 30.25,-206.5 362.5,-206.5 362.5,-184.75 30.25,-184.75"/>
<text text-anchor="start" x="33.25" y="-190.2" font-family="Times New Roman,serif" font-size="14.00">[String] ScreenName (default = InstantTipsAppMenu_00) </text>
<polygon fill="none" stroke="black" points="29.25,-183.75 29.25,-318.5 363.5,-318.5 363.5,-183.75 29.25,-183.75"/>
</g>
<!-- 5083&#45;&gt;5086 -->
<g id="edge9" class="edge">
<title>5083&#45;&gt;5086</title>
<path fill="none" stroke="firebrick" stroke-width="2" d="M334.63,-413.42C313.73,-389.04 287.91,-358.92 264.26,-331.33"/>
<polygon fill="firebrick" stroke="firebrick" stroke-width="2" points="268.14,-330.47 258.97,-325.15 262.82,-335.02 268.14,-330.47"/>
</g>
<!-- 5089 -->
<g id="node9" class="node">
<title>5089</title>
<polygon fill="none" stroke="black" stroke-width="2" points="723.25,-311.62 389.5,-311.62 389.5,-190.62 723.25,-190.62 723.25,-311.62"/>
<polygon fill="none" stroke="black" points="398.5,-284.12 398.5,-306.62 714.25,-306.62 714.25,-284.12 398.5,-284.12"/>
<text text-anchor="start" x="401.5" y="-291.32" font-family="Times New Roman,serif" font-weight="bold" font-size="14.00">SeqOneShotSetInstantTipsRequestAcceptable (12)</text>
<polygon fill="none" stroke="black" points="398.5,-261.62 398.5,-284.12 714.25,-284.12 714.25,-261.62 398.5,-261.62"/>
<text text-anchor="start" x="524.5" y="-268.82" font-family="Times New Roman,serif" font-weight="bold" font-size="14.00">Properties</text>
<polygon fill="none" stroke="black" points="398.5,-239.88 398.5,-261.62 714.25,-261.62 714.25,-239.88 398.5,-239.88"/>
<text text-anchor="start" x="431.12" y="-245.32" font-family="Times New Roman,serif" font-size="14.00">[Bool] ExecuteEveryFrame (default = False) </text>
<polygon fill="none" stroke="black" points="398.5,-217.38 398.5,-239.88 714.25,-239.88 714.25,-217.38 398.5,-217.38"/>
<text text-anchor="start" x="537.25" y="-224.57" font-family="Times New Roman,serif" font-weight="bold" font-size="14.00">Inputs</text>
<polygon fill="none" stroke="black" points="398.5,-195.62 398.5,-217.38 714.25,-217.38 714.25,-195.62 398.5,-195.62"/>
<text text-anchor="start" x="427.38" y="-201.07" font-family="Times New Roman,serif" font-size="14.00">[Bool] IsRequestAcceptable (default = False) </text>
<polygon fill="none" stroke="black" points="397.5,-194.62 397.5,-307.62 715.25,-307.62 715.25,-194.62 397.5,-194.62"/>
</g>
<!-- 5083&#45;&gt;5089 -->
<g id="edge10" class="edge">
<title>5083&#45;&gt;5089</title>
<path fill="none" stroke="firebrick" stroke-width="2" d="M418.12,-413.42C441.86,-385.73 471.94,-350.63 497.99,-320.25"/>
<polygon fill="firebrick" stroke="firebrick" stroke-width="2" points="499.4,-323.98 503.25,-314.11 494.08,-319.42 499.4,-323.98"/>
</g>
<!-- 5098&#45;&gt;5095 -->
<g id="edge15" class="edge">
<title>5098&#45;&gt;5095</title>
<path fill="none" stroke="midnightblue" stroke-width="2" d="M887.9,-728.63C898.88,-743.38 909.72,-761.1 915.38,-779.25 917.64,-786.52 918.18,-793.95 917.47,-801.35"/>
<polygon fill="midnightblue" stroke="midnightblue" stroke-width="2" points="914.32,-799.06 916.01,-809.52 921.21,-800.29 914.32,-799.06"/>
<text text-anchor="middle" x="946.5" y="-781.7" font-family="Times New Roman,serif" font-size="14.00" fill="midnightblue">Transition</text>
</g>
<!-- 5104 -->
<g id="node12" class="node">
<title>5104</title>
<polygon fill="none" stroke="black" stroke-width="2" points="1290.62,-566.75 1004.12,-566.75 1004.12,-359.5 1290.62,-359.5 1290.62,-566.75"/>
<polygon fill="none" stroke="black" points="1013.12,-539.25 1013.12,-561.75 1281.62,-561.75 1281.62,-539.25 1013.12,-539.25"/>
<text text-anchor="start" x="1072.75" y="-546.45" font-family="Times New Roman,serif" font-weight="bold" font-size="14.00">Element_Sequential (10)</text>
<polygon fill="none" stroke="black" points="1013.12,-516.75 1013.12,-539.25 1281.62,-539.25 1281.62,-516.75 1013.12,-516.75"/>
<text text-anchor="start" x="1115.5" y="-523.95" font-family="Times New Roman,serif" font-weight="bold" font-size="14.00">Properties</text>
<polygon fill="none" stroke="black" points="1013.12,-495 1013.12,-516.75 1281.62,-516.75 1281.62,-495 1013.12,-495"/>
<text text-anchor="start" x="1063.38" y="-500.45" font-family="Times New Roman,serif" font-size="14.00">[Int] BusyPolicy (default = 0) </text>
<polygon fill="none" stroke="black" points="1013.12,-473.25 1013.12,-495 1281.62,-495 1281.62,-473.25 1013.12,-473.25"/>
<text text-anchor="start" x="1066.38" y="-478.7" font-family="Times New Roman,serif" font-size="14.00">[Int] NumLoop (default = 0) </text>
<polygon fill="none" stroke="black" points="1013.12,-451.5 1013.12,-473.25 1281.62,-473.25 1281.62,-451.5 1013.12,-451.5"/>
<text text-anchor="start" x="1065.62" y="-456.95" font-family="Times New Roman,serif" font-size="14.00">[Int] PlayPolicy (default = 0) </text>
<polygon fill="none" stroke="black" points="1013.12,-429.75 1013.12,-451.5 1281.62,-451.5 1281.62,-429.75 1013.12,-429.75"/>
<text text-anchor="start" x="1060" y="-435.2" font-family="Times New Roman,serif" font-size="14.00">[Int] ResultPolicy (default = 0) </text>
<polygon fill="none" stroke="black" points="1013.12,-408 1013.12,-429.75 1281.62,-429.75 1281.62,-408 1013.12,-408"/>
<text text-anchor="start" x="1040.88" y="-413.45" font-family="Times New Roman,serif" font-size="14.00">[Bool] IsDelayJudge (default = False) </text>
<polygon fill="none" stroke="black" points="1013.12,-386.25 1013.12,-408 1281.62,-408 1281.62,-386.25 1013.12,-386.25"/>
<text text-anchor="start" x="1057.38" y="-391.7" font-family="Times New Roman,serif" font-size="14.00">[Bool] IsLoop (default = False) </text>
<polygon fill="none" stroke="black" points="1013.12,-364.5 1013.12,-386.25 1281.62,-386.25 1281.62,-364.5 1013.12,-364.5"/>
<text text-anchor="start" x="1016.12" y="-369.95" font-family="Times New Roman,serif" font-size="14.00">[Bool] IsUpdateNextInFrame (default = False) </text>
<polygon fill="none" stroke="black" points="1012.12,-363.5 1012.12,-562.75 1282.62,-562.75 1282.62,-363.5 1012.12,-363.5"/>
</g>
<!-- 5101&#45;&gt;5104 -->
<g id="edge16" class="edge">
<title>5101&#45;&gt;5104</title>
<path fill="none" stroke="midnightblue" stroke-width="2" d="M1147.38,-651C1147.38,-630.75 1147.38,-604.63 1147.38,-578.37"/>
<polygon fill="midnightblue" stroke="midnightblue" stroke-width="2" points="1150.88,-580.15 1147.38,-570.15 1143.88,-580.15 1150.88,-580.15"/>
<text text-anchor="middle" x="1175.5" y="-587.2" font-family="Times New Roman,serif" font-size="14.00" fill="midnightblue">Transition</text>
</g>
<!-- 5107 -->
<g id="node13" class="node">
<title>5107</title>
<polygon fill="none" stroke="black" stroke-width="2" points="1226.5,-289.5 984.25,-289.5 984.25,-212.75 1226.5,-212.75 1226.5,-289.5"/>
<polygon fill="none" stroke="black" points="993.25,-262 993.25,-284.5 1217.5,-284.5 1217.5,-262 993.25,-262"/>
<text text-anchor="start" x="996.25" y="-269.2" font-family="Times New Roman,serif" font-weight="bold" font-size="14.00">SeqExecuteGenericWaitFrame (11)</text>
<polygon fill="none" stroke="black" points="993.25,-239.5 993.25,-262 1217.5,-262 1217.5,-239.5 993.25,-239.5"/>
<text text-anchor="start" x="1073.5" y="-246.7" font-family="Times New Roman,serif" font-weight="bold" font-size="14.00">Properties</text>
<polygon fill="none" stroke="black" points="993.25,-217.75 993.25,-239.5 1217.5,-239.5 1217.5,-217.75 993.25,-217.75"/>
<text text-anchor="start" x="1035.62" y="-223.2" font-family="Times New Roman,serif" font-size="14.00">[Int] Frame (default = 1) </text>
<polygon fill="none" stroke="black" points="992.25,-216.75 992.25,-285.5 1218.5,-285.5 1218.5,-216.75 992.25,-216.75"/>
</g>
<!-- 5104&#45;&gt;5107 -->
<g id="edge17" class="edge">
<title>5104&#45;&gt;5107</title>
<path fill="none" stroke="firebrick" stroke-width="2" d="M1126.81,-359.28C1122.71,-338.82 1118.6,-318.25 1115.09,-300.68"/>
<polygon fill="firebrick" stroke="firebrick" stroke-width="2" points="1118.86,-301.69 1113.46,-292.57 1111.99,-303.06 1118.86,-301.69"/>
</g>
<!-- 5110 -->
<g id="node14" class="node">
<title>5110</title>
<polygon fill="none" stroke="black" stroke-width="2" points="1443.75,-300.38 1245,-300.38 1245,-201.88 1443.75,-201.88 1443.75,-300.38"/>
<polygon fill="none" stroke="black" points="1254,-272.88 1254,-295.38 1434.75,-295.38 1434.75,-272.88 1254,-272.88"/>
<text text-anchor="start" x="1260.75" y="-280.07" font-family="Times New Roman,serif" font-weight="bold" font-size="14.00">Element_Simultaneous (15)</text>
<polygon fill="none" stroke="black" points="1254,-250.38 1254,-272.88 1434.75,-272.88 1434.75,-250.38 1254,-250.38"/>
<text text-anchor="start" x="1312.5" y="-257.57" font-family="Times New Roman,serif" font-weight="bold" font-size="14.00">Properties</text>
<polygon fill="none" stroke="black" points="1254,-228.62 1254,-250.38 1434.75,-250.38 1434.75,-228.62 1254,-228.62"/>
<text text-anchor="start" x="1263.38" y="-234.07" font-family="Times New Roman,serif" font-size="14.00">[Int] EndPolicy (default = 0) </text>
<polygon fill="none" stroke="black" points="1254,-206.88 1254,-228.62 1434.75,-228.62 1434.75,-206.88 1254,-206.88"/>
<text text-anchor="start" x="1257" y="-212.32" font-family="Times New Roman,serif" font-size="14.00">[Int] ResultPolicy (default = 0) </text>
<polygon fill="none" stroke="black" points="1253,-205.88 1253,-296.38 1435.75,-296.38 1435.75,-205.88 1253,-205.88"/>
</g>
<!-- 5104&#45;&gt;5110 -->
<g id="edge18" class="edge">
<title>5104&#45;&gt;5110</title>
<path fill="none" stroke="firebrick" stroke-width="2" d="M1243.86,-359.28C1260.21,-341.84 1276.64,-324.33 1291.34,-308.66"/>
<polygon fill="firebrick" stroke="firebrick" stroke-width="2" points="1292.5,-312.54 1296.78,-302.86 1287.39,-307.75 1292.5,-312.54"/>
</g>
<!-- 5113 -->
<g id="node15" class="node">
<title>5113</title>
<polygon fill="none" stroke="black" stroke-width="2" points="1339.5,-142.75 989.25,-142.75 989.25,0 1339.5,0 1339.5,-142.75"/>
<polygon fill="none" stroke="black" points="998.25,-115.25 998.25,-137.75 1330.5,-137.75 1330.5,-115.25 998.25,-115.25"/>
<text text-anchor="start" x="1073.62" y="-122.45" font-family="Times New Roman,serif" font-weight="bold" font-size="14.00">SeqOneShotUnloadScreen (2)</text>
<polygon fill="none" stroke="black" points="998.25,-92.75 998.25,-115.25 1330.5,-115.25 1330.5,-92.75 998.25,-92.75"/>
<text text-anchor="start" x="1132.5" y="-99.95" font-family="Times New Roman,serif" font-weight="bold" font-size="14.00">Properties</text>
<polygon fill="none" stroke="black" points="998.25,-71 998.25,-92.75 1330.5,-92.75 1330.5,-71 998.25,-71"/>
<text text-anchor="start" x="1039.12" y="-76.45" font-family="Times New Roman,serif" font-size="14.00">[Bool] ExecuteEveryFrame (default = False) </text>
<polygon fill="none" stroke="black" points="998.25,-48.5 998.25,-71 1330.5,-71 1330.5,-48.5 998.25,-48.5"/>
<text text-anchor="start" x="1145.25" y="-55.7" font-family="Times New Roman,serif" font-weight="bold" font-size="14.00">Inputs</text>
<polygon fill="none" stroke="black" points="998.25,-26.75 998.25,-48.5 1330.5,-48.5 1330.5,-26.75 998.25,-26.75"/>
<text text-anchor="start" x="1046.62" y="-32.2" font-family="Times New Roman,serif" font-size="14.00">[Bool] IsUnloadRequest (default = False) </text>
<polygon fill="none" stroke="black" points="998.25,-5 998.25,-26.75 1330.5,-26.75 1330.5,-5 998.25,-5"/>
<text text-anchor="start" x="1001.25" y="-10.45" font-family="Times New Roman,serif" font-size="14.00">[String] ScreenName (default = InstantTipsAppMenu_00) </text>
<polygon fill="none" stroke="black" points="997.25,-4 997.25,-138.75 1331.5,-138.75 1331.5,-4 997.25,-4"/>
</g>
<!-- 5110&#45;&gt;5113 -->
<g id="edge19" class="edge">
<title>5110&#45;&gt;5113</title>
<path fill="none" stroke="firebrick" stroke-width="2" d="M1295.19,-201.55C1279.39,-185.95 1261.47,-168.25 1244.06,-151.07"/>
<polygon fill="firebrick" stroke="firebrick" stroke-width="2" points="1247.84,-149.88 1238.27,-145.34 1242.92,-154.86 1247.84,-149.88"/>
</g>
<!-- 5116 -->
<g id="node16" class="node">
<title>5116</title>
<polygon fill="none" stroke="black" stroke-width="2" points="1691.25,-131.88 1357.5,-131.88 1357.5,-10.88 1691.25,-10.88 1691.25,-131.88"/>
<polygon fill="none" stroke="black" points="1366.5,-104.38 1366.5,-126.88 1682.25,-126.88 1682.25,-104.38 1366.5,-104.38"/>
<text text-anchor="start" x="1369.5" y="-111.58" font-family="Times New Roman,serif" font-weight="bold" font-size="14.00">SeqOneShotSetInstantTipsRequestAcceptable (14)</text>
<polygon fill="none" stroke="black" points="1366.5,-81.88 1366.5,-104.38 1682.25,-104.38 1682.25,-81.88 1366.5,-81.88"/>
<text text-anchor="start" x="1492.5" y="-89.08" font-family="Times New Roman,serif" font-weight="bold" font-size="14.00">Properties</text>
<polygon fill="none" stroke="black" points="1366.5,-60.12 1366.5,-81.88 1682.25,-81.88 1682.25,-60.12 1366.5,-60.12"/>
<text text-anchor="start" x="1399.12" y="-65.58" font-family="Times New Roman,serif" font-size="14.00">[Bool] ExecuteEveryFrame (default = False) </text>
<polygon fill="none" stroke="black" points="1366.5,-37.62 1366.5,-60.12 1682.25,-60.12 1682.25,-37.62 1366.5,-37.62"/>
<text text-anchor="start" x="1505.25" y="-44.83" font-family="Times New Roman,serif" font-weight="bold" font-size="14.00">Inputs</text>
<polygon fill="none" stroke="black" points="1366.5,-15.88 1366.5,-37.62 1682.25,-37.62 1682.25,-15.88 1366.5,-15.88"/>
<text text-anchor="start" x="1396.88" y="-21.32" font-family="Times New Roman,serif" font-size="14.00">[Bool] IsRequestAcceptable (default = True) </text>
<polygon fill="none" stroke="black" points="1365.5,-14.88 1365.5,-127.88 1683.25,-127.88 1683.25,-14.88 1365.5,-14.88"/>
</g>
<!-- 5110&#45;&gt;5116 -->
<g id="edge20" class="edge">
<title>5110&#45;&gt;5116</title>
<path fill="none" stroke="firebrick" stroke-width="2" d="M1393.56,-201.55C1412.67,-182.68 1434.9,-160.73 1455.56,-140.33"/>
<polygon fill="firebrick" stroke="firebrick" stroke-width="2" points="1456.88,-143.95 1461.53,-134.43 1451.96,-138.97 1456.88,-143.95"/>
</g>
<!-- 5127 -->
<g id="node17" class="node">
<title>5127</title>
<ellipse fill="mediumpurple" stroke="mediumpurple" cx="688.38" cy="-1255" rx="31.39" ry="18"/>
<text text-anchor="start" x="673.38" y="-1250.95" font-family="Times New Roman,serif" font-weight="bold" font-size="14.00" fill="white">Root</text>
</g>
<!-- 5127&#45;&gt;5071 -->
<g id="edge21" class="edge">
<title>5127&#45;&gt;5071</title>
<path fill="none" stroke="black" d="M688.38,-1236.64C688.38,-1229.77 688.38,-1221.26 688.38,-1211.87"/>
<polygon fill="black" stroke="black" points="691.88,-1211.98 688.38,-1201.98 684.88,-1211.98 691.88,-1211.98"/>
</g>
</g>
</svg>
