<?xml version="1.0" encoding="UTF-8" standalone="no"?>
<!DOCTYPE svg PUBLIC "-//W3C//DTD SVG 1.1//EN"
 "http://www.w3.org/Graphics/SVG/1.1/DTD/svg11.dtd">
<!-- Generated by graphviz version 9.0.0 (20230911.1827)
 -->
<!-- Title: CloseTitle.module Pages: 1 -->
<svg width="1880pt" height="579pt"
 viewBox="0.00 0.00 1880.12 578.75" xmlns="http://www.w3.org/2000/svg" xmlns:xlink="http://www.w3.org/1999/xlink">
<g id="graph0" class="graph" transform="scale(1 1) rotate(0) translate(4 574.75)">
<title>CloseTitle.module</title>
<polygon fill="lightgray" stroke="none" points="-4,4 -4,-574.75 1876.12,-574.75 1876.12,4 -4,4"/>
<!-- 5369 -->
<g id="node1" class="node">
<title>5369</title>
<polygon fill="none" stroke="black" stroke-width="2" points="1108.5,-498.75 822,-498.75 822,-291.5 1108.5,-291.5 1108.5,-498.75"/>
<polygon fill="none" stroke="black" points="831,-471.25 831,-493.75 1099.5,-493.75 1099.5,-471.25 831,-471.25"/>
<text text-anchor="start" x="894.38" y="-478.45" font-family="Times New Roman,serif" font-weight="bold" font-size="14.00">Element_Sequential (0)</text>
<polygon fill="none" stroke="black" points="831,-448.75 831,-471.25 1099.5,-471.25 1099.5,-448.75 831,-448.75"/>
<text text-anchor="start" x="933.38" y="-455.95" font-family="Times New Roman,serif" font-weight="bold" font-size="14.00">Properties</text>
<polygon fill="none" stroke="black" points="831,-427 831,-448.75 1099.5,-448.75 1099.5,-427 831,-427"/>
<text text-anchor="start" x="881.25" y="-432.45" font-family="Times New Roman,serif" font-size="14.00">[Int] BusyPolicy (default = 0) </text>
<polygon fill="none" stroke="black" points="831,-405.25 831,-427 1099.5,-427 1099.5,-405.25 831,-405.25"/>
<text text-anchor="start" x="884.25" y="-410.7" font-family="Times New Roman,serif" font-size="14.00">[Int] NumLoop (default = 0) </text>
<polygon fill="none" stroke="black" points="831,-383.5 831,-405.25 1099.5,-405.25 1099.5,-383.5 831,-383.5"/>
<text text-anchor="start" x="883.5" y="-388.95" font-family="Times New Roman,serif" font-size="14.00">[Int] PlayPolicy (default = 0) </text>
<polygon fill="none" stroke="black" points="831,-361.75 831,-383.5 1099.5,-383.5 1099.5,-361.75 831,-361.75"/>
<text text-anchor="start" x="877.88" y="-367.2" font-family="Times New Roman,serif" font-size="14.00">[Int] ResultPolicy (default = 0) </text>
<polygon fill="none" stroke="black" points="831,-340 831,-361.75 1099.5,-361.75 1099.5,-340 831,-340"/>
<text text-anchor="start" x="858.75" y="-345.45" font-family="Times New Roman,serif" font-size="14.00">[Bool] IsDelayJudge (default = False) </text>
<polygon fill="none" stroke="black" points="831,-318.25 831,-340 1099.5,-340 1099.5,-318.25 831,-318.25"/>
<text text-anchor="start" x="875.25" y="-323.7" font-family="Times New Roman,serif" font-size="14.00">[Bool] IsLoop (default = False) </text>
<polygon fill="none" stroke="black" points="831,-296.5 831,-318.25 1099.5,-318.25 1099.5,-296.5 831,-296.5"/>
<text text-anchor="start" x="834" y="-301.95" font-family="Times New Roman,serif" font-size="14.00">[Bool] IsUpdateNextInFrame (default = False) </text>
<polygon fill="none" stroke="black" points="830,-295.5 830,-494.75 1100.5,-494.75 1100.5,-295.5 830,-295.5"/>
</g>
<!-- 5372 -->
<g id="node2" class="node">
<title>5372</title>
<polygon fill="none" stroke="black" stroke-width="2" points="1064.62,-255.5 865.88,-255.5 865.88,-157 1064.62,-157 1064.62,-255.5"/>
<polygon fill="none" stroke="black" points="874.88,-228 874.88,-250.5 1055.62,-250.5 1055.62,-228 874.88,-228"/>
<text text-anchor="start" x="885.38" y="-235.2" font-family="Times New Roman,serif" font-weight="bold" font-size="14.00">Element_Simultaneous (2)</text>
<polygon fill="none" stroke="black" points="874.88,-205.5 874.88,-228 1055.62,-228 1055.62,-205.5 874.88,-205.5"/>
<text text-anchor="start" x="933.38" y="-212.7" font-family="Times New Roman,serif" font-weight="bold" font-size="14.00">Properties</text>
<polygon fill="none" stroke="black" points="874.88,-183.75 874.88,-205.5 1055.62,-205.5 1055.62,-183.75 874.88,-183.75"/>
<text text-anchor="start" x="884.25" y="-189.2" font-family="Times New Roman,serif" font-size="14.00">[Int] EndPolicy (default = 0) </text>
<polygon fill="none" stroke="black" points="874.88,-162 874.88,-183.75 1055.62,-183.75 1055.62,-162 874.88,-162"/>
<text text-anchor="start" x="877.88" y="-167.45" font-family="Times New Roman,serif" font-size="14.00">[Int] ResultPolicy (default = 0) </text>
<polygon fill="none" stroke="black" points="873.88,-161 873.88,-251.5 1056.62,-251.5 1056.62,-161 873.88,-161"/>
</g>
<!-- 5369&#45;&gt;5372 -->
<g id="edge1" class="edge">
<title>5369&#45;&gt;5372</title>
<path fill="none" stroke="firebrick" stroke-width="2" d="M965.25,-291.12C965.25,-282.92 965.25,-274.81 965.25,-267.07"/>
<polygon fill="firebrick" stroke="firebrick" stroke-width="2" points="968.75,-268.64 965.25,-258.64 961.75,-268.64 968.75,-268.64"/>
</g>
<!-- 5375 -->
<g id="node3" class="node">
<title>5375</title>
<polygon fill="none" stroke="black" stroke-width="2" points="328.5,-109.75 0,-109.75 0,-11.25 328.5,-11.25 328.5,-109.75"/>
<polygon fill="none" stroke="black" points="9,-82.25 9,-104.75 319.5,-104.75 319.5,-82.25 9,-82.25"/>
<text text-anchor="start" x="46.12" y="-89.45" font-family="Times New Roman,serif" font-weight="bold" font-size="14.00">SeqExecuteCloseAndUnloadScreen (1)</text>
<polygon fill="none" stroke="black" points="9,-59.75 9,-82.25 319.5,-82.25 319.5,-59.75 9,-59.75"/>
<text text-anchor="start" x="145.12" y="-66.95" font-family="Times New Roman,serif" font-weight="bold" font-size="14.00">Inputs</text>
<polygon fill="none" stroke="black" points="9,-38 9,-59.75 319.5,-59.75 319.5,-38 9,-38"/>
<text text-anchor="start" x="46.5" y="-43.45" font-family="Times New Roman,serif" font-size="14.00">[Bool] IsUnloadRequest (default = False) </text>
<polygon fill="none" stroke="black" points="9,-16.25 9,-38 319.5,-38 319.5,-16.25 9,-16.25"/>
<text text-anchor="start" x="12" y="-21.7" font-family="Times New Roman,serif" font-size="14.00">[String] ScreenName (default = SystemSaveLoad_00) </text>
<polygon fill="none" stroke="black" points="8,-15.25 8,-105.75 320.5,-105.75 320.5,-15.25 8,-15.25"/>
</g>
<!-- 5372&#45;&gt;5375 -->
<g id="edge2" class="edge">
<title>5372&#45;&gt;5375</title>
<path fill="none" stroke="firebrick" stroke-width="2" d="M865.43,-197.99C740.61,-187.52 520.97,-164.47 337.25,-121 327.71,-118.74 317.95,-116.16 308.16,-113.37"/>
<polygon fill="firebrick" stroke="firebrick" stroke-width="2" points="310.61,-110.44 300.02,-110.99 308.64,-117.16 310.61,-110.44"/>
</g>
<!-- 5378 -->
<g id="node4" class="node">
<title>5378</title>
<polygon fill="none" stroke="black" stroke-width="2" points="666.38,-109.75 346.12,-109.75 346.12,-11.25 666.38,-11.25 666.38,-109.75"/>
<polygon fill="none" stroke="black" points="355.12,-82.25 355.12,-104.75 657.38,-104.75 657.38,-82.25 355.12,-82.25"/>
<text text-anchor="start" x="388.12" y="-89.45" font-family="Times New Roman,serif" font-weight="bold" font-size="14.00">SeqExecuteCloseAndUnloadScreen (3)</text>
<polygon fill="none" stroke="black" points="355.12,-59.75 355.12,-82.25 657.38,-82.25 657.38,-59.75 355.12,-59.75"/>
<text text-anchor="start" x="487.12" y="-66.95" font-family="Times New Roman,serif" font-weight="bold" font-size="14.00">Inputs</text>
<polygon fill="none" stroke="black" points="355.12,-38 355.12,-59.75 657.38,-59.75 657.38,-38 355.12,-38"/>
<text text-anchor="start" x="388.5" y="-43.45" font-family="Times New Roman,serif" font-size="14.00">[Bool] IsUnloadRequest (default = False) </text>
<polygon fill="none" stroke="black" points="355.12,-16.25 355.12,-38 657.38,-38 657.38,-16.25 355.12,-16.25"/>
<text text-anchor="start" x="358.12" y="-21.7" font-family="Times New Roman,serif" font-size="14.00">[String] ScreenName (default = SystemWindow_00) </text>
<polygon fill="none" stroke="black" points="354.12,-15.25 354.12,-105.75 658.38,-105.75 658.38,-15.25 354.12,-15.25"/>
</g>
<!-- 5372&#45;&gt;5378 -->
<g id="edge3" class="edge">
<title>5372&#45;&gt;5378</title>
<path fill="none" stroke="firebrick" stroke-width="2" d="M865.51,-177.76C809.38,-161.92 738.15,-141.19 675.25,-121 668.09,-118.7 660.77,-116.3 653.39,-113.85"/>
<polygon fill="firebrick" stroke="firebrick" stroke-width="2" points="656.01,-111.04 645.41,-111.18 653.78,-117.67 656.01,-111.04"/>
</g>
<!-- 5381 -->
<g id="node5" class="node">
<title>5381</title>
<polygon fill="none" stroke="black" stroke-width="2" points="944.38,-109.75 684.12,-109.75 684.12,-11.25 944.38,-11.25 944.38,-109.75"/>
<polygon fill="none" stroke="black" points="693.12,-82.25 693.12,-104.75 935.38,-104.75 935.38,-82.25 693.12,-82.25"/>
<text text-anchor="start" x="696.12" y="-89.45" font-family="Times New Roman,serif" font-weight="bold" font-size="14.00">SeqExecuteCloseAndUnloadScreen (4)</text>
<polygon fill="none" stroke="black" points="693.12,-59.75 693.12,-82.25 935.38,-82.25 935.38,-59.75 693.12,-59.75"/>
<text text-anchor="start" x="795.12" y="-66.95" font-family="Times New Roman,serif" font-weight="bold" font-size="14.00">Inputs</text>
<polygon fill="none" stroke="black" points="693.12,-38 693.12,-59.75 935.38,-59.75 935.38,-38 693.12,-38"/>
<text text-anchor="start" x="696.5" y="-43.45" font-family="Times New Roman,serif" font-size="14.00">[Bool] IsUnloadRequest (default = False) </text>
<polygon fill="none" stroke="black" points="693.12,-16.25 693.12,-38 935.38,-38 935.38,-16.25 693.12,-16.25"/>
<text text-anchor="start" x="698.38" y="-21.7" font-family="Times New Roman,serif" font-size="14.00">[String] ScreenName (default = Title_00) </text>
<polygon fill="none" stroke="black" points="692.12,-15.25 692.12,-105.75 936.38,-105.75 936.38,-15.25 692.12,-15.25"/>
</g>
<!-- 5372&#45;&gt;5381 -->
<g id="edge4" class="edge">
<title>5372&#45;&gt;5381</title>
<path fill="none" stroke="firebrick" stroke-width="2" d="M914.13,-156.58C901.09,-144.17 886.97,-130.73 873.56,-117.96"/>
<polygon fill="firebrick" stroke="firebrick" stroke-width="2" points="877.17,-116.56 867.51,-112.2 872.34,-121.63 877.17,-116.56"/>
</g>
<!-- 5384 -->
<g id="node6" class="node">
<title>5384</title>
<polygon fill="none" stroke="black" stroke-width="2" points="1269.62,-109.75 962.88,-109.75 962.88,-11.25 1269.62,-11.25 1269.62,-109.75"/>
<polygon fill="none" stroke="black" points="971.88,-82.25 971.88,-104.75 1260.62,-104.75 1260.62,-82.25 971.88,-82.25"/>
<text text-anchor="start" x="998.12" y="-89.45" font-family="Times New Roman,serif" font-weight="bold" font-size="14.00">SeqExecuteCloseAndUnloadScreen (5)</text>
<polygon fill="none" stroke="black" points="971.88,-59.75 971.88,-82.25 1260.62,-82.25 1260.62,-59.75 971.88,-59.75"/>
<text text-anchor="start" x="1097.12" y="-66.95" font-family="Times New Roman,serif" font-weight="bold" font-size="14.00">Inputs</text>
<polygon fill="none" stroke="black" points="971.88,-38 971.88,-59.75 1260.62,-59.75 1260.62,-38 971.88,-38"/>
<text text-anchor="start" x="998.5" y="-43.45" font-family="Times New Roman,serif" font-size="14.00">[Bool] IsUnloadRequest (default = False) </text>
<polygon fill="none" stroke="black" points="971.88,-16.25 971.88,-38 1260.62,-38 1260.62,-16.25 971.88,-16.25"/>
<text text-anchor="start" x="974.88" y="-21.7" font-family="Times New Roman,serif" font-size="14.00">[String] ScreenName (default = TitleMenuBG_00) </text>
<polygon fill="none" stroke="black" points="970.88,-15.25 970.88,-105.75 1261.62,-105.75 1261.62,-15.25 970.88,-15.25"/>
</g>
<!-- 5372&#45;&gt;5384 -->
<g id="edge5" class="edge">
<title>5372&#45;&gt;5384</title>
<path fill="none" stroke="firebrick" stroke-width="2" d="M1016.37,-156.58C1029.41,-144.17 1043.53,-130.73 1056.94,-117.96"/>
<polygon fill="firebrick" stroke="firebrick" stroke-width="2" points="1058.16,-121.63 1062.99,-112.2 1053.33,-116.56 1058.16,-121.63"/>
</g>
<!-- 5387 -->
<g id="node7" class="node">
<title>5387</title>
<polygon fill="none" stroke="black" stroke-width="2" points="1562.5,-121 1288,-121 1288,0 1562.5,0 1562.5,-121"/>
<polygon fill="none" stroke="black" points="1297,-93.5 1297,-116 1553.5,-116 1553.5,-93.5 1297,-93.5"/>
<text text-anchor="start" x="1310.88" y="-100.7" font-family="Times New Roman,serif" font-weight="bold" font-size="14.00">SeqOneShotSetDisableMainEvent (6)</text>
<polygon fill="none" stroke="black" points="1297,-71 1297,-93.5 1553.5,-93.5 1553.5,-71 1297,-71"/>
<text text-anchor="start" x="1393.38" y="-78.2" font-family="Times New Roman,serif" font-weight="bold" font-size="14.00">Properties</text>
<polygon fill="none" stroke="black" points="1297,-49.25 1297,-71 1553.5,-71 1553.5,-49.25 1297,-49.25"/>
<text text-anchor="start" x="1300" y="-54.7" font-family="Times New Roman,serif" font-size="14.00">[Bool] ExecuteEveryFrame (default = False) </text>
<polygon fill="none" stroke="black" points="1297,-26.75 1297,-49.25 1553.5,-49.25 1553.5,-26.75 1297,-26.75"/>
<text text-anchor="start" x="1406.12" y="-33.95" font-family="Times New Roman,serif" font-weight="bold" font-size="14.00">Inputs</text>
<polygon fill="none" stroke="black" points="1297,-5 1297,-26.75 1553.5,-26.75 1553.5,-5 1297,-5"/>
<text text-anchor="start" x="1331.5" y="-10.45" font-family="Times New Roman,serif" font-size="14.00">[Bool] IsDisable (default = True) </text>
<polygon fill="none" stroke="black" points="1296,-4 1296,-117 1554.5,-117 1554.5,-4 1296,-4"/>
</g>
<!-- 5372&#45;&gt;5387 -->
<g id="edge6" class="edge">
<title>5372&#45;&gt;5387</title>
<path fill="none" stroke="firebrick" stroke-width="2" d="M1064.85,-181.73C1124.03,-166.99 1200.59,-146.57 1276.95,-121.35"/>
<polygon fill="firebrick" stroke="firebrick" stroke-width="2" points="1276.47,-125.2 1284.85,-118.71 1274.26,-118.55 1276.47,-125.2"/>
</g>
<!-- 5390 -->
<g id="node8" class="node">
<title>5390</title>
<polygon fill="none" stroke="black" stroke-width="2" points="1872.12,-98.88 1580.38,-98.88 1580.38,-22.12 1872.12,-22.12 1872.12,-98.88"/>
<polygon fill="none" stroke="black" points="1589.38,-71.38 1589.38,-93.88 1863.12,-93.88 1863.12,-71.38 1589.38,-71.38"/>
<text text-anchor="start" x="1592.38" y="-78.58" font-family="Times New Roman,serif" font-weight="bold" font-size="14.00">SeqOneShotSendOptionDataPlayReport (7)</text>
<polygon fill="none" stroke="black" points="1589.38,-48.88 1589.38,-71.38 1863.12,-71.38 1863.12,-48.88 1589.38,-48.88"/>
<text text-anchor="start" x="1694.38" y="-56.08" font-family="Times New Roman,serif" font-weight="bold" font-size="14.00">Properties</text>
<polygon fill="none" stroke="black" points="1589.38,-27.12 1589.38,-48.88 1863.12,-48.88 1863.12,-27.12 1589.38,-27.12"/>
<text text-anchor="start" x="1601" y="-32.58" font-family="Times New Roman,serif" font-size="14.00">[Bool] ExecuteEveryFrame (default = False) </text>
<polygon fill="none" stroke="black" points="1588.38,-26.12 1588.38,-94.88 1864.12,-94.88 1864.12,-26.12 1588.38,-26.12"/>
</g>
<!-- 5372&#45;&gt;5390 -->
<g id="edge7" class="edge">
<title>5372&#45;&gt;5390</title>
<path fill="none" stroke="firebrick" stroke-width="2" d="M1065,-198.4C1186.23,-188.48 1396.27,-166.12 1571.25,-121 1589.68,-116.25 1608.92,-109.99 1627.32,-103.31"/>
<polygon fill="firebrick" stroke="firebrick" stroke-width="2" points="1627.04,-107.15 1635.21,-100.4 1624.61,-100.58 1627.04,-107.15"/>
</g>
<!-- 5400 -->
<g id="node9" class="node">
<title>5400</title>
<ellipse fill="mediumpurple" stroke="mediumpurple" cx="965.25" cy="-552.75" rx="31.39" ry="18"/>
<text text-anchor="start" x="950.25" y="-548.7" font-family="Times New Roman,serif" font-weight="bold" font-size="14.00" fill="white">Root</text>
</g>
<!-- 5400&#45;&gt;5369 -->
<g id="edge8" class="edge">
<title>5400&#45;&gt;5369</title>
<path fill="none" stroke="black" d="M965.25,-534.5C965.25,-527.86 965.25,-519.68 965.25,-510.65"/>
<polygon fill="black" stroke="black" points="968.75,-510.76 965.25,-500.76 961.75,-510.76 968.75,-510.76"/>
</g>
</g>
</svg>
