<?xml version="1.0" encoding="UTF-8" standalone="no"?>
<!DOCTYPE svg PUBLIC "-//W3C//DTD SVG 1.1//EN"
 "http://www.w3.org/Graphics/SVG/1.1/DTD/svg11.dtd">
<!-- Generated by graphviz version 9.0.0 (20230911.1827)
 -->
<!-- Title: ConfirmationLoad.module Pages: 1 -->
<svg width="993pt" height="1235pt"
 viewBox="0.00 0.00 992.75 1234.75" xmlns="http://www.w3.org/2000/svg" xmlns:xlink="http://www.w3.org/1999/xlink">
<g id="graph0" class="graph" transform="scale(1 1) rotate(0) translate(4 1230.75)">
<title>ConfirmationLoad.module</title>
<polygon fill="lightgray" stroke="none" points="-4,4 -4,-1230.75 988.75,-1230.75 988.75,4 -4,4"/>
<!-- 5511 -->
<g id="node1" class="node">
<title>5511</title>
<polygon fill="none" stroke="black" stroke-width="2" points="957,-1153.75 753,-1153.75 753,-1117.75 957,-1117.75 957,-1153.75"/>
<polygon fill="none" stroke="black" points="762,-1124.5 762,-1147 948,-1147 948,-1124.5 762,-1124.5"/>
<text text-anchor="start" x="765" y="-1131.7" font-family="Times New Roman,serif" font-weight="bold" font-size="14.00">SeqExecuteWaitAutoSave (8)</text>
<polygon fill="none" stroke="black" points="761,-1123.5 761,-1148 949,-1148 949,-1123.5 761,-1123.5"/>
</g>
<!-- 5514 -->
<g id="node2" class="node">
<title>5514</title>
<polygon fill="none" stroke="black" stroke-width="2" points="984.75,-1023.5 725.25,-1023.5 725.25,-987.5 984.75,-987.5 984.75,-1023.5"/>
<polygon fill="none" stroke="black" points="734.25,-994.25 734.25,-1016.75 975.75,-1016.75 975.75,-994.25 734.25,-994.25"/>
<text text-anchor="start" x="737.25" y="-1001.45" font-family="Times New Roman,serif" font-weight="bold" font-size="14.00">SeqExecuteWaitCaptionMgrStable (7)</text>
<polygon fill="none" stroke="black" points="733.25,-993.25 733.25,-1017.75 976.75,-1017.75 976.75,-993.25 733.25,-993.25"/>
</g>
<!-- 5511&#45;&gt;5514 -->
<g id="edge1" class="edge">
<title>5511&#45;&gt;5514</title>
<path fill="none" stroke="midnightblue" stroke-width="2" d="M855,-1117.45C855,-1096.42 855,-1060.6 855,-1035.36"/>
<polygon fill="midnightblue" stroke="midnightblue" stroke-width="2" points="858.5,-1036.96 855,-1026.96 851.5,-1036.96 858.5,-1036.96"/>
<text text-anchor="middle" x="883.12" y="-1086.45" font-family="Times New Roman,serif" font-size="14.00" fill="midnightblue">Transition</text>
</g>
<!-- 5517 -->
<g id="node3" class="node">
<title>5517</title>
<polygon fill="none" stroke="black" stroke-width="2" points="753.88,-893.25 438.12,-893.25 438.12,-707 753.88,-707 753.88,-893.25"/>
<polygon fill="none" stroke="black" points="447.12,-865.75 447.12,-888.25 744.88,-888.25 744.88,-865.75 447.12,-865.75"/>
<text text-anchor="start" x="517.62" y="-872.95" font-family="Times New Roman,serif" font-weight="bold" font-size="14.00">Element_BoolSelector (0)</text>
<polygon fill="none" stroke="black" points="447.12,-843.25 447.12,-865.75 744.88,-865.75 744.88,-843.25 447.12,-843.25"/>
<text text-anchor="start" x="564.12" y="-850.45" font-family="Times New Roman,serif" font-weight="bold" font-size="14.00">Properties</text>
<polygon fill="none" stroke="black" points="447.12,-821.5 447.12,-843.25 744.88,-843.25 744.88,-821.5 447.12,-821.5"/>
<text text-anchor="start" x="498.88" y="-826.95" font-family="Times New Roman,serif" font-size="14.00">[Int] CalculateTiming (default = 0) </text>
<polygon fill="none" stroke="black" points="447.12,-799.75 447.12,-821.5 744.88,-821.5 744.88,-799.75 447.12,-799.75"/>
<text text-anchor="start" x="479.75" y="-805.2" font-family="Times New Roman,serif" font-size="14.00">[Bool] ChildFrameSync (default = False) </text>
<polygon fill="none" stroke="black" points="447.12,-778 447.12,-799.75 744.88,-799.75 744.88,-778 447.12,-778"/>
<text text-anchor="start" x="497.75" y="-783.45" font-family="Times New Roman,serif" font-size="14.00">[Bool] InputValue (default = True) </text>
<polygon fill="none" stroke="black" points="447.12,-756.25 447.12,-778 744.88,-778 744.88,-756.25 447.12,-756.25"/>
<text text-anchor="start" x="450.12" y="-761.7" font-family="Times New Roman,serif" font-size="14.00">[Bool] IsNoSelectWhenChildBusy (default = False) </text>
<polygon fill="none" stroke="black" points="447.12,-733.75 447.12,-756.25 744.88,-756.25 744.88,-733.75 447.12,-733.75"/>
<text text-anchor="start" x="576.88" y="-740.95" font-family="Times New Roman,serif" font-weight="bold" font-size="14.00">Inputs</text>
<polygon fill="none" stroke="black" points="447.12,-712 447.12,-733.75 744.88,-733.75 744.88,-712 447.12,-712"/>
<text text-anchor="start" x="513.5" y="-717.45" font-family="Times New Roman,serif" font-size="14.00">[Bool] Input (default = True) </text>
<polygon fill="none" stroke="black" points="446.12,-711 446.12,-889.25 745.88,-889.25 745.88,-711 446.12,-711"/>
</g>
<!-- 5514&#45;&gt;5517 -->
<g id="edge2" class="edge">
<title>5514&#45;&gt;5517</title>
<path fill="none" stroke="midnightblue" stroke-width="2" d="M832.92,-987.16C807.96,-967.57 765.29,-934.05 722.97,-900.83"/>
<polygon fill="midnightblue" stroke="midnightblue" stroke-width="2" points="726.36,-899.04 716.33,-895.61 722.04,-904.54 726.36,-899.04"/>
<text text-anchor="middle" x="776.12" y="-913.7" font-family="Times New Roman,serif" font-size="14.00" fill="midnightblue">Transition</text>
</g>
<!-- 5523 -->
<g id="node4" class="node">
<title>5523</title>
<polygon fill="none" stroke="black" stroke-width="2" points="687.5,-655.25 264.5,-655.25 264.5,-490.75 687.5,-490.75 687.5,-655.25"/>
<polygon fill="none" stroke="black" points="273.5,-627.75 273.5,-650.25 678.5,-650.25 678.5,-627.75 273.5,-627.75"/>
<text text-anchor="start" x="344.75" y="-634.95" font-family="Times New Roman,serif" font-weight="bold" font-size="14.00">SeqOneShotSetNonStructGameDataInt (9)</text>
<polygon fill="none" stroke="black" points="273.5,-605.25 273.5,-627.75 678.5,-627.75 678.5,-605.25 273.5,-605.25"/>
<text text-anchor="start" x="444.12" y="-612.45" font-family="Times New Roman,serif" font-weight="bold" font-size="14.00">Properties</text>
<polygon fill="none" stroke="black" points="273.5,-583.5 273.5,-605.25 678.5,-605.25 678.5,-583.5 273.5,-583.5"/>
<text text-anchor="start" x="350.75" y="-588.95" font-family="Times New Roman,serif" font-size="14.00">[Bool] ExecuteEveryFrame (default = False) </text>
<polygon fill="none" stroke="black" points="273.5,-561 273.5,-583.5 678.5,-583.5 678.5,-561 273.5,-561"/>
<text text-anchor="start" x="456.88" y="-568.2" font-family="Times New Roman,serif" font-weight="bold" font-size="14.00">Inputs</text>
<polygon fill="none" stroke="black" points="273.5,-539.25 273.5,-561 678.5,-561 678.5,-539.25 273.5,-539.25"/>
<text text-anchor="start" x="376.62" y="-544.7" font-family="Times New Roman,serif" font-size="14.00">[Int] GameDataIndex (default = &#45;1) </text>
<polygon fill="none" stroke="black" points="273.5,-517.5 273.5,-539.25 678.5,-539.25 678.5,-517.5 273.5,-517.5"/>
<text text-anchor="start" x="405.88" y="-522.95" font-family="Times New Roman,serif" font-size="14.00">[Int] Value (default = &#45;1) </text>
<polygon fill="none" stroke="black" points="273.5,-495.75 273.5,-517.5 678.5,-517.5 678.5,-495.75 273.5,-495.75"/>
<text text-anchor="start" x="276.5" y="-501.2" font-family="Times New Roman,serif" font-size="14.00">[String] GameDataFullName (default = SelectedSaveDataListBtnIndex) </text>
<polygon fill="none" stroke="black" points="272.5,-494.75 272.5,-651.25 679.5,-651.25 679.5,-494.75 272.5,-494.75"/>
</g>
<!-- 5517&#45;&gt;5523 -->
<g id="edge3" class="edge">
<title>5517&#45;&gt;5523</title>
<path fill="none" stroke="firebrick" stroke-width="2" d="M546.67,-706.58C539.44,-693.02 532,-679.05 524.78,-665.51"/>
<polygon fill="firebrick" stroke="firebrick" stroke-width="2" points="528.78,-665.58 520.99,-658.4 522.61,-668.88 528.78,-665.58"/>
<text text-anchor="middle" x="549.12" y="-675.7" font-family="Times New Roman,serif" font-size="14.00" fill="firebrick">True</text>
</g>
<!-- 5544 -->
<g id="node5" class="node">
<title>5544</title>
<polygon fill="none" stroke="black" stroke-width="2" points="849.25,-472.75 574.75,-472.75 574.75,-396 849.25,-396 849.25,-472.75"/>
<polygon fill="none" stroke="black" points="583.75,-445.25 583.75,-467.75 840.25,-467.75 840.25,-445.25 583.75,-445.25"/>
<text text-anchor="start" x="651.62" y="-452.45" font-family="Times New Roman,serif" font-weight="bold" font-size="14.00">SeqOneShotEnd (1)</text>
<polygon fill="none" stroke="black" points="583.75,-422.75 583.75,-445.25 840.25,-445.25 840.25,-422.75 583.75,-422.75"/>
<text text-anchor="start" x="680.12" y="-429.95" font-family="Times New Roman,serif" font-weight="bold" font-size="14.00">Properties</text>
<polygon fill="none" stroke="black" points="583.75,-401 583.75,-422.75 840.25,-422.75 840.25,-401 583.75,-401"/>
<text text-anchor="start" x="586.75" y="-406.45" font-family="Times New Roman,serif" font-size="14.00">[Bool] ExecuteEveryFrame (default = False) </text>
<polygon fill="none" stroke="black" points="582.75,-400 582.75,-468.75 841.25,-468.75 841.25,-400 582.75,-400"/>
</g>
<!-- 5517&#45;&gt;5544 -->
<g id="edge4" class="edge">
<title>5517&#45;&gt;5544</title>
<path fill="none" stroke="firebrick" stroke-width="2" d="M671.47,-706.81C681.66,-690.44 690.74,-672.94 697,-655.25 716.84,-599.17 718.12,-530.12 716.06,-484.52"/>
<polygon fill="firebrick" stroke="firebrick" stroke-width="2" points="719.64,-486 715.61,-476.2 712.65,-486.37 719.64,-486"/>
<text text-anchor="middle" x="703.62" y="-675.7" font-family="Times New Roman,serif" font-size="14.00" fill="firebrick">False</text>
</g>
<!-- 5526 -->
<g id="node7" class="node">
<title>5526</title>
<polygon fill="none" stroke="black" stroke-width="2" points="590.75,-355.88 361.25,-355.88 361.25,-279.12 590.75,-279.12 590.75,-355.88"/>
<polygon fill="none" stroke="black" points="370.25,-328.38 370.25,-350.88 581.75,-350.88 581.75,-328.38 370.25,-328.38"/>
<text text-anchor="start" x="414.5" y="-335.57" font-family="Times New Roman,serif" font-weight="bold" font-size="14.00">LoadList.module (3)</text>
<polygon fill="none" stroke="black" points="370.25,-305.88 370.25,-328.38 581.75,-328.38 581.75,-305.88 370.25,-305.88"/>
<text text-anchor="start" x="456.88" y="-313.07" font-family="Times New Roman,serif" font-weight="bold" font-size="14.00">Inputs</text>
<polygon fill="none" stroke="black" points="370.25,-284.12 370.25,-305.88 581.75,-305.88 581.75,-284.12 370.25,-284.12"/>
<text text-anchor="start" x="373.25" y="-289.57" font-family="Times New Roman,serif" font-size="14.00">[Bool] IsTitleMenu (default = False) </text>
<polygon fill="none" stroke="black" points="369.25,-283.12 369.25,-351.88 582.75,-351.88 582.75,-283.12 369.25,-283.12"/>
</g>
<!-- 5523&#45;&gt;5526 -->
<g id="edge6" class="edge">
<title>5523&#45;&gt;5526</title>
<path fill="none" stroke="midnightblue" stroke-width="2" d="M476,-490.4C476,-449.95 476,-402.46 476,-367.65"/>
<polygon fill="midnightblue" stroke="midnightblue" stroke-width="2" points="479.5,-369.39 476,-359.39 472.5,-369.39 479.5,-369.39"/>
<text text-anchor="middle" x="504.12" y="-428.95" font-family="Times New Roman,serif" font-size="14.00" fill="midnightblue">Transition</text>
</g>
<!-- 5532 -->
<g id="node8" class="node">
<title>5532</title>
<polygon fill="none" stroke="black" stroke-width="2" points="836.75,-205.25 565.25,-205.25 565.25,-128.5 836.75,-128.5 836.75,-205.25"/>
<polygon fill="none" stroke="black" points="574.25,-177.75 574.25,-200.25 827.75,-200.25 827.75,-177.75 574.25,-177.75"/>
<text text-anchor="start" x="633.88" y="-184.95" font-family="Times New Roman,serif" font-weight="bold" font-size="14.00">Element_StateEnd (2)</text>
<polygon fill="none" stroke="black" points="574.25,-155.25 574.25,-177.75 827.75,-177.75 827.75,-155.25 574.25,-155.25"/>
<text text-anchor="start" x="669.12" y="-162.45" font-family="Times New Roman,serif" font-weight="bold" font-size="14.00">Properties</text>
<polygon fill="none" stroke="black" points="574.25,-133.5 574.25,-155.25 827.75,-155.25 827.75,-133.5 574.25,-133.5"/>
<text text-anchor="start" x="577.25" y="-138.95" font-family="Times New Roman,serif" font-size="14.00">[String] TransitionCommand (default = No) </text>
<polygon fill="none" stroke="black" points="573.25,-132.5 573.25,-201.25 828.75,-201.25 828.75,-132.5 573.25,-132.5"/>
</g>
<!-- 5544&#45;&gt;5532 -->
<g id="edge13" class="edge">
<title>5544&#45;&gt;5532</title>
<path fill="none" stroke="midnightblue" stroke-width="2" d="M710.44,-395.62C708.49,-348.63 705.16,-268.31 703.02,-216.69"/>
<polygon fill="midnightblue" stroke="midnightblue" stroke-width="2" points="706.6,-218.37 702.68,-208.53 699.6,-218.66 706.6,-218.37"/>
<text text-anchor="middle" x="737.12" y="-312.07" font-family="Times New Roman,serif" font-size="14.00" fill="midnightblue">Transition</text>
</g>
<!-- 5520 -->
<g id="node6" class="node">
<title>5520</title>
<polygon fill="none" stroke="black" stroke-width="2" points="707.62,-1066 432.38,-1066 432.38,-945 707.62,-945 707.62,-1066"/>
<polygon fill="none" stroke="black" points="441.38,-1038.5 441.38,-1061 698.62,-1061 698.62,-1038.5 441.38,-1038.5"/>
<text text-anchor="start" x="493.88" y="-1045.7" font-family="Times New Roman,serif" font-weight="bold" font-size="14.00">SeqQueryIsExistSave (6)</text>
<polygon fill="none" stroke="black" points="441.38,-1016 441.38,-1038.5 698.62,-1038.5 698.62,-1016 441.38,-1016"/>
<text text-anchor="start" x="538.12" y="-1023.2" font-family="Times New Roman,serif" font-weight="bold" font-size="14.00">Properties</text>
<polygon fill="none" stroke="black" points="441.38,-994.25 441.38,-1016 698.62,-1016 698.62,-994.25 441.38,-994.25"/>
<text text-anchor="start" x="444.38" y="-999.7" font-family="Times New Roman,serif" font-size="14.00">[Bool] OutputOnlyOnEnter (default = False) </text>
<polygon fill="none" stroke="black" points="441.38,-971.75 441.38,-994.25 698.62,-994.25 698.62,-971.75 441.38,-971.75"/>
<text text-anchor="start" x="545.62" y="-978.95" font-family="Times New Roman,serif" font-weight="bold" font-size="14.00">Outputs</text>
<polygon fill="none" stroke="black" points="441.38,-950 441.38,-971.75 698.62,-971.75 698.62,-950 441.38,-950"/>
<text text-anchor="start" x="531" y="-955.45" font-family="Times New Roman,serif" font-size="14.00">[Bool] IsExist</text>
<polygon fill="none" stroke="black" points="440.38,-949 440.38,-1062 699.62,-1062 699.62,-949 440.38,-949"/>
</g>
<!-- 5520&#45;&gt;5517 -->
<g id="edge5" class="edge">
<title>5520:5546&#45;&gt;5517:5545</title>
<path fill="none" stroke="#008000" stroke-dasharray="5,2" d="M570,-948.5C570,-894.03 634.49,-926.59 686.75,-911.25 716.39,-902.55 735.07,-917.76 753.88,-893.25 802.87,-829.38 810.62,-769.23 753.88,-712.12 743.39,-701.58 637.25,-695.59 605.15,-704.69"/>
<polygon fill="#008000" stroke="#008000" points="603.4,-701.64 597.24,-710.25 607.43,-707.36 603.4,-701.64"/>
<text text-anchor="middle" x="700.62" y="-913.7" font-family="Times New Roman,serif" font-size="14.00" fill="#008000">Input</text>
</g>
<!-- 5526&#45;&gt;5532 -->
<g id="edge7" class="edge">
<title>5526&#45;&gt;5532</title>
<path fill="none" stroke="midnightblue" stroke-width="2" d="M533.07,-278.8C564,-258.37 602.37,-233.02 634.63,-211.71"/>
<polygon fill="midnightblue" stroke="midnightblue" stroke-width="2" points="635.05,-215.63 641.47,-207.2 631.19,-209.79 635.05,-215.63"/>
<text text-anchor="middle" x="631.75" y="-225.7" font-family="Times New Roman,serif" font-size="14.00" fill="midnightblue">Menu</text>
</g>
<!-- 5535 -->
<g id="node9" class="node">
<title>5535</title>
<polygon fill="none" stroke="black" stroke-width="2" points="531.75,-205.25 302.25,-205.25 302.25,-128.5 531.75,-128.5 531.75,-205.25"/>
<polygon fill="none" stroke="black" points="311.25,-177.75 311.25,-200.25 522.75,-200.25 522.75,-177.75 311.25,-177.75"/>
<text text-anchor="start" x="347.25" y="-184.95" font-family="Times New Roman,serif" font-weight="bold" font-size="14.00">LoadCheck.module (4)</text>
<polygon fill="none" stroke="black" points="311.25,-155.25 311.25,-177.75 522.75,-177.75 522.75,-155.25 311.25,-155.25"/>
<text text-anchor="start" x="397.88" y="-162.45" font-family="Times New Roman,serif" font-weight="bold" font-size="14.00">Inputs</text>
<polygon fill="none" stroke="black" points="311.25,-133.5 311.25,-155.25 522.75,-155.25 522.75,-133.5 311.25,-133.5"/>
<text text-anchor="start" x="314.25" y="-138.95" font-family="Times New Roman,serif" font-size="14.00">[Bool] IsTitleMenu (default = False) </text>
<polygon fill="none" stroke="black" points="310.25,-132.5 310.25,-201.25 523.75,-201.25 523.75,-132.5 310.25,-132.5"/>
</g>
<!-- 5526&#45;&gt;5535 -->
<g id="edge8" class="edge">
<title>5526&#45;&gt;5535</title>
<path fill="none" stroke="midnightblue" stroke-width="2" d="M440.31,-278.66C431.3,-266.84 422.82,-253.16 418,-239 415.62,-232.01 414.3,-224.41 413.67,-216.86"/>
<polygon fill="midnightblue" stroke="midnightblue" stroke-width="2" points="417.23,-218.41 413.32,-208.56 410.24,-218.7 417.23,-218.41"/>
<text text-anchor="middle" x="436" y="-225.7" font-family="Times New Roman,serif" font-size="14.00" fill="midnightblue">Check</text>
</g>
<!-- 5535&#45;&gt;5526 -->
<g id="edge10" class="edge">
<title>5535&#45;&gt;5526</title>
<path fill="none" stroke="midnightblue" stroke-width="2" d="M444.73,-205.59C448.19,-211.32 451.42,-217.31 454,-223.25 460.08,-237.23 464.63,-253.15 467.96,-267.83"/>
<polygon fill="midnightblue" stroke="midnightblue" stroke-width="2" points="464.15,-266.74 469.65,-275.8 471,-265.29 464.15,-266.74"/>
<text text-anchor="middle" x="470.5" y="-225.7" font-family="Times New Roman,serif" font-size="14.00" fill="midnightblue">List</text>
</g>
<!-- 5541 -->
<g id="node11" class="node">
<title>5541</title>
<polygon fill="none" stroke="black" stroke-width="2" points="555,-76.75 279,-76.75 279,0 555,0 555,-76.75"/>
<polygon fill="none" stroke="black" points="288,-49.25 288,-71.75 546,-71.75 546,-49.25 288,-49.25"/>
<text text-anchor="start" x="349.88" y="-56.45" font-family="Times New Roman,serif" font-weight="bold" font-size="14.00">Element_StateEnd (5)</text>
<polygon fill="none" stroke="black" points="288,-26.75 288,-49.25 546,-49.25 546,-26.75 288,-26.75"/>
<text text-anchor="start" x="385.12" y="-33.95" font-family="Times New Roman,serif" font-weight="bold" font-size="14.00">Properties</text>
<polygon fill="none" stroke="black" points="288,-5 288,-26.75 546,-26.75 546,-5 288,-5"/>
<text text-anchor="start" x="291" y="-10.45" font-family="Times New Roman,serif" font-size="14.00">[String] TransitionCommand (default = Yes) </text>
<polygon fill="none" stroke="black" points="287,-4 287,-72.75 547,-72.75 547,-4 287,-4"/>
</g>
<!-- 5535&#45;&gt;5541 -->
<g id="edge11" class="edge">
<title>5535&#45;&gt;5541</title>
<path fill="none" stroke="midnightblue" stroke-width="2" d="M417,-128.26C417,-115.76 417,-101.64 417,-88.41"/>
<polygon fill="midnightblue" stroke="midnightblue" stroke-width="2" points="420.5,-90.09 417,-80.09 413.5,-90.09 420.5,-90.09"/>
<text text-anchor="middle" x="427.88" y="-97.2" font-family="Times New Roman,serif" font-size="14.00" fill="midnightblue">Yes</text>
</g>
<!-- 5529 -->
<g id="node10" class="node">
<title>5529</title>
<polygon fill="none" stroke="black" stroke-width="2" points="246,-633.5 0,-633.5 0,-512.5 246,-512.5 246,-633.5"/>
<polygon fill="none" stroke="black" points="9,-606 9,-628.5 237,-628.5 237,-606 9,-606"/>
<text text-anchor="start" x="12" y="-613.2" font-family="Times New Roman,serif" font-weight="bold" font-size="14.00">Element_ModuleIF_Input_Bool (10)</text>
<polygon fill="none" stroke="black" points="9,-583.5 9,-606 237,-606 237,-583.5 9,-583.5"/>
<text text-anchor="start" x="91.12" y="-590.7" font-family="Times New Roman,serif" font-weight="bold" font-size="14.00">Properties</text>
<polygon fill="none" stroke="black" points="9,-561.75 9,-583.5 237,-583.5 237,-561.75 9,-561.75"/>
<text text-anchor="start" x="15.75" y="-567.2" font-family="Times New Roman,serif" font-size="14.00">[String] Name (default = IsTitleMenu) </text>
<polygon fill="none" stroke="black" points="9,-539.25 9,-561.75 237,-561.75 237,-539.25 9,-539.25"/>
<text text-anchor="start" x="98.62" y="-546.45" font-family="Times New Roman,serif" font-weight="bold" font-size="14.00">Outputs</text>
<polygon fill="none" stroke="black" points="9,-517.5 9,-539.25 237,-539.25 237,-517.5 9,-517.5"/>
<text text-anchor="start" x="69.75" y="-522.95" font-family="Times New Roman,serif" font-size="14.00">[Bool] IsTitleMenu</text>
<polygon fill="none" stroke="black" points="8,-516.5 8,-629.5 238,-629.5 238,-516.5 8,-516.5"/>
</g>
<!-- 5529&#45;&gt;5526 -->
<g id="edge9" class="edge">
<title>5529:5551&#45;&gt;5526:5550</title>
<path fill="none" stroke="#008000" stroke-dasharray="5,2" d="M123,-516C123,-397.17 283.47,-475.08 352,-378 370.94,-351.17 341.33,-308.08 357.83,-297.11"/>
<polygon fill="#008000" stroke="#008000" points="358.58,-300.53 367.53,-294.84 356.99,-293.71 358.58,-300.53"/>
<text text-anchor="middle" x="367.38" y="-428.95" font-family="Times New Roman,serif" font-size="14.00" fill="#008000">IsTitleMenu</text>
</g>
<!-- 5538 -->
<g id="node12" class="node">
<title>5538</title>
<polygon fill="none" stroke="black" stroke-width="2" points="343,-378 97,-378 97,-257 343,-257 343,-378"/>
<polygon fill="none" stroke="black" points="106,-350.5 106,-373 334,-373 334,-350.5 106,-350.5"/>
<text text-anchor="start" x="109" y="-357.7" font-family="Times New Roman,serif" font-weight="bold" font-size="14.00">Element_ModuleIF_Input_Bool (11)</text>
<polygon fill="none" stroke="black" points="106,-328 106,-350.5 334,-350.5 334,-328 106,-328"/>
<text text-anchor="start" x="188.12" y="-335.2" font-family="Times New Roman,serif" font-weight="bold" font-size="14.00">Properties</text>
<polygon fill="none" stroke="black" points="106,-306.25 106,-328 334,-328 334,-306.25 106,-306.25"/>
<text text-anchor="start" x="112.75" y="-311.7" font-family="Times New Roman,serif" font-size="14.00">[String] Name (default = IsTitleMenu) </text>
<polygon fill="none" stroke="black" points="106,-283.75 106,-306.25 334,-306.25 334,-283.75 106,-283.75"/>
<text text-anchor="start" x="195.62" y="-290.95" font-family="Times New Roman,serif" font-weight="bold" font-size="14.00">Outputs</text>
<polygon fill="none" stroke="black" points="106,-262 106,-283.75 334,-283.75 334,-262 106,-262"/>
<text text-anchor="start" x="166.75" y="-267.45" font-family="Times New Roman,serif" font-size="14.00">[Bool] IsTitleMenu</text>
<polygon fill="none" stroke="black" points="105,-261 105,-374 335,-374 335,-261 105,-261"/>
</g>
<!-- 5538&#45;&gt;5535 -->
<g id="edge12" class="edge">
<title>5538:5553&#45;&gt;5535:5552</title>
<path fill="none" stroke="#008000" stroke-dasharray="5,2" d="M220,-260.5C220,-198.99 241.65,-150.12 298.55,-144.43"/>
<polygon fill="#008000" stroke="#008000" points="298.67,-147.93 308.49,-143.95 298.33,-140.94 298.67,-147.93"/>
<text text-anchor="middle" x="256.38" y="-225.7" font-family="Times New Roman,serif" font-size="14.00" fill="#008000">IsTitleMenu</text>
</g>
<!-- 5554 -->
<g id="node13" class="node">
<title>5554</title>
<ellipse fill="mediumpurple" stroke="mediumpurple" cx="855" cy="-1208.75" rx="31.39" ry="18"/>
<text text-anchor="start" x="840" y="-1204.7" font-family="Times New Roman,serif" font-weight="bold" font-size="14.00" fill="white">Root</text>
</g>
<!-- 5554&#45;&gt;5511 -->
<g id="edge14" class="edge">
<title>5554&#45;&gt;5511</title>
<path fill="none" stroke="black" d="M855,-1190.56C855,-1182.98 855,-1173.85 855,-1165.29"/>
<polygon fill="black" stroke="black" points="858.5,-1165.29 855,-1155.29 851.5,-1165.29 858.5,-1165.29"/>
</g>
</g>
</svg>
