<?xml version="1.0" encoding="UTF-8" standalone="no"?>
<!DOCTYPE svg PUBLIC "-//W3C//DTD SVG 1.1//EN"
 "http://www.w3.org/Graphics/SVG/1.1/DTD/svg11.dtd">
<!-- Generated by graphviz version 9.0.0 (20230911.1827)
 -->
<!-- Title: ConfirmationNewGame.module Pages: 1 -->
<svg width="2771pt" height="1582pt"
 viewBox="0.00 0.00 2771.12 1581.50" xmlns="http://www.w3.org/2000/svg" xmlns:xlink="http://www.w3.org/1999/xlink">
<g id="graph0" class="graph" transform="scale(1 1) rotate(0) translate(4 1577.5)">
<title>ConfirmationNewGame.module</title>
<polygon fill="lightgray" stroke="none" points="-4,4 -4,-1577.5 2767.12,-1577.5 2767.12,4 -4,4"/>
<!-- 5557 -->
<g id="node1" class="node">
<title>5557</title>
<polygon fill="none" stroke="black" stroke-width="2" points="1427.62,-1500.5 1141.12,-1500.5 1141.12,-1293.25 1427.62,-1293.25 1427.62,-1500.5"/>
<polygon fill="none" stroke="black" points="1150.12,-1473 1150.12,-1495.5 1418.62,-1495.5 1418.62,-1473 1150.12,-1473"/>
<text text-anchor="start" x="1213.5" y="-1480.2" font-family="Times New Roman,serif" font-weight="bold" font-size="14.00">Element_Sequential (0)</text>
<polygon fill="none" stroke="black" points="1150.12,-1450.5 1150.12,-1473 1418.62,-1473 1418.62,-1450.5 1150.12,-1450.5"/>
<text text-anchor="start" x="1252.5" y="-1457.7" font-family="Times New Roman,serif" font-weight="bold" font-size="14.00">Properties</text>
<polygon fill="none" stroke="black" points="1150.12,-1428.75 1150.12,-1450.5 1418.62,-1450.5 1418.62,-1428.75 1150.12,-1428.75"/>
<text text-anchor="start" x="1200.38" y="-1434.2" font-family="Times New Roman,serif" font-size="14.00">[Int] BusyPolicy (default = 0) </text>
<polygon fill="none" stroke="black" points="1150.12,-1407 1150.12,-1428.75 1418.62,-1428.75 1418.62,-1407 1150.12,-1407"/>
<text text-anchor="start" x="1203.38" y="-1412.45" font-family="Times New Roman,serif" font-size="14.00">[Int] NumLoop (default = 0) </text>
<polygon fill="none" stroke="black" points="1150.12,-1385.25 1150.12,-1407 1418.62,-1407 1418.62,-1385.25 1150.12,-1385.25"/>
<text text-anchor="start" x="1202.62" y="-1390.7" font-family="Times New Roman,serif" font-size="14.00">[Int] PlayPolicy (default = 0) </text>
<polygon fill="none" stroke="black" points="1150.12,-1363.5 1150.12,-1385.25 1418.62,-1385.25 1418.62,-1363.5 1150.12,-1363.5"/>
<text text-anchor="start" x="1197" y="-1368.95" font-family="Times New Roman,serif" font-size="14.00">[Int] ResultPolicy (default = 0) </text>
<polygon fill="none" stroke="black" points="1150.12,-1341.75 1150.12,-1363.5 1418.62,-1363.5 1418.62,-1341.75 1150.12,-1341.75"/>
<text text-anchor="start" x="1177.88" y="-1347.2" font-family="Times New Roman,serif" font-size="14.00">[Bool] IsDelayJudge (default = False) </text>
<polygon fill="none" stroke="black" points="1150.12,-1320 1150.12,-1341.75 1418.62,-1341.75 1418.62,-1320 1150.12,-1320"/>
<text text-anchor="start" x="1194.38" y="-1325.45" font-family="Times New Roman,serif" font-size="14.00">[Bool] IsLoop (default = False) </text>
<polygon fill="none" stroke="black" points="1150.12,-1298.25 1150.12,-1320 1418.62,-1320 1418.62,-1298.25 1150.12,-1298.25"/>
<text text-anchor="start" x="1153.12" y="-1303.7" font-family="Times New Roman,serif" font-size="14.00">[Bool] IsUpdateNextInFrame (default = False) </text>
<polygon fill="none" stroke="black" points="1149.12,-1297.25 1149.12,-1496.5 1419.62,-1496.5 1419.62,-1297.25 1149.12,-1297.25"/>
</g>
<!-- 5560 -->
<g id="node2" class="node">
<title>5560</title>
<polygon fill="none" stroke="black" stroke-width="2" points="318.75,-1256.25 0,-1256.25 0,-1113.5 318.75,-1113.5 318.75,-1256.25"/>
<polygon fill="none" stroke="black" points="9,-1228.75 9,-1251.25 309.75,-1251.25 309.75,-1228.75 9,-1228.75"/>
<text text-anchor="start" x="12" y="-1235.95" font-family="Times New Roman,serif" font-weight="bold" font-size="14.00">SeqOneShotSetEnableScreenButtonHitTest (18)</text>
<polygon fill="none" stroke="black" points="9,-1206.25 9,-1228.75 309.75,-1228.75 309.75,-1206.25 9,-1206.25"/>
<text text-anchor="start" x="127.5" y="-1213.45" font-family="Times New Roman,serif" font-weight="bold" font-size="14.00">Properties</text>
<polygon fill="none" stroke="black" points="9,-1184.5 9,-1206.25 309.75,-1206.25 309.75,-1184.5 9,-1184.5"/>
<text text-anchor="start" x="34.12" y="-1189.95" font-family="Times New Roman,serif" font-size="14.00">[Bool] ExecuteEveryFrame (default = False) </text>
<polygon fill="none" stroke="black" points="9,-1162 9,-1184.5 309.75,-1184.5 309.75,-1162 9,-1162"/>
<text text-anchor="start" x="140.25" y="-1169.2" font-family="Times New Roman,serif" font-weight="bold" font-size="14.00">Inputs</text>
<polygon fill="none" stroke="black" points="9,-1140.25 9,-1162 309.75,-1162 309.75,-1140.25 9,-1140.25"/>
<text text-anchor="start" x="66" y="-1145.7" font-family="Times New Roman,serif" font-size="14.00">[Bool] IsEnable (default = False) </text>
<polygon fill="none" stroke="black" points="9,-1118.5 9,-1140.25 309.75,-1140.25 309.75,-1118.5 9,-1118.5"/>
<text text-anchor="start" x="43.5" y="-1123.95" font-family="Times New Roman,serif" font-size="14.00">[String] ScreenName (default = Title_00) </text>
<polygon fill="none" stroke="black" points="8,-1117.5 8,-1252.25 310.75,-1252.25 310.75,-1117.5 8,-1117.5"/>
</g>
<!-- 5557&#45;&gt;5560 -->
<g id="edge1" class="edge">
<title>5557&#45;&gt;5560</title>
<path fill="none" stroke="firebrick" stroke-width="2" d="M1140.76,-1386.12C954.01,-1370.93 618.59,-1335.1 329.82,-1256.52"/>
<polygon fill="firebrick" stroke="firebrick" stroke-width="2" points="332.62,-1253.66 322.05,-1254.39 330.77,-1260.41 332.62,-1253.66"/>
</g>
<!-- 5563 -->
<g id="node3" class="node">
<title>5563</title>
<polygon fill="none" stroke="black" stroke-width="2" points="657.5,-1245.38 337.25,-1245.38 337.25,-1124.38 657.5,-1124.38 657.5,-1245.38"/>
<polygon fill="none" stroke="black" points="346.25,-1217.88 346.25,-1240.38 648.5,-1240.38 648.5,-1217.88 346.25,-1217.88"/>
<text text-anchor="start" x="408.88" y="-1225.08" font-family="Times New Roman,serif" font-weight="bold" font-size="14.00">SeqOneShotLoadScreen (11)</text>
<polygon fill="none" stroke="black" points="346.25,-1195.38 346.25,-1217.88 648.5,-1217.88 648.5,-1195.38 346.25,-1195.38"/>
<text text-anchor="start" x="465.5" y="-1202.58" font-family="Times New Roman,serif" font-weight="bold" font-size="14.00">Properties</text>
<polygon fill="none" stroke="black" points="346.25,-1173.62 346.25,-1195.38 648.5,-1195.38 648.5,-1173.62 346.25,-1173.62"/>
<text text-anchor="start" x="372.12" y="-1179.08" font-family="Times New Roman,serif" font-size="14.00">[Bool] ExecuteEveryFrame (default = False) </text>
<polygon fill="none" stroke="black" points="346.25,-1151.12 346.25,-1173.62 648.5,-1173.62 648.5,-1151.12 346.25,-1151.12"/>
<text text-anchor="start" x="478.25" y="-1158.33" font-family="Times New Roman,serif" font-weight="bold" font-size="14.00">Inputs</text>
<polygon fill="none" stroke="black" points="346.25,-1129.38 346.25,-1151.12 648.5,-1151.12 648.5,-1129.38 346.25,-1129.38"/>
<text text-anchor="start" x="349.25" y="-1134.83" font-family="Times New Roman,serif" font-size="14.00">[String] ScreenName (default = SystemWindow_00) </text>
<polygon fill="none" stroke="black" points="345.25,-1128.38 345.25,-1241.38 649.5,-1241.38 649.5,-1128.38 345.25,-1128.38"/>
</g>
<!-- 5557&#45;&gt;5563 -->
<g id="edge2" class="edge">
<title>5557&#45;&gt;5563</title>
<path fill="none" stroke="firebrick" stroke-width="2" d="M1140.71,-1370.54C1014.47,-1346.6 826.61,-1306.82 667.38,-1256.25 660.78,-1254.16 654.09,-1251.91 647.36,-1249.56"/>
<polygon fill="firebrick" stroke="firebrick" stroke-width="2" points="650.2,-1246.86 639.61,-1246.8 647.85,-1253.45 650.2,-1246.86"/>
</g>
<!-- 5566 -->
<g id="node4" class="node">
<title>5566</title>
<polygon fill="none" stroke="black" stroke-width="2" points="982.75,-1223.25 676,-1223.25 676,-1146.5 982.75,-1146.5 982.75,-1223.25"/>
<polygon fill="none" stroke="black" points="685,-1195.75 685,-1218.25 973.75,-1218.25 973.75,-1195.75 685,-1195.75"/>
<text text-anchor="start" x="714.25" y="-1202.95" font-family="Times New Roman,serif" font-weight="bold" font-size="14.00">SeqExecuteLoadAndOpenScreen (16)</text>
<polygon fill="none" stroke="black" points="685,-1173.25 685,-1195.75 973.75,-1195.75 973.75,-1173.25 685,-1173.25"/>
<text text-anchor="start" x="810.25" y="-1180.45" font-family="Times New Roman,serif" font-weight="bold" font-size="14.00">Inputs</text>
<polygon fill="none" stroke="black" points="685,-1151.5 685,-1173.25 973.75,-1173.25 973.75,-1151.5 685,-1151.5"/>
<text text-anchor="start" x="688" y="-1156.95" font-family="Times New Roman,serif" font-size="14.00">[String] ScreenName (default = TitleMenuBG_00) </text>
<polygon fill="none" stroke="black" points="684,-1150.5 684,-1219.25 974.75,-1219.25 974.75,-1150.5 684,-1150.5"/>
</g>
<!-- 5557&#45;&gt;5566 -->
<g id="edge3" class="edge">
<title>5557&#45;&gt;5566</title>
<path fill="none" stroke="firebrick" stroke-width="2" d="M1140.72,-1329.57C1069.06,-1296.5 984.49,-1257.47 921.59,-1228.44"/>
<polygon fill="firebrick" stroke="firebrick" stroke-width="2" points="924.59,-1225.96 914.04,-1224.95 921.65,-1232.32 924.59,-1225.96"/>
</g>
<!-- 5569 -->
<g id="node5" class="node">
<title>5569</title>
<polygon fill="none" stroke="black" stroke-width="2" points="1275.62,-1256.25 1001.12,-1256.25 1001.12,-1113.5 1275.62,-1113.5 1275.62,-1256.25"/>
<polygon fill="none" stroke="black" points="1010.12,-1228.75 1010.12,-1251.25 1266.62,-1251.25 1266.62,-1228.75 1010.12,-1228.75"/>
<text text-anchor="start" x="1038.25" y="-1235.95" font-family="Times New Roman,serif" font-weight="bold" font-size="14.00">SeqOneShotSetLayerVisible (20)</text>
<polygon fill="none" stroke="black" points="1010.12,-1206.25 1010.12,-1228.75 1266.62,-1228.75 1266.62,-1206.25 1010.12,-1206.25"/>
<text text-anchor="start" x="1106.5" y="-1213.45" font-family="Times New Roman,serif" font-weight="bold" font-size="14.00">Properties</text>
<polygon fill="none" stroke="black" points="1010.12,-1184.5 1010.12,-1206.25 1266.62,-1206.25 1266.62,-1184.5 1010.12,-1184.5"/>
<text text-anchor="start" x="1013.12" y="-1189.95" font-family="Times New Roman,serif" font-size="14.00">[Bool] ExecuteEveryFrame (default = False) </text>
<polygon fill="none" stroke="black" points="1010.12,-1162 1010.12,-1184.5 1266.62,-1184.5 1266.62,-1162 1010.12,-1162"/>
<text text-anchor="start" x="1119.25" y="-1169.2" font-family="Times New Roman,serif" font-weight="bold" font-size="14.00">Inputs</text>
<polygon fill="none" stroke="black" points="1010.12,-1140.25 1010.12,-1162 1266.62,-1162 1266.62,-1140.25 1010.12,-1140.25"/>
<text text-anchor="start" x="1032.62" y="-1145.7" font-family="Times New Roman,serif" font-size="14.00">[Int] LayerTag (default = 460120899) </text>
<polygon fill="none" stroke="black" points="1010.12,-1118.5 1010.12,-1140.25 1266.62,-1140.25 1266.62,-1118.5 1010.12,-1118.5"/>
<text text-anchor="start" x="1044.62" y="-1123.95" font-family="Times New Roman,serif" font-size="14.00">[Bool] IsVisible (default = False) </text>
<polygon fill="none" stroke="black" points="1009.12,-1117.5 1009.12,-1252.25 1267.62,-1252.25 1267.62,-1117.5 1009.12,-1117.5"/>
</g>
<!-- 5557&#45;&gt;5569 -->
<g id="edge4" class="edge">
<title>5557&#45;&gt;5569</title>
<path fill="none" stroke="firebrick" stroke-width="2" d="M1212.87,-1293.03C1206.49,-1283.85 1200.09,-1274.65 1193.88,-1265.71"/>
<polygon fill="firebrick" stroke="firebrick" stroke-width="2" points="1197.78,-1265.19 1189.2,-1258.98 1192.04,-1269.19 1197.78,-1265.19"/>
</g>
<!-- 5572 -->
<g id="node6" class="node">
<title>5572</title>
<polygon fill="none" stroke="black" stroke-width="2" points="1568.62,-1256.25 1294.12,-1256.25 1294.12,-1113.5 1568.62,-1113.5 1568.62,-1256.25"/>
<polygon fill="none" stroke="black" points="1303.12,-1228.75 1303.12,-1251.25 1559.62,-1251.25 1559.62,-1228.75 1303.12,-1228.75"/>
<text text-anchor="start" x="1315.88" y="-1235.95" font-family="Times New Roman,serif" font-weight="bold" font-size="14.00">SeqOneShotOpenSystemWindow (13)</text>
<polygon fill="none" stroke="black" points="1303.12,-1206.25 1303.12,-1228.75 1559.62,-1228.75 1559.62,-1206.25 1303.12,-1206.25"/>
<text text-anchor="start" x="1399.5" y="-1213.45" font-family="Times New Roman,serif" font-weight="bold" font-size="14.00">Properties</text>
<polygon fill="none" stroke="black" points="1303.12,-1184.5 1303.12,-1206.25 1559.62,-1206.25 1559.62,-1184.5 1303.12,-1184.5"/>
<text text-anchor="start" x="1306.12" y="-1189.95" font-family="Times New Roman,serif" font-size="14.00">[Bool] ExecuteEveryFrame (default = False) </text>
<polygon fill="none" stroke="black" points="1303.12,-1162 1303.12,-1184.5 1559.62,-1184.5 1559.62,-1162 1303.12,-1162"/>
<text text-anchor="start" x="1412.25" y="-1169.2" font-family="Times New Roman,serif" font-weight="bold" font-size="14.00">Inputs</text>
<polygon fill="none" stroke="black" points="1303.12,-1140.25 1303.12,-1162 1559.62,-1162 1559.62,-1140.25 1303.12,-1140.25"/>
<text text-anchor="start" x="1345.88" y="-1145.7" font-family="Times New Roman,serif" font-size="14.00">[Bool] IsTitle (default = True) </text>
<polygon fill="none" stroke="black" points="1303.12,-1118.5 1303.12,-1140.25 1559.62,-1140.25 1559.62,-1118.5 1303.12,-1118.5"/>
<text text-anchor="start" x="1327.12" y="-1123.95" font-family="Times New Roman,serif" font-size="14.00">[String] Preset (default = NewGame) </text>
<polygon fill="none" stroke="black" points="1302.12,-1117.5 1302.12,-1252.25 1560.62,-1252.25 1560.62,-1117.5 1302.12,-1117.5"/>
</g>
<!-- 5557&#45;&gt;5572 -->
<g id="edge5" class="edge">
<title>5557&#45;&gt;5572</title>
<path fill="none" stroke="firebrick" stroke-width="2" d="M1356.37,-1293.03C1362.79,-1283.85 1369.23,-1274.65 1375.49,-1265.71"/>
<polygon fill="firebrick" stroke="firebrick" stroke-width="2" points="1377.34,-1269.17 1380.2,-1258.98 1371.6,-1265.16 1377.34,-1269.17"/>
</g>
<!-- 5575 -->
<g id="node7" class="node">
<title>5575</title>
<polygon fill="none" stroke="black" stroke-width="2" points="1785.75,-1234.12 1587,-1234.12 1587,-1135.62 1785.75,-1135.62 1785.75,-1234.12"/>
<polygon fill="none" stroke="black" points="1596,-1206.62 1596,-1229.12 1776.75,-1229.12 1776.75,-1206.62 1596,-1206.62"/>
<text text-anchor="start" x="1602.75" y="-1213.83" font-family="Times New Roman,serif" font-weight="bold" font-size="14.00">Element_Simultaneous (14)</text>
<polygon fill="none" stroke="black" points="1596,-1184.12 1596,-1206.62 1776.75,-1206.62 1776.75,-1184.12 1596,-1184.12"/>
<text text-anchor="start" x="1654.5" y="-1191.33" font-family="Times New Roman,serif" font-weight="bold" font-size="14.00">Properties</text>
<polygon fill="none" stroke="black" points="1596,-1162.38 1596,-1184.12 1776.75,-1184.12 1776.75,-1162.38 1596,-1162.38"/>
<text text-anchor="start" x="1605.38" y="-1167.83" font-family="Times New Roman,serif" font-size="14.00">[Int] EndPolicy (default = 0) </text>
<polygon fill="none" stroke="black" points="1596,-1140.62 1596,-1162.38 1776.75,-1162.38 1776.75,-1140.62 1596,-1140.62"/>
<text text-anchor="start" x="1599" y="-1146.08" font-family="Times New Roman,serif" font-size="14.00">[Int] ResultPolicy (default = 0) </text>
<polygon fill="none" stroke="black" points="1595,-1139.62 1595,-1230.12 1777.75,-1230.12 1777.75,-1139.62 1595,-1139.62"/>
</g>
<!-- 5557&#45;&gt;5575 -->
<g id="edge6" class="edge">
<title>5557&#45;&gt;5575</title>
<path fill="none" stroke="firebrick" stroke-width="2" d="M1427.82,-1332.02C1476.02,-1309.38 1529.65,-1282.89 1577.38,-1256.25 1586.19,-1251.33 1595.25,-1245.98 1604.21,-1240.5"/>
<polygon fill="firebrick" stroke="firebrick" stroke-width="2" points="1604.65,-1244.35 1611.3,-1236.11 1600.96,-1238.4 1604.65,-1244.35"/>
</g>
<!-- 5581 -->
<g id="node8" class="node">
<title>5581</title>
<polygon fill="none" stroke="black" stroke-width="2" points="2124.5,-1256.25 1804.25,-1256.25 1804.25,-1113.5 2124.5,-1113.5 2124.5,-1256.25"/>
<polygon fill="none" stroke="black" points="1813.25,-1228.75 1813.25,-1251.25 2115.5,-1251.25 2115.5,-1228.75 1813.25,-1228.75"/>
<text text-anchor="start" x="1820.75" y="-1235.95" font-family="Times New Roman,serif" font-weight="bold" font-size="14.00">SeqOneShotSetEnableScreenButtonHitTest (9)</text>
<polygon fill="none" stroke="black" points="1813.25,-1206.25 1813.25,-1228.75 2115.5,-1228.75 2115.5,-1206.25 1813.25,-1206.25"/>
<text text-anchor="start" x="1932.5" y="-1213.45" font-family="Times New Roman,serif" font-weight="bold" font-size="14.00">Properties</text>
<polygon fill="none" stroke="black" points="1813.25,-1184.5 1813.25,-1206.25 2115.5,-1206.25 2115.5,-1184.5 1813.25,-1184.5"/>
<text text-anchor="start" x="1839.12" y="-1189.95" font-family="Times New Roman,serif" font-size="14.00">[Bool] ExecuteEveryFrame (default = False) </text>
<polygon fill="none" stroke="black" points="1813.25,-1162 1813.25,-1184.5 2115.5,-1184.5 2115.5,-1162 1813.25,-1162"/>
<text text-anchor="start" x="1945.25" y="-1169.2" font-family="Times New Roman,serif" font-weight="bold" font-size="14.00">Inputs</text>
<polygon fill="none" stroke="black" points="1813.25,-1140.25 1813.25,-1162 2115.5,-1162 2115.5,-1140.25 1813.25,-1140.25"/>
<text text-anchor="start" x="1871" y="-1145.7" font-family="Times New Roman,serif" font-size="14.00">[Bool] IsEnable (default = False) </text>
<polygon fill="none" stroke="black" points="1813.25,-1118.5 1813.25,-1140.25 2115.5,-1140.25 2115.5,-1118.5 1813.25,-1118.5"/>
<text text-anchor="start" x="1816.25" y="-1123.95" font-family="Times New Roman,serif" font-size="14.00">[String] ScreenName (default = SystemWindow_00) </text>
<polygon fill="none" stroke="black" points="1812.25,-1117.5 1812.25,-1252.25 2116.5,-1252.25 2116.5,-1117.5 1812.25,-1117.5"/>
</g>
<!-- 5557&#45;&gt;5581 -->
<g id="edge7" class="edge">
<title>5557&#45;&gt;5581</title>
<path fill="none" stroke="firebrick" stroke-width="2" d="M1427.9,-1361.7C1528.08,-1336.64 1664.75,-1300.06 1793.16,-1256.59"/>
<polygon fill="firebrick" stroke="firebrick" stroke-width="2" points="1792.76,-1260.42 1801.1,-1253.88 1790.5,-1253.79 1792.76,-1260.42"/>
</g>
<!-- 5584 -->
<g id="node9" class="node">
<title>5584</title>
<polygon fill="none" stroke="black" stroke-width="2" points="2182.25,-903.75 1866.5,-903.75 1866.5,-717.5 2182.25,-717.5 2182.25,-903.75"/>
<polygon fill="none" stroke="black" points="1875.5,-876.25 1875.5,-898.75 2173.25,-898.75 2173.25,-876.25 1875.5,-876.25"/>
<text text-anchor="start" x="1941.5" y="-883.45" font-family="Times New Roman,serif" font-weight="bold" font-size="14.00">Element_StringSelector (2)</text>
<polygon fill="none" stroke="black" points="1875.5,-853.75 1875.5,-876.25 2173.25,-876.25 2173.25,-853.75 1875.5,-853.75"/>
<text text-anchor="start" x="1992.5" y="-860.95" font-family="Times New Roman,serif" font-weight="bold" font-size="14.00">Properties</text>
<polygon fill="none" stroke="black" points="1875.5,-832 1875.5,-853.75 2173.25,-853.75 2173.25,-832 1875.5,-832"/>
<text text-anchor="start" x="1927.25" y="-837.45" font-family="Times New Roman,serif" font-size="14.00">[Int] CalculateTiming (default = 0) </text>
<polygon fill="none" stroke="black" points="1875.5,-810.25 1875.5,-832 2173.25,-832 2173.25,-810.25 1875.5,-810.25"/>
<text text-anchor="start" x="1908.12" y="-815.7" font-family="Times New Roman,serif" font-size="14.00">[Bool] ChildFrameSync (default = False) </text>
<polygon fill="none" stroke="black" points="1875.5,-788.5 1875.5,-810.25 2173.25,-810.25 2173.25,-788.5 1875.5,-788.5"/>
<text text-anchor="start" x="1878.5" y="-793.95" font-family="Times New Roman,serif" font-size="14.00">[Bool] IsNoSelectWhenChildBusy (default = False) </text>
<polygon fill="none" stroke="black" points="1875.5,-766.75 1875.5,-788.5 2173.25,-788.5 2173.25,-766.75 1875.5,-766.75"/>
<text text-anchor="start" x="1936.25" y="-772.2" font-family="Times New Roman,serif" font-size="14.00">[String] InputValue (default = ) </text>
<polygon fill="none" stroke="black" points="1875.5,-744.25 1875.5,-766.75 2173.25,-766.75 2173.25,-744.25 1875.5,-744.25"/>
<text text-anchor="start" x="2005.25" y="-751.45" font-family="Times New Roman,serif" font-weight="bold" font-size="14.00">Inputs</text>
<polygon fill="none" stroke="black" points="1875.5,-722.5 1875.5,-744.25 2173.25,-744.25 2173.25,-722.5 1875.5,-722.5"/>
<text text-anchor="start" x="1952" y="-727.95" font-family="Times New Roman,serif" font-size="14.00">[String] Input (default = ) </text>
<polygon fill="none" stroke="black" points="1874.5,-721.5 1874.5,-899.75 2174.25,-899.75 2174.25,-721.5 1874.5,-721.5"/>
</g>
<!-- 5557&#45;&gt;5584 -->
<g id="edge8" class="edge">
<title>5557&#45;&gt;5584</title>
<path fill="none" stroke="firebrick" stroke-width="2" d="M1428.1,-1393.61C1645.92,-1386.81 2043.8,-1360.1 2133.38,-1256.25 2230.49,-1143.66 2196.46,-1058.62 2138.38,-921.75 2137.25,-919.09 2136.02,-916.46 2134.7,-913.87"/>
<polygon fill="firebrick" stroke="firebrick" stroke-width="2" points="2138.62,-913.7 2130.68,-906.69 2132.51,-917.12 2138.62,-913.7"/>
</g>
<!-- 5578 -->
<g id="node10" class="node">
<title>5578</title>
<polygon fill="none" stroke="black" stroke-width="2" points="2055.5,-1076.5 1735.25,-1076.5 1735.25,-955.5 2055.5,-955.5 2055.5,-1076.5"/>
<polygon fill="none" stroke="black" points="1744.25,-1049 1744.25,-1071.5 2046.5,-1071.5 2046.5,-1049 1744.25,-1049"/>
<text text-anchor="start" x="1776.88" y="-1056.2" font-family="Times New Roman,serif" font-weight="bold" font-size="14.00">SeqExecuteWaitScreenButtonInput (1)</text>
<polygon fill="none" stroke="black" points="1744.25,-1026.5 1744.25,-1049 2046.5,-1049 2046.5,-1026.5 1744.25,-1026.5"/>
<text text-anchor="start" x="1876.25" y="-1033.7" font-family="Times New Roman,serif" font-weight="bold" font-size="14.00">Inputs</text>
<polygon fill="none" stroke="black" points="1744.25,-1004.75 1744.25,-1026.5 2046.5,-1026.5 2046.5,-1004.75 1744.25,-1004.75"/>
<text text-anchor="start" x="1747.25" y="-1010.2" font-family="Times New Roman,serif" font-size="14.00">[String] ScreenName (default = SystemWindow_00) </text>
<polygon fill="none" stroke="black" points="1744.25,-982.25 1744.25,-1004.75 2046.5,-1004.75 2046.5,-982.25 1744.25,-982.25"/>
<text text-anchor="start" x="1871" y="-989.45" font-family="Times New Roman,serif" font-weight="bold" font-size="14.00">Outputs</text>
<polygon fill="none" stroke="black" points="1744.25,-960.5 1744.25,-982.25 2046.5,-982.25 2046.5,-960.5 1744.25,-960.5"/>
<text text-anchor="start" x="1839.12" y="-965.95" font-family="Times New Roman,serif" font-size="14.00">[String] InputButton</text>
<polygon fill="none" stroke="black" points="1743.25,-959.5 1743.25,-1072.5 2047.5,-1072.5 2047.5,-959.5 1743.25,-959.5"/>
</g>
<!-- 5575&#45;&gt;5578 -->
<g id="edge9" class="edge">
<title>5575&#45;&gt;5578</title>
<path fill="none" stroke="firebrick" stroke-width="2" d="M1747.39,-1135.16C1767.51,-1119.09 1790.25,-1100.94 1811.75,-1083.77"/>
<polygon fill="firebrick" stroke="firebrick" stroke-width="2" points="1812.57,-1087.6 1818.2,-1078.62 1808.2,-1082.13 1812.57,-1087.6"/>
</g>
<!-- 5587 -->
<g id="node11" class="node">
<title>5587</title>
<polygon fill="none" stroke="black" stroke-width="2" points="1899.62,-665.75 1625.12,-665.75 1625.12,-589 1899.62,-589 1899.62,-665.75"/>
<polygon fill="none" stroke="black" points="1634.12,-638.25 1634.12,-660.75 1890.62,-660.75 1890.62,-638.25 1634.12,-638.25"/>
<text text-anchor="start" x="1702" y="-645.45" font-family="Times New Roman,serif" font-weight="bold" font-size="14.00">SeqOneShotEnd (3)</text>
<polygon fill="none" stroke="black" points="1634.12,-615.75 1634.12,-638.25 1890.62,-638.25 1890.62,-615.75 1634.12,-615.75"/>
<text text-anchor="start" x="1730.5" y="-622.95" font-family="Times New Roman,serif" font-weight="bold" font-size="14.00">Properties</text>
<polygon fill="none" stroke="black" points="1634.12,-594 1634.12,-615.75 1890.62,-615.75 1890.62,-594 1634.12,-594"/>
<text text-anchor="start" x="1637.12" y="-599.45" font-family="Times New Roman,serif" font-size="14.00">[Bool] ExecuteEveryFrame (default = False) </text>
<polygon fill="none" stroke="black" points="1633.12,-593 1633.12,-661.75 1891.62,-661.75 1891.62,-593 1633.12,-593"/>
</g>
<!-- 5584&#45;&gt;5587 -->
<g id="edge11" class="edge">
<title>5584&#45;&gt;5587</title>
<path fill="none" stroke="firebrick" stroke-width="2" d="M1890.69,-717.14C1868.25,-701.62 1845.91,-686.16 1826.31,-672.61"/>
<polygon fill="firebrick" stroke="firebrick" stroke-width="2" points="1829.63,-670.65 1819.42,-667.84 1825.65,-676.4 1829.63,-670.65"/>
<text text-anchor="middle" x="1901.5" y="-686.2" font-family="Times New Roman,serif" font-size="14.00" fill="firebrick">Pa_Button_00</text>
</g>
<!-- 5599 -->
<g id="node12" class="node">
<title>5599</title>
<polygon fill="none" stroke="black" stroke-width="2" points="2224.62,-665.75 1950.12,-665.75 1950.12,-589 2224.62,-589 2224.62,-665.75"/>
<polygon fill="none" stroke="black" points="1959.12,-638.25 1959.12,-660.75 2215.62,-660.75 2215.62,-638.25 1959.12,-638.25"/>
<text text-anchor="start" x="2027" y="-645.45" font-family="Times New Roman,serif" font-weight="bold" font-size="14.00">SeqOneShotEnd (4)</text>
<polygon fill="none" stroke="black" points="1959.12,-615.75 1959.12,-638.25 2215.62,-638.25 2215.62,-615.75 1959.12,-615.75"/>
<text text-anchor="start" x="2055.5" y="-622.95" font-family="Times New Roman,serif" font-weight="bold" font-size="14.00">Properties</text>
<polygon fill="none" stroke="black" points="1959.12,-594 1959.12,-615.75 2215.62,-615.75 2215.62,-594 1959.12,-594"/>
<text text-anchor="start" x="1962.12" y="-599.45" font-family="Times New Roman,serif" font-size="14.00">[Bool] ExecuteEveryFrame (default = False) </text>
<polygon fill="none" stroke="black" points="1958.12,-593 1958.12,-661.75 2216.62,-661.75 2216.62,-593 1958.12,-593"/>
</g>
<!-- 5584&#45;&gt;5599 -->
<g id="edge12" class="edge">
<title>5584&#45;&gt;5599</title>
<path fill="none" stroke="firebrick" stroke-width="2" d="M2016.52,-717.28C2018.05,-705.66 2020.9,-694.2 2025.62,-683.75 2026.96,-680.8 2028.54,-677.94 2030.31,-675.17"/>
<polygon fill="firebrick" stroke="firebrick" stroke-width="2" points="2032.03,-678.72 2035.17,-668.6 2026.41,-674.56 2032.03,-678.72"/>
<text text-anchor="middle" x="2045.25" y="-686.2" font-family="Times New Roman,serif" font-size="14.00" fill="firebrick">Default</text>
</g>
<!-- 5584&#45;&gt;5599 -->
<g id="edge13" class="edge">
<title>5584&#45;&gt;5599</title>
<path fill="none" stroke="firebrick" stroke-width="2" d="M2059.21,-717.23C2061.33,-711.24 2063.4,-705.29 2065.38,-699.5 2067.84,-692.27 2070.34,-684.58 2072.72,-677.04"/>
<polygon fill="firebrick" stroke="firebrick" stroke-width="2" points="2075.58,-679.63 2075.22,-669.04 2068.9,-677.54 2075.58,-679.63"/>
<text text-anchor="middle" x="2110.5" y="-686.2" font-family="Times New Roman,serif" font-size="14.00" fill="firebrick">Pa_Button_01</text>
</g>
<!-- 5578&#45;&gt;5584 -->
<g id="edge10" class="edge">
<title>5578:5630&#45;&gt;5584:5633</title>
<path fill="none" stroke="#008000" stroke-dasharray="5,2" d="M2047.38,-971C2082.48,-971 2077.63,-937.25 2109.12,-921.75 2139.16,-906.97 2161.6,-930.09 2182.25,-903.75 2231.91,-840.39 2238.99,-779.73 2182.25,-722.62 2171.77,-712.08 2065.62,-706.09 2033.52,-715.19"/>
<polygon fill="#008000" stroke="#008000" points="2031.78,-712.14 2025.61,-720.75 2035.81,-717.86 2031.78,-712.14"/>
<text text-anchor="middle" x="2123" y="-924.2" font-family="Times New Roman,serif" font-size="14.00" fill="#008000">Input</text>
</g>
<!-- 5590 -->
<g id="node13" class="node">
<title>5590</title>
<polygon fill="none" stroke="black" stroke-width="2" points="1716.62,-537.25 1430.12,-537.25 1430.12,-330 1716.62,-330 1716.62,-537.25"/>
<polygon fill="none" stroke="black" points="1439.12,-509.75 1439.12,-532.25 1707.62,-532.25 1707.62,-509.75 1439.12,-509.75"/>
<text text-anchor="start" x="1498.75" y="-516.95" font-family="Times New Roman,serif" font-weight="bold" font-size="14.00">Element_Sequential (19)</text>
<polygon fill="none" stroke="black" points="1439.12,-487.25 1439.12,-509.75 1707.62,-509.75 1707.62,-487.25 1439.12,-487.25"/>
<text text-anchor="start" x="1541.5" y="-494.45" font-family="Times New Roman,serif" font-weight="bold" font-size="14.00">Properties</text>
<polygon fill="none" stroke="black" points="1439.12,-465.5 1439.12,-487.25 1707.62,-487.25 1707.62,-465.5 1439.12,-465.5"/>
<text text-anchor="start" x="1489.38" y="-470.95" font-family="Times New Roman,serif" font-size="14.00">[Int] BusyPolicy (default = 0) </text>
<polygon fill="none" stroke="black" points="1439.12,-443.75 1439.12,-465.5 1707.62,-465.5 1707.62,-443.75 1439.12,-443.75"/>
<text text-anchor="start" x="1492.38" y="-449.2" font-family="Times New Roman,serif" font-size="14.00">[Int] NumLoop (default = 0) </text>
<polygon fill="none" stroke="black" points="1439.12,-422 1439.12,-443.75 1707.62,-443.75 1707.62,-422 1439.12,-422"/>
<text text-anchor="start" x="1491.62" y="-427.45" font-family="Times New Roman,serif" font-size="14.00">[Int] PlayPolicy (default = 0) </text>
<polygon fill="none" stroke="black" points="1439.12,-400.25 1439.12,-422 1707.62,-422 1707.62,-400.25 1439.12,-400.25"/>
<text text-anchor="start" x="1486" y="-405.7" font-family="Times New Roman,serif" font-size="14.00">[Int] ResultPolicy (default = 0) </text>
<polygon fill="none" stroke="black" points="1439.12,-378.5 1439.12,-400.25 1707.62,-400.25 1707.62,-378.5 1439.12,-378.5"/>
<text text-anchor="start" x="1466.88" y="-383.95" font-family="Times New Roman,serif" font-size="14.00">[Bool] IsDelayJudge (default = False) </text>
<polygon fill="none" stroke="black" points="1439.12,-356.75 1439.12,-378.5 1707.62,-378.5 1707.62,-356.75 1439.12,-356.75"/>
<text text-anchor="start" x="1483.38" y="-362.2" font-family="Times New Roman,serif" font-size="14.00">[Bool] IsLoop (default = False) </text>
<polygon fill="none" stroke="black" points="1439.12,-335 1439.12,-356.75 1707.62,-356.75 1707.62,-335 1439.12,-335"/>
<text text-anchor="start" x="1442.12" y="-340.45" font-family="Times New Roman,serif" font-size="14.00">[Bool] IsUpdateNextInFrame (default = False) </text>
<polygon fill="none" stroke="black" points="1438.12,-334 1438.12,-533.25 1708.62,-533.25 1708.62,-334 1438.12,-334"/>
</g>
<!-- 5587&#45;&gt;5590 -->
<g id="edge14" class="edge">
<title>5587&#45;&gt;5590</title>
<path fill="none" stroke="midnightblue" stroke-width="2" d="M1725.49,-588.95C1712.95,-576.23 1698.23,-561.3 1682.98,-545.82"/>
<polygon fill="midnightblue" stroke="midnightblue" stroke-width="2" points="1686.59,-544.5 1677.08,-539.84 1681.61,-549.42 1686.59,-544.5"/>
<text text-anchor="middle" x="1734.5" y="-557.7" font-family="Times New Roman,serif" font-size="14.00" fill="midnightblue">Transition</text>
</g>
<!-- 5602 -->
<g id="node16" class="node">
<title>5602</title>
<polygon fill="none" stroke="black" stroke-width="2" points="2262.62,-537.25 1976.12,-537.25 1976.12,-330 2262.62,-330 2262.62,-537.25"/>
<polygon fill="none" stroke="black" points="1985.12,-509.75 1985.12,-532.25 2253.62,-532.25 2253.62,-509.75 1985.12,-509.75"/>
<text text-anchor="start" x="2044.75" y="-516.95" font-family="Times New Roman,serif" font-weight="bold" font-size="14.00">Element_Sequential (10)</text>
<polygon fill="none" stroke="black" points="1985.12,-487.25 1985.12,-509.75 2253.62,-509.75 2253.62,-487.25 1985.12,-487.25"/>
<text text-anchor="start" x="2087.5" y="-494.45" font-family="Times New Roman,serif" font-weight="bold" font-size="14.00">Properties</text>
<polygon fill="none" stroke="black" points="1985.12,-465.5 1985.12,-487.25 2253.62,-487.25 2253.62,-465.5 1985.12,-465.5"/>
<text text-anchor="start" x="2035.38" y="-470.95" font-family="Times New Roman,serif" font-size="14.00">[Int] BusyPolicy (default = 0) </text>
<polygon fill="none" stroke="black" points="1985.12,-443.75 1985.12,-465.5 2253.62,-465.5 2253.62,-443.75 1985.12,-443.75"/>
<text text-anchor="start" x="2038.38" y="-449.2" font-family="Times New Roman,serif" font-size="14.00">[Int] NumLoop (default = 0) </text>
<polygon fill="none" stroke="black" points="1985.12,-422 1985.12,-443.75 2253.62,-443.75 2253.62,-422 1985.12,-422"/>
<text text-anchor="start" x="2037.62" y="-427.45" font-family="Times New Roman,serif" font-size="14.00">[Int] PlayPolicy (default = 0) </text>
<polygon fill="none" stroke="black" points="1985.12,-400.25 1985.12,-422 2253.62,-422 2253.62,-400.25 1985.12,-400.25"/>
<text text-anchor="start" x="2032" y="-405.7" font-family="Times New Roman,serif" font-size="14.00">[Int] ResultPolicy (default = 0) </text>
<polygon fill="none" stroke="black" points="1985.12,-378.5 1985.12,-400.25 2253.62,-400.25 2253.62,-378.5 1985.12,-378.5"/>
<text text-anchor="start" x="2012.88" y="-383.95" font-family="Times New Roman,serif" font-size="14.00">[Bool] IsDelayJudge (default = False) </text>
<polygon fill="none" stroke="black" points="1985.12,-356.75 1985.12,-378.5 2253.62,-378.5 2253.62,-356.75 1985.12,-356.75"/>
<text text-anchor="start" x="2029.38" y="-362.2" font-family="Times New Roman,serif" font-size="14.00">[Bool] IsLoop (default = False) </text>
<polygon fill="none" stroke="black" points="1985.12,-335 1985.12,-356.75 2253.62,-356.75 2253.62,-335 1985.12,-335"/>
<text text-anchor="start" x="1988.12" y="-340.45" font-family="Times New Roman,serif" font-size="14.00">[Bool] IsUpdateNextInFrame (default = False) </text>
<polygon fill="none" stroke="black" points="1984.12,-334 1984.12,-533.25 2254.62,-533.25 2254.62,-334 1984.12,-334"/>
</g>
<!-- 5599&#45;&gt;5602 -->
<g id="edge17" class="edge">
<title>5599&#45;&gt;5602</title>
<path fill="none" stroke="midnightblue" stroke-width="2" d="M2093.62,-588.95C2095.61,-577.05 2097.92,-563.21 2100.32,-548.8"/>
<polygon fill="midnightblue" stroke="midnightblue" stroke-width="2" points="2103.48,-551.11 2101.68,-540.67 2096.58,-549.96 2103.48,-551.11"/>
<text text-anchor="middle" x="2126.5" y="-557.7" font-family="Times New Roman,serif" font-size="14.00" fill="midnightblue">Transition</text>
</g>
<!-- 5593 -->
<g id="node14" class="node">
<title>5593</title>
<polygon fill="none" stroke="black" stroke-width="2" points="1417.75,-245.25 1183,-245.25 1183,-168.5 1417.75,-168.5 1417.75,-245.25"/>
<polygon fill="none" stroke="black" points="1192,-217.75 1192,-240.25 1408.75,-240.25 1408.75,-217.75 1192,-217.75"/>
<text text-anchor="start" x="1195" y="-224.95" font-family="Times New Roman,serif" font-weight="bold" font-size="14.00">SeqExecuteGenericWaitFrame (8)</text>
<polygon fill="none" stroke="black" points="1192,-195.25 1192,-217.75 1408.75,-217.75 1408.75,-195.25 1192,-195.25"/>
<text text-anchor="start" x="1268.5" y="-202.45" font-family="Times New Roman,serif" font-weight="bold" font-size="14.00">Properties</text>
<polygon fill="none" stroke="black" points="1192,-173.5 1192,-195.25 1408.75,-195.25 1408.75,-173.5 1192,-173.5"/>
<text text-anchor="start" x="1227.25" y="-178.95" font-family="Times New Roman,serif" font-size="14.00">[Int] Frame (default = 10) </text>
<polygon fill="none" stroke="black" points="1191,-172.5 1191,-241.25 1409.75,-241.25 1409.75,-172.5 1191,-172.5"/>
</g>
<!-- 5590&#45;&gt;5593 -->
<g id="edge15" class="edge">
<title>5590&#45;&gt;5593</title>
<path fill="none" stroke="firebrick" stroke-width="2" d="M1448.46,-329.79C1415.66,-302.79 1381.97,-275.05 1355.02,-252.86"/>
<polygon fill="firebrick" stroke="firebrick" stroke-width="2" points="1358.44,-251.14 1348.49,-247.49 1353.99,-256.54 1358.44,-251.14"/>
</g>
<!-- 5596 -->
<g id="node15" class="node">
<title>5596</title>
<polygon fill="none" stroke="black" stroke-width="2" points="1711.38,-245.25 1435.38,-245.25 1435.38,-168.5 1711.38,-168.5 1711.38,-245.25"/>
<polygon fill="none" stroke="black" points="1444.38,-217.75 1444.38,-240.25 1702.38,-240.25 1702.38,-217.75 1444.38,-217.75"/>
<text text-anchor="start" x="1506.25" y="-224.95" font-family="Times New Roman,serif" font-weight="bold" font-size="14.00">Element_StateEnd (5)</text>
<polygon fill="none" stroke="black" points="1444.38,-195.25 1444.38,-217.75 1702.38,-217.75 1702.38,-195.25 1444.38,-195.25"/>
<text text-anchor="start" x="1541.5" y="-202.45" font-family="Times New Roman,serif" font-weight="bold" font-size="14.00">Properties</text>
<polygon fill="none" stroke="black" points="1444.38,-173.5 1444.38,-195.25 1702.38,-195.25 1702.38,-173.5 1444.38,-173.5"/>
<text text-anchor="start" x="1447.38" y="-178.95" font-family="Times New Roman,serif" font-size="14.00">[String] TransitionCommand (default = Yes) </text>
<polygon fill="none" stroke="black" points="1443.38,-172.5 1443.38,-241.25 1703.38,-241.25 1703.38,-172.5 1443.38,-172.5"/>
</g>
<!-- 5590&#45;&gt;5596 -->
<g id="edge16" class="edge">
<title>5590&#45;&gt;5596</title>
<path fill="none" stroke="midnightblue" stroke-width="2" d="M1573.38,-329.79C1573.38,-304.43 1573.38,-278.42 1573.38,-256.97"/>
<polygon fill="midnightblue" stroke="midnightblue" stroke-width="2" points="1576.88,-258.59 1573.38,-248.59 1569.88,-258.59 1576.88,-258.59"/>
<text text-anchor="middle" x="1601.5" y="-298.7" font-family="Times New Roman,serif" font-size="14.00" fill="midnightblue">Transition</text>
</g>
<!-- 5605 -->
<g id="node17" class="node">
<title>5605</title>
<polygon fill="none" stroke="black" stroke-width="2" points="1963.75,-245.25 1729,-245.25 1729,-168.5 1963.75,-168.5 1963.75,-245.25"/>
<polygon fill="none" stroke="black" points="1738,-217.75 1738,-240.25 1954.75,-240.25 1954.75,-217.75 1738,-217.75"/>
<text text-anchor="start" x="1741" y="-224.95" font-family="Times New Roman,serif" font-weight="bold" font-size="14.00">SeqExecuteGenericWaitFrame (7)</text>
<polygon fill="none" stroke="black" points="1738,-195.25 1738,-217.75 1954.75,-217.75 1954.75,-195.25 1738,-195.25"/>
<text text-anchor="start" x="1814.5" y="-202.45" font-family="Times New Roman,serif" font-weight="bold" font-size="14.00">Properties</text>
<polygon fill="none" stroke="black" points="1738,-173.5 1738,-195.25 1954.75,-195.25 1954.75,-173.5 1738,-173.5"/>
<text text-anchor="start" x="1773.25" y="-178.95" font-family="Times New Roman,serif" font-size="14.00">[Int] Frame (default = 10) </text>
<polygon fill="none" stroke="black" points="1737,-172.5 1737,-241.25 1955.75,-241.25 1955.75,-172.5 1737,-172.5"/>
</g>
<!-- 5602&#45;&gt;5605 -->
<g id="edge18" class="edge">
<title>5602&#45;&gt;5605</title>
<path fill="none" stroke="firebrick" stroke-width="2" d="M1994.46,-329.79C1961.66,-302.79 1927.97,-275.05 1901.02,-252.86"/>
<polygon fill="firebrick" stroke="firebrick" stroke-width="2" points="1904.44,-251.14 1894.49,-247.49 1899.99,-256.54 1904.44,-251.14"/>
</g>
<!-- 5608 -->
<g id="node18" class="node">
<title>5608</title>
<polygon fill="none" stroke="black" stroke-width="2" points="2256.62,-278.25 1982.12,-278.25 1982.12,-135.5 2256.62,-135.5 2256.62,-278.25"/>
<polygon fill="none" stroke="black" points="1991.12,-250.75 1991.12,-273.25 2247.62,-273.25 2247.62,-250.75 1991.12,-250.75"/>
<text text-anchor="start" x="2019.25" y="-257.95" font-family="Times New Roman,serif" font-weight="bold" font-size="14.00">SeqOneShotSetLayerVisible (21)</text>
<polygon fill="none" stroke="black" points="1991.12,-228.25 1991.12,-250.75 2247.62,-250.75 2247.62,-228.25 1991.12,-228.25"/>
<text text-anchor="start" x="2087.5" y="-235.45" font-family="Times New Roman,serif" font-weight="bold" font-size="14.00">Properties</text>
<polygon fill="none" stroke="black" points="1991.12,-206.5 1991.12,-228.25 2247.62,-228.25 2247.62,-206.5 1991.12,-206.5"/>
<text text-anchor="start" x="1994.12" y="-211.95" font-family="Times New Roman,serif" font-size="14.00">[Bool] ExecuteEveryFrame (default = False) </text>
<polygon fill="none" stroke="black" points="1991.12,-184 1991.12,-206.5 2247.62,-206.5 2247.62,-184 1991.12,-184"/>
<text text-anchor="start" x="2100.25" y="-191.2" font-family="Times New Roman,serif" font-weight="bold" font-size="14.00">Inputs</text>
<polygon fill="none" stroke="black" points="1991.12,-162.25 1991.12,-184 2247.62,-184 2247.62,-162.25 1991.12,-162.25"/>
<text text-anchor="start" x="2013.62" y="-167.7" font-family="Times New Roman,serif" font-size="14.00">[Int] LayerTag (default = 460120899) </text>
<polygon fill="none" stroke="black" points="1991.12,-140.5 1991.12,-162.25 2247.62,-162.25 2247.62,-140.5 1991.12,-140.5"/>
<text text-anchor="start" x="2027.12" y="-145.95" font-family="Times New Roman,serif" font-size="14.00">[Bool] IsVisible (default = True) </text>
<polygon fill="none" stroke="black" points="1990.12,-139.5 1990.12,-274.25 2248.62,-274.25 2248.62,-139.5 1990.12,-139.5"/>
</g>
<!-- 5602&#45;&gt;5608 -->
<g id="edge19" class="edge">
<title>5602&#45;&gt;5608</title>
<path fill="none" stroke="firebrick" stroke-width="2" d="M2119.38,-329.79C2119.38,-316.38 2119.38,-302.79 2119.38,-289.78"/>
<polygon fill="firebrick" stroke="firebrick" stroke-width="2" points="2122.88,-291.55 2119.38,-281.55 2115.88,-291.55 2122.88,-291.55"/>
</g>
<!-- 5611 -->
<g id="node19" class="node">
<title>5611</title>
<polygon fill="none" stroke="black" stroke-width="2" points="2473.75,-256.12 2275,-256.12 2275,-157.62 2473.75,-157.62 2473.75,-256.12"/>
<polygon fill="none" stroke="black" points="2284,-228.62 2284,-251.12 2464.75,-251.12 2464.75,-228.62 2284,-228.62"/>
<text text-anchor="start" x="2290.75" y="-235.82" font-family="Times New Roman,serif" font-weight="bold" font-size="14.00">Element_Simultaneous (15)</text>
<polygon fill="none" stroke="black" points="2284,-206.12 2284,-228.62 2464.75,-228.62 2464.75,-206.12 2284,-206.12"/>
<text text-anchor="start" x="2342.5" y="-213.32" font-family="Times New Roman,serif" font-weight="bold" font-size="14.00">Properties</text>
<polygon fill="none" stroke="black" points="2284,-184.38 2284,-206.12 2464.75,-206.12 2464.75,-184.38 2284,-184.38"/>
<text text-anchor="start" x="2293.38" y="-189.82" font-family="Times New Roman,serif" font-size="14.00">[Int] EndPolicy (default = 0) </text>
<polygon fill="none" stroke="black" points="2284,-162.62 2284,-184.38 2464.75,-184.38 2464.75,-162.62 2284,-162.62"/>
<text text-anchor="start" x="2287" y="-168.07" font-family="Times New Roman,serif" font-size="14.00">[Int] ResultPolicy (default = 0) </text>
<polygon fill="none" stroke="black" points="2283,-161.62 2283,-252.12 2465.75,-252.12 2465.75,-161.62 2283,-161.62"/>
</g>
<!-- 5602&#45;&gt;5611 -->
<g id="edge20" class="edge">
<title>5602&#45;&gt;5611</title>
<path fill="none" stroke="firebrick" stroke-width="2" d="M2236.05,-329.79C2261.75,-307.14 2288.04,-283.97 2310.71,-263.99"/>
<polygon fill="firebrick" stroke="firebrick" stroke-width="2" points="2311.75,-267.74 2316.94,-258.5 2307.12,-262.49 2311.75,-267.74"/>
</g>
<!-- 5620 -->
<g id="node20" class="node">
<title>5620</title>
<polygon fill="none" stroke="black" stroke-width="2" points="2763.12,-245.25 2491.62,-245.25 2491.62,-168.5 2763.12,-168.5 2763.12,-245.25"/>
<polygon fill="none" stroke="black" points="2500.62,-217.75 2500.62,-240.25 2754.12,-240.25 2754.12,-217.75 2500.62,-217.75"/>
<text text-anchor="start" x="2560.25" y="-224.95" font-family="Times New Roman,serif" font-weight="bold" font-size="14.00">Element_StateEnd (6)</text>
<polygon fill="none" stroke="black" points="2500.62,-195.25 2500.62,-217.75 2754.12,-217.75 2754.12,-195.25 2500.62,-195.25"/>
<text text-anchor="start" x="2595.5" y="-202.45" font-family="Times New Roman,serif" font-weight="bold" font-size="14.00">Properties</text>
<polygon fill="none" stroke="black" points="2500.62,-173.5 2500.62,-195.25 2754.12,-195.25 2754.12,-173.5 2500.62,-173.5"/>
<text text-anchor="start" x="2503.62" y="-178.95" font-family="Times New Roman,serif" font-size="14.00">[String] TransitionCommand (default = No) </text>
<polygon fill="none" stroke="black" points="2499.62,-172.5 2499.62,-241.25 2755.12,-241.25 2755.12,-172.5 2499.62,-172.5"/>
</g>
<!-- 5602&#45;&gt;5620 -->
<g id="edge21" class="edge">
<title>5602&#45;&gt;5620</title>
<path fill="none" stroke="midnightblue" stroke-width="2" d="M2262.75,-373.58C2329.81,-345.48 2410.53,-310.94 2482.38,-278.25 2501.48,-269.56 2521.84,-259.92 2541.08,-250.63"/>
<polygon fill="midnightblue" stroke="midnightblue" stroke-width="2" points="2541.13,-254.49 2548.61,-246.98 2538.08,-248.19 2541.13,-254.49"/>
<text text-anchor="middle" x="2461.5" y="-298.7" font-family="Times New Roman,serif" font-size="14.00" fill="midnightblue">Transition</text>
</g>
<!-- 5614 -->
<g id="node21" class="node">
<title>5614</title>
<polygon fill="none" stroke="black" stroke-width="2" points="2368.5,-98.5 2048.25,-98.5 2048.25,0 2368.5,0 2368.5,-98.5"/>
<polygon fill="none" stroke="black" points="2057.25,-71 2057.25,-93.5 2359.5,-93.5 2359.5,-71 2057.25,-71"/>
<text text-anchor="start" x="2086.5" y="-78.2" font-family="Times New Roman,serif" font-weight="bold" font-size="14.00">SeqExecuteCloseAndUnloadScreen (12)</text>
<polygon fill="none" stroke="black" points="2057.25,-48.5 2057.25,-71 2359.5,-71 2359.5,-48.5 2057.25,-48.5"/>
<text text-anchor="start" x="2189.25" y="-55.7" font-family="Times New Roman,serif" font-weight="bold" font-size="14.00">Inputs</text>
<polygon fill="none" stroke="black" points="2057.25,-26.75 2057.25,-48.5 2359.5,-48.5 2359.5,-26.75 2057.25,-26.75"/>
<text text-anchor="start" x="2090.62" y="-32.2" font-family="Times New Roman,serif" font-size="14.00">[Bool] IsUnloadRequest (default = False) </text>
<polygon fill="none" stroke="black" points="2057.25,-5 2057.25,-26.75 2359.5,-26.75 2359.5,-5 2057.25,-5"/>
<text text-anchor="start" x="2060.25" y="-10.45" font-family="Times New Roman,serif" font-size="14.00">[String] ScreenName (default = SystemWindow_00) </text>
<polygon fill="none" stroke="black" points="2056.25,-4 2056.25,-94.5 2360.5,-94.5 2360.5,-4 2056.25,-4"/>
</g>
<!-- 5611&#45;&gt;5614 -->
<g id="edge22" class="edge">
<title>5611&#45;&gt;5614</title>
<path fill="none" stroke="firebrick" stroke-width="2" d="M2322.76,-157.49C2305.51,-141.32 2286.14,-123.16 2268.31,-106.44"/>
<polygon fill="firebrick" stroke="firebrick" stroke-width="2" points="2272.14,-105.23 2262.45,-100.95 2267.35,-110.34 2272.14,-105.23"/>
</g>
<!-- 5617 -->
<g id="node22" class="node">
<title>5617</title>
<polygon fill="none" stroke="black" stroke-width="2" points="2693.75,-98.5 2387,-98.5 2387,0 2693.75,0 2693.75,-98.5"/>
<polygon fill="none" stroke="black" points="2396,-71 2396,-93.5 2684.75,-93.5 2684.75,-71 2396,-71"/>
<text text-anchor="start" x="2418.5" y="-78.2" font-family="Times New Roman,serif" font-weight="bold" font-size="14.00">SeqExecuteCloseAndUnloadScreen (17)</text>
<polygon fill="none" stroke="black" points="2396,-48.5 2396,-71 2684.75,-71 2684.75,-48.5 2396,-48.5"/>
<text text-anchor="start" x="2521.25" y="-55.7" font-family="Times New Roman,serif" font-weight="bold" font-size="14.00">Inputs</text>
<polygon fill="none" stroke="black" points="2396,-26.75 2396,-48.5 2684.75,-48.5 2684.75,-26.75 2396,-26.75"/>
<text text-anchor="start" x="2422.62" y="-32.2" font-family="Times New Roman,serif" font-size="14.00">[Bool] IsUnloadRequest (default = False) </text>
<polygon fill="none" stroke="black" points="2396,-5 2396,-26.75 2684.75,-26.75 2684.75,-5 2396,-5"/>
<text text-anchor="start" x="2399" y="-10.45" font-family="Times New Roman,serif" font-size="14.00">[String] ScreenName (default = TitleMenuBG_00) </text>
<polygon fill="none" stroke="black" points="2395,-4 2395,-94.5 2685.75,-94.5 2685.75,-4 2395,-4"/>
</g>
<!-- 5611&#45;&gt;5617 -->
<g id="edge23" class="edge">
<title>5611&#45;&gt;5617</title>
<path fill="none" stroke="firebrick" stroke-width="2" d="M2425.99,-157.49C2443.24,-141.32 2462.61,-123.16 2480.44,-106.44"/>
<polygon fill="firebrick" stroke="firebrick" stroke-width="2" points="2481.4,-110.34 2486.3,-100.95 2476.61,-105.23 2481.4,-110.34"/>
</g>
<!-- 5640 -->
<g id="node23" class="node">
<title>5640</title>
<ellipse fill="mediumpurple" stroke="mediumpurple" cx="1284.38" cy="-1555.5" rx="31.39" ry="18"/>
<text text-anchor="start" x="1269.38" y="-1551.45" font-family="Times New Roman,serif" font-weight="bold" font-size="14.00" fill="white">Root</text>
</g>
<!-- 5640&#45;&gt;5557 -->
<g id="edge24" class="edge">
<title>5640&#45;&gt;5557</title>
<path fill="none" stroke="black" d="M1284.38,-1537.14C1284.38,-1530.27 1284.38,-1521.76 1284.38,-1512.37"/>
<polygon fill="black" stroke="black" points="1287.88,-1512.48 1284.38,-1502.48 1280.88,-1512.48 1287.88,-1512.48"/>
</g>
</g>
</svg>
