<?xml version="1.0" encoding="UTF-8" standalone="no"?>
<!DOCTYPE svg PUBLIC "-//W3C//DTD SVG 1.1//EN"
 "http://www.w3.org/Graphics/SVG/1.1/DTD/svg11.dtd">
<!-- Generated by graphviz version 9.0.0 (20230911.1827)
 -->
<!-- Title: CreateSceneComponents.module Pages: 1 -->
<svg width="1421pt" height="425pt"
 viewBox="0.00 0.00 1421.12 425.25" xmlns="http://www.w3.org/2000/svg" xmlns:xlink="http://www.w3.org/1999/xlink">
<g id="graph0" class="graph" transform="scale(1 1) rotate(0) translate(4 421.25)">
<title>CreateSceneComponents.module</title>
<polygon fill="lightgray" stroke="none" points="-4,4 -4,-421.25 1417.12,-421.25 1417.12,4 -4,4"/>
<!-- 5864 -->
<g id="node1" class="node">
<title>5864</title>
<polygon fill="none" stroke="black" stroke-width="2" points="787.25,-344.25 584,-344.25 584,-308.25 787.25,-308.25 787.25,-344.25"/>
<polygon fill="none" stroke="black" points="593,-315 593,-337.5 778.25,-337.5 778.25,-315 593,-315"/>
<text text-anchor="start" x="596" y="-322.2" font-family="Times New Roman,serif" font-weight="bold" font-size="14.00">LowPrioSequence.module (0)</text>
<polygon fill="none" stroke="black" points="592,-314 592,-338.5 779.25,-338.5 779.25,-314 592,-314"/>
</g>
<!-- 5867 -->
<g id="node2" class="node">
<title>5867</title>
<polygon fill="none" stroke="black" stroke-width="2" points="785,-256.5 586.25,-256.5 586.25,-158 785,-158 785,-256.5"/>
<polygon fill="none" stroke="black" points="595.25,-229 595.25,-251.5 776,-251.5 776,-229 595.25,-229"/>
<text text-anchor="start" x="605.75" y="-236.2" font-family="Times New Roman,serif" font-weight="bold" font-size="14.00">Element_Simultaneous (1)</text>
<polygon fill="none" stroke="black" points="595.25,-206.5 595.25,-229 776,-229 776,-206.5 595.25,-206.5"/>
<text text-anchor="start" x="653.75" y="-213.7" font-family="Times New Roman,serif" font-weight="bold" font-size="14.00">Properties</text>
<polygon fill="none" stroke="black" points="595.25,-184.75 595.25,-206.5 776,-206.5 776,-184.75 595.25,-184.75"/>
<text text-anchor="start" x="604.62" y="-190.2" font-family="Times New Roman,serif" font-size="14.00">[Int] EndPolicy (default = 0) </text>
<polygon fill="none" stroke="black" points="595.25,-163 595.25,-184.75 776,-184.75 776,-163 595.25,-163"/>
<text text-anchor="start" x="598.25" y="-168.45" font-family="Times New Roman,serif" font-size="14.00">[Int] ResultPolicy (default = 0) </text>
<polygon fill="none" stroke="black" points="594.25,-162 594.25,-252.5 777,-252.5 777,-162 594.25,-162"/>
</g>
<!-- 5864&#45;&gt;5867 -->
<g id="edge1" class="edge">
<title>5864&#45;&gt;5867</title>
<path fill="none" stroke="firebrick" stroke-width="2" d="M685.62,-307.99C685.62,-297.25 685.62,-282.74 685.62,-268.11"/>
<polygon fill="firebrick" stroke="firebrick" stroke-width="2" points="689.13,-270 685.63,-260 682.13,-270 689.13,-270"/>
<text text-anchor="middle" x="725" y="-276.95" font-family="Times New Roman,serif" font-size="14.00" fill="firebrick">LowPrioChild</text>
</g>
<!-- 5870 -->
<g id="node3" class="node">
<title>5870</title>
<polygon fill="none" stroke="black" stroke-width="2" points="347.25,-121 0,-121 0,0 347.25,0 347.25,-121"/>
<polygon fill="none" stroke="black" points="9,-93.5 9,-116 338.25,-116 338.25,-93.5 9,-93.5"/>
<text text-anchor="start" x="51.38" y="-100.7" font-family="Times New Roman,serif" font-weight="bold" font-size="14.00">SeqOneShotCreateSceneComponent (2)</text>
<polygon fill="none" stroke="black" points="9,-71 9,-93.5 338.25,-93.5 338.25,-71 9,-71"/>
<text text-anchor="start" x="141.75" y="-78.2" font-family="Times New Roman,serif" font-weight="bold" font-size="14.00">Properties</text>
<polygon fill="none" stroke="black" points="9,-49.25 9,-71 338.25,-71 338.25,-49.25 9,-49.25"/>
<text text-anchor="start" x="48.38" y="-54.7" font-family="Times New Roman,serif" font-size="14.00">[Bool] ExecuteEveryFrame (default = False) </text>
<polygon fill="none" stroke="black" points="9,-26.75 9,-49.25 338.25,-49.25 338.25,-26.75 9,-26.75"/>
<text text-anchor="start" x="154.5" y="-33.95" font-family="Times New Roman,serif" font-weight="bold" font-size="14.00">Inputs</text>
<polygon fill="none" stroke="black" points="9,-5 9,-26.75 338.25,-26.75 338.25,-5 9,-5"/>
<text text-anchor="start" x="12" y="-10.45" font-family="Times New Roman,serif" font-size="14.00">[String] ComponentName (default = TeraRigidBodyMgr) </text>
<polygon fill="none" stroke="black" points="8,-4 8,-117 339.25,-117 339.25,-4 8,-4"/>
</g>
<!-- 5867&#45;&gt;5870 -->
<g id="edge2" class="edge">
<title>5867&#45;&gt;5870</title>
<path fill="none" stroke="firebrick" stroke-width="2" d="M585.85,-182.07C523.21,-166.5 440.55,-145.24 358.47,-121.5"/>
<polygon fill="firebrick" stroke="firebrick" stroke-width="2" points="360.9,-118.56 350.32,-119.13 358.95,-125.28 360.9,-118.56"/>
</g>
<!-- 5873 -->
<g id="node4" class="node">
<title>5873</title>
<polygon fill="none" stroke="black" stroke-width="2" points="675.88,-121 365.38,-121 365.38,0 675.88,0 675.88,-121"/>
<polygon fill="none" stroke="black" points="374.38,-93.5 374.38,-116 666.88,-116 666.88,-93.5 374.38,-93.5"/>
<text text-anchor="start" x="398.38" y="-100.7" font-family="Times New Roman,serif" font-weight="bold" font-size="14.00">SeqOneShotCreateSceneComponent (3)</text>
<polygon fill="none" stroke="black" points="374.38,-71 374.38,-93.5 666.88,-93.5 666.88,-71 374.38,-71"/>
<text text-anchor="start" x="488.75" y="-78.2" font-family="Times New Roman,serif" font-weight="bold" font-size="14.00">Properties</text>
<polygon fill="none" stroke="black" points="374.38,-49.25 374.38,-71 666.88,-71 666.88,-49.25 374.38,-49.25"/>
<text text-anchor="start" x="395.38" y="-54.7" font-family="Times New Roman,serif" font-size="14.00">[Bool] ExecuteEveryFrame (default = False) </text>
<polygon fill="none" stroke="black" points="374.38,-26.75 374.38,-49.25 666.88,-49.25 666.88,-26.75 374.38,-26.75"/>
<text text-anchor="start" x="501.5" y="-33.95" font-family="Times New Roman,serif" font-weight="bold" font-size="14.00">Inputs</text>
<polygon fill="none" stroke="black" points="374.38,-5 374.38,-26.75 666.88,-26.75 666.88,-5 374.38,-5"/>
<text text-anchor="start" x="377.38" y="-10.45" font-family="Times New Roman,serif" font-size="14.00">[String] ComponentName (default = LocationMgr) </text>
<polygon fill="none" stroke="black" points="373.38,-4 373.38,-117 667.88,-117 667.88,-4 373.38,-4"/>
</g>
<!-- 5867&#45;&gt;5873 -->
<g id="edge3" class="edge">
<title>5867&#45;&gt;5873</title>
<path fill="none" stroke="firebrick" stroke-width="2" d="M630.22,-157.65C619.63,-148.35 608.37,-138.47 597.24,-128.72"/>
<polygon fill="firebrick" stroke="firebrick" stroke-width="2" points="600.88,-127.25 591.06,-123.29 596.27,-132.51 600.88,-127.25"/>
</g>
<!-- 5876 -->
<g id="node5" class="node">
<title>5876</title>
<polygon fill="none" stroke="black" stroke-width="2" points="1007.75,-121 693.5,-121 693.5,0 1007.75,0 1007.75,-121"/>
<polygon fill="none" stroke="black" points="702.5,-93.5 702.5,-116 998.75,-116 998.75,-93.5 702.5,-93.5"/>
<text text-anchor="start" x="728.38" y="-100.7" font-family="Times New Roman,serif" font-weight="bold" font-size="14.00">SeqOneShotCreateSceneComponent (4)</text>
<polygon fill="none" stroke="black" points="702.5,-71 702.5,-93.5 998.75,-93.5 998.75,-71 702.5,-71"/>
<text text-anchor="start" x="818.75" y="-78.2" font-family="Times New Roman,serif" font-weight="bold" font-size="14.00">Properties</text>
<polygon fill="none" stroke="black" points="702.5,-49.25 702.5,-71 998.75,-71 998.75,-49.25 702.5,-49.25"/>
<text text-anchor="start" x="725.38" y="-54.7" font-family="Times New Roman,serif" font-size="14.00">[Bool] ExecuteEveryFrame (default = False) </text>
<polygon fill="none" stroke="black" points="702.5,-26.75 702.5,-49.25 998.75,-49.25 998.75,-26.75 702.5,-26.75"/>
<text text-anchor="start" x="831.5" y="-33.95" font-family="Times New Roman,serif" font-weight="bold" font-size="14.00">Inputs</text>
<polygon fill="none" stroke="black" points="702.5,-5 702.5,-26.75 998.75,-26.75 998.75,-5 702.5,-5"/>
<text text-anchor="start" x="705.5" y="-10.45" font-family="Times New Roman,serif" font-size="14.00">[String] ComponentName (default = NavMeshMgr) </text>
<polygon fill="none" stroke="black" points="701.5,-4 701.5,-117 999.75,-117 999.75,-4 701.5,-4"/>
</g>
<!-- 5867&#45;&gt;5876 -->
<g id="edge4" class="edge">
<title>5867&#45;&gt;5876</title>
<path fill="none" stroke="firebrick" stroke-width="2" d="M741.03,-157.65C751.62,-148.35 762.88,-138.47 774.01,-128.72"/>
<polygon fill="firebrick" stroke="firebrick" stroke-width="2" points="774.98,-132.51 780.19,-123.29 770.37,-127.25 774.98,-132.51"/>
</g>
<!-- 5879 -->
<g id="node6" class="node">
<title>5879</title>
<polygon fill="none" stroke="black" stroke-width="2" points="1413.12,-121 1026.12,-121 1026.12,0 1413.12,0 1413.12,-121"/>
<polygon fill="none" stroke="black" points="1035.12,-93.5 1035.12,-116 1404.12,-116 1404.12,-93.5 1035.12,-93.5"/>
<text text-anchor="start" x="1097.38" y="-100.7" font-family="Times New Roman,serif" font-weight="bold" font-size="14.00">SeqOneShotCreateSceneComponent (5)</text>
<polygon fill="none" stroke="black" points="1035.12,-71 1035.12,-93.5 1404.12,-93.5 1404.12,-71 1035.12,-71"/>
<text text-anchor="start" x="1187.75" y="-78.2" font-family="Times New Roman,serif" font-weight="bold" font-size="14.00">Properties</text>
<polygon fill="none" stroke="black" points="1035.12,-49.25 1035.12,-71 1404.12,-71 1404.12,-49.25 1035.12,-49.25"/>
<text text-anchor="start" x="1094.38" y="-54.7" font-family="Times New Roman,serif" font-size="14.00">[Bool] ExecuteEveryFrame (default = False) </text>
<polygon fill="none" stroke="black" points="1035.12,-26.75 1035.12,-49.25 1404.12,-49.25 1404.12,-26.75 1035.12,-26.75"/>
<text text-anchor="start" x="1200.5" y="-33.95" font-family="Times New Roman,serif" font-weight="bold" font-size="14.00">Inputs</text>
<polygon fill="none" stroke="black" points="1035.12,-5 1035.12,-26.75 1404.12,-26.75 1404.12,-5 1035.12,-5"/>
<text text-anchor="start" x="1038.12" y="-10.45" font-family="Times New Roman,serif" font-size="14.00">[String] ComponentName (default = StaticCompoundBodyMgr) </text>
<polygon fill="none" stroke="black" points="1034.12,-4 1034.12,-117 1405.12,-117 1405.12,-4 1034.12,-4"/>
</g>
<!-- 5867&#45;&gt;5879 -->
<g id="edge5" class="edge">
<title>5867&#45;&gt;5879</title>
<path fill="none" stroke="firebrick" stroke-width="2" d="M785.43,-181.46C848.47,-165.58 931.89,-144.19 1014.82,-121.48"/>
<polygon fill="firebrick" stroke="firebrick" stroke-width="2" points="1014.09,-125.31 1022.8,-119.29 1012.23,-118.56 1014.09,-125.31"/>
</g>
<!-- 5884 -->
<g id="node7" class="node">
<title>5884</title>
<ellipse fill="mediumpurple" stroke="mediumpurple" cx="685.62" cy="-399.25" rx="31.39" ry="18"/>
<text text-anchor="start" x="670.62" y="-395.2" font-family="Times New Roman,serif" font-weight="bold" font-size="14.00" fill="white">Root</text>
</g>
<!-- 5884&#45;&gt;5864 -->
<g id="edge6" class="edge">
<title>5884&#45;&gt;5864</title>
<path fill="none" stroke="black" d="M685.62,-381.06C685.62,-373.48 685.62,-364.35 685.62,-355.79"/>
<polygon fill="black" stroke="black" points="689.13,-355.79 685.63,-345.79 682.13,-355.79 689.13,-355.79"/>
</g>
</g>
</svg>
