<?xml version="1.0" encoding="UTF-8" standalone="no"?>
<!DOCTYPE svg PUBLIC "-//W3C//DTD SVG 1.1//EN"
 "http://www.w3.org/Graphics/SVG/1.1/DTD/svg11.dtd">
<!-- Generated by graphviz version 9.0.0 (20230911.1827)
 -->
<!-- Title: FastLoadOff.module Pages: 1 -->
<svg width="582pt" height="336pt"
 viewBox="0.00 0.00 582.25 335.50" xmlns="http://www.w3.org/2000/svg" xmlns:xlink="http://www.w3.org/1999/xlink">
<g id="graph0" class="graph" transform="scale(1 1) rotate(0) translate(4 331.5)">
<title>FastLoadOff.module</title>
<polygon fill="lightgray" stroke="none" points="-4,4 -4,-331.5 578.25,-331.5 578.25,4 -4,4"/>
<!-- 7076 -->
<g id="node1" class="node">
<title>7076</title>
<polygon fill="none" stroke="black" stroke-width="2" points="388.38,-255.5 189.62,-255.5 189.62,-157 388.38,-157 388.38,-255.5"/>
<polygon fill="none" stroke="black" points="198.62,-228 198.62,-250.5 379.38,-250.5 379.38,-228 198.62,-228"/>
<text text-anchor="start" x="209.12" y="-235.2" font-family="Times New Roman,serif" font-weight="bold" font-size="14.00">Element_Simultaneous (2)</text>
<polygon fill="none" stroke="black" points="198.62,-205.5 198.62,-228 379.38,-228 379.38,-205.5 198.62,-205.5"/>
<text text-anchor="start" x="257.12" y="-212.7" font-family="Times New Roman,serif" font-weight="bold" font-size="14.00">Properties</text>
<polygon fill="none" stroke="black" points="198.62,-183.75 198.62,-205.5 379.38,-205.5 379.38,-183.75 198.62,-183.75"/>
<text text-anchor="start" x="208" y="-189.2" font-family="Times New Roman,serif" font-size="14.00">[Int] EndPolicy (default = 0) </text>
<polygon fill="none" stroke="black" points="198.62,-162 198.62,-183.75 379.38,-183.75 379.38,-162 198.62,-162"/>
<text text-anchor="start" x="201.62" y="-167.45" font-family="Times New Roman,serif" font-size="14.00">[Int] ResultPolicy (default = 0) </text>
<polygon fill="none" stroke="black" points="197.62,-161 197.62,-251.5 380.38,-251.5 380.38,-161 197.62,-161"/>
</g>
<!-- 7079 -->
<g id="node2" class="node">
<title>7079</title>
<polygon fill="none" stroke="black" stroke-width="2" points="282,-98.88 0,-98.88 0,-22.12 282,-22.12 282,-98.88"/>
<polygon fill="none" stroke="black" points="9,-71.38 9,-93.88 273,-93.88 273,-71.38 9,-71.38"/>
<text text-anchor="start" x="12" y="-78.58" font-family="Times New Roman,serif" font-weight="bold" font-size="14.00">SeqOneShotSetCpuBoostModeNormal (0)</text>
<polygon fill="none" stroke="black" points="9,-48.88 9,-71.38 273,-71.38 273,-48.88 9,-48.88"/>
<text text-anchor="start" x="109.12" y="-56.08" font-family="Times New Roman,serif" font-weight="bold" font-size="14.00">Properties</text>
<polygon fill="none" stroke="black" points="9,-27.12 9,-48.88 273,-48.88 273,-27.12 9,-27.12"/>
<text text-anchor="start" x="15.75" y="-32.58" font-family="Times New Roman,serif" font-size="14.00">[Bool] ExecuteEveryFrame (default = False) </text>
<polygon fill="none" stroke="black" points="8,-26.12 8,-94.88 274,-94.88 274,-26.12 8,-26.12"/>
</g>
<!-- 7076&#45;&gt;7079 -->
<g id="edge1" class="edge">
<title>7076&#45;&gt;7079</title>
<path fill="none" stroke="firebrick" stroke-width="2" d="M238.89,-156.58C222.32,-140.48 203.95,-122.64 187.65,-106.81"/>
<polygon fill="firebrick" stroke="firebrick" stroke-width="2" points="191.61,-105.78 182,-101.32 186.73,-110.8 191.61,-105.78"/>
</g>
<!-- 7082 -->
<g id="node3" class="node">
<title>7082</title>
<polygon fill="none" stroke="black" stroke-width="2" points="574.25,-121 299.75,-121 299.75,0 574.25,0 574.25,-121"/>
<polygon fill="none" stroke="black" points="308.75,-93.5 308.75,-116 565.25,-116 565.25,-93.5 308.75,-93.5"/>
<text text-anchor="start" x="317.38" y="-100.7" font-family="Times New Roman,serif" font-weight="bold" font-size="14.00">SeqOneShotEnable3DLayerBgOnly (1)</text>
<polygon fill="none" stroke="black" points="308.75,-71 308.75,-93.5 565.25,-93.5 565.25,-71 308.75,-71"/>
<text text-anchor="start" x="405.12" y="-78.2" font-family="Times New Roman,serif" font-weight="bold" font-size="14.00">Properties</text>
<polygon fill="none" stroke="black" points="308.75,-49.25 308.75,-71 565.25,-71 565.25,-49.25 308.75,-49.25"/>
<text text-anchor="start" x="311.75" y="-54.7" font-family="Times New Roman,serif" font-size="14.00">[Bool] ExecuteEveryFrame (default = False) </text>
<polygon fill="none" stroke="black" points="308.75,-26.75 308.75,-49.25 565.25,-49.25 565.25,-26.75 308.75,-26.75"/>
<text text-anchor="start" x="417.88" y="-33.95" font-family="Times New Roman,serif" font-weight="bold" font-size="14.00">Inputs</text>
<polygon fill="none" stroke="black" points="308.75,-5 308.75,-26.75 565.25,-26.75 565.25,-5 308.75,-5"/>
<text text-anchor="start" x="348.88" y="-10.45" font-family="Times New Roman,serif" font-size="14.00">[Bool] Enable (default = False) </text>
<polygon fill="none" stroke="black" points="307.75,-4 307.75,-117 566.25,-117 566.25,-4 307.75,-4"/>
</g>
<!-- 7076&#45;&gt;7082 -->
<g id="edge2" class="edge">
<title>7076&#45;&gt;7082</title>
<path fill="none" stroke="firebrick" stroke-width="2" d="M339.11,-156.58C348.21,-147.74 357.86,-138.37 367.41,-129.09"/>
<polygon fill="firebrick" stroke="firebrick" stroke-width="2" points="368.49,-132.92 373.22,-123.45 363.61,-127.9 368.49,-132.92"/>
</g>
<!-- 7084 -->
<g id="node4" class="node">
<title>7084</title>
<ellipse fill="mediumpurple" stroke="mediumpurple" cx="289" cy="-309.5" rx="31.39" ry="18"/>
<text text-anchor="start" x="274" y="-305.45" font-family="Times New Roman,serif" font-weight="bold" font-size="14.00" fill="white">Root</text>
</g>
<!-- 7084&#45;&gt;7076 -->
<g id="edge3" class="edge">
<title>7084&#45;&gt;7076</title>
<path fill="none" stroke="black" d="M289,-291.32C289,-284.42 289,-276.02 289,-267.22"/>
<polygon fill="black" stroke="black" points="292.5,-267.47 289,-257.47 285.5,-267.47 292.5,-267.47"/>
</g>
</g>
</svg>
