<?xml version="1.0" encoding="UTF-8" standalone="no"?>
<!DOCTYPE svg PUBLIC "-//W3C//DTD SVG 1.1//EN"
 "http://www.w3.org/Graphics/SVG/1.1/DTD/svg11.dtd">
<!-- Generated by graphviz version 9.0.0 (20230911.1827)
 -->
<!-- Title: FastLoadOn.module Pages: 1 -->
<svg width="957pt" height="1073pt"
 viewBox="0.00 0.00 957.12 1072.50" xmlns="http://www.w3.org/2000/svg" xmlns:xlink="http://www.w3.org/1999/xlink">
<g id="graph0" class="graph" transform="scale(1 1) rotate(0) translate(4 1068.5)">
<title>FastLoadOn.module</title>
<polygon fill="lightgray" stroke="none" points="-4,4 -4,-1068.5 953.12,-1068.5 953.12,4 -4,4"/>
<!-- 7087 -->
<g id="node1" class="node">
<title>7087</title>
<polygon fill="none" stroke="black" stroke-width="2" points="682,-847.5 366.25,-847.5 366.25,-661.25 682,-661.25 682,-847.5"/>
<polygon fill="none" stroke="black" points="375.25,-820 375.25,-842.5 673,-842.5 673,-820 375.25,-820"/>
<text text-anchor="start" x="445.75" y="-827.2" font-family="Times New Roman,serif" font-weight="bold" font-size="14.00">Element_BoolSelector (6)</text>
<polygon fill="none" stroke="black" points="375.25,-797.5 375.25,-820 673,-820 673,-797.5 375.25,-797.5"/>
<text text-anchor="start" x="492.25" y="-804.7" font-family="Times New Roman,serif" font-weight="bold" font-size="14.00">Properties</text>
<polygon fill="none" stroke="black" points="375.25,-775.75 375.25,-797.5 673,-797.5 673,-775.75 375.25,-775.75"/>
<text text-anchor="start" x="427" y="-781.2" font-family="Times New Roman,serif" font-size="14.00">[Int] CalculateTiming (default = 0) </text>
<polygon fill="none" stroke="black" points="375.25,-754 375.25,-775.75 673,-775.75 673,-754 375.25,-754"/>
<text text-anchor="start" x="407.88" y="-759.45" font-family="Times New Roman,serif" font-size="14.00">[Bool] ChildFrameSync (default = False) </text>
<polygon fill="none" stroke="black" points="375.25,-732.25 375.25,-754 673,-754 673,-732.25 375.25,-732.25"/>
<text text-anchor="start" x="424.38" y="-737.7" font-family="Times New Roman,serif" font-size="14.00">[Bool] InputValue (default = False) </text>
<polygon fill="none" stroke="black" points="375.25,-710.5 375.25,-732.25 673,-732.25 673,-710.5 375.25,-710.5"/>
<text text-anchor="start" x="378.25" y="-715.95" font-family="Times New Roman,serif" font-size="14.00">[Bool] IsNoSelectWhenChildBusy (default = False) </text>
<polygon fill="none" stroke="black" points="375.25,-688 375.25,-710.5 673,-710.5 673,-688 375.25,-688"/>
<text text-anchor="start" x="505" y="-695.2" font-family="Times New Roman,serif" font-weight="bold" font-size="14.00">Inputs</text>
<polygon fill="none" stroke="black" points="375.25,-666.25 375.25,-688 673,-688 673,-666.25 375.25,-666.25"/>
<text text-anchor="start" x="440.12" y="-671.7" font-family="Times New Roman,serif" font-size="14.00">[Bool] Input (default = False) </text>
<polygon fill="none" stroke="black" points="374.25,-665.25 374.25,-843.5 674,-843.5 674,-665.25 374.25,-665.25"/>
</g>
<!-- 7093 -->
<g id="node2" class="node">
<title>7093</title>
<polygon fill="none" stroke="black" stroke-width="2" points="565.38,-609.5 278.88,-609.5 278.88,-402.25 565.38,-402.25 565.38,-609.5"/>
<polygon fill="none" stroke="black" points="287.88,-582 287.88,-604.5 556.38,-604.5 556.38,-582 287.88,-582"/>
<text text-anchor="start" x="351.25" y="-589.2" font-family="Times New Roman,serif" font-weight="bold" font-size="14.00">Element_Sequential (3)</text>
<polygon fill="none" stroke="black" points="287.88,-559.5 287.88,-582 556.38,-582 556.38,-559.5 287.88,-559.5"/>
<text text-anchor="start" x="390.25" y="-566.7" font-family="Times New Roman,serif" font-weight="bold" font-size="14.00">Properties</text>
<polygon fill="none" stroke="black" points="287.88,-537.75 287.88,-559.5 556.38,-559.5 556.38,-537.75 287.88,-537.75"/>
<text text-anchor="start" x="338.12" y="-543.2" font-family="Times New Roman,serif" font-size="14.00">[Int] BusyPolicy (default = 0) </text>
<polygon fill="none" stroke="black" points="287.88,-516 287.88,-537.75 556.38,-537.75 556.38,-516 287.88,-516"/>
<text text-anchor="start" x="341.12" y="-521.45" font-family="Times New Roman,serif" font-size="14.00">[Int] NumLoop (default = 0) </text>
<polygon fill="none" stroke="black" points="287.88,-494.25 287.88,-516 556.38,-516 556.38,-494.25 287.88,-494.25"/>
<text text-anchor="start" x="340.38" y="-499.7" font-family="Times New Roman,serif" font-size="14.00">[Int] PlayPolicy (default = 0) </text>
<polygon fill="none" stroke="black" points="287.88,-472.5 287.88,-494.25 556.38,-494.25 556.38,-472.5 287.88,-472.5"/>
<text text-anchor="start" x="334.75" y="-477.95" font-family="Times New Roman,serif" font-size="14.00">[Int] ResultPolicy (default = 0) </text>
<polygon fill="none" stroke="black" points="287.88,-450.75 287.88,-472.5 556.38,-472.5 556.38,-450.75 287.88,-450.75"/>
<text text-anchor="start" x="315.62" y="-456.2" font-family="Times New Roman,serif" font-size="14.00">[Bool] IsDelayJudge (default = False) </text>
<polygon fill="none" stroke="black" points="287.88,-429 287.88,-450.75 556.38,-450.75 556.38,-429 287.88,-429"/>
<text text-anchor="start" x="332.12" y="-434.45" font-family="Times New Roman,serif" font-size="14.00">[Bool] IsLoop (default = False) </text>
<polygon fill="none" stroke="black" points="287.88,-407.25 287.88,-429 556.38,-429 556.38,-407.25 287.88,-407.25"/>
<text text-anchor="start" x="290.88" y="-412.7" font-family="Times New Roman,serif" font-size="14.00">[Bool] IsUpdateNextInFrame (default = False) </text>
<polygon fill="none" stroke="black" points="286.88,-406.25 286.88,-605.5 557.38,-605.5 557.38,-406.25 286.88,-406.25"/>
</g>
<!-- 7087&#45;&gt;7093 -->
<g id="edge1" class="edge">
<title>7087&#45;&gt;7093</title>
<path fill="none" stroke="firebrick" stroke-width="2" d="M485.85,-660.89C480.36,-647.6 474.65,-633.81 469.01,-620.19"/>
<polygon fill="firebrick" stroke="firebrick" stroke-width="2" points="472.93,-620.51 465.88,-612.61 466.47,-623.18 472.93,-620.51"/>
<text text-anchor="middle" x="490.25" y="-629.95" font-family="Times New Roman,serif" font-size="14.00" fill="firebrick">True</text>
</g>
<!-- 7102 -->
<g id="node3" class="node">
<title>7102</title>
<polygon fill="none" stroke="black" stroke-width="2" points="794.38,-365.25 507.88,-365.25 507.88,-158 794.38,-158 794.38,-365.25"/>
<polygon fill="none" stroke="black" points="516.88,-337.75 516.88,-360.25 785.38,-360.25 785.38,-337.75 516.88,-337.75"/>
<text text-anchor="start" x="580.25" y="-344.95" font-family="Times New Roman,serif" font-weight="bold" font-size="14.00">Element_Sequential (7)</text>
<polygon fill="none" stroke="black" points="516.88,-315.25 516.88,-337.75 785.38,-337.75 785.38,-315.25 516.88,-315.25"/>
<text text-anchor="start" x="619.25" y="-322.45" font-family="Times New Roman,serif" font-weight="bold" font-size="14.00">Properties</text>
<polygon fill="none" stroke="black" points="516.88,-293.5 516.88,-315.25 785.38,-315.25 785.38,-293.5 516.88,-293.5"/>
<text text-anchor="start" x="567.12" y="-298.95" font-family="Times New Roman,serif" font-size="14.00">[Int] BusyPolicy (default = 0) </text>
<polygon fill="none" stroke="black" points="516.88,-271.75 516.88,-293.5 785.38,-293.5 785.38,-271.75 516.88,-271.75"/>
<text text-anchor="start" x="570.12" y="-277.2" font-family="Times New Roman,serif" font-size="14.00">[Int] NumLoop (default = 0) </text>
<polygon fill="none" stroke="black" points="516.88,-250 516.88,-271.75 785.38,-271.75 785.38,-250 516.88,-250"/>
<text text-anchor="start" x="569.38" y="-255.45" font-family="Times New Roman,serif" font-size="14.00">[Int] PlayPolicy (default = 0) </text>
<polygon fill="none" stroke="black" points="516.88,-228.25 516.88,-250 785.38,-250 785.38,-228.25 516.88,-228.25"/>
<text text-anchor="start" x="563.75" y="-233.7" font-family="Times New Roman,serif" font-size="14.00">[Int] ResultPolicy (default = 0) </text>
<polygon fill="none" stroke="black" points="516.88,-206.5 516.88,-228.25 785.38,-228.25 785.38,-206.5 516.88,-206.5"/>
<text text-anchor="start" x="544.62" y="-211.95" font-family="Times New Roman,serif" font-size="14.00">[Bool] IsDelayJudge (default = False) </text>
<polygon fill="none" stroke="black" points="516.88,-184.75 516.88,-206.5 785.38,-206.5 785.38,-184.75 516.88,-184.75"/>
<text text-anchor="start" x="561.12" y="-190.2" font-family="Times New Roman,serif" font-size="14.00">[Bool] IsLoop (default = False) </text>
<polygon fill="none" stroke="black" points="516.88,-163 516.88,-184.75 785.38,-184.75 785.38,-163 516.88,-163"/>
<text text-anchor="start" x="519.88" y="-168.45" font-family="Times New Roman,serif" font-size="14.00">[Bool] IsUpdateNextInFrame (default = False) </text>
<polygon fill="none" stroke="black" points="515.88,-162 515.88,-361.25 786.38,-361.25 786.38,-162 515.88,-162"/>
</g>
<!-- 7087&#45;&gt;7102 -->
<g id="edge2" class="edge">
<title>7087&#45;&gt;7102</title>
<path fill="none" stroke="firebrick" stroke-width="2" d="M558,-661C563.73,-643.99 569.36,-626.29 574.12,-609.5 595.94,-532.63 615.39,-444.73 629.29,-376.66"/>
<polygon fill="firebrick" stroke="firebrick" stroke-width="2" points="632.39,-378.94 630.95,-368.44 625.53,-377.55 632.39,-378.94"/>
<text text-anchor="middle" x="637.75" y="-500.45" font-family="Times New Roman,serif" font-size="14.00" fill="firebrick">False</text>
</g>
<!-- 7093&#45;&gt;7102 -->
<g id="edge6" class="edge">
<title>7093&#45;&gt;7102</title>
<path fill="none" stroke="firebrick" stroke-width="2" d="M519.57,-401.79C528.33,-392.52 537.22,-383.12 546.04,-373.79"/>
<polygon fill="firebrick" stroke="firebrick" stroke-width="2" points="547.36,-377.49 551.68,-367.82 542.27,-372.68 547.36,-377.49"/>
</g>
<!-- 7096 -->
<g id="node5" class="node">
<title>7096</title>
<polygon fill="none" stroke="black" stroke-width="2" points="236.25,-279.62 0,-279.62 0,-243.62 236.25,-243.62 236.25,-279.62"/>
<polygon fill="none" stroke="black" points="9,-250.38 9,-272.88 227.25,-272.88 227.25,-250.38 9,-250.38"/>
<text text-anchor="start" x="12" y="-257.57" font-family="Times New Roman,serif" font-weight="bold" font-size="14.00">SeqExecuteWaitGraphicsSetup (2)</text>
<polygon fill="none" stroke="black" points="8,-249.38 8,-273.88 228.25,-273.88 228.25,-249.38 8,-249.38"/>
</g>
<!-- 7093&#45;&gt;7096 -->
<g id="edge4" class="edge">
<title>7093&#45;&gt;7096</title>
<path fill="none" stroke="firebrick" stroke-width="2" d="M292.31,-402.01C276.74,-389.64 261.07,-377.17 246.12,-365.25 212.81,-338.68 174.71,-308.11 148.8,-287.29"/>
<polygon fill="firebrick" stroke="firebrick" stroke-width="2" points="152.19,-285.52 142.2,-281.99 147.8,-290.98 152.19,-285.52"/>
</g>
<!-- 7099 -->
<g id="node6" class="node">
<title>7099</title>
<polygon fill="none" stroke="black" stroke-width="2" points="489.5,-300 254.75,-300 254.75,-223.25 489.5,-223.25 489.5,-300"/>
<polygon fill="none" stroke="black" points="263.75,-272.5 263.75,-295 480.5,-295 480.5,-272.5 263.75,-272.5"/>
<text text-anchor="start" x="266.75" y="-279.7" font-family="Times New Roman,serif" font-weight="bold" font-size="14.00">SeqExecuteGenericWaitFrame (4)</text>
<polygon fill="none" stroke="black" points="263.75,-250 263.75,-272.5 480.5,-272.5 480.5,-250 263.75,-250"/>
<text text-anchor="start" x="340.25" y="-257.2" font-family="Times New Roman,serif" font-weight="bold" font-size="14.00">Properties</text>
<polygon fill="none" stroke="black" points="263.75,-228.25 263.75,-250 480.5,-250 480.5,-228.25 263.75,-228.25"/>
<text text-anchor="start" x="302.38" y="-233.7" font-family="Times New Roman,serif" font-size="14.00">[Int] Frame (default = 1) </text>
<polygon fill="none" stroke="black" points="262.75,-227.25 262.75,-296 481.5,-296 481.5,-227.25 262.75,-227.25"/>
</g>
<!-- 7093&#45;&gt;7099 -->
<g id="edge5" class="edge">
<title>7093&#45;&gt;7099</title>
<path fill="none" stroke="firebrick" stroke-width="2" d="M400.85,-401.79C394.37,-370.38 387.54,-337.31 382.17,-311.3"/>
<polygon fill="firebrick" stroke="firebrick" stroke-width="2" points="385.95,-312.29 380.5,-303.2 379.09,-313.71 385.95,-312.29"/>
</g>
<!-- 7105 -->
<g id="node7" class="node">
<title>7105</title>
<polygon fill="none" stroke="black" stroke-width="2" points="637.38,-121 362.88,-121 362.88,0 637.38,0 637.38,-121"/>
<polygon fill="none" stroke="black" points="371.88,-93.5 371.88,-116 628.38,-116 628.38,-93.5 371.88,-93.5"/>
<text text-anchor="start" x="380.5" y="-100.7" font-family="Times New Roman,serif" font-weight="bold" font-size="14.00">SeqOneShotEnable3DLayerBgOnly (1)</text>
<polygon fill="none" stroke="black" points="371.88,-71 371.88,-93.5 628.38,-93.5 628.38,-71 371.88,-71"/>
<text text-anchor="start" x="468.25" y="-78.2" font-family="Times New Roman,serif" font-weight="bold" font-size="14.00">Properties</text>
<polygon fill="none" stroke="black" points="371.88,-49.25 371.88,-71 628.38,-71 628.38,-49.25 371.88,-49.25"/>
<text text-anchor="start" x="374.88" y="-54.7" font-family="Times New Roman,serif" font-size="14.00">[Bool] ExecuteEveryFrame (default = False) </text>
<polygon fill="none" stroke="black" points="371.88,-26.75 371.88,-49.25 628.38,-49.25 628.38,-26.75 371.88,-26.75"/>
<text text-anchor="start" x="481" y="-33.95" font-family="Times New Roman,serif" font-weight="bold" font-size="14.00">Inputs</text>
<polygon fill="none" stroke="black" points="371.88,-5 371.88,-26.75 628.38,-26.75 628.38,-5 371.88,-5"/>
<text text-anchor="start" x="413.5" y="-10.45" font-family="Times New Roman,serif" font-size="14.00">[Bool] Enable (default = True) </text>
<polygon fill="none" stroke="black" points="370.88,-4 370.88,-117 629.38,-117 629.38,-4 370.88,-4"/>
</g>
<!-- 7102&#45;&gt;7105 -->
<g id="edge7" class="edge">
<title>7102&#45;&gt;7105</title>
<path fill="none" stroke="firebrick" stroke-width="2" d="M572.97,-157.56C565.97,-148.34 559.01,-139.15 552.31,-130.32"/>
<polygon fill="firebrick" stroke="firebrick" stroke-width="2" points="556.1,-129.53 547.27,-123.68 550.53,-133.76 556.1,-129.53"/>
</g>
<!-- 7108 -->
<g id="node8" class="node">
<title>7108</title>
<polygon fill="none" stroke="black" stroke-width="2" points="949.12,-98.88 655.12,-98.88 655.12,-22.12 949.12,-22.12 949.12,-98.88"/>
<polygon fill="none" stroke="black" points="664.12,-71.38 664.12,-93.88 940.12,-93.88 940.12,-71.38 664.12,-71.38"/>
<text text-anchor="start" x="667.12" y="-78.58" font-family="Times New Roman,serif" font-weight="bold" font-size="14.00">SeqOneShotSetCpuBoostModeFastLoad (0)</text>
<polygon fill="none" stroke="black" points="664.12,-48.88 664.12,-71.38 940.12,-71.38 940.12,-48.88 664.12,-48.88"/>
<text text-anchor="start" x="770.25" y="-56.08" font-family="Times New Roman,serif" font-weight="bold" font-size="14.00">Properties</text>
<polygon fill="none" stroke="black" points="664.12,-27.12 664.12,-48.88 940.12,-48.88 940.12,-27.12 664.12,-27.12"/>
<text text-anchor="start" x="676.88" y="-32.58" font-family="Times New Roman,serif" font-size="14.00">[Bool] ExecuteEveryFrame (default = False) </text>
<polygon fill="none" stroke="black" points="663.12,-26.12 663.12,-94.88 941.12,-94.88 941.12,-26.12 663.12,-26.12"/>
</g>
<!-- 7102&#45;&gt;7108 -->
<g id="edge8" class="edge">
<title>7102&#45;&gt;7108</title>
<path fill="none" stroke="firebrick" stroke-width="2" d="M729.28,-157.56C742.39,-140.27 755.39,-123.13 766.71,-108.21"/>
<polygon fill="firebrick" stroke="firebrick" stroke-width="2" points="768.44,-111.72 771.69,-101.64 762.86,-107.49 768.44,-111.72"/>
</g>
<!-- 7090 -->
<g id="node4" class="node">
<title>7090</title>
<polygon fill="none" stroke="black" stroke-width="2" points="568.75,-1064.5 293.5,-1064.5 293.5,-899.25 568.75,-899.25 568.75,-1064.5"/>
<polygon fill="none" stroke="black" points="302.5,-1037 302.5,-1059.5 559.75,-1059.5 559.75,-1037 302.5,-1037"/>
<text text-anchor="start" x="346.38" y="-1044.2" font-family="Times New Roman,serif" font-weight="bold" font-size="14.00">SeqQueryIsLayerVisible (5)</text>
<polygon fill="none" stroke="black" points="302.5,-1014.5 302.5,-1037 559.75,-1037 559.75,-1014.5 302.5,-1014.5"/>
<text text-anchor="start" x="399.25" y="-1021.7" font-family="Times New Roman,serif" font-weight="bold" font-size="14.00">Properties</text>
<polygon fill="none" stroke="black" points="302.5,-992.75 302.5,-1014.5 559.75,-1014.5 559.75,-992.75 302.5,-992.75"/>
<text text-anchor="start" x="305.5" y="-998.2" font-family="Times New Roman,serif" font-size="14.00">[Bool] OutputOnlyOnEnter (default = False) </text>
<polygon fill="none" stroke="black" points="302.5,-970.25 302.5,-992.75 559.75,-992.75 559.75,-970.25 302.5,-970.25"/>
<text text-anchor="start" x="412" y="-977.45" font-family="Times New Roman,serif" font-weight="bold" font-size="14.00">Inputs</text>
<polygon fill="none" stroke="black" points="302.5,-948.5 302.5,-970.25 559.75,-970.25 559.75,-948.5 302.5,-948.5"/>
<text text-anchor="start" x="325.38" y="-953.95" font-family="Times New Roman,serif" font-size="14.00">[Int] LayerTag (default = 460120899) </text>
<polygon fill="none" stroke="black" points="302.5,-926 302.5,-948.5 559.75,-948.5 559.75,-926 302.5,-926"/>
<text text-anchor="start" x="406.75" y="-933.2" font-family="Times New Roman,serif" font-weight="bold" font-size="14.00">Outputs</text>
<polygon fill="none" stroke="black" points="302.5,-904.25 302.5,-926 559.75,-926 559.75,-904.25 302.5,-904.25"/>
<text text-anchor="start" x="386.88" y="-909.7" font-family="Times New Roman,serif" font-size="14.00">[Bool] IsVisible</text>
<polygon fill="none" stroke="black" points="301.5,-903.25 301.5,-1060.5 560.75,-1060.5 560.75,-903.25 301.5,-903.25"/>
</g>
<!-- 7090&#45;&gt;7087 -->
<g id="edge3" class="edge">
<title>7090:7111&#45;&gt;7087:7109</title>
<path fill="none" stroke="#008000" stroke-dasharray="5,2" d="M431.12,-902.88C431.12,-867.87 388.71,-879.76 375.12,-847.5 347.39,-781.62 303.63,-688.27 362.8,-678.25"/>
<polygon fill="#008000" stroke="#008000" points="362.92,-681.76 372.62,-677.49 362.37,-674.78 362.92,-681.76"/>
<text text-anchor="middle" x="435.75" y="-867.95" font-family="Times New Roman,serif" font-size="14.00" fill="#008000">Input</text>
</g>
<!-- 7113 -->
<g id="node9" class="node">
<title>7113</title>
<ellipse fill="mediumpurple" stroke="mediumpurple" cx="618.12" cy="-981.88" rx="31.39" ry="18"/>
<text text-anchor="start" x="603.12" y="-977.83" font-family="Times New Roman,serif" font-weight="bold" font-size="14.00" fill="white">Root</text>
</g>
<!-- 7113&#45;&gt;7087 -->
<g id="edge9" class="edge">
<title>7113&#45;&gt;7087</title>
<path fill="none" stroke="black" d="M611.06,-963.93C601.57,-941.17 583.95,-898.9 567.04,-858.33"/>
<polygon fill="black" stroke="black" points="570.31,-857.07 563.23,-849.18 563.85,-859.76 570.31,-857.07"/>
</g>
</g>
</svg>
