<?xml version="1.0" encoding="UTF-8" standalone="no"?>
<!DOCTYPE svg PUBLIC "-//W3C//DTD SVG 1.1//EN"
 "http://www.w3.org/Graphics/SVG/1.1/DTD/svg11.dtd">
<!-- Generated by graphviz version 9.0.0 (20230911.1827)
 -->
<!-- Title: GamePauseOn.module Pages: 1 -->
<svg width="221pt" height="157pt"
 viewBox="0.00 0.00 221.00 156.75" xmlns="http://www.w3.org/2000/svg" xmlns:xlink="http://www.w3.org/1999/xlink">
<g id="graph0" class="graph" transform="scale(1 1) rotate(0) translate(4 152.75)">
<title>GamePauseOn.module</title>
<polygon fill="lightgray" stroke="none" points="-4,4 -4,-152.75 217,-152.75 217,4 -4,4"/>
<!-- 7290 -->
<g id="node1" class="node">
<title>7290</title>
<polygon fill="none" stroke="black" stroke-width="2" points="213,-76.75 0,-76.75 0,0 213,0 213,-76.75"/>
<polygon fill="none" stroke="black" points="9,-49.25 9,-71.75 204,-71.75 204,-49.25 9,-49.25"/>
<text text-anchor="start" x="12" y="-56.45" font-family="Times New Roman,serif" font-weight="bold" font-size="14.00">ChangeGamePause.module (0)</text>
<polygon fill="none" stroke="black" points="9,-26.75 9,-49.25 204,-49.25 204,-26.75 9,-26.75"/>
<text text-anchor="start" x="87.38" y="-33.95" font-family="Times New Roman,serif" font-weight="bold" font-size="14.00">Inputs</text>
<polygon fill="none" stroke="black" points="9,-5 9,-26.75 204,-26.75 204,-5 9,-5"/>
<text text-anchor="start" x="16.88" y="-10.45" font-family="Times New Roman,serif" font-size="14.00">[Bool] IsPause (default = True) </text>
<polygon fill="none" stroke="black" points="8,-4 8,-72.75 205,-72.75 205,-4 8,-4"/>
</g>
<!-- 7292 -->
<g id="node2" class="node">
<title>7292</title>
<ellipse fill="mediumpurple" stroke="mediumpurple" cx="106.5" cy="-130.75" rx="31.39" ry="18"/>
<text text-anchor="start" x="91.5" y="-126.7" font-family="Times New Roman,serif" font-weight="bold" font-size="14.00" fill="white">Root</text>
</g>
<!-- 7292&#45;&gt;7290 -->
<g id="edge1" class="edge">
<title>7292&#45;&gt;7290</title>
<path fill="none" stroke="black" d="M106.5,-112.32C106.5,-105.33 106.5,-96.9 106.5,-88.28"/>
<polygon fill="black" stroke="black" points="110,-88.46 106.5,-78.46 103,-88.46 110,-88.46"/>
</g>
</g>
</svg>
