<?xml version="1.0" encoding="UTF-8" standalone="no"?>
<!DOCTYPE svg PUBLIC "-//W3C//DTD SVG 1.1//EN"
 "http://www.w3.org/Graphics/SVG/1.1/DTD/svg11.dtd">
<!-- Generated by graphviz version 9.0.0 (20230911.1827)
 -->
<!-- Title: GamePauseOff.module Pages: 1 -->
<svg width="1668pt" height="1363pt"
 viewBox="0.00 0.00 1668.25 1363.25" xmlns="http://www.w3.org/2000/svg" xmlns:xlink="http://www.w3.org/1999/xlink">
<g id="graph0" class="graph" transform="scale(1 1) rotate(0) translate(4 1359.25)">
<title>GamePauseOff.module</title>
<polygon fill="lightgray" stroke="none" points="-4,4 -4,-1359.25 1664.25,-1359.25 1664.25,4 -4,4"/>
<!-- 7222 -->
<g id="node1" class="node">
<title>7222</title>
<polygon fill="none" stroke="black" stroke-width="2" points="1490.75,-1282.25 1204.25,-1282.25 1204.25,-1075 1490.75,-1075 1490.75,-1282.25"/>
<polygon fill="none" stroke="black" points="1213.25,-1254.75 1213.25,-1277.25 1481.75,-1277.25 1481.75,-1254.75 1213.25,-1254.75"/>
<text text-anchor="start" x="1276.62" y="-1261.95" font-family="Times New Roman,serif" font-weight="bold" font-size="14.00">Element_Sequential (2)</text>
<polygon fill="none" stroke="black" points="1213.25,-1232.25 1213.25,-1254.75 1481.75,-1254.75 1481.75,-1232.25 1213.25,-1232.25"/>
<text text-anchor="start" x="1315.62" y="-1239.45" font-family="Times New Roman,serif" font-weight="bold" font-size="14.00">Properties</text>
<polygon fill="none" stroke="black" points="1213.25,-1210.5 1213.25,-1232.25 1481.75,-1232.25 1481.75,-1210.5 1213.25,-1210.5"/>
<text text-anchor="start" x="1263.5" y="-1215.95" font-family="Times New Roman,serif" font-size="14.00">[Int] BusyPolicy (default = 0) </text>
<polygon fill="none" stroke="black" points="1213.25,-1188.75 1213.25,-1210.5 1481.75,-1210.5 1481.75,-1188.75 1213.25,-1188.75"/>
<text text-anchor="start" x="1266.5" y="-1194.2" font-family="Times New Roman,serif" font-size="14.00">[Int] NumLoop (default = 0) </text>
<polygon fill="none" stroke="black" points="1213.25,-1167 1213.25,-1188.75 1481.75,-1188.75 1481.75,-1167 1213.25,-1167"/>
<text text-anchor="start" x="1265.75" y="-1172.45" font-family="Times New Roman,serif" font-size="14.00">[Int] PlayPolicy (default = 0) </text>
<polygon fill="none" stroke="black" points="1213.25,-1145.25 1213.25,-1167 1481.75,-1167 1481.75,-1145.25 1213.25,-1145.25"/>
<text text-anchor="start" x="1260.12" y="-1150.7" font-family="Times New Roman,serif" font-size="14.00">[Int] ResultPolicy (default = 0) </text>
<polygon fill="none" stroke="black" points="1213.25,-1123.5 1213.25,-1145.25 1481.75,-1145.25 1481.75,-1123.5 1213.25,-1123.5"/>
<text text-anchor="start" x="1241" y="-1128.95" font-family="Times New Roman,serif" font-size="14.00">[Bool] IsDelayJudge (default = False) </text>
<polygon fill="none" stroke="black" points="1213.25,-1101.75 1213.25,-1123.5 1481.75,-1123.5 1481.75,-1101.75 1213.25,-1101.75"/>
<text text-anchor="start" x="1257.5" y="-1107.2" font-family="Times New Roman,serif" font-size="14.00">[Bool] IsLoop (default = False) </text>
<polygon fill="none" stroke="black" points="1213.25,-1080 1213.25,-1101.75 1481.75,-1101.75 1481.75,-1080 1213.25,-1080"/>
<text text-anchor="start" x="1216.25" y="-1085.45" font-family="Times New Roman,serif" font-size="14.00">[Bool] IsUpdateNextInFrame (default = False) </text>
<polygon fill="none" stroke="black" points="1212.25,-1079 1212.25,-1278.25 1482.75,-1278.25 1482.75,-1079 1212.25,-1079"/>
</g>
<!-- 7225 -->
<g id="node2" class="node">
<title>7225</title>
<polygon fill="none" stroke="black" stroke-width="2" points="1326.88,-993.75 1128.12,-993.75 1128.12,-895.25 1326.88,-895.25 1326.88,-993.75"/>
<polygon fill="none" stroke="black" points="1137.12,-966.25 1137.12,-988.75 1317.88,-988.75 1317.88,-966.25 1137.12,-966.25"/>
<text text-anchor="start" x="1147.62" y="-973.45" font-family="Times New Roman,serif" font-weight="bold" font-size="14.00">Element_Simultaneous (0)</text>
<polygon fill="none" stroke="black" points="1137.12,-943.75 1137.12,-966.25 1317.88,-966.25 1317.88,-943.75 1137.12,-943.75"/>
<text text-anchor="start" x="1195.62" y="-950.95" font-family="Times New Roman,serif" font-weight="bold" font-size="14.00">Properties</text>
<polygon fill="none" stroke="black" points="1137.12,-922 1137.12,-943.75 1317.88,-943.75 1317.88,-922 1137.12,-922"/>
<text text-anchor="start" x="1146.5" y="-927.45" font-family="Times New Roman,serif" font-size="14.00">[Int] EndPolicy (default = 0) </text>
<polygon fill="none" stroke="black" points="1137.12,-900.25 1137.12,-922 1317.88,-922 1317.88,-900.25 1137.12,-900.25"/>
<text text-anchor="start" x="1140.12" y="-905.7" font-family="Times New Roman,serif" font-size="14.00">[Int] ResultPolicy (default = 0) </text>
<polygon fill="none" stroke="black" points="1136.12,-899.25 1136.12,-989.75 1318.88,-989.75 1318.88,-899.25 1136.12,-899.25"/>
</g>
<!-- 7222&#45;&gt;7225 -->
<g id="edge1" class="edge">
<title>7222&#45;&gt;7225</title>
<path fill="none" stroke="firebrick" stroke-width="2" d="M1294.34,-1074.8C1281.79,-1050.51 1268.83,-1025.44 1257.7,-1003.91"/>
<polygon fill="firebrick" stroke="firebrick" stroke-width="2" points="1261.65,-1003.94 1253.95,-996.66 1255.43,-1007.15 1261.65,-1003.94"/>
</g>
<!-- 7267 -->
<g id="node3" class="node">
<title>7267</title>
<polygon fill="none" stroke="black" stroke-width="2" points="1592.25,-982.88 1344.75,-982.88 1344.75,-906.12 1592.25,-906.12 1592.25,-982.88"/>
<polygon fill="none" stroke="black" points="1353.75,-955.38 1353.75,-977.88 1583.25,-977.88 1583.25,-955.38 1353.75,-955.38"/>
<text text-anchor="start" x="1356.75" y="-962.58" font-family="Times New Roman,serif" font-weight="bold" font-size="14.00">ChangePostGamePause.module (11)</text>
<polygon fill="none" stroke="black" points="1353.75,-932.88 1353.75,-955.38 1583.25,-955.38 1583.25,-932.88 1353.75,-932.88"/>
<text text-anchor="start" x="1449.38" y="-940.08" font-family="Times New Roman,serif" font-weight="bold" font-size="14.00">Inputs</text>
<polygon fill="none" stroke="black" points="1353.75,-911.12 1353.75,-932.88 1583.25,-932.88 1583.25,-911.12 1353.75,-911.12"/>
<text text-anchor="start" x="1377.38" y="-916.58" font-family="Times New Roman,serif" font-size="14.00">[Bool] IsPause (default = False) </text>
<polygon fill="none" stroke="black" points="1352.75,-910.12 1352.75,-978.88 1584.25,-978.88 1584.25,-910.12 1352.75,-910.12"/>
</g>
<!-- 7222&#45;&gt;7267 -->
<g id="edge2" class="edge">
<title>7222&#45;&gt;7267</title>
<path fill="none" stroke="firebrick" stroke-width="2" d="M1401.1,-1074.8C1415.91,-1046.38 1431.28,-1016.89 1443.6,-993.27"/>
<polygon fill="firebrick" stroke="firebrick" stroke-width="2" points="1445.94,-996.35 1447.46,-985.87 1439.73,-993.12 1445.94,-996.35"/>
</g>
<!-- 7228 -->
<g id="node4" class="node">
<title>7228</title>
<polygon fill="none" stroke="black" stroke-width="2" points="1042.38,-798.88 726.62,-798.88 726.62,-612.62 1042.38,-612.62 1042.38,-798.88"/>
<polygon fill="none" stroke="black" points="735.62,-771.38 735.62,-793.88 1033.38,-793.88 1033.38,-771.38 735.62,-771.38"/>
<text text-anchor="start" x="806.12" y="-778.58" font-family="Times New Roman,serif" font-weight="bold" font-size="14.00">Element_BoolSelector (3)</text>
<polygon fill="none" stroke="black" points="735.62,-748.88 735.62,-771.38 1033.38,-771.38 1033.38,-748.88 735.62,-748.88"/>
<text text-anchor="start" x="852.62" y="-756.08" font-family="Times New Roman,serif" font-weight="bold" font-size="14.00">Properties</text>
<polygon fill="none" stroke="black" points="735.62,-727.12 735.62,-748.88 1033.38,-748.88 1033.38,-727.12 735.62,-727.12"/>
<text text-anchor="start" x="787.38" y="-732.58" font-family="Times New Roman,serif" font-size="14.00">[Int] CalculateTiming (default = 0) </text>
<polygon fill="none" stroke="black" points="735.62,-705.38 735.62,-727.12 1033.38,-727.12 1033.38,-705.38 735.62,-705.38"/>
<text text-anchor="start" x="768.25" y="-710.83" font-family="Times New Roman,serif" font-size="14.00">[Bool] ChildFrameSync (default = False) </text>
<polygon fill="none" stroke="black" points="735.62,-683.62 735.62,-705.38 1033.38,-705.38 1033.38,-683.62 735.62,-683.62"/>
<text text-anchor="start" x="784.75" y="-689.08" font-family="Times New Roman,serif" font-size="14.00">[Bool] InputValue (default = False) </text>
<polygon fill="none" stroke="black" points="735.62,-661.88 735.62,-683.62 1033.38,-683.62 1033.38,-661.88 735.62,-661.88"/>
<text text-anchor="start" x="738.62" y="-667.33" font-family="Times New Roman,serif" font-size="14.00">[Bool] IsNoSelectWhenChildBusy (default = False) </text>
<polygon fill="none" stroke="black" points="735.62,-639.38 735.62,-661.88 1033.38,-661.88 1033.38,-639.38 735.62,-639.38"/>
<text text-anchor="start" x="865.38" y="-646.58" font-family="Times New Roman,serif" font-weight="bold" font-size="14.00">Inputs</text>
<polygon fill="none" stroke="black" points="735.62,-617.62 735.62,-639.38 1033.38,-639.38 1033.38,-617.62 735.62,-617.62"/>
<text text-anchor="start" x="800.5" y="-623.08" font-family="Times New Roman,serif" font-size="14.00">[Bool] Input (default = False) </text>
<polygon fill="none" stroke="black" points="734.62,-616.62 734.62,-794.88 1034.38,-794.88 1034.38,-616.62 734.62,-616.62"/>
</g>
<!-- 7225&#45;&gt;7228 -->
<g id="edge3" class="edge">
<title>7225&#45;&gt;7228</title>
<path fill="none" stroke="firebrick" stroke-width="2" d="M1161.06,-894.94C1128.28,-871.22 1088.04,-842.43 1051.5,-817.25 1045.86,-813.37 1040.11,-809.43 1034.28,-805.46"/>
<polygon fill="firebrick" stroke="firebrick" stroke-width="2" points="1037.82,-803.63 1027.58,-800.92 1033.89,-809.43 1037.82,-803.63"/>
</g>
<!-- 7261 -->
<g id="node5" class="node">
<title>7261</title>
<polygon fill="none" stroke="black" stroke-width="2" points="1394.38,-766.25 1060.62,-766.25 1060.62,-645.25 1394.38,-645.25 1394.38,-766.25"/>
<polygon fill="none" stroke="black" points="1069.62,-738.75 1069.62,-761.25 1385.38,-761.25 1385.38,-738.75 1069.62,-738.75"/>
<text text-anchor="start" x="1072.62" y="-745.95" font-family="Times New Roman,serif" font-weight="bold" font-size="14.00">SeqOndeShotSetDoCommandForceCloseMode (1)</text>
<polygon fill="none" stroke="black" points="1069.62,-716.25 1069.62,-738.75 1385.38,-738.75 1385.38,-716.25 1069.62,-716.25"/>
<text text-anchor="start" x="1195.62" y="-723.45" font-family="Times New Roman,serif" font-weight="bold" font-size="14.00">Properties</text>
<polygon fill="none" stroke="black" points="1069.62,-694.5 1069.62,-716.25 1385.38,-716.25 1385.38,-694.5 1069.62,-694.5"/>
<text text-anchor="start" x="1102.25" y="-699.95" font-family="Times New Roman,serif" font-size="14.00">[Bool] ExecuteEveryFrame (default = False) </text>
<polygon fill="none" stroke="black" points="1069.62,-672 1069.62,-694.5 1385.38,-694.5 1385.38,-672 1069.62,-672"/>
<text text-anchor="start" x="1208.38" y="-679.2" font-family="Times New Roman,serif" font-weight="bold" font-size="14.00">Inputs</text>
<polygon fill="none" stroke="black" points="1069.62,-650.25 1069.62,-672 1385.38,-672 1385.38,-650.25 1069.62,-650.25"/>
<text text-anchor="start" x="1120.25" y="-655.7" font-family="Times New Roman,serif" font-size="14.00">[Bool] IsForceClose (default = False) </text>
<polygon fill="none" stroke="black" points="1068.62,-649.25 1068.62,-762.25 1386.38,-762.25 1386.38,-649.25 1068.62,-649.25"/>
</g>
<!-- 7225&#45;&gt;7261 -->
<g id="edge4" class="edge">
<title>7225&#45;&gt;7261</title>
<path fill="none" stroke="firebrick" stroke-width="2" d="M1227.5,-895.02C1227.5,-861.3 1227.5,-815.8 1227.5,-777.98"/>
<polygon fill="firebrick" stroke="firebrick" stroke-width="2" points="1231,-779.54 1227.5,-769.54 1224,-779.54 1231,-779.54"/>
</g>
<!-- 7264 -->
<g id="node6" class="node">
<title>7264</title>
<polygon fill="none" stroke="black" stroke-width="2" points="1660.25,-744.12 1412.75,-744.12 1412.75,-667.38 1660.25,-667.38 1660.25,-744.12"/>
<polygon fill="none" stroke="black" points="1421.75,-716.62 1421.75,-739.12 1651.25,-739.12 1651.25,-716.62 1421.75,-716.62"/>
<text text-anchor="start" x="1424.75" y="-723.83" font-family="Times New Roman,serif" font-weight="bold" font-size="14.00">ChangePostGamePause.module (12)</text>
<polygon fill="none" stroke="black" points="1421.75,-694.12 1421.75,-716.62 1651.25,-716.62 1651.25,-694.12 1421.75,-694.12"/>
<text text-anchor="start" x="1517.38" y="-701.33" font-family="Times New Roman,serif" font-weight="bold" font-size="14.00">Inputs</text>
<polygon fill="none" stroke="black" points="1421.75,-672.38 1421.75,-694.12 1651.25,-694.12 1651.25,-672.38 1421.75,-672.38"/>
<text text-anchor="start" x="1446.88" y="-677.83" font-family="Times New Roman,serif" font-size="14.00">[Bool] IsPause (default = True) </text>
<polygon fill="none" stroke="black" points="1420.75,-671.38 1420.75,-740.12 1652.25,-740.12 1652.25,-671.38 1420.75,-671.38"/>
</g>
<!-- 7225&#45;&gt;7264 -->
<g id="edge5" class="edge">
<title>7225&#45;&gt;7264</title>
<path fill="none" stroke="firebrick" stroke-width="2" d="M1282.51,-894.8C1299.28,-880.39 1317.92,-864.79 1335.5,-851 1380.08,-816.02 1432.09,-778.78 1472.03,-750.91"/>
<polygon fill="firebrick" stroke="firebrick" stroke-width="2" points="1472.71,-754.7 1478.91,-746.12 1468.71,-748.96 1472.71,-754.7"/>
</g>
<!-- 7234 -->
<g id="node7" class="node">
<title>7234</title>
<polygon fill="none" stroke="black" stroke-width="2" points="983.88,-516.62 785.12,-516.62 785.12,-418.12 983.88,-418.12 983.88,-516.62"/>
<polygon fill="none" stroke="black" points="794.12,-489.12 794.12,-511.62 974.88,-511.62 974.88,-489.12 794.12,-489.12"/>
<text text-anchor="start" x="804.62" y="-496.32" font-family="Times New Roman,serif" font-weight="bold" font-size="14.00">Element_Simultaneous (5)</text>
<polygon fill="none" stroke="black" points="794.12,-466.62 794.12,-489.12 974.88,-489.12 974.88,-466.62 794.12,-466.62"/>
<text text-anchor="start" x="852.62" y="-473.82" font-family="Times New Roman,serif" font-weight="bold" font-size="14.00">Properties</text>
<polygon fill="none" stroke="black" points="794.12,-444.88 794.12,-466.62 974.88,-466.62 974.88,-444.88 794.12,-444.88"/>
<text text-anchor="start" x="803.5" y="-450.32" font-family="Times New Roman,serif" font-size="14.00">[Int] EndPolicy (default = 0) </text>
<polygon fill="none" stroke="black" points="794.12,-423.12 794.12,-444.88 974.88,-444.88 974.88,-423.12 794.12,-423.12"/>
<text text-anchor="start" x="797.12" y="-428.57" font-family="Times New Roman,serif" font-size="14.00">[Int] ResultPolicy (default = 0) </text>
<polygon fill="none" stroke="black" points="793.12,-422.12 793.12,-512.62 975.88,-512.62 975.88,-422.12 793.12,-422.12"/>
</g>
<!-- 7228&#45;&gt;7234 -->
<g id="edge6" class="edge">
<title>7228&#45;&gt;7234</title>
<path fill="none" stroke="firebrick" stroke-width="2" d="M884.5,-612.35C884.5,-584.05 884.5,-553.68 884.5,-528.16"/>
<polygon fill="firebrick" stroke="firebrick" stroke-width="2" points="888,-529.83 884.5,-519.83 881,-529.83 888,-529.83"/>
<text text-anchor="middle" x="897.62" y="-580.95" font-family="Times New Roman,serif" font-size="14.00" fill="firebrick">True</text>
</g>
<!-- 7243 -->
<g id="node8" class="node">
<title>7243</title>
<polygon fill="none" stroke="black" stroke-width="2" points="693.38,-560.5 377.62,-560.5 377.62,-374.25 693.38,-374.25 693.38,-560.5"/>
<polygon fill="none" stroke="black" points="386.62,-533 386.62,-555.5 684.38,-555.5 684.38,-533 386.62,-533"/>
<text text-anchor="start" x="453.38" y="-540.2" font-family="Times New Roman,serif" font-weight="bold" font-size="14.00">Element_BoolSelector (14)</text>
<polygon fill="none" stroke="black" points="386.62,-510.5 386.62,-533 684.38,-533 684.38,-510.5 386.62,-510.5"/>
<text text-anchor="start" x="503.62" y="-517.7" font-family="Times New Roman,serif" font-weight="bold" font-size="14.00">Properties</text>
<polygon fill="none" stroke="black" points="386.62,-488.75 386.62,-510.5 684.38,-510.5 684.38,-488.75 386.62,-488.75"/>
<text text-anchor="start" x="438.38" y="-494.2" font-family="Times New Roman,serif" font-size="14.00">[Int] CalculateTiming (default = 0) </text>
<polygon fill="none" stroke="black" points="386.62,-467 386.62,-488.75 684.38,-488.75 684.38,-467 386.62,-467"/>
<text text-anchor="start" x="419.25" y="-472.45" font-family="Times New Roman,serif" font-size="14.00">[Bool] ChildFrameSync (default = False) </text>
<polygon fill="none" stroke="black" points="386.62,-445.25 386.62,-467 684.38,-467 684.38,-445.25 386.62,-445.25"/>
<text text-anchor="start" x="435.75" y="-450.7" font-family="Times New Roman,serif" font-size="14.00">[Bool] InputValue (default = False) </text>
<polygon fill="none" stroke="black" points="386.62,-423.5 386.62,-445.25 684.38,-445.25 684.38,-423.5 386.62,-423.5"/>
<text text-anchor="start" x="389.62" y="-428.95" font-family="Times New Roman,serif" font-size="14.00">[Bool] IsNoSelectWhenChildBusy (default = False) </text>
<polygon fill="none" stroke="black" points="386.62,-401 386.62,-423.5 684.38,-423.5 684.38,-401 386.62,-401"/>
<text text-anchor="start" x="516.38" y="-408.2" font-family="Times New Roman,serif" font-weight="bold" font-size="14.00">Inputs</text>
<polygon fill="none" stroke="black" points="386.62,-379.25 386.62,-401 684.38,-401 684.38,-379.25 386.62,-379.25"/>
<text text-anchor="start" x="451.5" y="-384.7" font-family="Times New Roman,serif" font-size="14.00">[Bool] Input (default = False) </text>
<polygon fill="none" stroke="black" points="385.62,-378.25 385.62,-556.5 685.38,-556.5 685.38,-378.25 385.62,-378.25"/>
</g>
<!-- 7228&#45;&gt;7243 -->
<g id="edge7" class="edge">
<title>7228&#45;&gt;7243</title>
<path fill="none" stroke="firebrick" stroke-width="2" d="M747.82,-612.18C726.08,-597.46 703.53,-582.18 681.59,-567.32"/>
<polygon fill="firebrick" stroke="firebrick" stroke-width="2" points="684.97,-565.38 674.73,-562.67 681.05,-571.18 684.97,-565.38"/>
<text text-anchor="middle" x="735.12" y="-580.95" font-family="Times New Roman,serif" font-size="14.00" fill="firebrick">False</text>
</g>
<!-- 7237 -->
<g id="node10" class="node">
<title>7237</title>
<polygon fill="none" stroke="black" stroke-width="2" points="1000.62,-289.5 758.38,-289.5 758.38,-212.75 1000.62,-212.75 1000.62,-289.5"/>
<polygon fill="none" stroke="black" points="767.38,-262 767.38,-284.5 991.62,-284.5 991.62,-262 767.38,-262"/>
<text text-anchor="start" x="770.38" y="-269.2" font-family="Times New Roman,serif" font-weight="bold" font-size="14.00">ChangePreGamePause.module (10)</text>
<polygon fill="none" stroke="black" points="767.38,-239.5 767.38,-262 991.62,-262 991.62,-239.5 767.38,-239.5"/>
<text text-anchor="start" x="860.38" y="-246.7" font-family="Times New Roman,serif" font-weight="bold" font-size="14.00">Inputs</text>
<polygon fill="none" stroke="black" points="767.38,-217.75 767.38,-239.5 991.62,-239.5 991.62,-217.75 767.38,-217.75"/>
<text text-anchor="start" x="788.38" y="-223.2" font-family="Times New Roman,serif" font-size="14.00">[Bool] IsPause (default = False) </text>
<polygon fill="none" stroke="black" points="766.38,-216.75 766.38,-285.5 992.62,-285.5 992.62,-216.75 766.38,-216.75"/>
</g>
<!-- 7234&#45;&gt;7237 -->
<g id="edge9" class="edge">
<title>7234&#45;&gt;7237</title>
<path fill="none" stroke="firebrick" stroke-width="2" d="M883.37,-417.76C882.55,-382.93 881.46,-336.2 880.65,-301.25"/>
<polygon fill="firebrick" stroke="firebrick" stroke-width="2" points="884.18,-302.83 880.45,-292.91 877.19,-302.99 884.18,-302.83"/>
</g>
<!-- 7240 -->
<g id="node11" class="node">
<title>7240</title>
<polygon fill="none" stroke="black" stroke-width="2" points="1360.12,-322.5 1018.88,-322.5 1018.88,-179.75 1360.12,-179.75 1360.12,-322.5"/>
<polygon fill="none" stroke="black" points="1027.88,-295 1027.88,-317.5 1351.12,-317.5 1351.12,-295 1027.88,-295"/>
<text text-anchor="start" x="1030.88" y="-302.2" font-family="Times New Roman,serif" font-weight="bold" font-size="14.00">SeqOneShotRequestCancelGameScreenCapture (6)</text>
<polygon fill="none" stroke="black" points="1027.88,-272.5 1027.88,-295 1351.12,-295 1351.12,-272.5 1027.88,-272.5"/>
<text text-anchor="start" x="1157.62" y="-279.7" font-family="Times New Roman,serif" font-weight="bold" font-size="14.00">Properties</text>
<polygon fill="none" stroke="black" points="1027.88,-250.75 1027.88,-272.5 1351.12,-272.5 1351.12,-250.75 1027.88,-250.75"/>
<text text-anchor="start" x="1064.25" y="-256.2" font-family="Times New Roman,serif" font-size="14.00">[Bool] ExecuteEveryFrame (default = False) </text>
<polygon fill="none" stroke="black" points="1027.88,-228.25 1027.88,-250.75 1351.12,-250.75 1351.12,-228.25 1027.88,-228.25"/>
<text text-anchor="start" x="1170.38" y="-235.45" font-family="Times New Roman,serif" font-weight="bold" font-size="14.00">Inputs</text>
<polygon fill="none" stroke="black" points="1027.88,-206.5 1027.88,-228.25 1351.12,-228.25 1351.12,-206.5 1027.88,-206.5"/>
<text text-anchor="start" x="1119.38" y="-211.95" font-family="Times New Roman,serif" font-size="14.00">[Int] Target (default = 1) </text>
<polygon fill="none" stroke="black" points="1027.88,-184.75 1027.88,-206.5 1351.12,-206.5 1351.12,-184.75 1027.88,-184.75"/>
<text text-anchor="start" x="1099.88" y="-190.2" font-family="Times New Roman,serif" font-size="14.00">[Bool] IsForce (default = True) </text>
<polygon fill="none" stroke="black" points="1026.88,-183.75 1026.88,-318.5 1352.12,-318.5 1352.12,-183.75 1026.88,-183.75"/>
</g>
<!-- 7234&#45;&gt;7240 -->
<g id="edge10" class="edge">
<title>7234&#45;&gt;7240</title>
<path fill="none" stroke="firebrick" stroke-width="2" d="M953.71,-417.76C990.88,-391.65 1037.57,-358.85 1079.58,-329.34"/>
<polygon fill="firebrick" stroke="firebrick" stroke-width="2" points="1080.1,-333.25 1086.27,-324.64 1076.07,-327.53 1080.1,-333.25"/>
</g>
<!-- 7249 -->
<g id="node12" class="node">
<title>7249</title>
<polygon fill="none" stroke="black" stroke-width="2" points="352.88,-300.38 154.12,-300.38 154.12,-201.88 352.88,-201.88 352.88,-300.38"/>
<polygon fill="none" stroke="black" points="163.12,-272.88 163.12,-295.38 343.88,-295.38 343.88,-272.88 163.12,-272.88"/>
<text text-anchor="start" x="173.62" y="-280.07" font-family="Times New Roman,serif" font-weight="bold" font-size="14.00">Element_Simultaneous (8)</text>
<polygon fill="none" stroke="black" points="163.12,-250.38 163.12,-272.88 343.88,-272.88 343.88,-250.38 163.12,-250.38"/>
<text text-anchor="start" x="221.62" y="-257.57" font-family="Times New Roman,serif" font-weight="bold" font-size="14.00">Properties</text>
<polygon fill="none" stroke="black" points="163.12,-228.62 163.12,-250.38 343.88,-250.38 343.88,-228.62 163.12,-228.62"/>
<text text-anchor="start" x="172.5" y="-234.07" font-family="Times New Roman,serif" font-size="14.00">[Int] EndPolicy (default = 0) </text>
<polygon fill="none" stroke="black" points="163.12,-206.88 163.12,-228.62 343.88,-228.62 343.88,-206.88 163.12,-206.88"/>
<text text-anchor="start" x="166.12" y="-212.32" font-family="Times New Roman,serif" font-size="14.00">[Int] ResultPolicy (default = 0) </text>
<polygon fill="none" stroke="black" points="162.12,-205.88 162.12,-296.38 344.88,-296.38 344.88,-205.88 162.12,-205.88"/>
</g>
<!-- 7243&#45;&gt;7249 -->
<g id="edge11" class="edge">
<title>7243&#45;&gt;7249</title>
<path fill="none" stroke="firebrick" stroke-width="2" d="M413.86,-373.96C383.99,-351.27 352.95,-327.68 326.22,-307.37"/>
<polygon fill="firebrick" stroke="firebrick" stroke-width="2" points="329.81,-305.71 319.73,-302.45 325.58,-311.28 329.81,-305.71"/>
<text text-anchor="middle" x="399.62" y="-342.95" font-family="Times New Roman,serif" font-size="14.00" fill="firebrick">True</text>
</g>
<!-- 7258 -->
<g id="node13" class="node">
<title>7258</title>
<polygon fill="none" stroke="black" stroke-width="2" points="719.88,-322.5 371.12,-322.5 371.12,-179.75 719.88,-179.75 719.88,-322.5"/>
<polygon fill="none" stroke="black" points="380.12,-295 380.12,-317.5 710.88,-317.5 710.88,-295 380.12,-295"/>
<text text-anchor="start" x="383.12" y="-302.2" font-family="Times New Roman,serif" font-weight="bold" font-size="14.00">SeqOneShotRequestCancelGameScreenCapture (15)</text>
<polygon fill="none" stroke="black" points="380.12,-272.5 380.12,-295 710.88,-295 710.88,-272.5 380.12,-272.5"/>
<text text-anchor="start" x="513.62" y="-279.7" font-family="Times New Roman,serif" font-weight="bold" font-size="14.00">Properties</text>
<polygon fill="none" stroke="black" points="380.12,-250.75 380.12,-272.5 710.88,-272.5 710.88,-250.75 380.12,-250.75"/>
<text text-anchor="start" x="420.25" y="-256.2" font-family="Times New Roman,serif" font-size="14.00">[Bool] ExecuteEveryFrame (default = False) </text>
<polygon fill="none" stroke="black" points="380.12,-228.25 380.12,-250.75 710.88,-250.75 710.88,-228.25 380.12,-228.25"/>
<text text-anchor="start" x="526.38" y="-235.45" font-family="Times New Roman,serif" font-weight="bold" font-size="14.00">Inputs</text>
<polygon fill="none" stroke="black" points="380.12,-206.5 380.12,-228.25 710.88,-228.25 710.88,-206.5 380.12,-206.5"/>
<text text-anchor="start" x="475.38" y="-211.95" font-family="Times New Roman,serif" font-size="14.00">[Int] Target (default = 1) </text>
<polygon fill="none" stroke="black" points="380.12,-184.75 380.12,-206.5 710.88,-206.5 710.88,-184.75 380.12,-184.75"/>
<text text-anchor="start" x="455.88" y="-190.2" font-family="Times New Roman,serif" font-size="14.00">[Bool] IsForce (default = True) </text>
<polygon fill="none" stroke="black" points="379.12,-183.75 379.12,-318.5 711.88,-318.5 711.88,-183.75 379.12,-183.75"/>
</g>
<!-- 7243&#45;&gt;7258 -->
<g id="edge12" class="edge">
<title>7243&#45;&gt;7258</title>
<path fill="none" stroke="firebrick" stroke-width="2" d="M539.81,-373.96C540.43,-360.73 541.06,-347.2 541.67,-334.19"/>
<polygon fill="firebrick" stroke="firebrick" stroke-width="2" points="545.08,-336.09 542.05,-325.94 538.09,-335.76 545.08,-336.09"/>
<text text-anchor="middle" x="556.12" y="-342.95" font-family="Times New Roman,serif" font-size="14.00" fill="firebrick">False</text>
</g>
<!-- 7231 -->
<g id="node9" class="node">
<title>7231</title>
<polygon fill="none" stroke="black" stroke-width="2" points="1088.5,-1038 680.5,-1038 680.5,-851 1088.5,-851 1088.5,-1038"/>
<polygon fill="none" stroke="black" points="689.5,-1010.5 689.5,-1033 1079.5,-1033 1079.5,-1010.5 689.5,-1010.5"/>
<text text-anchor="start" x="734.5" y="-1017.7" font-family="Times New Roman,serif" font-weight="bold" font-size="14.00">SeqQueryGetNonStructGameDataBoolDirect (4)</text>
<polygon fill="none" stroke="black" points="689.5,-988 689.5,-1010.5 1079.5,-1010.5 1079.5,-988 689.5,-988"/>
<text text-anchor="start" x="852.62" y="-995.2" font-family="Times New Roman,serif" font-weight="bold" font-size="14.00">Properties</text>
<polygon fill="none" stroke="black" points="689.5,-966.25 689.5,-988 1079.5,-988 1079.5,-966.25 689.5,-966.25"/>
<text text-anchor="start" x="758.88" y="-971.7" font-family="Times New Roman,serif" font-size="14.00">[Bool] OutputOnlyOnEnter (default = False) </text>
<polygon fill="none" stroke="black" points="689.5,-943.75 689.5,-966.25 1079.5,-966.25 1079.5,-943.75 689.5,-943.75"/>
<text text-anchor="start" x="865.38" y="-950.95" font-family="Times New Roman,serif" font-weight="bold" font-size="14.00">Inputs</text>
<polygon fill="none" stroke="black" points="689.5,-922 689.5,-943.75 1079.5,-943.75 1079.5,-922 689.5,-922"/>
<text text-anchor="start" x="785.12" y="-927.45" font-family="Times New Roman,serif" font-size="14.00">[Int] GameDataIndex (default = &#45;1) </text>
<polygon fill="none" stroke="black" points="689.5,-900.25 689.5,-922 1079.5,-922 1079.5,-900.25 689.5,-900.25"/>
<text text-anchor="start" x="692.5" y="-905.7" font-family="Times New Roman,serif" font-size="14.00">[String] GameDataFullName (default = Sequence_IsPreGamePause) </text>
<polygon fill="none" stroke="black" points="689.5,-877.75 689.5,-900.25 1079.5,-900.25 1079.5,-877.75 689.5,-877.75"/>
<text text-anchor="start" x="860.12" y="-884.95" font-family="Times New Roman,serif" font-weight="bold" font-size="14.00">Outputs</text>
<polygon fill="none" stroke="black" points="689.5,-856 689.5,-877.75 1079.5,-877.75 1079.5,-856 689.5,-856"/>
<text text-anchor="start" x="848.88" y="-861.45" font-family="Times New Roman,serif" font-size="14.00">[Bool] Value</text>
<polygon fill="none" stroke="black" points="688.5,-855 688.5,-1034 1080.5,-1034 1080.5,-855 688.5,-855"/>
</g>
<!-- 7231&#45;&gt;7228 -->
<g id="edge8" class="edge">
<title>7231:7271&#45;&gt;7228:7268</title>
<path fill="none" stroke="#008000" stroke-dasharray="5,2" d="M884.5,-854.5C884.5,-780.11 999.39,-859.59 1042.38,-798.88 1054,-782.45 1056.56,-632.03 1042.38,-617.75 1031.89,-607.2 925.75,-601.21 893.65,-610.32"/>
<polygon fill="#008000" stroke="#008000" points="891.9,-607.26 885.74,-615.88 895.93,-612.99 891.9,-607.26"/>
<text text-anchor="middle" x="1033.12" y="-819.7" font-family="Times New Roman,serif" font-size="14.00" fill="#008000">Input</text>
</g>
<!-- 7252 -->
<g id="node15" class="node">
<title>7252</title>
<polygon fill="none" stroke="black" stroke-width="2" points="213,-109.75 0,-109.75 0,-33 213,-33 213,-109.75"/>
<polygon fill="none" stroke="black" points="9,-82.25 9,-104.75 204,-104.75 204,-82.25 9,-82.25"/>
<text text-anchor="start" x="12" y="-89.45" font-family="Times New Roman,serif" font-weight="bold" font-size="14.00">ChangeGamePause.module (9)</text>
<polygon fill="none" stroke="black" points="9,-59.75 9,-82.25 204,-82.25 204,-59.75 9,-59.75"/>
<text text-anchor="start" x="87.38" y="-66.95" font-family="Times New Roman,serif" font-weight="bold" font-size="14.00">Inputs</text>
<polygon fill="none" stroke="black" points="9,-38 9,-59.75 204,-59.75 204,-38 9,-38"/>
<text text-anchor="start" x="15.38" y="-43.45" font-family="Times New Roman,serif" font-size="14.00">[Bool] IsPause (default = False) </text>
<polygon fill="none" stroke="black" points="8,-37 8,-105.75 205,-105.75 205,-37 8,-37"/>
</g>
<!-- 7249&#45;&gt;7252 -->
<g id="edge14" class="edge">
<title>7249&#45;&gt;7252</title>
<path fill="none" stroke="firebrick" stroke-width="2" d="M213.33,-201.55C192.04,-175.81 166.01,-144.34 144.98,-118.9"/>
<polygon fill="firebrick" stroke="firebrick" stroke-width="2" points="148.76,-117.99 139.69,-112.51 143.37,-122.45 148.76,-117.99"/>
</g>
<!-- 7255 -->
<g id="node16" class="node">
<title>7255</title>
<polygon fill="none" stroke="black" stroke-width="2" points="572.12,-142.75 230.88,-142.75 230.88,0 572.12,0 572.12,-142.75"/>
<polygon fill="none" stroke="black" points="239.88,-115.25 239.88,-137.75 563.12,-137.75 563.12,-115.25 239.88,-115.25"/>
<text text-anchor="start" x="242.88" y="-122.45" font-family="Times New Roman,serif" font-weight="bold" font-size="14.00">SeqOneShotRequestCancelGameScreenCapture (7)</text>
<polygon fill="none" stroke="black" points="239.88,-92.75 239.88,-115.25 563.12,-115.25 563.12,-92.75 239.88,-92.75"/>
<text text-anchor="start" x="369.62" y="-99.95" font-family="Times New Roman,serif" font-weight="bold" font-size="14.00">Properties</text>
<polygon fill="none" stroke="black" points="239.88,-71 239.88,-92.75 563.12,-92.75 563.12,-71 239.88,-71"/>
<text text-anchor="start" x="276.25" y="-76.45" font-family="Times New Roman,serif" font-size="14.00">[Bool] ExecuteEveryFrame (default = False) </text>
<polygon fill="none" stroke="black" points="239.88,-48.5 239.88,-71 563.12,-71 563.12,-48.5 239.88,-48.5"/>
<text text-anchor="start" x="382.38" y="-55.7" font-family="Times New Roman,serif" font-weight="bold" font-size="14.00">Inputs</text>
<polygon fill="none" stroke="black" points="239.88,-26.75 239.88,-48.5 563.12,-48.5 563.12,-26.75 239.88,-26.75"/>
<text text-anchor="start" x="331.38" y="-32.2" font-family="Times New Roman,serif" font-size="14.00">[Int] Target (default = 1) </text>
<polygon fill="none" stroke="black" points="239.88,-5 239.88,-26.75 563.12,-26.75 563.12,-5 239.88,-5"/>
<text text-anchor="start" x="311.88" y="-10.45" font-family="Times New Roman,serif" font-size="14.00">[Bool] IsForce (default = True) </text>
<polygon fill="none" stroke="black" points="238.88,-4 238.88,-138.75 564.12,-138.75 564.12,-4 238.88,-4"/>
</g>
<!-- 7249&#45;&gt;7255 -->
<g id="edge15" class="edge">
<title>7249&#45;&gt;7255</title>
<path fill="none" stroke="firebrick" stroke-width="2" d="M293.94,-201.55C306.7,-186.24 321.14,-168.89 335.2,-152"/>
<polygon fill="firebrick" stroke="firebrick" stroke-width="2" points="336.87,-155.47 340.58,-145.54 331.49,-150.99 336.87,-155.47"/>
</g>
<!-- 7246 -->
<g id="node14" class="node">
<title>7246</title>
<polygon fill="none" stroke="black" stroke-width="2" points="708.62,-799.25 352.38,-799.25 352.38,-612.25 708.62,-612.25 708.62,-799.25"/>
<polygon fill="none" stroke="black" points="361.38,-771.75 361.38,-794.25 699.62,-794.25 699.62,-771.75 361.38,-771.75"/>
<text text-anchor="start" x="376.75" y="-778.95" font-family="Times New Roman,serif" font-weight="bold" font-size="14.00">SeqQueryGetNonStructGameDataBoolDirect (13)</text>
<polygon fill="none" stroke="black" points="361.38,-749.25 361.38,-771.75 699.62,-771.75 699.62,-749.25 361.38,-749.25"/>
<text text-anchor="start" x="498.62" y="-756.45" font-family="Times New Roman,serif" font-weight="bold" font-size="14.00">Properties</text>
<polygon fill="none" stroke="black" points="361.38,-727.5 361.38,-749.25 699.62,-749.25 699.62,-727.5 361.38,-727.5"/>
<text text-anchor="start" x="404.88" y="-732.95" font-family="Times New Roman,serif" font-size="14.00">[Bool] OutputOnlyOnEnter (default = False) </text>
<polygon fill="none" stroke="black" points="361.38,-705 361.38,-727.5 699.62,-727.5 699.62,-705 361.38,-705"/>
<text text-anchor="start" x="511.38" y="-712.2" font-family="Times New Roman,serif" font-weight="bold" font-size="14.00">Inputs</text>
<polygon fill="none" stroke="black" points="361.38,-683.25 361.38,-705 699.62,-705 699.62,-683.25 361.38,-683.25"/>
<text text-anchor="start" x="431.12" y="-688.7" font-family="Times New Roman,serif" font-size="14.00">[Int] GameDataIndex (default = &#45;1) </text>
<polygon fill="none" stroke="black" points="361.38,-661.5 361.38,-683.25 699.62,-683.25 699.62,-661.5 361.38,-661.5"/>
<text text-anchor="start" x="364.38" y="-666.95" font-family="Times New Roman,serif" font-size="14.00">[String] GameDataFullName (default = Sequence_IsPause) </text>
<polygon fill="none" stroke="black" points="361.38,-639 361.38,-661.5 699.62,-661.5 699.62,-639 361.38,-639"/>
<text text-anchor="start" x="506.12" y="-646.2" font-family="Times New Roman,serif" font-weight="bold" font-size="14.00">Outputs</text>
<polygon fill="none" stroke="black" points="361.38,-617.25 361.38,-639 699.62,-639 699.62,-617.25 361.38,-617.25"/>
<text text-anchor="start" x="494.88" y="-622.7" font-family="Times New Roman,serif" font-size="14.00">[Bool] Value</text>
<polygon fill="none" stroke="black" points="360.38,-616.25 360.38,-795.25 700.62,-795.25 700.62,-616.25 360.38,-616.25"/>
</g>
<!-- 7246&#45;&gt;7243 -->
<g id="edge13" class="edge">
<title>7246:7278&#45;&gt;7243:7275</title>
<path fill="none" stroke="#008000" stroke-dasharray="5,2" d="M530.5,-615.75C530.5,-577.53 671.11,-591.56 693.38,-560.5 740.27,-495.07 750.12,-436.48 693.38,-379.38 682.89,-368.83 576.75,-362.84 544.65,-371.94"/>
<polygon fill="#008000" stroke="#008000" points="542.9,-368.89 536.74,-377.5 546.93,-374.61 542.9,-368.89"/>
<text text-anchor="middle" x="663.12" y="-580.95" font-family="Times New Roman,serif" font-size="14.00" fill="#008000">Input</text>
</g>
<!-- 7287 -->
<g id="node17" class="node">
<title>7287</title>
<ellipse fill="mediumpurple" stroke="mediumpurple" cx="1347.5" cy="-1337.25" rx="31.39" ry="18"/>
<text text-anchor="start" x="1332.5" y="-1333.2" font-family="Times New Roman,serif" font-weight="bold" font-size="14.00" fill="white">Root</text>
</g>
<!-- 7287&#45;&gt;7222 -->
<g id="edge16" class="edge">
<title>7287&#45;&gt;7222</title>
<path fill="none" stroke="black" d="M1347.5,-1318.89C1347.5,-1312.02 1347.5,-1303.51 1347.5,-1294.12"/>
<polygon fill="black" stroke="black" points="1351,-1294.23 1347.5,-1284.23 1344,-1294.23 1351,-1294.23"/>
</g>
</g>
</svg>
