<?xml version="1.0" encoding="UTF-8" standalone="no"?>
<!DOCTYPE svg PUBLIC "-//W3C//DTD SVG 1.1//EN"
 "http://www.w3.org/Graphics/SVG/1.1/DTD/svg11.dtd">
<!-- Generated by graphviz version 9.0.0 (20230911.1827)
 -->
<!-- Title: InitializeNavMeshMgr.module Pages: 1 -->
<svg width="966pt" height="905pt"
 viewBox="0.00 0.00 966.38 904.75" xmlns="http://www.w3.org/2000/svg" xmlns:xlink="http://www.w3.org/1999/xlink">
<g id="graph0" class="graph" transform="scale(1 1) rotate(0) translate(4 900.75)">
<title>InitializeNavMeshMgr.module</title>
<polygon fill="lightgray" stroke="none" points="-4,4 -4,-900.75 962.38,-900.75 962.38,4 -4,4"/>
<!-- 7295 -->
<g id="node1" class="node">
<title>7295</title>
<polygon fill="none" stroke="black" stroke-width="2" points="360.88,-724 77.38,-724 77.38,-516.75 360.88,-516.75 360.88,-724"/>
<polygon fill="none" stroke="black" points="86.38,-696.5 86.38,-719 351.88,-719 351.88,-696.5 86.38,-696.5"/>
<text text-anchor="start" x="148.25" y="-703.7" font-family="Times New Roman,serif" font-weight="bold" font-size="14.00">Element_Sequential (3)</text>
<polygon fill="none" stroke="black" points="86.38,-674 86.38,-696.5 351.88,-696.5 351.88,-674 86.38,-674"/>
<text text-anchor="start" x="187.25" y="-681.2" font-family="Times New Roman,serif" font-weight="bold" font-size="14.00">Properties</text>
<polygon fill="none" stroke="black" points="86.38,-652.25 86.38,-674 351.88,-674 351.88,-652.25 86.38,-652.25"/>
<text text-anchor="start" x="135.12" y="-657.7" font-family="Times New Roman,serif" font-size="14.00">[Int] BusyPolicy (default = 0) </text>
<polygon fill="none" stroke="black" points="86.38,-630.5 86.38,-652.25 351.88,-652.25 351.88,-630.5 86.38,-630.5"/>
<text text-anchor="start" x="138.12" y="-635.95" font-family="Times New Roman,serif" font-size="14.00">[Int] NumLoop (default = 0) </text>
<polygon fill="none" stroke="black" points="86.38,-608.75 86.38,-630.5 351.88,-630.5 351.88,-608.75 86.38,-608.75"/>
<text text-anchor="start" x="137.38" y="-614.2" font-family="Times New Roman,serif" font-size="14.00">[Int] PlayPolicy (default = 0) </text>
<polygon fill="none" stroke="black" points="86.38,-587 86.38,-608.75 351.88,-608.75 351.88,-587 86.38,-587"/>
<text text-anchor="start" x="131.75" y="-592.45" font-family="Times New Roman,serif" font-size="14.00">[Int] ResultPolicy (default = 0) </text>
<polygon fill="none" stroke="black" points="86.38,-565.25 86.38,-587 351.88,-587 351.88,-565.25 86.38,-565.25"/>
<text text-anchor="start" x="112.62" y="-570.7" font-family="Times New Roman,serif" font-size="14.00">[Bool] IsDelayJudge (default = False) </text>
<polygon fill="none" stroke="black" points="86.38,-543.5 86.38,-565.25 351.88,-565.25 351.88,-543.5 86.38,-543.5"/>
<text text-anchor="start" x="129.12" y="-548.95" font-family="Times New Roman,serif" font-size="14.00">[Bool] IsLoop (default = False) </text>
<polygon fill="none" stroke="black" points="86.38,-521.75 86.38,-543.5 351.88,-543.5 351.88,-521.75 86.38,-521.75"/>
<text text-anchor="start" x="89.38" y="-527.2" font-family="Times New Roman,serif" font-size="14.00">[Bool] IsUpdateNextInFrame (default = True) </text>
<polygon fill="none" stroke="black" points="85.38,-520.75 85.38,-720 352.88,-720 352.88,-520.75 85.38,-520.75"/>
</g>
<!-- 7298 -->
<g id="node2" class="node">
<title>7298</title>
<polygon fill="none" stroke="black" stroke-width="2" points="343.62,-379 94.62,-379 94.62,-343 343.62,-343 343.62,-379"/>
<polygon fill="none" stroke="black" points="103.62,-349.75 103.62,-372.25 334.62,-372.25 334.62,-349.75 103.62,-349.75"/>
<text text-anchor="start" x="106.62" y="-356.95" font-family="Times New Roman,serif" font-weight="bold" font-size="14.00">SeqExecuteFinalizeNavMeshMgr (0)</text>
<polygon fill="none" stroke="black" points="102.62,-348.75 102.62,-373.25 335.62,-373.25 335.62,-348.75 102.62,-348.75"/>
</g>
<!-- 7295&#45;&gt;7298 -->
<g id="edge1" class="edge">
<title>7295&#45;&gt;7298</title>
<path fill="none" stroke="firebrick" stroke-width="2" d="M219.12,-516.54C219.12,-471.01 219.12,-420.97 219.12,-390.52"/>
<polygon fill="firebrick" stroke="firebrick" stroke-width="2" points="222.63,-392.14 219.13,-382.14 215.63,-392.14 222.63,-392.14"/>
</g>
<!-- 7301 -->
<g id="node3" class="node">
<title>7301</title>
<polygon fill="none" stroke="black" stroke-width="2" points="686,-465 370.25,-465 370.25,-257 686,-257 686,-465"/>
<polygon fill="none" stroke="black" points="379.25,-437.5 379.25,-460 677,-460 677,-437.5 379.25,-437.5"/>
<text text-anchor="start" x="452.38" y="-444.7" font-family="Times New Roman,serif" font-weight="bold" font-size="14.00">Element_S32Selector (4)</text>
<polygon fill="none" stroke="black" points="379.25,-415 379.25,-437.5 677,-437.5 677,-415 379.25,-415"/>
<text text-anchor="start" x="496.25" y="-422.2" font-family="Times New Roman,serif" font-weight="bold" font-size="14.00">Properties</text>
<polygon fill="none" stroke="black" points="379.25,-393.25 379.25,-415 677,-415 677,-393.25 379.25,-393.25"/>
<text text-anchor="start" x="431" y="-398.7" font-family="Times New Roman,serif" font-size="14.00">[Int] CalculateTiming (default = 0) </text>
<polygon fill="none" stroke="black" points="379.25,-371.5 379.25,-393.25 677,-393.25 677,-371.5 379.25,-371.5"/>
<text text-anchor="start" x="445.62" y="-376.95" font-family="Times New Roman,serif" font-size="14.00">[Int] InputValue (default = 0) </text>
<polygon fill="none" stroke="black" points="379.25,-349.75 379.25,-371.5 677,-371.5 677,-349.75 379.25,-349.75"/>
<text text-anchor="start" x="411.88" y="-355.2" font-family="Times New Roman,serif" font-size="14.00">[Bool] ChildFrameSync (default = False) </text>
<polygon fill="none" stroke="black" points="379.25,-328 379.25,-349.75 677,-349.75 677,-328 379.25,-328"/>
<text text-anchor="start" x="384.88" y="-333.45" font-family="Times New Roman,serif" font-size="14.00">[Bool] IsNoSelectIfSameInstance (default = False) </text>
<polygon fill="none" stroke="black" points="379.25,-306.25 379.25,-328 677,-328 677,-306.25 379.25,-306.25"/>
<text text-anchor="start" x="382.25" y="-311.7" font-family="Times New Roman,serif" font-size="14.00">[Bool] IsNoSelectWhenChildBusy (default = False) </text>
<polygon fill="none" stroke="black" points="379.25,-283.75 379.25,-306.25 677,-306.25 677,-283.75 379.25,-283.75"/>
<text text-anchor="start" x="509" y="-290.95" font-family="Times New Roman,serif" font-weight="bold" font-size="14.00">Inputs</text>
<polygon fill="none" stroke="black" points="379.25,-262 379.25,-283.75 677,-283.75 677,-262 379.25,-262"/>
<text text-anchor="start" x="461.38" y="-267.45" font-family="Times New Roman,serif" font-size="14.00">[Int] Input (default = 0) </text>
<polygon fill="none" stroke="black" points="378.25,-261 378.25,-461 678,-461 678,-261 378.25,-261"/>
</g>
<!-- 7295&#45;&gt;7301 -->
<g id="edge2" class="edge">
<title>7295&#45;&gt;7301</title>
<path fill="none" stroke="firebrick" stroke-width="2" d="M342.58,-516.54C359.99,-502.04 377.95,-487.09 395.52,-472.45"/>
<polygon fill="firebrick" stroke="firebrick" stroke-width="2" points="396.34,-476.32 401.78,-467.24 391.86,-470.95 396.34,-476.32"/>
</g>
<!-- 7310 -->
<g id="node4" class="node">
<title>7310</title>
<polygon fill="none" stroke="black" stroke-width="2" points="334.38,-205.25 59.88,-205.25 59.88,-128.5 334.38,-128.5 334.38,-205.25"/>
<polygon fill="none" stroke="black" points="68.88,-177.75 68.88,-200.25 325.38,-200.25 325.38,-177.75 68.88,-177.75"/>
<text text-anchor="start" x="136.75" y="-184.95" font-family="Times New Roman,serif" font-weight="bold" font-size="14.00">SeqOneShotEnd (6)</text>
<polygon fill="none" stroke="black" points="68.88,-155.25 68.88,-177.75 325.38,-177.75 325.38,-155.25 68.88,-155.25"/>
<text text-anchor="start" x="165.25" y="-162.45" font-family="Times New Roman,serif" font-weight="bold" font-size="14.00">Properties</text>
<polygon fill="none" stroke="black" points="68.88,-133.5 68.88,-155.25 325.38,-155.25 325.38,-133.5 68.88,-133.5"/>
<text text-anchor="start" x="71.88" y="-138.95" font-family="Times New Roman,serif" font-size="14.00">[Bool] ExecuteEveryFrame (default = False) </text>
<polygon fill="none" stroke="black" points="67.88,-132.5 67.88,-201.25 326.38,-201.25 326.38,-132.5 67.88,-132.5"/>
</g>
<!-- 7301&#45;&gt;7310 -->
<g id="edge3" class="edge">
<title>7301&#45;&gt;7310</title>
<path fill="none" stroke="firebrick" stroke-width="2" d="M369.83,-266.71C364.2,-263.43 358.61,-260.18 353.12,-257 327.28,-242.01 298.94,-225.76 273.58,-211.29"/>
<polygon fill="firebrick" stroke="firebrick" stroke-width="2" points="276.7,-209.05 266.28,-207.13 273.24,-215.13 276.7,-209.05"/>
<text text-anchor="middle" x="321.5" y="-225.7" font-family="Times New Roman,serif" font-size="14.00" fill="firebrick">1</text>
</g>
<!-- 7316 -->
<g id="node5" class="node">
<title>7316</title>
<polygon fill="none" stroke="black" stroke-width="2" points="665.38,-205.25 390.88,-205.25 390.88,-128.5 665.38,-128.5 665.38,-205.25"/>
<polygon fill="none" stroke="black" points="399.88,-177.75 399.88,-200.25 656.38,-200.25 656.38,-177.75 399.88,-177.75"/>
<text text-anchor="start" x="467.75" y="-184.95" font-family="Times New Roman,serif" font-weight="bold" font-size="14.00">SeqOneShotEnd (8)</text>
<polygon fill="none" stroke="black" points="399.88,-155.25 399.88,-177.75 656.38,-177.75 656.38,-155.25 399.88,-155.25"/>
<text text-anchor="start" x="496.25" y="-162.45" font-family="Times New Roman,serif" font-weight="bold" font-size="14.00">Properties</text>
<polygon fill="none" stroke="black" points="399.88,-133.5 399.88,-155.25 656.38,-155.25 656.38,-133.5 399.88,-133.5"/>
<text text-anchor="start" x="402.88" y="-138.95" font-family="Times New Roman,serif" font-size="14.00">[Bool] ExecuteEveryFrame (default = False) </text>
<polygon fill="none" stroke="black" points="398.88,-132.5 398.88,-201.25 657.38,-201.25 657.38,-132.5 398.88,-132.5"/>
</g>
<!-- 7301&#45;&gt;7316 -->
<g id="edge4" class="edge">
<title>7301&#45;&gt;7316</title>
<path fill="none" stroke="firebrick" stroke-width="2" d="M528.12,-256.63C528.12,-242.76 528.12,-229.1 528.12,-216.81"/>
<polygon fill="firebrick" stroke="firebrick" stroke-width="2" points="531.63,-218.51 528.13,-208.51 524.63,-218.51 531.63,-218.51"/>
<text text-anchor="middle" x="531.5" y="-225.7" font-family="Times New Roman,serif" font-size="14.00" fill="firebrick">2</text>
</g>
<!-- 7322 -->
<g id="node6" class="node">
<title>7322</title>
<polygon fill="none" stroke="black" stroke-width="2" points="958.38,-205.25 683.88,-205.25 683.88,-128.5 958.38,-128.5 958.38,-205.25"/>
<polygon fill="none" stroke="black" points="692.88,-177.75 692.88,-200.25 949.38,-200.25 949.38,-177.75 692.88,-177.75"/>
<text text-anchor="start" x="760.75" y="-184.95" font-family="Times New Roman,serif" font-weight="bold" font-size="14.00">SeqOneShotEnd (7)</text>
<polygon fill="none" stroke="black" points="692.88,-155.25 692.88,-177.75 949.38,-177.75 949.38,-155.25 692.88,-155.25"/>
<text text-anchor="start" x="789.25" y="-162.45" font-family="Times New Roman,serif" font-weight="bold" font-size="14.00">Properties</text>
<polygon fill="none" stroke="black" points="692.88,-133.5 692.88,-155.25 949.38,-155.25 949.38,-133.5 692.88,-133.5"/>
<text text-anchor="start" x="695.88" y="-138.95" font-family="Times New Roman,serif" font-size="14.00">[Bool] ExecuteEveryFrame (default = False) </text>
<polygon fill="none" stroke="black" points="691.88,-132.5 691.88,-201.25 950.38,-201.25 950.38,-132.5 691.88,-132.5"/>
</g>
<!-- 7301&#45;&gt;7322 -->
<g id="edge5" class="edge">
<title>7301&#45;&gt;7322</title>
<path fill="none" stroke="firebrick" stroke-width="2" d="M685.77,-256.63C709.75,-240.91 733.32,-225.45 753.9,-211.96"/>
<polygon fill="firebrick" stroke="firebrick" stroke-width="2" points="754.47,-215.77 760.91,-207.36 750.63,-209.91 754.47,-215.77"/>
<text text-anchor="middle" x="754" y="-225.7" font-family="Times New Roman,serif" font-size="14.00" fill="firebrick">Default</text>
</g>
<!-- 7313 -->
<g id="node9" class="node">
<title>7313</title>
<polygon fill="none" stroke="black" stroke-width="2" points="356.25,-76.75 0,-76.75 0,0 356.25,0 356.25,-76.75"/>
<polygon fill="none" stroke="black" points="9,-49.25 9,-71.75 347.25,-71.75 347.25,-49.25 9,-49.25"/>
<text text-anchor="start" x="12" y="-56.45" font-family="Times New Roman,serif" font-weight="bold" font-size="14.00">SeqOneShotInitializeNavMeshMgrAsTerrainMode (1)</text>
<polygon fill="none" stroke="black" points="9,-26.75 9,-49.25 347.25,-49.25 347.25,-26.75 9,-26.75"/>
<text text-anchor="start" x="146.25" y="-33.95" font-family="Times New Roman,serif" font-weight="bold" font-size="14.00">Properties</text>
<polygon fill="none" stroke="black" points="9,-5 9,-26.75 347.25,-26.75 347.25,-5 9,-5"/>
<text text-anchor="start" x="52.88" y="-10.45" font-family="Times New Roman,serif" font-size="14.00">[Bool] ExecuteEveryFrame (default = False) </text>
<polygon fill="none" stroke="black" points="8,-4 8,-72.75 348.25,-72.75 348.25,-4 8,-4"/>
</g>
<!-- 7310&#45;&gt;7313 -->
<g id="edge8" class="edge">
<title>7310&#45;&gt;7313</title>
<path fill="none" stroke="midnightblue" stroke-width="2" d="M191.48,-128.26C189.6,-115.76 187.48,-101.64 185.49,-88.41"/>
<polygon fill="midnightblue" stroke="midnightblue" stroke-width="2" points="189.18,-89.42 184.23,-80.05 182.26,-90.46 189.18,-89.42"/>
<text text-anchor="middle" x="217.25" y="-97.2" font-family="Times New Roman,serif" font-size="14.00" fill="midnightblue">Transition</text>
</g>
<!-- 7319 -->
<g id="node10" class="node">
<title>7319</title>
<polygon fill="none" stroke="black" stroke-width="2" points="720.38,-76.75 373.88,-76.75 373.88,0 720.38,0 720.38,-76.75"/>
<polygon fill="none" stroke="black" points="382.88,-49.25 382.88,-71.75 711.38,-71.75 711.38,-49.25 382.88,-49.25"/>
<text text-anchor="start" x="385.88" y="-56.45" font-family="Times New Roman,serif" font-weight="bold" font-size="14.00">SeqOneShotInitializeNavMeshMgrAsSingleMode (5)</text>
<polygon fill="none" stroke="black" points="382.88,-26.75 382.88,-49.25 711.38,-49.25 711.38,-26.75 382.88,-26.75"/>
<text text-anchor="start" x="515.25" y="-33.95" font-family="Times New Roman,serif" font-weight="bold" font-size="14.00">Properties</text>
<polygon fill="none" stroke="black" points="382.88,-5 382.88,-26.75 711.38,-26.75 711.38,-5 382.88,-5"/>
<text text-anchor="start" x="421.88" y="-10.45" font-family="Times New Roman,serif" font-size="14.00">[Bool] ExecuteEveryFrame (default = False) </text>
<polygon fill="none" stroke="black" points="381.88,-4 381.88,-72.75 712.38,-72.75 712.38,-4 381.88,-4"/>
</g>
<!-- 7316&#45;&gt;7319 -->
<g id="edge9" class="edge">
<title>7316&#45;&gt;7319</title>
<path fill="none" stroke="midnightblue" stroke-width="2" d="M533.77,-128.26C535.65,-115.76 537.77,-101.64 539.76,-88.41"/>
<polygon fill="midnightblue" stroke="midnightblue" stroke-width="2" points="542.99,-90.46 541.02,-80.05 536.07,-89.42 542.99,-90.46"/>
<text text-anchor="middle" x="566.25" y="-97.2" font-family="Times New Roman,serif" font-size="14.00" fill="midnightblue">Transition</text>
</g>
<!-- 7304 -->
<g id="node7" class="node">
<title>7304</title>
<polygon fill="none" stroke="black" stroke-width="2" points="695.38,-713.88 378.88,-713.88 378.88,-526.88 695.38,-526.88 695.38,-713.88"/>
<polygon fill="none" stroke="black" points="387.88,-686.38 387.88,-708.88 686.38,-708.88 686.38,-686.38 387.88,-686.38"/>
<text text-anchor="start" x="402.12" y="-693.58" font-family="Times New Roman,serif" font-weight="bold" font-size="14.00">SeqQueryGetS32FromGameBancParam (2)</text>
<polygon fill="none" stroke="black" points="387.88,-663.88 387.88,-686.38 686.38,-686.38 686.38,-663.88 387.88,-663.88"/>
<text text-anchor="start" x="505.25" y="-671.08" font-family="Times New Roman,serif" font-weight="bold" font-size="14.00">Properties</text>
<polygon fill="none" stroke="black" points="387.88,-642.12 387.88,-663.88 686.38,-663.88 686.38,-642.12 387.88,-642.12"/>
<text text-anchor="start" x="411.5" y="-647.58" font-family="Times New Roman,serif" font-size="14.00">[Bool] OutputOnlyOnEnter (default = False) </text>
<polygon fill="none" stroke="black" points="387.88,-619.62 387.88,-642.12 686.38,-642.12 686.38,-619.62 387.88,-619.62"/>
<text text-anchor="start" x="518" y="-626.83" font-family="Times New Roman,serif" font-weight="bold" font-size="14.00">Inputs</text>
<polygon fill="none" stroke="black" points="387.88,-597.88 387.88,-619.62 686.38,-619.62 686.38,-597.88 387.88,-597.88"/>
<text text-anchor="start" x="390.88" y="-603.33" font-family="Times New Roman,serif" font-size="14.00">[String] ParamName (default = NavMeshMgrMode) </text>
<polygon fill="none" stroke="black" points="387.88,-576.12 387.88,-597.88 686.38,-597.88 686.38,-576.12 387.88,-576.12"/>
<text text-anchor="start" x="396.88" y="-581.58" font-family="Times New Roman,serif" font-size="14.00">[const void*] GameBancParam (default = nullptr) </text>
<polygon fill="none" stroke="black" points="387.88,-553.62 387.88,-576.12 686.38,-576.12 686.38,-553.62 387.88,-553.62"/>
<text text-anchor="start" x="512.75" y="-560.83" font-family="Times New Roman,serif" font-weight="bold" font-size="14.00">Outputs</text>
<polygon fill="none" stroke="black" points="387.88,-531.88 387.88,-553.62 686.38,-553.62 686.38,-531.88 387.88,-531.88"/>
<text text-anchor="start" x="507.5" y="-537.33" font-family="Times New Roman,serif" font-size="14.00">[Int] Value</text>
<polygon fill="none" stroke="black" points="386.88,-530.88 386.88,-709.88 687.38,-709.88 687.38,-530.88 386.88,-530.88"/>
</g>
<!-- 7304&#45;&gt;7301 -->
<g id="edge6" class="edge">
<title>7304:7326&#45;&gt;7301:7323</title>
<path fill="none" stroke="#008000" stroke-dasharray="5,2" d="M537.12,-530.38C537.12,-458.11 646.49,-525.51 686,-465 735.33,-389.46 749.59,-326 686,-262 675.52,-251.45 569.37,-245.46 537.27,-254.57"/>
<polygon fill="#008000" stroke="#008000" points="535.53,-251.51 529.36,-260.13 539.56,-257.24 535.53,-251.51"/>
<text text-anchor="middle" x="680.75" y="-485.45" font-family="Times New Roman,serif" font-size="14.00" fill="#008000">Input</text>
</g>
<!-- 7307 -->
<g id="node8" class="node">
<title>7307</title>
<polygon fill="none" stroke="black" stroke-width="2" points="689.38,-896.75 384.88,-896.75 384.88,-775.75 689.38,-775.75 689.38,-896.75"/>
<polygon fill="none" stroke="black" points="393.88,-869.25 393.88,-891.75 680.38,-891.75 680.38,-869.25 393.88,-869.25"/>
<text text-anchor="start" x="434.38" y="-876.45" font-family="Times New Roman,serif" font-weight="bold" font-size="14.00">Element_ModuleIF_Input_Ptr (9)</text>
<polygon fill="none" stroke="black" points="393.88,-846.75 393.88,-869.25 680.38,-869.25 680.38,-846.75 393.88,-846.75"/>
<text text-anchor="start" x="505.25" y="-853.95" font-family="Times New Roman,serif" font-weight="bold" font-size="14.00">Properties</text>
<polygon fill="none" stroke="black" points="393.88,-825 393.88,-846.75 680.38,-846.75 680.38,-825 393.88,-825"/>
<text text-anchor="start" x="414.88" y="-830.45" font-family="Times New Roman,serif" font-size="14.00">[String] Name (default = GameBancParam) </text>
<polygon fill="none" stroke="black" points="393.88,-802.5 393.88,-825 680.38,-825 680.38,-802.5 393.88,-802.5"/>
<text text-anchor="start" x="512.75" y="-809.7" font-family="Times New Roman,serif" font-weight="bold" font-size="14.00">Outputs</text>
<polygon fill="none" stroke="black" points="393.88,-780.75 393.88,-802.5 680.38,-802.5 680.38,-780.75 393.88,-780.75"/>
<text text-anchor="start" x="396.88" y="-786.2" font-family="Times New Roman,serif" font-size="14.00">[const void*] GameBancParam (default = nullptr) </text>
<polygon fill="none" stroke="black" points="392.88,-779.75 392.88,-892.75 681.38,-892.75 681.38,-779.75 392.88,-779.75"/>
</g>
<!-- 7307&#45;&gt;7304 -->
<g id="edge7" class="edge">
<title>7307:7327&#45;&gt;7304:7325</title>
<path fill="none" stroke="#008000" stroke-dasharray="5,2" d="M537.12,-779.25C537.12,-706.93 646.34,-774.26 686.12,-713.88 714.76,-670.41 739.42,-599 698.31,-588.64"/>
<polygon fill="#008000" stroke="#008000" points="698.96,-585.19 688.63,-587.55 698.17,-592.15 698.96,-585.19"/>
<text text-anchor="middle" x="667.5" y="-744.45" font-family="Times New Roman,serif" font-size="14.00" fill="#008000">GameBancParam</text>
</g>
<!-- 7328 -->
<g id="node11" class="node">
<title>7328</title>
<ellipse fill="mediumpurple" stroke="mediumpurple" cx="219.12" cy="-836.25" rx="31.39" ry="18"/>
<text text-anchor="start" x="204.12" y="-832.2" font-family="Times New Roman,serif" font-weight="bold" font-size="14.00" fill="white">Root</text>
</g>
<!-- 7328&#45;&gt;7295 -->
<g id="edge10" class="edge">
<title>7328&#45;&gt;7295</title>
<path fill="none" stroke="black" d="M219.12,-818.11C219.12,-799.49 219.12,-768.05 219.12,-735.7"/>
<polygon fill="black" stroke="black" points="222.63,-735.76 219.13,-725.76 215.63,-735.76 222.63,-735.76"/>
</g>
</g>
</svg>
