<?xml version="1.0" encoding="UTF-8" standalone="no"?>
<!DOCTYPE svg PUBLIC "-//W3C//DTD SVG 1.1//EN"
 "http://www.w3.org/Graphics/SVG/1.1/DTD/svg11.dtd">
<!-- Generated by graphviz version 9.0.0 (20230911.1827)
 -->
<!-- Title: LoadBancParam.module Pages: 1 -->
<svg width="1674pt" height="1132pt"
 viewBox="0.00 0.00 1674.12 1132.25" xmlns="http://www.w3.org/2000/svg" xmlns:xlink="http://www.w3.org/1999/xlink">
<g id="graph0" class="graph" transform="scale(1 1) rotate(0) translate(4 1128.25)">
<title>LoadBancParam.module</title>
<polygon fill="lightgray" stroke="none" points="-4,4 -4,-1128.25 1670.12,-1128.25 1670.12,4 -4,4"/>
<!-- 7633 -->
<g id="node1" class="node">
<title>7633</title>
<polygon fill="none" stroke="black" stroke-width="2" points="341.88,-1051.25 55.38,-1051.25 55.38,-844 341.88,-844 341.88,-1051.25"/>
<polygon fill="none" stroke="black" points="64.38,-1023.75 64.38,-1046.25 332.88,-1046.25 332.88,-1023.75 64.38,-1023.75"/>
<text text-anchor="start" x="127.75" y="-1030.95" font-family="Times New Roman,serif" font-weight="bold" font-size="14.00">Element_Sequential (0)</text>
<polygon fill="none" stroke="black" points="64.38,-1001.25 64.38,-1023.75 332.88,-1023.75 332.88,-1001.25 64.38,-1001.25"/>
<text text-anchor="start" x="166.75" y="-1008.45" font-family="Times New Roman,serif" font-weight="bold" font-size="14.00">Properties</text>
<polygon fill="none" stroke="black" points="64.38,-979.5 64.38,-1001.25 332.88,-1001.25 332.88,-979.5 64.38,-979.5"/>
<text text-anchor="start" x="114.62" y="-984.95" font-family="Times New Roman,serif" font-size="14.00">[Int] BusyPolicy (default = 0) </text>
<polygon fill="none" stroke="black" points="64.38,-957.75 64.38,-979.5 332.88,-979.5 332.88,-957.75 64.38,-957.75"/>
<text text-anchor="start" x="117.62" y="-963.2" font-family="Times New Roman,serif" font-size="14.00">[Int] NumLoop (default = 0) </text>
<polygon fill="none" stroke="black" points="64.38,-936 64.38,-957.75 332.88,-957.75 332.88,-936 64.38,-936"/>
<text text-anchor="start" x="116.88" y="-941.45" font-family="Times New Roman,serif" font-size="14.00">[Int] PlayPolicy (default = 0) </text>
<polygon fill="none" stroke="black" points="64.38,-914.25 64.38,-936 332.88,-936 332.88,-914.25 64.38,-914.25"/>
<text text-anchor="start" x="111.25" y="-919.7" font-family="Times New Roman,serif" font-size="14.00">[Int] ResultPolicy (default = 0) </text>
<polygon fill="none" stroke="black" points="64.38,-892.5 64.38,-914.25 332.88,-914.25 332.88,-892.5 64.38,-892.5"/>
<text text-anchor="start" x="92.12" y="-897.95" font-family="Times New Roman,serif" font-size="14.00">[Bool] IsDelayJudge (default = False) </text>
<polygon fill="none" stroke="black" points="64.38,-870.75 64.38,-892.5 332.88,-892.5 332.88,-870.75 64.38,-870.75"/>
<text text-anchor="start" x="108.62" y="-876.2" font-family="Times New Roman,serif" font-size="14.00">[Bool] IsLoop (default = False) </text>
<polygon fill="none" stroke="black" points="64.38,-849 64.38,-870.75 332.88,-870.75 332.88,-849 64.38,-849"/>
<text text-anchor="start" x="67.38" y="-854.45" font-family="Times New Roman,serif" font-size="14.00">[Bool] IsUpdateNextInFrame (default = False) </text>
<polygon fill="none" stroke="black" points="63.38,-848 63.38,-1047.25 333.88,-1047.25 333.88,-848 63.38,-848"/>
</g>
<!-- 7636 -->
<g id="node2" class="node">
<title>7636</title>
<polygon fill="none" stroke="black" stroke-width="2" points="203.25,-739.25 0,-739.25 0,-703.25 203.25,-703.25 203.25,-739.25"/>
<polygon fill="none" stroke="black" points="9,-710 9,-732.5 194.25,-732.5 194.25,-710 9,-710"/>
<text text-anchor="start" x="12" y="-717.2" font-family="Times New Roman,serif" font-weight="bold" font-size="14.00">LowPrioSequence.module (5)</text>
<polygon fill="none" stroke="black" points="8,-709 8,-733.5 195.25,-733.5 195.25,-709 8,-709"/>
</g>
<!-- 7633&#45;&gt;7636 -->
<g id="edge1" class="edge">
<title>7633&#45;&gt;7636</title>
<path fill="none" stroke="firebrick" stroke-width="2" d="M154.1,-843.63C139.22,-809.22 123.84,-773.65 113.61,-749.98"/>
<polygon fill="firebrick" stroke="firebrick" stroke-width="2" points="117.54,-750.25 110.36,-742.46 111.12,-753.03 117.54,-750.25"/>
</g>
<!-- 7645 -->
<g id="node3" class="node">
<title>7645</title>
<polygon fill="none" stroke="black" stroke-width="2" points="439.25,-164.5 56,-164.5 56,0 439.25,0 439.25,-164.5"/>
<polygon fill="none" stroke="black" points="65,-137 65,-159.5 430.25,-159.5 430.25,-137 65,-137"/>
<text text-anchor="start" x="98.75" y="-144.2" font-family="Times New Roman,serif" font-weight="bold" font-size="14.00">SeqOneShotSetNonStructGameDataString64 (4)</text>
<polygon fill="none" stroke="black" points="65,-114.5 65,-137 430.25,-137 430.25,-114.5 65,-114.5"/>
<text text-anchor="start" x="215.75" y="-121.7" font-family="Times New Roman,serif" font-weight="bold" font-size="14.00">Properties</text>
<polygon fill="none" stroke="black" points="65,-92.75 65,-114.5 430.25,-114.5 430.25,-92.75 65,-92.75"/>
<text text-anchor="start" x="122.38" y="-98.2" font-family="Times New Roman,serif" font-size="14.00">[Bool] ExecuteEveryFrame (default = False) </text>
<polygon fill="none" stroke="black" points="65,-70.25 65,-92.75 430.25,-92.75 430.25,-70.25 65,-70.25"/>
<text text-anchor="start" x="228.5" y="-77.45" font-family="Times New Roman,serif" font-weight="bold" font-size="14.00">Inputs</text>
<polygon fill="none" stroke="black" points="65,-48.5 65,-70.25 430.25,-70.25 430.25,-48.5 65,-48.5"/>
<text text-anchor="start" x="148.25" y="-53.95" font-family="Times New Roman,serif" font-size="14.00">[Int] GameDataIndex (default = &#45;1) </text>
<polygon fill="none" stroke="black" points="65,-26.75 65,-48.5 430.25,-48.5 430.25,-26.75 65,-26.75"/>
<text text-anchor="start" x="68" y="-32.2" font-family="Times New Roman,serif" font-size="14.00">[String] GameDataFullName (default = Sequence_CurrentBanc) </text>
<polygon fill="none" stroke="black" points="65,-5 65,-26.75 430.25,-26.75 430.25,-5 65,-5"/>
<text text-anchor="start" x="174.12" y="-10.45" font-family="Times New Roman,serif" font-size="14.00">[String] Value (default = ) </text>
<polygon fill="none" stroke="black" points="64,-4 64,-160.5 431.25,-160.5 431.25,-4 64,-4"/>
</g>
<!-- 7633&#45;&gt;7645 -->
<g id="edge2" class="edge">
<title>7633&#45;&gt;7645</title>
<path fill="none" stroke="firebrick" stroke-width="2" d="M220.18,-843.76C226.44,-805.76 231.62,-762.21 231.62,-722.25 231.62,-722.25 231.62,-722.25 231.62,-297.88 231.62,-257.83 234.43,-213.7 237.69,-175.92"/>
<polygon fill="firebrick" stroke="firebrick" stroke-width="2" points="241,-178.22 238.4,-167.95 234.03,-177.6 241,-178.22"/>
</g>
<!-- 7651 -->
<g id="node4" class="node">
<title>7651</title>
<polygon fill="none" stroke="black" stroke-width="2" points="1050.75,-792.25 676.5,-792.25 676.5,-650.25 1050.75,-650.25 1050.75,-792.25"/>
<polygon fill="none" stroke="black" points="685.5,-764.75 685.5,-787.25 1041.75,-787.25 1041.75,-764.75 685.5,-764.75"/>
<text text-anchor="start" x="768" y="-771.95" font-family="Times New Roman,serif" font-weight="bold" font-size="14.00">OnLoadBancParam.module (2)</text>
<polygon fill="none" stroke="black" points="685.5,-742.25 685.5,-764.75 1041.75,-764.75 1041.75,-742.25 685.5,-742.25"/>
<text text-anchor="start" x="844.5" y="-749.45" font-family="Times New Roman,serif" font-weight="bold" font-size="14.00">Inputs</text>
<polygon fill="none" stroke="black" points="685.5,-720.5 685.5,-742.25 1041.75,-742.25 1041.75,-720.5 685.5,-720.5"/>
<text text-anchor="start" x="719.62" y="-725.95" font-family="Times New Roman,serif" font-size="14.00">[Bool] IsOverrideCancelSleepRot (default = False) </text>
<polygon fill="none" stroke="black" points="685.5,-698.75 685.5,-720.5 1041.75,-720.5 1041.75,-698.75 685.5,-698.75"/>
<text text-anchor="start" x="715.88" y="-704.2" font-family="Times New Roman,serif" font-size="14.00">[Bool] IsOverrideTraverseBasePos (default = False) </text>
<polygon fill="none" stroke="black" points="685.5,-677 685.5,-698.75 1041.75,-698.75 1041.75,-677 685.5,-677"/>
<text text-anchor="start" x="688.5" y="-682.45" font-family="Times New Roman,serif" font-size="14.00">[Vector3F] OverrideCancelSleepRot (default = (0.0, 0.0, 0.0)) </text>
<polygon fill="none" stroke="black" points="685.5,-655.25 685.5,-677 1041.75,-677 1041.75,-655.25 685.5,-655.25"/>
<text text-anchor="start" x="698.25" y="-660.7" font-family="Times New Roman,serif" font-size="14.00">[Vector3F] OverrideTraversePos (default = (0.0, 0.0, 0.0)) </text>
<polygon fill="none" stroke="black" points="684.5,-654.25 684.5,-788.25 1042.75,-788.25 1042.75,-654.25 684.5,-654.25"/>
</g>
<!-- 7633&#45;&gt;7651 -->
<g id="edge3" class="edge">
<title>7633&#45;&gt;7651</title>
<path fill="none" stroke="firebrick" stroke-width="2" d="M342.31,-847.79C345.08,-846.48 347.86,-845.22 350.62,-844 380.26,-831 533.66,-795.22 665.07,-765.79"/>
<polygon fill="firebrick" stroke="firebrick" stroke-width="2" points="664.15,-769.58 673.14,-763.98 662.62,-762.75 664.15,-769.58"/>
</g>
<!-- 7639 -->
<g id="node5" class="node">
<title>7639</title>
<polygon fill="none" stroke="black" stroke-width="2" points="533.88,-598.5 259.38,-598.5 259.38,-433.25 533.88,-433.25 533.88,-598.5"/>
<polygon fill="none" stroke="black" points="268.38,-571 268.38,-593.5 524.88,-593.5 524.88,-571 268.38,-571"/>
<text text-anchor="start" x="296.5" y="-578.2" font-family="Times New Roman,serif" font-weight="bold" font-size="14.00">SeqOneShotLoadBancParam (1)</text>
<polygon fill="none" stroke="black" points="268.38,-548.5 268.38,-571 524.88,-571 524.88,-548.5 268.38,-548.5"/>
<text text-anchor="start" x="364.75" y="-555.7" font-family="Times New Roman,serif" font-weight="bold" font-size="14.00">Properties</text>
<polygon fill="none" stroke="black" points="268.38,-526.75 268.38,-548.5 524.88,-548.5 524.88,-526.75 268.38,-526.75"/>
<text text-anchor="start" x="271.38" y="-532.2" font-family="Times New Roman,serif" font-size="14.00">[Bool] ExecuteEveryFrame (default = False) </text>
<polygon fill="none" stroke="black" points="268.38,-504.25 268.38,-526.75 524.88,-526.75 524.88,-504.25 268.38,-504.25"/>
<text text-anchor="start" x="377.5" y="-511.45" font-family="Times New Roman,serif" font-weight="bold" font-size="14.00">Inputs</text>
<polygon fill="none" stroke="black" points="268.38,-482.5 268.38,-504.25 524.88,-504.25 524.88,-482.5 268.38,-482.5"/>
<text text-anchor="start" x="307" y="-487.95" font-family="Times New Roman,serif" font-size="14.00">[String] BancParam (default = ) </text>
<polygon fill="none" stroke="black" points="268.38,-460 268.38,-482.5 524.88,-482.5 524.88,-460 268.38,-460"/>
<text text-anchor="start" x="372.25" y="-467.2" font-family="Times New Roman,serif" font-weight="bold" font-size="14.00">Outputs</text>
<polygon fill="none" stroke="black" points="268.38,-438.25 268.38,-460 524.88,-460 524.88,-438.25 268.38,-438.25"/>
<text text-anchor="start" x="341.88" y="-443.7" font-family="Times New Roman,serif" font-size="14.00">[String] BancParam</text>
<polygon fill="none" stroke="black" points="267.38,-437.25 267.38,-594.5 525.88,-594.5 525.88,-437.25 267.38,-437.25"/>
</g>
<!-- 7636&#45;&gt;7639 -->
<g id="edge4" class="edge">
<title>7636&#45;&gt;7639</title>
<path fill="none" stroke="firebrick" stroke-width="2" d="M126.78,-702.91C158.45,-681.07 215.21,-641.95 268.52,-605.19"/>
<polygon fill="firebrick" stroke="firebrick" stroke-width="2" points="268.99,-609.12 275.24,-600.56 265.02,-603.35 268.99,-609.12"/>
<text text-anchor="middle" x="289" y="-618.95" font-family="Times New Roman,serif" font-size="14.00" fill="firebrick">LowPrioChild</text>
</g>
<!-- 7648 -->
<g id="node6" class="node">
<title>7648</title>
<polygon fill="none" stroke="black" stroke-width="2" points="535.25,-381.5 260,-381.5 260,-216.25 535.25,-216.25 535.25,-381.5"/>
<polygon fill="none" stroke="black" points="269,-354 269,-376.5 526.25,-376.5 526.25,-354 269,-354"/>
<text text-anchor="start" x="304.62" y="-361.2" font-family="Times New Roman,serif" font-weight="bold" font-size="14.00">SeqQueryExtractFileName (3)</text>
<polygon fill="none" stroke="black" points="269,-331.5 269,-354 526.25,-354 526.25,-331.5 269,-331.5"/>
<text text-anchor="start" x="365.75" y="-338.7" font-family="Times New Roman,serif" font-weight="bold" font-size="14.00">Properties</text>
<polygon fill="none" stroke="black" points="269,-309.75 269,-331.5 526.25,-331.5 526.25,-309.75 269,-309.75"/>
<text text-anchor="start" x="272" y="-315.2" font-family="Times New Roman,serif" font-size="14.00">[Bool] OutputOnlyOnEnter (default = False) </text>
<polygon fill="none" stroke="black" points="269,-287.25 269,-309.75 526.25,-309.75 526.25,-287.25 269,-287.25"/>
<text text-anchor="start" x="378.5" y="-294.45" font-family="Times New Roman,serif" font-weight="bold" font-size="14.00">Inputs</text>
<polygon fill="none" stroke="black" points="269,-265.5 269,-287.25 526.25,-287.25 526.25,-265.5 269,-265.5"/>
<text text-anchor="start" x="327.5" y="-270.95" font-family="Times New Roman,serif" font-size="14.00">[String] Path (default = ) </text>
<polygon fill="none" stroke="black" points="269,-243 269,-265.5 526.25,-265.5 526.25,-243 269,-243"/>
<text text-anchor="start" x="373.25" y="-250.2" font-family="Times New Roman,serif" font-weight="bold" font-size="14.00">Outputs</text>
<polygon fill="none" stroke="black" points="269,-221.25 269,-243 526.25,-243 526.25,-221.25 269,-221.25"/>
<text text-anchor="start" x="348.5" y="-226.7" font-family="Times New Roman,serif" font-size="14.00">[String] FileName</text>
<polygon fill="none" stroke="black" points="268,-220.25 268,-377.5 527.25,-377.5 527.25,-220.25 268,-220.25"/>
</g>
<!-- 7639&#45;&gt;7648 -->
<g id="edge5" class="edge">
<title>7639:7665&#45;&gt;7648:7670</title>
<path fill="none" stroke="#008000" stroke-dasharray="5,2" d="M396.62,-436.88C396.62,-374.89 302.9,-433.14 268.62,-381.5 257.88,-365.3 248.15,-303.5 258.45,-282.73"/>
<polygon fill="#008000" stroke="#008000" points="260.5,-285.57 266.41,-276.78 256.31,-279.96 260.5,-285.57"/>
<text text-anchor="middle" x="401" y="-401.95" font-family="Times New Roman,serif" font-size="14.00" fill="#008000">Path</text>
</g>
<!-- 7648&#45;&gt;7645 -->
<g id="edge7" class="edge">
<title>7648:7671&#45;&gt;7645:7669</title>
<path fill="none" stroke="#008000" stroke-dasharray="5,2" d="M397.62,-219.88C397.62,-191.23 422.93,-192.1 430.62,-164.5 447.19,-105.12 491.31,-27.09 442.97,-17.28"/>
<polygon fill="#008000" stroke="#008000" points="443.41,-13.8 433.13,-16.39 442.78,-20.77 443.41,-13.8"/>
<text text-anchor="middle" x="436.38" y="-184.95" font-family="Times New Roman,serif" font-size="14.00" fill="#008000">Value</text>
</g>
<!-- 7642 -->
<g id="node7" class="node">
<title>7642</title>
<polygon fill="none" stroke="black" stroke-width="2" points="520.38,-781.75 272.88,-781.75 272.88,-660.75 520.38,-660.75 520.38,-781.75"/>
<polygon fill="none" stroke="black" points="281.88,-754.25 281.88,-776.75 511.38,-776.75 511.38,-754.25 281.88,-754.25"/>
<text text-anchor="start" x="284.88" y="-761.45" font-family="Times New Roman,serif" font-weight="bold" font-size="14.00">Element_ModuleIF_Input_String (6)</text>
<polygon fill="none" stroke="black" points="281.88,-731.75 281.88,-754.25 511.38,-754.25 511.38,-731.75 281.88,-731.75"/>
<text text-anchor="start" x="364.75" y="-738.95" font-family="Times New Roman,serif" font-weight="bold" font-size="14.00">Properties</text>
<polygon fill="none" stroke="black" points="281.88,-710 281.88,-731.75 511.38,-731.75 511.38,-710 281.88,-710"/>
<text text-anchor="start" x="290.88" y="-715.45" font-family="Times New Roman,serif" font-size="14.00">[String] Name (default = BancParam) </text>
<polygon fill="none" stroke="black" points="281.88,-687.5 281.88,-710 511.38,-710 511.38,-687.5 281.88,-687.5"/>
<text text-anchor="start" x="372.25" y="-694.7" font-family="Times New Roman,serif" font-weight="bold" font-size="14.00">Outputs</text>
<polygon fill="none" stroke="black" points="281.88,-665.75 281.88,-687.5 511.38,-687.5 511.38,-665.75 281.88,-665.75"/>
<text text-anchor="start" x="341.88" y="-671.2" font-family="Times New Roman,serif" font-size="14.00">[String] BancParam</text>
<polygon fill="none" stroke="black" points="280.88,-664.75 280.88,-777.75 512.38,-777.75 512.38,-664.75 280.88,-664.75"/>
</g>
<!-- 7642&#45;&gt;7639 -->
<g id="edge6" class="edge">
<title>7642:7666&#45;&gt;7639:7664</title>
<path fill="none" stroke="#008000" stroke-dasharray="5,2" d="M396.62,-664.25C396.62,-600.29 491.04,-652.93 524.62,-598.5 547.06,-562.14 568.38,-504.47 536.63,-494.4"/>
<polygon fill="#008000" stroke="#008000" points="537.51,-490.99 527.12,-493.08 536.55,-497.92 537.51,-490.99"/>
<text text-anchor="middle" x="536.5" y="-618.95" font-family="Times New Roman,serif" font-size="14.00" fill="#008000">BancParam</text>
</g>
<!-- 7654 -->
<g id="node8" class="node">
<title>7654</title>
<polygon fill="none" stroke="black" stroke-width="2" points="681.12,-1008.12 360.12,-1008.12 360.12,-887.12 681.12,-887.12 681.12,-1008.12"/>
<polygon fill="none" stroke="black" points="369.12,-980.62 369.12,-1003.12 672.12,-1003.12 672.12,-980.62 369.12,-980.62"/>
<text text-anchor="start" x="413.38" y="-987.83" font-family="Times New Roman,serif" font-weight="bold" font-size="14.00">Element_ModuleIF_Input_Bool (9)</text>
<polygon fill="none" stroke="black" points="369.12,-958.12 369.12,-980.62 672.12,-980.62 672.12,-958.12 369.12,-958.12"/>
<text text-anchor="start" x="488.75" y="-965.33" font-family="Times New Roman,serif" font-weight="bold" font-size="14.00">Properties</text>
<polygon fill="none" stroke="black" points="369.12,-936.38 369.12,-958.12 672.12,-958.12 672.12,-936.38 369.12,-936.38"/>
<text text-anchor="start" x="372.12" y="-941.83" font-family="Times New Roman,serif" font-size="14.00">[String] Name (default = IsOverrideCancelSleepRot) </text>
<polygon fill="none" stroke="black" points="369.12,-913.88 369.12,-936.38 672.12,-936.38 672.12,-913.88 369.12,-913.88"/>
<text text-anchor="start" x="496.25" y="-921.08" font-family="Times New Roman,serif" font-weight="bold" font-size="14.00">Outputs</text>
<polygon fill="none" stroke="black" points="369.12,-892.12 369.12,-913.88 672.12,-913.88 672.12,-892.12 369.12,-892.12"/>
<text text-anchor="start" x="426.12" y="-897.58" font-family="Times New Roman,serif" font-size="14.00">[Bool] IsOverrideCancelSleepRot</text>
<polygon fill="none" stroke="black" points="368.12,-891.12 368.12,-1004.12 673.12,-1004.12 673.12,-891.12 368.12,-891.12"/>
</g>
<!-- 7654&#45;&gt;7651 -->
<g id="edge8" class="edge">
<title>7654:7676&#45;&gt;7651:7672</title>
<path fill="none" stroke="#008000" stroke-dasharray="5,2" d="M520.62,-890.62C520.62,-792.86 578.33,-735.71 673.18,-731.5"/>
<polygon fill="#008000" stroke="#008000" points="673.19,-735 683.11,-731.28 673.04,-728 673.19,-735"/>
<text text-anchor="middle" x="612.25" y="-812.7" font-family="Times New Roman,serif" font-size="14.00" fill="#008000">IsOverrideCancelSleepRot</text>
</g>
<!-- 7657 -->
<g id="node9" class="node">
<title>7657</title>
<polygon fill="none" stroke="black" stroke-width="2" points="1027.88,-1008.12 699.38,-1008.12 699.38,-887.12 1027.88,-887.12 1027.88,-1008.12"/>
<polygon fill="none" stroke="black" points="708.38,-980.62 708.38,-1003.12 1018.88,-1003.12 1018.88,-980.62 708.38,-980.62"/>
<text text-anchor="start" x="756.38" y="-987.83" font-family="Times New Roman,serif" font-weight="bold" font-size="14.00">Element_ModuleIF_Input_Bool (7)</text>
<polygon fill="none" stroke="black" points="708.38,-958.12 708.38,-980.62 1018.88,-980.62 1018.88,-958.12 708.38,-958.12"/>
<text text-anchor="start" x="831.75" y="-965.33" font-family="Times New Roman,serif" font-weight="bold" font-size="14.00">Properties</text>
<polygon fill="none" stroke="black" points="708.38,-936.38 708.38,-958.12 1018.88,-958.12 1018.88,-936.38 708.38,-936.38"/>
<text text-anchor="start" x="711.38" y="-941.83" font-family="Times New Roman,serif" font-size="14.00">[String] Name (default = IsOverrideTraverseBasePos) </text>
<polygon fill="none" stroke="black" points="708.38,-913.88 708.38,-936.38 1018.88,-936.38 1018.88,-913.88 708.38,-913.88"/>
<text text-anchor="start" x="839.25" y="-921.08" font-family="Times New Roman,serif" font-weight="bold" font-size="14.00">Outputs</text>
<polygon fill="none" stroke="black" points="708.38,-892.12 708.38,-913.88 1018.88,-913.88 1018.88,-892.12 708.38,-892.12"/>
<text text-anchor="start" x="765.38" y="-897.58" font-family="Times New Roman,serif" font-size="14.00">[Bool] IsOverrideTraverseBasePos</text>
<polygon fill="none" stroke="black" points="707.38,-891.12 707.38,-1004.12 1019.88,-1004.12 1019.88,-891.12 707.38,-891.12"/>
</g>
<!-- 7657&#45;&gt;7651 -->
<g id="edge9" class="edge">
<title>7657:7677&#45;&gt;7651:7673</title>
<path fill="none" stroke="#008000" stroke-dasharray="5,2" d="M863.62,-890.62C863.62,-845.43 1018.43,-831.04 1041.62,-792.25 1058.27,-764.42 1074.93,-721.39 1053.67,-711.38"/>
<polygon fill="#008000" stroke="#008000" points="1054.59,-708 1044.11,-709.54 1053.27,-714.87 1054.59,-708"/>
<text text-anchor="middle" x="1096" y="-812.7" font-family="Times New Roman,serif" font-size="14.00" fill="#008000">IsOverrideTraverseBasePos</text>
</g>
<!-- 7660 -->
<g id="node10" class="node">
<title>7660</title>
<polygon fill="none" stroke="black" stroke-width="2" points="1356.88,-1008.12 1046.38,-1008.12 1046.38,-887.12 1356.88,-887.12 1356.88,-1008.12"/>
<polygon fill="none" stroke="black" points="1055.38,-980.62 1055.38,-1003.12 1347.88,-1003.12 1347.88,-980.62 1055.38,-980.62"/>
<text text-anchor="start" x="1087.25" y="-987.83" font-family="Times New Roman,serif" font-weight="bold" font-size="14.00">Element_ModuleIF_Input_Vec3f (10)</text>
<polygon fill="none" stroke="black" points="1055.38,-958.12 1055.38,-980.62 1347.88,-980.62 1347.88,-958.12 1055.38,-958.12"/>
<text text-anchor="start" x="1169.75" y="-965.33" font-family="Times New Roman,serif" font-weight="bold" font-size="14.00">Properties</text>
<polygon fill="none" stroke="black" points="1055.38,-936.38 1055.38,-958.12 1347.88,-958.12 1347.88,-936.38 1055.38,-936.38"/>
<text text-anchor="start" x="1058.38" y="-941.83" font-family="Times New Roman,serif" font-size="14.00">[String] Name (default = OverrideCancelSleepRot) </text>
<polygon fill="none" stroke="black" points="1055.38,-913.88 1055.38,-936.38 1347.88,-936.38 1347.88,-913.88 1055.38,-913.88"/>
<text text-anchor="start" x="1177.25" y="-921.08" font-family="Times New Roman,serif" font-weight="bold" font-size="14.00">Outputs</text>
<polygon fill="none" stroke="black" points="1055.38,-892.12 1055.38,-913.88 1347.88,-913.88 1347.88,-892.12 1055.38,-892.12"/>
<text text-anchor="start" x="1099.25" y="-897.58" font-family="Times New Roman,serif" font-size="14.00">[Vector3F] OverrideCancelSleepRot</text>
<polygon fill="none" stroke="black" points="1054.38,-891.12 1054.38,-1004.12 1348.88,-1004.12 1348.88,-891.12 1054.38,-891.12"/>
</g>
<!-- 7660&#45;&gt;7651 -->
<g id="edge10" class="edge">
<title>7660:7678&#45;&gt;7651:7674</title>
<path fill="none" stroke="#008000" stroke-dasharray="5,2" d="M1201.62,-890.62C1201.62,-780.15 1160.01,-694.3 1054.11,-688.56"/>
<polygon fill="#008000" stroke="#008000" points="1054.23,-685.06 1044.14,-688.29 1054.04,-692.06 1054.23,-685.06"/>
<text text-anchor="middle" x="1265" y="-812.7" font-family="Times New Roman,serif" font-size="14.00" fill="#008000">OverrideCancelSleepRot</text>
</g>
<!-- 7663 -->
<g id="node11" class="node">
<title>7663</title>
<polygon fill="none" stroke="black" stroke-width="2" points="1666.12,-1008.12 1375.12,-1008.12 1375.12,-887.12 1666.12,-887.12 1666.12,-1008.12"/>
<polygon fill="none" stroke="black" points="1384.12,-980.62 1384.12,-1003.12 1657.12,-1003.12 1657.12,-980.62 1384.12,-980.62"/>
<text text-anchor="start" x="1410" y="-987.83" font-family="Times New Roman,serif" font-weight="bold" font-size="14.00">Element_ModuleIF_Input_Vec3f (8)</text>
<polygon fill="none" stroke="black" points="1384.12,-958.12 1384.12,-980.62 1657.12,-980.62 1657.12,-958.12 1384.12,-958.12"/>
<text text-anchor="start" x="1488.75" y="-965.33" font-family="Times New Roman,serif" font-weight="bold" font-size="14.00">Properties</text>
<polygon fill="none" stroke="black" points="1384.12,-936.38 1384.12,-958.12 1657.12,-958.12 1657.12,-936.38 1384.12,-936.38"/>
<text text-anchor="start" x="1387.12" y="-941.83" font-family="Times New Roman,serif" font-size="14.00">[String] Name (default = OverrideTraversePos) </text>
<polygon fill="none" stroke="black" points="1384.12,-913.88 1384.12,-936.38 1657.12,-936.38 1657.12,-913.88 1384.12,-913.88"/>
<text text-anchor="start" x="1496.25" y="-921.08" font-family="Times New Roman,serif" font-weight="bold" font-size="14.00">Outputs</text>
<polygon fill="none" stroke="black" points="1384.12,-892.12 1384.12,-913.88 1657.12,-913.88 1657.12,-892.12 1384.12,-892.12"/>
<text text-anchor="start" x="1428" y="-897.58" font-family="Times New Roman,serif" font-size="14.00">[Vector3F] OverrideTraversePos</text>
<polygon fill="none" stroke="black" points="1383.12,-891.12 1383.12,-1004.12 1658.12,-1004.12 1658.12,-891.12 1383.12,-891.12"/>
</g>
<!-- 7663&#45;&gt;7651 -->
<g id="edge11" class="edge">
<title>7663:7679&#45;&gt;7651:7675</title>
<path fill="none" stroke="#008000" stroke-dasharray="5,2" d="M1520.62,-890.62C1520.62,-776.83 1181.47,-672.74 1053.93,-666.54"/>
<polygon fill="#008000" stroke="#008000" points="1054.22,-663.05 1044.14,-666.29 1054.04,-670.05 1054.22,-663.05"/>
<text text-anchor="middle" x="1541.25" y="-812.7" font-family="Times New Roman,serif" font-size="14.00" fill="#008000">OverrideTraversePos</text>
</g>
<!-- 7680 -->
<g id="node12" class="node">
<title>7680</title>
<ellipse fill="mediumpurple" stroke="mediumpurple" cx="198.62" cy="-1106.25" rx="31.39" ry="18"/>
<text text-anchor="start" x="183.62" y="-1102.2" font-family="Times New Roman,serif" font-weight="bold" font-size="14.00" fill="white">Root</text>
</g>
<!-- 7680&#45;&gt;7633 -->
<g id="edge12" class="edge">
<title>7680&#45;&gt;7633</title>
<path fill="none" stroke="black" d="M198.62,-1087.89C198.62,-1081.02 198.62,-1072.51 198.62,-1063.12"/>
<polygon fill="black" stroke="black" points="202.13,-1063.23 198.63,-1053.23 195.13,-1063.23 202.13,-1063.23"/>
</g>
</g>
</svg>
