<?xml version="1.0" encoding="UTF-8" standalone="no"?>
<!DOCTYPE svg PUBLIC "-//W3C//DTD SVG 1.1//EN"
 "http://www.w3.org/Graphics/SVG/1.1/DTD/svg11.dtd">
<!-- Generated by graphviz version 9.0.0 (20230911.1827)
 -->
<!-- Title: LoadSunAndMoon.module Pages: 1 -->
<svg width="792pt" height="423pt"
 viewBox="0.00 0.00 792.25 422.50" xmlns="http://www.w3.org/2000/svg" xmlns:xlink="http://www.w3.org/1999/xlink">
<g id="graph0" class="graph" transform="scale(1 1) rotate(0) translate(4 418.5)">
<title>LoadSunAndMoon.module</title>
<polygon fill="lightgray" stroke="none" points="-4,4 -4,-418.5 788.25,-418.5 788.25,4 -4,4"/>
<!-- 8294 -->
<g id="node1" class="node">
<title>8294</title>
<polygon fill="none" stroke="black" stroke-width="2" points="491,-342.5 292.25,-342.5 292.25,-244 491,-244 491,-342.5"/>
<polygon fill="none" stroke="black" points="301.25,-315 301.25,-337.5 482,-337.5 482,-315 301.25,-315"/>
<text text-anchor="start" x="311.75" y="-322.2" font-family="Times New Roman,serif" font-weight="bold" font-size="14.00">Element_Simultaneous (2)</text>
<polygon fill="none" stroke="black" points="301.25,-292.5 301.25,-315 482,-315 482,-292.5 301.25,-292.5"/>
<text text-anchor="start" x="359.75" y="-299.7" font-family="Times New Roman,serif" font-weight="bold" font-size="14.00">Properties</text>
<polygon fill="none" stroke="black" points="301.25,-270.75 301.25,-292.5 482,-292.5 482,-270.75 301.25,-270.75"/>
<text text-anchor="start" x="310.62" y="-276.2" font-family="Times New Roman,serif" font-size="14.00">[Int] EndPolicy (default = 0) </text>
<polygon fill="none" stroke="black" points="301.25,-249 301.25,-270.75 482,-270.75 482,-249 301.25,-249"/>
<text text-anchor="start" x="304.25" y="-254.45" font-family="Times New Roman,serif" font-size="14.00">[Int] ResultPolicy (default = 0) </text>
<polygon fill="none" stroke="black" points="300.25,-248 300.25,-338.5 483,-338.5 483,-248 300.25,-248"/>
</g>
<!-- 8297 -->
<g id="node2" class="node">
<title>8297</title>
<polygon fill="none" stroke="black" stroke-width="2" points="383.25,-208 0,-208 0,0 383.25,0 383.25,-208"/>
<polygon fill="none" stroke="black" points="9,-180.5 9,-203 374.25,-203 374.25,-180.5 9,-180.5"/>
<text text-anchor="start" x="107.62" y="-187.7" font-family="Times New Roman,serif" font-weight="bold" font-size="14.00">SeqExecuteCreateActor (0)</text>
<polygon fill="none" stroke="black" points="9,-158 9,-180.5 374.25,-180.5 374.25,-158 9,-158"/>
<text text-anchor="start" x="172.5" y="-165.2" font-family="Times New Roman,serif" font-weight="bold" font-size="14.00">Inputs</text>
<polygon fill="none" stroke="black" points="9,-136.25 9,-158 374.25,-158 374.25,-136.25 9,-136.25"/>
<text text-anchor="start" x="12" y="-141.7" font-family="Times New Roman,serif" font-size="14.00">[Bool] IsNoDeleteOnSwitchingMainAndMinus (default = False) </text>
<polygon fill="none" stroke="black" points="9,-114.5 9,-136.25 374.25,-136.25 374.25,-114.5 9,-114.5"/>
<text text-anchor="start" x="101.62" y="-119.95" font-family="Times New Roman,serif" font-size="14.00">[Bool] IsSleep (default = False) </text>
<polygon fill="none" stroke="black" points="9,-92.75 9,-114.5 374.25,-114.5 374.25,-92.75 9,-92.75"/>
<text text-anchor="start" x="57.38" y="-98.2" font-family="Times New Roman,serif" font-size="14.00">[String] ActorName (default = Obj_Sun_A_01) </text>
<polygon fill="none" stroke="black" points="9,-71 9,-92.75 374.25,-92.75 374.25,-71 9,-71"/>
<text text-anchor="start" x="66" y="-76.45" font-family="Times New Roman,serif" font-size="14.00">[Vector3F] InitPos (default = (0.0, 0.0, 0.0)) </text>
<polygon fill="none" stroke="black" points="9,-49.25 9,-71 374.25,-71 374.25,-49.25 9,-49.25"/>
<text text-anchor="start" x="28.88" y="-54.7" font-family="Times New Roman,serif" font-size="14.00">[bb::OverwriteParam*] OverwriteParam (default = nullptr) </text>
<polygon fill="none" stroke="black" points="9,-26.75 9,-49.25 374.25,-49.25 374.25,-26.75 9,-26.75"/>
<text text-anchor="start" x="167.25" y="-33.95" font-family="Times New Roman,serif" font-weight="bold" font-size="14.00">Outputs</text>
<polygon fill="none" stroke="black" points="9,-5 9,-26.75 374.25,-26.75 374.25,-5 9,-5"/>
<text text-anchor="start" x="21" y="-10.45" font-family="Times New Roman,serif" font-size="14.00">[engine::actor::ActorBaseLink*] ActorLink (default = nullptr) </text>
<polygon fill="none" stroke="black" points="8,-4 8,-204 375.25,-204 375.25,-4 8,-4"/>
</g>
<!-- 8294&#45;&gt;8297 -->
<g id="edge1" class="edge">
<title>8294&#45;&gt;8297</title>
<path fill="none" stroke="firebrick" stroke-width="2" d="M339.6,-243.54C330.38,-234.91 320.44,-225.6 310.23,-216.05"/>
<polygon fill="firebrick" stroke="firebrick" stroke-width="2" points="313.9,-214.69 304.21,-210.41 309.12,-219.8 313.9,-214.69"/>
</g>
<!-- 8300 -->
<g id="node3" class="node">
<title>8300</title>
<polygon fill="none" stroke="black" stroke-width="2" points="784.25,-208 401,-208 401,0 784.25,0 784.25,-208"/>
<polygon fill="none" stroke="black" points="410,-180.5 410,-203 775.25,-203 775.25,-180.5 410,-180.5"/>
<text text-anchor="start" x="508.62" y="-187.7" font-family="Times New Roman,serif" font-weight="bold" font-size="14.00">SeqExecuteCreateActor (1)</text>
<polygon fill="none" stroke="black" points="410,-158 410,-180.5 775.25,-180.5 775.25,-158 410,-158"/>
<text text-anchor="start" x="573.5" y="-165.2" font-family="Times New Roman,serif" font-weight="bold" font-size="14.00">Inputs</text>
<polygon fill="none" stroke="black" points="410,-136.25 410,-158 775.25,-158 775.25,-136.25 410,-136.25"/>
<text text-anchor="start" x="413" y="-141.7" font-family="Times New Roman,serif" font-size="14.00">[Bool] IsNoDeleteOnSwitchingMainAndMinus (default = False) </text>
<polygon fill="none" stroke="black" points="410,-114.5 410,-136.25 775.25,-136.25 775.25,-114.5 410,-114.5"/>
<text text-anchor="start" x="502.62" y="-119.95" font-family="Times New Roman,serif" font-size="14.00">[Bool] IsSleep (default = False) </text>
<polygon fill="none" stroke="black" points="410,-92.75 410,-114.5 775.25,-114.5 775.25,-92.75 410,-92.75"/>
<text text-anchor="start" x="452.38" y="-98.2" font-family="Times New Roman,serif" font-size="14.00">[String] ActorName (default = Obj_Moon_A_01) </text>
<polygon fill="none" stroke="black" points="410,-71 410,-92.75 775.25,-92.75 775.25,-71 410,-71"/>
<text text-anchor="start" x="467" y="-76.45" font-family="Times New Roman,serif" font-size="14.00">[Vector3F] InitPos (default = (0.0, 0.0, 0.0)) </text>
<polygon fill="none" stroke="black" points="410,-49.25 410,-71 775.25,-71 775.25,-49.25 410,-49.25"/>
<text text-anchor="start" x="429.88" y="-54.7" font-family="Times New Roman,serif" font-size="14.00">[bb::OverwriteParam*] OverwriteParam (default = nullptr) </text>
<polygon fill="none" stroke="black" points="410,-26.75 410,-49.25 775.25,-49.25 775.25,-26.75 410,-26.75"/>
<text text-anchor="start" x="568.25" y="-33.95" font-family="Times New Roman,serif" font-weight="bold" font-size="14.00">Outputs</text>
<polygon fill="none" stroke="black" points="410,-5 410,-26.75 775.25,-26.75 775.25,-5 410,-5"/>
<text text-anchor="start" x="422" y="-10.45" font-family="Times New Roman,serif" font-size="14.00">[engine::actor::ActorBaseLink*] ActorLink (default = nullptr) </text>
<polygon fill="none" stroke="black" points="409,-4 409,-204 776.25,-204 776.25,-4 409,-4"/>
</g>
<!-- 8294&#45;&gt;8300 -->
<g id="edge2" class="edge">
<title>8294&#45;&gt;8300</title>
<path fill="none" stroke="firebrick" stroke-width="2" d="M443.91,-243.54C453.18,-234.91 463.17,-225.6 473.42,-216.05"/>
<polygon fill="firebrick" stroke="firebrick" stroke-width="2" points="474.55,-219.78 479.48,-210.4 469.78,-214.66 474.55,-219.78"/>
</g>
<!-- 8313 -->
<g id="node4" class="node">
<title>8313</title>
<ellipse fill="mediumpurple" stroke="mediumpurple" cx="391.62" cy="-396.5" rx="31.39" ry="18"/>
<text text-anchor="start" x="376.62" y="-392.45" font-family="Times New Roman,serif" font-weight="bold" font-size="14.00" fill="white">Root</text>
</g>
<!-- 8313&#45;&gt;8294 -->
<g id="edge3" class="edge">
<title>8313&#45;&gt;8294</title>
<path fill="none" stroke="black" d="M391.62,-378.32C391.62,-371.42 391.62,-363.02 391.62,-354.22"/>
<polygon fill="black" stroke="black" points="395.13,-354.47 391.63,-344.47 388.13,-354.47 395.13,-354.47"/>
</g>
</g>
</svg>
