<?xml version="1.0" encoding="UTF-8" standalone="no"?>
<!DOCTYPE svg PUBLIC "-//W3C//DTD SVG 1.1//EN"
 "http://www.w3.org/Graphics/SVG/1.1/DTD/svg11.dtd">
<!-- Generated by graphviz version 9.0.0 (20230911.1827)
 -->
<!-- Title: LowPrioSequence.module Pages: 1 -->
<svg width="853pt" height="422pt"
 viewBox="0.00 0.00 852.75 421.75" xmlns="http://www.w3.org/2000/svg" xmlns:xlink="http://www.w3.org/1999/xlink">
<g id="graph0" class="graph" transform="scale(1 1) rotate(0) translate(4 417.75)">
<title>LowPrioSequence.module</title>
<polygon fill="lightgray" stroke="none" points="-4,4 -4,-417.75 848.75,-417.75 848.75,4 -4,4"/>
<!-- 8316 -->
<g id="node1" class="node">
<title>8316</title>
<polygon fill="none" stroke="black" stroke-width="2" points="564.12,-341.75 280.62,-341.75 280.62,-134.5 564.12,-134.5 564.12,-341.75"/>
<polygon fill="none" stroke="black" points="289.62,-314.25 289.62,-336.75 555.12,-336.75 555.12,-314.25 289.62,-314.25"/>
<text text-anchor="start" x="351.5" y="-321.45" font-family="Times New Roman,serif" font-weight="bold" font-size="14.00">Element_Sequential (0)</text>
<polygon fill="none" stroke="black" points="289.62,-291.75 289.62,-314.25 555.12,-314.25 555.12,-291.75 289.62,-291.75"/>
<text text-anchor="start" x="390.5" y="-298.95" font-family="Times New Roman,serif" font-weight="bold" font-size="14.00">Properties</text>
<polygon fill="none" stroke="black" points="289.62,-270 289.62,-291.75 555.12,-291.75 555.12,-270 289.62,-270"/>
<text text-anchor="start" x="338.38" y="-275.45" font-family="Times New Roman,serif" font-size="14.00">[Int] BusyPolicy (default = 0) </text>
<polygon fill="none" stroke="black" points="289.62,-248.25 289.62,-270 555.12,-270 555.12,-248.25 289.62,-248.25"/>
<text text-anchor="start" x="341.38" y="-253.7" font-family="Times New Roman,serif" font-size="14.00">[Int] NumLoop (default = 0) </text>
<polygon fill="none" stroke="black" points="289.62,-226.5 289.62,-248.25 555.12,-248.25 555.12,-226.5 289.62,-226.5"/>
<text text-anchor="start" x="340.62" y="-231.95" font-family="Times New Roman,serif" font-size="14.00">[Int] PlayPolicy (default = 0) </text>
<polygon fill="none" stroke="black" points="289.62,-204.75 289.62,-226.5 555.12,-226.5 555.12,-204.75 289.62,-204.75"/>
<text text-anchor="start" x="335" y="-210.2" font-family="Times New Roman,serif" font-size="14.00">[Int] ResultPolicy (default = 0) </text>
<polygon fill="none" stroke="black" points="289.62,-183 289.62,-204.75 555.12,-204.75 555.12,-183 289.62,-183"/>
<text text-anchor="start" x="315.88" y="-188.45" font-family="Times New Roman,serif" font-size="14.00">[Bool] IsDelayJudge (default = False) </text>
<polygon fill="none" stroke="black" points="289.62,-161.25 289.62,-183 555.12,-183 555.12,-161.25 289.62,-161.25"/>
<text text-anchor="start" x="332.38" y="-166.7" font-family="Times New Roman,serif" font-size="14.00">[Bool] IsLoop (default = False) </text>
<polygon fill="none" stroke="black" points="289.62,-139.5 289.62,-161.25 555.12,-161.25 555.12,-139.5 289.62,-139.5"/>
<text text-anchor="start" x="292.62" y="-144.95" font-family="Times New Roman,serif" font-size="14.00">[Bool] IsUpdateNextInFrame (default = True) </text>
<polygon fill="none" stroke="black" points="288.62,-138.5 288.62,-337.75 556.12,-337.75 556.12,-138.5 288.62,-138.5"/>
</g>
<!-- 8319 -->
<g id="node2" class="node">
<title>8319</title>
<polygon fill="none" stroke="black" stroke-width="2" points="264.75,-87.62 0,-87.62 0,-10.88 264.75,-10.88 264.75,-87.62"/>
<polygon fill="none" stroke="black" points="9,-60.12 9,-82.62 255.75,-82.62 255.75,-60.12 9,-60.12"/>
<text text-anchor="start" x="12" y="-67.33" font-family="Times New Roman,serif" font-weight="bold" font-size="14.00">SeqExecuteSetSequenceCalcSystem (1)</text>
<polygon fill="none" stroke="black" points="9,-37.62 9,-60.12 255.75,-60.12 255.75,-37.62 9,-37.62"/>
<text text-anchor="start" x="113.25" y="-44.83" font-family="Times New Roman,serif" font-weight="bold" font-size="14.00">Inputs</text>
<polygon fill="none" stroke="black" points="9,-15.88 9,-37.62 255.75,-37.62 255.75,-15.88 9,-15.88"/>
<text text-anchor="start" x="25.88" y="-21.32" font-family="Times New Roman,serif" font-size="14.00">[Bool] IsLowPriority (default = True) </text>
<polygon fill="none" stroke="black" points="8,-14.88 8,-83.62 256.75,-83.62 256.75,-14.88 8,-14.88"/>
</g>
<!-- 8316&#45;&gt;8319 -->
<g id="edge1" class="edge">
<title>8316&#45;&gt;8319</title>
<path fill="none" stroke="firebrick" stroke-width="2" d="M280.35,-145.6C252.6,-127.72 224.7,-109.75 200.73,-94.3"/>
<polygon fill="firebrick" stroke="firebrick" stroke-width="2" points="203.9,-92.18 193.6,-89.7 200.11,-98.06 203.9,-92.18"/>
</g>
<!-- 8322 -->
<g id="node3" class="node">
<title>8322</title>
<polygon fill="none" stroke="black" stroke-width="2" points="561.5,-98.5 283.25,-98.5 283.25,0 561.5,0 561.5,-98.5"/>
<polygon fill="none" stroke="black" points="292.25,-71 292.25,-93.5 552.5,-93.5 552.5,-71 292.25,-71"/>
<text text-anchor="start" x="332.75" y="-78.2" font-family="Times New Roman,serif" font-weight="bold" font-size="14.00">Element_ModuleIF_Child (3)</text>
<polygon fill="none" stroke="black" points="292.25,-48.5 292.25,-71 552.5,-71 552.5,-48.5 292.25,-48.5"/>
<text text-anchor="start" x="390.5" y="-55.7" font-family="Times New Roman,serif" font-weight="bold" font-size="14.00">Properties</text>
<polygon fill="none" stroke="black" points="292.25,-26.75 292.25,-48.5 552.5,-48.5 552.5,-26.75 292.25,-26.75"/>
<text text-anchor="start" x="295.25" y="-32.2" font-family="Times New Roman,serif" font-size="14.00">[Bool] IsAcceptNoConnect (default = False) </text>
<polygon fill="none" stroke="black" points="292.25,-5 292.25,-26.75 552.5,-26.75 552.5,-5 292.25,-5"/>
<text text-anchor="start" x="309.12" y="-10.45" font-family="Times New Roman,serif" font-size="14.00">[String] Name (default = LowPrioChild) </text>
<polygon fill="none" stroke="black" points="291.25,-4 291.25,-94.5 553.5,-94.5 553.5,-4 291.25,-4"/>
</g>
<!-- 8316&#45;&gt;8322 -->
<g id="edge2" class="edge">
<title>8316&#45;&gt;8322</title>
<path fill="none" stroke="firebrick" stroke-width="2" d="M422.38,-134.12C422.38,-125.92 422.38,-117.81 422.38,-110.07"/>
<polygon fill="firebrick" stroke="firebrick" stroke-width="2" points="425.88,-111.64 422.38,-101.64 418.88,-111.64 425.88,-111.64"/>
</g>
<!-- 8325 -->
<g id="node4" class="node">
<title>8325</title>
<polygon fill="none" stroke="black" stroke-width="2" points="844.75,-87.62 580,-87.62 580,-10.88 844.75,-10.88 844.75,-87.62"/>
<polygon fill="none" stroke="black" points="589,-60.12 589,-82.62 835.75,-82.62 835.75,-60.12 589,-60.12"/>
<text text-anchor="start" x="592" y="-67.33" font-family="Times New Roman,serif" font-weight="bold" font-size="14.00">SeqExecuteSetSequenceCalcSystem (2)</text>
<polygon fill="none" stroke="black" points="589,-37.62 589,-60.12 835.75,-60.12 835.75,-37.62 589,-37.62"/>
<text text-anchor="start" x="693.25" y="-44.83" font-family="Times New Roman,serif" font-weight="bold" font-size="14.00">Inputs</text>
<polygon fill="none" stroke="black" points="589,-15.88 589,-37.62 835.75,-37.62 835.75,-15.88 589,-15.88"/>
<text text-anchor="start" x="604.38" y="-21.32" font-family="Times New Roman,serif" font-size="14.00">[Bool] IsLowPriority (default = False) </text>
<polygon fill="none" stroke="black" points="588,-14.88 588,-83.62 836.75,-83.62 836.75,-14.88 588,-14.88"/>
</g>
<!-- 8316&#45;&gt;8325 -->
<g id="edge3" class="edge">
<title>8316&#45;&gt;8325</title>
<path fill="none" stroke="firebrick" stroke-width="2" d="M564.4,-145.6C592.15,-127.72 620.05,-109.75 644.02,-94.3"/>
<polygon fill="firebrick" stroke="firebrick" stroke-width="2" points="644.64,-98.06 651.15,-89.7 640.85,-92.18 644.64,-98.06"/>
</g>
<!-- 8328 -->
<g id="node5" class="node">
<title>8328</title>
<ellipse fill="mediumpurple" stroke="mediumpurple" cx="422.38" cy="-395.75" rx="34.46" ry="18"/>
<text text-anchor="start" x="405.12" y="-391.7" font-family="Times New Roman,serif" font-weight="bold" font-size="14.00" fill="white">Entry</text>
</g>
<!-- 8328&#45;&gt;8316 -->
<g id="edge4" class="edge">
<title>8328&#45;&gt;8316</title>
<path fill="none" stroke="black" d="M422.38,-377.5C422.38,-370.86 422.38,-362.68 422.38,-353.65"/>
<polygon fill="black" stroke="black" points="425.88,-353.76 422.38,-343.76 418.88,-353.76 425.88,-353.76"/>
</g>
</g>
</svg>
