<?xml version="1.0" encoding="UTF-8" standalone="no"?>
<!DOCTYPE svg PUBLIC "-//W3C//DTD SVG 1.1//EN"
 "http://www.w3.org/Graphics/SVG/1.1/DTD/svg11.dtd">
<!-- Generated by graphviz version 9.0.0 (20230911.1827)
 -->
<!-- Title: MainUpdate.module Pages: 1 -->
<svg width="3973pt" height="380pt"
 viewBox="0.00 0.00 3972.75 379.62" xmlns="http://www.w3.org/2000/svg" xmlns:xlink="http://www.w3.org/1999/xlink">
<g id="graph0" class="graph" transform="scale(1 1) rotate(0) translate(4 375.62)">
<title>MainUpdate.module</title>
<polygon fill="lightgray" stroke="none" points="-4,4 -4,-375.62 3968.75,-375.62 3968.75,4 -4,4"/>
<!-- 8458 -->
<g id="node1" class="node">
<title>8458</title>
<polygon fill="none" stroke="black" stroke-width="2" points="2005.5,-265.62 1806.75,-265.62 1806.75,-167.12 2005.5,-167.12 2005.5,-265.62"/>
<polygon fill="none" stroke="black" points="1815.75,-238.12 1815.75,-260.62 1996.5,-260.62 1996.5,-238.12 1815.75,-238.12"/>
<text text-anchor="start" x="1826.25" y="-245.32" font-family="Times New Roman,serif" font-weight="bold" font-size="14.00">Element_Simultaneous (0)</text>
<polygon fill="none" stroke="black" points="1815.75,-215.62 1815.75,-238.12 1996.5,-238.12 1996.5,-215.62 1815.75,-215.62"/>
<text text-anchor="start" x="1874.25" y="-222.82" font-family="Times New Roman,serif" font-weight="bold" font-size="14.00">Properties</text>
<polygon fill="none" stroke="black" points="1815.75,-193.87 1815.75,-215.62 1996.5,-215.62 1996.5,-193.87 1815.75,-193.87"/>
<text text-anchor="start" x="1825.12" y="-199.32" font-family="Times New Roman,serif" font-size="14.00">[Int] EndPolicy (default = 0) </text>
<polygon fill="none" stroke="black" points="1815.75,-172.12 1815.75,-193.87 1996.5,-193.87 1996.5,-172.12 1815.75,-172.12"/>
<text text-anchor="start" x="1818.75" y="-177.57" font-family="Times New Roman,serif" font-size="14.00">[Int] ResultPolicy (default = 0) </text>
<polygon fill="none" stroke="black" points="1814.75,-171.12 1814.75,-261.62 1997.5,-261.62 1997.5,-171.12 1814.75,-171.12"/>
</g>
<!-- 8461 -->
<g id="node2" class="node">
<title>8461</title>
<polygon fill="none" stroke="black" stroke-width="2" points="571.75,-61.99 302.5,-61.99 302.5,-25.99 571.75,-25.99 571.75,-61.99"/>
<polygon fill="none" stroke="black" points="311.5,-32.74 311.5,-55.24 562.75,-55.24 562.75,-32.74 311.5,-32.74"/>
<text text-anchor="start" x="314.5" y="-39.94" font-family="Times New Roman,serif" font-weight="bold" font-size="14.00">_LocalModule_2fafbbf43963.module (5)</text>
<polygon fill="none" stroke="black" points="310.5,-31.74 310.5,-56.24 563.75,-56.24 563.75,-31.74 310.5,-31.74"/>
</g>
<!-- 8458&#45;&gt;8461 -->
<g id="edge1" class="edge">
<title>8458&#45;&gt;8461</title>
<path fill="none" stroke="firebrick" stroke-width="2" d="M1806.5,-210.61C1584.83,-198.9 1034.58,-163.47 581.12,-82.37 556.65,-77.99 530.22,-71.62 506.77,-65.38"/>
<polygon fill="firebrick" stroke="firebrick" stroke-width="2" points="509.36,-62.45 498.8,-63.22 507.53,-69.21 509.36,-62.45"/>
</g>
<!-- 8464 -->
<g id="node3" class="node">
<title>8464</title>
<polygon fill="none" stroke="black" stroke-width="2" points="866.5,-61.99 589.75,-61.99 589.75,-25.99 866.5,-25.99 866.5,-61.99"/>
<polygon fill="none" stroke="black" points="598.75,-32.74 598.75,-55.24 857.5,-55.24 857.5,-32.74 598.75,-32.74"/>
<text text-anchor="start" x="601.75" y="-39.94" font-family="Times New Roman,serif" font-weight="bold" font-size="14.00">_LocalModule_e70eb858046b.module (6)</text>
<polygon fill="none" stroke="black" points="597.75,-31.74 597.75,-56.24 858.5,-56.24 858.5,-31.74 597.75,-31.74"/>
</g>
<!-- 8458&#45;&gt;8464 -->
<g id="edge2" class="edge">
<title>8458&#45;&gt;8464</title>
<path fill="none" stroke="firebrick" stroke-width="2" d="M1806.33,-206.53C1621.51,-189.28 1213.94,-147.05 875.12,-82.37 850.79,-77.72 824.48,-71.44 800.94,-65.35"/>
<polygon fill="firebrick" stroke="firebrick" stroke-width="2" points="803.47,-62.4 792.91,-63.25 801.7,-69.17 803.47,-62.4"/>
</g>
<!-- 8467 -->
<g id="node4" class="node">
<title>8467</title>
<polygon fill="none" stroke="black" stroke-width="2" points="1161.88,-61.99 884.38,-61.99 884.38,-25.99 1161.88,-25.99 1161.88,-61.99"/>
<polygon fill="none" stroke="black" points="893.38,-32.74 893.38,-55.24 1152.88,-55.24 1152.88,-32.74 893.38,-32.74"/>
<text text-anchor="start" x="896.38" y="-39.94" font-family="Times New Roman,serif" font-weight="bold" font-size="14.00">_LocalModule_a9010cd5b797.module (7)</text>
<polygon fill="none" stroke="black" points="892.38,-31.74 892.38,-56.24 1153.88,-56.24 1153.88,-31.74 892.38,-31.74"/>
</g>
<!-- 8458&#45;&gt;8467 -->
<g id="edge3" class="edge">
<title>8458&#45;&gt;8467</title>
<path fill="none" stroke="firebrick" stroke-width="2" d="M1806.43,-199.55C1664.69,-176.55 1397.04,-131.27 1171.12,-82.37 1147.64,-77.28 1122.23,-71.11 1099.2,-65.26"/>
<polygon fill="firebrick" stroke="firebrick" stroke-width="2" points="1101.59,-62.26 1091.04,-63.17 1099.86,-69.04 1101.59,-62.26"/>
</g>
<!-- 8470 -->
<g id="node5" class="node">
<title>8470</title>
<polygon fill="none" stroke="black" stroke-width="2" points="1457.88,-61.99 1180.38,-61.99 1180.38,-25.99 1457.88,-25.99 1457.88,-61.99"/>
<polygon fill="none" stroke="black" points="1189.38,-32.74 1189.38,-55.24 1448.88,-55.24 1448.88,-32.74 1189.38,-32.74"/>
<text text-anchor="start" x="1192.38" y="-39.94" font-family="Times New Roman,serif" font-weight="bold" font-size="14.00">_LocalModule_4010bb74713c.module (8)</text>
<polygon fill="none" stroke="black" points="1188.38,-31.74 1188.38,-56.24 1449.88,-56.24 1449.88,-31.74 1188.38,-31.74"/>
</g>
<!-- 8458&#45;&gt;8470 -->
<g id="edge4" class="edge">
<title>8458&#45;&gt;8470</title>
<path fill="none" stroke="firebrick" stroke-width="2" d="M1806.55,-186.46C1688.36,-152.16 1494.22,-95.81 1390.2,-65.62"/>
<polygon fill="firebrick" stroke="firebrick" stroke-width="2" points="1392.69,-62.7 1382.11,-63.27 1390.74,-69.42 1392.69,-62.7"/>
</g>
<!-- 8473 -->
<g id="node6" class="node">
<title>8473</title>
<polygon fill="none" stroke="black" stroke-width="2" points="1748.25,-61.99 1476,-61.99 1476,-25.99 1748.25,-25.99 1748.25,-61.99"/>
<polygon fill="none" stroke="black" points="1485,-32.74 1485,-55.24 1739.25,-55.24 1739.25,-32.74 1485,-32.74"/>
<text text-anchor="start" x="1488" y="-39.94" font-family="Times New Roman,serif" font-weight="bold" font-size="14.00">_LocalModule_ffa16b344754.module (9)</text>
<polygon fill="none" stroke="black" points="1484,-31.74 1484,-56.24 1740.25,-56.24 1740.25,-31.74 1484,-31.74"/>
</g>
<!-- 8458&#45;&gt;8473 -->
<g id="edge5" class="edge">
<title>8458&#45;&gt;8473</title>
<path fill="none" stroke="firebrick" stroke-width="2" d="M1822.27,-166.77C1766.49,-134.45 1695.73,-93.44 1652.21,-68.22"/>
<polygon fill="firebrick" stroke="firebrick" stroke-width="2" points="1655.32,-65.98 1644.91,-63.99 1651.81,-72.03 1655.32,-65.98"/>
</g>
<!-- 8476 -->
<g id="node7" class="node">
<title>8476</title>
<polygon fill="none" stroke="black" stroke-width="2" points="2045.62,-61.99 1766.62,-61.99 1766.62,-25.99 2045.62,-25.99 2045.62,-61.99"/>
<polygon fill="none" stroke="black" points="1775.62,-32.74 1775.62,-55.24 2036.62,-55.24 2036.62,-32.74 1775.62,-32.74"/>
<text text-anchor="start" x="1778.62" y="-39.94" font-family="Times New Roman,serif" font-weight="bold" font-size="14.00">_LocalModule_1cb6a9fdf487.module (10)</text>
<polygon fill="none" stroke="black" points="1774.62,-31.74 1774.62,-56.24 2037.62,-56.24 2037.62,-31.74 1774.62,-31.74"/>
</g>
<!-- 8458&#45;&gt;8476 -->
<g id="edge6" class="edge">
<title>8458&#45;&gt;8476</title>
<path fill="none" stroke="firebrick" stroke-width="2" d="M1906.12,-167C1906.12,-136.9 1906.12,-99.21 1906.12,-73.75"/>
<polygon fill="firebrick" stroke="firebrick" stroke-width="2" points="1909.63,-75.34 1906.13,-65.34 1902.63,-75.34 1909.63,-75.34"/>
</g>
<!-- 8479 -->
<g id="node8" class="node">
<title>8479</title>
<polygon fill="none" stroke="black" stroke-width="2" points="284.25,-82.37 0,-82.37 0,-5.62 284.25,-5.62 284.25,-82.37"/>
<polygon fill="none" stroke="black" points="9,-54.87 9,-77.37 275.25,-77.37 275.25,-54.87 9,-54.87"/>
<text text-anchor="start" x="12" y="-62.07" font-family="Times New Roman,serif" font-weight="bold" font-size="14.00">ResetGameDataOnDayChange.module (2)</text>
<polygon fill="none" stroke="black" points="9,-32.37 9,-54.87 275.25,-54.87 275.25,-32.37 9,-32.37"/>
<text text-anchor="start" x="123" y="-39.57" font-family="Times New Roman,serif" font-weight="bold" font-size="14.00">Inputs</text>
<polygon fill="none" stroke="black" points="9,-10.62 9,-32.37 275.25,-32.37 275.25,-10.62 9,-10.62"/>
<text text-anchor="start" x="26.62" y="-16.07" font-family="Times New Roman,serif" font-size="14.00">[Bool] IsOnDayChange (default = False) </text>
<polygon fill="none" stroke="black" points="8,-9.62 8,-78.37 276.25,-78.37 276.25,-9.62 8,-9.62"/>
</g>
<!-- 8458&#45;&gt;8479 -->
<g id="edge7" class="edge">
<title>8458&#45;&gt;8479</title>
<path fill="none" stroke="firebrick" stroke-width="2" d="M1806.33,-212.7C1553.87,-204.75 869.63,-175.79 295.65,-82.71"/>
<polygon fill="firebrick" stroke="firebrick" stroke-width="2" points="298.08,-79.56 287.65,-81.41 296.96,-86.47 298.08,-79.56"/>
</g>
<!-- 8485 -->
<g id="node9" class="node">
<title>8485</title>
<polygon fill="none" stroke="black" stroke-width="2" points="2344.38,-61.99 2063.88,-61.99 2063.88,-25.99 2344.38,-25.99 2344.38,-61.99"/>
<polygon fill="none" stroke="black" points="2072.88,-32.74 2072.88,-55.24 2335.38,-55.24 2335.38,-32.74 2072.88,-32.74"/>
<text text-anchor="start" x="2075.88" y="-39.94" font-family="Times New Roman,serif" font-weight="bold" font-size="14.00">_LocalModule_93fe4226ca8e.module (11)</text>
<polygon fill="none" stroke="black" points="2071.88,-31.74 2071.88,-56.24 2336.38,-56.24 2336.38,-31.74 2071.88,-31.74"/>
</g>
<!-- 8458&#45;&gt;8485 -->
<g id="edge8" class="edge">
<title>8458&#45;&gt;8485</title>
<path fill="none" stroke="firebrick" stroke-width="2" d="M1991.12,-166.77C2047.78,-134.38 2119.68,-93.27 2163.77,-68.06"/>
<polygon fill="firebrick" stroke="firebrick" stroke-width="2" points="2163.98,-71.98 2170.92,-63.97 2160.5,-65.9 2163.98,-71.98"/>
</g>
<!-- 8488 -->
<g id="node10" class="node">
<title>8488</title>
<polygon fill="none" stroke="black" stroke-width="2" points="2645.88,-61.99 2362.38,-61.99 2362.38,-25.99 2645.88,-25.99 2645.88,-61.99"/>
<polygon fill="none" stroke="black" points="2371.38,-32.74 2371.38,-55.24 2636.88,-55.24 2636.88,-32.74 2371.38,-32.74"/>
<text text-anchor="start" x="2374.38" y="-39.94" font-family="Times New Roman,serif" font-weight="bold" font-size="14.00">_LocalModule_120e5b3ceb1b.module (12)</text>
<polygon fill="none" stroke="black" points="2370.38,-31.74 2370.38,-56.24 2637.88,-56.24 2637.88,-31.74 2370.38,-31.74"/>
</g>
<!-- 8458&#45;&gt;8488 -->
<g id="edge9" class="edge">
<title>8458&#45;&gt;8488</title>
<path fill="none" stroke="firebrick" stroke-width="2" d="M2005.88,-186.95C2126.24,-152.66 2325.64,-95.84 2432.02,-65.53"/>
<polygon fill="firebrick" stroke="firebrick" stroke-width="2" points="2431.39,-69.35 2440.05,-63.25 2429.47,-62.62 2431.39,-69.35"/>
</g>
<!-- 8491 -->
<g id="node11" class="node">
<title>8491</title>
<polygon fill="none" stroke="black" stroke-width="2" points="3024.5,-61.99 2663.75,-61.99 2663.75,-25.99 3024.5,-25.99 3024.5,-61.99"/>
<polygon fill="none" stroke="black" points="2672.75,-32.74 2672.75,-55.24 3015.5,-55.24 3015.5,-32.74 2672.75,-32.74"/>
<text text-anchor="start" x="2675.75" y="-39.94" font-family="Times New Roman,serif" font-weight="bold" font-size="14.00">SeqExecuteRequestBloodyMoonIfMemoryShortage (3)</text>
<polygon fill="none" stroke="black" points="2671.75,-31.74 2671.75,-56.24 3016.5,-56.24 3016.5,-31.74 2671.75,-31.74"/>
</g>
<!-- 8458&#45;&gt;8491 -->
<g id="edge10" class="edge">
<title>8458&#45;&gt;8491</title>
<path fill="none" stroke="firebrick" stroke-width="2" d="M2005.89,-198.29C2149.54,-173.55 2422.94,-125.93 2655.12,-82.37 2684.86,-76.79 2717.17,-70.49 2746.53,-64.67"/>
<polygon fill="firebrick" stroke="firebrick" stroke-width="2" points="2745.54,-68.43 2754.66,-63.05 2744.17,-61.57 2745.54,-68.43"/>
</g>
<!-- 8494 -->
<g id="node12" class="node">
<title>8494</title>
<polygon fill="none" stroke="black" stroke-width="2" points="3363.25,-61.99 3043,-61.99 3043,-25.99 3363.25,-25.99 3363.25,-61.99"/>
<polygon fill="none" stroke="black" points="3052,-32.74 3052,-55.24 3354.25,-55.24 3354.25,-32.74 3052,-32.74"/>
<text text-anchor="start" x="3055" y="-39.94" font-family="Times New Roman,serif" font-weight="bold" font-size="14.00">SeqExecuteUpdatePlacementShopInfoScreen (4)</text>
<polygon fill="none" stroke="black" points="3051,-31.74 3051,-56.24 3355.25,-56.24 3355.25,-31.74 3051,-31.74"/>
</g>
<!-- 8458&#45;&gt;8494 -->
<g id="edge11" class="edge">
<title>8458&#45;&gt;8494</title>
<path fill="none" stroke="firebrick" stroke-width="2" d="M2005.72,-206.95C2202.77,-189.57 2655.98,-145.92 3033.12,-82.37 3061.54,-77.58 3092.38,-71.17 3119.89,-65.02"/>
<polygon fill="firebrick" stroke="firebrick" stroke-width="2" points="3119.12,-68.78 3128.1,-63.16 3117.57,-61.95 3119.12,-68.78"/>
</g>
<!-- 8497 -->
<g id="node13" class="node">
<title>8497</title>
<polygon fill="none" stroke="black" stroke-width="2" points="3665.25,-61.99 3381,-61.99 3381,-25.99 3665.25,-25.99 3665.25,-61.99"/>
<polygon fill="none" stroke="black" points="3390,-32.74 3390,-55.24 3656.25,-55.24 3656.25,-32.74 3390,-32.74"/>
<text text-anchor="start" x="3393" y="-39.94" font-family="Times New Roman,serif" font-weight="bold" font-size="14.00">_LocalModule_31bc5067250e.module (13)</text>
<polygon fill="none" stroke="black" points="3389,-31.74 3389,-56.24 3657.25,-56.24 3657.25,-31.74 3389,-31.74"/>
</g>
<!-- 8458&#45;&gt;8497 -->
<g id="edge12" class="edge">
<title>8458&#45;&gt;8497</title>
<path fill="none" stroke="firebrick" stroke-width="2" d="M2005.9,-211.55C2243.83,-201.32 2862.72,-168 3372.12,-82.37 3397.99,-78.02 3425.97,-71.59 3450.73,-65.28"/>
<polygon fill="firebrick" stroke="firebrick" stroke-width="2" points="3450.12,-69.06 3458.93,-63.16 3448.37,-62.28 3450.12,-69.06"/>
</g>
<!-- 8500 -->
<g id="node14" class="node">
<title>8500</title>
<polygon fill="none" stroke="black" stroke-width="2" points="3964.75,-61.99 3683.5,-61.99 3683.5,-25.99 3964.75,-25.99 3964.75,-61.99"/>
<polygon fill="none" stroke="black" points="3692.5,-32.74 3692.5,-55.24 3955.75,-55.24 3955.75,-32.74 3692.5,-32.74"/>
<text text-anchor="start" x="3695.5" y="-39.94" font-family="Times New Roman,serif" font-weight="bold" font-size="14.00">_LocalModule_265b15c6e28f.module (14)</text>
<polygon fill="none" stroke="black" points="3691.5,-31.74 3691.5,-56.24 3956.75,-56.24 3956.75,-31.74 3691.5,-31.74"/>
</g>
<!-- 8458&#45;&gt;8500 -->
<g id="edge13" class="edge">
<title>8458&#45;&gt;8500</title>
<path fill="none" stroke="firebrick" stroke-width="2" d="M2005.63,-207.92C2225.9,-191.42 2771.4,-150.54 3228.12,-116.12 3426.35,-101.18 3477.87,-114.01 3674.12,-82.37 3700.09,-78.18 3728.15,-71.72 3752.91,-65.35"/>
<polygon fill="firebrick" stroke="firebrick" stroke-width="2" points="3752.31,-69.12 3761.1,-63.2 3750.54,-62.35 3752.31,-69.12"/>
</g>
<!-- 8482 -->
<g id="node15" class="node">
<title>8482</title>
<polygon fill="none" stroke="black" stroke-width="2" points="279.75,-298.62 4.5,-298.62 4.5,-134.12 279.75,-134.12 279.75,-298.62"/>
<polygon fill="none" stroke="black" points="13.5,-271.12 13.5,-293.62 270.75,-293.62 270.75,-271.12 13.5,-271.12"/>
<text text-anchor="start" x="50.25" y="-278.32" font-family="Times New Roman,serif" font-weight="bold" font-size="14.00">SeqQueryGetCurrentTime (1)</text>
<polygon fill="none" stroke="black" points="13.5,-248.62 13.5,-271.12 270.75,-271.12 270.75,-248.62 13.5,-248.62"/>
<text text-anchor="start" x="110.25" y="-255.82" font-family="Times New Roman,serif" font-weight="bold" font-size="14.00">Properties</text>
<polygon fill="none" stroke="black" points="13.5,-226.87 13.5,-248.62 270.75,-248.62 270.75,-226.87 13.5,-226.87"/>
<text text-anchor="start" x="16.5" y="-232.32" font-family="Times New Roman,serif" font-size="14.00">[Bool] OutputOnlyOnEnter (default = False) </text>
<polygon fill="none" stroke="black" points="13.5,-204.37 13.5,-226.87 270.75,-226.87 270.75,-204.37 13.5,-204.37"/>
<text text-anchor="start" x="117.75" y="-211.57" font-family="Times New Roman,serif" font-weight="bold" font-size="14.00">Outputs</text>
<polygon fill="none" stroke="black" points="13.5,-182.62 13.5,-204.37 270.75,-204.37 270.75,-182.62 13.5,-182.62"/>
<text text-anchor="start" x="114" y="-188.07" font-family="Times New Roman,serif" font-size="14.00">[Int] Hour</text>
<polygon fill="none" stroke="black" points="13.5,-160.87 13.5,-182.62 270.75,-182.62 270.75,-160.87 13.5,-160.87"/>
<text text-anchor="start" x="109.12" y="-166.32" font-family="Times New Roman,serif" font-size="14.00">[Int] Minute</text>
<polygon fill="none" stroke="black" points="13.5,-139.12 13.5,-160.87 270.75,-160.87 270.75,-139.12 13.5,-139.12"/>
<text text-anchor="start" x="76.12" y="-144.57" font-family="Times New Roman,serif" font-size="14.00">[Bool] IsOnDayChange</text>
<polygon fill="none" stroke="black" points="12.5,-138.12 12.5,-294.62 271.75,-294.62 271.75,-138.12 12.5,-138.12"/>
</g>
<!-- 8482&#45;&gt;8479 -->
<g id="edge14" class="edge">
<title>8482:8504&#45;&gt;8479:8501</title>
<path fill="none" stroke="#008000" stroke-dasharray="5,2" d="M142.12,-138.37C142.12,-97.9 187.03,-114.71 224.88,-100.37 250.66,-90.59 267.82,-104.51 284.25,-82.37 293.7,-69.63 295.43,-22.25 284.25,-10.99 274.95,-1.62 181.88,3.82 151.6,-3.88"/>
<polygon fill="#008000" stroke="#008000" points="149.9,-0.81 143.4,-9.17 153.7,-6.69 149.9,-0.81"/>
<text text-anchor="middle" x="271.25" y="-102.82" font-family="Times New Roman,serif" font-size="14.00" fill="#008000">IsOnDayChange</text>
</g>
<!-- 8505 -->
<g id="node16" class="node">
<title>8505</title>
<ellipse fill="mediumpurple" stroke="mediumpurple" cx="1906.12" cy="-353.62" rx="31.39" ry="18"/>
<text text-anchor="start" x="1891.12" y="-349.57" font-family="Times New Roman,serif" font-weight="bold" font-size="14.00" fill="white">Root</text>
</g>
<!-- 8505&#45;&gt;8458 -->
<g id="edge15" class="edge">
<title>8505&#45;&gt;8458</title>
<path fill="none" stroke="black" d="M1906.12,-335.21C1906.12,-320.4 1906.12,-298.21 1906.12,-277.07"/>
<polygon fill="black" stroke="black" points="1909.63,-277.34 1906.13,-267.34 1902.63,-277.34 1909.63,-277.34"/>
</g>
</g>
</svg>
