<?xml version="1.0" encoding="UTF-8" standalone="no"?>
<!DOCTYPE svg PUBLIC "-//W3C//DTD SVG 1.1//EN"
 "http://www.w3.org/Graphics/SVG/1.1/DTD/svg11.dtd">
<!-- Generated by graphviz version 9.0.0 (20230911.1827)
 -->
<!-- Title: MinusMenuToPlusMenu.module Pages: 1 -->
<svg width="2626pt" height="735pt"
 viewBox="0.00 0.00 2625.88 735.00" xmlns="http://www.w3.org/2000/svg" xmlns:xlink="http://www.w3.org/1999/xlink">
<g id="graph0" class="graph" transform="scale(1 1) rotate(0) translate(4 731)">
<title>MinusMenuToPlusMenu.module</title>
<polygon fill="lightgray" stroke="none" points="-4,4 -4,-731 2621.88,-731 2621.88,4 -4,4"/>
<!-- 9773 -->
<g id="node1" class="node">
<title>9773</title>
<polygon fill="none" stroke="black" stroke-width="2" points="989,-655 790.25,-655 790.25,-556.5 989,-556.5 989,-655"/>
<polygon fill="none" stroke="black" points="799.25,-627.5 799.25,-650 980,-650 980,-627.5 799.25,-627.5"/>
<text text-anchor="start" x="809.75" y="-634.7" font-family="Times New Roman,serif" font-weight="bold" font-size="14.00">Element_Simultaneous (0)</text>
<polygon fill="none" stroke="black" points="799.25,-605 799.25,-627.5 980,-627.5 980,-605 799.25,-605"/>
<text text-anchor="start" x="857.75" y="-612.2" font-family="Times New Roman,serif" font-weight="bold" font-size="14.00">Properties</text>
<polygon fill="none" stroke="black" points="799.25,-583.25 799.25,-605 980,-605 980,-583.25 799.25,-583.25"/>
<text text-anchor="start" x="808.62" y="-588.7" font-family="Times New Roman,serif" font-size="14.00">[Int] EndPolicy (default = 0) </text>
<polygon fill="none" stroke="black" points="799.25,-561.5 799.25,-583.25 980,-583.25 980,-561.5 799.25,-561.5"/>
<text text-anchor="start" x="802.25" y="-566.95" font-family="Times New Roman,serif" font-size="14.00">[Int] ResultPolicy (default = 0) </text>
<polygon fill="none" stroke="black" points="798.25,-560.5 798.25,-651 981,-651 981,-560.5 798.25,-560.5"/>
</g>
<!-- 9776 -->
<g id="node2" class="node">
<title>9776</title>
<polygon fill="none" stroke="black" stroke-width="2" points="281.25,-488.25 0,-488.25 0,-345.5 281.25,-345.5 281.25,-488.25"/>
<polygon fill="none" stroke="black" points="9,-460.75 9,-483.25 272.25,-483.25 272.25,-460.75 9,-460.75"/>
<text text-anchor="start" x="37.5" y="-467.95" font-family="Times New Roman,serif" font-weight="bold" font-size="14.00">SeqOneShotSetScreenVisible (17)</text>
<polygon fill="none" stroke="black" points="9,-438.25 9,-460.75 272.25,-460.75 272.25,-438.25 9,-438.25"/>
<text text-anchor="start" x="108.75" y="-445.45" font-family="Times New Roman,serif" font-weight="bold" font-size="14.00">Properties</text>
<polygon fill="none" stroke="black" points="9,-416.5 9,-438.25 272.25,-438.25 272.25,-416.5 9,-416.5"/>
<text text-anchor="start" x="15.38" y="-421.95" font-family="Times New Roman,serif" font-size="14.00">[Bool] ExecuteEveryFrame (default = False) </text>
<polygon fill="none" stroke="black" points="9,-394 9,-416.5 272.25,-416.5 272.25,-394 9,-394"/>
<text text-anchor="start" x="121.5" y="-401.2" font-family="Times New Roman,serif" font-weight="bold" font-size="14.00">Inputs</text>
<polygon fill="none" stroke="black" points="9,-372.25 9,-394 272.25,-394 272.25,-372.25 9,-372.25"/>
<text text-anchor="start" x="46.88" y="-377.7" font-family="Times New Roman,serif" font-size="14.00">[Bool] IsVisible (default = False) </text>
<polygon fill="none" stroke="black" points="9,-350.5 9,-372.25 272.25,-372.25 272.25,-350.5 9,-350.5"/>
<text text-anchor="start" x="12" y="-355.95" font-family="Times New Roman,serif" font-size="14.00">[String] ScreenName (default = AppMap_00) </text>
<polygon fill="none" stroke="black" points="8,-349.5 8,-484.25 273.25,-484.25 273.25,-349.5 8,-349.5"/>
</g>
<!-- 9773&#45;&gt;9776 -->
<g id="edge1" class="edge">
<title>9773&#45;&gt;9776</title>
<path fill="none" stroke="firebrick" stroke-width="2" d="M789.94,-604.5C668.15,-601.13 457.69,-585.28 290.62,-520.5 273.16,-513.73 255.74,-504.58 239.27,-494.53"/>
<polygon fill="firebrick" stroke="firebrick" stroke-width="2" points="242.58,-492.47 232.25,-490.12 238.86,-498.4 242.58,-492.47"/>
</g>
<!-- 9779 -->
<g id="node3" class="node">
<title>9779</title>
<polygon fill="none" stroke="black" stroke-width="2" points="573.88,-477.38 299.38,-477.38 299.38,-356.38 573.88,-356.38 573.88,-477.38"/>
<polygon fill="none" stroke="black" points="308.38,-449.88 308.38,-472.38 564.88,-472.38 564.88,-449.88 308.38,-449.88"/>
<text text-anchor="start" x="334.62" y="-457.07" font-family="Times New Roman,serif" font-weight="bold" font-size="14.00">SeqOneShotSetMiniMapState (3)</text>
<polygon fill="none" stroke="black" points="308.38,-427.38 308.38,-449.88 564.88,-449.88 564.88,-427.38 308.38,-427.38"/>
<text text-anchor="start" x="404.75" y="-434.57" font-family="Times New Roman,serif" font-weight="bold" font-size="14.00">Properties</text>
<polygon fill="none" stroke="black" points="308.38,-405.62 308.38,-427.38 564.88,-427.38 564.88,-405.62 308.38,-405.62"/>
<text text-anchor="start" x="311.38" y="-411.07" font-family="Times New Roman,serif" font-size="14.00">[Bool] ExecuteEveryFrame (default = False) </text>
<polygon fill="none" stroke="black" points="308.38,-383.12 308.38,-405.62 564.88,-405.62 564.88,-383.12 308.38,-383.12"/>
<text text-anchor="start" x="417.5" y="-390.32" font-family="Times New Roman,serif" font-weight="bold" font-size="14.00">Inputs</text>
<polygon fill="none" stroke="black" points="308.38,-361.38 308.38,-383.12 564.88,-383.12 564.88,-361.38 308.38,-361.38"/>
<text text-anchor="start" x="338.38" y="-366.82" font-family="Times New Roman,serif" font-size="14.00">[Bool] IsMiniMap (default = True) </text>
<polygon fill="none" stroke="black" points="307.38,-360.38 307.38,-473.38 565.88,-473.38 565.88,-360.38 307.38,-360.38"/>
</g>
<!-- 9773&#45;&gt;9779 -->
<g id="edge2" class="edge">
<title>9773&#45;&gt;9779</title>
<path fill="none" stroke="firebrick" stroke-width="2" d="M789.78,-586.28C728.46,-572.77 649.34,-551.36 583.62,-520.5 562.34,-510.51 540.82,-497.47 521.06,-484.07"/>
<polygon fill="firebrick" stroke="firebrick" stroke-width="2" points="524.51,-482.2 514.3,-479.4 520.54,-487.96 524.51,-482.2"/>
</g>
<!-- 9782 -->
<g id="node4" class="node">
<title>9782</title>
<polygon fill="none" stroke="black" stroke-width="2" points="899,-488.25 592.25,-488.25 592.25,-345.5 899,-345.5 899,-488.25"/>
<polygon fill="none" stroke="black" points="601.25,-460.75 601.25,-483.25 890,-483.25 890,-460.75 601.25,-460.75"/>
<text text-anchor="start" x="659.38" y="-467.95" font-family="Times New Roman,serif" font-weight="bold" font-size="14.00">SeqOneShotCloseScreen (1)</text>
<polygon fill="none" stroke="black" points="601.25,-438.25 601.25,-460.75 890,-460.75 890,-438.25 601.25,-438.25"/>
<text text-anchor="start" x="713.75" y="-445.45" font-family="Times New Roman,serif" font-weight="bold" font-size="14.00">Properties</text>
<polygon fill="none" stroke="black" points="601.25,-416.5 601.25,-438.25 890,-438.25 890,-416.5 601.25,-416.5"/>
<text text-anchor="start" x="620.38" y="-421.95" font-family="Times New Roman,serif" font-size="14.00">[Bool] ExecuteEveryFrame (default = False) </text>
<polygon fill="none" stroke="black" points="601.25,-394 601.25,-416.5 890,-416.5 890,-394 601.25,-394"/>
<text text-anchor="start" x="726.5" y="-401.2" font-family="Times New Roman,serif" font-weight="bold" font-size="14.00">Inputs</text>
<polygon fill="none" stroke="black" points="601.25,-372.25 601.25,-394 890,-394 890,-372.25 601.25,-372.25"/>
<text text-anchor="start" x="655.62" y="-377.7" font-family="Times New Roman,serif" font-size="14.00">[Bool] IsDirect (default = True) </text>
<polygon fill="none" stroke="black" points="601.25,-350.5 601.25,-372.25 890,-372.25 890,-350.5 601.25,-350.5"/>
<text text-anchor="start" x="604.25" y="-355.95" font-family="Times New Roman,serif" font-size="14.00">[String] ScreenName (default = AppMenuBG_00) </text>
<polygon fill="none" stroke="black" points="600.25,-349.5 600.25,-484.25 891,-484.25 891,-349.5 600.25,-349.5"/>
</g>
<!-- 9773&#45;&gt;9782 -->
<g id="edge3" class="edge">
<title>9773&#45;&gt;9782</title>
<path fill="none" stroke="firebrick" stroke-width="2" d="M852.17,-556.14C838.36,-538.23 822.34,-517.43 806.98,-497.5"/>
<polygon fill="firebrick" stroke="firebrick" stroke-width="2" points="810.7,-496.6 801.83,-490.81 805.16,-500.87 810.7,-496.6"/>
</g>
<!-- 9785 -->
<g id="node5" class="node">
<title>9785</title>
<polygon fill="none" stroke="black" stroke-width="2" points="1152.38,-434.88 916.88,-434.88 916.88,-398.88 1152.38,-398.88 1152.38,-434.88"/>
<polygon fill="none" stroke="black" points="925.88,-405.62 925.88,-428.12 1143.38,-428.12 1143.38,-405.62 925.88,-405.62"/>
<text text-anchor="start" x="928.88" y="-412.82" font-family="Times New Roman,serif" font-weight="bold" font-size="14.00">CloseAppMenuOverlay.module (4)</text>
<polygon fill="none" stroke="black" points="924.88,-404.62 924.88,-429.12 1144.38,-429.12 1144.38,-404.62 924.88,-404.62"/>
</g>
<!-- 9773&#45;&gt;9785 -->
<g id="edge4" class="edge">
<title>9773&#45;&gt;9785</title>
<path fill="none" stroke="firebrick" stroke-width="2" d="M927.34,-556.14C955.09,-520.38 991.74,-473.15 1014.22,-444.17"/>
<polygon fill="firebrick" stroke="firebrick" stroke-width="2" points="1016.05,-447.53 1019.41,-437.48 1010.52,-443.24 1016.05,-447.53"/>
</g>
<!-- 9788 -->
<g id="node6" class="node">
<title>9788</title>
<polygon fill="none" stroke="black" stroke-width="2" points="1456.88,-520.5 1170.38,-520.5 1170.38,-313.25 1456.88,-313.25 1456.88,-520.5"/>
<polygon fill="none" stroke="black" points="1179.38,-493 1179.38,-515.5 1447.88,-515.5 1447.88,-493 1179.38,-493"/>
<text text-anchor="start" x="1242.75" y="-500.2" font-family="Times New Roman,serif" font-weight="bold" font-size="14.00">Element_Sequential (8)</text>
<polygon fill="none" stroke="black" points="1179.38,-470.5 1179.38,-493 1447.88,-493 1447.88,-470.5 1179.38,-470.5"/>
<text text-anchor="start" x="1281.75" y="-477.7" font-family="Times New Roman,serif" font-weight="bold" font-size="14.00">Properties</text>
<polygon fill="none" stroke="black" points="1179.38,-448.75 1179.38,-470.5 1447.88,-470.5 1447.88,-448.75 1179.38,-448.75"/>
<text text-anchor="start" x="1229.62" y="-454.2" font-family="Times New Roman,serif" font-size="14.00">[Int] BusyPolicy (default = 0) </text>
<polygon fill="none" stroke="black" points="1179.38,-427 1179.38,-448.75 1447.88,-448.75 1447.88,-427 1179.38,-427"/>
<text text-anchor="start" x="1232.62" y="-432.45" font-family="Times New Roman,serif" font-size="14.00">[Int] NumLoop (default = 0) </text>
<polygon fill="none" stroke="black" points="1179.38,-405.25 1179.38,-427 1447.88,-427 1447.88,-405.25 1179.38,-405.25"/>
<text text-anchor="start" x="1231.88" y="-410.7" font-family="Times New Roman,serif" font-size="14.00">[Int] PlayPolicy (default = 0) </text>
<polygon fill="none" stroke="black" points="1179.38,-383.5 1179.38,-405.25 1447.88,-405.25 1447.88,-383.5 1179.38,-383.5"/>
<text text-anchor="start" x="1226.25" y="-388.95" font-family="Times New Roman,serif" font-size="14.00">[Int] ResultPolicy (default = 0) </text>
<polygon fill="none" stroke="black" points="1179.38,-361.75 1179.38,-383.5 1447.88,-383.5 1447.88,-361.75 1179.38,-361.75"/>
<text text-anchor="start" x="1207.12" y="-367.2" font-family="Times New Roman,serif" font-size="14.00">[Bool] IsDelayJudge (default = False) </text>
<polygon fill="none" stroke="black" points="1179.38,-340 1179.38,-361.75 1447.88,-361.75 1447.88,-340 1179.38,-340"/>
<text text-anchor="start" x="1223.62" y="-345.45" font-family="Times New Roman,serif" font-size="14.00">[Bool] IsLoop (default = False) </text>
<polygon fill="none" stroke="black" points="1179.38,-318.25 1179.38,-340 1447.88,-340 1447.88,-318.25 1179.38,-318.25"/>
<text text-anchor="start" x="1182.38" y="-323.7" font-family="Times New Roman,serif" font-size="14.00">[Bool] IsUpdateNextInFrame (default = False) </text>
<polygon fill="none" stroke="black" points="1178.38,-317.25 1178.38,-516.5 1448.88,-516.5 1448.88,-317.25 1178.38,-317.25"/>
</g>
<!-- 9773&#45;&gt;9788 -->
<g id="edge5" class="edge">
<title>9773&#45;&gt;9788</title>
<path fill="none" stroke="firebrick" stroke-width="2" d="M989.19,-581.45C1039.09,-568.01 1099.98,-548.93 1160.21,-520.98"/>
<polygon fill="firebrick" stroke="firebrick" stroke-width="2" points="1159.97,-524.96 1167.52,-517.52 1156.98,-518.63 1159.97,-524.96"/>
</g>
<!-- 9824 -->
<g id="node7" class="node">
<title>9824</title>
<polygon fill="none" stroke="black" stroke-width="2" points="1790.12,-488.25 1475.12,-488.25 1475.12,-345.5 1790.12,-345.5 1790.12,-488.25"/>
<polygon fill="none" stroke="black" points="1484.12,-460.75 1484.12,-483.25 1781.12,-483.25 1781.12,-460.75 1484.12,-460.75"/>
<text text-anchor="start" x="1550.12" y="-467.95" font-family="Times New Roman,serif" font-weight="bold" font-size="14.00">SeqOneShotStartSound (2)</text>
<polygon fill="none" stroke="black" points="1484.12,-438.25 1484.12,-460.75 1781.12,-460.75 1781.12,-438.25 1484.12,-438.25"/>
<text text-anchor="start" x="1600.75" y="-445.45" font-family="Times New Roman,serif" font-weight="bold" font-size="14.00">Properties</text>
<polygon fill="none" stroke="black" points="1484.12,-416.5 1484.12,-438.25 1781.12,-438.25 1781.12,-416.5 1484.12,-416.5"/>
<text text-anchor="start" x="1507.38" y="-421.95" font-family="Times New Roman,serif" font-size="14.00">[Bool] ExecuteEveryFrame (default = False) </text>
<polygon fill="none" stroke="black" points="1484.12,-394 1484.12,-416.5 1781.12,-416.5 1781.12,-394 1484.12,-394"/>
<text text-anchor="start" x="1613.5" y="-401.2" font-family="Times New Roman,serif" font-weight="bold" font-size="14.00">Inputs</text>
<polygon fill="none" stroke="black" points="1484.12,-372.25 1484.12,-394 1781.12,-394 1781.12,-372.25 1484.12,-372.25"/>
<text text-anchor="start" x="1487.12" y="-377.7" font-family="Times New Roman,serif" font-size="14.00">[String] ScreenName (default = PauseMenuBG_00) </text>
<polygon fill="none" stroke="black" points="1484.12,-350.5 1484.12,-372.25 1781.12,-372.25 1781.12,-350.5 1484.12,-350.5"/>
<text text-anchor="start" x="1491.62" y="-355.95" font-family="Times New Roman,serif" font-size="14.00">[String] SLinkKey (default = mc_PlusMenuOpen) </text>
<polygon fill="none" stroke="black" points="1483.12,-349.5 1483.12,-484.25 1782.12,-484.25 1782.12,-349.5 1483.12,-349.5"/>
</g>
<!-- 9773&#45;&gt;9824 -->
<g id="edge6" class="edge">
<title>9773&#45;&gt;9824</title>
<path fill="none" stroke="firebrick" stroke-width="2" d="M989.4,-602.31C1106.66,-596.71 1305.55,-578.59 1465.62,-520.5 1484.74,-513.56 1504.03,-504.27 1522.38,-494.1"/>
<polygon fill="firebrick" stroke="firebrick" stroke-width="2" points="1522.57,-498.02 1529.54,-490.04 1519.11,-491.93 1522.57,-498.02"/>
</g>
<!-- 9791 -->
<g id="node8" class="node">
<title>9791</title>
<polygon fill="none" stroke="black" stroke-width="2" points="915,-277.25 716.25,-277.25 716.25,-178.75 915,-178.75 915,-277.25"/>
<polygon fill="none" stroke="black" points="725.25,-249.75 725.25,-272.25 906,-272.25 906,-249.75 725.25,-249.75"/>
<text text-anchor="start" x="732" y="-256.95" font-family="Times New Roman,serif" font-weight="bold" font-size="14.00">Element_Simultaneous (11)</text>
<polygon fill="none" stroke="black" points="725.25,-227.25 725.25,-249.75 906,-249.75 906,-227.25 725.25,-227.25"/>
<text text-anchor="start" x="783.75" y="-234.45" font-family="Times New Roman,serif" font-weight="bold" font-size="14.00">Properties</text>
<polygon fill="none" stroke="black" points="725.25,-205.5 725.25,-227.25 906,-227.25 906,-205.5 725.25,-205.5"/>
<text text-anchor="start" x="734.62" y="-210.95" font-family="Times New Roman,serif" font-size="14.00">[Int] EndPolicy (default = 0) </text>
<polygon fill="none" stroke="black" points="725.25,-183.75 725.25,-205.5 906,-205.5 906,-183.75 725.25,-183.75"/>
<text text-anchor="start" x="728.25" y="-189.2" font-family="Times New Roman,serif" font-size="14.00">[Int] ResultPolicy (default = 0) </text>
<polygon fill="none" stroke="black" points="724.25,-182.75 724.25,-273.25 907,-273.25 907,-182.75 724.25,-182.75"/>
</g>
<!-- 9788&#45;&gt;9791 -->
<g id="edge7" class="edge">
<title>9788&#45;&gt;9791</title>
<path fill="none" stroke="firebrick" stroke-width="2" d="M1169.93,-317.07C1167.16,-315.75 1164.39,-314.47 1161.62,-313.25 1086.35,-279.96 995.8,-258.51 926.21,-245.59"/>
<polygon fill="firebrick" stroke="firebrick" stroke-width="2" points="928.67,-242.48 918.21,-244.13 927.42,-249.37 928.67,-242.48"/>
</g>
<!-- 9806 -->
<g id="node9" class="node">
<title>9806</title>
<polygon fill="none" stroke="black" stroke-width="2" points="1431,-266.38 1196.25,-266.38 1196.25,-189.62 1431,-189.62 1431,-266.38"/>
<polygon fill="none" stroke="black" points="1205.25,-238.88 1205.25,-261.38 1422,-261.38 1422,-238.88 1205.25,-238.88"/>
<text text-anchor="start" x="1208.25" y="-246.07" font-family="Times New Roman,serif" font-weight="bold" font-size="14.00">SeqExecuteGenericWaitFrame (7)</text>
<polygon fill="none" stroke="black" points="1205.25,-216.38 1205.25,-238.88 1422,-238.88 1422,-216.38 1205.25,-216.38"/>
<text text-anchor="start" x="1281.75" y="-223.57" font-family="Times New Roman,serif" font-weight="bold" font-size="14.00">Properties</text>
<polygon fill="none" stroke="black" points="1205.25,-194.62 1205.25,-216.38 1422,-216.38 1422,-194.62 1205.25,-194.62"/>
<text text-anchor="start" x="1243.88" y="-200.07" font-family="Times New Roman,serif" font-size="14.00">[Int] Frame (default = 1) </text>
<polygon fill="none" stroke="black" points="1204.25,-193.62 1204.25,-262.38 1423,-262.38 1423,-193.62 1204.25,-193.62"/>
</g>
<!-- 9788&#45;&gt;9806 -->
<g id="edge8" class="edge">
<title>9788&#45;&gt;9806</title>
<path fill="none" stroke="firebrick" stroke-width="2" d="M1313.62,-312.87C1313.62,-300.69 1313.62,-288.73 1313.62,-277.83"/>
<polygon fill="firebrick" stroke="firebrick" stroke-width="2" points="1317.13,-279.48 1313.63,-269.48 1310.13,-279.48 1317.13,-279.48"/>
</g>
<!-- 9809 -->
<g id="node10" class="node">
<title>9809</title>
<polygon fill="none" stroke="black" stroke-width="2" points="1911,-277.25 1712.25,-277.25 1712.25,-178.75 1911,-178.75 1911,-277.25"/>
<polygon fill="none" stroke="black" points="1721.25,-249.75 1721.25,-272.25 1902,-272.25 1902,-249.75 1721.25,-249.75"/>
<text text-anchor="start" x="1728" y="-256.95" font-family="Times New Roman,serif" font-weight="bold" font-size="14.00">Element_Simultaneous (12)</text>
<polygon fill="none" stroke="black" points="1721.25,-227.25 1721.25,-249.75 1902,-249.75 1902,-227.25 1721.25,-227.25"/>
<text text-anchor="start" x="1779.75" y="-234.45" font-family="Times New Roman,serif" font-weight="bold" font-size="14.00">Properties</text>
<polygon fill="none" stroke="black" points="1721.25,-205.5 1721.25,-227.25 1902,-227.25 1902,-205.5 1721.25,-205.5"/>
<text text-anchor="start" x="1730.62" y="-210.95" font-family="Times New Roman,serif" font-size="14.00">[Int] EndPolicy (default = 0) </text>
<polygon fill="none" stroke="black" points="1721.25,-183.75 1721.25,-205.5 1902,-205.5 1902,-183.75 1721.25,-183.75"/>
<text text-anchor="start" x="1724.25" y="-189.2" font-family="Times New Roman,serif" font-size="14.00">[Int] ResultPolicy (default = 0) </text>
<polygon fill="none" stroke="black" points="1720.25,-182.75 1720.25,-273.25 1903,-273.25 1903,-182.75 1720.25,-182.75"/>
</g>
<!-- 9788&#45;&gt;9809 -->
<g id="edge9" class="edge">
<title>9788&#45;&gt;9809</title>
<path fill="none" stroke="firebrick" stroke-width="2" d="M1457.32,-317.07C1460.09,-315.75 1462.86,-314.47 1465.62,-313.25 1540.9,-279.96 1631.45,-258.51 1701.04,-245.59"/>
<polygon fill="firebrick" stroke="firebrick" stroke-width="2" points="1699.83,-249.37 1709.04,-244.13 1698.58,-242.48 1699.83,-249.37"/>
</g>
<!-- 9794 -->
<g id="node11" class="node">
<title>9794</title>
<polygon fill="none" stroke="black" stroke-width="2" points="333.38,-142.75 7.88,-142.75 7.88,0 333.38,0 333.38,-142.75"/>
<polygon fill="none" stroke="black" points="16.88,-115.25 16.88,-137.75 324.38,-137.75 324.38,-115.25 16.88,-115.25"/>
<text text-anchor="start" x="84.38" y="-122.45" font-family="Times New Roman,serif" font-weight="bold" font-size="14.00">SeqOneShotCloseScreen (5)</text>
<polygon fill="none" stroke="black" points="16.88,-92.75 16.88,-115.25 324.38,-115.25 324.38,-92.75 16.88,-92.75"/>
<text text-anchor="start" x="138.75" y="-99.95" font-family="Times New Roman,serif" font-weight="bold" font-size="14.00">Properties</text>
<polygon fill="none" stroke="black" points="16.88,-71 16.88,-92.75 324.38,-92.75 324.38,-71 16.88,-71"/>
<text text-anchor="start" x="45.38" y="-76.45" font-family="Times New Roman,serif" font-size="14.00">[Bool] ExecuteEveryFrame (default = False) </text>
<polygon fill="none" stroke="black" points="16.88,-48.5 16.88,-71 324.38,-71 324.38,-48.5 16.88,-48.5"/>
<text text-anchor="start" x="151.5" y="-55.7" font-family="Times New Roman,serif" font-weight="bold" font-size="14.00">Inputs</text>
<polygon fill="none" stroke="black" points="16.88,-26.75 16.88,-48.5 324.38,-48.5 324.38,-26.75 16.88,-26.75"/>
<text text-anchor="start" x="80.62" y="-32.2" font-family="Times New Roman,serif" font-size="14.00">[Bool] IsDirect (default = True) </text>
<polygon fill="none" stroke="black" points="16.88,-5 16.88,-26.75 324.38,-26.75 324.38,-5 16.88,-5"/>
<text text-anchor="start" x="19.88" y="-10.45" font-family="Times New Roman,serif" font-size="14.00">[String] ScreenName (default = AppPictureBook_00) </text>
<polygon fill="none" stroke="black" points="15.88,-4 15.88,-138.75 325.38,-138.75 325.38,-4 15.88,-4"/>
</g>
<!-- 9791&#45;&gt;9794 -->
<g id="edge10" class="edge">
<title>9791&#45;&gt;9794</title>
<path fill="none" stroke="firebrick" stroke-width="2" d="M716.17,-215.63C621.82,-203.42 476.34,-180.88 344.41,-143.46"/>
<polygon fill="firebrick" stroke="firebrick" stroke-width="2" points="347.21,-140.62 336.63,-141.22 345.28,-147.35 347.21,-140.62"/>
</g>
<!-- 9797 -->
<g id="node12" class="node">
<title>9797</title>
<polygon fill="none" stroke="black" stroke-width="2" points="644.25,-142.75 351,-142.75 351,0 644.25,0 644.25,-142.75"/>
<polygon fill="none" stroke="black" points="360,-115.25 360,-137.75 635.25,-137.75 635.25,-115.25 360,-115.25"/>
<text text-anchor="start" x="411.38" y="-122.45" font-family="Times New Roman,serif" font-weight="bold" font-size="14.00">SeqOneShotCloseScreen (9)</text>
<polygon fill="none" stroke="black" points="360,-92.75 360,-115.25 635.25,-115.25 635.25,-92.75 360,-92.75"/>
<text text-anchor="start" x="465.75" y="-99.95" font-family="Times New Roman,serif" font-weight="bold" font-size="14.00">Properties</text>
<polygon fill="none" stroke="black" points="360,-71 360,-92.75 635.25,-92.75 635.25,-71 360,-71"/>
<text text-anchor="start" x="372.38" y="-76.45" font-family="Times New Roman,serif" font-size="14.00">[Bool] ExecuteEveryFrame (default = False) </text>
<polygon fill="none" stroke="black" points="360,-48.5 360,-71 635.25,-71 635.25,-48.5 360,-48.5"/>
<text text-anchor="start" x="478.5" y="-55.7" font-family="Times New Roman,serif" font-weight="bold" font-size="14.00">Inputs</text>
<polygon fill="none" stroke="black" points="360,-26.75 360,-48.5 635.25,-48.5 635.25,-26.75 360,-26.75"/>
<text text-anchor="start" x="407.62" y="-32.2" font-family="Times New Roman,serif" font-size="14.00">[Bool] IsDirect (default = True) </text>
<polygon fill="none" stroke="black" points="360,-5 360,-26.75 635.25,-26.75 635.25,-5 360,-5"/>
<text text-anchor="start" x="363" y="-10.45" font-family="Times New Roman,serif" font-size="14.00">[String] ScreenName (default = AppAlbum_00) </text>
<polygon fill="none" stroke="black" points="359,-4 359,-138.75 636.25,-138.75 636.25,-4 359,-4"/>
</g>
<!-- 9791&#45;&gt;9797 -->
<g id="edge11" class="edge">
<title>9791&#45;&gt;9797</title>
<path fill="none" stroke="firebrick" stroke-width="2" d="M715.88,-178.5C695.99,-168.83 674.65,-158.45 653.4,-148.12"/>
<polygon fill="firebrick" stroke="firebrick" stroke-width="2" points="656.55,-145.76 646.03,-144.54 653.49,-152.06 656.55,-145.76"/>
</g>
<!-- 9800 -->
<g id="node13" class="node">
<title>9800</title>
<polygon fill="none" stroke="black" stroke-width="2" points="969.38,-142.75 661.88,-142.75 661.88,0 969.38,0 969.38,-142.75"/>
<polygon fill="none" stroke="black" points="670.88,-115.25 670.88,-137.75 960.38,-137.75 960.38,-115.25 670.88,-115.25"/>
<text text-anchor="start" x="725.62" y="-122.45" font-family="Times New Roman,serif" font-weight="bold" font-size="14.00">SeqOneShotCloseScreen (13)</text>
<polygon fill="none" stroke="black" points="670.88,-92.75 670.88,-115.25 960.38,-115.25 960.38,-92.75 670.88,-92.75"/>
<text text-anchor="start" x="783.75" y="-99.95" font-family="Times New Roman,serif" font-weight="bold" font-size="14.00">Properties</text>
<polygon fill="none" stroke="black" points="670.88,-71 670.88,-92.75 960.38,-92.75 960.38,-71 670.88,-71"/>
<text text-anchor="start" x="690.38" y="-76.45" font-family="Times New Roman,serif" font-size="14.00">[Bool] ExecuteEveryFrame (default = False) </text>
<polygon fill="none" stroke="black" points="670.88,-48.5 670.88,-71 960.38,-71 960.38,-48.5 670.88,-48.5"/>
<text text-anchor="start" x="796.5" y="-55.7" font-family="Times New Roman,serif" font-weight="bold" font-size="14.00">Inputs</text>
<polygon fill="none" stroke="black" points="670.88,-26.75 670.88,-48.5 960.38,-48.5 960.38,-26.75 670.88,-26.75"/>
<text text-anchor="start" x="725.62" y="-32.2" font-family="Times New Roman,serif" font-size="14.00">[Bool] IsDirect (default = True) </text>
<polygon fill="none" stroke="black" points="670.88,-5 670.88,-26.75 960.38,-26.75 960.38,-5 670.88,-5"/>
<text text-anchor="start" x="673.88" y="-10.45" font-family="Times New Roman,serif" font-size="14.00">[String] ScreenName (default = ChallengeLog_00) </text>
<polygon fill="none" stroke="black" points="669.88,-4 669.88,-138.75 961.38,-138.75 961.38,-4 669.88,-4"/>
</g>
<!-- 9791&#45;&gt;9800 -->
<g id="edge12" class="edge">
<title>9791&#45;&gt;9800</title>
<path fill="none" stroke="firebrick" stroke-width="2" d="M815.62,-178.5C815.62,-170.77 815.62,-162.59 815.62,-154.33"/>
<polygon fill="firebrick" stroke="firebrick" stroke-width="2" points="819.13,-156.1 815.63,-146.1 812.13,-156.1 819.13,-156.1"/>
</g>
<!-- 9803 -->
<g id="node14" class="node">
<title>9803</title>
<polygon fill="none" stroke="black" stroke-width="2" points="1303.88,-142.75 987.38,-142.75 987.38,0 1303.88,0 1303.88,-142.75"/>
<polygon fill="none" stroke="black" points="996.38,-115.25 996.38,-137.75 1294.88,-137.75 1294.88,-115.25 996.38,-115.25"/>
<text text-anchor="start" x="1055.62" y="-122.45" font-family="Times New Roman,serif" font-weight="bold" font-size="14.00">SeqOneShotCloseScreen (14)</text>
<polygon fill="none" stroke="black" points="996.38,-92.75 996.38,-115.25 1294.88,-115.25 1294.88,-92.75 996.38,-92.75"/>
<text text-anchor="start" x="1113.75" y="-99.95" font-family="Times New Roman,serif" font-weight="bold" font-size="14.00">Properties</text>
<polygon fill="none" stroke="black" points="996.38,-71 996.38,-92.75 1294.88,-92.75 1294.88,-71 996.38,-71"/>
<text text-anchor="start" x="1020.38" y="-76.45" font-family="Times New Roman,serif" font-size="14.00">[Bool] ExecuteEveryFrame (default = False) </text>
<polygon fill="none" stroke="black" points="996.38,-48.5 996.38,-71 1294.88,-71 1294.88,-48.5 996.38,-48.5"/>
<text text-anchor="start" x="1126.5" y="-55.7" font-family="Times New Roman,serif" font-weight="bold" font-size="14.00">Inputs</text>
<polygon fill="none" stroke="black" points="996.38,-26.75 996.38,-48.5 1294.88,-48.5 1294.88,-26.75 996.38,-26.75"/>
<text text-anchor="start" x="1055.62" y="-32.2" font-family="Times New Roman,serif" font-size="14.00">[Bool] IsDirect (default = True) </text>
<polygon fill="none" stroke="black" points="996.38,-5 996.38,-26.75 1294.88,-26.75 1294.88,-5 996.38,-5"/>
<text text-anchor="start" x="999.38" y="-10.45" font-family="Times New Roman,serif" font-size="14.00">[String] ScreenName (default = CharaDirectory_00) </text>
<polygon fill="none" stroke="black" points="995.38,-4 995.38,-138.75 1295.88,-138.75 1295.88,-4 995.38,-4"/>
</g>
<!-- 9791&#45;&gt;9803 -->
<g id="edge13" class="edge">
<title>9791&#45;&gt;9803</title>
<path fill="none" stroke="firebrick" stroke-width="2" d="M915.08,-180.4C937,-170.13 960.76,-158.99 984.42,-147.91"/>
<polygon fill="firebrick" stroke="firebrick" stroke-width="2" points="984.24,-151.86 991.81,-144.45 981.27,-145.52 984.24,-151.86"/>
</g>
<!-- 9812 -->
<g id="node15" class="node">
<title>9812</title>
<polygon fill="none" stroke="black" stroke-width="2" points="1647.38,-142.75 1321.88,-142.75 1321.88,0 1647.38,0 1647.38,-142.75"/>
<polygon fill="none" stroke="black" points="1330.88,-115.25 1330.88,-137.75 1638.38,-137.75 1638.38,-115.25 1330.88,-115.25"/>
<text text-anchor="start" x="1393.88" y="-122.45" font-family="Times New Roman,serif" font-weight="bold" font-size="14.00">SeqOneShotUnloadScreen (6)</text>
<polygon fill="none" stroke="black" points="1330.88,-92.75 1330.88,-115.25 1638.38,-115.25 1638.38,-92.75 1330.88,-92.75"/>
<text text-anchor="start" x="1452.75" y="-99.95" font-family="Times New Roman,serif" font-weight="bold" font-size="14.00">Properties</text>
<polygon fill="none" stroke="black" points="1330.88,-71 1330.88,-92.75 1638.38,-92.75 1638.38,-71 1330.88,-71"/>
<text text-anchor="start" x="1359.38" y="-76.45" font-family="Times New Roman,serif" font-size="14.00">[Bool] ExecuteEveryFrame (default = False) </text>
<polygon fill="none" stroke="black" points="1330.88,-48.5 1330.88,-71 1638.38,-71 1638.38,-48.5 1330.88,-48.5"/>
<text text-anchor="start" x="1465.5" y="-55.7" font-family="Times New Roman,serif" font-weight="bold" font-size="14.00">Inputs</text>
<polygon fill="none" stroke="black" points="1330.88,-26.75 1330.88,-48.5 1638.38,-48.5 1638.38,-26.75 1330.88,-26.75"/>
<text text-anchor="start" x="1366.88" y="-32.2" font-family="Times New Roman,serif" font-size="14.00">[Bool] IsUnloadRequest (default = False) </text>
<polygon fill="none" stroke="black" points="1330.88,-5 1330.88,-26.75 1638.38,-26.75 1638.38,-5 1330.88,-5"/>
<text text-anchor="start" x="1333.88" y="-10.45" font-family="Times New Roman,serif" font-size="14.00">[String] ScreenName (default = AppPictureBook_00) </text>
<polygon fill="none" stroke="black" points="1329.88,-4 1329.88,-138.75 1639.38,-138.75 1639.38,-4 1329.88,-4"/>
</g>
<!-- 9809&#45;&gt;9812 -->
<g id="edge14" class="edge">
<title>9809&#45;&gt;9812</title>
<path fill="none" stroke="firebrick" stroke-width="2" d="M1712.18,-179.98C1690.74,-169.84 1667.55,-158.87 1644.46,-147.96"/>
<polygon fill="firebrick" stroke="firebrick" stroke-width="2" points="1647.5,-145.52 1636.96,-144.41 1644.5,-151.85 1647.5,-145.52"/>
</g>
<!-- 9815 -->
<g id="node16" class="node">
<title>9815</title>
<polygon fill="none" stroke="black" stroke-width="2" points="1958.25,-142.75 1665,-142.75 1665,0 1958.25,0 1958.25,-142.75"/>
<polygon fill="none" stroke="black" points="1674,-115.25 1674,-137.75 1949.25,-137.75 1949.25,-115.25 1674,-115.25"/>
<text text-anchor="start" x="1717.12" y="-122.45" font-family="Times New Roman,serif" font-weight="bold" font-size="14.00">SeqOneShotUnloadScreen (10)</text>
<polygon fill="none" stroke="black" points="1674,-92.75 1674,-115.25 1949.25,-115.25 1949.25,-92.75 1674,-92.75"/>
<text text-anchor="start" x="1779.75" y="-99.95" font-family="Times New Roman,serif" font-weight="bold" font-size="14.00">Properties</text>
<polygon fill="none" stroke="black" points="1674,-71 1674,-92.75 1949.25,-92.75 1949.25,-71 1674,-71"/>
<text text-anchor="start" x="1686.38" y="-76.45" font-family="Times New Roman,serif" font-size="14.00">[Bool] ExecuteEveryFrame (default = False) </text>
<polygon fill="none" stroke="black" points="1674,-48.5 1674,-71 1949.25,-71 1949.25,-48.5 1674,-48.5"/>
<text text-anchor="start" x="1792.5" y="-55.7" font-family="Times New Roman,serif" font-weight="bold" font-size="14.00">Inputs</text>
<polygon fill="none" stroke="black" points="1674,-26.75 1674,-48.5 1949.25,-48.5 1949.25,-26.75 1674,-26.75"/>
<text text-anchor="start" x="1693.88" y="-32.2" font-family="Times New Roman,serif" font-size="14.00">[Bool] IsUnloadRequest (default = False) </text>
<polygon fill="none" stroke="black" points="1674,-5 1674,-26.75 1949.25,-26.75 1949.25,-5 1674,-5"/>
<text text-anchor="start" x="1677" y="-10.45" font-family="Times New Roman,serif" font-size="14.00">[String] ScreenName (default = AppAlbum_00) </text>
<polygon fill="none" stroke="black" points="1673,-4 1673,-138.75 1950.25,-138.75 1950.25,-4 1673,-4"/>
</g>
<!-- 9809&#45;&gt;9815 -->
<g id="edge15" class="edge">
<title>9809&#45;&gt;9815</title>
<path fill="none" stroke="firebrick" stroke-width="2" d="M1811.62,-178.5C1811.62,-170.77 1811.62,-162.59 1811.62,-154.33"/>
<polygon fill="firebrick" stroke="firebrick" stroke-width="2" points="1815.13,-156.1 1811.63,-146.1 1808.13,-156.1 1815.13,-156.1"/>
</g>
<!-- 9818 -->
<g id="node17" class="node">
<title>9818</title>
<polygon fill="none" stroke="black" stroke-width="2" points="2283.38,-142.75 1975.88,-142.75 1975.88,0 2283.38,0 2283.38,-142.75"/>
<polygon fill="none" stroke="black" points="1984.88,-115.25 1984.88,-137.75 2274.38,-137.75 2274.38,-115.25 1984.88,-115.25"/>
<text text-anchor="start" x="2035.12" y="-122.45" font-family="Times New Roman,serif" font-weight="bold" font-size="14.00">SeqOneShotUnloadScreen (15)</text>
<polygon fill="none" stroke="black" points="1984.88,-92.75 1984.88,-115.25 2274.38,-115.25 2274.38,-92.75 1984.88,-92.75"/>
<text text-anchor="start" x="2097.75" y="-99.95" font-family="Times New Roman,serif" font-weight="bold" font-size="14.00">Properties</text>
<polygon fill="none" stroke="black" points="1984.88,-71 1984.88,-92.75 2274.38,-92.75 2274.38,-71 1984.88,-71"/>
<text text-anchor="start" x="2004.38" y="-76.45" font-family="Times New Roman,serif" font-size="14.00">[Bool] ExecuteEveryFrame (default = False) </text>
<polygon fill="none" stroke="black" points="1984.88,-48.5 1984.88,-71 2274.38,-71 2274.38,-48.5 1984.88,-48.5"/>
<text text-anchor="start" x="2110.5" y="-55.7" font-family="Times New Roman,serif" font-weight="bold" font-size="14.00">Inputs</text>
<polygon fill="none" stroke="black" points="1984.88,-26.75 1984.88,-48.5 2274.38,-48.5 2274.38,-26.75 1984.88,-26.75"/>
<text text-anchor="start" x="2011.88" y="-32.2" font-family="Times New Roman,serif" font-size="14.00">[Bool] IsUnloadRequest (default = False) </text>
<polygon fill="none" stroke="black" points="1984.88,-5 1984.88,-26.75 2274.38,-26.75 2274.38,-5 1984.88,-5"/>
<text text-anchor="start" x="1987.88" y="-10.45" font-family="Times New Roman,serif" font-size="14.00">[String] ScreenName (default = ChallengeLog_00) </text>
<polygon fill="none" stroke="black" points="1983.88,-4 1983.88,-138.75 2275.38,-138.75 2275.38,-4 1983.88,-4"/>
</g>
<!-- 9809&#45;&gt;9818 -->
<g id="edge16" class="edge">
<title>9809&#45;&gt;9818</title>
<path fill="none" stroke="firebrick" stroke-width="2" d="M1911.37,-178.5C1931.26,-168.83 1952.6,-158.45 1973.85,-148.12"/>
<polygon fill="firebrick" stroke="firebrick" stroke-width="2" points="1973.76,-152.06 1981.22,-144.54 1970.7,-145.76 1973.76,-152.06"/>
</g>
<!-- 9821 -->
<g id="node18" class="node">
<title>9821</title>
<polygon fill="none" stroke="black" stroke-width="2" points="2617.88,-142.75 2301.38,-142.75 2301.38,0 2617.88,0 2617.88,-142.75"/>
<polygon fill="none" stroke="black" points="2310.38,-115.25 2310.38,-137.75 2608.88,-137.75 2608.88,-115.25 2310.38,-115.25"/>
<text text-anchor="start" x="2365.12" y="-122.45" font-family="Times New Roman,serif" font-weight="bold" font-size="14.00">SeqOneShotUnloadScreen (16)</text>
<polygon fill="none" stroke="black" points="2310.38,-92.75 2310.38,-115.25 2608.88,-115.25 2608.88,-92.75 2310.38,-92.75"/>
<text text-anchor="start" x="2427.75" y="-99.95" font-family="Times New Roman,serif" font-weight="bold" font-size="14.00">Properties</text>
<polygon fill="none" stroke="black" points="2310.38,-71 2310.38,-92.75 2608.88,-92.75 2608.88,-71 2310.38,-71"/>
<text text-anchor="start" x="2334.38" y="-76.45" font-family="Times New Roman,serif" font-size="14.00">[Bool] ExecuteEveryFrame (default = False) </text>
<polygon fill="none" stroke="black" points="2310.38,-48.5 2310.38,-71 2608.88,-71 2608.88,-48.5 2310.38,-48.5"/>
<text text-anchor="start" x="2440.5" y="-55.7" font-family="Times New Roman,serif" font-weight="bold" font-size="14.00">Inputs</text>
<polygon fill="none" stroke="black" points="2310.38,-26.75 2310.38,-48.5 2608.88,-48.5 2608.88,-26.75 2310.38,-26.75"/>
<text text-anchor="start" x="2341.88" y="-32.2" font-family="Times New Roman,serif" font-size="14.00">[Bool] IsUnloadRequest (default = False) </text>
<polygon fill="none" stroke="black" points="2310.38,-5 2310.38,-26.75 2608.88,-26.75 2608.88,-5 2310.38,-5"/>
<text text-anchor="start" x="2313.38" y="-10.45" font-family="Times New Roman,serif" font-size="14.00">[String] ScreenName (default = CharaDirectory_00) </text>
<polygon fill="none" stroke="black" points="2309.38,-4 2309.38,-138.75 2609.88,-138.75 2609.88,-4 2309.38,-4"/>
</g>
<!-- 9809&#45;&gt;9821 -->
<g id="edge17" class="edge">
<title>9809&#45;&gt;9821</title>
<path fill="none" stroke="firebrick" stroke-width="2" d="M1911.23,-216.21C2006.97,-204.33 2155.43,-181.95 2290.34,-143.3"/>
<polygon fill="firebrick" stroke="firebrick" stroke-width="2" points="2289.74,-147.12 2298.37,-140.96 2287.79,-140.39 2289.74,-147.12"/>
</g>
<!-- 9848 -->
<g id="node19" class="node">
<title>9848</title>
<ellipse fill="mediumpurple" stroke="mediumpurple" cx="889.62" cy="-709" rx="31.39" ry="18"/>
<text text-anchor="start" x="874.62" y="-704.95" font-family="Times New Roman,serif" font-weight="bold" font-size="14.00" fill="white">Root</text>
</g>
<!-- 9848&#45;&gt;9773 -->
<g id="edge18" class="edge">
<title>9848&#45;&gt;9773</title>
<path fill="none" stroke="black" d="M889.62,-690.82C889.62,-683.92 889.62,-675.52 889.62,-666.72"/>
<polygon fill="black" stroke="black" points="893.13,-666.97 889.63,-656.97 886.13,-666.97 893.13,-666.97"/>
</g>
</g>
</svg>
