<?xml version="1.0" encoding="UTF-8" standalone="no"?>
<!DOCTYPE svg PUBLIC "-//W3C//DTD SVG 1.1//EN"
 "http://www.w3.org/Graphics/SVG/1.1/DTD/svg11.dtd">
<!-- Generated by graphviz version 9.0.0 (20230911.1827)
 -->
<!-- Title: OnResetGameData.module Pages: 1 -->
<svg width="2026pt" height="379pt"
 viewBox="0.00 0.00 2025.50 379.00" xmlns="http://www.w3.org/2000/svg" xmlns:xlink="http://www.w3.org/1999/xlink">
<g id="graph0" class="graph" transform="scale(1 1) rotate(0) translate(4 375)">
<title>OnResetGameData.module</title>
<polygon fill="lightgray" stroke="none" points="-4,4 -4,-375 2021.5,-375 2021.5,4 -4,4"/>
<!-- 10645 -->
<g id="node1" class="node">
<title>10645</title>
<polygon fill="none" stroke="black" stroke-width="2" points="1146.75,-299 948,-299 948,-200.5 1146.75,-200.5 1146.75,-299"/>
<polygon fill="none" stroke="black" points="957,-271.5 957,-294 1137.75,-294 1137.75,-271.5 957,-271.5"/>
<text text-anchor="start" x="967.5" y="-278.7" font-family="Times New Roman,serif" font-weight="bold" font-size="14.00">Element_Simultaneous (0)</text>
<polygon fill="none" stroke="black" points="957,-249 957,-271.5 1137.75,-271.5 1137.75,-249 957,-249"/>
<text text-anchor="start" x="1015.5" y="-256.2" font-family="Times New Roman,serif" font-weight="bold" font-size="14.00">Properties</text>
<polygon fill="none" stroke="black" points="957,-227.25 957,-249 1137.75,-249 1137.75,-227.25 957,-227.25"/>
<text text-anchor="start" x="966.38" y="-232.7" font-family="Times New Roman,serif" font-size="14.00">[Int] EndPolicy (default = 0) </text>
<polygon fill="none" stroke="black" points="957,-205.5 957,-227.25 1137.75,-227.25 1137.75,-205.5 957,-205.5"/>
<text text-anchor="start" x="960" y="-210.95" font-family="Times New Roman,serif" font-size="14.00">[Int] ResultPolicy (default = 0) </text>
<polygon fill="none" stroke="black" points="956,-204.5 956,-295 1138.75,-295 1138.75,-204.5 956,-204.5"/>
</g>
<!-- 10648 -->
<g id="node2" class="node">
<title>10648</title>
<polygon fill="none" stroke="black" stroke-width="2" points="474.75,-164.5 0,-164.5 0,0 474.75,0 474.75,-164.5"/>
<polygon fill="none" stroke="black" points="9,-137 9,-159.5 465.75,-159.5 465.75,-137 9,-137"/>
<text text-anchor="start" x="100.5" y="-144.2" font-family="Times New Roman,serif" font-weight="bold" font-size="14.00">SeqOneShotSetNonStructGameDataBool (1)</text>
<polygon fill="none" stroke="black" points="9,-114.5 9,-137 465.75,-137 465.75,-114.5 9,-114.5"/>
<text text-anchor="start" x="205.5" y="-121.7" font-family="Times New Roman,serif" font-weight="bold" font-size="14.00">Properties</text>
<polygon fill="none" stroke="black" points="9,-92.75 9,-114.5 465.75,-114.5 465.75,-92.75 9,-92.75"/>
<text text-anchor="start" x="112.12" y="-98.2" font-family="Times New Roman,serif" font-size="14.00">[Bool] ExecuteEveryFrame (default = False) </text>
<polygon fill="none" stroke="black" points="9,-70.25 9,-92.75 465.75,-92.75 465.75,-70.25 9,-70.25"/>
<text text-anchor="start" x="218.25" y="-77.45" font-family="Times New Roman,serif" font-weight="bold" font-size="14.00">Inputs</text>
<polygon fill="none" stroke="black" points="9,-48.5 9,-70.25 465.75,-70.25 465.75,-48.5 9,-48.5"/>
<text text-anchor="start" x="138" y="-53.95" font-family="Times New Roman,serif" font-size="14.00">[Int] GameDataIndex (default = &#45;1) </text>
<polygon fill="none" stroke="black" points="9,-26.75 9,-48.5 465.75,-48.5 465.75,-26.75 9,-26.75"/>
<text text-anchor="start" x="153.75" y="-32.2" font-family="Times New Roman,serif" font-size="14.00">[Bool] Value (default = True) </text>
<polygon fill="none" stroke="black" points="9,-5 9,-26.75 465.75,-26.75 465.75,-5 9,-5"/>
<text text-anchor="start" x="12" y="-10.45" font-family="Times New Roman,serif" font-size="14.00">[String] GameDataFullName (default = Sequence_IsAlreadyResetForLoadSave) </text>
<polygon fill="none" stroke="black" points="8,-4 8,-160.5 466.75,-160.5 466.75,-4 8,-4"/>
</g>
<!-- 10645&#45;&gt;10648 -->
<g id="edge1" class="edge">
<title>10645&#45;&gt;10648</title>
<path fill="none" stroke="firebrick" stroke-width="2" d="M947.57,-239.05C836.52,-227.09 651.88,-203.7 486.03,-165.07"/>
<polygon fill="firebrick" stroke="firebrick" stroke-width="2" points="488.62,-162.08 478.08,-163.19 487.01,-168.89 488.62,-162.08"/>
</g>
<!-- 10651 -->
<g id="node3" class="node">
<title>10651</title>
<polygon fill="none" stroke="black" stroke-width="2" points="876,-164.5 492.75,-164.5 492.75,0 876,0 876,-164.5"/>
<polygon fill="none" stroke="black" points="501.75,-137 501.75,-159.5 867,-159.5 867,-137 501.75,-137"/>
<text text-anchor="start" x="547.5" y="-144.2" font-family="Times New Roman,serif" font-weight="bold" font-size="14.00">SeqOneShotSetNonStructGameDataBool (2)</text>
<polygon fill="none" stroke="black" points="501.75,-114.5 501.75,-137 867,-137 867,-114.5 501.75,-114.5"/>
<text text-anchor="start" x="652.5" y="-121.7" font-family="Times New Roman,serif" font-weight="bold" font-size="14.00">Properties</text>
<polygon fill="none" stroke="black" points="501.75,-92.75 501.75,-114.5 867,-114.5 867,-92.75 501.75,-92.75"/>
<text text-anchor="start" x="559.12" y="-98.2" font-family="Times New Roman,serif" font-size="14.00">[Bool] ExecuteEveryFrame (default = False) </text>
<polygon fill="none" stroke="black" points="501.75,-70.25 501.75,-92.75 867,-92.75 867,-70.25 501.75,-70.25"/>
<text text-anchor="start" x="665.25" y="-77.45" font-family="Times New Roman,serif" font-weight="bold" font-size="14.00">Inputs</text>
<polygon fill="none" stroke="black" points="501.75,-48.5 501.75,-70.25 867,-70.25 867,-48.5 501.75,-48.5"/>
<text text-anchor="start" x="585" y="-53.95" font-family="Times New Roman,serif" font-size="14.00">[Int] GameDataIndex (default = &#45;1) </text>
<polygon fill="none" stroke="black" points="501.75,-26.75 501.75,-48.5 867,-48.5 867,-26.75 501.75,-26.75"/>
<text text-anchor="start" x="600.75" y="-32.2" font-family="Times New Roman,serif" font-size="14.00">[Bool] Value (default = True) </text>
<polygon fill="none" stroke="black" points="501.75,-5 501.75,-26.75 867,-26.75 867,-5 501.75,-5"/>
<text text-anchor="start" x="504.75" y="-10.45" font-family="Times New Roman,serif" font-size="14.00">[String] GameDataFullName (default = System_IsSaveLoading) </text>
<polygon fill="none" stroke="black" points="500.75,-4 500.75,-160.5 868,-160.5 868,-4 500.75,-4"/>
</g>
<!-- 10645&#45;&gt;10651 -->
<g id="edge2" class="edge">
<title>10645&#45;&gt;10651</title>
<path fill="none" stroke="firebrick" stroke-width="2" d="M947.7,-203.31C924.63,-192.79 899.34,-181.26 873.83,-169.63"/>
<polygon fill="firebrick" stroke="firebrick" stroke-width="2" points="876.97,-167.21 866.42,-166.25 874.06,-173.58 876.97,-167.21"/>
</g>
<!-- 10654 -->
<g id="node4" class="node">
<title>10654</title>
<polygon fill="none" stroke="black" stroke-width="2" points="1201.12,-142.75 893.62,-142.75 893.62,-21.75 1201.12,-21.75 1201.12,-142.75"/>
<polygon fill="none" stroke="black" points="902.62,-115.25 902.62,-137.75 1192.12,-137.75 1192.12,-115.25 902.62,-115.25"/>
<text text-anchor="start" x="905.62" y="-122.45" font-family="Times New Roman,serif" font-weight="bold" font-size="14.00">SeqOneShotSetChallengeMgrSaveLoading (3)</text>
<polygon fill="none" stroke="black" points="902.62,-92.75 902.62,-115.25 1192.12,-115.25 1192.12,-92.75 902.62,-92.75"/>
<text text-anchor="start" x="1015.5" y="-99.95" font-family="Times New Roman,serif" font-weight="bold" font-size="14.00">Properties</text>
<polygon fill="none" stroke="black" points="902.62,-71 902.62,-92.75 1192.12,-92.75 1192.12,-71 902.62,-71"/>
<text text-anchor="start" x="922.12" y="-76.45" font-family="Times New Roman,serif" font-size="14.00">[Bool] ExecuteEveryFrame (default = False) </text>
<polygon fill="none" stroke="black" points="902.62,-48.5 902.62,-71 1192.12,-71 1192.12,-48.5 902.62,-48.5"/>
<text text-anchor="start" x="1028.25" y="-55.7" font-family="Times New Roman,serif" font-weight="bold" font-size="14.00">Inputs</text>
<polygon fill="none" stroke="black" points="902.62,-26.75 902.62,-48.5 1192.12,-48.5 1192.12,-26.75 902.62,-26.75"/>
<text text-anchor="start" x="971.62" y="-32.2" font-family="Times New Roman,serif" font-size="14.00">[Bool] set (default = True) </text>
<polygon fill="none" stroke="black" points="901.62,-25.75 901.62,-138.75 1193.12,-138.75 1193.12,-25.75 901.62,-25.75"/>
</g>
<!-- 10645&#45;&gt;10654 -->
<g id="edge3" class="edge">
<title>10645&#45;&gt;10654</title>
<path fill="none" stroke="firebrick" stroke-width="2" d="M1047.38,-200.44C1047.38,-186 1047.38,-169.87 1047.38,-154.3"/>
<polygon fill="firebrick" stroke="firebrick" stroke-width="2" points="1050.88,-156.12 1047.38,-146.12 1043.88,-156.12 1050.88,-156.12"/>
</g>
<!-- 10657 -->
<g id="node5" class="node">
<title>10657</title>
<polygon fill="none" stroke="black" stroke-width="2" points="1649.62,-142.75 1219.12,-142.75 1219.12,-21.75 1649.62,-21.75 1649.62,-142.75"/>
<polygon fill="none" stroke="black" points="1228.12,-115.25 1228.12,-137.75 1640.62,-137.75 1640.62,-115.25 1228.12,-115.25"/>
<text text-anchor="start" x="1231.12" y="-122.45" font-family="Times New Roman,serif" font-weight="bold" font-size="14.00">SeqOneShotSetLoadingTipsIsEnableUpdateHighPriorityQueue (4)</text>
<polygon fill="none" stroke="black" points="1228.12,-92.75 1228.12,-115.25 1640.62,-115.25 1640.62,-92.75 1228.12,-92.75"/>
<text text-anchor="start" x="1402.5" y="-99.95" font-family="Times New Roman,serif" font-weight="bold" font-size="14.00">Properties</text>
<polygon fill="none" stroke="black" points="1228.12,-71 1228.12,-92.75 1640.62,-92.75 1640.62,-71 1228.12,-71"/>
<text text-anchor="start" x="1309.12" y="-76.45" font-family="Times New Roman,serif" font-size="14.00">[Bool] ExecuteEveryFrame (default = False) </text>
<polygon fill="none" stroke="black" points="1228.12,-48.5 1228.12,-71 1640.62,-71 1640.62,-48.5 1228.12,-48.5"/>
<text text-anchor="start" x="1415.25" y="-55.7" font-family="Times New Roman,serif" font-weight="bold" font-size="14.00">Inputs</text>
<polygon fill="none" stroke="black" points="1228.12,-26.75 1228.12,-48.5 1640.62,-48.5 1640.62,-26.75 1228.12,-26.75"/>
<text text-anchor="start" x="1341" y="-32.2" font-family="Times New Roman,serif" font-size="14.00">[Bool] IsEnable (default = False) </text>
<polygon fill="none" stroke="black" points="1227.12,-25.75 1227.12,-138.75 1641.62,-138.75 1641.62,-25.75 1227.12,-25.75"/>
</g>
<!-- 10645&#45;&gt;10657 -->
<g id="edge4" class="edge">
<title>10645&#45;&gt;10657</title>
<path fill="none" stroke="firebrick" stroke-width="2" d="M1147.04,-206.13C1188.68,-188.32 1237.97,-167.24 1283.86,-147.62"/>
<polygon fill="firebrick" stroke="firebrick" stroke-width="2" points="1283.61,-151.53 1291.43,-144.38 1280.86,-145.09 1283.61,-151.53"/>
</g>
<!-- 10660 -->
<g id="node6" class="node">
<title>10660</title>
<polygon fill="none" stroke="black" stroke-width="2" points="2017.5,-142.75 1667.25,-142.75 1667.25,-21.75 2017.5,-21.75 2017.5,-142.75"/>
<polygon fill="none" stroke="black" points="1676.25,-115.25 1676.25,-137.75 2008.5,-137.75 2008.5,-115.25 1676.25,-115.25"/>
<text text-anchor="start" x="1679.25" y="-122.45" font-family="Times New Roman,serif" font-weight="bold" font-size="14.00">SeqOneShotSetEnableUpdateCharaDirectoryMgr (5)</text>
<polygon fill="none" stroke="black" points="1676.25,-92.75 1676.25,-115.25 2008.5,-115.25 2008.5,-92.75 1676.25,-92.75"/>
<text text-anchor="start" x="1810.5" y="-99.95" font-family="Times New Roman,serif" font-weight="bold" font-size="14.00">Properties</text>
<polygon fill="none" stroke="black" points="1676.25,-71 1676.25,-92.75 2008.5,-92.75 2008.5,-71 1676.25,-71"/>
<text text-anchor="start" x="1717.12" y="-76.45" font-family="Times New Roman,serif" font-size="14.00">[Bool] ExecuteEveryFrame (default = False) </text>
<polygon fill="none" stroke="black" points="1676.25,-48.5 1676.25,-71 2008.5,-71 2008.5,-48.5 1676.25,-48.5"/>
<text text-anchor="start" x="1823.25" y="-55.7" font-family="Times New Roman,serif" font-weight="bold" font-size="14.00">Inputs</text>
<polygon fill="none" stroke="black" points="1676.25,-26.75 1676.25,-48.5 2008.5,-48.5 2008.5,-26.75 1676.25,-26.75"/>
<text text-anchor="start" x="1749" y="-32.2" font-family="Times New Roman,serif" font-size="14.00">[Bool] IsEnable (default = False) </text>
<polygon fill="none" stroke="black" points="1675.25,-25.75 1675.25,-138.75 2009.5,-138.75 2009.5,-25.75 1675.25,-25.75"/>
</g>
<!-- 10645&#45;&gt;10660 -->
<g id="edge5" class="edge">
<title>10645&#45;&gt;10660</title>
<path fill="none" stroke="firebrick" stroke-width="2" d="M1147,-243.54C1269.4,-235.22 1482.48,-214.4 1658.38,-164.5 1675,-159.78 1692.07,-153.86 1708.79,-147.36"/>
<polygon fill="firebrick" stroke="firebrick" stroke-width="2" points="1708.34,-151.31 1716.34,-144.37 1705.76,-144.8 1708.34,-151.31"/>
</g>
<!-- 10670 -->
<g id="node7" class="node">
<title>10670</title>
<ellipse fill="mediumpurple" stroke="mediumpurple" cx="1047.38" cy="-353" rx="31.39" ry="18"/>
<text text-anchor="start" x="1032.38" y="-348.95" font-family="Times New Roman,serif" font-weight="bold" font-size="14.00" fill="white">Root</text>
</g>
<!-- 10670&#45;&gt;10645 -->
<g id="edge6" class="edge">
<title>10670&#45;&gt;10645</title>
<path fill="none" stroke="black" d="M1047.38,-334.82C1047.38,-327.92 1047.38,-319.52 1047.38,-310.72"/>
<polygon fill="black" stroke="black" points="1050.88,-310.97 1047.38,-300.97 1043.88,-310.97 1050.88,-310.97"/>
</g>
</g>
</svg>
