<?xml version="1.0" encoding="UTF-8" standalone="no"?>
<!DOCTYPE svg PUBLIC "-//W3C//DTD SVG 1.1//EN"
 "http://www.w3.org/Graphics/SVG/1.1/DTD/svg11.dtd">
<!-- Generated by graphviz version 9.0.0 (20230911.1827)
 -->
<!-- Title: OpenHUD.module Pages: 1 -->
<svg width="2319pt" height="1501pt"
 viewBox="0.00 0.00 2318.50 1501.00" xmlns="http://www.w3.org/2000/svg" xmlns:xlink="http://www.w3.org/1999/xlink">
<g id="graph0" class="graph" transform="scale(1 1) rotate(0) translate(4 1497)">
<title>OpenHUD.module</title>
<polygon fill="lightgray" stroke="none" points="-4,4 -4,-1497 2314.5,-1497 2314.5,4 -4,4"/>
<!-- 10682 -->
<g id="node1" class="node">
<title>10682</title>
<polygon fill="none" stroke="black" stroke-width="2" points="1599.62,-1199.12 1400.88,-1199.12 1400.88,-1100.62 1599.62,-1100.62 1599.62,-1199.12"/>
<polygon fill="none" stroke="black" points="1409.88,-1171.62 1409.88,-1194.12 1590.62,-1194.12 1590.62,-1171.62 1409.88,-1171.62"/>
<text text-anchor="start" x="1420.38" y="-1178.83" font-family="Times New Roman,serif" font-weight="bold" font-size="14.00">Element_Simultaneous (0)</text>
<polygon fill="none" stroke="black" points="1409.88,-1149.12 1409.88,-1171.62 1590.62,-1171.62 1590.62,-1149.12 1409.88,-1149.12"/>
<text text-anchor="start" x="1468.38" y="-1156.33" font-family="Times New Roman,serif" font-weight="bold" font-size="14.00">Properties</text>
<polygon fill="none" stroke="black" points="1409.88,-1127.38 1409.88,-1149.12 1590.62,-1149.12 1590.62,-1127.38 1409.88,-1127.38"/>
<text text-anchor="start" x="1419.25" y="-1132.83" font-family="Times New Roman,serif" font-size="14.00">[Int] EndPolicy (default = 0) </text>
<polygon fill="none" stroke="black" points="1409.88,-1105.62 1409.88,-1127.38 1590.62,-1127.38 1590.62,-1105.62 1409.88,-1105.62"/>
<text text-anchor="start" x="1412.88" y="-1111.08" font-family="Times New Roman,serif" font-size="14.00">[Int] ResultPolicy (default = 0) </text>
<polygon fill="none" stroke="black" points="1408.88,-1104.62 1408.88,-1195.12 1591.62,-1195.12 1591.62,-1104.62 1408.88,-1104.62"/>
</g>
<!-- 10685 -->
<g id="node2" class="node">
<title>10685</title>
<polygon fill="none" stroke="black" stroke-width="2" points="1324.25,-971.62 1024.25,-971.62 1024.25,-828.88 1324.25,-828.88 1324.25,-971.62"/>
<polygon fill="none" stroke="black" points="1033.25,-944.12 1033.25,-966.62 1315.25,-966.62 1315.25,-944.12 1033.25,-944.12"/>
<text text-anchor="start" x="1088.75" y="-951.33" font-family="Times New Roman,serif" font-weight="bold" font-size="14.00">SeqOneShotOpenScreen (6)</text>
<polygon fill="none" stroke="black" points="1033.25,-921.62 1033.25,-944.12 1315.25,-944.12 1315.25,-921.62 1033.25,-921.62"/>
<text text-anchor="start" x="1142.38" y="-928.83" font-family="Times New Roman,serif" font-weight="bold" font-size="14.00">Properties</text>
<polygon fill="none" stroke="black" points="1033.25,-899.88 1033.25,-921.62 1315.25,-921.62 1315.25,-899.88 1033.25,-899.88"/>
<text text-anchor="start" x="1049" y="-905.33" font-family="Times New Roman,serif" font-size="14.00">[Bool] ExecuteEveryFrame (default = False) </text>
<polygon fill="none" stroke="black" points="1033.25,-877.38 1033.25,-899.88 1315.25,-899.88 1315.25,-877.38 1033.25,-877.38"/>
<text text-anchor="start" x="1155.12" y="-884.58" font-family="Times New Roman,serif" font-weight="bold" font-size="14.00">Inputs</text>
<polygon fill="none" stroke="black" points="1033.25,-855.62 1033.25,-877.38 1315.25,-877.38 1315.25,-855.62 1033.25,-855.62"/>
<text text-anchor="start" x="1102.62" y="-861.08" font-family="Times New Roman,serif" font-size="14.00">[Int] Option (default = 1) </text>
<polygon fill="none" stroke="black" points="1033.25,-833.88 1033.25,-855.62 1315.25,-855.62 1315.25,-833.88 1033.25,-833.88"/>
<text text-anchor="start" x="1036.25" y="-839.33" font-family="Times New Roman,serif" font-size="14.00">[String] ScreenName (default = PlayerStatus_00) </text>
<polygon fill="none" stroke="black" points="1032.25,-832.88 1032.25,-967.62 1316.25,-967.62 1316.25,-832.88 1032.25,-832.88"/>
</g>
<!-- 10682&#45;&gt;10685 -->
<g id="edge1" class="edge">
<title>10682&#45;&gt;10685</title>
<path fill="none" stroke="firebrick" stroke-width="2" d="M1436.23,-1100.25C1390.74,-1065.7 1328.71,-1018.57 1276.42,-978.85"/>
<polygon fill="firebrick" stroke="firebrick" stroke-width="2" points="1279.94,-977.13 1269.86,-973.87 1275.7,-982.71 1279.94,-977.13"/>
</g>
<!-- 10688 -->
<g id="node3" class="node">
<title>10688</title>
<polygon fill="none" stroke="black" stroke-width="2" points="1658.5,-971.62 1342,-971.62 1342,-828.88 1658.5,-828.88 1658.5,-971.62"/>
<polygon fill="none" stroke="black" points="1351,-944.12 1351,-966.62 1649.5,-966.62 1649.5,-944.12 1351,-944.12"/>
<text text-anchor="start" x="1414.75" y="-951.33" font-family="Times New Roman,serif" font-weight="bold" font-size="14.00">SeqOneShotOpenScreen (7)</text>
<polygon fill="none" stroke="black" points="1351,-921.62 1351,-944.12 1649.5,-944.12 1649.5,-921.62 1351,-921.62"/>
<text text-anchor="start" x="1468.38" y="-928.83" font-family="Times New Roman,serif" font-weight="bold" font-size="14.00">Properties</text>
<polygon fill="none" stroke="black" points="1351,-899.88 1351,-921.62 1649.5,-921.62 1649.5,-899.88 1351,-899.88"/>
<text text-anchor="start" x="1375" y="-905.33" font-family="Times New Roman,serif" font-size="14.00">[Bool] ExecuteEveryFrame (default = False) </text>
<polygon fill="none" stroke="black" points="1351,-877.38 1351,-899.88 1649.5,-899.88 1649.5,-877.38 1351,-877.38"/>
<text text-anchor="start" x="1481.12" y="-884.58" font-family="Times New Roman,serif" font-weight="bold" font-size="14.00">Inputs</text>
<polygon fill="none" stroke="black" points="1351,-855.62 1351,-877.38 1649.5,-877.38 1649.5,-855.62 1351,-855.62"/>
<text text-anchor="start" x="1428.62" y="-861.08" font-family="Times New Roman,serif" font-size="14.00">[Int] Option (default = 1) </text>
<polygon fill="none" stroke="black" points="1351,-833.88 1351,-855.62 1649.5,-855.62 1649.5,-833.88 1351,-833.88"/>
<text text-anchor="start" x="1354" y="-839.33" font-family="Times New Roman,serif" font-size="14.00">[String] ScreenName (default = PlayerStatus3D_00) </text>
<polygon fill="none" stroke="black" points="1350,-832.88 1350,-967.62 1650.5,-967.62 1650.5,-832.88 1350,-832.88"/>
</g>
<!-- 10682&#45;&gt;10688 -->
<g id="edge2" class="edge">
<title>10682&#45;&gt;10688</title>
<path fill="none" stroke="firebrick" stroke-width="2" d="M1500.25,-1100.25C1500.25,-1066.92 1500.25,-1021.89 1500.25,-983.09"/>
<polygon fill="firebrick" stroke="firebrick" stroke-width="2" points="1503.75,-984.83 1500.25,-974.83 1496.75,-984.83 1503.75,-984.83"/>
</g>
<!-- 10691 -->
<g id="node4" class="node">
<title>10691</title>
<polygon fill="none" stroke="black" stroke-width="2" points="1969.5,-971.62 1677,-971.62 1677,-828.88 1969.5,-828.88 1969.5,-971.62"/>
<polygon fill="none" stroke="black" points="1686,-944.12 1686,-966.62 1960.5,-966.62 1960.5,-944.12 1686,-944.12"/>
<text text-anchor="start" x="1737.75" y="-951.33" font-family="Times New Roman,serif" font-weight="bold" font-size="14.00">SeqOneShotOpenScreen (8)</text>
<polygon fill="none" stroke="black" points="1686,-921.62 1686,-944.12 1960.5,-944.12 1960.5,-921.62 1686,-921.62"/>
<text text-anchor="start" x="1791.38" y="-928.83" font-family="Times New Roman,serif" font-weight="bold" font-size="14.00">Properties</text>
<polygon fill="none" stroke="black" points="1686,-899.88 1686,-921.62 1960.5,-921.62 1960.5,-899.88 1686,-899.88"/>
<text text-anchor="start" x="1698" y="-905.33" font-family="Times New Roman,serif" font-size="14.00">[Bool] ExecuteEveryFrame (default = False) </text>
<polygon fill="none" stroke="black" points="1686,-877.38 1686,-899.88 1960.5,-899.88 1960.5,-877.38 1686,-877.38"/>
<text text-anchor="start" x="1804.12" y="-884.58" font-family="Times New Roman,serif" font-weight="bold" font-size="14.00">Inputs</text>
<polygon fill="none" stroke="black" points="1686,-855.62 1686,-877.38 1960.5,-877.38 1960.5,-855.62 1686,-855.62"/>
<text text-anchor="start" x="1751.62" y="-861.08" font-family="Times New Roman,serif" font-size="14.00">[Int] Option (default = 1) </text>
<polygon fill="none" stroke="black" points="1686,-833.88 1686,-855.62 1960.5,-855.62 1960.5,-833.88 1686,-833.88"/>
<text text-anchor="start" x="1689" y="-839.33" font-family="Times New Roman,serif" font-size="14.00">[String] ScreenName (default = EnemyInfo_00) </text>
<polygon fill="none" stroke="black" points="1685,-832.88 1685,-967.62 1961.5,-967.62 1961.5,-832.88 1685,-832.88"/>
</g>
<!-- 10682&#45;&gt;10691 -->
<g id="edge3" class="edge">
<title>10682&#45;&gt;10691</title>
<path fill="none" stroke="firebrick" stroke-width="2" d="M1563.68,-1100.25C1608.75,-1065.7 1670.22,-1018.57 1722.02,-978.85"/>
<polygon fill="firebrick" stroke="firebrick" stroke-width="2" points="1722.7,-982.74 1728.51,-973.88 1718.44,-977.19 1722.7,-982.74"/>
</g>
<!-- 10694 -->
<g id="node5" class="node">
<title>10694</title>
<polygon fill="none" stroke="black" stroke-width="2" points="2310.5,-971.62 1988,-971.62 1988,-828.88 2310.5,-828.88 2310.5,-971.62"/>
<polygon fill="none" stroke="black" points="1997,-944.12 1997,-966.62 2301.5,-966.62 2301.5,-944.12 1997,-944.12"/>
<text text-anchor="start" x="2063.75" y="-951.33" font-family="Times New Roman,serif" font-weight="bold" font-size="14.00">SeqOneShotOpenScreen (9)</text>
<polygon fill="none" stroke="black" points="1997,-921.62 1997,-944.12 2301.5,-944.12 2301.5,-921.62 1997,-921.62"/>
<text text-anchor="start" x="2117.38" y="-928.83" font-family="Times New Roman,serif" font-weight="bold" font-size="14.00">Properties</text>
<polygon fill="none" stroke="black" points="1997,-899.88 1997,-921.62 2301.5,-921.62 2301.5,-899.88 1997,-899.88"/>
<text text-anchor="start" x="2024" y="-905.33" font-family="Times New Roman,serif" font-size="14.00">[Bool] ExecuteEveryFrame (default = False) </text>
<polygon fill="none" stroke="black" points="1997,-877.38 1997,-899.88 2301.5,-899.88 2301.5,-877.38 1997,-877.38"/>
<text text-anchor="start" x="2130.12" y="-884.58" font-family="Times New Roman,serif" font-weight="bold" font-size="14.00">Inputs</text>
<polygon fill="none" stroke="black" points="1997,-855.62 1997,-877.38 2301.5,-877.38 2301.5,-855.62 1997,-855.62"/>
<text text-anchor="start" x="2077.62" y="-861.08" font-family="Times New Roman,serif" font-size="14.00">[Int] Option (default = 1) </text>
<polygon fill="none" stroke="black" points="1997,-833.88 1997,-855.62 2301.5,-855.62 2301.5,-833.88 1997,-833.88"/>
<text text-anchor="start" x="2000" y="-839.33" font-family="Times New Roman,serif" font-size="14.00">[String] ScreenName (default = BalloonMessage_00) </text>
<polygon fill="none" stroke="black" points="1996,-832.88 1996,-967.62 2302.5,-967.62 2302.5,-832.88 1996,-832.88"/>
</g>
<!-- 10682&#45;&gt;10694 -->
<g id="edge4" class="edge">
<title>10682&#45;&gt;10694</title>
<path fill="none" stroke="firebrick" stroke-width="2" d="M1599.67,-1122.34C1697.71,-1094.85 1850.94,-1048.3 1978.25,-993.75 1990.13,-988.66 2002.27,-983.03 2014.35,-977.12"/>
<polygon fill="firebrick" stroke="firebrick" stroke-width="2" points="2014.35,-981.03 2021.75,-973.45 2011.24,-974.76 2014.35,-981.03"/>
</g>
<!-- 10697 -->
<g id="node6" class="node">
<title>10697</title>
<polygon fill="none" stroke="black" stroke-width="2" points="1006.12,-993.38 690.38,-993.38 690.38,-807.12 1006.12,-807.12 1006.12,-993.38"/>
<polygon fill="none" stroke="black" points="699.38,-965.88 699.38,-988.38 997.12,-988.38 997.12,-965.88 699.38,-965.88"/>
<text text-anchor="start" x="769.88" y="-973.08" font-family="Times New Roman,serif" font-weight="bold" font-size="14.00">Element_BoolSelector (1)</text>
<polygon fill="none" stroke="black" points="699.38,-943.38 699.38,-965.88 997.12,-965.88 997.12,-943.38 699.38,-943.38"/>
<text text-anchor="start" x="816.38" y="-950.58" font-family="Times New Roman,serif" font-weight="bold" font-size="14.00">Properties</text>
<polygon fill="none" stroke="black" points="699.38,-921.62 699.38,-943.38 997.12,-943.38 997.12,-921.62 699.38,-921.62"/>
<text text-anchor="start" x="751.12" y="-927.08" font-family="Times New Roman,serif" font-size="14.00">[Int] CalculateTiming (default = 0) </text>
<polygon fill="none" stroke="black" points="699.38,-899.88 699.38,-921.62 997.12,-921.62 997.12,-899.88 699.38,-899.88"/>
<text text-anchor="start" x="732" y="-905.33" font-family="Times New Roman,serif" font-size="14.00">[Bool] ChildFrameSync (default = False) </text>
<polygon fill="none" stroke="black" points="699.38,-878.12 699.38,-899.88 997.12,-899.88 997.12,-878.12 699.38,-878.12"/>
<text text-anchor="start" x="748.5" y="-883.58" font-family="Times New Roman,serif" font-size="14.00">[Bool] InputValue (default = False) </text>
<polygon fill="none" stroke="black" points="699.38,-856.38 699.38,-878.12 997.12,-878.12 997.12,-856.38 699.38,-856.38"/>
<text text-anchor="start" x="702.38" y="-861.83" font-family="Times New Roman,serif" font-size="14.00">[Bool] IsNoSelectWhenChildBusy (default = False) </text>
<polygon fill="none" stroke="black" points="699.38,-833.88 699.38,-856.38 997.12,-856.38 997.12,-833.88 699.38,-833.88"/>
<text text-anchor="start" x="829.12" y="-841.08" font-family="Times New Roman,serif" font-weight="bold" font-size="14.00">Inputs</text>
<polygon fill="none" stroke="black" points="699.38,-812.12 699.38,-833.88 997.12,-833.88 997.12,-812.12 699.38,-812.12"/>
<text text-anchor="start" x="764.25" y="-817.58" font-family="Times New Roman,serif" font-size="14.00">[Bool] Input (default = False) </text>
<polygon fill="none" stroke="black" points="698.38,-811.12 698.38,-989.38 998.12,-989.38 998.12,-811.12 698.38,-811.12"/>
</g>
<!-- 10682&#45;&gt;10697 -->
<g id="edge5" class="edge">
<title>10682&#45;&gt;10697</title>
<path fill="none" stroke="firebrick" stroke-width="2" d="M1400.64,-1123.2C1303.64,-1096.8 1152.6,-1052 1017.1,-994.43"/>
<polygon fill="firebrick" stroke="firebrick" stroke-width="2" points="1019.89,-991.82 1009.32,-991.1 1017.13,-998.25 1019.89,-991.82"/>
</g>
<!-- 10706 -->
<g id="node7" class="node">
<title>10706</title>
<polygon fill="none" stroke="black" stroke-width="2" points="819.62,-699.88 620.88,-699.88 620.88,-601.38 819.62,-601.38 819.62,-699.88"/>
<polygon fill="none" stroke="black" points="629.88,-672.38 629.88,-694.88 810.62,-694.88 810.62,-672.38 629.88,-672.38"/>
<text text-anchor="start" x="640.38" y="-679.58" font-family="Times New Roman,serif" font-weight="bold" font-size="14.00">Element_Simultaneous (4)</text>
<polygon fill="none" stroke="black" points="629.88,-649.88 629.88,-672.38 810.62,-672.38 810.62,-649.88 629.88,-649.88"/>
<text text-anchor="start" x="688.38" y="-657.08" font-family="Times New Roman,serif" font-weight="bold" font-size="14.00">Properties</text>
<polygon fill="none" stroke="black" points="629.88,-628.12 629.88,-649.88 810.62,-649.88 810.62,-628.12 629.88,-628.12"/>
<text text-anchor="start" x="639.25" y="-633.58" font-family="Times New Roman,serif" font-size="14.00">[Int] EndPolicy (default = 0) </text>
<polygon fill="none" stroke="black" points="629.88,-606.38 629.88,-628.12 810.62,-628.12 810.62,-606.38 629.88,-606.38"/>
<text text-anchor="start" x="632.88" y="-611.83" font-family="Times New Roman,serif" font-size="14.00">[Int] ResultPolicy (default = 0) </text>
<polygon fill="none" stroke="black" points="628.88,-605.38 628.88,-695.88 811.62,-695.88 811.62,-605.38 628.88,-605.38"/>
</g>
<!-- 10697&#45;&gt;10706 -->
<g id="edge6" class="edge">
<title>10697&#45;&gt;10706</title>
<path fill="none" stroke="firebrick" stroke-width="2" d="M800.41,-806.69C783.7,-774.37 765.42,-739.01 750.55,-710.23"/>
<polygon fill="firebrick" stroke="firebrick" stroke-width="2" points="754.52,-710.31 746.82,-703.03 748.31,-713.52 754.52,-710.31"/>
<text text-anchor="middle" x="801.38" y="-775.45" font-family="Times New Roman,serif" font-size="14.00" fill="firebrick">True</text>
</g>
<!-- 10733 -->
<g id="node8" class="node">
<title>10733</title>
<polygon fill="none" stroke="black" stroke-width="2" points="1112.5,-689 838,-689 838,-612.25 1112.5,-612.25 1112.5,-689"/>
<polygon fill="none" stroke="black" points="847,-661.5 847,-684 1103.5,-684 1103.5,-661.5 847,-661.5"/>
<text text-anchor="start" x="914.88" y="-668.7" font-family="Times New Roman,serif" font-weight="bold" font-size="14.00">SeqOneShotEnd (5)</text>
<polygon fill="none" stroke="black" points="847,-639 847,-661.5 1103.5,-661.5 1103.5,-639 847,-639"/>
<text text-anchor="start" x="943.38" y="-646.2" font-family="Times New Roman,serif" font-weight="bold" font-size="14.00">Properties</text>
<polygon fill="none" stroke="black" points="847,-617.25 847,-639 1103.5,-639 1103.5,-617.25 847,-617.25"/>
<text text-anchor="start" x="850" y="-622.7" font-family="Times New Roman,serif" font-size="14.00">[Bool] ExecuteEveryFrame (default = False) </text>
<polygon fill="none" stroke="black" points="846,-616.25 846,-685 1104.5,-685 1104.5,-616.25 846,-616.25"/>
</g>
<!-- 10697&#45;&gt;10733 -->
<g id="edge7" class="edge">
<title>10697&#45;&gt;10733</title>
<path fill="none" stroke="firebrick" stroke-width="2" d="M895.72,-806.69C914.46,-770.16 935.19,-729.74 950.78,-699.33"/>
<polygon fill="firebrick" stroke="firebrick" stroke-width="2" points="953.03,-702.61 954.48,-692.12 946.8,-699.42 953.03,-702.61"/>
<text text-anchor="middle" x="926.88" y="-775.45" font-family="Times New Roman,serif" font-size="14.00" fill="firebrick">False</text>
</g>
<!-- 10709 -->
<g id="node11" class="node">
<title>10709</title>
<polygon fill="none" stroke="black" stroke-width="2" points="910.62,-472.75 585.88,-472.75 585.88,-330 910.62,-330 910.62,-472.75"/>
<polygon fill="none" stroke="black" points="594.88,-445.25 594.88,-467.75 901.62,-467.75 901.62,-445.25 594.88,-445.25"/>
<text text-anchor="start" x="659" y="-452.45" font-family="Times New Roman,serif" font-weight="bold" font-size="14.00">SeqOneShotOpenScreen (10)</text>
<polygon fill="none" stroke="black" points="594.88,-422.75 594.88,-445.25 901.62,-445.25 901.62,-422.75 594.88,-422.75"/>
<text text-anchor="start" x="716.38" y="-429.95" font-family="Times New Roman,serif" font-weight="bold" font-size="14.00">Properties</text>
<polygon fill="none" stroke="black" points="594.88,-401 594.88,-422.75 901.62,-422.75 901.62,-401 594.88,-401"/>
<text text-anchor="start" x="623" y="-406.45" font-family="Times New Roman,serif" font-size="14.00">[Bool] ExecuteEveryFrame (default = False) </text>
<polygon fill="none" stroke="black" points="594.88,-378.5 594.88,-401 901.62,-401 901.62,-378.5 594.88,-378.5"/>
<text text-anchor="start" x="729.12" y="-385.7" font-family="Times New Roman,serif" font-weight="bold" font-size="14.00">Inputs</text>
<polygon fill="none" stroke="black" points="594.88,-356.75 594.88,-378.5 901.62,-378.5 901.62,-356.75 594.88,-356.75"/>
<text text-anchor="start" x="676.62" y="-362.2" font-family="Times New Roman,serif" font-size="14.00">[Int] Option (default = 1) </text>
<polygon fill="none" stroke="black" points="594.88,-335 594.88,-356.75 901.62,-356.75 901.62,-335 594.88,-335"/>
<text text-anchor="start" x="597.88" y="-340.45" font-family="Times New Roman,serif" font-size="14.00">[String] ScreenName (default = EnvironmentInfo_00) </text>
<polygon fill="none" stroke="black" points="593.88,-334 593.88,-468.75 902.62,-468.75 902.62,-334 593.88,-334"/>
</g>
<!-- 10706&#45;&gt;10709 -->
<g id="edge10" class="edge">
<title>10706&#45;&gt;10709</title>
<path fill="none" stroke="firebrick" stroke-width="2" d="M725.75,-601.07C729.52,-567.79 734.61,-522.83 739,-484.09"/>
<polygon fill="firebrick" stroke="firebrick" stroke-width="2" points="742.28,-486.16 739.93,-475.83 735.33,-485.37 742.28,-486.16"/>
</g>
<!-- 10712 -->
<g id="node12" class="node">
<title>10712</title>
<polygon fill="none" stroke="black" stroke-width="2" points="568.12,-494.5 252.38,-494.5 252.38,-308.25 568.12,-308.25 568.12,-494.5"/>
<polygon fill="none" stroke="black" points="261.38,-467 261.38,-489.5 559.12,-489.5 559.12,-467 261.38,-467"/>
<text text-anchor="start" x="328.12" y="-474.2" font-family="Times New Roman,serif" font-weight="bold" font-size="14.00">Element_BoolSelector (15)</text>
<polygon fill="none" stroke="black" points="261.38,-444.5 261.38,-467 559.12,-467 559.12,-444.5 261.38,-444.5"/>
<text text-anchor="start" x="378.38" y="-451.7" font-family="Times New Roman,serif" font-weight="bold" font-size="14.00">Properties</text>
<polygon fill="none" stroke="black" points="261.38,-422.75 261.38,-444.5 559.12,-444.5 559.12,-422.75 261.38,-422.75"/>
<text text-anchor="start" x="313.12" y="-428.2" font-family="Times New Roman,serif" font-size="14.00">[Int] CalculateTiming (default = 0) </text>
<polygon fill="none" stroke="black" points="261.38,-401 261.38,-422.75 559.12,-422.75 559.12,-401 261.38,-401"/>
<text text-anchor="start" x="294" y="-406.45" font-family="Times New Roman,serif" font-size="14.00">[Bool] ChildFrameSync (default = False) </text>
<polygon fill="none" stroke="black" points="261.38,-379.25 261.38,-401 559.12,-401 559.12,-379.25 261.38,-379.25"/>
<text text-anchor="start" x="310.5" y="-384.7" font-family="Times New Roman,serif" font-size="14.00">[Bool] InputValue (default = False) </text>
<polygon fill="none" stroke="black" points="261.38,-357.5 261.38,-379.25 559.12,-379.25 559.12,-357.5 261.38,-357.5"/>
<text text-anchor="start" x="264.38" y="-362.95" font-family="Times New Roman,serif" font-size="14.00">[Bool] IsNoSelectWhenChildBusy (default = False) </text>
<polygon fill="none" stroke="black" points="261.38,-335 261.38,-357.5 559.12,-357.5 559.12,-335 261.38,-335"/>
<text text-anchor="start" x="391.12" y="-342.2" font-family="Times New Roman,serif" font-weight="bold" font-size="14.00">Inputs</text>
<polygon fill="none" stroke="black" points="261.38,-313.25 261.38,-335 559.12,-335 559.12,-313.25 261.38,-313.25"/>
<text text-anchor="start" x="326.25" y="-318.7" font-family="Times New Roman,serif" font-size="14.00">[Bool] Input (default = False) </text>
<polygon fill="none" stroke="black" points="260.38,-312.25 260.38,-490.5 560.12,-490.5 560.12,-312.25 260.38,-312.25"/>
</g>
<!-- 10706&#45;&gt;10712 -->
<g id="edge11" class="edge">
<title>10706&#45;&gt;10712</title>
<path fill="none" stroke="firebrick" stroke-width="2" d="M664.74,-601.15C633.79,-574.51 594.32,-541.14 558.25,-512.5 553.82,-508.98 549.29,-505.42 544.71,-501.85"/>
<polygon fill="firebrick" stroke="firebrick" stroke-width="2" points="548.26,-500.18 538.22,-496.81 543.97,-505.71 548.26,-500.18"/>
</g>
<!-- 10700 -->
<g id="node9" class="node">
<title>10700</title>
<polygon fill="none" stroke="black" stroke-width="2" points="1017.38,-1254.25 679.12,-1254.25 679.12,-1045.5 1017.38,-1045.5 1017.38,-1254.25"/>
<polygon fill="none" stroke="black" points="688.12,-1226.75 688.12,-1249.25 1008.38,-1249.25 1008.38,-1226.75 688.12,-1226.75"/>
<text text-anchor="start" x="748.88" y="-1233.95" font-family="Times New Roman,serif" font-weight="bold" font-size="14.00">SeqQueryGetGameDataBool (3)</text>
<polygon fill="none" stroke="black" points="688.12,-1204.25 688.12,-1226.75 1008.38,-1226.75 1008.38,-1204.25 688.12,-1204.25"/>
<text text-anchor="start" x="816.38" y="-1211.45" font-family="Times New Roman,serif" font-weight="bold" font-size="14.00">Properties</text>
<polygon fill="none" stroke="black" points="688.12,-1182.5 688.12,-1204.25 1008.38,-1204.25 1008.38,-1182.5 688.12,-1182.5"/>
<text text-anchor="start" x="722.62" y="-1187.95" font-family="Times New Roman,serif" font-size="14.00">[Bool] OutputOnlyOnEnter (default = False) </text>
<polygon fill="none" stroke="black" points="688.12,-1160 688.12,-1182.5 1008.38,-1182.5 1008.38,-1160 688.12,-1160"/>
<text text-anchor="start" x="829.12" y="-1167.2" font-family="Times New Roman,serif" font-weight="bold" font-size="14.00">Inputs</text>
<polygon fill="none" stroke="black" points="688.12,-1138.25 688.12,-1160 1008.38,-1160 1008.38,-1138.25 688.12,-1138.25"/>
<text text-anchor="start" x="748.88" y="-1143.7" font-family="Times New Roman,serif" font-size="14.00">[Int] GameDataIndex (default = &#45;1) </text>
<polygon fill="none" stroke="black" points="688.12,-1116.5 688.12,-1138.25 1008.38,-1138.25 1008.38,-1116.5 688.12,-1116.5"/>
<text text-anchor="start" x="691.12" y="-1121.95" font-family="Times New Roman,serif" font-size="14.00">[String] GameDataName (default = Obj_DRStone_Get) </text>
<polygon fill="none" stroke="black" points="688.12,-1094.75 688.12,-1116.5 1008.38,-1116.5 1008.38,-1094.75 688.12,-1094.75"/>
<text text-anchor="start" x="721.88" y="-1100.2" font-family="Times New Roman,serif" font-size="14.00">[const void*] ParentStruct (default = nullptr) </text>
<polygon fill="none" stroke="black" points="688.12,-1072.25 688.12,-1094.75 1008.38,-1094.75 1008.38,-1072.25 688.12,-1072.25"/>
<text text-anchor="start" x="823.88" y="-1079.45" font-family="Times New Roman,serif" font-weight="bold" font-size="14.00">Outputs</text>
<polygon fill="none" stroke="black" points="688.12,-1050.5 688.12,-1072.25 1008.38,-1072.25 1008.38,-1050.5 688.12,-1050.5"/>
<text text-anchor="start" x="812.62" y="-1055.95" font-family="Times New Roman,serif" font-size="14.00">[Bool] Value</text>
<polygon fill="none" stroke="black" points="687.12,-1049.5 687.12,-1250.25 1009.38,-1250.25 1009.38,-1049.5 687.12,-1049.5"/>
</g>
<!-- 10700&#45;&gt;10697 -->
<g id="edge8" class="edge">
<title>10700:10746&#45;&gt;10697:10742</title>
<path fill="none" stroke="#008000" stroke-dasharray="5,2" d="M848.25,-1049.88C848.25,-1012.61 984.67,-1023.84 1006.12,-993.38 1017.71,-976.92 1020.31,-826.53 1006.12,-812.25 995.64,-801.7 889.5,-795.71 857.4,-804.82"/>
<polygon fill="#008000" stroke="#008000" points="855.65,-801.76 849.49,-810.38 859.68,-807.49 855.65,-801.76"/>
<text text-anchor="middle" x="977.88" y="-1014.2" font-family="Times New Roman,serif" font-size="14.00" fill="#008000">Input</text>
</g>
<!-- 10703 -->
<g id="node10" class="node">
<title>10703</title>
<polygon fill="none" stroke="black" stroke-width="2" points="995.62,-1493 700.88,-1493 700.88,-1306 995.62,-1306 995.62,-1493"/>
<polygon fill="none" stroke="black" points="709.88,-1465.5 709.88,-1488 986.62,-1488 986.62,-1465.5 709.88,-1465.5"/>
<text text-anchor="start" x="712.88" y="-1472.7" font-family="Times New Roman,serif" font-weight="bold" font-size="14.00">SeqQueryGetNonStructGameDataStruct (2)</text>
<polygon fill="none" stroke="black" points="709.88,-1443 709.88,-1465.5 986.62,-1465.5 986.62,-1443 709.88,-1443"/>
<text text-anchor="start" x="816.38" y="-1450.2" font-family="Times New Roman,serif" font-weight="bold" font-size="14.00">Properties</text>
<polygon fill="none" stroke="black" points="709.88,-1421.25 709.88,-1443 986.62,-1443 986.62,-1421.25 709.88,-1421.25"/>
<text text-anchor="start" x="722.62" y="-1426.7" font-family="Times New Roman,serif" font-size="14.00">[Bool] OutputOnlyOnEnter (default = False) </text>
<polygon fill="none" stroke="black" points="709.88,-1398.75 709.88,-1421.25 986.62,-1421.25 986.62,-1398.75 709.88,-1398.75"/>
<text text-anchor="start" x="829.12" y="-1405.95" font-family="Times New Roman,serif" font-weight="bold" font-size="14.00">Inputs</text>
<polygon fill="none" stroke="black" points="709.88,-1377 709.88,-1398.75 986.62,-1398.75 986.62,-1377 709.88,-1377"/>
<text text-anchor="start" x="748.88" y="-1382.45" font-family="Times New Roman,serif" font-size="14.00">[Int] GameDataIndex (default = &#45;1) </text>
<polygon fill="none" stroke="black" points="709.88,-1355.25 709.88,-1377 986.62,-1377 986.62,-1355.25 709.88,-1355.25"/>
<text text-anchor="start" x="719.25" y="-1360.7" font-family="Times New Roman,serif" font-size="14.00">[String] GameDataFullName (default = IsGet) </text>
<polygon fill="none" stroke="black" points="709.88,-1332.75 709.88,-1355.25 986.62,-1355.25 986.62,-1332.75 709.88,-1332.75"/>
<text text-anchor="start" x="823.88" y="-1339.95" font-family="Times New Roman,serif" font-weight="bold" font-size="14.00">Outputs</text>
<polygon fill="none" stroke="black" points="709.88,-1311 709.88,-1332.75 986.62,-1332.75 986.62,-1311 709.88,-1311"/>
<text text-anchor="start" x="740.62" y="-1316.45" font-family="Times New Roman,serif" font-size="14.00">[const void*] Value (default = nullptr) </text>
<polygon fill="none" stroke="black" points="708.88,-1310 708.88,-1489 987.62,-1489 987.62,-1310 708.88,-1310"/>
</g>
<!-- 10703&#45;&gt;10700 -->
<g id="edge9" class="edge">
<title>10703:10749&#45;&gt;10700:10745</title>
<path fill="none" stroke="#008000" stroke-dasharray="5,2" d="M848.25,-1309.5C848.25,-1234.27 964.38,-1315.37 1008.25,-1254.25 1044.3,-1204.02 1071.6,-1117.56 1020.53,-1106.95"/>
<polygon fill="#008000" stroke="#008000" points="1021.04,-1103.49 1010.76,-1106.02 1020.38,-1110.45 1021.04,-1103.49"/>
<text text-anchor="middle" x="1020.75" y="-1274.7" font-family="Times New Roman,serif" font-size="14.00" fill="#008000">ParentStruct</text>
</g>
<!-- 10721 -->
<g id="node13" class="node">
<title>10721</title>
<polygon fill="none" stroke="black" stroke-width="2" points="382.62,-256.5 183.88,-256.5 183.88,-158 382.62,-158 382.62,-256.5"/>
<polygon fill="none" stroke="black" points="192.88,-229 192.88,-251.5 373.62,-251.5 373.62,-229 192.88,-229"/>
<text text-anchor="start" x="199.62" y="-236.2" font-family="Times New Roman,serif" font-weight="bold" font-size="14.00">Element_Simultaneous (11)</text>
<polygon fill="none" stroke="black" points="192.88,-206.5 192.88,-229 373.62,-229 373.62,-206.5 192.88,-206.5"/>
<text text-anchor="start" x="251.38" y="-213.7" font-family="Times New Roman,serif" font-weight="bold" font-size="14.00">Properties</text>
<polygon fill="none" stroke="black" points="192.88,-184.75 192.88,-206.5 373.62,-206.5 373.62,-184.75 192.88,-184.75"/>
<text text-anchor="start" x="202.25" y="-190.2" font-family="Times New Roman,serif" font-size="14.00">[Int] EndPolicy (default = 0) </text>
<polygon fill="none" stroke="black" points="192.88,-163 192.88,-184.75 373.62,-184.75 373.62,-163 192.88,-163"/>
<text text-anchor="start" x="195.88" y="-168.45" font-family="Times New Roman,serif" font-size="14.00">[Int] ResultPolicy (default = 0) </text>
<polygon fill="none" stroke="black" points="191.88,-162 191.88,-252.5 374.62,-252.5 374.62,-162 191.88,-162"/>
</g>
<!-- 10712&#45;&gt;10721 -->
<g id="edge12" class="edge">
<title>10712&#45;&gt;10721</title>
<path fill="none" stroke="firebrick" stroke-width="2" d="M349.17,-307.97C339.76,-293.74 330.28,-279.4 321.56,-266.2"/>
<polygon fill="firebrick" stroke="firebrick" stroke-width="2" points="325.45,-265.75 317.02,-259.34 319.62,-269.61 325.45,-265.75"/>
<text text-anchor="middle" x="349.38" y="-276.95" font-family="Times New Roman,serif" font-size="14.00" fill="firebrick">True</text>
</g>
<!-- 10730 -->
<g id="node14" class="node">
<title>10730</title>
<polygon fill="none" stroke="black" stroke-width="2" points="675.5,-245.62 401,-245.62 401,-168.88 675.5,-168.88 675.5,-245.62"/>
<polygon fill="none" stroke="black" points="410,-218.12 410,-240.62 666.5,-240.62 666.5,-218.12 410,-218.12"/>
<text text-anchor="start" x="474.12" y="-225.32" font-family="Times New Roman,serif" font-weight="bold" font-size="14.00">SeqOneShotEnd (16)</text>
<polygon fill="none" stroke="black" points="410,-195.62 410,-218.12 666.5,-218.12 666.5,-195.62 410,-195.62"/>
<text text-anchor="start" x="506.38" y="-202.82" font-family="Times New Roman,serif" font-weight="bold" font-size="14.00">Properties</text>
<polygon fill="none" stroke="black" points="410,-173.88 410,-195.62 666.5,-195.62 666.5,-173.88 410,-173.88"/>
<text text-anchor="start" x="413" y="-179.32" font-family="Times New Roman,serif" font-size="14.00">[Bool] ExecuteEveryFrame (default = False) </text>
<polygon fill="none" stroke="black" points="409,-172.88 409,-241.62 667.5,-241.62 667.5,-172.88 409,-172.88"/>
</g>
<!-- 10712&#45;&gt;10730 -->
<g id="edge13" class="edge">
<title>10712&#45;&gt;10730</title>
<path fill="none" stroke="firebrick" stroke-width="2" d="M471.81,-307.97C483.91,-289.82 496.11,-271.49 506.71,-255.59"/>
<polygon fill="firebrick" stroke="firebrick" stroke-width="2" points="508.77,-258.81 511.4,-248.55 502.95,-254.93 508.77,-258.81"/>
<text text-anchor="middle" x="507.88" y="-276.95" font-family="Times New Roman,serif" font-size="14.00" fill="firebrick">False</text>
</g>
<!-- 10724 -->
<g id="node17" class="node">
<title>10724</title>
<polygon fill="none" stroke="black" stroke-width="2" points="274.5,-121 0,-121 0,0 274.5,0 274.5,-121"/>
<polygon fill="none" stroke="black" points="9,-93.5 9,-116 265.5,-116 265.5,-93.5 9,-93.5"/>
<text text-anchor="start" x="31.5" y="-100.7" font-family="Times New Roman,serif" font-weight="bold" font-size="14.00">SeqOneShotSetMiniMapState (12)</text>
<polygon fill="none" stroke="black" points="9,-71 9,-93.5 265.5,-93.5 265.5,-71 9,-71"/>
<text text-anchor="start" x="105.38" y="-78.2" font-family="Times New Roman,serif" font-weight="bold" font-size="14.00">Properties</text>
<polygon fill="none" stroke="black" points="9,-49.25 9,-71 265.5,-71 265.5,-49.25 9,-49.25"/>
<text text-anchor="start" x="12" y="-54.7" font-family="Times New Roman,serif" font-size="14.00">[Bool] ExecuteEveryFrame (default = False) </text>
<polygon fill="none" stroke="black" points="9,-26.75 9,-49.25 265.5,-49.25 265.5,-26.75 9,-26.75"/>
<text text-anchor="start" x="118.12" y="-33.95" font-family="Times New Roman,serif" font-weight="bold" font-size="14.00">Inputs</text>
<polygon fill="none" stroke="black" points="9,-5 9,-26.75 265.5,-26.75 265.5,-5 9,-5"/>
<text text-anchor="start" x="39" y="-10.45" font-family="Times New Roman,serif" font-size="14.00">[Bool] IsMiniMap (default = True) </text>
<polygon fill="none" stroke="black" points="8,-4 8,-117 266.5,-117 266.5,-4 8,-4"/>
</g>
<!-- 10721&#45;&gt;10724 -->
<g id="edge16" class="edge">
<title>10721&#45;&gt;10724</title>
<path fill="none" stroke="firebrick" stroke-width="2" d="M234.23,-157.65C225.04,-148.54 215.28,-138.86 205.63,-129.29"/>
<polygon fill="firebrick" stroke="firebrick" stroke-width="2" points="209.27,-127.98 199.71,-123.42 204.34,-132.95 209.27,-127.98"/>
</g>
<!-- 10727 -->
<g id="node18" class="node">
<title>10727</title>
<polygon fill="none" stroke="black" stroke-width="2" points="567.5,-98.88 293,-98.88 293,-22.12 567.5,-22.12 567.5,-98.88"/>
<polygon fill="none" stroke="black" points="302,-71.38 302,-93.88 558.5,-93.88 558.5,-71.38 302,-71.38"/>
<text text-anchor="start" x="318.88" y="-78.58" font-family="Times New Roman,serif" font-weight="bold" font-size="14.00">SeqOneShotSetMapCurrentPos (17)</text>
<polygon fill="none" stroke="black" points="302,-48.88 302,-71.38 558.5,-71.38 558.5,-48.88 302,-48.88"/>
<text text-anchor="start" x="398.38" y="-56.08" font-family="Times New Roman,serif" font-weight="bold" font-size="14.00">Properties</text>
<polygon fill="none" stroke="black" points="302,-27.12 302,-48.88 558.5,-48.88 558.5,-27.12 302,-27.12"/>
<text text-anchor="start" x="305" y="-32.58" font-family="Times New Roman,serif" font-size="14.00">[Bool] ExecuteEveryFrame (default = False) </text>
<polygon fill="none" stroke="black" points="301,-26.12 301,-94.88 559.5,-94.88 559.5,-26.12 301,-26.12"/>
</g>
<!-- 10721&#45;&gt;10727 -->
<g id="edge17" class="edge">
<title>10721&#45;&gt;10727</title>
<path fill="none" stroke="firebrick" stroke-width="2" d="M332.61,-157.65C349.24,-141.27 367.72,-123.07 384.09,-106.95"/>
<polygon fill="firebrick" stroke="firebrick" stroke-width="2" points="385.12,-110.85 389.79,-101.34 380.21,-105.86 385.12,-110.85"/>
</g>
<!-- 10715 -->
<g id="node15" class="node">
<title>10715</title>
<polygon fill="none" stroke="black" stroke-width="2" points="574.5,-755 246,-755 246,-546.25 574.5,-546.25 574.5,-755"/>
<polygon fill="none" stroke="black" points="255,-727.5 255,-750 565.5,-750 565.5,-727.5 255,-727.5"/>
<text text-anchor="start" x="307.12" y="-734.7" font-family="Times New Roman,serif" font-weight="bold" font-size="14.00">SeqQueryGetGameDataBool (13)</text>
<polygon fill="none" stroke="black" points="255,-705 255,-727.5 565.5,-727.5 565.5,-705 255,-705"/>
<text text-anchor="start" x="378.38" y="-712.2" font-family="Times New Roman,serif" font-weight="bold" font-size="14.00">Properties</text>
<polygon fill="none" stroke="black" points="255,-683.25 255,-705 565.5,-705 565.5,-683.25 255,-683.25"/>
<text text-anchor="start" x="284.62" y="-688.7" font-family="Times New Roman,serif" font-size="14.00">[Bool] OutputOnlyOnEnter (default = False) </text>
<polygon fill="none" stroke="black" points="255,-660.75 255,-683.25 565.5,-683.25 565.5,-660.75 255,-660.75"/>
<text text-anchor="start" x="391.12" y="-667.95" font-family="Times New Roman,serif" font-weight="bold" font-size="14.00">Inputs</text>
<polygon fill="none" stroke="black" points="255,-639 255,-660.75 565.5,-660.75 565.5,-639 255,-639"/>
<text text-anchor="start" x="310.88" y="-644.45" font-family="Times New Roman,serif" font-size="14.00">[Int] GameDataIndex (default = &#45;1) </text>
<polygon fill="none" stroke="black" points="255,-617.25 255,-639 565.5,-639 565.5,-617.25 255,-617.25"/>
<text text-anchor="start" x="258" y="-622.7" font-family="Times New Roman,serif" font-size="14.00">[String] GameDataName (default = IsMiniMapEnable) </text>
<polygon fill="none" stroke="black" points="255,-595.5 255,-617.25 565.5,-617.25 565.5,-595.5 255,-595.5"/>
<text text-anchor="start" x="283.88" y="-600.95" font-family="Times New Roman,serif" font-size="14.00">[const void*] ParentStruct (default = nullptr) </text>
<polygon fill="none" stroke="black" points="255,-573 255,-595.5 565.5,-595.5 565.5,-573 255,-573"/>
<text text-anchor="start" x="385.88" y="-580.2" font-family="Times New Roman,serif" font-weight="bold" font-size="14.00">Outputs</text>
<polygon fill="none" stroke="black" points="255,-551.25 255,-573 565.5,-573 565.5,-551.25 255,-551.25"/>
<text text-anchor="start" x="374.62" y="-556.7" font-family="Times New Roman,serif" font-size="14.00">[Bool] Value</text>
<polygon fill="none" stroke="black" points="254,-550.25 254,-751 566.5,-751 566.5,-550.25 254,-550.25"/>
</g>
<!-- 10715&#45;&gt;10712 -->
<g id="edge14" class="edge">
<title>10715:10756&#45;&gt;10712:10752</title>
<path fill="none" stroke="#008000" stroke-dasharray="5,2" d="M410.25,-550.62C410.25,-513.39 546.65,-524.92 568.12,-494.5 579.73,-478.06 582.31,-327.65 568.12,-313.38 557.64,-302.83 451.5,-296.84 419.4,-305.94"/>
<polygon fill="#008000" stroke="#008000" points="417.65,-302.89 411.49,-311.5 421.68,-308.61 417.65,-302.89"/>
<text text-anchor="middle" x="539.88" y="-514.95" font-family="Times New Roman,serif" font-size="14.00" fill="#008000">Input</text>
</g>
<!-- 10718 -->
<g id="node16" class="node">
<title>10718</title>
<polygon fill="none" stroke="black" stroke-width="2" points="561.38,-993.75 259.12,-993.75 259.12,-806.75 561.38,-806.75 561.38,-993.75"/>
<polygon fill="none" stroke="black" points="268.12,-966.25 268.12,-988.75 552.38,-988.75 552.38,-966.25 268.12,-966.25"/>
<text text-anchor="start" x="271.12" y="-973.45" font-family="Times New Roman,serif" font-weight="bold" font-size="14.00">SeqQueryGetNonStructGameDataStruct (14)</text>
<polygon fill="none" stroke="black" points="268.12,-943.75 268.12,-966.25 552.38,-966.25 552.38,-943.75 268.12,-943.75"/>
<text text-anchor="start" x="378.38" y="-950.95" font-family="Times New Roman,serif" font-weight="bold" font-size="14.00">Properties</text>
<polygon fill="none" stroke="black" points="268.12,-922 268.12,-943.75 552.38,-943.75 552.38,-922 268.12,-922"/>
<text text-anchor="start" x="284.62" y="-927.45" font-family="Times New Roman,serif" font-size="14.00">[Bool] OutputOnlyOnEnter (default = False) </text>
<polygon fill="none" stroke="black" points="268.12,-899.5 268.12,-922 552.38,-922 552.38,-899.5 268.12,-899.5"/>
<text text-anchor="start" x="391.12" y="-906.7" font-family="Times New Roman,serif" font-weight="bold" font-size="14.00">Inputs</text>
<polygon fill="none" stroke="black" points="268.12,-877.75 268.12,-899.5 552.38,-899.5 552.38,-877.75 268.12,-877.75"/>
<text text-anchor="start" x="310.88" y="-883.2" font-family="Times New Roman,serif" font-size="14.00">[Int] GameDataIndex (default = &#45;1) </text>
<polygon fill="none" stroke="black" points="268.12,-856 268.12,-877.75 552.38,-877.75 552.38,-856 268.12,-856"/>
<text text-anchor="start" x="271.12" y="-861.45" font-family="Times New Roman,serif" font-size="14.00">[String] GameDataFullName (default = MapData) </text>
<polygon fill="none" stroke="black" points="268.12,-833.5 268.12,-856 552.38,-856 552.38,-833.5 268.12,-833.5"/>
<text text-anchor="start" x="385.88" y="-840.7" font-family="Times New Roman,serif" font-weight="bold" font-size="14.00">Outputs</text>
<polygon fill="none" stroke="black" points="268.12,-811.75 268.12,-833.5 552.38,-833.5 552.38,-811.75 268.12,-811.75"/>
<text text-anchor="start" x="302.62" y="-817.2" font-family="Times New Roman,serif" font-size="14.00">[const void*] Value (default = nullptr) </text>
<polygon fill="none" stroke="black" points="267.12,-810.75 267.12,-989.75 553.38,-989.75 553.38,-810.75 267.12,-810.75"/>
</g>
<!-- 10718&#45;&gt;10715 -->
<g id="edge15" class="edge">
<title>10718:10759&#45;&gt;10715:10755</title>
<path fill="none" stroke="#008000" stroke-dasharray="5,2" d="M410.25,-810.25C410.25,-737.12 522.9,-814.63 565.25,-755 601.05,-704.6 628.56,-618.29 577.53,-607.7"/>
<polygon fill="#008000" stroke="#008000" points="578.04,-604.23 567.76,-606.77 577.38,-611.2 578.04,-604.23"/>
<text text-anchor="middle" x="575.75" y="-775.45" font-family="Times New Roman,serif" font-size="14.00" fill="#008000">ParentStruct</text>
</g>
<!-- 10761 -->
<g id="node19" class="node">
<title>10761</title>
<ellipse fill="mediumpurple" stroke="mediumpurple" cx="1500.25" cy="-1399.5" rx="31.39" ry="18"/>
<text text-anchor="start" x="1485.25" y="-1395.45" font-family="Times New Roman,serif" font-weight="bold" font-size="14.00" fill="white">Root</text>
</g>
<!-- 10761&#45;&gt;10682 -->
<g id="edge18" class="edge">
<title>10761&#45;&gt;10682</title>
<path fill="none" stroke="black" d="M1500.25,-1381.09C1500.25,-1346.17 1500.25,-1266.18 1500.25,-1210.35"/>
<polygon fill="black" stroke="black" points="1503.75,-1210.69 1500.25,-1200.69 1496.75,-1210.69 1503.75,-1210.69"/>
</g>
</g>
</svg>
