<?xml version="1.0" encoding="UTF-8" standalone="no"?>
<!DOCTYPE svg PUBLIC "-//W3C//DTD SVG 1.1//EN"
 "http://www.w3.org/Graphics/SVG/1.1/DTD/svg11.dtd">
<!-- Generated by graphviz version 9.0.0 (20230911.1827)
 -->
<!-- Title: OpenAppMenuOverlay.module Pages: 1 -->
<svg width="355pt" height="302pt"
 viewBox="0.00 0.00 355.00 301.75" xmlns="http://www.w3.org/2000/svg" xmlns:xlink="http://www.w3.org/1999/xlink">
<g id="graph0" class="graph" transform="scale(1 1) rotate(0) translate(4 297.75)">
<title>OpenAppMenuOverlay.module</title>
<polygon fill="lightgray" stroke="none" points="-4,4 -4,-297.75 351,-297.75 351,4 -4,4"/>
<!-- 10673 -->
<g id="node1" class="node">
<title>10673</title>
<polygon fill="none" stroke="black" stroke-width="2" points="347,-121 72.5,-121 72.5,0 347,0 347,-121"/>
<polygon fill="none" stroke="black" points="81.5,-93.5 81.5,-116 338,-116 338,-93.5 81.5,-93.5"/>
<text text-anchor="start" x="90.88" y="-100.7" font-family="Times New Roman,serif" font-weight="bold" font-size="14.00">SeqOneShotOpenAppMenuOverlay (0)</text>
<polygon fill="none" stroke="black" points="81.5,-71 81.5,-93.5 338,-93.5 338,-71 81.5,-71"/>
<text text-anchor="start" x="177.88" y="-78.2" font-family="Times New Roman,serif" font-weight="bold" font-size="14.00">Properties</text>
<polygon fill="none" stroke="black" points="81.5,-49.25 81.5,-71 338,-71 338,-49.25 81.5,-49.25"/>
<text text-anchor="start" x="84.5" y="-54.7" font-family="Times New Roman,serif" font-size="14.00">[Bool] ExecuteEveryFrame (default = False) </text>
<polygon fill="none" stroke="black" points="81.5,-26.75 81.5,-49.25 338,-49.25 338,-26.75 81.5,-26.75"/>
<text text-anchor="start" x="190.62" y="-33.95" font-family="Times New Roman,serif" font-weight="bold" font-size="14.00">Inputs</text>
<polygon fill="none" stroke="black" points="81.5,-5 81.5,-26.75 338,-26.75 338,-5 81.5,-5"/>
<text text-anchor="start" x="101.75" y="-10.45" font-family="Times New Roman,serif" font-size="14.00">[String] Preset (default = MinusMenu) </text>
<polygon fill="none" stroke="black" points="80.5,-4 80.5,-117 339,-117 339,-4 80.5,-4"/>
</g>
<!-- 10676 -->
<g id="node2" class="node">
<title>10676</title>
<polygon fill="none" stroke="black" stroke-width="2" points="247.5,-293.75 0,-293.75 0,-172.75 247.5,-172.75 247.5,-293.75"/>
<polygon fill="none" stroke="black" points="9,-266.25 9,-288.75 238.5,-288.75 238.5,-266.25 9,-266.25"/>
<text text-anchor="start" x="12" y="-273.45" font-family="Times New Roman,serif" font-weight="bold" font-size="14.00">Element_ModuleIF_Input_String (1)</text>
<polygon fill="none" stroke="black" points="9,-243.75 9,-266.25 238.5,-266.25 238.5,-243.75 9,-243.75"/>
<text text-anchor="start" x="91.88" y="-250.95" font-family="Times New Roman,serif" font-weight="bold" font-size="14.00">Properties</text>
<polygon fill="none" stroke="black" points="9,-222 9,-243.75 238.5,-243.75 238.5,-222 9,-222"/>
<text text-anchor="start" x="32.62" y="-227.45" font-family="Times New Roman,serif" font-size="14.00">[String] Name (default = Preset) </text>
<polygon fill="none" stroke="black" points="9,-199.5 9,-222 238.5,-222 238.5,-199.5 9,-199.5"/>
<text text-anchor="start" x="99.38" y="-206.7" font-family="Times New Roman,serif" font-weight="bold" font-size="14.00">Outputs</text>
<polygon fill="none" stroke="black" points="9,-177.75 9,-199.5 238.5,-199.5 238.5,-177.75 9,-177.75"/>
<text text-anchor="start" x="83.62" y="-183.2" font-family="Times New Roman,serif" font-size="14.00">[String] Preset</text>
<polygon fill="none" stroke="black" points="8,-176.75 8,-289.75 239.5,-289.75 239.5,-176.75 8,-176.75"/>
</g>
<!-- 10676&#45;&gt;10673 -->
<g id="edge1" class="edge">
<title>10676:10678&#45;&gt;10673:10677</title>
<path fill="none" stroke="#008000" stroke-dasharray="5,2" d="M123.75,-176.25C123.75,-145.4 91.74,-150.18 81.75,-121 67.99,-80.79 39.84,-26.82 69.58,-17.05"/>
<polygon fill="#008000" stroke="#008000" points="69.83,-20.55 79.25,-15.71 68.86,-13.61 69.83,-20.55"/>
<text text-anchor="middle" x="133" y="-141.45" font-family="Times New Roman,serif" font-size="14.00" fill="#008000">Preset</text>
</g>
<!-- 10679 -->
<g id="node3" class="node">
<title>10679</title>
<ellipse fill="mediumpurple" stroke="mediumpurple" cx="296.75" cy="-233.25" rx="31.39" ry="18"/>
<text text-anchor="start" x="281.75" y="-229.2" font-family="Times New Roman,serif" font-weight="bold" font-size="14.00" fill="white">Root</text>
</g>
<!-- 10679&#45;&gt;10673 -->
<g id="edge2" class="edge">
<title>10679&#45;&gt;10673</title>
<path fill="none" stroke="black" d="M288.25,-215.57C278.26,-195.96 261.03,-162.15 245.26,-131.19"/>
<polygon fill="black" stroke="black" points="248.54,-129.93 240.89,-122.61 242.31,-133.11 248.54,-129.93"/>
</g>
</g>
</svg>
