<?xml version="1.0" encoding="UTF-8" standalone="no"?>
<!DOCTYPE svg PUBLIC "-//W3C//DTD SVG 1.1//EN"
 "http://www.w3.org/Graphics/SVG/1.1/DTD/svg11.dtd">
<!-- Generated by graphviz version 9.0.0 (20230911.1827)
 -->
<!-- Title: PlusMenuToMinusMenu.module Pages: 1 -->
<svg width="283pt" height="157pt"
 viewBox="0.00 0.00 282.50 156.75" xmlns="http://www.w3.org/2000/svg" xmlns:xlink="http://www.w3.org/1999/xlink">
<g id="graph0" class="graph" transform="scale(1 1) rotate(0) translate(4 152.75)">
<title>PlusMenuToMinusMenu.module</title>
<polygon fill="lightgray" stroke="none" points="-4,4 -4,-152.75 278.5,-152.75 278.5,4 -4,4"/>
<!-- 11759 -->
<g id="node1" class="node">
<title>11759</title>
<polygon fill="none" stroke="black" stroke-width="2" points="274.5,-76.75 0,-76.75 0,0 274.5,0 274.5,-76.75"/>
<polygon fill="none" stroke="black" points="9,-49.25 9,-71.75 265.5,-71.75 265.5,-49.25 9,-49.25"/>
<text text-anchor="start" x="76.88" y="-56.45" font-family="Times New Roman,serif" font-weight="bold" font-size="14.00">SeqOneShotEnd (0)</text>
<polygon fill="none" stroke="black" points="9,-26.75 9,-49.25 265.5,-49.25 265.5,-26.75 9,-26.75"/>
<text text-anchor="start" x="105.38" y="-33.95" font-family="Times New Roman,serif" font-weight="bold" font-size="14.00">Properties</text>
<polygon fill="none" stroke="black" points="9,-5 9,-26.75 265.5,-26.75 265.5,-5 9,-5"/>
<text text-anchor="start" x="12" y="-10.45" font-family="Times New Roman,serif" font-size="14.00">[Bool] ExecuteEveryFrame (default = False) </text>
<polygon fill="none" stroke="black" points="8,-4 8,-72.75 266.5,-72.75 266.5,-4 8,-4"/>
</g>
<!-- 11760 -->
<g id="node2" class="node">
<title>11760</title>
<ellipse fill="mediumpurple" stroke="mediumpurple" cx="137.25" cy="-130.75" rx="31.39" ry="18"/>
<text text-anchor="start" x="122.25" y="-126.7" font-family="Times New Roman,serif" font-weight="bold" font-size="14.00" fill="white">Root</text>
</g>
<!-- 11760&#45;&gt;11759 -->
<g id="edge1" class="edge">
<title>11760&#45;&gt;11759</title>
<path fill="none" stroke="black" d="M137.25,-112.32C137.25,-105.33 137.25,-96.9 137.25,-88.28"/>
<polygon fill="black" stroke="black" points="140.75,-88.46 137.25,-78.46 133.75,-88.46 140.75,-88.46"/>
</g>
</g>
</svg>
