<?xml version="1.0" encoding="UTF-8" standalone="no"?>
<!DOCTYPE svg PUBLIC "-//W3C//DTD SVG 1.1//EN"
 "http://www.w3.org/Graphics/SVG/1.1/DTD/svg11.dtd">
<!-- Generated by graphviz version 9.0.0 (20230911.1827)
 -->
<!-- Title: PlusMenuToTitle.module Pages: 1 -->
<svg width="3651pt" height="742pt"
 viewBox="0.00 0.00 3651.00 741.75" xmlns="http://www.w3.org/2000/svg" xmlns:xlink="http://www.w3.org/1999/xlink">
<g id="graph0" class="graph" transform="scale(1 1) rotate(0) translate(4 737.75)">
<title>PlusMenuToTitle.module</title>
<polygon fill="lightgray" stroke="none" points="-4,4 -4,-737.75 3647,-737.75 3647,4 -4,4"/>
<!-- 11763 -->
<g id="node1" class="node">
<title>11763</title>
<polygon fill="none" stroke="black" stroke-width="2" points="2259.75,-660.75 1973.25,-660.75 1973.25,-453.5 2259.75,-453.5 2259.75,-660.75"/>
<polygon fill="none" stroke="black" points="1982.25,-633.25 1982.25,-655.75 2250.75,-655.75 2250.75,-633.25 1982.25,-633.25"/>
<text text-anchor="start" x="2045.62" y="-640.45" font-family="Times New Roman,serif" font-weight="bold" font-size="14.00">Element_Sequential (0)</text>
<polygon fill="none" stroke="black" points="1982.25,-610.75 1982.25,-633.25 2250.75,-633.25 2250.75,-610.75 1982.25,-610.75"/>
<text text-anchor="start" x="2084.62" y="-617.95" font-family="Times New Roman,serif" font-weight="bold" font-size="14.00">Properties</text>
<polygon fill="none" stroke="black" points="1982.25,-589 1982.25,-610.75 2250.75,-610.75 2250.75,-589 1982.25,-589"/>
<text text-anchor="start" x="2032.5" y="-594.45" font-family="Times New Roman,serif" font-size="14.00">[Int] BusyPolicy (default = 0) </text>
<polygon fill="none" stroke="black" points="1982.25,-567.25 1982.25,-589 2250.75,-589 2250.75,-567.25 1982.25,-567.25"/>
<text text-anchor="start" x="2035.5" y="-572.7" font-family="Times New Roman,serif" font-size="14.00">[Int] NumLoop (default = 0) </text>
<polygon fill="none" stroke="black" points="1982.25,-545.5 1982.25,-567.25 2250.75,-567.25 2250.75,-545.5 1982.25,-545.5"/>
<text text-anchor="start" x="2034.75" y="-550.95" font-family="Times New Roman,serif" font-size="14.00">[Int] PlayPolicy (default = 0) </text>
<polygon fill="none" stroke="black" points="1982.25,-523.75 1982.25,-545.5 2250.75,-545.5 2250.75,-523.75 1982.25,-523.75"/>
<text text-anchor="start" x="2029.12" y="-529.2" font-family="Times New Roman,serif" font-size="14.00">[Int] ResultPolicy (default = 0) </text>
<polygon fill="none" stroke="black" points="1982.25,-502 1982.25,-523.75 2250.75,-523.75 2250.75,-502 1982.25,-502"/>
<text text-anchor="start" x="2010" y="-507.45" font-family="Times New Roman,serif" font-size="14.00">[Bool] IsDelayJudge (default = False) </text>
<polygon fill="none" stroke="black" points="1982.25,-480.25 1982.25,-502 2250.75,-502 2250.75,-480.25 1982.25,-480.25"/>
<text text-anchor="start" x="2026.5" y="-485.7" font-family="Times New Roman,serif" font-size="14.00">[Bool] IsLoop (default = False) </text>
<polygon fill="none" stroke="black" points="1982.25,-458.5 1982.25,-480.25 2250.75,-480.25 2250.75,-458.5 1982.25,-458.5"/>
<text text-anchor="start" x="1985.25" y="-463.95" font-family="Times New Roman,serif" font-size="14.00">[Bool] IsUpdateNextInFrame (default = False) </text>
<polygon fill="none" stroke="black" points="1981.25,-457.5 1981.25,-656.75 2251.75,-656.75 2251.75,-457.5 1981.25,-457.5"/>
</g>
<!-- 11766 -->
<g id="node2" class="node">
<title>11766</title>
<polygon fill="none" stroke="black" stroke-width="2" points="652.12,-336.5 352.88,-336.5 352.88,-259.75 652.12,-259.75 652.12,-336.5"/>
<polygon fill="none" stroke="black" points="361.88,-309 361.88,-331.5 643.12,-331.5 643.12,-309 361.88,-309"/>
<text text-anchor="start" x="386.62" y="-316.2" font-family="Times New Roman,serif" font-weight="bold" font-size="14.00">PrepareScreensOfLoading.module (7)</text>
<polygon fill="none" stroke="black" points="361.88,-286.5 361.88,-309 643.12,-309 643.12,-286.5 361.88,-286.5"/>
<text text-anchor="start" x="483.38" y="-293.7" font-family="Times New Roman,serif" font-weight="bold" font-size="14.00">Inputs</text>
<polygon fill="none" stroke="black" points="361.88,-264.75 361.88,-286.5 643.12,-286.5 643.12,-264.75 361.88,-264.75"/>
<text text-anchor="start" x="364.88" y="-270.2" font-family="Times New Roman,serif" font-size="14.00">[Bool] IsLoadingFromSaveData (default = True) </text>
<polygon fill="none" stroke="black" points="360.88,-263.75 360.88,-332.5 644.12,-332.5 644.12,-263.75 360.88,-263.75"/>
</g>
<!-- 11763&#45;&gt;11766 -->
<g id="edge1" class="edge">
<title>11763&#45;&gt;11766</title>
<path fill="none" stroke="firebrick" stroke-width="2" d="M1972.83,-541.88C1752.68,-519.9 1318.66,-476.04 950.5,-435.5 821.96,-421.35 783.21,-445.45 661.5,-401.75 624.25,-388.38 586.85,-364.86 557.69,-343.72"/>
<polygon fill="firebrick" stroke="firebrick" stroke-width="2" points="561.08,-341.87 550.96,-338.75 556.92,-347.5 561.08,-341.87"/>
</g>
<!-- 11769 -->
<g id="node3" class="node">
<title>11769</title>
<polygon fill="none" stroke="black" stroke-width="2" points="868.88,-347.38 670.12,-347.38 670.12,-248.88 868.88,-248.88 868.88,-347.38"/>
<polygon fill="none" stroke="black" points="679.12,-319.88 679.12,-342.38 859.88,-342.38 859.88,-319.88 679.12,-319.88"/>
<text text-anchor="start" x="685.88" y="-327.07" font-family="Times New Roman,serif" font-weight="bold" font-size="14.00">Element_Simultaneous (15)</text>
<polygon fill="none" stroke="black" points="679.12,-297.38 679.12,-319.88 859.88,-319.88 859.88,-297.38 679.12,-297.38"/>
<text text-anchor="start" x="737.62" y="-304.57" font-family="Times New Roman,serif" font-weight="bold" font-size="14.00">Properties</text>
<polygon fill="none" stroke="black" points="679.12,-275.62 679.12,-297.38 859.88,-297.38 859.88,-275.62 679.12,-275.62"/>
<text text-anchor="start" x="688.5" y="-281.07" font-family="Times New Roman,serif" font-size="14.00">[Int] EndPolicy (default = 0) </text>
<polygon fill="none" stroke="black" points="679.12,-253.88 679.12,-275.62 859.88,-275.62 859.88,-253.88 679.12,-253.88"/>
<text text-anchor="start" x="682.12" y="-259.32" font-family="Times New Roman,serif" font-size="14.00">[Int] ResultPolicy (default = 0) </text>
<polygon fill="none" stroke="black" points="678.12,-252.88 678.12,-343.38 860.88,-343.38 860.88,-252.88 678.12,-252.88"/>
</g>
<!-- 11763&#45;&gt;11769 -->
<g id="edge2" class="edge">
<title>11763&#45;&gt;11769</title>
<path fill="none" stroke="firebrick" stroke-width="2" d="M1972.89,-547.41C1694.61,-528.97 1092.47,-481.06 901.5,-401.75 874.88,-390.69 849.04,-372.77 827.39,-354.97"/>
<polygon fill="firebrick" stroke="firebrick" stroke-width="2" points="830.91,-353.36 821.01,-349.59 826.4,-358.71 830.91,-353.36"/>
</g>
<!-- 11781 -->
<g id="node4" class="node">
<title>11781</title>
<polygon fill="none" stroke="black" stroke-width="2" points="1196.75,-401.75 910.25,-401.75 910.25,-194.5 1196.75,-194.5 1196.75,-401.75"/>
<polygon fill="none" stroke="black" points="919.25,-374.25 919.25,-396.75 1187.75,-396.75 1187.75,-374.25 919.25,-374.25"/>
<text text-anchor="start" x="982.62" y="-381.45" font-family="Times New Roman,serif" font-weight="bold" font-size="14.00">Element_Sequential (4)</text>
<polygon fill="none" stroke="black" points="919.25,-351.75 919.25,-374.25 1187.75,-374.25 1187.75,-351.75 919.25,-351.75"/>
<text text-anchor="start" x="1021.62" y="-358.95" font-family="Times New Roman,serif" font-weight="bold" font-size="14.00">Properties</text>
<polygon fill="none" stroke="black" points="919.25,-330 919.25,-351.75 1187.75,-351.75 1187.75,-330 919.25,-330"/>
<text text-anchor="start" x="969.5" y="-335.45" font-family="Times New Roman,serif" font-size="14.00">[Int] BusyPolicy (default = 0) </text>
<polygon fill="none" stroke="black" points="919.25,-308.25 919.25,-330 1187.75,-330 1187.75,-308.25 919.25,-308.25"/>
<text text-anchor="start" x="972.5" y="-313.7" font-family="Times New Roman,serif" font-size="14.00">[Int] NumLoop (default = 0) </text>
<polygon fill="none" stroke="black" points="919.25,-286.5 919.25,-308.25 1187.75,-308.25 1187.75,-286.5 919.25,-286.5"/>
<text text-anchor="start" x="971.75" y="-291.95" font-family="Times New Roman,serif" font-size="14.00">[Int] PlayPolicy (default = 0) </text>
<polygon fill="none" stroke="black" points="919.25,-264.75 919.25,-286.5 1187.75,-286.5 1187.75,-264.75 919.25,-264.75"/>
<text text-anchor="start" x="966.12" y="-270.2" font-family="Times New Roman,serif" font-size="14.00">[Int] ResultPolicy (default = 0) </text>
<polygon fill="none" stroke="black" points="919.25,-243 919.25,-264.75 1187.75,-264.75 1187.75,-243 919.25,-243"/>
<text text-anchor="start" x="947" y="-248.45" font-family="Times New Roman,serif" font-size="14.00">[Bool] IsDelayJudge (default = False) </text>
<polygon fill="none" stroke="black" points="919.25,-221.25 919.25,-243 1187.75,-243 1187.75,-221.25 919.25,-221.25"/>
<text text-anchor="start" x="963.5" y="-226.7" font-family="Times New Roman,serif" font-size="14.00">[Bool] IsLoop (default = False) </text>
<polygon fill="none" stroke="black" points="919.25,-199.5 919.25,-221.25 1187.75,-221.25 1187.75,-199.5 919.25,-199.5"/>
<text text-anchor="start" x="922.25" y="-204.95" font-family="Times New Roman,serif" font-size="14.00">[Bool] IsUpdateNextInFrame (default = False) </text>
<polygon fill="none" stroke="black" points="918.25,-198.5 918.25,-397.75 1188.75,-397.75 1188.75,-198.5 918.25,-198.5"/>
</g>
<!-- 11763&#45;&gt;11781 -->
<g id="edge3" class="edge">
<title>11763&#45;&gt;11781</title>
<path fill="none" stroke="firebrick" stroke-width="2" d="M1972.76,-550.35C1791.48,-538.98 1472.55,-505.33 1207.73,-401.99"/>
<polygon fill="firebrick" stroke="firebrick" stroke-width="2" points="1210.54,-399.34 1199.96,-398.93 1207.97,-405.85 1210.54,-399.34"/>
</g>
<!-- 11790 -->
<g id="node5" class="node">
<title>11790</title>
<polygon fill="none" stroke="black" stroke-width="2" points="1489.75,-336.5 1215.25,-336.5 1215.25,-259.75 1489.75,-259.75 1489.75,-336.5"/>
<polygon fill="none" stroke="black" points="1224.25,-309 1224.25,-331.5 1480.75,-331.5 1480.75,-309 1224.25,-309"/>
<text text-anchor="start" x="1244.88" y="-316.2" font-family="Times New Roman,serif" font-weight="bold" font-size="14.00">SeqOneShotXLinkModuleReset (9)</text>
<polygon fill="none" stroke="black" points="1224.25,-286.5 1224.25,-309 1480.75,-309 1480.75,-286.5 1224.25,-286.5"/>
<text text-anchor="start" x="1320.62" y="-293.7" font-family="Times New Roman,serif" font-weight="bold" font-size="14.00">Properties</text>
<polygon fill="none" stroke="black" points="1224.25,-264.75 1224.25,-286.5 1480.75,-286.5 1480.75,-264.75 1224.25,-264.75"/>
<text text-anchor="start" x="1227.25" y="-270.2" font-family="Times New Roman,serif" font-size="14.00">[Bool] ExecuteEveryFrame (default = False) </text>
<polygon fill="none" stroke="black" points="1223.25,-263.75 1223.25,-332.5 1481.75,-332.5 1481.75,-263.75 1223.25,-263.75"/>
</g>
<!-- 11763&#45;&gt;11790 -->
<g id="edge4" class="edge">
<title>11763&#45;&gt;11790</title>
<path fill="none" stroke="firebrick" stroke-width="2" d="M1972.84,-535.43C1844.54,-513.44 1653.63,-471.94 1499.5,-401.75 1466.29,-386.63 1432.66,-363.83 1405.97,-343.56"/>
<polygon fill="firebrick" stroke="firebrick" stroke-width="2" points="1409.65,-341.98 1399.59,-338.65 1405.38,-347.52 1409.65,-341.98"/>
</g>
<!-- 11793 -->
<g id="node6" class="node">
<title>11793</title>
<polygon fill="none" stroke="black" stroke-width="2" points="1950.75,-380.38 1508.25,-380.38 1508.25,-215.88 1950.75,-215.88 1950.75,-380.38"/>
<polygon fill="none" stroke="black" points="1517.25,-352.88 1517.25,-375.38 1941.75,-375.38 1941.75,-352.88 1517.25,-352.88"/>
<text text-anchor="start" x="1588.88" y="-360.07" font-family="Times New Roman,serif" font-weight="bold" font-size="14.00">SeqOneShotSetNonStructGameDataBool (10)</text>
<polygon fill="none" stroke="black" points="1517.25,-330.38 1517.25,-352.88 1941.75,-352.88 1941.75,-330.38 1517.25,-330.38"/>
<text text-anchor="start" x="1697.62" y="-337.57" font-family="Times New Roman,serif" font-weight="bold" font-size="14.00">Properties</text>
<polygon fill="none" stroke="black" points="1517.25,-308.62 1517.25,-330.38 1941.75,-330.38 1941.75,-308.62 1517.25,-308.62"/>
<text text-anchor="start" x="1604.25" y="-314.07" font-family="Times New Roman,serif" font-size="14.00">[Bool] ExecuteEveryFrame (default = False) </text>
<polygon fill="none" stroke="black" points="1517.25,-286.12 1517.25,-308.62 1941.75,-308.62 1941.75,-286.12 1517.25,-286.12"/>
<text text-anchor="start" x="1710.38" y="-293.32" font-family="Times New Roman,serif" font-weight="bold" font-size="14.00">Inputs</text>
<polygon fill="none" stroke="black" points="1517.25,-264.38 1517.25,-286.12 1941.75,-286.12 1941.75,-264.38 1517.25,-264.38"/>
<text text-anchor="start" x="1630.12" y="-269.82" font-family="Times New Roman,serif" font-size="14.00">[Int] GameDataIndex (default = &#45;1) </text>
<polygon fill="none" stroke="black" points="1517.25,-242.62 1517.25,-264.38 1941.75,-264.38 1941.75,-242.62 1517.25,-242.62"/>
<text text-anchor="start" x="1644.38" y="-248.07" font-family="Times New Roman,serif" font-size="14.00">[Bool] Value (default = False) </text>
<polygon fill="none" stroke="black" points="1517.25,-220.88 1517.25,-242.62 1941.75,-242.62 1941.75,-220.88 1517.25,-220.88"/>
<text text-anchor="start" x="1520.25" y="-226.32" font-family="Times New Roman,serif" font-size="14.00">[String] GameDataFullName (default = System_IsSaveTemporaryStorage) </text>
<polygon fill="none" stroke="black" points="1516.25,-219.88 1516.25,-376.38 1942.75,-376.38 1942.75,-219.88 1516.25,-219.88"/>
</g>
<!-- 11763&#45;&gt;11793 -->
<g id="edge5" class="edge">
<title>11763&#45;&gt;11793</title>
<path fill="none" stroke="firebrick" stroke-width="2" d="M1972.95,-460.79C1936.61,-436.66 1897.76,-410.86 1862,-387.11"/>
<polygon fill="firebrick" stroke="firebrick" stroke-width="2" points="1865.28,-385.09 1855.01,-382.47 1861.41,-390.92 1865.28,-385.09"/>
</g>
<!-- 11796 -->
<g id="node7" class="node">
<title>11796</title>
<polygon fill="none" stroke="black" stroke-width="2" points="2264.25,-336.5 1968.75,-336.5 1968.75,-259.75 2264.25,-259.75 2264.25,-336.5"/>
<polygon fill="none" stroke="black" points="1977.75,-309 1977.75,-331.5 2255.25,-331.5 2255.25,-309 1977.75,-309"/>
<text text-anchor="start" x="1980.75" y="-316.2" font-family="Times New Roman,serif" font-weight="bold" font-size="14.00">SeqOneShotGameSafetyMgrStopSafety (13)</text>
<polygon fill="none" stroke="black" points="1977.75,-286.5 1977.75,-309 2255.25,-309 2255.25,-286.5 1977.75,-286.5"/>
<text text-anchor="start" x="2084.62" y="-293.7" font-family="Times New Roman,serif" font-weight="bold" font-size="14.00">Properties</text>
<polygon fill="none" stroke="black" points="1977.75,-264.75 1977.75,-286.5 2255.25,-286.5 2255.25,-264.75 1977.75,-264.75"/>
<text text-anchor="start" x="1991.25" y="-270.2" font-family="Times New Roman,serif" font-size="14.00">[Bool] ExecuteEveryFrame (default = False) </text>
<polygon fill="none" stroke="black" points="1976.75,-263.75 1976.75,-332.5 2256.25,-332.5 2256.25,-263.75 1976.75,-263.75"/>
</g>
<!-- 11763&#45;&gt;11796 -->
<g id="edge6" class="edge">
<title>11763&#45;&gt;11796</title>
<path fill="none" stroke="firebrick" stroke-width="2" d="M2116.5,-453.07C2116.5,-416.83 2116.5,-377.77 2116.5,-348.06"/>
<polygon fill="firebrick" stroke="firebrick" stroke-width="2" points="2120,-349.78 2116.5,-339.78 2113,-349.78 2120,-349.78"/>
</g>
<!-- 11799 -->
<g id="node8" class="node">
<title>11799</title>
<polygon fill="none" stroke="black" stroke-width="2" points="2449.12,-316.12 2281.88,-316.12 2281.88,-280.12 2449.12,-280.12 2449.12,-316.12"/>
<polygon fill="none" stroke="black" points="2290.88,-286.88 2290.88,-309.38 2440.12,-309.38 2440.12,-286.88 2290.88,-286.88"/>
<text text-anchor="start" x="2293.88" y="-294.07" font-family="Times New Roman,serif" font-weight="bold" font-size="14.00">UnloadBanc.module (3)</text>
<polygon fill="none" stroke="black" points="2289.88,-285.88 2289.88,-310.38 2441.12,-310.38 2441.12,-285.88 2289.88,-285.88"/>
</g>
<!-- 11763&#45;&gt;11799 -->
<g id="edge7" class="edge">
<title>11763&#45;&gt;11799</title>
<path fill="none" stroke="firebrick" stroke-width="2" d="M2222.97,-453.22C2240.05,-436.21 2257.4,-418.61 2273.5,-401.75 2297.83,-376.27 2324.6,-346.16 2342.96,-325.17"/>
<polygon fill="firebrick" stroke="firebrick" stroke-width="2" points="2344.6,-328.61 2348.53,-318.78 2339.32,-324.01 2344.6,-328.61"/>
</g>
<!-- 11805 -->
<g id="node9" class="node">
<title>11805</title>
<polygon fill="none" stroke="black" stroke-width="2" points="2771.75,-369.88 2467.25,-369.88 2467.25,-226.38 2771.75,-226.38 2771.75,-369.88"/>
<polygon fill="none" stroke="black" points="2476.25,-342.38 2476.25,-364.88 2762.75,-364.88 2762.75,-342.38 2476.25,-342.38"/>
<text text-anchor="start" x="2523.5" y="-349.57" font-family="Times New Roman,serif" font-weight="bold" font-size="14.00">SeqOneShotChangeScenery (8)</text>
<polygon fill="none" stroke="black" points="2476.25,-319.88 2476.25,-342.38 2762.75,-342.38 2762.75,-319.88 2476.25,-319.88"/>
<text text-anchor="start" x="2587.62" y="-327.07" font-family="Times New Roman,serif" font-weight="bold" font-size="14.00">Properties</text>
<polygon fill="none" stroke="black" points="2476.25,-298.12 2476.25,-319.88 2762.75,-319.88 2762.75,-298.12 2476.25,-298.12"/>
<text text-anchor="start" x="2494.25" y="-303.57" font-family="Times New Roman,serif" font-size="14.00">[Bool] ExecuteEveryFrame (default = False) </text>
<polygon fill="none" stroke="black" points="2476.25,-275.62 2476.25,-298.12 2762.75,-298.12 2762.75,-275.62 2476.25,-275.62"/>
<text text-anchor="start" x="2600.38" y="-282.82" font-family="Times New Roman,serif" font-weight="bold" font-size="14.00">Inputs</text>
<polygon fill="none" stroke="black" points="2476.25,-253.12 2476.25,-275.62 2762.75,-275.62 2762.75,-253.12 2476.25,-253.12"/>
<text text-anchor="start" x="2507.38" y="-259.32" font-family="Times New Roman,serif" font-size="14.00">[String] SceneryName (default = 無し) </text>
<polygon fill="none" stroke="black" points="2476.25,-231.38 2476.25,-253.12 2762.75,-253.12 2762.75,-231.38 2476.25,-231.38"/>
<text text-anchor="start" x="2479.25" y="-236.82" font-family="Times New Roman,serif" font-size="14.00">[const void*] GameBancParam (default = nullptr) </text>
<polygon fill="none" stroke="black" points="2475.25,-230.38 2475.25,-365.88 2763.75,-365.88 2763.75,-230.38 2475.25,-230.38"/>
</g>
<!-- 11763&#45;&gt;11805 -->
<g id="edge8" class="edge">
<title>11763&#45;&gt;11805</title>
<path fill="none" stroke="firebrick" stroke-width="2" d="M2260.15,-496.76C2322.15,-469.74 2394.9,-436.15 2458.5,-401.75 2473.09,-393.86 2488.13,-385.13 2502.88,-376.2"/>
<polygon fill="firebrick" stroke="firebrick" stroke-width="2" points="2503.23,-380.08 2509.94,-371.88 2499.58,-374.11 2503.23,-380.08"/>
</g>
<!-- 11808 -->
<g id="node10" class="node">
<title>11808</title>
<polygon fill="none" stroke="black" stroke-width="2" points="3120.88,-336.5 2790.12,-336.5 2790.12,-259.75 3120.88,-259.75 3120.88,-336.5"/>
<polygon fill="none" stroke="black" points="2799.12,-309 2799.12,-331.5 3111.88,-331.5 3111.88,-309 2799.12,-309"/>
<text text-anchor="start" x="2882.75" y="-316.2" font-family="Times New Roman,serif" font-weight="bold" font-size="14.00">BeforeTitle.module (11)</text>
<polygon fill="none" stroke="black" points="2799.12,-286.5 2799.12,-309 3111.88,-309 3111.88,-286.5 2799.12,-286.5"/>
<text text-anchor="start" x="2936.38" y="-293.7" font-family="Times New Roman,serif" font-weight="bold" font-size="14.00">Inputs</text>
<polygon fill="none" stroke="black" points="2799.12,-264.75 2799.12,-286.5 3111.88,-286.5 3111.88,-264.75 2799.12,-264.75"/>
<text text-anchor="start" x="2802.12" y="-270.2" font-family="Times New Roman,serif" font-size="14.00">[Bool] IsSkipBeforeInitializeCommon (default = True) </text>
<polygon fill="none" stroke="black" points="2798.12,-263.75 2798.12,-332.5 3112.88,-332.5 3112.88,-263.75 2798.12,-263.75"/>
</g>
<!-- 11763&#45;&gt;11808 -->
<g id="edge9" class="edge">
<title>11763&#45;&gt;11808</title>
<path fill="none" stroke="firebrick" stroke-width="2" d="M2260.17,-535.6C2397.27,-513.04 2607.9,-470.57 2780.5,-401.75 2819.04,-386.38 2859.17,-363.42 2891.27,-343.12"/>
<polygon fill="firebrick" stroke="firebrick" stroke-width="2" points="2891.88,-346.88 2898.41,-338.54 2888.1,-340.99 2891.88,-346.88"/>
</g>
<!-- 11811 -->
<g id="node11" class="node">
<title>11811</title>
<polygon fill="none" stroke="black" stroke-width="2" points="3346.38,-316.12 3138.62,-316.12 3138.62,-280.12 3346.38,-280.12 3346.38,-316.12"/>
<polygon fill="none" stroke="black" points="3147.62,-286.88 3147.62,-309.38 3337.38,-309.38 3337.38,-286.88 3147.62,-286.88"/>
<text text-anchor="start" x="3150.62" y="-294.07" font-family="Times New Roman,serif" font-weight="bold" font-size="14.00">CloseLoadingFade.module (6)</text>
<polygon fill="none" stroke="black" points="3146.62,-285.88 3146.62,-310.38 3338.38,-310.38 3338.38,-285.88 3146.62,-285.88"/>
</g>
<!-- 11763&#45;&gt;11811 -->
<g id="edge10" class="edge">
<title>11763&#45;&gt;11811</title>
<path fill="none" stroke="firebrick" stroke-width="2" d="M2260.03,-544.53C2501.7,-523.32 2978.31,-473.72 3129.5,-401.75 3167.27,-383.77 3201.42,-348.95 3222.06,-324.89"/>
<polygon fill="firebrick" stroke="firebrick" stroke-width="2" points="3223.61,-328.49 3227.34,-318.58 3218.24,-324 3223.61,-328.49"/>
</g>
<!-- 11814 -->
<g id="node12" class="node">
<title>11814</title>
<polygon fill="none" stroke="black" stroke-width="2" points="3643,-336.5 3364,-336.5 3364,-259.75 3643,-259.75 3643,-336.5"/>
<polygon fill="none" stroke="black" points="3373,-309 3373,-331.5 3634,-331.5 3634,-309 3373,-309"/>
<text text-anchor="start" x="3436.38" y="-316.2" font-family="Times New Roman,serif" font-weight="bold" font-size="14.00">Element_StateEnd (1)</text>
<polygon fill="none" stroke="black" points="3373,-286.5 3373,-309 3634,-309 3634,-286.5 3373,-286.5"/>
<text text-anchor="start" x="3471.62" y="-293.7" font-family="Times New Roman,serif" font-weight="bold" font-size="14.00">Properties</text>
<polygon fill="none" stroke="black" points="3373,-264.75 3373,-286.5 3634,-286.5 3634,-264.75 3373,-264.75"/>
<text text-anchor="start" x="3376" y="-270.2" font-family="Times New Roman,serif" font-size="14.00">[String] TransitionCommand (default = Title) </text>
<polygon fill="none" stroke="black" points="3372,-263.75 3372,-332.5 3635,-332.5 3635,-263.75 3372,-263.75"/>
</g>
<!-- 11763&#45;&gt;11814 -->
<g id="edge11" class="edge">
<title>11763&#45;&gt;11814</title>
<path fill="none" stroke="midnightblue" stroke-width="2" d="M2260.12,-546.88C2542.14,-527.32 3158.02,-477.24 3355.5,-401.75 3390.53,-388.36 3425.22,-364.99 3452.21,-343.93"/>
<polygon fill="midnightblue" stroke="midnightblue" stroke-width="2" points="3453.03,-347.74 3458.68,-338.78 3448.68,-342.26 3453.03,-347.74"/>
<text text-anchor="middle" x="3307.62" y="-422.2" font-family="Times New Roman,serif" font-size="14.00" fill="midnightblue">Transition</text>
</g>
<!-- 11772 -->
<g id="node13" class="node">
<title>11772</title>
<polygon fill="none" stroke="black" stroke-width="2" points="267,-109.75 0,-109.75 0,-33 267,-33 267,-109.75"/>
<polygon fill="none" stroke="black" points="9,-82.25 9,-104.75 258,-104.75 258,-82.25 9,-82.25"/>
<text text-anchor="start" x="45.75" y="-89.45" font-family="Times New Roman,serif" font-weight="bold" font-size="14.00">SeqExecuteCloseScreen (14)</text>
<polygon fill="none" stroke="black" points="9,-59.75 9,-82.25 258,-82.25 258,-59.75 9,-59.75"/>
<text text-anchor="start" x="114.38" y="-66.95" font-family="Times New Roman,serif" font-weight="bold" font-size="14.00">Inputs</text>
<polygon fill="none" stroke="black" points="9,-38 9,-59.75 258,-59.75 258,-38 9,-38"/>
<text text-anchor="start" x="12" y="-43.45" font-family="Times New Roman,serif" font-size="14.00">[String] ScreenName (default = Pouch_00) </text>
<polygon fill="none" stroke="black" points="8,-37 8,-105.75 259,-105.75 259,-37 8,-37"/>
</g>
<!-- 11769&#45;&gt;11772 -->
<g id="edge12" class="edge">
<title>11769&#45;&gt;11772</title>
<path fill="none" stroke="firebrick" stroke-width="2" d="M730.48,-248.39C711.78,-228.41 687.74,-207.07 661.5,-194.5 583.65,-157.2 359.08,-167.89 276.5,-142.75 253.87,-135.86 230.4,-125.72 209.18,-115.27"/>
<polygon fill="firebrick" stroke="firebrick" stroke-width="2" points="212.17,-112.86 201.66,-111.49 209.02,-119.11 212.17,-112.86"/>
</g>
<!-- 11775 -->
<g id="node14" class="node">
<title>11775</title>
<polygon fill="none" stroke="black" stroke-width="2" points="605.62,-120.62 285.38,-120.62 285.38,-22.12 605.62,-22.12 605.62,-120.62"/>
<polygon fill="none" stroke="black" points="294.38,-93.12 294.38,-115.62 596.62,-115.62 596.62,-93.12 294.38,-93.12"/>
<text text-anchor="start" x="323.62" y="-100.33" font-family="Times New Roman,serif" font-weight="bold" font-size="14.00">SeqExecuteCloseAndUnloadScreen (16)</text>
<polygon fill="none" stroke="black" points="294.38,-70.62 294.38,-93.12 596.62,-93.12 596.62,-70.62 294.38,-70.62"/>
<text text-anchor="start" x="426.38" y="-77.83" font-family="Times New Roman,serif" font-weight="bold" font-size="14.00">Inputs</text>
<polygon fill="none" stroke="black" points="294.38,-48.88 294.38,-70.62 596.62,-70.62 596.62,-48.88 294.38,-48.88"/>
<text text-anchor="start" x="327.75" y="-54.33" font-family="Times New Roman,serif" font-size="14.00">[Bool] IsUnloadRequest (default = False) </text>
<polygon fill="none" stroke="black" points="294.38,-27.12 294.38,-48.88 596.62,-48.88 596.62,-27.12 294.38,-27.12"/>
<text text-anchor="start" x="297.38" y="-32.58" font-family="Times New Roman,serif" font-size="14.00">[String] ScreenName (default = SystemWindow_00) </text>
<polygon fill="none" stroke="black" points="293.38,-26.12 293.38,-116.62 597.62,-116.62 597.62,-26.12 293.38,-26.12"/>
</g>
<!-- 11769&#45;&gt;11775 -->
<g id="edge13" class="edge">
<title>11769&#45;&gt;11775</title>
<path fill="none" stroke="firebrick" stroke-width="2" d="M723.36,-248.48C705,-230.44 683.12,-210.5 661.5,-194.5 627.95,-169.67 588.86,-146.14 553.22,-126.48"/>
<polygon fill="firebrick" stroke="firebrick" stroke-width="2" points="556.38,-124.22 545.92,-122.49 553.02,-130.36 556.38,-124.22"/>
</g>
<!-- 11778 -->
<g id="node15" class="node">
<title>11778</title>
<polygon fill="none" stroke="black" stroke-width="2" points="915.38,-142.75 623.62,-142.75 623.62,0 915.38,0 915.38,-142.75"/>
<polygon fill="none" stroke="black" points="632.62,-115.25 632.62,-137.75 906.38,-137.75 906.38,-115.25 632.62,-115.25"/>
<text text-anchor="start" x="679.5" y="-122.45" font-family="Times New Roman,serif" font-weight="bold" font-size="14.00">SeqOneShotCloseScreen (17)</text>
<polygon fill="none" stroke="black" points="632.62,-92.75 632.62,-115.25 906.38,-115.25 906.38,-92.75 632.62,-92.75"/>
<text text-anchor="start" x="737.62" y="-99.95" font-family="Times New Roman,serif" font-weight="bold" font-size="14.00">Properties</text>
<polygon fill="none" stroke="black" points="632.62,-71 632.62,-92.75 906.38,-92.75 906.38,-71 632.62,-71"/>
<text text-anchor="start" x="644.25" y="-76.45" font-family="Times New Roman,serif" font-size="14.00">[Bool] ExecuteEveryFrame (default = False) </text>
<polygon fill="none" stroke="black" points="632.62,-48.5 632.62,-71 906.38,-71 906.38,-48.5 632.62,-48.5"/>
<text text-anchor="start" x="750.38" y="-55.7" font-family="Times New Roman,serif" font-weight="bold" font-size="14.00">Inputs</text>
<polygon fill="none" stroke="black" points="632.62,-26.75 632.62,-48.5 906.38,-48.5 906.38,-26.75 632.62,-26.75"/>
<text text-anchor="start" x="678" y="-32.2" font-family="Times New Roman,serif" font-size="14.00">[Bool] IsDirect (default = False) </text>
<polygon fill="none" stroke="black" points="632.62,-5 632.62,-26.75 906.38,-26.75 906.38,-5 632.62,-5"/>
<text text-anchor="start" x="635.62" y="-10.45" font-family="Times New Roman,serif" font-size="14.00">[String] ScreenName (default = SystemBG_00) </text>
<polygon fill="none" stroke="black" points="631.62,-4 631.62,-138.75 907.38,-138.75 907.38,-4 631.62,-4"/>
</g>
<!-- 11769&#45;&gt;11778 -->
<g id="edge14" class="edge">
<title>11769&#45;&gt;11778</title>
<path fill="none" stroke="firebrick" stroke-width="2" d="M769.5,-248.63C769.5,-221.17 769.5,-186.07 769.5,-154.44"/>
<polygon fill="firebrick" stroke="firebrick" stroke-width="2" points="773,-155.99 769.5,-145.99 766,-155.99 773,-155.99"/>
</g>
<!-- 11784 -->
<g id="node16" class="node">
<title>11784</title>
<polygon fill="none" stroke="black" stroke-width="2" points="1219.75,-109.75 933.25,-109.75 933.25,-33 1219.75,-33 1219.75,-109.75"/>
<polygon fill="none" stroke="black" points="942.25,-82.25 942.25,-104.75 1210.75,-104.75 1210.75,-82.25 942.25,-82.25"/>
<text text-anchor="start" x="966.25" y="-89.45" font-family="Times New Roman,serif" font-weight="bold" font-size="14.00">SeqExecuteLoadLayoutArchive (12)</text>
<polygon fill="none" stroke="black" points="942.25,-59.75 942.25,-82.25 1210.75,-82.25 1210.75,-59.75 942.25,-59.75"/>
<text text-anchor="start" x="1057.38" y="-66.95" font-family="Times New Roman,serif" font-weight="bold" font-size="14.00">Inputs</text>
<polygon fill="none" stroke="black" points="942.25,-38 942.25,-59.75 1210.75,-59.75 1210.75,-38 942.25,-38"/>
<text text-anchor="start" x="945.25" y="-43.45" font-family="Times New Roman,serif" font-size="14.00">[String] ArchiveCategory (default = Common) </text>
<polygon fill="none" stroke="black" points="941.25,-37 941.25,-105.75 1211.75,-105.75 1211.75,-37 941.25,-37"/>
</g>
<!-- 11781&#45;&gt;11784 -->
<g id="edge15" class="edge">
<title>11781&#45;&gt;11784</title>
<path fill="none" stroke="firebrick" stroke-width="2" d="M1064.02,-194.29C1066.62,-168.93 1069.28,-142.92 1071.48,-121.47"/>
<polygon fill="firebrick" stroke="firebrick" stroke-width="2" points="1074.8,-123.38 1072.34,-113.07 1067.84,-122.67 1074.8,-123.38"/>
</g>
<!-- 11787 -->
<g id="node17" class="node">
<title>11787</title>
<polygon fill="none" stroke="black" stroke-width="2" points="1469,-89.38 1238,-89.38 1238,-53.38 1469,-53.38 1469,-89.38"/>
<polygon fill="none" stroke="black" points="1247,-60.12 1247,-82.62 1460,-82.62 1460,-60.12 1247,-60.12"/>
<text text-anchor="start" x="1250" y="-67.33" font-family="Times New Roman,serif" font-weight="bold" font-size="14.00">UnloadResidentScreen.module (2)</text>
<polygon fill="none" stroke="black" points="1246,-59.12 1246,-83.62 1461,-83.62 1461,-59.12 1246,-59.12"/>
</g>
<!-- 11781&#45;&gt;11787 -->
<g id="edge16" class="edge">
<title>11781&#45;&gt;11787</title>
<path fill="none" stroke="firebrick" stroke-width="2" d="M1190.77,-194.29C1239.29,-157.94 1289.59,-120.25 1321.19,-96.58"/>
<polygon fill="firebrick" stroke="firebrick" stroke-width="2" points="1322.04,-100.31 1327.95,-91.52 1317.85,-94.71 1322.04,-100.31"/>
</g>
<!-- 11802 -->
<g id="node18" class="node">
<title>11802</title>
<polygon fill="none" stroke="black" stroke-width="2" points="2472,-89.38 2259,-89.38 2259,-53.38 2472,-53.38 2472,-89.38"/>
<polygon fill="none" stroke="black" points="2268,-60.12 2268,-82.62 2463,-82.62 2463,-60.12 2268,-60.12"/>
<text text-anchor="start" x="2271" y="-67.33" font-family="Times New Roman,serif" font-weight="bold" font-size="14.00">SleepResidentActor.module (5)</text>
<polygon fill="none" stroke="black" points="2267,-59.12 2267,-83.62 2464,-83.62 2464,-59.12 2267,-59.12"/>
</g>
<!-- 11799&#45;&gt;11802 -->
<g id="edge17" class="edge">
<title>11799&#45;&gt;11802</title>
<path fill="none" stroke="firebrick" stroke-width="2" d="M2365.5,-279.86C2365.5,-241.38 2365.5,-148.22 2365.5,-100.94"/>
<polygon fill="firebrick" stroke="firebrick" stroke-width="2" points="2369,-102.72 2365.5,-92.72 2362,-102.72 2369,-102.72"/>
<text text-anchor="middle" x="2413.12" y="-163.2" font-family="Times New Roman,serif" font-size="14.00" fill="firebrick">DoBeforeUnload</text>
</g>
<!-- 11828 -->
<g id="node19" class="node">
<title>11828</title>
<ellipse fill="mediumpurple" stroke="mediumpurple" cx="2116.5" cy="-715.75" rx="31.39" ry="18"/>
<text text-anchor="start" x="2101.5" y="-711.7" font-family="Times New Roman,serif" font-weight="bold" font-size="14.00" fill="white">Root</text>
</g>
<!-- 11828&#45;&gt;11763 -->
<g id="edge18" class="edge">
<title>11828&#45;&gt;11763</title>
<path fill="none" stroke="black" d="M2116.5,-697.39C2116.5,-690.52 2116.5,-682.01 2116.5,-672.62"/>
<polygon fill="black" stroke="black" points="2120,-672.73 2116.5,-662.73 2113,-672.73 2120,-672.73"/>
</g>
</g>
</svg>
