<?xml version="1.0" encoding="UTF-8" standalone="no"?>
<!DOCTYPE svg PUBLIC "-//W3C//DTD SVG 1.1//EN"
 "http://www.w3.org/Graphics/SVG/1.1/DTD/svg11.dtd">
<!-- Generated by graphviz version 9.0.0 (20230911.1827)
 -->
<!-- Title: PlusMenu.module Pages: 1 -->
<svg width="1172pt" height="374pt"
 viewBox="0.00 0.00 1171.50 374.00" xmlns="http://www.w3.org/2000/svg" xmlns:xlink="http://www.w3.org/1999/xlink">
<g id="graph0" class="graph" transform="scale(1 1) rotate(0) translate(4 370)">
<title>PlusMenu.module</title>
<polygon fill="lightgray" stroke="none" points="-4,4 -4,-370 1167.5,-370 1167.5,4 -4,4"/>
<!-- 11524 -->
<g id="node1" class="node">
<title>11524</title>
<polygon fill="none" stroke="black" stroke-width="2" points="718.25,-293 587.75,-293 587.75,-257 718.25,-257 718.25,-293"/>
<polygon fill="none" stroke="black" points="596.75,-263.75 596.75,-286.25 709.25,-286.25 709.25,-263.75 596.75,-263.75"/>
<text text-anchor="start" x="599.75" y="-270.95" font-family="Times New Roman,serif" font-weight="bold" font-size="14.00">Pouch.module (3)</text>
<polygon fill="none" stroke="black" points="595.75,-262.75 595.75,-287.25 710.25,-287.25 710.25,-262.75 595.75,-262.75"/>
</g>
<!-- 11527 -->
<g id="node2" class="node">
<title>11527</title>
<polygon fill="none" stroke="black" stroke-width="2" points="262.62,-184.88 59.37,-184.88 59.37,-148.88 262.62,-148.88 262.62,-184.88"/>
<polygon fill="none" stroke="black" points="68.38,-155.62 68.38,-178.12 253.62,-178.12 253.62,-155.62 68.38,-155.62"/>
<text text-anchor="start" x="71.38" y="-162.82" font-family="Times New Roman,serif" font-weight="bold" font-size="14.00">PlusMenuToMain.module (5)</text>
<polygon fill="none" stroke="black" points="67.38,-154.62 67.38,-179.12 254.62,-179.12 254.62,-154.62 67.38,-154.62"/>
</g>
<!-- 11524&#45;&gt;11527 -->
<g id="edge1" class="edge">
<title>11524&#45;&gt;11527</title>
<path fill="none" stroke="midnightblue" stroke-width="2" d="M587.37,-261.81C518.18,-248.74 406.13,-226.93 310,-205.25 286.75,-200.01 261.57,-193.87 238.65,-188.1"/>
<polygon fill="midnightblue" stroke="midnightblue" stroke-width="2" points="241.08,-185.11 230.53,-186.05 239.36,-191.89 241.08,-185.11"/>
<text text-anchor="middle" x="483.88" y="-225.7" font-family="Times New Roman,serif" font-size="14.00" fill="midnightblue">Main</text>
</g>
<!-- 11533 -->
<g id="node3" class="node">
<title>11533</title>
<polygon fill="none" stroke="black" stroke-width="2" points="563.25,-184.88 318.75,-184.88 318.75,-148.88 563.25,-148.88 563.25,-184.88"/>
<polygon fill="none" stroke="black" points="327.75,-155.62 327.75,-178.12 554.25,-178.12 554.25,-155.62 327.75,-155.62"/>
<text text-anchor="start" x="330.75" y="-162.82" font-family="Times New Roman,serif" font-weight="bold" font-size="14.00">PlusMenuToMinusMenu.module (4)</text>
<polygon fill="none" stroke="black" points="326.75,-154.62 326.75,-179.12 555.25,-179.12 555.25,-154.62 326.75,-154.62"/>
</g>
<!-- 11524&#45;&gt;11533 -->
<g id="edge2" class="edge">
<title>11524&#45;&gt;11533</title>
<path fill="none" stroke="midnightblue" stroke-width="2" d="M618.47,-256.71C582.39,-238.65 525.63,-210.24 486.04,-190.42"/>
<polygon fill="midnightblue" stroke="midnightblue" stroke-width="2" points="489.09,-188.03 478.58,-186.69 485.95,-194.29 489.09,-188.03"/>
<text text-anchor="middle" x="612" y="-225.7" font-family="Times New Roman,serif" font-size="14.00" fill="midnightblue">MinusMenu</text>
</g>
<!-- 11539 -->
<g id="node4" class="node">
<title>11539</title>
<polygon fill="none" stroke="black" stroke-width="2" points="866.88,-205.25 581.12,-205.25 581.12,-128.5 866.88,-128.5 866.88,-205.25"/>
<polygon fill="none" stroke="black" points="590.12,-177.75 590.12,-200.25 857.88,-200.25 857.88,-177.75 590.12,-177.75"/>
<text text-anchor="start" x="656.88" y="-184.95" font-family="Times New Roman,serif" font-weight="bold" font-size="14.00">Element_StateEnd (6)</text>
<polygon fill="none" stroke="black" points="590.12,-155.25 590.12,-177.75 857.88,-177.75 857.88,-155.25 590.12,-155.25"/>
<text text-anchor="start" x="692.12" y="-162.45" font-family="Times New Roman,serif" font-weight="bold" font-size="14.00">Properties</text>
<polygon fill="none" stroke="black" points="590.12,-133.5 590.12,-155.25 857.88,-155.25 857.88,-133.5 590.12,-133.5"/>
<text text-anchor="start" x="593.12" y="-138.95" font-family="Times New Roman,serif" font-size="14.00">[String] TransitionCommand (default = Event) </text>
<polygon fill="none" stroke="black" points="589.12,-132.5 589.12,-201.25 858.88,-201.25 858.88,-132.5 589.12,-132.5"/>
</g>
<!-- 11524&#45;&gt;11539 -->
<g id="edge3" class="edge">
<title>11524&#45;&gt;11539</title>
<path fill="none" stroke="midnightblue" stroke-width="2" d="M664.41,-256.95C672.07,-245.5 682.56,-229.81 692.61,-214.79"/>
<polygon fill="midnightblue" stroke="midnightblue" stroke-width="2" points="694.45,-218.34 697.1,-208.08 688.63,-214.45 694.45,-218.34"/>
<text text-anchor="middle" x="702.75" y="-225.7" font-family="Times New Roman,serif" font-size="14.00" fill="midnightblue">Event</text>
</g>
<!-- 11542 -->
<g id="node5" class="node">
<title>11542</title>
<polygon fill="none" stroke="black" stroke-width="2" points="1163.5,-205.25 884.5,-205.25 884.5,-128.5 1163.5,-128.5 1163.5,-205.25"/>
<polygon fill="none" stroke="black" points="893.5,-177.75 893.5,-200.25 1154.5,-200.25 1154.5,-177.75 893.5,-177.75"/>
<text text-anchor="start" x="956.88" y="-184.95" font-family="Times New Roman,serif" font-weight="bold" font-size="14.00">Element_StateEnd (2)</text>
<polygon fill="none" stroke="black" points="893.5,-155.25 893.5,-177.75 1154.5,-177.75 1154.5,-155.25 893.5,-155.25"/>
<text text-anchor="start" x="992.12" y="-162.45" font-family="Times New Roman,serif" font-weight="bold" font-size="14.00">Properties</text>
<polygon fill="none" stroke="black" points="893.5,-133.5 893.5,-155.25 1154.5,-155.25 1154.5,-133.5 893.5,-133.5"/>
<text text-anchor="start" x="896.5" y="-138.95" font-family="Times New Roman,serif" font-size="14.00">[String] TransitionCommand (default = Title) </text>
<polygon fill="none" stroke="black" points="892.5,-132.5 892.5,-201.25 1155.5,-201.25 1155.5,-132.5 892.5,-132.5"/>
</g>
<!-- 11524&#45;&gt;11542 -->
<g id="edge4" class="edge">
<title>11524&#45;&gt;11542</title>
<path fill="none" stroke="midnightblue" stroke-width="2" d="M713.85,-256.59C759.23,-243.61 823.14,-225.33 881.16,-208.74"/>
<polygon fill="midnightblue" stroke="midnightblue" stroke-width="2" points="880.35,-212.61 889.01,-206.49 878.43,-205.88 880.35,-212.61"/>
<text text-anchor="middle" x="840.38" y="-225.7" font-family="Times New Roman,serif" font-size="14.00" fill="midnightblue">Title</text>
</g>
<!-- 11530 -->
<g id="node6" class="node">
<title>11530</title>
<polygon fill="none" stroke="black" stroke-width="2" points="282,-76.75 0,-76.75 0,0 282,0 282,-76.75"/>
<polygon fill="none" stroke="black" points="9,-49.25 9,-71.75 273,-71.75 273,-49.25 9,-49.25"/>
<text text-anchor="start" x="73.88" y="-56.45" font-family="Times New Roman,serif" font-weight="bold" font-size="14.00">Element_StateEnd (0)</text>
<polygon fill="none" stroke="black" points="9,-26.75 9,-49.25 273,-49.25 273,-26.75 9,-26.75"/>
<text text-anchor="start" x="109.12" y="-33.95" font-family="Times New Roman,serif" font-weight="bold" font-size="14.00">Properties</text>
<polygon fill="none" stroke="black" points="9,-5 9,-26.75 273,-26.75 273,-5 9,-5"/>
<text text-anchor="start" x="12" y="-10.45" font-family="Times New Roman,serif" font-size="14.00">[String] TransitionCommand (default = Main) </text>
<polygon fill="none" stroke="black" points="8,-4 8,-72.75 274,-72.75 274,-4 8,-4"/>
</g>
<!-- 11527&#45;&gt;11530 -->
<g id="edge5" class="edge">
<title>11527&#45;&gt;11530</title>
<path fill="none" stroke="midnightblue" stroke-width="2" d="M158.26,-148.55C155.81,-133.06 152.1,-109.61 148.75,-88.4"/>
<polygon fill="midnightblue" stroke="midnightblue" stroke-width="2" points="152.48,-89.57 147.46,-80.23 145.56,-90.66 152.48,-89.57"/>
<text text-anchor="middle" x="181.12" y="-97.2" font-family="Times New Roman,serif" font-size="14.00" fill="midnightblue">Transition</text>
</g>
<!-- 11536 -->
<g id="node7" class="node">
<title>11536</title>
<polygon fill="none" stroke="black" stroke-width="2" points="620.12,-76.75 299.88,-76.75 299.88,0 620.12,0 620.12,-76.75"/>
<polygon fill="none" stroke="black" points="308.88,-49.25 308.88,-71.75 611.12,-71.75 611.12,-49.25 308.88,-49.25"/>
<text text-anchor="start" x="392.88" y="-56.45" font-family="Times New Roman,serif" font-weight="bold" font-size="14.00">Element_StateEnd (1)</text>
<polygon fill="none" stroke="black" points="308.88,-26.75 308.88,-49.25 611.12,-49.25 611.12,-26.75 308.88,-26.75"/>
<text text-anchor="start" x="428.12" y="-33.95" font-family="Times New Roman,serif" font-weight="bold" font-size="14.00">Properties</text>
<polygon fill="none" stroke="black" points="308.88,-5 308.88,-26.75 611.12,-26.75 611.12,-5 308.88,-5"/>
<text text-anchor="start" x="311.88" y="-10.45" font-family="Times New Roman,serif" font-size="14.00">[String] TransitionCommand (default = MinusMenu) </text>
<polygon fill="none" stroke="black" points="307.88,-4 307.88,-72.75 612.12,-72.75 612.12,-4 307.88,-4"/>
</g>
<!-- 11533&#45;&gt;11536 -->
<g id="edge6" class="edge">
<title>11533&#45;&gt;11536</title>
<path fill="none" stroke="midnightblue" stroke-width="2" d="M443.6,-148.55C445.93,-133.06 449.45,-109.61 452.64,-88.4"/>
<polygon fill="midnightblue" stroke="midnightblue" stroke-width="2" points="455.84,-90.65 453.86,-80.24 448.92,-89.61 455.84,-90.65"/>
<text text-anchor="middle" x="480.12" y="-97.2" font-family="Times New Roman,serif" font-size="14.00" fill="midnightblue">Transition</text>
</g>
<!-- 11543 -->
<g id="node8" class="node">
<title>11543</title>
<ellipse fill="mediumpurple" stroke="mediumpurple" cx="653" cy="-348" rx="31.39" ry="18"/>
<text text-anchor="start" x="638" y="-343.95" font-family="Times New Roman,serif" font-weight="bold" font-size="14.00" fill="white">Root</text>
</g>
<!-- 11543&#45;&gt;11524 -->
<g id="edge7" class="edge">
<title>11543&#45;&gt;11524</title>
<path fill="none" stroke="black" d="M653,-329.81C653,-322.23 653,-313.1 653,-304.54"/>
<polygon fill="black" stroke="black" points="656.5,-304.54 653,-294.54 649.5,-304.54 656.5,-304.54"/>
</g>
</g>
</svg>
