<?xml version="1.0" encoding="UTF-8" standalone="no"?>
<!DOCTYPE svg PUBLIC "-//W3C//DTD SVG 1.1//EN"
 "http://www.w3.org/Graphics/SVG/1.1/DTD/svg11.dtd">
<!-- Generated by graphviz version 9.0.0 (20230911.1827)
 -->
<!-- Title: PlusMenuToMain.module Pages: 1 -->
<svg width="1385pt" height="1582pt"
 viewBox="0.00 0.00 1384.62 1581.75" xmlns="http://www.w3.org/2000/svg" xmlns:xlink="http://www.w3.org/1999/xlink">
<g id="graph0" class="graph" transform="scale(1 1) rotate(0) translate(4 1577.75)">
<title>PlusMenuToMain.module</title>
<polygon fill="lightgray" stroke="none" points="-4,4 -4,-1577.75 1380.62,-1577.75 1380.62,4 -4,4"/>
<!-- 11546 -->
<g id="node1" class="node">
<title>11546</title>
<polygon fill="none" stroke="black" stroke-width="2" points="726,-1279.88 527.25,-1279.88 527.25,-1181.38 726,-1181.38 726,-1279.88"/>
<polygon fill="none" stroke="black" points="536.25,-1252.38 536.25,-1274.88 717,-1274.88 717,-1252.38 536.25,-1252.38"/>
<text text-anchor="start" x="546.75" y="-1259.58" font-family="Times New Roman,serif" font-weight="bold" font-size="14.00">Element_Simultaneous (0)</text>
<polygon fill="none" stroke="black" points="536.25,-1229.88 536.25,-1252.38 717,-1252.38 717,-1229.88 536.25,-1229.88"/>
<text text-anchor="start" x="594.75" y="-1237.08" font-family="Times New Roman,serif" font-weight="bold" font-size="14.00">Properties</text>
<polygon fill="none" stroke="black" points="536.25,-1208.12 536.25,-1229.88 717,-1229.88 717,-1208.12 536.25,-1208.12"/>
<text text-anchor="start" x="545.62" y="-1213.58" font-family="Times New Roman,serif" font-size="14.00">[Int] EndPolicy (default = 0) </text>
<polygon fill="none" stroke="black" points="536.25,-1186.38 536.25,-1208.12 717,-1208.12 717,-1186.38 536.25,-1186.38"/>
<text text-anchor="start" x="539.25" y="-1191.83" font-family="Times New Roman,serif" font-size="14.00">[Int] ResultPolicy (default = 0) </text>
<polygon fill="none" stroke="black" points="535.25,-1185.38 535.25,-1275.88 718,-1275.88 718,-1185.38 535.25,-1185.38"/>
</g>
<!-- 11549 -->
<g id="node2" class="node">
<title>11549</title>
<polygon fill="none" stroke="black" stroke-width="2" points="819.5,-1063.25 503.75,-1063.25 503.75,-877 819.5,-877 819.5,-1063.25"/>
<polygon fill="none" stroke="black" points="512.75,-1035.75 512.75,-1058.25 810.5,-1058.25 810.5,-1035.75 512.75,-1035.75"/>
<text text-anchor="start" x="583.25" y="-1042.95" font-family="Times New Roman,serif" font-weight="bold" font-size="14.00">Element_BoolSelector (3)</text>
<polygon fill="none" stroke="black" points="512.75,-1013.25 512.75,-1035.75 810.5,-1035.75 810.5,-1013.25 512.75,-1013.25"/>
<text text-anchor="start" x="629.75" y="-1020.45" font-family="Times New Roman,serif" font-weight="bold" font-size="14.00">Properties</text>
<polygon fill="none" stroke="black" points="512.75,-991.5 512.75,-1013.25 810.5,-1013.25 810.5,-991.5 512.75,-991.5"/>
<text text-anchor="start" x="564.5" y="-996.95" font-family="Times New Roman,serif" font-size="14.00">[Int] CalculateTiming (default = 0) </text>
<polygon fill="none" stroke="black" points="512.75,-969.75 512.75,-991.5 810.5,-991.5 810.5,-969.75 512.75,-969.75"/>
<text text-anchor="start" x="545.38" y="-975.2" font-family="Times New Roman,serif" font-size="14.00">[Bool] ChildFrameSync (default = False) </text>
<polygon fill="none" stroke="black" points="512.75,-948 512.75,-969.75 810.5,-969.75 810.5,-948 512.75,-948"/>
<text text-anchor="start" x="561.88" y="-953.45" font-family="Times New Roman,serif" font-size="14.00">[Bool] InputValue (default = False) </text>
<polygon fill="none" stroke="black" points="512.75,-926.25 512.75,-948 810.5,-948 810.5,-926.25 512.75,-926.25"/>
<text text-anchor="start" x="515.75" y="-931.7" font-family="Times New Roman,serif" font-size="14.00">[Bool] IsNoSelectWhenChildBusy (default = False) </text>
<polygon fill="none" stroke="black" points="512.75,-903.75 512.75,-926.25 810.5,-926.25 810.5,-903.75 512.75,-903.75"/>
<text text-anchor="start" x="642.5" y="-910.95" font-family="Times New Roman,serif" font-weight="bold" font-size="14.00">Inputs</text>
<polygon fill="none" stroke="black" points="512.75,-882 512.75,-903.75 810.5,-903.75 810.5,-882 512.75,-882"/>
<text text-anchor="start" x="577.62" y="-887.45" font-family="Times New Roman,serif" font-size="14.00">[Bool] Input (default = False) </text>
<polygon fill="none" stroke="black" points="511.75,-881 511.75,-1059.25 811.5,-1059.25 811.5,-881 511.75,-881"/>
</g>
<!-- 11546&#45;&gt;11549 -->
<g id="edge1" class="edge">
<title>11546&#45;&gt;11549</title>
<path fill="none" stroke="firebrick" stroke-width="2" d="M633.21,-1181C637.25,-1151.12 642.6,-1111.65 647.56,-1075.01"/>
<polygon fill="firebrick" stroke="firebrick" stroke-width="2" points="650.8,-1077.13 648.68,-1066.75 643.87,-1076.19 650.8,-1077.13"/>
</g>
<!-- 11558 -->
<g id="node3" class="node">
<title>11558</title>
<polygon fill="none" stroke="black" stroke-width="2" points="609.5,-802.75 293.75,-802.75 293.75,-616.5 609.5,-616.5 609.5,-802.75"/>
<polygon fill="none" stroke="black" points="302.75,-775.25 302.75,-797.75 600.5,-797.75 600.5,-775.25 302.75,-775.25"/>
<text text-anchor="start" x="373.25" y="-782.45" font-family="Times New Roman,serif" font-weight="bold" font-size="14.00">Element_BoolSelector (8)</text>
<polygon fill="none" stroke="black" points="302.75,-752.75 302.75,-775.25 600.5,-775.25 600.5,-752.75 302.75,-752.75"/>
<text text-anchor="start" x="419.75" y="-759.95" font-family="Times New Roman,serif" font-weight="bold" font-size="14.00">Properties</text>
<polygon fill="none" stroke="black" points="302.75,-731 302.75,-752.75 600.5,-752.75 600.5,-731 302.75,-731"/>
<text text-anchor="start" x="354.5" y="-736.45" font-family="Times New Roman,serif" font-size="14.00">[Int] CalculateTiming (default = 0) </text>
<polygon fill="none" stroke="black" points="302.75,-709.25 302.75,-731 600.5,-731 600.5,-709.25 302.75,-709.25"/>
<text text-anchor="start" x="335.38" y="-714.7" font-family="Times New Roman,serif" font-size="14.00">[Bool] ChildFrameSync (default = False) </text>
<polygon fill="none" stroke="black" points="302.75,-687.5 302.75,-709.25 600.5,-709.25 600.5,-687.5 302.75,-687.5"/>
<text text-anchor="start" x="351.88" y="-692.95" font-family="Times New Roman,serif" font-size="14.00">[Bool] InputValue (default = False) </text>
<polygon fill="none" stroke="black" points="302.75,-665.75 302.75,-687.5 600.5,-687.5 600.5,-665.75 302.75,-665.75"/>
<text text-anchor="start" x="305.75" y="-671.2" font-family="Times New Roman,serif" font-size="14.00">[Bool] IsNoSelectWhenChildBusy (default = False) </text>
<polygon fill="none" stroke="black" points="302.75,-643.25 302.75,-665.75 600.5,-665.75 600.5,-643.25 302.75,-643.25"/>
<text text-anchor="start" x="432.5" y="-650.45" font-family="Times New Roman,serif" font-weight="bold" font-size="14.00">Inputs</text>
<polygon fill="none" stroke="black" points="302.75,-621.5 302.75,-643.25 600.5,-643.25 600.5,-621.5 302.75,-621.5"/>
<text text-anchor="start" x="367.62" y="-626.95" font-family="Times New Roman,serif" font-size="14.00">[Bool] Input (default = False) </text>
<polygon fill="none" stroke="black" points="301.75,-620.5 301.75,-798.75 601.5,-798.75 601.5,-620.5 301.75,-620.5"/>
</g>
<!-- 11549&#45;&gt;11558 -->
<g id="edge2" class="edge">
<title>11549&#45;&gt;11558</title>
<path fill="none" stroke="firebrick" stroke-width="2" d="M586.4,-876.53C569.34,-855.52 551.12,-833.1 533.79,-811.76"/>
<polygon fill="firebrick" stroke="firebrick" stroke-width="2" points="537.6,-810.91 528.58,-805.36 532.17,-815.33 537.6,-810.91"/>
<text text-anchor="middle" x="576.75" y="-834.45" font-family="Times New Roman,serif" font-size="14.00" fill="firebrick">True</text>
</g>
<!-- 11597 -->
<g id="node4" class="node">
<title>11597</title>
<polygon fill="none" stroke="black" stroke-width="2" points="798.88,-498.38 524.38,-498.38 524.38,-421.62 798.88,-421.62 798.88,-498.38"/>
<polygon fill="none" stroke="black" points="533.38,-470.88 533.38,-493.38 789.88,-493.38 789.88,-470.88 533.38,-470.88"/>
<text text-anchor="start" x="601.25" y="-478.07" font-family="Times New Roman,serif" font-weight="bold" font-size="14.00">SeqOneShotEnd (4)</text>
<polygon fill="none" stroke="black" points="533.38,-448.38 533.38,-470.88 789.88,-470.88 789.88,-448.38 533.38,-448.38"/>
<text text-anchor="start" x="629.75" y="-455.57" font-family="Times New Roman,serif" font-weight="bold" font-size="14.00">Properties</text>
<polygon fill="none" stroke="black" points="533.38,-426.62 533.38,-448.38 789.88,-448.38 789.88,-426.62 533.38,-426.62"/>
<text text-anchor="start" x="536.38" y="-432.07" font-family="Times New Roman,serif" font-size="14.00">[Bool] ExecuteEveryFrame (default = False) </text>
<polygon fill="none" stroke="black" points="532.38,-425.62 532.38,-494.38 790.88,-494.38 790.88,-425.62 532.38,-425.62"/>
</g>
<!-- 11549&#45;&gt;11597 -->
<g id="edge3" class="edge">
<title>11549&#45;&gt;11597</title>
<path fill="none" stroke="firebrick" stroke-width="2" d="M661.62,-876.52C661.62,-768.66 661.62,-594.53 661.62,-510.07"/>
<polygon fill="firebrick" stroke="firebrick" stroke-width="2" points="665.13,-511.79 661.63,-501.79 658.13,-511.79 665.13,-511.79"/>
<text text-anchor="middle" x="676.25" y="-704.2" font-family="Times New Roman,serif" font-size="14.00" fill="firebrick">False</text>
</g>
<!-- 11558&#45;&gt;11597 -->
<g id="edge7" class="edge">
<title>11558&#45;&gt;11597</title>
<path fill="none" stroke="firebrick" stroke-width="2" d="M530.12,-616.07C561.51,-579.06 596.27,-538.06 622.17,-507.52"/>
<polygon fill="firebrick" stroke="firebrick" stroke-width="2" points="623.81,-511 627.61,-501.11 618.47,-506.47 623.81,-511"/>
<text text-anchor="middle" x="578.25" y="-573.95" font-family="Times New Roman,serif" font-size="14.00" fill="firebrick">False</text>
</g>
<!-- 11567 -->
<g id="node7" class="node">
<title>11567</title>
<polygon fill="none" stroke="black" stroke-width="2" points="506,-509.25 307.25,-509.25 307.25,-410.75 506,-410.75 506,-509.25"/>
<polygon fill="none" stroke="black" points="316.25,-481.75 316.25,-504.25 497,-504.25 497,-481.75 316.25,-481.75"/>
<text text-anchor="start" x="326.75" y="-488.95" font-family="Times New Roman,serif" font-weight="bold" font-size="14.00">Element_Simultaneous (9)</text>
<polygon fill="none" stroke="black" points="316.25,-459.25 316.25,-481.75 497,-481.75 497,-459.25 316.25,-459.25"/>
<text text-anchor="start" x="374.75" y="-466.45" font-family="Times New Roman,serif" font-weight="bold" font-size="14.00">Properties</text>
<polygon fill="none" stroke="black" points="316.25,-437.5 316.25,-459.25 497,-459.25 497,-437.5 316.25,-437.5"/>
<text text-anchor="start" x="325.62" y="-442.95" font-family="Times New Roman,serif" font-size="14.00">[Int] EndPolicy (default = 0) </text>
<polygon fill="none" stroke="black" points="316.25,-415.75 316.25,-437.5 497,-437.5 497,-415.75 316.25,-415.75"/>
<text text-anchor="start" x="319.25" y="-421.2" font-family="Times New Roman,serif" font-size="14.00">[Int] ResultPolicy (default = 0) </text>
<polygon fill="none" stroke="black" points="315.25,-414.75 315.25,-505.25 498,-505.25 498,-414.75 315.25,-414.75"/>
</g>
<!-- 11558&#45;&gt;11567 -->
<g id="edge6" class="edge">
<title>11558&#45;&gt;11567</title>
<path fill="none" stroke="firebrick" stroke-width="2" d="M434.8,-616.07C429.01,-584.17 422.67,-549.32 417.48,-520.74"/>
<polygon fill="firebrick" stroke="firebrick" stroke-width="2" points="421.25,-521.91 416.02,-512.7 414.36,-523.16 421.25,-521.91"/>
<text text-anchor="middle" x="442.75" y="-573.95" font-family="Times New Roman,serif" font-size="14.00" fill="firebrick">True</text>
</g>
<!-- 11552 -->
<g id="node5" class="node">
<title>11552</title>
<polygon fill="none" stroke="black" stroke-width="2" points="1082.75,-1335 744.5,-1335 744.5,-1126.25 1082.75,-1126.25 1082.75,-1335"/>
<polygon fill="none" stroke="black" points="753.5,-1307.5 753.5,-1330 1073.75,-1330 1073.75,-1307.5 753.5,-1307.5"/>
<text text-anchor="start" x="814.25" y="-1314.7" font-family="Times New Roman,serif" font-weight="bold" font-size="14.00">SeqQueryGetGameDataBool (2)</text>
<polygon fill="none" stroke="black" points="753.5,-1285 753.5,-1307.5 1073.75,-1307.5 1073.75,-1285 753.5,-1285"/>
<text text-anchor="start" x="881.75" y="-1292.2" font-family="Times New Roman,serif" font-weight="bold" font-size="14.00">Properties</text>
<polygon fill="none" stroke="black" points="753.5,-1263.25 753.5,-1285 1073.75,-1285 1073.75,-1263.25 753.5,-1263.25"/>
<text text-anchor="start" x="788" y="-1268.7" font-family="Times New Roman,serif" font-size="14.00">[Bool] OutputOnlyOnEnter (default = False) </text>
<polygon fill="none" stroke="black" points="753.5,-1240.75 753.5,-1263.25 1073.75,-1263.25 1073.75,-1240.75 753.5,-1240.75"/>
<text text-anchor="start" x="894.5" y="-1247.95" font-family="Times New Roman,serif" font-weight="bold" font-size="14.00">Inputs</text>
<polygon fill="none" stroke="black" points="753.5,-1219 753.5,-1240.75 1073.75,-1240.75 1073.75,-1219 753.5,-1219"/>
<text text-anchor="start" x="814.25" y="-1224.45" font-family="Times New Roman,serif" font-size="14.00">[Int] GameDataIndex (default = &#45;1) </text>
<polygon fill="none" stroke="black" points="753.5,-1197.25 753.5,-1219 1073.75,-1219 1073.75,-1197.25 753.5,-1197.25"/>
<text text-anchor="start" x="756.5" y="-1202.7" font-family="Times New Roman,serif" font-size="14.00">[String] GameDataName (default = Obj_DRStone_Get) </text>
<polygon fill="none" stroke="black" points="753.5,-1175.5 753.5,-1197.25 1073.75,-1197.25 1073.75,-1175.5 753.5,-1175.5"/>
<text text-anchor="start" x="787.25" y="-1180.95" font-family="Times New Roman,serif" font-size="14.00">[const void*] ParentStruct (default = nullptr) </text>
<polygon fill="none" stroke="black" points="753.5,-1153 753.5,-1175.5 1073.75,-1175.5 1073.75,-1153 753.5,-1153"/>
<text text-anchor="start" x="889.25" y="-1160.2" font-family="Times New Roman,serif" font-weight="bold" font-size="14.00">Outputs</text>
<polygon fill="none" stroke="black" points="753.5,-1131.25 753.5,-1153 1073.75,-1153 1073.75,-1131.25 753.5,-1131.25"/>
<text text-anchor="start" x="878" y="-1136.7" font-family="Times New Roman,serif" font-size="14.00">[Bool] Value</text>
<polygon fill="none" stroke="black" points="752.5,-1130.25 752.5,-1331 1074.75,-1331 1074.75,-1130.25 752.5,-1130.25"/>
</g>
<!-- 11552&#45;&gt;11549 -->
<g id="edge4" class="edge">
<title>11552:11602&#45;&gt;11549:11598</title>
<path fill="none" stroke="#008000" stroke-dasharray="5,2" d="M752.62,-1141.62C745.78,-1141.62 750.73,-1132.46 753.62,-1126.25 770.75,-1089.53 803.58,-1100.5 819.5,-1063.25 851.13,-989.23 876.24,-939.23 819.5,-882.12 809.02,-871.58 702.87,-865.59 670.77,-874.69"/>
<polygon fill="#008000" stroke="#008000" points="669.03,-871.64 662.86,-880.25 673.06,-877.36 669.03,-871.64"/>
<text text-anchor="middle" x="805.25" y="-1094.95" font-family="Times New Roman,serif" font-size="14.00" fill="#008000">Input</text>
</g>
<!-- 11555 -->
<g id="node6" class="node">
<title>11555</title>
<polygon fill="none" stroke="black" stroke-width="2" points="1061,-1573.75 766.25,-1573.75 766.25,-1386.75 1061,-1386.75 1061,-1573.75"/>
<polygon fill="none" stroke="black" points="775.25,-1546.25 775.25,-1568.75 1052,-1568.75 1052,-1546.25 775.25,-1546.25"/>
<text text-anchor="start" x="778.25" y="-1553.45" font-family="Times New Roman,serif" font-weight="bold" font-size="14.00">SeqQueryGetNonStructGameDataStruct (1)</text>
<polygon fill="none" stroke="black" points="775.25,-1523.75 775.25,-1546.25 1052,-1546.25 1052,-1523.75 775.25,-1523.75"/>
<text text-anchor="start" x="881.75" y="-1530.95" font-family="Times New Roman,serif" font-weight="bold" font-size="14.00">Properties</text>
<polygon fill="none" stroke="black" points="775.25,-1502 775.25,-1523.75 1052,-1523.75 1052,-1502 775.25,-1502"/>
<text text-anchor="start" x="788" y="-1507.45" font-family="Times New Roman,serif" font-size="14.00">[Bool] OutputOnlyOnEnter (default = False) </text>
<polygon fill="none" stroke="black" points="775.25,-1479.5 775.25,-1502 1052,-1502 1052,-1479.5 775.25,-1479.5"/>
<text text-anchor="start" x="894.5" y="-1486.7" font-family="Times New Roman,serif" font-weight="bold" font-size="14.00">Inputs</text>
<polygon fill="none" stroke="black" points="775.25,-1457.75 775.25,-1479.5 1052,-1479.5 1052,-1457.75 775.25,-1457.75"/>
<text text-anchor="start" x="814.25" y="-1463.2" font-family="Times New Roman,serif" font-size="14.00">[Int] GameDataIndex (default = &#45;1) </text>
<polygon fill="none" stroke="black" points="775.25,-1436 775.25,-1457.75 1052,-1457.75 1052,-1436 775.25,-1436"/>
<text text-anchor="start" x="784.62" y="-1441.45" font-family="Times New Roman,serif" font-size="14.00">[String] GameDataFullName (default = IsGet) </text>
<polygon fill="none" stroke="black" points="775.25,-1413.5 775.25,-1436 1052,-1436 1052,-1413.5 775.25,-1413.5"/>
<text text-anchor="start" x="889.25" y="-1420.7" font-family="Times New Roman,serif" font-weight="bold" font-size="14.00">Outputs</text>
<polygon fill="none" stroke="black" points="775.25,-1391.75 775.25,-1413.5 1052,-1413.5 1052,-1391.75 775.25,-1391.75"/>
<text text-anchor="start" x="806" y="-1397.2" font-family="Times New Roman,serif" font-size="14.00">[const void*] Value (default = nullptr) </text>
<polygon fill="none" stroke="black" points="774.25,-1390.75 774.25,-1569.75 1053,-1569.75 1053,-1390.75 774.25,-1390.75"/>
</g>
<!-- 11555&#45;&gt;11552 -->
<g id="edge5" class="edge">
<title>11555:11605&#45;&gt;11552:11601</title>
<path fill="none" stroke="#008000" stroke-dasharray="5,2" d="M913.62,-1390.25C913.62,-1315.02 1029.76,-1396.12 1073.62,-1335 1109.67,-1284.77 1136.97,-1198.31 1085.9,-1187.7"/>
<polygon fill="#008000" stroke="#008000" points="1086.42,-1184.24 1076.13,-1186.77 1085.75,-1191.2 1086.42,-1184.24"/>
<text text-anchor="middle" x="1085.12" y="-1355.45" font-family="Times New Roman,serif" font-size="14.00" fill="#008000">ParentStruct</text>
</g>
<!-- 11570 -->
<g id="node10" class="node">
<title>11570</title>
<polygon fill="none" stroke="black" stroke-width="2" points="281.25,-293 0,-293 0,-150.25 281.25,-150.25 281.25,-293"/>
<polygon fill="none" stroke="black" points="9,-265.5 9,-288 272.25,-288 272.25,-265.5 9,-265.5"/>
<text text-anchor="start" x="55.12" y="-272.7" font-family="Times New Roman,serif" font-weight="bold" font-size="14.00">SeqOneShotOpenScreen (5)</text>
<polygon fill="none" stroke="black" points="9,-243 9,-265.5 272.25,-265.5 272.25,-243 9,-243"/>
<text text-anchor="start" x="108.75" y="-250.2" font-family="Times New Roman,serif" font-weight="bold" font-size="14.00">Properties</text>
<polygon fill="none" stroke="black" points="9,-221.25 9,-243 272.25,-243 272.25,-221.25 9,-221.25"/>
<text text-anchor="start" x="15.38" y="-226.7" font-family="Times New Roman,serif" font-size="14.00">[Bool] ExecuteEveryFrame (default = False) </text>
<polygon fill="none" stroke="black" points="9,-198.75 9,-221.25 272.25,-221.25 272.25,-198.75 9,-198.75"/>
<text text-anchor="start" x="121.5" y="-205.95" font-family="Times New Roman,serif" font-weight="bold" font-size="14.00">Inputs</text>
<polygon fill="none" stroke="black" points="9,-177 9,-198.75 272.25,-198.75 272.25,-177 9,-177"/>
<text text-anchor="start" x="69" y="-182.45" font-family="Times New Roman,serif" font-size="14.00">[Int] Option (default = 0) </text>
<polygon fill="none" stroke="black" points="9,-155.25 9,-177 272.25,-177 272.25,-155.25 9,-155.25"/>
<text text-anchor="start" x="12" y="-160.7" font-family="Times New Roman,serif" font-size="14.00">[String] ScreenName (default = AppMap_00) </text>
<polygon fill="none" stroke="black" points="8,-154.25 8,-289 273.25,-289 273.25,-154.25 8,-154.25"/>
</g>
<!-- 11567&#45;&gt;11570 -->
<g id="edge10" class="edge">
<title>11567&#45;&gt;11570</title>
<path fill="none" stroke="firebrick" stroke-width="2" d="M351.83,-410.31C316.41,-378.83 269.5,-337.15 228.89,-301.06"/>
<polygon fill="firebrick" stroke="firebrick" stroke-width="2" points="232.39,-299.49 222.59,-295.46 227.74,-304.72 232.39,-299.49"/>
</g>
<!-- 11573 -->
<g id="node11" class="node">
<title>11573</title>
<polygon fill="none" stroke="black" stroke-width="2" points="1024.5,-314.75 708.75,-314.75 708.75,-128.5 1024.5,-128.5 1024.5,-314.75"/>
<polygon fill="none" stroke="black" points="717.75,-287.25 717.75,-309.75 1015.5,-309.75 1015.5,-287.25 717.75,-287.25"/>
<text text-anchor="start" x="784.5" y="-294.45" font-family="Times New Roman,serif" font-weight="bold" font-size="14.00">Element_BoolSelector (14)</text>
<polygon fill="none" stroke="black" points="717.75,-264.75 717.75,-287.25 1015.5,-287.25 1015.5,-264.75 717.75,-264.75"/>
<text text-anchor="start" x="834.75" y="-271.95" font-family="Times New Roman,serif" font-weight="bold" font-size="14.00">Properties</text>
<polygon fill="none" stroke="black" points="717.75,-243 717.75,-264.75 1015.5,-264.75 1015.5,-243 717.75,-243"/>
<text text-anchor="start" x="769.5" y="-248.45" font-family="Times New Roman,serif" font-size="14.00">[Int] CalculateTiming (default = 0) </text>
<polygon fill="none" stroke="black" points="717.75,-221.25 717.75,-243 1015.5,-243 1015.5,-221.25 717.75,-221.25"/>
<text text-anchor="start" x="750.38" y="-226.7" font-family="Times New Roman,serif" font-size="14.00">[Bool] ChildFrameSync (default = False) </text>
<polygon fill="none" stroke="black" points="717.75,-199.5 717.75,-221.25 1015.5,-221.25 1015.5,-199.5 717.75,-199.5"/>
<text text-anchor="start" x="766.88" y="-204.95" font-family="Times New Roman,serif" font-size="14.00">[Bool] InputValue (default = False) </text>
<polygon fill="none" stroke="black" points="717.75,-177.75 717.75,-199.5 1015.5,-199.5 1015.5,-177.75 717.75,-177.75"/>
<text text-anchor="start" x="720.75" y="-183.2" font-family="Times New Roman,serif" font-size="14.00">[Bool] IsNoSelectWhenChildBusy (default = False) </text>
<polygon fill="none" stroke="black" points="717.75,-155.25 717.75,-177.75 1015.5,-177.75 1015.5,-155.25 717.75,-155.25"/>
<text text-anchor="start" x="847.5" y="-162.45" font-family="Times New Roman,serif" font-weight="bold" font-size="14.00">Inputs</text>
<polygon fill="none" stroke="black" points="717.75,-133.5 717.75,-155.25 1015.5,-155.25 1015.5,-133.5 717.75,-133.5"/>
<text text-anchor="start" x="782.62" y="-138.95" font-family="Times New Roman,serif" font-size="14.00">[Bool] Input (default = False) </text>
<polygon fill="none" stroke="black" points="716.75,-132.5 716.75,-310.75 1016.5,-310.75 1016.5,-132.5 716.75,-132.5"/>
</g>
<!-- 11567&#45;&gt;11573 -->
<g id="edge11" class="edge">
<title>11567&#45;&gt;11573</title>
<path fill="none" stroke="firebrick" stroke-width="2" d="M457.28,-410.27C474.85,-394.98 495.27,-378.88 515.62,-366.5 572.16,-332.12 638.38,-302.57 697.98,-279.35"/>
<polygon fill="firebrick" stroke="firebrick" stroke-width="2" points="697.74,-283.19 705.81,-276.32 695.22,-276.66 697.74,-283.19"/>
</g>
<!-- 11594 -->
<g id="node12" class="node">
<title>11594</title>
<polygon fill="none" stroke="black" stroke-width="2" points="573.88,-282.12 299.38,-282.12 299.38,-161.12 573.88,-161.12 573.88,-282.12"/>
<polygon fill="none" stroke="black" points="308.38,-254.62 308.38,-277.12 564.88,-277.12 564.88,-254.62 308.38,-254.62"/>
<text text-anchor="start" x="317.75" y="-261.82" font-family="Times New Roman,serif" font-weight="bold" font-size="14.00">SeqOneShotSetEnableUpdateMap (17)</text>
<polygon fill="none" stroke="black" points="308.38,-232.12 308.38,-254.62 564.88,-254.62 564.88,-232.12 308.38,-232.12"/>
<text text-anchor="start" x="404.75" y="-239.32" font-family="Times New Roman,serif" font-weight="bold" font-size="14.00">Properties</text>
<polygon fill="none" stroke="black" points="308.38,-210.38 308.38,-232.12 564.88,-232.12 564.88,-210.38 308.38,-210.38"/>
<text text-anchor="start" x="311.38" y="-215.82" font-family="Times New Roman,serif" font-size="14.00">[Bool] ExecuteEveryFrame (default = False) </text>
<polygon fill="none" stroke="black" points="308.38,-187.88 308.38,-210.38 564.88,-210.38 564.88,-187.88 308.38,-187.88"/>
<text text-anchor="start" x="417.5" y="-195.07" font-family="Times New Roman,serif" font-weight="bold" font-size="14.00">Inputs</text>
<polygon fill="none" stroke="black" points="308.38,-166.12 308.38,-187.88 564.88,-187.88 564.88,-166.12 308.38,-166.12"/>
<text text-anchor="start" x="344.75" y="-171.57" font-family="Times New Roman,serif" font-size="14.00">[Bool] IsEnable (default = True) </text>
<polygon fill="none" stroke="black" points="307.38,-165.12 307.38,-278.12 565.88,-278.12 565.88,-165.12 307.38,-165.12"/>
</g>
<!-- 11567&#45;&gt;11594 -->
<g id="edge12" class="edge">
<title>11567&#45;&gt;11594</title>
<path fill="none" stroke="firebrick" stroke-width="2" d="M412.8,-410.31C417.06,-376.75 422.79,-331.6 427.57,-293.99"/>
<polygon fill="firebrick" stroke="firebrick" stroke-width="2" points="430.85,-295.95 428.63,-285.58 423.9,-295.06 430.85,-295.95"/>
</g>
<!-- 11561 -->
<g id="node8" class="node">
<title>11561</title>
<polygon fill="none" stroke="black" stroke-width="2" points="485.88,-1074.5 157.38,-1074.5 157.38,-865.75 485.88,-865.75 485.88,-1074.5"/>
<polygon fill="none" stroke="black" points="166.38,-1047 166.38,-1069.5 476.88,-1069.5 476.88,-1047 166.38,-1047"/>
<text text-anchor="start" x="222.25" y="-1054.2" font-family="Times New Roman,serif" font-weight="bold" font-size="14.00">SeqQueryGetGameDataBool (6)</text>
<polygon fill="none" stroke="black" points="166.38,-1024.5 166.38,-1047 476.88,-1047 476.88,-1024.5 166.38,-1024.5"/>
<text text-anchor="start" x="289.75" y="-1031.7" font-family="Times New Roman,serif" font-weight="bold" font-size="14.00">Properties</text>
<polygon fill="none" stroke="black" points="166.38,-1002.75 166.38,-1024.5 476.88,-1024.5 476.88,-1002.75 166.38,-1002.75"/>
<text text-anchor="start" x="196" y="-1008.2" font-family="Times New Roman,serif" font-size="14.00">[Bool] OutputOnlyOnEnter (default = False) </text>
<polygon fill="none" stroke="black" points="166.38,-980.25 166.38,-1002.75 476.88,-1002.75 476.88,-980.25 166.38,-980.25"/>
<text text-anchor="start" x="302.5" y="-987.45" font-family="Times New Roman,serif" font-weight="bold" font-size="14.00">Inputs</text>
<polygon fill="none" stroke="black" points="166.38,-958.5 166.38,-980.25 476.88,-980.25 476.88,-958.5 166.38,-958.5"/>
<text text-anchor="start" x="222.25" y="-963.95" font-family="Times New Roman,serif" font-size="14.00">[Int] GameDataIndex (default = &#45;1) </text>
<polygon fill="none" stroke="black" points="166.38,-936.75 166.38,-958.5 476.88,-958.5 476.88,-936.75 166.38,-936.75"/>
<text text-anchor="start" x="169.38" y="-942.2" font-family="Times New Roman,serif" font-size="14.00">[String] GameDataName (default = IsMiniMapEnable) </text>
<polygon fill="none" stroke="black" points="166.38,-915 166.38,-936.75 476.88,-936.75 476.88,-915 166.38,-915"/>
<text text-anchor="start" x="195.25" y="-920.45" font-family="Times New Roman,serif" font-size="14.00">[const void*] ParentStruct (default = nullptr) </text>
<polygon fill="none" stroke="black" points="166.38,-892.5 166.38,-915 476.88,-915 476.88,-892.5 166.38,-892.5"/>
<text text-anchor="start" x="297.25" y="-899.7" font-family="Times New Roman,serif" font-weight="bold" font-size="14.00">Outputs</text>
<polygon fill="none" stroke="black" points="166.38,-870.75 166.38,-892.5 476.88,-892.5 476.88,-870.75 166.38,-870.75"/>
<text text-anchor="start" x="286" y="-876.2" font-family="Times New Roman,serif" font-size="14.00">[Bool] Value</text>
<polygon fill="none" stroke="black" points="165.38,-869.75 165.38,-1070.5 477.88,-1070.5 477.88,-869.75 165.38,-869.75"/>
</g>
<!-- 11561&#45;&gt;11558 -->
<g id="edge8" class="edge">
<title>11561:11610&#45;&gt;11558:11606</title>
<path fill="none" stroke="#008000" stroke-dasharray="5,2" d="M477.62,-881.12C500.18,-881.12 474.32,-847.84 490.38,-832 529.18,-793.71 575.86,-845.65 609.5,-802.75 634.34,-771.08 637.87,-650.18 609.5,-621.62 599.02,-611.08 492.87,-605.09 460.77,-614.19"/>
<polygon fill="#008000" stroke="#008000" points="459.03,-611.14 452.86,-619.75 463.06,-616.86 459.03,-611.14"/>
<text text-anchor="middle" x="505.25" y="-834.45" font-family="Times New Roman,serif" font-size="14.00" fill="#008000">Input</text>
</g>
<!-- 11564 -->
<g id="node9" class="node">
<title>11564</title>
<polygon fill="none" stroke="black" stroke-width="2" points="472.75,-1324.12 170.5,-1324.12 170.5,-1137.12 472.75,-1137.12 472.75,-1324.12"/>
<polygon fill="none" stroke="black" points="179.5,-1296.62 179.5,-1319.12 463.75,-1319.12 463.75,-1296.62 179.5,-1296.62"/>
<text text-anchor="start" x="186.25" y="-1303.83" font-family="Times New Roman,serif" font-weight="bold" font-size="14.00">SeqQueryGetNonStructGameDataStruct (7)</text>
<polygon fill="none" stroke="black" points="179.5,-1274.12 179.5,-1296.62 463.75,-1296.62 463.75,-1274.12 179.5,-1274.12"/>
<text text-anchor="start" x="289.75" y="-1281.33" font-family="Times New Roman,serif" font-weight="bold" font-size="14.00">Properties</text>
<polygon fill="none" stroke="black" points="179.5,-1252.38 179.5,-1274.12 463.75,-1274.12 463.75,-1252.38 179.5,-1252.38"/>
<text text-anchor="start" x="196" y="-1257.83" font-family="Times New Roman,serif" font-size="14.00">[Bool] OutputOnlyOnEnter (default = False) </text>
<polygon fill="none" stroke="black" points="179.5,-1229.88 179.5,-1252.38 463.75,-1252.38 463.75,-1229.88 179.5,-1229.88"/>
<text text-anchor="start" x="302.5" y="-1237.08" font-family="Times New Roman,serif" font-weight="bold" font-size="14.00">Inputs</text>
<polygon fill="none" stroke="black" points="179.5,-1208.12 179.5,-1229.88 463.75,-1229.88 463.75,-1208.12 179.5,-1208.12"/>
<text text-anchor="start" x="222.25" y="-1213.58" font-family="Times New Roman,serif" font-size="14.00">[Int] GameDataIndex (default = &#45;1) </text>
<polygon fill="none" stroke="black" points="179.5,-1186.38 179.5,-1208.12 463.75,-1208.12 463.75,-1186.38 179.5,-1186.38"/>
<text text-anchor="start" x="182.5" y="-1191.83" font-family="Times New Roman,serif" font-size="14.00">[String] GameDataFullName (default = MapData) </text>
<polygon fill="none" stroke="black" points="179.5,-1163.88 179.5,-1186.38 463.75,-1186.38 463.75,-1163.88 179.5,-1163.88"/>
<text text-anchor="start" x="297.25" y="-1171.08" font-family="Times New Roman,serif" font-weight="bold" font-size="14.00">Outputs</text>
<polygon fill="none" stroke="black" points="179.5,-1142.12 179.5,-1163.88 463.75,-1163.88 463.75,-1142.12 179.5,-1142.12"/>
<text text-anchor="start" x="214" y="-1147.58" font-family="Times New Roman,serif" font-size="14.00">[const void*] Value (default = nullptr) </text>
<polygon fill="none" stroke="black" points="178.5,-1141.12 178.5,-1320.12 464.75,-1320.12 464.75,-1141.12 178.5,-1141.12"/>
</g>
<!-- 11564&#45;&gt;11561 -->
<g id="edge9" class="edge">
<title>11564:11613&#45;&gt;11561:11609</title>
<path fill="none" stroke="#008000" stroke-dasharray="5,2" d="M321.62,-1140.62C321.62,-1065.73 435.13,-1136.85 476.62,-1074.5 484.3,-1062.97 491.42,-966.15 483.73,-935.44"/>
<polygon fill="#008000" stroke="#008000" points="486.87,-933.83 478.46,-927.39 481.01,-937.67 486.87,-933.83"/>
<text text-anchor="middle" x="490.12" y="-1094.95" font-family="Times New Roman,serif" font-size="14.00" fill="#008000">ParentStruct</text>
</g>
<!-- 11588 -->
<g id="node13" class="node">
<title>11588</title>
<polygon fill="none" stroke="black" stroke-width="2" points="846.75,-76.75 628.5,-76.75 628.5,0 846.75,0 846.75,-76.75"/>
<polygon fill="none" stroke="black" points="637.5,-49.25 637.5,-71.75 837.75,-71.75 837.75,-49.25 637.5,-49.25"/>
<text text-anchor="start" x="640.5" y="-56.45" font-family="Times New Roman,serif" font-weight="bold" font-size="14.00">SetVisibleProMode.module (15)</text>
<polygon fill="none" stroke="black" points="637.5,-26.75 637.5,-49.25 837.75,-49.25 837.75,-26.75 637.5,-26.75"/>
<text text-anchor="start" x="718.5" y="-33.95" font-family="Times New Roman,serif" font-weight="bold" font-size="14.00">Inputs</text>
<polygon fill="none" stroke="black" points="637.5,-5 637.5,-26.75 837.75,-26.75 837.75,-5 637.5,-5"/>
<text text-anchor="start" x="643.88" y="-10.45" font-family="Times New Roman,serif" font-size="14.00">[Bool] IsVisible (default = False) </text>
<polygon fill="none" stroke="black" points="636.5,-4 636.5,-72.75 838.75,-72.75 838.75,-4 636.5,-4"/>
</g>
<!-- 11573&#45;&gt;11588 -->
<g id="edge13" class="edge">
<title>11573&#45;&gt;11588</title>
<path fill="none" stroke="firebrick" stroke-width="2" d="M800.8,-128.14C790.41,-113.53 780.06,-98.99 770.83,-86.03"/>
<polygon fill="firebrick" stroke="firebrick" stroke-width="2" points="774.73,-85.48 766.08,-79.36 769.03,-89.54 774.73,-85.48"/>
<text text-anchor="middle" x="799.75" y="-97.2" font-family="Times New Roman,serif" font-size="14.00" fill="firebrick">True</text>
</g>
<!-- 11591 -->
<g id="node14" class="node">
<title>11591</title>
<polygon fill="none" stroke="black" stroke-width="2" points="1124,-56.38 865.25,-56.38 865.25,-20.38 1124,-20.38 1124,-56.38"/>
<polygon fill="none" stroke="black" points="874.25,-27.12 874.25,-49.62 1115,-49.62 1115,-27.12 874.25,-27.12"/>
<text text-anchor="start" x="877.25" y="-34.33" font-family="Times New Roman,serif" font-weight="bold" font-size="14.00">SeqExecuteGenericDummyAction (16)</text>
<polygon fill="none" stroke="black" points="873.25,-26.12 873.25,-50.62 1116,-50.62 1116,-26.12 873.25,-26.12"/>
</g>
<!-- 11573&#45;&gt;11591 -->
<g id="edge14" class="edge">
<title>11573&#45;&gt;11591</title>
<path fill="none" stroke="firebrick" stroke-width="2" d="M931.94,-128.14C948.12,-105.23 964.18,-82.48 976,-65.75"/>
<polygon fill="firebrick" stroke="firebrick" stroke-width="2" points="977.78,-69.3 980.69,-59.11 972.06,-65.26 977.78,-69.3"/>
<text text-anchor="middle" x="967.25" y="-97.2" font-family="Times New Roman,serif" font-size="14.00" fill="firebrick">False</text>
</g>
<!-- 11576 -->
<g id="node15" class="node">
<title>11576</title>
<polygon fill="none" stroke="black" stroke-width="2" points="1092.25,-553.5 817,-553.5 817,-366.5 1092.25,-366.5 1092.25,-553.5"/>
<polygon fill="none" stroke="black" points="826,-526 826,-548.5 1083.25,-548.5 1083.25,-526 826,-526"/>
<text text-anchor="start" x="874.38" y="-533.2" font-family="Times New Roman,serif" font-weight="bold" font-size="14.00">SeqQueryIsEqualU32 (11)</text>
<polygon fill="none" stroke="black" points="826,-503.5 826,-526 1083.25,-526 1083.25,-503.5 826,-503.5"/>
<text text-anchor="start" x="922.75" y="-510.7" font-family="Times New Roman,serif" font-weight="bold" font-size="14.00">Properties</text>
<polygon fill="none" stroke="black" points="826,-481.75 826,-503.5 1083.25,-503.5 1083.25,-481.75 826,-481.75"/>
<text text-anchor="start" x="829" y="-487.2" font-family="Times New Roman,serif" font-size="14.00">[Bool] OutputOnlyOnEnter (default = False) </text>
<polygon fill="none" stroke="black" points="826,-459.25 826,-481.75 1083.25,-481.75 1083.25,-459.25 826,-459.25"/>
<text text-anchor="start" x="935.5" y="-466.45" font-family="Times New Roman,serif" font-weight="bold" font-size="14.00">Inputs</text>
<polygon fill="none" stroke="black" points="826,-437.5 826,-459.25 1083.25,-459.25 1083.25,-437.5 826,-437.5"/>
<text text-anchor="start" x="844.38" y="-442.95" font-family="Times New Roman,serif" font-size="14.00">[const u32*] ValueA (default = nullptr) </text>
<polygon fill="none" stroke="black" points="826,-415.75 826,-437.5 1083.25,-437.5 1083.25,-415.75 826,-415.75"/>
<text text-anchor="start" x="844.75" y="-421.2" font-family="Times New Roman,serif" font-size="14.00">[const u32*] ValueB (default = nullptr) </text>
<polygon fill="none" stroke="black" points="826,-393.25 826,-415.75 1083.25,-415.75 1083.25,-393.25 826,-393.25"/>
<text text-anchor="start" x="930.25" y="-400.45" font-family="Times New Roman,serif" font-weight="bold" font-size="14.00">Outputs</text>
<polygon fill="none" stroke="black" points="826,-371.5 826,-393.25 1083.25,-393.25 1083.25,-371.5 826,-371.5"/>
<text text-anchor="start" x="913.75" y="-376.95" font-family="Times New Roman,serif" font-size="14.00">[Bool] IsEqual</text>
<polygon fill="none" stroke="black" points="825,-370.5 825,-549.5 1084.25,-549.5 1084.25,-370.5 825,-370.5"/>
</g>
<!-- 11576&#45;&gt;11573 -->
<g id="edge15" class="edge">
<title>11576:11619&#45;&gt;11573:11616</title>
<path fill="none" stroke="#008000" stroke-dasharray="5,2" d="M954.62,-370C954.62,-330.41 1007.25,-350.38 1024.5,-314.75 1059.58,-242.29 1081.24,-190.73 1024.5,-133.62 1014.02,-123.08 907.87,-117.09 875.77,-126.19"/>
<polygon fill="#008000" stroke="#008000" points="874.03,-123.14 867.86,-131.75 878.06,-128.86 874.03,-123.14"/>
<text text-anchor="middle" x="1020.25" y="-335.2" font-family="Times New Roman,serif" font-size="14.00" fill="#008000">Input</text>
</g>
<!-- 11579 -->
<g id="node16" class="node">
<title>11579</title>
<polygon fill="none" stroke="black" stroke-width="2" points="1336.25,-814 1031,-814 1031,-605.25 1336.25,-605.25 1336.25,-814"/>
<polygon fill="none" stroke="black" points="1040,-786.5 1040,-809 1327.25,-809 1327.25,-786.5 1040,-786.5"/>
<text text-anchor="start" x="1076.75" y="-793.7" font-family="Times New Roman,serif" font-weight="bold" font-size="14.00">SeqQueryGetGameDataEnum (12)</text>
<polygon fill="none" stroke="black" points="1040,-764 1040,-786.5 1327.25,-786.5 1327.25,-764 1040,-764"/>
<text text-anchor="start" x="1151.75" y="-771.2" font-family="Times New Roman,serif" font-weight="bold" font-size="14.00">Properties</text>
<polygon fill="none" stroke="black" points="1040,-742.25 1040,-764 1327.25,-764 1327.25,-742.25 1040,-742.25"/>
<text text-anchor="start" x="1058" y="-747.7" font-family="Times New Roman,serif" font-size="14.00">[Bool] OutputOnlyOnEnter (default = False) </text>
<polygon fill="none" stroke="black" points="1040,-719.75 1040,-742.25 1327.25,-742.25 1327.25,-719.75 1040,-719.75"/>
<text text-anchor="start" x="1164.5" y="-726.95" font-family="Times New Roman,serif" font-weight="bold" font-size="14.00">Inputs</text>
<polygon fill="none" stroke="black" points="1040,-698 1040,-719.75 1327.25,-719.75 1327.25,-698 1040,-698"/>
<text text-anchor="start" x="1084.25" y="-703.45" font-family="Times New Roman,serif" font-size="14.00">[Int] GameDataIndex (default = &#45;1) </text>
<polygon fill="none" stroke="black" points="1040,-676.25 1040,-698 1327.25,-698 1327.25,-676.25 1040,-676.25"/>
<text text-anchor="start" x="1043" y="-681.7" font-family="Times New Roman,serif" font-size="14.00">[String] GameDataName (default = DisplayMode) </text>
<polygon fill="none" stroke="black" points="1040,-654.5 1040,-676.25 1327.25,-676.25 1327.25,-654.5 1040,-654.5"/>
<text text-anchor="start" x="1057.25" y="-659.95" font-family="Times New Roman,serif" font-size="14.00">[const void*] ParentStruct (default = nullptr) </text>
<polygon fill="none" stroke="black" points="1040,-632 1040,-654.5 1327.25,-654.5 1327.25,-632 1040,-632"/>
<text text-anchor="start" x="1159.25" y="-639.2" font-family="Times New Roman,serif" font-weight="bold" font-size="14.00">Outputs</text>
<polygon fill="none" stroke="black" points="1040,-610.25 1040,-632 1327.25,-632 1327.25,-610.25 1040,-610.25"/>
<text text-anchor="start" x="1078.25" y="-615.7" font-family="Times New Roman,serif" font-size="14.00">[const u32*] Value (default = nullptr) </text>
<polygon fill="none" stroke="black" points="1039,-609.25 1039,-810 1328.25,-810 1328.25,-609.25 1039,-609.25"/>
</g>
<!-- 11579&#45;&gt;11576 -->
<g id="edge16" class="edge">
<title>11579:11623&#45;&gt;11576:11617</title>
<path fill="none" stroke="#008000" stroke-dasharray="5,2" d="M1038.62,-620.62C1031.78,-620.62 1037.05,-611.6 1039.62,-605.25 1050.96,-577.27 1073.07,-581.79 1083.62,-553.5 1098.48,-513.69 1125.74,-459.39 1095.82,-449.56"/>
<polygon fill="#008000" stroke="#008000" points="1096.51,-446.12 1086.12,-448.21 1095.55,-453.05 1096.51,-446.12"/>
<text text-anchor="middle" x="1091.25" y="-573.95" font-family="Times New Roman,serif" font-size="14.00" fill="#008000">ValueA</text>
</g>
<!-- 11582 -->
<g id="node17" class="node">
<title>11582</title>
<polygon fill="none" stroke="black" stroke-width="2" points="1341.5,-1063.62 1025.75,-1063.62 1025.75,-876.62 1341.5,-876.62 1341.5,-1063.62"/>
<polygon fill="none" stroke="black" points="1034.75,-1036.12 1034.75,-1058.62 1332.5,-1058.62 1332.5,-1036.12 1034.75,-1036.12"/>
<text text-anchor="start" x="1044.5" y="-1043.33" font-family="Times New Roman,serif" font-weight="bold" font-size="14.00">SeqQueryGetNonStructGameDataStruct (10)</text>
<polygon fill="none" stroke="black" points="1034.75,-1013.62 1034.75,-1036.12 1332.5,-1036.12 1332.5,-1013.62 1034.75,-1013.62"/>
<text text-anchor="start" x="1151.75" y="-1020.83" font-family="Times New Roman,serif" font-weight="bold" font-size="14.00">Properties</text>
<polygon fill="none" stroke="black" points="1034.75,-991.88 1034.75,-1013.62 1332.5,-1013.62 1332.5,-991.88 1034.75,-991.88"/>
<text text-anchor="start" x="1058" y="-997.33" font-family="Times New Roman,serif" font-size="14.00">[Bool] OutputOnlyOnEnter (default = False) </text>
<polygon fill="none" stroke="black" points="1034.75,-969.38 1034.75,-991.88 1332.5,-991.88 1332.5,-969.38 1034.75,-969.38"/>
<text text-anchor="start" x="1164.5" y="-976.58" font-family="Times New Roman,serif" font-weight="bold" font-size="14.00">Inputs</text>
<polygon fill="none" stroke="black" points="1034.75,-947.62 1034.75,-969.38 1332.5,-969.38 1332.5,-947.62 1034.75,-947.62"/>
<text text-anchor="start" x="1084.25" y="-953.08" font-family="Times New Roman,serif" font-size="14.00">[Int] GameDataIndex (default = &#45;1) </text>
<polygon fill="none" stroke="black" points="1034.75,-925.88 1034.75,-947.62 1332.5,-947.62 1332.5,-925.88 1034.75,-925.88"/>
<text text-anchor="start" x="1037.75" y="-931.33" font-family="Times New Roman,serif" font-size="14.00">[String] GameDataFullName (default = OptionData) </text>
<polygon fill="none" stroke="black" points="1034.75,-903.38 1034.75,-925.88 1332.5,-925.88 1332.5,-903.38 1034.75,-903.38"/>
<text text-anchor="start" x="1159.25" y="-910.58" font-family="Times New Roman,serif" font-weight="bold" font-size="14.00">Outputs</text>
<polygon fill="none" stroke="black" points="1034.75,-881.62 1034.75,-903.38 1332.5,-903.38 1332.5,-881.62 1034.75,-881.62"/>
<text text-anchor="start" x="1076" y="-887.08" font-family="Times New Roman,serif" font-size="14.00">[const void*] Value (default = nullptr) </text>
<polygon fill="none" stroke="black" points="1033.75,-880.62 1033.75,-1059.62 1333.5,-1059.62 1333.5,-880.62 1033.75,-880.62"/>
</g>
<!-- 11582&#45;&gt;11579 -->
<g id="edge17" class="edge">
<title>11582:11626&#45;&gt;11579:11622</title>
<path fill="none" stroke="#008000" stroke-dasharray="5,2" d="M1183.62,-880.12C1183.62,-809.7 1289.41,-873.16 1327.62,-814 1361.17,-762.07 1390.66,-677.1 1339.87,-666.68"/>
<polygon fill="#008000" stroke="#008000" points="1340.42,-663.22 1330.13,-665.77 1339.76,-670.19 1340.42,-663.22"/>
<text text-anchor="middle" x="1342.12" y="-834.45" font-family="Times New Roman,serif" font-size="14.00" fill="#008000">ParentStruct</text>
</g>
<!-- 11585 -->
<g id="node18" class="node">
<title>11585</title>
<polygon fill="none" stroke="black" stroke-width="2" points="1013.12,-803.12 728.12,-803.12 728.12,-616.12 1013.12,-616.12 1013.12,-803.12"/>
<polygon fill="none" stroke="black" points="737.12,-775.62 737.12,-798.12 1004.12,-798.12 1004.12,-775.62 737.12,-775.62"/>
<text text-anchor="start" x="746.88" y="-782.83" font-family="Times New Roman,serif" font-weight="bold" font-size="14.00">SeqQueryCalcStringHashMurMur3 (13)</text>
<polygon fill="none" stroke="black" points="737.12,-753.12 737.12,-775.62 1004.12,-775.62 1004.12,-753.12 737.12,-753.12"/>
<text text-anchor="start" x="838.75" y="-760.33" font-family="Times New Roman,serif" font-weight="bold" font-size="14.00">Properties</text>
<polygon fill="none" stroke="black" points="737.12,-731.38 737.12,-753.12 1004.12,-753.12 1004.12,-731.38 737.12,-731.38"/>
<text text-anchor="start" x="751.38" y="-736.83" font-family="Times New Roman,serif" font-size="14.00">[Bool] IsCalcHashOnInit (default = False) </text>
<polygon fill="none" stroke="black" points="737.12,-709.62 737.12,-731.38 1004.12,-731.38 1004.12,-709.62 737.12,-709.62"/>
<text text-anchor="start" x="745" y="-715.08" font-family="Times New Roman,serif" font-size="14.00">[Bool] OutputOnlyOnEnter (default = False) </text>
<polygon fill="none" stroke="black" points="737.12,-687.12 737.12,-709.62 1004.12,-709.62 1004.12,-687.12 737.12,-687.12"/>
<text text-anchor="start" x="851.5" y="-694.33" font-family="Times New Roman,serif" font-weight="bold" font-size="14.00">Inputs</text>
<polygon fill="none" stroke="black" points="737.12,-665.38 737.12,-687.12 1004.12,-687.12 1004.12,-665.38 737.12,-665.38"/>
<text text-anchor="start" x="786.25" y="-670.83" font-family="Times New Roman,serif" font-size="14.00">[String] String (default = Pro) </text>
<polygon fill="none" stroke="black" points="737.12,-642.88 737.12,-665.38 1004.12,-665.38 1004.12,-642.88 737.12,-642.88"/>
<text text-anchor="start" x="846.25" y="-650.08" font-family="Times New Roman,serif" font-weight="bold" font-size="14.00">Outputs</text>
<polygon fill="none" stroke="black" points="737.12,-621.12 737.12,-642.88 1004.12,-642.88 1004.12,-621.12 737.12,-621.12"/>
<text text-anchor="start" x="740.12" y="-626.58" font-family="Times New Roman,serif" font-size="14.00">[const u32*] MurMur3Hash (default = nullptr) </text>
<polygon fill="none" stroke="black" points="736.12,-620.12 736.12,-799.12 1005.12,-799.12 1005.12,-620.12 736.12,-620.12"/>
</g>
<!-- 11585&#45;&gt;11576 -->
<g id="edge18" class="edge">
<title>11585:11628&#45;&gt;11576:11618</title>
<path fill="none" stroke="#008000" stroke-dasharray="5,2" d="M870.62,-619.62C870.62,-584.08 836.22,-587.43 825.62,-553.5 818.49,-530.65 802.4,-454.98 815.13,-433.02"/>
<polygon fill="#008000" stroke="#008000" points="816.78,-436.13 823.35,-427.81 813.03,-430.22 816.78,-436.13"/>
<text text-anchor="middle" x="872.88" y="-573.95" font-family="Times New Roman,serif" font-size="14.00" fill="#008000">ValueB</text>
</g>
<!-- 11631 -->
<g id="node19" class="node">
<title>11631</title>
<ellipse fill="mediumpurple" stroke="mediumpurple" cx="626.62" cy="-1480.25" rx="31.39" ry="18"/>
<text text-anchor="start" x="611.62" y="-1476.2" font-family="Times New Roman,serif" font-weight="bold" font-size="14.00" fill="white">Root</text>
</g>
<!-- 11631&#45;&gt;11546 -->
<g id="edge19" class="edge">
<title>11631&#45;&gt;11546</title>
<path fill="none" stroke="black" d="M626.62,-1461.84C626.62,-1426.92 626.62,-1346.93 626.62,-1291.1"/>
<polygon fill="black" stroke="black" points="630.13,-1291.44 626.63,-1281.44 623.13,-1291.44 630.13,-1291.44"/>
</g>
</g>
</svg>
