<?xml version="1.0" encoding="UTF-8" standalone="no"?>
<!DOCTYPE svg PUBLIC "-//W3C//DTD SVG 1.1//EN"
 "http://www.w3.org/Graphics/SVG/1.1/DTD/svg11.dtd">
<!-- Generated by graphviz version 9.0.0 (20230911.1827)
 -->
<!-- Title: PrepareScreensOfLoading.module Pages: 1 -->
<svg width="2211pt" height="663pt"
 viewBox="0.00 0.00 2211.00 662.50" xmlns="http://www.w3.org/2000/svg" xmlns:xlink="http://www.w3.org/1999/xlink">
<g id="graph0" class="graph" transform="scale(1 1) rotate(0) translate(4 658.5)">
<title>PrepareScreensOfLoading.module</title>
<polygon fill="lightgray" stroke="none" points="-4,4 -4,-658.5 2207,-658.5 2207,4 -4,4"/>
<!-- 12975 -->
<g id="node1" class="node">
<title>12975</title>
<polygon fill="none" stroke="black" stroke-width="2" points="1538,-581.5 1251.5,-581.5 1251.5,-374.25 1538,-374.25 1538,-581.5"/>
<polygon fill="none" stroke="black" points="1260.5,-554 1260.5,-576.5 1529,-576.5 1529,-554 1260.5,-554"/>
<text text-anchor="start" x="1323.88" y="-561.2" font-family="Times New Roman,serif" font-weight="bold" font-size="14.00">Element_Sequential (2)</text>
<polygon fill="none" stroke="black" points="1260.5,-531.5 1260.5,-554 1529,-554 1529,-531.5 1260.5,-531.5"/>
<text text-anchor="start" x="1362.88" y="-538.7" font-family="Times New Roman,serif" font-weight="bold" font-size="14.00">Properties</text>
<polygon fill="none" stroke="black" points="1260.5,-509.75 1260.5,-531.5 1529,-531.5 1529,-509.75 1260.5,-509.75"/>
<text text-anchor="start" x="1310.75" y="-515.2" font-family="Times New Roman,serif" font-size="14.00">[Int] BusyPolicy (default = 0) </text>
<polygon fill="none" stroke="black" points="1260.5,-488 1260.5,-509.75 1529,-509.75 1529,-488 1260.5,-488"/>
<text text-anchor="start" x="1313.75" y="-493.45" font-family="Times New Roman,serif" font-size="14.00">[Int] NumLoop (default = 0) </text>
<polygon fill="none" stroke="black" points="1260.5,-466.25 1260.5,-488 1529,-488 1529,-466.25 1260.5,-466.25"/>
<text text-anchor="start" x="1313" y="-471.7" font-family="Times New Roman,serif" font-size="14.00">[Int] PlayPolicy (default = 0) </text>
<polygon fill="none" stroke="black" points="1260.5,-444.5 1260.5,-466.25 1529,-466.25 1529,-444.5 1260.5,-444.5"/>
<text text-anchor="start" x="1307.38" y="-449.95" font-family="Times New Roman,serif" font-size="14.00">[Int] ResultPolicy (default = 0) </text>
<polygon fill="none" stroke="black" points="1260.5,-422.75 1260.5,-444.5 1529,-444.5 1529,-422.75 1260.5,-422.75"/>
<text text-anchor="start" x="1288.25" y="-428.2" font-family="Times New Roman,serif" font-size="14.00">[Bool] IsDelayJudge (default = False) </text>
<polygon fill="none" stroke="black" points="1260.5,-401 1260.5,-422.75 1529,-422.75 1529,-401 1260.5,-401"/>
<text text-anchor="start" x="1304.75" y="-406.45" font-family="Times New Roman,serif" font-size="14.00">[Bool] IsLoop (default = False) </text>
<polygon fill="none" stroke="black" points="1260.5,-379.25 1260.5,-401 1529,-401 1529,-379.25 1260.5,-379.25"/>
<text text-anchor="start" x="1263.5" y="-384.7" font-family="Times New Roman,serif" font-size="14.00">[Bool] IsUpdateNextInFrame (default = False) </text>
<polygon fill="none" stroke="black" points="1259.5,-378.25 1259.5,-577.5 1530,-577.5 1530,-378.25 1259.5,-378.25"/>
</g>
<!-- 12978 -->
<g id="node2" class="node">
<title>12978</title>
<polygon fill="none" stroke="black" stroke-width="2" points="426.12,-315.12 227.38,-315.12 227.38,-216.62 426.12,-216.62 426.12,-315.12"/>
<polygon fill="none" stroke="black" points="236.38,-287.62 236.38,-310.12 417.12,-310.12 417.12,-287.62 236.38,-287.62"/>
<text text-anchor="start" x="246.88" y="-294.82" font-family="Times New Roman,serif" font-weight="bold" font-size="14.00">Element_Simultaneous (5)</text>
<polygon fill="none" stroke="black" points="236.38,-265.12 236.38,-287.62 417.12,-287.62 417.12,-265.12 236.38,-265.12"/>
<text text-anchor="start" x="294.88" y="-272.32" font-family="Times New Roman,serif" font-weight="bold" font-size="14.00">Properties</text>
<polygon fill="none" stroke="black" points="236.38,-243.38 236.38,-265.12 417.12,-265.12 417.12,-243.38 236.38,-243.38"/>
<text text-anchor="start" x="245.75" y="-248.82" font-family="Times New Roman,serif" font-size="14.00">[Int] EndPolicy (default = 0) </text>
<polygon fill="none" stroke="black" points="236.38,-221.62 236.38,-243.38 417.12,-243.38 417.12,-221.62 236.38,-221.62"/>
<text text-anchor="start" x="239.38" y="-227.07" font-family="Times New Roman,serif" font-size="14.00">[Int] ResultPolicy (default = 0) </text>
<polygon fill="none" stroke="black" points="235.38,-220.62 235.38,-311.12 418.12,-311.12 418.12,-220.62 235.38,-220.62"/>
</g>
<!-- 12975&#45;&gt;12978 -->
<g id="edge1" class="edge">
<title>12975&#45;&gt;12978</title>
<path fill="none" stroke="firebrick" stroke-width="2" d="M1251.29,-459.39C1082.37,-437.37 793.99,-395.28 550.75,-337.25 513.31,-328.32 473.01,-316.4 437.06,-304.91"/>
<polygon fill="firebrick" stroke="firebrick" stroke-width="2" points="440.02,-302.19 429.43,-302.46 437.87,-308.85 440.02,-302.19"/>
</g>
<!-- 12987 -->
<g id="node3" class="node">
<title>12987</title>
<polygon fill="none" stroke="black" stroke-width="2" points="758.12,-315.12 559.38,-315.12 559.38,-216.62 758.12,-216.62 758.12,-315.12"/>
<polygon fill="none" stroke="black" points="568.38,-287.62 568.38,-310.12 749.12,-310.12 749.12,-287.62 568.38,-287.62"/>
<text text-anchor="start" x="578.88" y="-294.82" font-family="Times New Roman,serif" font-weight="bold" font-size="14.00">Element_Simultaneous (1)</text>
<polygon fill="none" stroke="black" points="568.38,-265.12 568.38,-287.62 749.12,-287.62 749.12,-265.12 568.38,-265.12"/>
<text text-anchor="start" x="626.88" y="-272.32" font-family="Times New Roman,serif" font-weight="bold" font-size="14.00">Properties</text>
<polygon fill="none" stroke="black" points="568.38,-243.38 568.38,-265.12 749.12,-265.12 749.12,-243.38 568.38,-243.38"/>
<text text-anchor="start" x="577.75" y="-248.82" font-family="Times New Roman,serif" font-size="14.00">[Int] EndPolicy (default = 0) </text>
<polygon fill="none" stroke="black" points="568.38,-221.62 568.38,-243.38 749.12,-243.38 749.12,-221.62 568.38,-221.62"/>
<text text-anchor="start" x="571.38" y="-227.07" font-family="Times New Roman,serif" font-size="14.00">[Int] ResultPolicy (default = 0) </text>
<polygon fill="none" stroke="black" points="567.38,-220.62 567.38,-311.12 750.12,-311.12 750.12,-220.62 567.38,-220.62"/>
</g>
<!-- 12975&#45;&gt;12987 -->
<g id="edge2" class="edge">
<title>12975&#45;&gt;12987</title>
<path fill="none" stroke="firebrick" stroke-width="2" d="M1251.25,-459.89C1120.99,-441.04 925.56,-404.05 766.75,-337.25 756.12,-332.78 745.39,-327.26 735.04,-321.29"/>
<polygon fill="firebrick" stroke="firebrick" stroke-width="2" points="738.22,-319.11 727.84,-317 734.64,-325.12 738.22,-319.11"/>
</g>
<!-- 12996 -->
<g id="node4" class="node">
<title>12996</title>
<polygon fill="none" stroke="black" stroke-width="2" points="1382.5,-326.38 1105,-326.38 1105,-205.38 1382.5,-205.38 1382.5,-326.38"/>
<polygon fill="none" stroke="black" points="1114,-298.88 1114,-321.38 1373.5,-321.38 1373.5,-298.88 1114,-298.88"/>
<text text-anchor="start" x="1117" y="-306.07" font-family="Times New Roman,serif" font-weight="bold" font-size="14.00">SetOneShotSetRequestableSimpleInfo (6)</text>
<polygon fill="none" stroke="black" points="1114,-276.38 1114,-298.88 1373.5,-298.88 1373.5,-276.38 1114,-276.38"/>
<text text-anchor="start" x="1211.88" y="-283.57" font-family="Times New Roman,serif" font-weight="bold" font-size="14.00">Properties</text>
<polygon fill="none" stroke="black" points="1114,-254.62 1114,-276.38 1373.5,-276.38 1373.5,-254.62 1114,-254.62"/>
<text text-anchor="start" x="1118.5" y="-260.07" font-family="Times New Roman,serif" font-size="14.00">[Bool] ExecuteEveryFrame (default = False) </text>
<polygon fill="none" stroke="black" points="1114,-232.12 1114,-254.62 1373.5,-254.62 1373.5,-232.12 1114,-232.12"/>
<text text-anchor="start" x="1224.62" y="-239.32" font-family="Times New Roman,serif" font-weight="bold" font-size="14.00">Inputs</text>
<polygon fill="none" stroke="black" points="1114,-210.38 1114,-232.12 1373.5,-232.12 1373.5,-210.38 1114,-210.38"/>
<text text-anchor="start" x="1135" y="-215.82" font-family="Times New Roman,serif" font-size="14.00">[Bool] IsRequestable (default = False) </text>
<polygon fill="none" stroke="black" points="1113,-209.38 1113,-322.38 1374.5,-322.38 1374.5,-209.38 1113,-209.38"/>
</g>
<!-- 12975&#45;&gt;12996 -->
<g id="edge3" class="edge">
<title>12975&#45;&gt;12996</title>
<path fill="none" stroke="firebrick" stroke-width="2" d="M1320.8,-374.03C1311.51,-361.11 1302.19,-348.15 1293.4,-335.92"/>
<polygon fill="firebrick" stroke="firebrick" stroke-width="2" points="1297.24,-335.27 1288.56,-329.19 1291.56,-339.35 1297.24,-335.27"/>
</g>
<!-- 12999 -->
<g id="node5" class="node">
<title>12999</title>
<polygon fill="none" stroke="black" stroke-width="2" points="1693.38,-326.38 1400.12,-326.38 1400.12,-205.38 1693.38,-205.38 1693.38,-326.38"/>
<polygon fill="none" stroke="black" points="1409.12,-298.88 1409.12,-321.38 1684.38,-321.38 1684.38,-298.88 1409.12,-298.88"/>
<text text-anchor="start" x="1412.12" y="-306.07" font-family="Times New Roman,serif" font-weight="bold" font-size="14.00">SeqOneShotSetEnableShowInstantTips (12)</text>
<polygon fill="none" stroke="black" points="1409.12,-276.38 1409.12,-298.88 1684.38,-298.88 1684.38,-276.38 1409.12,-276.38"/>
<text text-anchor="start" x="1514.88" y="-283.57" font-family="Times New Roman,serif" font-weight="bold" font-size="14.00">Properties</text>
<polygon fill="none" stroke="black" points="1409.12,-254.62 1409.12,-276.38 1684.38,-276.38 1684.38,-254.62 1409.12,-254.62"/>
<text text-anchor="start" x="1421.5" y="-260.07" font-family="Times New Roman,serif" font-size="14.00">[Bool] ExecuteEveryFrame (default = False) </text>
<polygon fill="none" stroke="black" points="1409.12,-232.12 1409.12,-254.62 1684.38,-254.62 1684.38,-232.12 1409.12,-232.12"/>
<text text-anchor="start" x="1527.62" y="-239.32" font-family="Times New Roman,serif" font-weight="bold" font-size="14.00">Inputs</text>
<polygon fill="none" stroke="black" points="1409.12,-210.38 1409.12,-232.12 1684.38,-232.12 1684.38,-210.38 1409.12,-210.38"/>
<text text-anchor="start" x="1437.25" y="-215.82" font-family="Times New Roman,serif" font-size="14.00">[Bool] IsEnableShow (default = False) </text>
<polygon fill="none" stroke="black" points="1408.12,-209.38 1408.12,-322.38 1685.38,-322.38 1685.38,-209.38 1408.12,-209.38"/>
</g>
<!-- 12975&#45;&gt;12999 -->
<g id="edge4" class="edge">
<title>12975&#45;&gt;12999</title>
<path fill="none" stroke="firebrick" stroke-width="2" d="M1469.19,-374.03C1478.54,-361.11 1487.92,-348.15 1496.77,-335.92"/>
<polygon fill="firebrick" stroke="firebrick" stroke-width="2" points="1498.62,-339.34 1501.65,-329.19 1492.95,-335.23 1498.62,-339.34"/>
</g>
<!-- 13002 -->
<g id="node6" class="node">
<title>13002</title>
<polygon fill="none" stroke="black" stroke-width="2" points="1910.12,-315.12 1711.38,-315.12 1711.38,-216.62 1910.12,-216.62 1910.12,-315.12"/>
<polygon fill="none" stroke="black" points="1720.38,-287.62 1720.38,-310.12 1901.12,-310.12 1901.12,-287.62 1720.38,-287.62"/>
<text text-anchor="start" x="1730.88" y="-294.82" font-family="Times New Roman,serif" font-weight="bold" font-size="14.00">Element_Simultaneous (7)</text>
<polygon fill="none" stroke="black" points="1720.38,-265.12 1720.38,-287.62 1901.12,-287.62 1901.12,-265.12 1720.38,-265.12"/>
<text text-anchor="start" x="1778.88" y="-272.32" font-family="Times New Roman,serif" font-weight="bold" font-size="14.00">Properties</text>
<polygon fill="none" stroke="black" points="1720.38,-243.38 1720.38,-265.12 1901.12,-265.12 1901.12,-243.38 1720.38,-243.38"/>
<text text-anchor="start" x="1729.75" y="-248.82" font-family="Times New Roman,serif" font-size="14.00">[Int] EndPolicy (default = 0) </text>
<polygon fill="none" stroke="black" points="1720.38,-221.62 1720.38,-243.38 1901.12,-243.38 1901.12,-221.62 1720.38,-221.62"/>
<text text-anchor="start" x="1723.38" y="-227.07" font-family="Times New Roman,serif" font-size="14.00">[Int] ResultPolicy (default = 0) </text>
<polygon fill="none" stroke="black" points="1719.38,-220.62 1719.38,-311.12 1902.12,-311.12 1902.12,-220.62 1719.38,-220.62"/>
</g>
<!-- 12975&#45;&gt;13002 -->
<g id="edge5" class="edge">
<title>12975&#45;&gt;13002</title>
<path fill="none" stroke="firebrick" stroke-width="2" d="M1538.41,-417.17C1590.97,-393.92 1650.37,-365.97 1702.75,-337.25 1711.61,-332.39 1720.71,-327.05 1729.68,-321.56"/>
<polygon fill="firebrick" stroke="firebrick" stroke-width="2" points="1730.13,-325.4 1736.78,-317.15 1726.44,-319.46 1730.13,-325.4"/>
</g>
<!-- 13014 -->
<g id="node7" class="node">
<title>13014</title>
<polygon fill="none" stroke="black" stroke-width="2" points="2203,-337.25 1928.5,-337.25 1928.5,-194.5 2203,-194.5 2203,-337.25"/>
<polygon fill="none" stroke="black" points="1937.5,-309.75 1937.5,-332.25 2194,-332.25 2194,-309.75 1937.5,-309.75"/>
<text text-anchor="start" x="1965.62" y="-316.95" font-family="Times New Roman,serif" font-weight="bold" font-size="14.00">SeqOneShotSetLayerVisible (11)</text>
<polygon fill="none" stroke="black" points="1937.5,-287.25 1937.5,-309.75 2194,-309.75 2194,-287.25 1937.5,-287.25"/>
<text text-anchor="start" x="2033.88" y="-294.45" font-family="Times New Roman,serif" font-weight="bold" font-size="14.00">Properties</text>
<polygon fill="none" stroke="black" points="1937.5,-265.5 1937.5,-287.25 2194,-287.25 2194,-265.5 1937.5,-265.5"/>
<text text-anchor="start" x="1940.5" y="-270.95" font-family="Times New Roman,serif" font-size="14.00">[Bool] ExecuteEveryFrame (default = False) </text>
<polygon fill="none" stroke="black" points="1937.5,-243 1937.5,-265.5 2194,-265.5 2194,-243 1937.5,-243"/>
<text text-anchor="start" x="2046.62" y="-250.2" font-family="Times New Roman,serif" font-weight="bold" font-size="14.00">Inputs</text>
<polygon fill="none" stroke="black" points="1937.5,-221.25 1937.5,-243 2194,-243 2194,-221.25 1937.5,-221.25"/>
<text text-anchor="start" x="1960" y="-226.7" font-family="Times New Roman,serif" font-size="14.00">[Int] LayerTag (default = 460120899) </text>
<polygon fill="none" stroke="black" points="1937.5,-199.5 1937.5,-221.25 2194,-221.25 2194,-199.5 1937.5,-199.5"/>
<text text-anchor="start" x="1972" y="-204.95" font-family="Times New Roman,serif" font-size="14.00">[Bool] IsVisible (default = False) </text>
<polygon fill="none" stroke="black" points="1936.5,-198.5 1936.5,-333.25 2195,-333.25 2195,-198.5 1936.5,-198.5"/>
</g>
<!-- 12975&#45;&gt;13014 -->
<g id="edge6" class="edge">
<title>12975&#45;&gt;13014</title>
<path fill="none" stroke="firebrick" stroke-width="2" d="M1538.48,-446.19C1642.23,-422.27 1785.22,-385.64 1917.64,-337.53"/>
<polygon fill="firebrick" stroke="firebrick" stroke-width="2" points="1917.34,-341.37 1925.53,-334.64 1914.93,-334.79 1917.34,-341.37"/>
</g>
<!-- 12981 -->
<g id="node8" class="node">
<title>12981</title>
<polygon fill="none" stroke="black" stroke-width="2" points="477.88,-142.75 175.62,-142.75 175.62,0 477.88,0 477.88,-142.75"/>
<polygon fill="none" stroke="black" points="184.62,-115.25 184.62,-137.75 468.88,-137.75 468.88,-115.25 184.62,-115.25"/>
<text text-anchor="start" x="232.25" y="-122.45" font-family="Times New Roman,serif" font-weight="bold" font-size="14.00">SeqOneShotUnloadScreen (10)</text>
<polygon fill="none" stroke="black" points="184.62,-92.75 184.62,-115.25 468.88,-115.25 468.88,-92.75 184.62,-92.75"/>
<text text-anchor="start" x="294.88" y="-99.95" font-family="Times New Roman,serif" font-weight="bold" font-size="14.00">Properties</text>
<polygon fill="none" stroke="black" points="184.62,-71 184.62,-92.75 468.88,-92.75 468.88,-71 184.62,-71"/>
<text text-anchor="start" x="201.5" y="-76.45" font-family="Times New Roman,serif" font-size="14.00">[Bool] ExecuteEveryFrame (default = False) </text>
<polygon fill="none" stroke="black" points="184.62,-48.5 184.62,-71 468.88,-71 468.88,-48.5 184.62,-48.5"/>
<text text-anchor="start" x="307.62" y="-55.7" font-family="Times New Roman,serif" font-weight="bold" font-size="14.00">Inputs</text>
<polygon fill="none" stroke="black" points="184.62,-26.75 184.62,-48.5 468.88,-48.5 468.88,-26.75 184.62,-26.75"/>
<text text-anchor="start" x="209" y="-32.2" font-family="Times New Roman,serif" font-size="14.00">[Bool] IsUnloadRequest (default = False) </text>
<polygon fill="none" stroke="black" points="184.62,-5 184.62,-26.75 468.88,-26.75 468.88,-5 184.62,-5"/>
<text text-anchor="start" x="187.62" y="-10.45" font-family="Times New Roman,serif" font-size="14.00">[String] ScreenName (default = ActionGuide_00) </text>
<polygon fill="none" stroke="black" points="183.62,-4 183.62,-138.75 469.88,-138.75 469.88,-4 183.62,-4"/>
</g>
<!-- 12978&#45;&gt;12981 -->
<g id="edge7" class="edge">
<title>12978&#45;&gt;12981</title>
<path fill="none" stroke="firebrick" stroke-width="2" d="M326.75,-216.3C326.75,-197.51 326.75,-175.48 326.75,-154.38"/>
<polygon fill="firebrick" stroke="firebrick" stroke-width="2" points="330.25,-156.15 326.75,-146.15 323.25,-156.15 330.25,-156.15"/>
</g>
<!-- 12984 -->
<g id="node9" class="node">
<title>12984</title>
<polygon fill="none" stroke="black" stroke-width="2" points="157.5,-89.38 0,-89.38 0,-53.38 157.5,-53.38 157.5,-89.38"/>
<polygon fill="none" stroke="black" points="9,-60.12 9,-82.62 148.5,-82.62 148.5,-60.12 9,-60.12"/>
<text text-anchor="start" x="12" y="-67.33" font-family="Times New Roman,serif" font-weight="bold" font-size="14.00">CloseHUD.module (4)</text>
<polygon fill="none" stroke="black" points="8,-59.12 8,-83.62 149.5,-83.62 149.5,-59.12 8,-59.12"/>
</g>
<!-- 12978&#45;&gt;12984 -->
<g id="edge8" class="edge">
<title>12978&#45;&gt;12984</title>
<path fill="none" stroke="firebrick" stroke-width="2" d="M262.27,-216.18C232.99,-193.94 198,-167.17 166.75,-142.75 147.5,-127.71 126.09,-110.6 109.21,-97.01"/>
<polygon fill="firebrick" stroke="firebrick" stroke-width="2" points="112.68,-95.31 102.7,-91.76 108.29,-100.76 112.68,-95.31"/>
</g>
<!-- 12990 -->
<g id="node10" class="node">
<title>12990</title>
<polygon fill="none" stroke="black" stroke-width="2" points="1063,-142.75 788.5,-142.75 788.5,0 1063,0 1063,-142.75"/>
<polygon fill="none" stroke="black" points="797.5,-115.25 797.5,-137.75 1054,-137.75 1054,-115.25 797.5,-115.25"/>
<text text-anchor="start" x="836.12" y="-122.45" font-family="Times New Roman,serif" font-weight="bold" font-size="14.00">SeqOneShotCloseScenery (0)</text>
<polygon fill="none" stroke="black" points="797.5,-92.75 797.5,-115.25 1054,-115.25 1054,-92.75 797.5,-92.75"/>
<text text-anchor="start" x="893.88" y="-99.95" font-family="Times New Roman,serif" font-weight="bold" font-size="14.00">Properties</text>
<polygon fill="none" stroke="black" points="797.5,-71 797.5,-92.75 1054,-92.75 1054,-71 797.5,-71"/>
<text text-anchor="start" x="800.5" y="-76.45" font-family="Times New Roman,serif" font-size="14.00">[Bool] ExecuteEveryFrame (default = False) </text>
<polygon fill="none" stroke="black" points="797.5,-48.5 797.5,-71 1054,-71 1054,-48.5 797.5,-48.5"/>
<text text-anchor="start" x="906.62" y="-55.7" font-family="Times New Roman,serif" font-weight="bold" font-size="14.00">Inputs</text>
<polygon fill="none" stroke="black" points="797.5,-26.75 797.5,-48.5 1054,-48.5 1054,-26.75 797.5,-26.75"/>
<text text-anchor="start" x="833.5" y="-32.2" font-family="Times New Roman,serif" font-size="14.00">[Float] FadeTime (default = 1.0) </text>
<polygon fill="none" stroke="black" points="797.5,-5 797.5,-26.75 1054,-26.75 1054,-5 797.5,-5"/>
<text text-anchor="start" x="816.25" y="-10.45" font-family="Times New Roman,serif" font-size="14.00">[String] NextSceneryName (default = ) </text>
<polygon fill="none" stroke="black" points="796.5,-4 796.5,-138.75 1055,-138.75 1055,-4 796.5,-4"/>
</g>
<!-- 12987&#45;&gt;12990 -->
<g id="edge9" class="edge">
<title>12987&#45;&gt;12990</title>
<path fill="none" stroke="firebrick" stroke-width="2" d="M726.13,-216.3C754.11,-196.13 787.27,-172.21 818.45,-149.73"/>
<polygon fill="firebrick" stroke="firebrick" stroke-width="2" points="819.1,-153.58 825.16,-144.89 815.01,-147.9 819.1,-153.58"/>
</g>
<!-- 12993 -->
<g id="node11" class="node">
<title>12993</title>
<polygon fill="none" stroke="black" stroke-width="2" points="770,-109.75 495.5,-109.75 495.5,-33 770,-33 770,-109.75"/>
<polygon fill="none" stroke="black" points="504.5,-82.25 504.5,-104.75 761,-104.75 761,-82.25 504.5,-82.25"/>
<text text-anchor="start" x="515.75" y="-89.45" font-family="Times New Roman,serif" font-weight="bold" font-size="14.00">SeqOneShotEffectCloseSceneStart (3)</text>
<polygon fill="none" stroke="black" points="504.5,-59.75 504.5,-82.25 761,-82.25 761,-59.75 504.5,-59.75"/>
<text text-anchor="start" x="600.88" y="-66.95" font-family="Times New Roman,serif" font-weight="bold" font-size="14.00">Properties</text>
<polygon fill="none" stroke="black" points="504.5,-38 504.5,-59.75 761,-59.75 761,-38 504.5,-38"/>
<text text-anchor="start" x="507.5" y="-43.45" font-family="Times New Roman,serif" font-size="14.00">[Bool] ExecuteEveryFrame (default = False) </text>
<polygon fill="none" stroke="black" points="503.5,-37 503.5,-105.75 762,-105.75 762,-37 503.5,-37"/>
</g>
<!-- 12987&#45;&gt;12993 -->
<g id="edge10" class="edge">
<title>12987&#45;&gt;12993</title>
<path fill="none" stroke="firebrick" stroke-width="2" d="M652.19,-216.3C648.26,-187.19 643.28,-150.31 639.34,-121.17"/>
<polygon fill="firebrick" stroke="firebrick" stroke-width="2" points="643.04,-122.45 638.24,-113.01 636.11,-123.38 643.04,-122.45"/>
</g>
<!-- 13005 -->
<g id="node12" class="node">
<title>13005</title>
<polygon fill="none" stroke="black" stroke-width="2" points="1963,-131.88 1658.5,-131.88 1658.5,-10.88 1963,-10.88 1963,-131.88"/>
<polygon fill="none" stroke="black" points="1667.5,-104.38 1667.5,-126.88 1954,-126.88 1954,-104.38 1667.5,-104.38"/>
<text text-anchor="start" x="1726" y="-111.58" font-family="Times New Roman,serif" font-weight="bold" font-size="14.00">SeqOneShotLoadScreen (8)</text>
<polygon fill="none" stroke="black" points="1667.5,-81.88 1667.5,-104.38 1954,-104.38 1954,-81.88 1667.5,-81.88"/>
<text text-anchor="start" x="1778.88" y="-89.08" font-family="Times New Roman,serif" font-weight="bold" font-size="14.00">Properties</text>
<polygon fill="none" stroke="black" points="1667.5,-60.12 1667.5,-81.88 1954,-81.88 1954,-60.12 1667.5,-60.12"/>
<text text-anchor="start" x="1685.5" y="-65.58" font-family="Times New Roman,serif" font-size="14.00">[Bool] ExecuteEveryFrame (default = False) </text>
<polygon fill="none" stroke="black" points="1667.5,-37.62 1667.5,-60.12 1954,-60.12 1954,-37.62 1667.5,-37.62"/>
<text text-anchor="start" x="1791.62" y="-44.83" font-family="Times New Roman,serif" font-weight="bold" font-size="14.00">Inputs</text>
<polygon fill="none" stroke="black" points="1667.5,-15.88 1667.5,-37.62 1954,-37.62 1954,-15.88 1667.5,-15.88"/>
<text text-anchor="start" x="1670.5" y="-21.32" font-family="Times New Roman,serif" font-size="14.00">[String] ScreenName (default = LoadingFade_00) </text>
<polygon fill="none" stroke="black" points="1666.5,-14.88 1666.5,-127.88 1955,-127.88 1955,-14.88 1666.5,-14.88"/>
</g>
<!-- 13002&#45;&gt;13005 -->
<g id="edge11" class="edge">
<title>13002&#45;&gt;13005</title>
<path fill="none" stroke="firebrick" stroke-width="2" d="M1810.75,-216.3C1810.75,-194.28 1810.75,-167.81 1810.75,-143.6"/>
<polygon fill="firebrick" stroke="firebrick" stroke-width="2" points="1814.25,-145.33 1810.75,-135.33 1807.25,-145.33 1814.25,-145.33"/>
</g>
<!-- 13008 -->
<g id="node13" class="node">
<title>13008</title>
<polygon fill="none" stroke="black" stroke-width="2" points="1524.88,-109.75 1222.62,-109.75 1222.62,-33 1524.88,-33 1524.88,-109.75"/>
<polygon fill="none" stroke="black" points="1231.62,-82.25 1231.62,-104.75 1515.88,-104.75 1515.88,-82.25 1231.62,-82.25"/>
<text text-anchor="start" x="1271" y="-89.45" font-family="Times New Roman,serif" font-weight="bold" font-size="14.00">SeqExecuteOpenLoadingFade (9)</text>
<polygon fill="none" stroke="black" points="1231.62,-59.75 1231.62,-82.25 1515.88,-82.25 1515.88,-59.75 1231.62,-59.75"/>
<text text-anchor="start" x="1354.62" y="-66.95" font-family="Times New Roman,serif" font-weight="bold" font-size="14.00">Inputs</text>
<polygon fill="none" stroke="black" points="1231.62,-38 1231.62,-59.75 1515.88,-59.75 1515.88,-38 1231.62,-38"/>
<text text-anchor="start" x="1234.62" y="-43.45" font-family="Times New Roman,serif" font-size="14.00">[Bool] IsLoadingFromSaveData (default = False) </text>
<polygon fill="none" stroke="black" points="1230.62,-37 1230.62,-105.75 1516.88,-105.75 1516.88,-37 1230.62,-37"/>
</g>
<!-- 13002&#45;&gt;13008 -->
<g id="edge12" class="edge">
<title>13002&#45;&gt;13008</title>
<path fill="none" stroke="firebrick" stroke-width="2" d="M1740.92,-216.18C1728.48,-208.44 1715.44,-200.89 1702.75,-194.5 1639.86,-162.83 1566.71,-134.87 1505.37,-113.72"/>
<polygon fill="firebrick" stroke="firebrick" stroke-width="2" points="1508.31,-111.03 1497.71,-111.1 1506.04,-117.65 1508.31,-111.03"/>
</g>
<!-- 13011 -->
<g id="node14" class="node">
<title>13011</title>
<polygon fill="none" stroke="black" stroke-width="2" points="1087.38,-326.38 776.12,-326.38 776.12,-205.38 1087.38,-205.38 1087.38,-326.38"/>
<polygon fill="none" stroke="black" points="785.12,-298.88 785.12,-321.38 1078.38,-321.38 1078.38,-298.88 785.12,-298.88"/>
<text text-anchor="start" x="820.75" y="-306.07" font-family="Times New Roman,serif" font-weight="bold" font-size="14.00">Element_ModuleIF_Input_Bool (13)</text>
<polygon fill="none" stroke="black" points="785.12,-276.38 785.12,-298.88 1078.38,-298.88 1078.38,-276.38 785.12,-276.38"/>
<text text-anchor="start" x="899.88" y="-283.57" font-family="Times New Roman,serif" font-weight="bold" font-size="14.00">Properties</text>
<polygon fill="none" stroke="black" points="785.12,-254.62 785.12,-276.38 1078.38,-276.38 1078.38,-254.62 785.12,-254.62"/>
<text text-anchor="start" x="788.12" y="-260.07" font-family="Times New Roman,serif" font-size="14.00">[String] Name (default = IsLoadingFromSaveData) </text>
<polygon fill="none" stroke="black" points="785.12,-232.12 785.12,-254.62 1078.38,-254.62 1078.38,-232.12 785.12,-232.12"/>
<text text-anchor="start" x="907.38" y="-239.32" font-family="Times New Roman,serif" font-weight="bold" font-size="14.00">Outputs</text>
<polygon fill="none" stroke="black" points="785.12,-210.38 785.12,-232.12 1078.38,-232.12 1078.38,-210.38 785.12,-210.38"/>
<text text-anchor="start" x="842.12" y="-215.82" font-family="Times New Roman,serif" font-size="14.00">[Bool] IsLoadingFromSaveData</text>
<polygon fill="none" stroke="black" points="784.12,-209.38 784.12,-322.38 1079.38,-322.38 1079.38,-209.38 784.12,-209.38"/>
</g>
<!-- 13011&#45;&gt;13008 -->
<g id="edge13" class="edge">
<title>13011:13023&#45;&gt;13008:13022</title>
<path fill="none" stroke="#008000" stroke-dasharray="5,2" d="M931.75,-208.88C931.75,-140.06 1010.98,-175.04 1071.75,-142.75 1140.77,-106.07 1147.99,-53.78 1219.25,-48.77"/>
<polygon fill="#008000" stroke="#008000" points="1219.36,-52.26 1229.24,-48.43 1219.12,-45.27 1219.36,-52.26"/>
<text text-anchor="middle" x="1060.5" y="-163.2" font-family="Times New Roman,serif" font-size="14.00" fill="#008000">IsLoadingFromSaveData</text>
</g>
<!-- 13026 -->
<g id="node15" class="node">
<title>13026</title>
<ellipse fill="mediumpurple" stroke="mediumpurple" cx="1394.75" cy="-636.5" rx="31.39" ry="18"/>
<text text-anchor="start" x="1379.75" y="-632.45" font-family="Times New Roman,serif" font-weight="bold" font-size="14.00" fill="white">Root</text>
</g>
<!-- 13026&#45;&gt;12975 -->
<g id="edge14" class="edge">
<title>13026&#45;&gt;12975</title>
<path fill="none" stroke="black" d="M1394.75,-618.14C1394.75,-611.27 1394.75,-602.76 1394.75,-593.37"/>
<polygon fill="black" stroke="black" points="1398.25,-593.48 1394.75,-583.48 1391.25,-593.48 1398.25,-593.48"/>
</g>
</g>
</svg>
