<?xml version="1.0" encoding="UTF-8" standalone="no"?>
<!DOCTYPE svg PUBLIC "-//W3C//DTD SVG 1.1//EN"
 "http://www.w3.org/Graphics/SVG/1.1/DTD/svg11.dtd">
<!-- Generated by graphviz version 9.0.0 (20230911.1827)
 -->
<!-- Title: PrintLoadLapTimeSectionForPatrol.module Pages: 1 -->
<svg width="990pt" height="469pt"
 viewBox="0.00 0.00 989.76 469.46" xmlns="http://www.w3.org/2000/svg" xmlns:xlink="http://www.w3.org/1999/xlink">
<g id="graph0" class="graph" transform="scale(1 1) rotate(0) translate(4 465.46)">
<title>PrintLoadLapTimeSectionForPatrol.module</title>
<polygon fill="lightgray" stroke="none" points="-4,4 -4,-465.46 985.76,-465.46 985.76,4 -4,4"/>
<!-- 13029 -->
<g id="node1" class="node">
<title>13029</title>
<polygon fill="none" stroke="black" stroke-width="2" points="626.62,-388.46 343.12,-388.46 343.12,-181.21 626.62,-181.21 626.62,-388.46"/>
<polygon fill="none" stroke="black" points="352.12,-360.96 352.12,-383.46 617.62,-383.46 617.62,-360.96 352.12,-360.96"/>
<text text-anchor="start" x="414" y="-368.16" font-family="Times New Roman,serif" font-weight="bold" font-size="14.00">Element_Sequential (2)</text>
<polygon fill="none" stroke="black" points="352.12,-338.46 352.12,-360.96 617.62,-360.96 617.62,-338.46 352.12,-338.46"/>
<text text-anchor="start" x="453" y="-345.66" font-family="Times New Roman,serif" font-weight="bold" font-size="14.00">Properties</text>
<polygon fill="none" stroke="black" points="352.12,-316.71 352.12,-338.46 617.62,-338.46 617.62,-316.71 352.12,-316.71"/>
<text text-anchor="start" x="400.88" y="-322.16" font-family="Times New Roman,serif" font-size="14.00">[Int] BusyPolicy (default = 0) </text>
<polygon fill="none" stroke="black" points="352.12,-294.96 352.12,-316.71 617.62,-316.71 617.62,-294.96 352.12,-294.96"/>
<text text-anchor="start" x="403.88" y="-300.41" font-family="Times New Roman,serif" font-size="14.00">[Int] NumLoop (default = 0) </text>
<polygon fill="none" stroke="black" points="352.12,-273.21 352.12,-294.96 617.62,-294.96 617.62,-273.21 352.12,-273.21"/>
<text text-anchor="start" x="403.12" y="-278.66" font-family="Times New Roman,serif" font-size="14.00">[Int] PlayPolicy (default = 0) </text>
<polygon fill="none" stroke="black" points="352.12,-251.46 352.12,-273.21 617.62,-273.21 617.62,-251.46 352.12,-251.46"/>
<text text-anchor="start" x="397.5" y="-256.91" font-family="Times New Roman,serif" font-size="14.00">[Int] ResultPolicy (default = 0) </text>
<polygon fill="none" stroke="black" points="352.12,-229.71 352.12,-251.46 617.62,-251.46 617.62,-229.71 352.12,-229.71"/>
<text text-anchor="start" x="378.38" y="-235.16" font-family="Times New Roman,serif" font-size="14.00">[Bool] IsDelayJudge (default = False) </text>
<polygon fill="none" stroke="black" points="352.12,-207.96 352.12,-229.71 617.62,-229.71 617.62,-207.96 352.12,-207.96"/>
<text text-anchor="start" x="394.88" y="-213.41" font-family="Times New Roman,serif" font-size="14.00">[Bool] IsLoop (default = False) </text>
<polygon fill="none" stroke="black" points="352.12,-186.21 352.12,-207.96 617.62,-207.96 617.62,-186.21 352.12,-186.21"/>
<text text-anchor="start" x="355.12" y="-191.66" font-family="Times New Roman,serif" font-size="14.00">[Bool] IsUpdateNextInFrame (default = True) </text>
<polygon fill="none" stroke="black" points="351.12,-185.21 351.12,-384.46 618.62,-384.46 618.62,-185.21 351.12,-185.21"/>
</g>
<!-- 13032 -->
<g id="node2" class="node">
<title>13032</title>
<polygon fill="none" stroke="black" stroke-width="2" points="327.75,-129.46 0,-129.46 0,-7.71 327.75,-7.71 327.75,-129.46"/>
<polygon fill="none" stroke="black" points="9,-101.96 9,-124.46 318.75,-124.46 318.75,-101.96 9,-101.96"/>
<text text-anchor="start" x="26.62" y="-109.16" font-family="Times New Roman,serif" font-weight="bold" font-size="14.00">SeqOneShotPrintLoadLapTimeForPatrol (0)</text>
<polygon fill="none" stroke="black" points="9,-79.46 9,-101.96 318.75,-101.96 318.75,-79.46 9,-79.46"/>
<text text-anchor="start" x="132" y="-86.66" font-family="Times New Roman,serif" font-weight="bold" font-size="14.00">Properties</text>
<polygon fill="none" stroke="black" points="9,-57.71 9,-79.46 318.75,-79.46 318.75,-57.71 9,-57.71"/>
<text text-anchor="start" x="38.62" y="-63.16" font-family="Times New Roman,serif" font-size="14.00">[Bool] ExecuteEveryFrame (default = False) </text>
<polygon fill="none" stroke="black" points="9,-35.21 9,-57.71 318.75,-57.71 318.75,-35.21 9,-35.21"/>
<text text-anchor="start" x="144.75" y="-42.41" font-family="Times New Roman,serif" font-weight="bold" font-size="14.00">Inputs</text>
<polygon fill="none" stroke="black" points="9,-12.71 9,-35.21 318.75,-35.21 318.75,-12.71 9,-12.71"/>
<text text-anchor="start" x="12" y="-18.91" font-family="Times New Roman,serif" font-size="14.00">[String] Label (default = 常駐スクリーン生成前) </text>
<polygon fill="none" stroke="black" points="8,-11.71 8,-125.46 319.75,-125.46 319.75,-11.71 8,-11.71"/>
</g>
<!-- 13029&#45;&gt;13032 -->
<g id="edge1" class="edge">
<title>13029&#45;&gt;13032</title>
<path fill="none" stroke="firebrick" stroke-width="2" d="M367.8,-181.01C352.42,-169.15 336.55,-157.67 320.88,-147.46 314.62,-143.39 308.13,-139.39 301.49,-135.47"/>
<polygon fill="firebrick" stroke="firebrick" stroke-width="2" points="304.71,-133.29 294.3,-131.32 301.21,-139.35 304.71,-133.29"/>
</g>
<!-- 13038 -->
<g id="node3" class="node">
<title>13038</title>
<polygon fill="none" stroke="black" stroke-width="2" points="624,-117.84 345.75,-117.84 345.75,-19.34 624,-19.34 624,-117.84"/>
<polygon fill="none" stroke="black" points="354.75,-90.34 354.75,-112.84 615,-112.84 615,-90.34 354.75,-90.34"/>
<text text-anchor="start" x="395.25" y="-97.54" font-family="Times New Roman,serif" font-weight="bold" font-size="14.00">Element_ModuleIF_Child (5)</text>
<polygon fill="none" stroke="black" points="354.75,-67.84 354.75,-90.34 615,-90.34 615,-67.84 354.75,-67.84"/>
<text text-anchor="start" x="453" y="-75.04" font-family="Times New Roman,serif" font-weight="bold" font-size="14.00">Properties</text>
<polygon fill="none" stroke="black" points="354.75,-46.09 354.75,-67.84 615,-67.84 615,-46.09 354.75,-46.09"/>
<text text-anchor="start" x="357.75" y="-51.54" font-family="Times New Roman,serif" font-size="14.00">[Bool] IsAcceptNoConnect (default = False) </text>
<polygon fill="none" stroke="black" points="354.75,-24.34 354.75,-46.09 615,-46.09 615,-24.34 354.75,-24.34"/>
<text text-anchor="start" x="411" y="-29.79" font-family="Times New Roman,serif" font-size="14.00">[String] Name (default = ) </text>
<polygon fill="none" stroke="black" points="353.75,-23.34 353.75,-113.84 616,-113.84 616,-23.34 353.75,-23.34"/>
</g>
<!-- 13029&#45;&gt;13038 -->
<g id="edge2" class="edge">
<title>13029&#45;&gt;13038</title>
<path fill="none" stroke="firebrick" stroke-width="2" d="M484.88,-180.79C484.88,-163.19 484.88,-145.45 484.88,-129.46"/>
<polygon fill="firebrick" stroke="firebrick" stroke-width="2" points="488.38,-131.18 484.88,-121.18 481.38,-131.18 488.38,-131.18"/>
</g>
<!-- 13041 -->
<g id="node4" class="node">
<title>13041</title>
<polygon fill="none" stroke="black" stroke-width="2" points="969.75,-129.46 642,-129.46 642,-7.71 969.75,-7.71 969.75,-129.46"/>
<polygon fill="none" stroke="black" points="651,-101.96 651,-124.46 960.75,-124.46 960.75,-101.96 651,-101.96"/>
<text text-anchor="start" x="668.62" y="-109.16" font-family="Times New Roman,serif" font-weight="bold" font-size="14.00">SeqOneShotPrintLoadLapTimeForPatrol (1)</text>
<polygon fill="none" stroke="black" points="651,-79.46 651,-101.96 960.75,-101.96 960.75,-79.46 651,-79.46"/>
<text text-anchor="start" x="774" y="-86.66" font-family="Times New Roman,serif" font-weight="bold" font-size="14.00">Properties</text>
<polygon fill="none" stroke="black" points="651,-57.71 651,-79.46 960.75,-79.46 960.75,-57.71 651,-57.71"/>
<text text-anchor="start" x="680.62" y="-63.16" font-family="Times New Roman,serif" font-size="14.00">[Bool] ExecuteEveryFrame (default = False) </text>
<polygon fill="none" stroke="black" points="651,-35.21 651,-57.71 960.75,-57.71 960.75,-35.21 651,-35.21"/>
<text text-anchor="start" x="786.75" y="-42.41" font-family="Times New Roman,serif" font-weight="bold" font-size="14.00">Inputs</text>
<polygon fill="none" stroke="black" points="651,-12.71 651,-35.21 960.75,-35.21 960.75,-12.71 651,-12.71"/>
<text text-anchor="start" x="654" y="-18.91" font-family="Times New Roman,serif" font-size="14.00">[String] Label (default = 常駐スクリーン生成前) </text>
<polygon fill="none" stroke="black" points="650,-11.71 650,-125.46 961.75,-125.46 961.75,-11.71 650,-11.71"/>
</g>
<!-- 13029&#45;&gt;13041 -->
<g id="edge3" class="edge">
<title>13029&#45;&gt;13041</title>
<path fill="none" stroke="firebrick" stroke-width="2" d="M627.07,-188.93C653.69,-171.16 680.99,-152.94 705.99,-136.26"/>
<polygon fill="firebrick" stroke="firebrick" stroke-width="2" points="706.56,-140.09 712.93,-131.62 702.67,-134.26 706.56,-140.09"/>
</g>
<!-- 13035 -->
<g id="node5" class="node">
<title>13035</title>
<polygon fill="none" stroke="black" stroke-width="2" points="287.62,-345.34 40.12,-345.34 40.12,-224.34 287.62,-224.34 287.62,-345.34"/>
<polygon fill="none" stroke="black" points="49.12,-317.84 49.12,-340.34 278.62,-340.34 278.62,-317.84 49.12,-317.84"/>
<text text-anchor="start" x="52.12" y="-325.04" font-family="Times New Roman,serif" font-weight="bold" font-size="14.00">Element_ModuleIF_Input_String (3)</text>
<polygon fill="none" stroke="black" points="49.12,-295.34 49.12,-317.84 278.62,-317.84 278.62,-295.34 49.12,-295.34"/>
<text text-anchor="start" x="132" y="-302.54" font-family="Times New Roman,serif" font-weight="bold" font-size="14.00">Properties</text>
<polygon fill="none" stroke="black" points="49.12,-273.59 49.12,-295.34 278.62,-295.34 278.62,-273.59 49.12,-273.59"/>
<text text-anchor="start" x="61.5" y="-279.04" font-family="Times New Roman,serif" font-size="14.00">[String] Name (default = StartLabel) </text>
<polygon fill="none" stroke="black" points="49.12,-251.09 49.12,-273.59 278.62,-273.59 278.62,-251.09 49.12,-251.09"/>
<text text-anchor="start" x="139.5" y="-258.29" font-family="Times New Roman,serif" font-weight="bold" font-size="14.00">Outputs</text>
<polygon fill="none" stroke="black" points="49.12,-229.34 49.12,-251.09 278.62,-251.09 278.62,-229.34 49.12,-229.34"/>
<text text-anchor="start" x="125.62" y="-234.79" font-family="Times New Roman,serif" font-size="14.00">[String] Label</text>
<polygon fill="none" stroke="black" points="48.12,-228.34 48.12,-341.34 279.62,-341.34 279.62,-228.34 48.12,-228.34"/>
</g>
<!-- 13035&#45;&gt;13032 -->
<g id="edge4" class="edge">
<title>13035:13046&#45;&gt;13032:13045</title>
<path fill="none" stroke="#008000" stroke-dasharray="5,2" d="M163.88,-227.84C163.88,-161.32 231.96,-179.74 290.12,-147.46 306.33,-138.47 317.87,-145.15 327.75,-129.46 334.67,-118.48 336.9,-21.8 327.75,-12.59 316.82,-1.59 205.67,4.61 172.91,-5.04"/>
<polygon fill="#008000" stroke="#008000" points="171.15,-2 165.1,-10.7 175.25,-7.67 171.15,-2"/>
<text text-anchor="middle" x="306.25" y="-149.91" font-family="Times New Roman,serif" font-size="14.00" fill="#008000">Label</text>
</g>
<!-- 13044 -->
<g id="node6" class="node">
<title>13044</title>
<polygon fill="none" stroke="black" stroke-width="2" points="929.62,-345.34 682.12,-345.34 682.12,-224.34 929.62,-224.34 929.62,-345.34"/>
<polygon fill="none" stroke="black" points="691.12,-317.84 691.12,-340.34 920.62,-340.34 920.62,-317.84 691.12,-317.84"/>
<text text-anchor="start" x="694.12" y="-325.04" font-family="Times New Roman,serif" font-weight="bold" font-size="14.00">Element_ModuleIF_Input_String (4)</text>
<polygon fill="none" stroke="black" points="691.12,-295.34 691.12,-317.84 920.62,-317.84 920.62,-295.34 691.12,-295.34"/>
<text text-anchor="start" x="774" y="-302.54" font-family="Times New Roman,serif" font-weight="bold" font-size="14.00">Properties</text>
<polygon fill="none" stroke="black" points="691.12,-273.59 691.12,-295.34 920.62,-295.34 920.62,-273.59 691.12,-273.59"/>
<text text-anchor="start" x="705.38" y="-279.04" font-family="Times New Roman,serif" font-size="14.00">[String] Name (default = EndLabel) </text>
<polygon fill="none" stroke="black" points="691.12,-251.09 691.12,-273.59 920.62,-273.59 920.62,-251.09 691.12,-251.09"/>
<text text-anchor="start" x="781.5" y="-258.29" font-family="Times New Roman,serif" font-weight="bold" font-size="14.00">Outputs</text>
<polygon fill="none" stroke="black" points="691.12,-229.34 691.12,-251.09 920.62,-251.09 920.62,-229.34 691.12,-229.34"/>
<text text-anchor="start" x="767.62" y="-234.79" font-family="Times New Roman,serif" font-size="14.00">[String] Label</text>
<polygon fill="none" stroke="black" points="690.12,-228.34 690.12,-341.34 921.62,-341.34 921.62,-228.34 690.12,-228.34"/>
</g>
<!-- 13044&#45;&gt;13041 -->
<g id="edge5" class="edge">
<title>13044:13048&#45;&gt;13041:13047</title>
<path fill="none" stroke="#008000" stroke-dasharray="5,2" d="M805.88,-227.84C805.88,-185.36 948.83,-166.43 969.75,-129.46 982.54,-106.86 988.06,-31.01 969.75,-12.59 958.82,-1.59 847.67,4.61 814.91,-5.04"/>
<polygon fill="#008000" stroke="#008000" points="813.15,-2 807.1,-10.7 817.25,-7.67 813.15,-2"/>
<text text-anchor="middle" x="962.25" y="-149.91" font-family="Times New Roman,serif" font-size="14.00" fill="#008000">Label</text>
</g>
<!-- 13049 -->
<g id="node7" class="node">
<title>13049</title>
<ellipse fill="mediumpurple" stroke="mediumpurple" cx="484.88" cy="-443.46" rx="31.39" ry="18"/>
<text text-anchor="start" x="469.88" y="-439.41" font-family="Times New Roman,serif" font-weight="bold" font-size="14.00" fill="white">Root</text>
</g>
<!-- 13049&#45;&gt;13029 -->
<g id="edge6" class="edge">
<title>13049&#45;&gt;13029</title>
<path fill="none" stroke="black" d="M484.88,-425.1C484.88,-418.23 484.88,-409.73 484.88,-400.33"/>
<polygon fill="black" stroke="black" points="488.38,-400.44 484.88,-390.45 481.38,-400.45 488.38,-400.44"/>
</g>
</g>
</svg>
