<?xml version="1.0" encoding="UTF-8" standalone="no"?>
<!DOCTYPE svg PUBLIC "-//W3C//DTD SVG 1.1//EN"
 "http://www.w3.org/Graphics/SVG/1.1/DTD/svg11.dtd">
<!-- Generated by graphviz version 9.0.0 (20230911.1827)
 -->
<!-- Title: ResetZonauEnemyRespawnIfNecessary.module Pages: 1 -->
<svg width="686pt" height="740pt"
 viewBox="0.00 0.00 685.62 739.75" xmlns="http://www.w3.org/2000/svg" xmlns:xlink="http://www.w3.org/1999/xlink">
<g id="graph0" class="graph" transform="scale(1 1) rotate(0) translate(4 735.75)">
<title>ResetZonauEnemyRespawnIfNecessary.module</title>
<polygon fill="lightgray" stroke="none" points="-4,4 -4,-735.75 681.62,-735.75 681.62,4 -4,4"/>
<!-- 13214 -->
<g id="node1" class="node">
<title>13214</title>
<polygon fill="none" stroke="black" stroke-width="2" points="549.25,-559 233.5,-559 233.5,-372.75 549.25,-372.75 549.25,-559"/>
<polygon fill="none" stroke="black" points="242.5,-531.5 242.5,-554 540.25,-554 540.25,-531.5 242.5,-531.5"/>
<text text-anchor="start" x="313" y="-538.7" font-family="Times New Roman,serif" font-weight="bold" font-size="14.00">Element_BoolSelector (0)</text>
<polygon fill="none" stroke="black" points="242.5,-509 242.5,-531.5 540.25,-531.5 540.25,-509 242.5,-509"/>
<text text-anchor="start" x="359.5" y="-516.2" font-family="Times New Roman,serif" font-weight="bold" font-size="14.00">Properties</text>
<polygon fill="none" stroke="black" points="242.5,-487.25 242.5,-509 540.25,-509 540.25,-487.25 242.5,-487.25"/>
<text text-anchor="start" x="294.25" y="-492.7" font-family="Times New Roman,serif" font-size="14.00">[Int] CalculateTiming (default = 0) </text>
<polygon fill="none" stroke="black" points="242.5,-465.5 242.5,-487.25 540.25,-487.25 540.25,-465.5 242.5,-465.5"/>
<text text-anchor="start" x="275.12" y="-470.95" font-family="Times New Roman,serif" font-size="14.00">[Bool] ChildFrameSync (default = False) </text>
<polygon fill="none" stroke="black" points="242.5,-443.75 242.5,-465.5 540.25,-465.5 540.25,-443.75 242.5,-443.75"/>
<text text-anchor="start" x="291.62" y="-449.2" font-family="Times New Roman,serif" font-size="14.00">[Bool] InputValue (default = False) </text>
<polygon fill="none" stroke="black" points="242.5,-422 242.5,-443.75 540.25,-443.75 540.25,-422 242.5,-422"/>
<text text-anchor="start" x="245.5" y="-427.45" font-family="Times New Roman,serif" font-size="14.00">[Bool] IsNoSelectWhenChildBusy (default = False) </text>
<polygon fill="none" stroke="black" points="242.5,-399.5 242.5,-422 540.25,-422 540.25,-399.5 242.5,-399.5"/>
<text text-anchor="start" x="372.25" y="-406.7" font-family="Times New Roman,serif" font-weight="bold" font-size="14.00">Inputs</text>
<polygon fill="none" stroke="black" points="242.5,-377.75 242.5,-399.5 540.25,-399.5 540.25,-377.75 242.5,-377.75"/>
<text text-anchor="start" x="307.38" y="-383.2" font-family="Times New Roman,serif" font-size="14.00">[Bool] Input (default = False) </text>
<polygon fill="none" stroke="black" points="241.5,-376.75 241.5,-555 541.25,-555 541.25,-376.75 241.5,-376.75"/>
</g>
<!-- 13220 -->
<g id="node2" class="node">
<title>13220</title>
<polygon fill="none" stroke="black" stroke-width="2" points="385.12,-321 101.62,-321 101.62,-113.75 385.12,-113.75 385.12,-321"/>
<polygon fill="none" stroke="black" points="110.62,-293.5 110.62,-316 376.12,-316 376.12,-293.5 110.62,-293.5"/>
<text text-anchor="start" x="172.5" y="-300.7" font-family="Times New Roman,serif" font-weight="bold" font-size="14.00">Element_Sequential (3)</text>
<polygon fill="none" stroke="black" points="110.62,-271 110.62,-293.5 376.12,-293.5 376.12,-271 110.62,-271"/>
<text text-anchor="start" x="211.5" y="-278.2" font-family="Times New Roman,serif" font-weight="bold" font-size="14.00">Properties</text>
<polygon fill="none" stroke="black" points="110.62,-249.25 110.62,-271 376.12,-271 376.12,-249.25 110.62,-249.25"/>
<text text-anchor="start" x="159.38" y="-254.7" font-family="Times New Roman,serif" font-size="14.00">[Int] BusyPolicy (default = 0) </text>
<polygon fill="none" stroke="black" points="110.62,-227.5 110.62,-249.25 376.12,-249.25 376.12,-227.5 110.62,-227.5"/>
<text text-anchor="start" x="162.38" y="-232.95" font-family="Times New Roman,serif" font-size="14.00">[Int] NumLoop (default = 0) </text>
<polygon fill="none" stroke="black" points="110.62,-205.75 110.62,-227.5 376.12,-227.5 376.12,-205.75 110.62,-205.75"/>
<text text-anchor="start" x="161.62" y="-211.2" font-family="Times New Roman,serif" font-size="14.00">[Int] PlayPolicy (default = 0) </text>
<polygon fill="none" stroke="black" points="110.62,-184 110.62,-205.75 376.12,-205.75 376.12,-184 110.62,-184"/>
<text text-anchor="start" x="156" y="-189.45" font-family="Times New Roman,serif" font-size="14.00">[Int] ResultPolicy (default = 0) </text>
<polygon fill="none" stroke="black" points="110.62,-162.25 110.62,-184 376.12,-184 376.12,-162.25 110.62,-162.25"/>
<text text-anchor="start" x="136.88" y="-167.7" font-family="Times New Roman,serif" font-size="14.00">[Bool] IsDelayJudge (default = False) </text>
<polygon fill="none" stroke="black" points="110.62,-140.5 110.62,-162.25 376.12,-162.25 376.12,-140.5 110.62,-140.5"/>
<text text-anchor="start" x="153.38" y="-145.95" font-family="Times New Roman,serif" font-size="14.00">[Bool] IsLoop (default = False) </text>
<polygon fill="none" stroke="black" points="110.62,-118.75 110.62,-140.5 376.12,-140.5 376.12,-118.75 110.62,-118.75"/>
<text text-anchor="start" x="113.62" y="-124.2" font-family="Times New Roman,serif" font-size="14.00">[Bool] IsUpdateNextInFrame (default = True) </text>
<polygon fill="none" stroke="black" points="109.62,-117.75 109.62,-317 377.12,-317 377.12,-117.75 109.62,-117.75"/>
</g>
<!-- 13214&#45;&gt;13220 -->
<g id="edge1" class="edge">
<title>13214&#45;&gt;13220</title>
<path fill="none" stroke="firebrick" stroke-width="2" d="M335.84,-372.39C327.71,-358.84 319.27,-344.77 310.93,-330.89"/>
<polygon fill="firebrick" stroke="firebrick" stroke-width="2" points="314.88,-330.68 306.74,-323.9 308.88,-334.28 314.88,-330.68"/>
<text text-anchor="middle" x="335.5" y="-341.45" font-family="Times New Roman,serif" font-size="14.00" fill="firebrick">True</text>
</g>
<!-- 13229 -->
<g id="node3" class="node">
<title>13229</title>
<polygon fill="none" stroke="black" stroke-width="2" points="677.62,-255.75 403.12,-255.75 403.12,-179 677.62,-179 677.62,-255.75"/>
<polygon fill="none" stroke="black" points="412.12,-228.25 412.12,-250.75 668.62,-250.75 668.62,-228.25 412.12,-228.25"/>
<text text-anchor="start" x="480" y="-235.45" font-family="Times New Roman,serif" font-weight="bold" font-size="14.00">SeqOneShotEnd (1)</text>
<polygon fill="none" stroke="black" points="412.12,-205.75 412.12,-228.25 668.62,-228.25 668.62,-205.75 412.12,-205.75"/>
<text text-anchor="start" x="508.5" y="-212.95" font-family="Times New Roman,serif" font-weight="bold" font-size="14.00">Properties</text>
<polygon fill="none" stroke="black" points="412.12,-184 412.12,-205.75 668.62,-205.75 668.62,-184 412.12,-184"/>
<text text-anchor="start" x="415.12" y="-189.45" font-family="Times New Roman,serif" font-size="14.00">[Bool] ExecuteEveryFrame (default = False) </text>
<polygon fill="none" stroke="black" points="411.12,-183 411.12,-251.75 669.62,-251.75 669.62,-183 411.12,-183"/>
</g>
<!-- 13214&#45;&gt;13229 -->
<g id="edge2" class="edge">
<title>13214&#45;&gt;13229</title>
<path fill="none" stroke="firebrick" stroke-width="2" d="M447.28,-372.39C469.17,-336.18 493.34,-296.19 511.57,-266.03"/>
<polygon fill="firebrick" stroke="firebrick" stroke-width="2" points="513.77,-269.16 515.94,-258.79 507.78,-265.54 513.77,-269.16"/>
<text text-anchor="middle" x="480" y="-341.45" font-family="Times New Roman,serif" font-size="14.00" fill="firebrick">False</text>
</g>
<!-- 13223 -->
<g id="node5" class="node">
<title>13223</title>
<polygon fill="none" stroke="black" stroke-width="2" points="216.75,-76.75 0,-76.75 0,0 216.75,0 216.75,-76.75"/>
<polygon fill="none" stroke="black" points="9,-49.25 9,-71.75 207.75,-71.75 207.75,-49.25 9,-49.25"/>
<text text-anchor="start" x="12" y="-56.45" font-family="Times New Roman,serif" font-weight="bold" font-size="14.00">SeqExecuteResetGameData (2)</text>
<polygon fill="none" stroke="black" points="9,-26.75 9,-49.25 207.75,-49.25 207.75,-26.75 9,-26.75"/>
<text text-anchor="start" x="89.25" y="-33.95" font-family="Times New Roman,serif" font-weight="bold" font-size="14.00">Inputs</text>
<polygon fill="none" stroke="black" points="9,-5 9,-26.75 207.75,-26.75 207.75,-5 9,-5"/>
<text text-anchor="start" x="25.88" y="-10.45" font-family="Times New Roman,serif" font-size="14.00">[Int] ResetType (default = 7) </text>
<polygon fill="none" stroke="black" points="8,-4 8,-72.75 208.75,-72.75 208.75,-4 8,-4"/>
</g>
<!-- 13220&#45;&gt;13223 -->
<g id="edge4" class="edge">
<title>13220&#45;&gt;13223</title>
<path fill="none" stroke="firebrick" stroke-width="2" d="M164.84,-113.41C157.6,-103.92 150.54,-94.65 143.99,-86.07"/>
<polygon fill="firebrick" stroke="firebrick" stroke-width="2" points="147.79,-85.28 138.94,-79.45 142.22,-89.52 147.79,-85.28"/>
</g>
<!-- 13226 -->
<g id="node6" class="node">
<title>13226</title>
<polygon fill="none" stroke="black" stroke-width="2" points="522,-76.75 234.75,-76.75 234.75,0 522,0 522,-76.75"/>
<polygon fill="none" stroke="black" points="243.75,-49.25 243.75,-71.75 513,-71.75 513,-49.25 243.75,-49.25"/>
<text text-anchor="start" x="246.75" y="-56.45" font-family="Times New Roman,serif" font-weight="bold" font-size="14.00">SeqOneShotResetZonauRespawnTimer (5)</text>
<polygon fill="none" stroke="black" points="243.75,-26.75 243.75,-49.25 513,-49.25 513,-26.75 243.75,-26.75"/>
<text text-anchor="start" x="346.5" y="-33.95" font-family="Times New Roman,serif" font-weight="bold" font-size="14.00">Properties</text>
<polygon fill="none" stroke="black" points="243.75,-5 243.75,-26.75 513,-26.75 513,-5 243.75,-5"/>
<text text-anchor="start" x="253.12" y="-10.45" font-family="Times New Roman,serif" font-size="14.00">[Bool] ExecuteEveryFrame (default = False) </text>
<polygon fill="none" stroke="black" points="242.75,-4 242.75,-72.75 514,-72.75 514,-4 242.75,-4"/>
</g>
<!-- 13220&#45;&gt;13226 -->
<g id="edge5" class="edge">
<title>13220&#45;&gt;13226</title>
<path fill="none" stroke="firebrick" stroke-width="2" d="M321.91,-113.41C329.15,-103.92 336.21,-94.65 342.76,-86.07"/>
<polygon fill="firebrick" stroke="firebrick" stroke-width="2" points="344.53,-89.52 347.81,-79.45 338.96,-85.28 344.53,-89.52"/>
</g>
<!-- 13217 -->
<g id="node4" class="node">
<title>13217</title>
<polygon fill="none" stroke="black" stroke-width="2" points="436,-731.75 160.75,-731.75 160.75,-610.75 436,-610.75 436,-731.75"/>
<polygon fill="none" stroke="black" points="169.75,-704.25 169.75,-726.75 427,-726.75 427,-704.25 169.75,-704.25"/>
<text text-anchor="start" x="192.25" y="-711.45" font-family="Times New Roman,serif" font-weight="bold" font-size="14.00">SeqQueryIsZonauRespawnDay (4)</text>
<polygon fill="none" stroke="black" points="169.75,-681.75 169.75,-704.25 427,-704.25 427,-681.75 169.75,-681.75"/>
<text text-anchor="start" x="266.5" y="-688.95" font-family="Times New Roman,serif" font-weight="bold" font-size="14.00">Properties</text>
<polygon fill="none" stroke="black" points="169.75,-660 169.75,-681.75 427,-681.75 427,-660 169.75,-660"/>
<text text-anchor="start" x="172.75" y="-665.45" font-family="Times New Roman,serif" font-size="14.00">[Bool] OutputOnlyOnEnter (default = False) </text>
<polygon fill="none" stroke="black" points="169.75,-637.5 169.75,-660 427,-660 427,-637.5 169.75,-637.5"/>
<text text-anchor="start" x="274" y="-644.7" font-family="Times New Roman,serif" font-weight="bold" font-size="14.00">Outputs</text>
<polygon fill="none" stroke="black" points="169.75,-615.75 169.75,-637.5 427,-637.5 427,-615.75 169.75,-615.75"/>
<text text-anchor="start" x="236.12" y="-621.2" font-family="Times New Roman,serif" font-size="14.00">[Bool] IsRespawnDay</text>
<polygon fill="none" stroke="black" points="168.75,-614.75 168.75,-727.75 428,-727.75 428,-614.75 168.75,-614.75"/>
</g>
<!-- 13217&#45;&gt;13214 -->
<g id="edge3" class="edge">
<title>13217:13231&#45;&gt;13214:13230</title>
<path fill="none" stroke="#008000" stroke-dasharray="5,2" d="M298.38,-614.25C298.38,-579.29 255.96,-591.22 242.38,-559 214.61,-493.14 170.88,-399.77 230.05,-389.75"/>
<polygon fill="#008000" stroke="#008000" points="230.17,-393.26 239.87,-388.99 229.62,-386.28 230.17,-393.26"/>
<text text-anchor="middle" x="303" y="-579.45" font-family="Times New Roman,serif" font-size="14.00" fill="#008000">Input</text>
</g>
<!-- 13233 -->
<g id="node7" class="node">
<title>13233</title>
<ellipse fill="mediumpurple" stroke="mediumpurple" cx="485.38" cy="-671.25" rx="31.39" ry="18"/>
<text text-anchor="start" x="470.38" y="-667.2" font-family="Times New Roman,serif" font-weight="bold" font-size="14.00" fill="white">Root</text>
</g>
<!-- 13233&#45;&gt;13214 -->
<g id="edge6" class="edge">
<title>13233&#45;&gt;13214</title>
<path fill="none" stroke="black" d="M477.68,-653.61C468.94,-634.69 453.92,-602.19 438.84,-569.56"/>
<polygon fill="black" stroke="black" points="442.17,-568.42 434.79,-560.81 435.81,-571.36 442.17,-568.42"/>
</g>
</g>
</svg>
