<?xml version="1.0" encoding="UTF-8" standalone="no"?>
<!DOCTYPE svg PUBLIC "-//W3C//DTD SVG 1.1//EN"
 "http://www.w3.org/Graphics/SVG/1.1/DTD/svg11.dtd">
<!-- Generated by graphviz version 9.0.0 (20230911.1827)
 -->
<!-- Title: ResetGameDataOnDayChange.module Pages: 1 -->
<svg width="670pt" height="825pt"
 viewBox="0.00 0.00 669.62 824.75" xmlns="http://www.w3.org/2000/svg" xmlns:xlink="http://www.w3.org/1999/xlink">
<g id="graph0" class="graph" transform="scale(1 1) rotate(0) translate(4 820.75)">
<title>ResetGameDataOnDayChange.module</title>
<polygon fill="lightgray" stroke="none" points="-4,4 -4,-820.75 665.62,-820.75 665.62,4 -4,4"/>
<!-- 13052 -->
<g id="node1" class="node">
<title>13052</title>
<polygon fill="none" stroke="black" stroke-width="2" points="399.25,-644 83.5,-644 83.5,-457.75 399.25,-457.75 399.25,-644"/>
<polygon fill="none" stroke="black" points="92.5,-616.5 92.5,-639 390.25,-639 390.25,-616.5 92.5,-616.5"/>
<text text-anchor="start" x="163" y="-623.7" font-family="Times New Roman,serif" font-weight="bold" font-size="14.00">Element_BoolSelector (0)</text>
<polygon fill="none" stroke="black" points="92.5,-594 92.5,-616.5 390.25,-616.5 390.25,-594 92.5,-594"/>
<text text-anchor="start" x="209.5" y="-601.2" font-family="Times New Roman,serif" font-weight="bold" font-size="14.00">Properties</text>
<polygon fill="none" stroke="black" points="92.5,-572.25 92.5,-594 390.25,-594 390.25,-572.25 92.5,-572.25"/>
<text text-anchor="start" x="144.25" y="-577.7" font-family="Times New Roman,serif" font-size="14.00">[Int] CalculateTiming (default = 0) </text>
<polygon fill="none" stroke="black" points="92.5,-550.5 92.5,-572.25 390.25,-572.25 390.25,-550.5 92.5,-550.5"/>
<text text-anchor="start" x="125.12" y="-555.95" font-family="Times New Roman,serif" font-size="14.00">[Bool] ChildFrameSync (default = False) </text>
<polygon fill="none" stroke="black" points="92.5,-528.75 92.5,-550.5 390.25,-550.5 390.25,-528.75 92.5,-528.75"/>
<text text-anchor="start" x="141.62" y="-534.2" font-family="Times New Roman,serif" font-size="14.00">[Bool] InputValue (default = False) </text>
<polygon fill="none" stroke="black" points="92.5,-507 92.5,-528.75 390.25,-528.75 390.25,-507 92.5,-507"/>
<text text-anchor="start" x="95.5" y="-512.45" font-family="Times New Roman,serif" font-size="14.00">[Bool] IsNoSelectWhenChildBusy (default = False) </text>
<polygon fill="none" stroke="black" points="92.5,-484.5 92.5,-507 390.25,-507 390.25,-484.5 92.5,-484.5"/>
<text text-anchor="start" x="222.25" y="-491.7" font-family="Times New Roman,serif" font-weight="bold" font-size="14.00">Inputs</text>
<polygon fill="none" stroke="black" points="92.5,-462.75 92.5,-484.5 390.25,-484.5 390.25,-462.75 92.5,-462.75"/>
<text text-anchor="start" x="157.38" y="-468.2" font-family="Times New Roman,serif" font-size="14.00">[Bool] Input (default = False) </text>
<polygon fill="none" stroke="black" points="91.5,-461.75 91.5,-640 391.25,-640 391.25,-461.75 91.5,-461.75"/>
</g>
<!-- 13058 -->
<g id="node2" class="node">
<title>13058</title>
<polygon fill="none" stroke="black" stroke-width="2" points="219.75,-406 21,-406 21,-307.5 219.75,-307.5 219.75,-406"/>
<polygon fill="none" stroke="black" points="30,-378.5 30,-401 210.75,-401 210.75,-378.5 30,-378.5"/>
<text text-anchor="start" x="40.5" y="-385.7" font-family="Times New Roman,serif" font-weight="bold" font-size="14.00">Element_Simultaneous (5)</text>
<polygon fill="none" stroke="black" points="30,-356 30,-378.5 210.75,-378.5 210.75,-356 30,-356"/>
<text text-anchor="start" x="88.5" y="-363.2" font-family="Times New Roman,serif" font-weight="bold" font-size="14.00">Properties</text>
<polygon fill="none" stroke="black" points="30,-334.25 30,-356 210.75,-356 210.75,-334.25 30,-334.25"/>
<text text-anchor="start" x="39.38" y="-339.7" font-family="Times New Roman,serif" font-size="14.00">[Int] EndPolicy (default = 0) </text>
<polygon fill="none" stroke="black" points="30,-312.5 30,-334.25 210.75,-334.25 210.75,-312.5 30,-312.5"/>
<text text-anchor="start" x="33" y="-317.95" font-family="Times New Roman,serif" font-size="14.00">[Int] ResultPolicy (default = 0) </text>
<polygon fill="none" stroke="black" points="29,-311.5 29,-402 211.75,-402 211.75,-311.5 29,-311.5"/>
</g>
<!-- 13052&#45;&gt;13058 -->
<g id="edge1" class="edge">
<title>13052&#45;&gt;13058</title>
<path fill="none" stroke="firebrick" stroke-width="2" d="M183.18,-457.47C174.21,-443.24 165.18,-428.9 156.87,-415.7"/>
<polygon fill="firebrick" stroke="firebrick" stroke-width="2" points="160.86,-415.47 152.57,-408.87 154.94,-419.2 160.86,-415.47"/>
<text text-anchor="middle" x="183.5" y="-426.45" font-family="Times New Roman,serif" font-size="14.00" fill="firebrick">True</text>
</g>
<!-- 13073 -->
<g id="node3" class="node">
<title>13073</title>
<polygon fill="none" stroke="black" stroke-width="2" points="489,-374.75 237.75,-374.75 237.75,-338.75 489,-338.75 489,-374.75"/>
<polygon fill="none" stroke="black" points="246.75,-345.5 246.75,-368 480,-368 480,-345.5 246.75,-345.5"/>
<text text-anchor="start" x="249.75" y="-352.7" font-family="Times New Roman,serif" font-weight="bold" font-size="14.00">SeqExecuteGenericDummyAction (2)</text>
<polygon fill="none" stroke="black" points="245.75,-344.5 245.75,-369 481,-369 481,-344.5 245.75,-344.5"/>
</g>
<!-- 13052&#45;&gt;13073 -->
<g id="edge2" class="edge">
<title>13052&#45;&gt;13073</title>
<path fill="none" stroke="firebrick" stroke-width="2" d="M300.05,-457.47C317.02,-430.74 334.24,-403.64 346.42,-384.45"/>
<polygon fill="firebrick" stroke="firebrick" stroke-width="2" points="348.45,-387.79 350.85,-377.47 342.54,-384.03 348.45,-387.79"/>
<text text-anchor="middle" x="335" y="-426.45" font-family="Times New Roman,serif" font-size="14.00" fill="firebrick">False</text>
</g>
<!-- 13061 -->
<g id="node5" class="node">
<title>13061</title>
<polygon fill="none" stroke="black" stroke-width="2" points="216.75,-237.88 0,-237.88 0,-161.12 216.75,-161.12 216.75,-237.88"/>
<polygon fill="none" stroke="black" points="9,-210.38 9,-232.88 207.75,-232.88 207.75,-210.38 9,-210.38"/>
<text text-anchor="start" x="12" y="-217.57" font-family="Times New Roman,serif" font-weight="bold" font-size="14.00">SeqExecuteResetGameData (1)</text>
<polygon fill="none" stroke="black" points="9,-187.88 9,-210.38 207.75,-210.38 207.75,-187.88 9,-187.88"/>
<text text-anchor="start" x="89.25" y="-195.07" font-family="Times New Roman,serif" font-weight="bold" font-size="14.00">Inputs</text>
<polygon fill="none" stroke="black" points="9,-166.12 9,-187.88 207.75,-187.88 207.75,-166.12 9,-166.12"/>
<text text-anchor="start" x="25.88" y="-171.57" font-family="Times New Roman,serif" font-size="14.00">[Int] ResetType (default = 1) </text>
<polygon fill="none" stroke="black" points="8,-165.12 8,-233.88 208.75,-233.88 208.75,-165.12 8,-165.12"/>
</g>
<!-- 13058&#45;&gt;13061 -->
<g id="edge4" class="edge">
<title>13058&#45;&gt;13061</title>
<path fill="none" stroke="firebrick" stroke-width="2" d="M116.61,-307.05C115.19,-288.73 113.58,-267.9 112.17,-249.54"/>
<polygon fill="firebrick" stroke="firebrick" stroke-width="2" points="115.78,-250.9 111.52,-241.2 108.8,-251.44 115.78,-250.9"/>
</g>
<!-- 13064 -->
<g id="node6" class="node">
<title>13064</title>
<polygon fill="none" stroke="black" stroke-width="2" points="550.25,-270.5 234.5,-270.5 234.5,-128.5 550.25,-128.5 550.25,-270.5"/>
<polygon fill="none" stroke="black" points="243.5,-243 243.5,-265.5 541.25,-265.5 541.25,-243 243.5,-243"/>
<text text-anchor="start" x="302.38" y="-250.2" font-family="Times New Roman,serif" font-weight="bold" font-size="14.00">Element_RandomSelector (3)</text>
<polygon fill="none" stroke="black" points="243.5,-220.5 243.5,-243 541.25,-243 541.25,-220.5 243.5,-220.5"/>
<text text-anchor="start" x="360.5" y="-227.7" font-family="Times New Roman,serif" font-weight="bold" font-size="14.00">Properties</text>
<polygon fill="none" stroke="black" points="243.5,-198.75 243.5,-220.5 541.25,-220.5 541.25,-198.75 243.5,-198.75"/>
<text text-anchor="start" x="304.62" y="-204.2" font-family="Times New Roman,serif" font-size="14.00">[Int] JudgeTiming (default = 0) </text>
<polygon fill="none" stroke="black" points="243.5,-177 243.5,-198.75 541.25,-198.75 541.25,-177 243.5,-177"/>
<text text-anchor="start" x="306.12" y="-182.45" font-family="Times New Roman,serif" font-size="14.00">[Int] NumHistory (default = 0) </text>
<polygon fill="none" stroke="black" points="243.5,-155.25 243.5,-177 541.25,-177 541.25,-155.25 243.5,-155.25"/>
<text text-anchor="start" x="276.12" y="-160.7" font-family="Times New Roman,serif" font-size="14.00">[Bool] ChildFrameSync (default = False) </text>
<polygon fill="none" stroke="black" points="243.5,-133.5 243.5,-155.25 541.25,-155.25 541.25,-133.5 243.5,-133.5"/>
<text text-anchor="start" x="246.5" y="-138.95" font-family="Times New Roman,serif" font-size="14.00">[Bool] IsNoSelectWhenChildBusy (default = False) </text>
<polygon fill="none" stroke="black" points="242.5,-132.5 242.5,-266.5 542.25,-266.5 542.25,-132.5 242.5,-132.5"/>
</g>
<!-- 13058&#45;&gt;13064 -->
<g id="edge5" class="edge">
<title>13058&#45;&gt;13064</title>
<path fill="none" stroke="firebrick" stroke-width="2" d="M205.69,-307.05C222.73,-297.33 241,-286.9 259.21,-276.51"/>
<polygon fill="firebrick" stroke="firebrick" stroke-width="2" points="259.43,-280.41 266.38,-272.41 255.96,-274.33 259.43,-280.41"/>
</g>
<!-- 13055 -->
<g id="node4" class="node">
<title>13055</title>
<polygon fill="none" stroke="black" stroke-width="2" points="283.38,-816.75 19.38,-816.75 19.38,-695.75 283.38,-695.75 283.38,-816.75"/>
<polygon fill="none" stroke="black" points="28.38,-789.25 28.38,-811.75 274.38,-811.75 274.38,-789.25 28.38,-789.25"/>
<text text-anchor="start" x="44.12" y="-796.45" font-family="Times New Roman,serif" font-weight="bold" font-size="14.00">Element_ModuleIF_Input_Bool (7)</text>
<polygon fill="none" stroke="black" points="28.38,-766.75 28.38,-789.25 274.38,-789.25 274.38,-766.75 28.38,-766.75"/>
<text text-anchor="start" x="119.5" y="-773.95" font-family="Times New Roman,serif" font-weight="bold" font-size="14.00">Properties</text>
<polygon fill="none" stroke="black" points="28.38,-745 28.38,-766.75 274.38,-766.75 274.38,-745 28.38,-745"/>
<text text-anchor="start" x="31.38" y="-750.45" font-family="Times New Roman,serif" font-size="14.00">[String] Name (default = IsOnDayChange) </text>
<polygon fill="none" stroke="black" points="28.38,-722.5 28.38,-745 274.38,-745 274.38,-722.5 28.38,-722.5"/>
<text text-anchor="start" x="127" y="-729.7" font-family="Times New Roman,serif" font-weight="bold" font-size="14.00">Outputs</text>
<polygon fill="none" stroke="black" points="28.38,-700.75 28.38,-722.5 274.38,-722.5 274.38,-700.75 28.38,-700.75"/>
<text text-anchor="start" x="116.88" y="-706.2" font-family="Times New Roman,serif" font-size="14.00">[Bool] Input</text>
<polygon fill="none" stroke="black" points="27.38,-699.75 27.38,-812.75 275.38,-812.75 275.38,-699.75 27.38,-699.75"/>
</g>
<!-- 13055&#45;&gt;13052 -->
<g id="edge3" class="edge">
<title>13055:13075&#45;&gt;13052:13074</title>
<path fill="none" stroke="#008000" stroke-dasharray="5,2" d="M151.38,-699.25C151.38,-663.33 106.76,-676.92 92.38,-644 63.75,-578.5 20.78,-484.81 80.04,-474.76"/>
<polygon fill="#008000" stroke="#008000" points="80.17,-478.26 89.87,-473.99 79.62,-471.28 80.17,-478.26"/>
<text text-anchor="middle" x="156" y="-664.45" font-family="Times New Roman,serif" font-size="14.00" fill="#008000">Input</text>
</g>
<!-- 13067 -->
<g id="node7" class="node">
<title>13067</title>
<polygon fill="none" stroke="black" stroke-width="2" points="368.75,-76.75 152,-76.75 152,0 368.75,0 368.75,-76.75"/>
<polygon fill="none" stroke="black" points="161,-49.25 161,-71.75 359.75,-71.75 359.75,-49.25 161,-49.25"/>
<text text-anchor="start" x="164" y="-56.45" font-family="Times New Roman,serif" font-weight="bold" font-size="14.00">SeqExecuteResetGameData (4)</text>
<polygon fill="none" stroke="black" points="161,-26.75 161,-49.25 359.75,-49.25 359.75,-26.75 161,-26.75"/>
<text text-anchor="start" x="241.25" y="-33.95" font-family="Times New Roman,serif" font-weight="bold" font-size="14.00">Inputs</text>
<polygon fill="none" stroke="black" points="161,-5 161,-26.75 359.75,-26.75 359.75,-5 161,-5"/>
<text text-anchor="start" x="177.88" y="-10.45" font-family="Times New Roman,serif" font-size="14.00">[Int] ResetType (default = 5) </text>
<polygon fill="none" stroke="black" points="160,-4 160,-72.75 360.75,-72.75 360.75,-4 160,-4"/>
</g>
<!-- 13064&#45;&gt;13067 -->
<g id="edge6" class="edge">
<title>13064&#45;&gt;13067</title>
<path fill="none" stroke="firebrick" stroke-width="2" d="M334.09,-128.24C322.08,-113.76 309.73,-98.87 298.64,-85.51"/>
<polygon fill="firebrick" stroke="firebrick" stroke-width="2" points="302.57,-84.76 293.5,-79.3 297.19,-89.23 302.57,-84.76"/>
<text text-anchor="middle" x="327" y="-97.2" font-family="Times New Roman,serif" font-size="14.00" fill="firebrick">0.0</text>
</g>
<!-- 13070 -->
<g id="node8" class="node">
<title>13070</title>
<polygon fill="none" stroke="black" stroke-width="2" points="661.62,-76.75 387.12,-76.75 387.12,0 661.62,0 661.62,-76.75"/>
<polygon fill="none" stroke="black" points="396.12,-49.25 396.12,-71.75 652.62,-71.75 652.62,-49.25 396.12,-49.25"/>
<text text-anchor="start" x="464" y="-56.45" font-family="Times New Roman,serif" font-weight="bold" font-size="14.00">SeqOneShotEnd (6)</text>
<polygon fill="none" stroke="black" points="396.12,-26.75 396.12,-49.25 652.62,-49.25 652.62,-26.75 396.12,-26.75"/>
<text text-anchor="start" x="492.5" y="-33.95" font-family="Times New Roman,serif" font-weight="bold" font-size="14.00">Properties</text>
<polygon fill="none" stroke="black" points="396.12,-5 396.12,-26.75 652.62,-26.75 652.62,-5 396.12,-5"/>
<text text-anchor="start" x="399.12" y="-10.45" font-family="Times New Roman,serif" font-size="14.00">[Bool] ExecuteEveryFrame (default = False) </text>
<polygon fill="none" stroke="black" points="395.12,-4 395.12,-72.75 653.62,-72.75 653.62,-4 395.12,-4"/>
</g>
<!-- 13064&#45;&gt;13070 -->
<g id="edge7" class="edge">
<title>13064&#45;&gt;13070</title>
<path fill="none" stroke="firebrick" stroke-width="2" d="M450.66,-128.24C462.67,-113.76 475.02,-98.87 486.11,-85.51"/>
<polygon fill="firebrick" stroke="firebrick" stroke-width="2" points="487.56,-89.23 491.25,-79.3 482.18,-84.76 487.56,-89.23"/>
<text text-anchor="middle" x="486" y="-97.2" font-family="Times New Roman,serif" font-size="14.00" fill="firebrick">0.0</text>
</g>
<!-- 13078 -->
<g id="node9" class="node">
<title>13078</title>
<ellipse fill="mediumpurple" stroke="mediumpurple" cx="332.38" cy="-756.25" rx="31.39" ry="18"/>
<text text-anchor="start" x="317.38" y="-752.2" font-family="Times New Roman,serif" font-weight="bold" font-size="14.00" fill="white">Root</text>
</g>
<!-- 13078&#45;&gt;13052 -->
<g id="edge8" class="edge">
<title>13078&#45;&gt;13052</title>
<path fill="none" stroke="black" d="M324.93,-738.61C316.46,-719.69 301.92,-687.19 287.32,-654.56"/>
<polygon fill="black" stroke="black" points="290.69,-653.52 283.41,-645.82 284.3,-656.38 290.69,-653.52"/>
</g>
</g>
</svg>
