<?xml version="1.0" encoding="UTF-8" standalone="no"?>
<!DOCTYPE svg PUBLIC "-//W3C//DTD SVG 1.1//EN"
 "http://www.w3.org/Graphics/SVG/1.1/DTD/svg11.dtd">
<!-- Generated by graphviz version 9.0.0 (20230911.1827)
 -->
<!-- Title: ResetGimmick.module Pages: 1 -->
<svg width="1229pt" height="507pt"
 viewBox="0.00 0.00 1229.08 507.14" xmlns="http://www.w3.org/2000/svg" xmlns:xlink="http://www.w3.org/1999/xlink">
<g id="graph0" class="graph" transform="scale(1 1) rotate(0) translate(4 503.14)">
<title>ResetGimmick.module</title>
<polygon fill="lightgray" stroke="none" points="-4,4 -4,-503.14 1225.08,-503.14 1225.08,4 -4,4"/>
<!-- 13081 -->
<g id="node1" class="node">
<title>13081</title>
<polygon fill="none" stroke="black" stroke-width="2" points="671,-426.14 387.5,-426.14 387.5,-218.89 671,-218.89 671,-426.14"/>
<polygon fill="none" stroke="black" points="396.5,-398.64 396.5,-421.14 662,-421.14 662,-398.64 396.5,-398.64"/>
<text text-anchor="start" x="458.38" y="-405.84" font-family="Times New Roman,serif" font-weight="bold" font-size="14.00">Element_Sequential (0)</text>
<polygon fill="none" stroke="black" points="396.5,-376.14 396.5,-398.64 662,-398.64 662,-376.14 396.5,-376.14"/>
<text text-anchor="start" x="497.38" y="-383.34" font-family="Times New Roman,serif" font-weight="bold" font-size="14.00">Properties</text>
<polygon fill="none" stroke="black" points="396.5,-354.39 396.5,-376.14 662,-376.14 662,-354.39 396.5,-354.39"/>
<text text-anchor="start" x="445.25" y="-359.84" font-family="Times New Roman,serif" font-size="14.00">[Int] BusyPolicy (default = 0) </text>
<polygon fill="none" stroke="black" points="396.5,-332.64 396.5,-354.39 662,-354.39 662,-332.64 396.5,-332.64"/>
<text text-anchor="start" x="448.25" y="-338.09" font-family="Times New Roman,serif" font-size="14.00">[Int] NumLoop (default = 0) </text>
<polygon fill="none" stroke="black" points="396.5,-310.89 396.5,-332.64 662,-332.64 662,-310.89 396.5,-310.89"/>
<text text-anchor="start" x="447.5" y="-316.34" font-family="Times New Roman,serif" font-size="14.00">[Int] PlayPolicy (default = 0) </text>
<polygon fill="none" stroke="black" points="396.5,-289.14 396.5,-310.89 662,-310.89 662,-289.14 396.5,-289.14"/>
<text text-anchor="start" x="441.88" y="-294.59" font-family="Times New Roman,serif" font-size="14.00">[Int] ResultPolicy (default = 0) </text>
<polygon fill="none" stroke="black" points="396.5,-267.39 396.5,-289.14 662,-289.14 662,-267.39 396.5,-267.39"/>
<text text-anchor="start" x="422.75" y="-272.84" font-family="Times New Roman,serif" font-size="14.00">[Bool] IsDelayJudge (default = False) </text>
<polygon fill="none" stroke="black" points="396.5,-245.64 396.5,-267.39 662,-267.39 662,-245.64 396.5,-245.64"/>
<text text-anchor="start" x="439.25" y="-251.09" font-family="Times New Roman,serif" font-size="14.00">[Bool] IsLoop (default = False) </text>
<polygon fill="none" stroke="black" points="396.5,-223.89 396.5,-245.64 662,-245.64 662,-223.89 396.5,-223.89"/>
<text text-anchor="start" x="399.5" y="-229.34" font-family="Times New Roman,serif" font-size="14.00">[Bool] IsUpdateNextInFrame (default = True) </text>
<polygon fill="none" stroke="black" points="395.5,-222.89 395.5,-422.14 663,-422.14 663,-222.89 395.5,-222.89"/>
</g>
<!-- 13084 -->
<g id="node2" class="node">
<title>13084</title>
<polygon fill="none" stroke="black" stroke-width="2" points="274.5,-156.26 0,-156.26 0,-13.51 274.5,-13.51 274.5,-156.26"/>
<polygon fill="none" stroke="black" points="9,-128.76 9,-151.26 265.5,-151.26 265.5,-128.76 9,-128.76"/>
<text text-anchor="start" x="20.62" y="-135.96" font-family="Times New Roman,serif" font-weight="bold" font-size="14.00">SeqOneShotRequestSaveLoadIcon (4)</text>
<polygon fill="none" stroke="black" points="9,-106.26 9,-128.76 265.5,-128.76 265.5,-106.26 9,-106.26"/>
<text text-anchor="start" x="105.38" y="-113.46" font-family="Times New Roman,serif" font-weight="bold" font-size="14.00">Properties</text>
<polygon fill="none" stroke="black" points="9,-84.51 9,-106.26 265.5,-106.26 265.5,-84.51 9,-84.51"/>
<text text-anchor="start" x="12" y="-89.96" font-family="Times New Roman,serif" font-size="14.00">[Bool] ExecuteEveryFrame (default = False) </text>
<polygon fill="none" stroke="black" points="9,-62.01 9,-84.51 265.5,-84.51 265.5,-62.01 9,-62.01"/>
<text text-anchor="start" x="118.12" y="-69.21" font-family="Times New Roman,serif" font-weight="bold" font-size="14.00">Inputs</text>
<polygon fill="none" stroke="black" points="9,-40.26 9,-62.01 265.5,-62.01 265.5,-40.26 9,-40.26"/>
<text text-anchor="start" x="64.12" y="-45.71" font-family="Times New Roman,serif" font-size="14.00">[Int] Reason (default = 0) </text>
<polygon fill="none" stroke="black" points="9,-18.51 9,-40.26 265.5,-40.26 265.5,-18.51 9,-18.51"/>
<text text-anchor="start" x="48.75" y="-23.96" font-family="Times New Roman,serif" font-size="14.00">[Bool] IsOpen (default = True) </text>
<polygon fill="none" stroke="black" points="8,-17.51 8,-152.26 266.5,-152.26 266.5,-17.51 8,-17.51"/>
</g>
<!-- 13081&#45;&gt;13084 -->
<g id="edge1" class="edge">
<title>13081&#45;&gt;13084</title>
<path fill="none" stroke="firebrick" stroke-width="2" d="M387.17,-236.11C347.18,-212.07 303.94,-186.08 264.85,-162.58"/>
<polygon fill="firebrick" stroke="firebrick" stroke-width="2" points="267.97,-160.38 257.6,-158.22 264.36,-166.38 267.97,-160.38"/>
</g>
<!-- 13087 -->
<g id="node3" class="node">
<title>13087</title>
<polygon fill="none" stroke="black" stroke-width="2" points="503.62,-102.89 292.88,-102.89 292.88,-66.89 503.62,-66.89 503.62,-102.89"/>
<polygon fill="none" stroke="black" points="301.88,-73.64 301.88,-96.14 494.62,-96.14 494.62,-73.64 301.88,-73.64"/>
<text text-anchor="start" x="304.88" y="-80.84" font-family="Times New Roman,serif" font-weight="bold" font-size="14.00">ResetGimmickImpl.module (3)</text>
<polygon fill="none" stroke="black" points="300.88,-72.64 300.88,-97.14 495.62,-97.14 495.62,-72.64 300.88,-72.64"/>
</g>
<!-- 13081&#45;&gt;13087 -->
<g id="edge2" class="edge">
<title>13081&#45;&gt;13087</title>
<path fill="none" stroke="firebrick" stroke-width="2" d="M471.98,-218.51C450.44,-179.76 427.69,-138.84 413.26,-112.88"/>
<polygon fill="firebrick" stroke="firebrick" stroke-width="2" points="417.18,-112.73 409.26,-105.69 411.06,-116.13 417.18,-112.73"/>
</g>
<!-- 13090 -->
<g id="node4" class="node">
<title>13090</title>
<polygon fill="none" stroke="black" stroke-width="2" points="796.5,-156.26 522,-156.26 522,-13.51 796.5,-13.51 796.5,-156.26"/>
<polygon fill="none" stroke="black" points="531,-128.76 531,-151.26 787.5,-151.26 787.5,-128.76 531,-128.76"/>
<text text-anchor="start" x="542.62" y="-135.96" font-family="Times New Roman,serif" font-weight="bold" font-size="14.00">SeqOneShotRequestSaveLoadIcon (5)</text>
<polygon fill="none" stroke="black" points="531,-106.26 531,-128.76 787.5,-128.76 787.5,-106.26 531,-106.26"/>
<text text-anchor="start" x="627.38" y="-113.46" font-family="Times New Roman,serif" font-weight="bold" font-size="14.00">Properties</text>
<polygon fill="none" stroke="black" points="531,-84.51 531,-106.26 787.5,-106.26 787.5,-84.51 531,-84.51"/>
<text text-anchor="start" x="534" y="-89.96" font-family="Times New Roman,serif" font-size="14.00">[Bool] ExecuteEveryFrame (default = False) </text>
<polygon fill="none" stroke="black" points="531,-62.01 531,-84.51 787.5,-84.51 787.5,-62.01 531,-62.01"/>
<text text-anchor="start" x="640.12" y="-69.21" font-family="Times New Roman,serif" font-weight="bold" font-size="14.00">Inputs</text>
<polygon fill="none" stroke="black" points="531,-40.26 531,-62.01 787.5,-62.01 787.5,-40.26 531,-40.26"/>
<text text-anchor="start" x="586.12" y="-45.71" font-family="Times New Roman,serif" font-size="14.00">[Int] Reason (default = 0) </text>
<polygon fill="none" stroke="black" points="531,-18.51 531,-40.26 787.5,-40.26 787.5,-18.51 531,-18.51"/>
<text text-anchor="start" x="569.25" y="-23.96" font-family="Times New Roman,serif" font-size="14.00">[Bool] IsOpen (default = False) </text>
<polygon fill="none" stroke="black" points="530,-17.51 530,-152.26 788.5,-152.26 788.5,-17.51 530,-17.51"/>
</g>
<!-- 13081&#45;&gt;13090 -->
<g id="edge3" class="edge">
<title>13081&#45;&gt;13090</title>
<path fill="none" stroke="firebrick" stroke-width="2" d="M586.08,-218.51C595.73,-201.01 605.63,-183.07 614.9,-166.27"/>
<polygon fill="firebrick" stroke="firebrick" stroke-width="2" points="617.05,-169.62 618.82,-159.17 610.92,-166.24 617.05,-169.62"/>
</g>
<!-- 13093 -->
<g id="node5" class="node">
<title>13093</title>
<polygon fill="none" stroke="black" stroke-width="2" points="1212.38,-167.14 814.12,-167.14 814.12,-2.64 1212.38,-2.64 1212.38,-167.14"/>
<polygon fill="none" stroke="black" points="823.12,-139.64 823.12,-162.14 1203.38,-162.14 1203.38,-139.64 823.12,-139.64"/>
<text text-anchor="start" x="872.62" y="-146.84" font-family="Times New Roman,serif" font-weight="bold" font-size="14.00">SeqOneShotSetNonStructGameDataEnum (1)</text>
<polygon fill="none" stroke="black" points="823.12,-117.14 823.12,-139.64 1203.38,-139.64 1203.38,-117.14 823.12,-117.14"/>
<text text-anchor="start" x="981.38" y="-124.34" font-family="Times New Roman,serif" font-weight="bold" font-size="14.00">Properties</text>
<polygon fill="none" stroke="black" points="823.12,-95.39 823.12,-117.14 1203.38,-117.14 1203.38,-95.39 823.12,-95.39"/>
<text text-anchor="start" x="888" y="-100.84" font-family="Times New Roman,serif" font-size="14.00">[Bool] ExecuteEveryFrame (default = False) </text>
<polygon fill="none" stroke="black" points="823.12,-72.89 823.12,-95.39 1203.38,-95.39 1203.38,-72.89 823.12,-72.89"/>
<text text-anchor="start" x="994.12" y="-80.09" font-family="Times New Roman,serif" font-weight="bold" font-size="14.00">Inputs</text>
<polygon fill="none" stroke="black" points="823.12,-51.14 823.12,-72.89 1203.38,-72.89 1203.38,-51.14 823.12,-51.14"/>
<text text-anchor="start" x="913.88" y="-56.59" font-family="Times New Roman,serif" font-size="14.00">[Int] GameDataIndex (default = &#45;1) </text>
<polygon fill="none" stroke="black" points="823.12,-29.39 823.12,-51.14 1203.38,-51.14 1203.38,-29.39 823.12,-29.39"/>
<text text-anchor="start" x="826.12" y="-34.84" font-family="Times New Roman,serif" font-size="14.00">[String] GameDataFullName (default = Sequence_ControlInEvent) </text>
<polygon fill="none" stroke="black" points="823.12,-7.64 823.12,-29.39 1203.38,-29.39 1203.38,-7.64 823.12,-7.64"/>
<text text-anchor="start" x="907.88" y="-13.09" font-family="Times New Roman,serif" font-size="14.00">[const u32*] Value (default = nullptr) </text>
<polygon fill="none" stroke="black" points="822.12,-6.64 822.12,-163.14 1204.38,-163.14 1204.38,-6.64 822.12,-6.64"/>
</g>
<!-- 13081&#45;&gt;13093 -->
<g id="edge4" class="edge">
<title>13081&#45;&gt;13093</title>
<path fill="none" stroke="firebrick" stroke-width="2" d="M671.2,-252.41C722.66,-227.35 781.46,-198.73 835.62,-172.36"/>
<polygon fill="firebrick" stroke="firebrick" stroke-width="2" points="835.49,-176.32 842.95,-168.79 832.43,-170.02 835.49,-176.32"/>
</g>
<!-- 13096 -->
<g id="node6" class="node">
<title>13096</title>
<polygon fill="none" stroke="black" stroke-width="2" points="1155.75,-416.01 870.75,-416.01 870.75,-229.01 1155.75,-229.01 1155.75,-416.01"/>
<polygon fill="none" stroke="black" points="879.75,-388.51 879.75,-411.01 1146.75,-411.01 1146.75,-388.51 879.75,-388.51"/>
<text text-anchor="start" x="893.25" y="-395.71" font-family="Times New Roman,serif" font-weight="bold" font-size="14.00">SeqQueryCalcStringHashMurMur3 (2)</text>
<polygon fill="none" stroke="black" points="879.75,-366.01 879.75,-388.51 1146.75,-388.51 1146.75,-366.01 879.75,-366.01"/>
<text text-anchor="start" x="981.38" y="-373.21" font-family="Times New Roman,serif" font-weight="bold" font-size="14.00">Properties</text>
<polygon fill="none" stroke="black" points="879.75,-344.26 879.75,-366.01 1146.75,-366.01 1146.75,-344.26 879.75,-344.26"/>
<text text-anchor="start" x="895.5" y="-349.71" font-family="Times New Roman,serif" font-size="14.00">[Bool] IsCalcHashOnInit (default = True) </text>
<polygon fill="none" stroke="black" points="879.75,-322.51 879.75,-344.26 1146.75,-344.26 1146.75,-322.51 879.75,-322.51"/>
<text text-anchor="start" x="887.62" y="-327.96" font-family="Times New Roman,serif" font-size="14.00">[Bool] OutputOnlyOnEnter (default = False) </text>
<polygon fill="none" stroke="black" points="879.75,-300.01 879.75,-322.51 1146.75,-322.51 1146.75,-300.01 879.75,-300.01"/>
<text text-anchor="start" x="994.12" y="-307.21" font-family="Times New Roman,serif" font-weight="bold" font-size="14.00">Inputs</text>
<polygon fill="none" stroke="black" points="879.75,-278.26 879.75,-300.01 1146.75,-300.01 1146.75,-278.26 879.75,-278.26"/>
<text text-anchor="start" x="928.5" y="-283.71" font-family="Times New Roman,serif" font-size="14.00">[String] String (default = Idle) </text>
<polygon fill="none" stroke="black" points="879.75,-255.76 879.75,-278.26 1146.75,-278.26 1146.75,-255.76 879.75,-255.76"/>
<text text-anchor="start" x="988.88" y="-262.96" font-family="Times New Roman,serif" font-weight="bold" font-size="14.00">Outputs</text>
<polygon fill="none" stroke="black" points="879.75,-234.01 879.75,-255.76 1146.75,-255.76 1146.75,-234.01 879.75,-234.01"/>
<text text-anchor="start" x="882.75" y="-239.46" font-family="Times New Roman,serif" font-size="14.00">[const u32*] MurMur3Hash (default = nullptr) </text>
<polygon fill="none" stroke="black" points="878.75,-233.01 878.75,-412.01 1147.75,-412.01 1147.75,-233.01 878.75,-233.01"/>
</g>
<!-- 13096&#45;&gt;13093 -->
<g id="edge5" class="edge">
<title>13096:13105&#45;&gt;13093:13103</title>
<path fill="none" stroke="#008000" stroke-dasharray="5,2" d="M1013.25,-232.51C1013.25,-139.36 1157.74,-242.58 1212.38,-167.14 1222.75,-152.81 1224.86,-20.43 1212.38,-7.89 1205.68,-1.16 1064.08,2.9 1023.83,-3.05"/>
<polygon fill="#008000" stroke="#008000" points="1022.88,0.33 1014.67,-6.37 1025.27,-6.25 1022.88,0.33"/>
<text text-anchor="middle" x="1205" y="-187.59" font-family="Times New Roman,serif" font-size="14.00" fill="#008000">Value</text>
</g>
<!-- 13106 -->
<g id="node7" class="node">
<title>13106</title>
<ellipse fill="mediumpurple" stroke="mediumpurple" cx="529.25" cy="-481.14" rx="31.39" ry="18"/>
<text text-anchor="start" x="514.25" y="-477.09" font-family="Times New Roman,serif" font-weight="bold" font-size="14.00" fill="white">Root</text>
</g>
<!-- 13106&#45;&gt;13081 -->
<g id="edge6" class="edge">
<title>13106&#45;&gt;13081</title>
<path fill="none" stroke="black" d="M529.25,-462.78C529.25,-455.91 529.25,-447.4 529.25,-438"/>
<polygon fill="black" stroke="black" points="532.75,-438.12 529.25,-428.12 525.75,-438.12 532.75,-438.12"/>
</g>
</g>
</svg>
