<?xml version="1.0" encoding="UTF-8" standalone="no"?>
<!DOCTYPE svg PUBLIC "-//W3C//DTD SVG 1.1//EN"
 "http://www.w3.org/Graphics/SVG/1.1/DTD/svg11.dtd">
<!-- Generated by graphviz version 9.0.0 (20230911.1827)
 -->
<!-- Title: SetVisibleProMode.module Pages: 1 -->
<svg width="1786pt" height="793pt"
 viewBox="0.00 0.00 1785.75 792.50" xmlns="http://www.w3.org/2000/svg" xmlns:xlink="http://www.w3.org/1999/xlink">
<g id="graph0" class="graph" transform="scale(1 1) rotate(0) translate(4 788.5)">
<title>SetVisibleProMode.module</title>
<polygon fill="lightgray" stroke="none" points="-4,4 -4,-788.5 1781.75,-788.5 1781.75,4 -4,4"/>
<!-- 14516 -->
<g id="node1" class="node">
<title>14516</title>
<polygon fill="none" stroke="black" stroke-width="2" points="1216.38,-700.25 1017.62,-700.25 1017.62,-601.75 1216.38,-601.75 1216.38,-700.25"/>
<polygon fill="none" stroke="black" points="1026.62,-672.75 1026.62,-695.25 1207.38,-695.25 1207.38,-672.75 1026.62,-672.75"/>
<text text-anchor="start" x="1037.12" y="-679.95" font-family="Times New Roman,serif" font-weight="bold" font-size="14.00">Element_Simultaneous (0)</text>
<polygon fill="none" stroke="black" points="1026.62,-650.25 1026.62,-672.75 1207.38,-672.75 1207.38,-650.25 1026.62,-650.25"/>
<text text-anchor="start" x="1085.12" y="-657.45" font-family="Times New Roman,serif" font-weight="bold" font-size="14.00">Properties</text>
<polygon fill="none" stroke="black" points="1026.62,-628.5 1026.62,-650.25 1207.38,-650.25 1207.38,-628.5 1026.62,-628.5"/>
<text text-anchor="start" x="1036" y="-633.95" font-family="Times New Roman,serif" font-size="14.00">[Int] EndPolicy (default = 0) </text>
<polygon fill="none" stroke="black" points="1026.62,-606.75 1026.62,-628.5 1207.38,-628.5 1207.38,-606.75 1026.62,-606.75"/>
<text text-anchor="start" x="1029.62" y="-612.2" font-family="Times New Roman,serif" font-size="14.00">[Int] ResultPolicy (default = 0) </text>
<polygon fill="none" stroke="black" points="1025.62,-605.75 1025.62,-696.25 1208.38,-696.25 1208.38,-605.75 1025.62,-605.75"/>
</g>
<!-- 14519 -->
<g id="node2" class="node">
<title>14519</title>
<polygon fill="none" stroke="black" stroke-width="2" points="1101.38,-517 776.62,-517 776.62,-374.25 1101.38,-374.25 1101.38,-517"/>
<polygon fill="none" stroke="black" points="785.62,-489.5 785.62,-512 1092.38,-512 1092.38,-489.5 785.62,-489.5"/>
<text text-anchor="start" x="839.62" y="-496.7" font-family="Times New Roman,serif" font-weight="bold" font-size="14.00">SeqOneShotSetScreenVisible (1)</text>
<polygon fill="none" stroke="black" points="785.62,-467 785.62,-489.5 1092.38,-489.5 1092.38,-467 785.62,-467"/>
<text text-anchor="start" x="907.12" y="-474.2" font-family="Times New Roman,serif" font-weight="bold" font-size="14.00">Properties</text>
<polygon fill="none" stroke="black" points="785.62,-445.25 785.62,-467 1092.38,-467 1092.38,-445.25 785.62,-445.25"/>
<text text-anchor="start" x="813.75" y="-450.7" font-family="Times New Roman,serif" font-size="14.00">[Bool] ExecuteEveryFrame (default = False) </text>
<polygon fill="none" stroke="black" points="785.62,-422.75 785.62,-445.25 1092.38,-445.25 1092.38,-422.75 785.62,-422.75"/>
<text text-anchor="start" x="919.88" y="-429.95" font-family="Times New Roman,serif" font-weight="bold" font-size="14.00">Inputs</text>
<polygon fill="none" stroke="black" points="785.62,-401 785.62,-422.75 1092.38,-422.75 1092.38,-401 785.62,-401"/>
<text text-anchor="start" x="845.25" y="-406.45" font-family="Times New Roman,serif" font-size="14.00">[Bool] IsVisible (default = False) </text>
<polygon fill="none" stroke="black" points="785.62,-379.25 785.62,-401 1092.38,-401 1092.38,-379.25 785.62,-379.25"/>
<text text-anchor="start" x="788.62" y="-384.7" font-family="Times New Roman,serif" font-size="14.00">[String] ScreenName (default = EnvironmentInfo_00) </text>
<polygon fill="none" stroke="black" points="784.62,-378.25 784.62,-513 1093.38,-513 1093.38,-378.25 784.62,-378.25"/>
</g>
<!-- 14516&#45;&gt;14519 -->
<g id="edge1" class="edge">
<title>14516&#45;&gt;14519</title>
<path fill="none" stroke="firebrick" stroke-width="2" d="M1074.36,-601.29C1054.59,-578.69 1030.58,-551.26 1008.3,-525.8"/>
<polygon fill="firebrick" stroke="firebrick" stroke-width="2" points="1012.03,-524.76 1002.81,-519.54 1006.77,-529.37 1012.03,-524.76"/>
</g>
<!-- 14525 -->
<g id="node3" class="node">
<title>14525</title>
<polygon fill="none" stroke="black" stroke-width="2" points="758.88,-538.75 443.12,-538.75 443.12,-352.5 758.88,-352.5 758.88,-538.75"/>
<polygon fill="none" stroke="black" points="452.12,-511.25 452.12,-533.75 749.88,-533.75 749.88,-511.25 452.12,-511.25"/>
<text text-anchor="start" x="522.62" y="-518.45" font-family="Times New Roman,serif" font-weight="bold" font-size="14.00">Element_BoolSelector (4)</text>
<polygon fill="none" stroke="black" points="452.12,-488.75 452.12,-511.25 749.88,-511.25 749.88,-488.75 452.12,-488.75"/>
<text text-anchor="start" x="569.12" y="-495.95" font-family="Times New Roman,serif" font-weight="bold" font-size="14.00">Properties</text>
<polygon fill="none" stroke="black" points="452.12,-467 452.12,-488.75 749.88,-488.75 749.88,-467 452.12,-467"/>
<text text-anchor="start" x="503.88" y="-472.45" font-family="Times New Roman,serif" font-size="14.00">[Int] CalculateTiming (default = 0) </text>
<polygon fill="none" stroke="black" points="452.12,-445.25 452.12,-467 749.88,-467 749.88,-445.25 452.12,-445.25"/>
<text text-anchor="start" x="484.75" y="-450.7" font-family="Times New Roman,serif" font-size="14.00">[Bool] ChildFrameSync (default = False) </text>
<polygon fill="none" stroke="black" points="452.12,-423.5 452.12,-445.25 749.88,-445.25 749.88,-423.5 452.12,-423.5"/>
<text text-anchor="start" x="501.25" y="-428.95" font-family="Times New Roman,serif" font-size="14.00">[Bool] InputValue (default = False) </text>
<polygon fill="none" stroke="black" points="452.12,-401.75 452.12,-423.5 749.88,-423.5 749.88,-401.75 452.12,-401.75"/>
<text text-anchor="start" x="455.12" y="-407.2" font-family="Times New Roman,serif" font-size="14.00">[Bool] IsNoSelectWhenChildBusy (default = False) </text>
<polygon fill="none" stroke="black" points="452.12,-379.25 452.12,-401.75 749.88,-401.75 749.88,-379.25 452.12,-379.25"/>
<text text-anchor="start" x="581.88" y="-386.45" font-family="Times New Roman,serif" font-weight="bold" font-size="14.00">Inputs</text>
<polygon fill="none" stroke="black" points="452.12,-357.5 452.12,-379.25 749.88,-379.25 749.88,-357.5 452.12,-357.5"/>
<text text-anchor="start" x="517" y="-362.95" font-family="Times New Roman,serif" font-size="14.00">[Bool] Input (default = False) </text>
<polygon fill="none" stroke="black" points="451.12,-356.5 451.12,-534.75 750.88,-534.75 750.88,-356.5 451.12,-356.5"/>
</g>
<!-- 14516&#45;&gt;14525 -->
<g id="edge2" class="edge">
<title>14516&#45;&gt;14525</title>
<path fill="none" stroke="firebrick" stroke-width="2" d="M1030.84,-601.29C1023.51,-597.52 1016.16,-593.88 1009,-590.5 972.24,-573.16 963.42,-566.67 924,-556.75 859.62,-540.56 836.72,-558.12 769.68,-538.96"/>
<polygon fill="firebrick" stroke="firebrick" stroke-width="2" points="772.48,-536.16 761.89,-536.59 770.44,-542.85 772.48,-536.16"/>
</g>
<!-- 14543 -->
<g id="node4" class="node">
<title>14543</title>
<polygon fill="none" stroke="black" stroke-width="2" points="1287.25,-142.75 970.75,-142.75 970.75,0 1287.25,0 1287.25,-142.75"/>
<polygon fill="none" stroke="black" points="979.75,-115.25 979.75,-137.75 1278.25,-137.75 1278.25,-115.25 979.75,-115.25"/>
<text text-anchor="start" x="1029.62" y="-122.45" font-family="Times New Roman,serif" font-weight="bold" font-size="14.00">SeqOneShotSetScreenVisible (2)</text>
<polygon fill="none" stroke="black" points="979.75,-92.75 979.75,-115.25 1278.25,-115.25 1278.25,-92.75 979.75,-92.75"/>
<text text-anchor="start" x="1097.12" y="-99.95" font-family="Times New Roman,serif" font-weight="bold" font-size="14.00">Properties</text>
<polygon fill="none" stroke="black" points="979.75,-71 979.75,-92.75 1278.25,-92.75 1278.25,-71 979.75,-71"/>
<text text-anchor="start" x="1003.75" y="-76.45" font-family="Times New Roman,serif" font-size="14.00">[Bool] ExecuteEveryFrame (default = False) </text>
<polygon fill="none" stroke="black" points="979.75,-48.5 979.75,-71 1278.25,-71 1278.25,-48.5 979.75,-48.5"/>
<text text-anchor="start" x="1109.88" y="-55.7" font-family="Times New Roman,serif" font-weight="bold" font-size="14.00">Inputs</text>
<polygon fill="none" stroke="black" points="979.75,-26.75 979.75,-48.5 1278.25,-48.5 1278.25,-26.75 979.75,-26.75"/>
<text text-anchor="start" x="1036.75" y="-32.2" font-family="Times New Roman,serif" font-size="14.00">[Bool] IsVisible (default = True) </text>
<polygon fill="none" stroke="black" points="979.75,-5 979.75,-26.75 1278.25,-26.75 1278.25,-5 979.75,-5"/>
<text text-anchor="start" x="982.75" y="-10.45" font-family="Times New Roman,serif" font-size="14.00">[String] ScreenName (default = PlayerStatus3D_00) </text>
<polygon fill="none" stroke="black" points="978.75,-4 978.75,-138.75 1279.25,-138.75 1279.25,-4 978.75,-4"/>
</g>
<!-- 14516&#45;&gt;14543 -->
<g id="edge3" class="edge">
<title>14516&#45;&gt;14543</title>
<path fill="none" stroke="firebrick" stroke-width="2" d="M1118,-601.75C1120.05,-502.98 1124.75,-276.82 1127.29,-154.51"/>
<polygon fill="firebrick" stroke="firebrick" stroke-width="2" points="1130.76,-156.1 1127.47,-146.03 1123.76,-155.96 1130.76,-156.1"/>
</g>
<!-- 14549 -->
<g id="node5" class="node">
<title>14549</title>
<polygon fill="none" stroke="black" stroke-width="2" points="1444.62,-517 1163.38,-517 1163.38,-374.25 1444.62,-374.25 1444.62,-517"/>
<polygon fill="none" stroke="black" points="1172.38,-489.5 1172.38,-512 1435.62,-512 1435.62,-489.5 1172.38,-489.5"/>
<text text-anchor="start" x="1204.62" y="-496.7" font-family="Times New Roman,serif" font-weight="bold" font-size="14.00">SeqOneShotSetScreenVisible (3)</text>
<polygon fill="none" stroke="black" points="1172.38,-467 1172.38,-489.5 1435.62,-489.5 1435.62,-467 1172.38,-467"/>
<text text-anchor="start" x="1272.12" y="-474.2" font-family="Times New Roman,serif" font-weight="bold" font-size="14.00">Properties</text>
<polygon fill="none" stroke="black" points="1172.38,-445.25 1172.38,-467 1435.62,-467 1435.62,-445.25 1172.38,-445.25"/>
<text text-anchor="start" x="1178.75" y="-450.7" font-family="Times New Roman,serif" font-size="14.00">[Bool] ExecuteEveryFrame (default = False) </text>
<polygon fill="none" stroke="black" points="1172.38,-422.75 1172.38,-445.25 1435.62,-445.25 1435.62,-422.75 1172.38,-422.75"/>
<text text-anchor="start" x="1284.88" y="-429.95" font-family="Times New Roman,serif" font-weight="bold" font-size="14.00">Inputs</text>
<polygon fill="none" stroke="black" points="1172.38,-401 1172.38,-422.75 1435.62,-422.75 1435.62,-401 1172.38,-401"/>
<text text-anchor="start" x="1210.25" y="-406.45" font-family="Times New Roman,serif" font-size="14.00">[Bool] IsVisible (default = False) </text>
<polygon fill="none" stroke="black" points="1172.38,-379.25 1172.38,-401 1435.62,-401 1435.62,-379.25 1172.38,-379.25"/>
<text text-anchor="start" x="1175.38" y="-384.7" font-family="Times New Roman,serif" font-size="14.00">[String] ScreenName (default = AppMap_00) </text>
<polygon fill="none" stroke="black" points="1171.38,-378.25 1171.38,-513 1436.62,-513 1436.62,-378.25 1171.38,-378.25"/>
</g>
<!-- 14516&#45;&gt;14549 -->
<g id="edge4" class="edge">
<title>14516&#45;&gt;14549</title>
<path fill="none" stroke="firebrick" stroke-width="2" d="M1161.79,-601.29C1182.66,-578.59 1208.01,-551.02 1231.5,-525.47"/>
<polygon fill="firebrick" stroke="firebrick" stroke-width="2" points="1232.81,-529.22 1237,-519.49 1227.66,-524.48 1232.81,-529.22"/>
</g>
<!-- 14555 -->
<g id="node6" class="node">
<title>14555</title>
<polygon fill="none" stroke="black" stroke-width="2" points="1758.88,-517 1473.12,-517 1473.12,-374.25 1758.88,-374.25 1758.88,-517"/>
<polygon fill="none" stroke="black" points="1482.12,-489.5 1482.12,-512 1749.88,-512 1749.88,-489.5 1482.12,-489.5"/>
<text text-anchor="start" x="1516.62" y="-496.7" font-family="Times New Roman,serif" font-weight="bold" font-size="14.00">SeqOneShotSetScreenVisible (9)</text>
<polygon fill="none" stroke="black" points="1482.12,-467 1482.12,-489.5 1749.88,-489.5 1749.88,-467 1482.12,-467"/>
<text text-anchor="start" x="1584.12" y="-474.2" font-family="Times New Roman,serif" font-weight="bold" font-size="14.00">Properties</text>
<polygon fill="none" stroke="black" points="1482.12,-445.25 1482.12,-467 1749.88,-467 1749.88,-445.25 1482.12,-445.25"/>
<text text-anchor="start" x="1490.75" y="-450.7" font-family="Times New Roman,serif" font-size="14.00">[Bool] ExecuteEveryFrame (default = False) </text>
<polygon fill="none" stroke="black" points="1482.12,-422.75 1482.12,-445.25 1749.88,-445.25 1749.88,-422.75 1482.12,-422.75"/>
<text text-anchor="start" x="1596.88" y="-429.95" font-family="Times New Roman,serif" font-weight="bold" font-size="14.00">Inputs</text>
<polygon fill="none" stroke="black" points="1482.12,-401 1482.12,-422.75 1749.88,-422.75 1749.88,-401 1482.12,-401"/>
<text text-anchor="start" x="1522.25" y="-406.45" font-family="Times New Roman,serif" font-size="14.00">[Bool] IsVisible (default = False) </text>
<polygon fill="none" stroke="black" points="1482.12,-379.25 1482.12,-401 1749.88,-401 1749.88,-379.25 1482.12,-379.25"/>
<text text-anchor="start" x="1485.12" y="-384.7" font-family="Times New Roman,serif" font-size="14.00">[String] ScreenName (default = CtrlGuide_00) </text>
<polygon fill="none" stroke="black" points="1481.12,-378.25 1481.12,-513 1750.88,-513 1750.88,-378.25 1481.12,-378.25"/>
</g>
<!-- 14516&#45;&gt;14555 -->
<g id="edge5" class="edge">
<title>14516&#45;&gt;14555</title>
<path fill="none" stroke="firebrick" stroke-width="2" d="M1196.77,-601.34C1206.05,-597.11 1215.58,-593.36 1225,-590.5 1314.64,-563.31 1346.89,-604.32 1435,-572.5 1466.37,-561.17 1497.36,-542.97 1524.59,-523.88"/>
<polygon fill="firebrick" stroke="firebrick" stroke-width="2" points="1525.12,-527.81 1531.21,-519.15 1521.04,-522.12 1525.12,-527.81"/>
</g>
<!-- 14531 -->
<g id="node8" class="node">
<title>14531</title>
<polygon fill="none" stroke="black" stroke-width="2" points="627.38,-289.5 428.62,-289.5 428.62,-191 627.38,-191 627.38,-289.5"/>
<polygon fill="none" stroke="black" points="437.62,-262 437.62,-284.5 618.38,-284.5 618.38,-262 437.62,-262"/>
<text text-anchor="start" x="448.12" y="-269.2" font-family="Times New Roman,serif" font-weight="bold" font-size="14.00">Element_Simultaneous (7)</text>
<polygon fill="none" stroke="black" points="437.62,-239.5 437.62,-262 618.38,-262 618.38,-239.5 437.62,-239.5"/>
<text text-anchor="start" x="496.12" y="-246.7" font-family="Times New Roman,serif" font-weight="bold" font-size="14.00">Properties</text>
<polygon fill="none" stroke="black" points="437.62,-217.75 437.62,-239.5 618.38,-239.5 618.38,-217.75 437.62,-217.75"/>
<text text-anchor="start" x="447" y="-223.2" font-family="Times New Roman,serif" font-size="14.00">[Int] EndPolicy (default = 0) </text>
<polygon fill="none" stroke="black" points="437.62,-196 437.62,-217.75 618.38,-217.75 618.38,-196 437.62,-196"/>
<text text-anchor="start" x="440.62" y="-201.45" font-family="Times New Roman,serif" font-size="14.00">[Int] ResultPolicy (default = 0) </text>
<polygon fill="none" stroke="black" points="436.62,-195 436.62,-285.5 619.38,-285.5 619.38,-195 436.62,-195"/>
</g>
<!-- 14525&#45;&gt;14531 -->
<g id="edge7" class="edge">
<title>14525&#45;&gt;14531</title>
<path fill="none" stroke="firebrick" stroke-width="2" d="M567.81,-352.16C561.48,-334.52 555.01,-316.5 549.18,-300.25"/>
<polygon fill="firebrick" stroke="firebrick" stroke-width="2" points="553.14,-300.94 546.47,-292.71 546.55,-303.3 553.14,-300.94"/>
<text text-anchor="middle" x="574.12" y="-321.2" font-family="Times New Roman,serif" font-size="14.00" fill="firebrick">True</text>
</g>
<!-- 14546 -->
<g id="node9" class="node">
<title>14546</title>
<polygon fill="none" stroke="black" stroke-width="2" points="1042.38,-300.75 645.62,-300.75 645.62,-179.75 1042.38,-179.75 1042.38,-300.75"/>
<polygon fill="none" stroke="black" points="654.62,-273.25 654.62,-295.75 1033.38,-295.75 1033.38,-273.25 654.62,-273.25"/>
<text text-anchor="start" x="657.62" y="-280.45" font-family="Times New Roman,serif" font-weight="bold" font-size="14.00">SeqOneShotSetVisibleOfPlayerStatusScreenForProMode (8)</text>
<polygon fill="none" stroke="black" points="654.62,-250.75 654.62,-273.25 1033.38,-273.25 1033.38,-250.75 654.62,-250.75"/>
<text text-anchor="start" x="812.12" y="-257.95" font-family="Times New Roman,serif" font-weight="bold" font-size="14.00">Properties</text>
<polygon fill="none" stroke="black" points="654.62,-229 654.62,-250.75 1033.38,-250.75 1033.38,-229 654.62,-229"/>
<text text-anchor="start" x="718.75" y="-234.45" font-family="Times New Roman,serif" font-size="14.00">[Bool] ExecuteEveryFrame (default = False) </text>
<polygon fill="none" stroke="black" points="654.62,-206.5 654.62,-229 1033.38,-229 1033.38,-206.5 654.62,-206.5"/>
<text text-anchor="start" x="824.88" y="-213.7" font-family="Times New Roman,serif" font-weight="bold" font-size="14.00">Inputs</text>
<polygon fill="none" stroke="black" points="654.62,-184.75 654.62,-206.5 1033.38,-206.5 1033.38,-184.75 654.62,-184.75"/>
<text text-anchor="start" x="751" y="-190.2" font-family="Times New Roman,serif" font-size="14.00">[Bool] isVisible (default = False) </text>
<polygon fill="none" stroke="black" points="653.62,-183.75 653.62,-296.75 1034.38,-296.75 1034.38,-183.75 653.62,-183.75"/>
</g>
<!-- 14525&#45;&gt;14546 -->
<g id="edge8" class="edge">
<title>14525&#45;&gt;14546</title>
<path fill="none" stroke="firebrick" stroke-width="2" d="M711.48,-352.16C729.09,-337.42 747.02,-322.41 763.76,-308.4"/>
<polygon fill="firebrick" stroke="firebrick" stroke-width="2" points="764.66,-312.22 770.08,-303.11 760.17,-306.85 764.66,-312.22"/>
<text text-anchor="middle" x="759.62" y="-321.2" font-family="Times New Roman,serif" font-size="14.00" fill="firebrick">False</text>
</g>
<!-- 14522 -->
<g id="node7" class="node">
<title>14522</title>
<polygon fill="none" stroke="black" stroke-width="2" points="1000,-711.5 754,-711.5 754,-590.5 1000,-590.5 1000,-711.5"/>
<polygon fill="none" stroke="black" points="763,-684 763,-706.5 991,-706.5 991,-684 763,-684"/>
<text text-anchor="start" x="766" y="-691.2" font-family="Times New Roman,serif" font-weight="bold" font-size="14.00">Element_ModuleIF_Input_Bool (11)</text>
<polygon fill="none" stroke="black" points="763,-661.5 763,-684 991,-684 991,-661.5 763,-661.5"/>
<text text-anchor="start" x="845.12" y="-668.7" font-family="Times New Roman,serif" font-weight="bold" font-size="14.00">Properties</text>
<polygon fill="none" stroke="black" points="763,-639.75 763,-661.5 991,-661.5 991,-639.75 763,-639.75"/>
<text text-anchor="start" x="778.75" y="-645.2" font-family="Times New Roman,serif" font-size="14.00">[String] Name (default = IsVisible) </text>
<polygon fill="none" stroke="black" points="763,-617.25 763,-639.75 991,-639.75 991,-617.25 763,-617.25"/>
<text text-anchor="start" x="852.62" y="-624.45" font-family="Times New Roman,serif" font-weight="bold" font-size="14.00">Outputs</text>
<polygon fill="none" stroke="black" points="763,-595.5 763,-617.25 991,-617.25 991,-595.5 763,-595.5"/>
<text text-anchor="start" x="832.75" y="-600.95" font-family="Times New Roman,serif" font-size="14.00">[Bool] IsVisible</text>
<polygon fill="none" stroke="black" points="762,-594.5 762,-707.5 992,-707.5 992,-594.5 762,-594.5"/>
</g>
<!-- 14522&#45;&gt;14519 -->
<g id="edge6" class="edge">
<title>14522:14561&#45;&gt;14519:14559</title>
<path fill="none" stroke="#008000" stroke-dasharray="5,2" d="M877,-594C877,-541.02 808.52,-564.96 786,-517 777.8,-499.53 766.53,-439.27 775.93,-418.63"/>
<polygon fill="#008000" stroke="#008000" points="778.03,-421.43 783.8,-412.55 773.75,-415.89 778.03,-421.43"/>
<text text-anchor="middle" x="895.38" y="-559.2" font-family="Times New Roman,serif" font-size="14.00" fill="#008000">IsVisible</text>
</g>
<!-- 14531&#45;&gt;14543 -->
<g id="edge13" class="edge">
<title>14531&#45;&gt;14543</title>
<path fill="none" stroke="firebrick" stroke-width="2" d="M609.23,-190.59C618.39,-186.42 627.75,-182.68 637,-179.75 771.8,-137.06 818.48,-177.27 959.89,-142.82"/>
<polygon fill="firebrick" stroke="firebrick" stroke-width="2" points="958.92,-146.68 967.75,-140.83 957.2,-139.89 958.92,-146.68"/>
</g>
<!-- 14534 -->
<g id="node11" class="node">
<title>14534</title>
<polygon fill="none" stroke="black" stroke-width="2" points="618,-142.75 318,-142.75 318,0 618,0 618,-142.75"/>
<polygon fill="none" stroke="black" points="327,-115.25 327,-137.75 609,-137.75 609,-115.25 327,-115.25"/>
<text text-anchor="start" x="382.5" y="-122.45" font-family="Times New Roman,serif" font-weight="bold" font-size="14.00">SeqOneShotOpenScreen (5)</text>
<polygon fill="none" stroke="black" points="327,-92.75 327,-115.25 609,-115.25 609,-92.75 327,-92.75"/>
<text text-anchor="start" x="436.12" y="-99.95" font-family="Times New Roman,serif" font-weight="bold" font-size="14.00">Properties</text>
<polygon fill="none" stroke="black" points="327,-71 327,-92.75 609,-92.75 609,-71 327,-71"/>
<text text-anchor="start" x="342.75" y="-76.45" font-family="Times New Roman,serif" font-size="14.00">[Bool] ExecuteEveryFrame (default = False) </text>
<polygon fill="none" stroke="black" points="327,-48.5 327,-71 609,-71 609,-48.5 327,-48.5"/>
<text text-anchor="start" x="448.88" y="-55.7" font-family="Times New Roman,serif" font-weight="bold" font-size="14.00">Inputs</text>
<polygon fill="none" stroke="black" points="327,-26.75 327,-48.5 609,-48.5 609,-26.75 327,-26.75"/>
<text text-anchor="start" x="396.38" y="-32.2" font-family="Times New Roman,serif" font-size="14.00">[Int] Option (default = 2) </text>
<polygon fill="none" stroke="black" points="327,-5 327,-26.75 609,-26.75 609,-5 327,-5"/>
<text text-anchor="start" x="330" y="-10.45" font-family="Times New Roman,serif" font-size="14.00">[String] ScreenName (default = PlayerStatus_00) </text>
<polygon fill="none" stroke="black" points="326,-4 326,-138.75 610,-138.75 610,-4 326,-4"/>
</g>
<!-- 14531&#45;&gt;14534 -->
<g id="edge10" class="edge">
<title>14531&#45;&gt;14534</title>
<path fill="none" stroke="firebrick" stroke-width="2" d="M510.48,-190.53C506.32,-178.96 501.77,-166.3 497.24,-153.71"/>
<polygon fill="firebrick" stroke="firebrick" stroke-width="2" points="501.15,-154.24 494.48,-146.01 494.57,-156.61 501.15,-154.24"/>
</g>
<!-- 14537 -->
<g id="node12" class="node">
<title>14537</title>
<polygon fill="none" stroke="black" stroke-width="2" points="952.25,-142.75 635.75,-142.75 635.75,0 952.25,0 952.25,-142.75"/>
<polygon fill="none" stroke="black" points="644.75,-115.25 644.75,-137.75 943.25,-137.75 943.25,-115.25 644.75,-115.25"/>
<text text-anchor="start" x="704.75" y="-122.45" font-family="Times New Roman,serif" font-weight="bold" font-size="14.00">SeqOneShotOpenScreen (10)</text>
<polygon fill="none" stroke="black" points="644.75,-92.75 644.75,-115.25 943.25,-115.25 943.25,-92.75 644.75,-92.75"/>
<text text-anchor="start" x="762.12" y="-99.95" font-family="Times New Roman,serif" font-weight="bold" font-size="14.00">Properties</text>
<polygon fill="none" stroke="black" points="644.75,-71 644.75,-92.75 943.25,-92.75 943.25,-71 644.75,-71"/>
<text text-anchor="start" x="668.75" y="-76.45" font-family="Times New Roman,serif" font-size="14.00">[Bool] ExecuteEveryFrame (default = False) </text>
<polygon fill="none" stroke="black" points="644.75,-48.5 644.75,-71 943.25,-71 943.25,-48.5 644.75,-48.5"/>
<text text-anchor="start" x="774.88" y="-55.7" font-family="Times New Roman,serif" font-weight="bold" font-size="14.00">Inputs</text>
<polygon fill="none" stroke="black" points="644.75,-26.75 644.75,-48.5 943.25,-48.5 943.25,-26.75 644.75,-26.75"/>
<text text-anchor="start" x="722.38" y="-32.2" font-family="Times New Roman,serif" font-size="14.00">[Int] Option (default = 2) </text>
<polygon fill="none" stroke="black" points="644.75,-5 644.75,-26.75 943.25,-26.75 943.25,-5 644.75,-5"/>
<text text-anchor="start" x="647.75" y="-10.45" font-family="Times New Roman,serif" font-size="14.00">[String] ScreenName (default = PlayerStatus3D_00) </text>
<polygon fill="none" stroke="black" points="643.75,-4 643.75,-138.75 944.25,-138.75 944.25,-4 643.75,-4"/>
</g>
<!-- 14531&#45;&gt;14537 -->
<g id="edge11" class="edge">
<title>14531&#45;&gt;14537</title>
<path fill="none" stroke="firebrick" stroke-width="2" d="M605.65,-190.53C626.32,-177.57 649.15,-163.25 671.58,-149.18"/>
<polygon fill="firebrick" stroke="firebrick" stroke-width="2" points="671.98,-153.05 678.59,-144.77 668.26,-147.12 671.98,-153.05"/>
</g>
<!-- 14540 -->
<g id="node13" class="node">
<title>14540</title>
<polygon fill="none" stroke="black" stroke-width="2" points="300,-142.75 0,-142.75 0,0 300,0 300,-142.75"/>
<polygon fill="none" stroke="black" points="9,-115.25 9,-137.75 291,-137.75 291,-115.25 9,-115.25"/>
<text text-anchor="start" x="50.62" y="-122.45" font-family="Times New Roman,serif" font-weight="bold" font-size="14.00">SeqOneShotSetScreenVisible (6)</text>
<polygon fill="none" stroke="black" points="9,-92.75 9,-115.25 291,-115.25 291,-92.75 9,-92.75"/>
<text text-anchor="start" x="118.12" y="-99.95" font-family="Times New Roman,serif" font-weight="bold" font-size="14.00">Properties</text>
<polygon fill="none" stroke="black" points="9,-71 9,-92.75 291,-92.75 291,-71 9,-71"/>
<text text-anchor="start" x="24.75" y="-76.45" font-family="Times New Roman,serif" font-size="14.00">[Bool] ExecuteEveryFrame (default = False) </text>
<polygon fill="none" stroke="black" points="9,-48.5 9,-71 291,-71 291,-48.5 9,-48.5"/>
<text text-anchor="start" x="130.88" y="-55.7" font-family="Times New Roman,serif" font-weight="bold" font-size="14.00">Inputs</text>
<polygon fill="none" stroke="black" points="9,-26.75 9,-48.5 291,-48.5 291,-26.75 9,-26.75"/>
<text text-anchor="start" x="57.75" y="-32.2" font-family="Times New Roman,serif" font-size="14.00">[Bool] IsVisible (default = True) </text>
<polygon fill="none" stroke="black" points="9,-5 9,-26.75 291,-26.75 291,-5 9,-5"/>
<text text-anchor="start" x="12" y="-10.45" font-family="Times New Roman,serif" font-size="14.00">[String] ScreenName (default = PlayerStatus_00) </text>
<polygon fill="none" stroke="black" points="8,-4 8,-138.75 292,-138.75 292,-4 8,-4"/>
</g>
<!-- 14531&#45;&gt;14540 -->
<g id="edge12" class="edge">
<title>14531&#45;&gt;14540</title>
<path fill="none" stroke="firebrick" stroke-width="2" d="M428.23,-195.33C393.53,-180.04 354.12,-162.67 310.49,-143.41"/>
<polygon fill="firebrick" stroke="firebrick" stroke-width="2" points="313.55,-140.93 302.99,-140.09 310.72,-147.34 313.55,-140.93"/>
</g>
<!-- 14528 -->
<g id="node10" class="node">
<title>14528</title>
<polygon fill="none" stroke="black" stroke-width="2" points="724,-711.5 478,-711.5 478,-590.5 724,-590.5 724,-711.5"/>
<polygon fill="none" stroke="black" points="487,-684 487,-706.5 715,-706.5 715,-684 487,-684"/>
<text text-anchor="start" x="490" y="-691.2" font-family="Times New Roman,serif" font-weight="bold" font-size="14.00">Element_ModuleIF_Input_Bool (13)</text>
<polygon fill="none" stroke="black" points="487,-661.5 487,-684 715,-684 715,-661.5 487,-661.5"/>
<text text-anchor="start" x="569.12" y="-668.7" font-family="Times New Roman,serif" font-weight="bold" font-size="14.00">Properties</text>
<polygon fill="none" stroke="black" points="487,-639.75 487,-661.5 715,-661.5 715,-639.75 487,-639.75"/>
<text text-anchor="start" x="502.75" y="-645.2" font-family="Times New Roman,serif" font-size="14.00">[String] Name (default = IsVisible) </text>
<polygon fill="none" stroke="black" points="487,-617.25 487,-639.75 715,-639.75 715,-617.25 487,-617.25"/>
<text text-anchor="start" x="576.62" y="-624.45" font-family="Times New Roman,serif" font-weight="bold" font-size="14.00">Outputs</text>
<polygon fill="none" stroke="black" points="487,-595.5 487,-617.25 715,-617.25 715,-595.5 487,-595.5"/>
<text text-anchor="start" x="566.5" y="-600.95" font-family="Times New Roman,serif" font-size="14.00">[Bool] Input</text>
<polygon fill="none" stroke="black" points="486,-594.5 486,-707.5 716,-707.5 716,-594.5 486,-594.5"/>
</g>
<!-- 14528&#45;&gt;14525 -->
<g id="edge9" class="edge">
<title>14528:14563&#45;&gt;14525:14562</title>
<path fill="none" stroke="#008000" stroke-dasharray="5,2" d="M601,-594C601,-519.66 715.86,-599.38 758.88,-538.75 770.52,-522.34 773.06,-371.9 758.88,-357.62 748.39,-347.08 642.25,-341.09 610.15,-350.19"/>
<polygon fill="#008000" stroke="#008000" points="608.4,-347.14 602.24,-355.75 612.43,-352.86 608.4,-347.14"/>
<text text-anchor="middle" x="750.62" y="-559.2" font-family="Times New Roman,serif" font-size="14.00" fill="#008000">Input</text>
</g>
<!-- 14552 -->
<g id="node14" class="node">
<title>14552</title>
<polygon fill="none" stroke="black" stroke-width="2" points="1480,-711.5 1234,-711.5 1234,-590.5 1480,-590.5 1480,-711.5"/>
<polygon fill="none" stroke="black" points="1243,-684 1243,-706.5 1471,-706.5 1471,-684 1243,-684"/>
<text text-anchor="start" x="1246" y="-691.2" font-family="Times New Roman,serif" font-weight="bold" font-size="14.00">Element_ModuleIF_Input_Bool (12)</text>
<polygon fill="none" stroke="black" points="1243,-661.5 1243,-684 1471,-684 1471,-661.5 1243,-661.5"/>
<text text-anchor="start" x="1325.12" y="-668.7" font-family="Times New Roman,serif" font-weight="bold" font-size="14.00">Properties</text>
<polygon fill="none" stroke="black" points="1243,-639.75 1243,-661.5 1471,-661.5 1471,-639.75 1243,-639.75"/>
<text text-anchor="start" x="1258.75" y="-645.2" font-family="Times New Roman,serif" font-size="14.00">[String] Name (default = IsVisible) </text>
<polygon fill="none" stroke="black" points="1243,-617.25 1243,-639.75 1471,-639.75 1471,-617.25 1243,-617.25"/>
<text text-anchor="start" x="1332.62" y="-624.45" font-family="Times New Roman,serif" font-weight="bold" font-size="14.00">Outputs</text>
<polygon fill="none" stroke="black" points="1243,-595.5 1243,-617.25 1471,-617.25 1471,-595.5 1243,-595.5"/>
<text text-anchor="start" x="1312.75" y="-600.95" font-family="Times New Roman,serif" font-size="14.00">[Bool] IsVisible</text>
<polygon fill="none" stroke="black" points="1242,-594.5 1242,-707.5 1472,-707.5 1472,-594.5 1242,-594.5"/>
</g>
<!-- 14552&#45;&gt;14549 -->
<g id="edge14" class="edge">
<title>14552:14575&#45;&gt;14549:14573</title>
<path fill="none" stroke="#008000" stroke-dasharray="5,2" d="M1357,-594C1357,-544.97 1416.73,-562.09 1436,-517 1452.68,-477.97 1478.41,-423.14 1448.23,-413.2"/>
<polygon fill="#008000" stroke="#008000" points="1448.89,-409.76 1438.5,-411.84 1447.92,-416.69 1448.89,-409.76"/>
<text text-anchor="middle" x="1406.38" y="-559.2" font-family="Times New Roman,serif" font-size="14.00" fill="#008000">IsVisible</text>
</g>
<!-- 14558 -->
<g id="node15" class="node">
<title>14558</title>
<polygon fill="none" stroke="black" stroke-width="2" points="1744,-711.5 1498,-711.5 1498,-590.5 1744,-590.5 1744,-711.5"/>
<polygon fill="none" stroke="black" points="1507,-684 1507,-706.5 1735,-706.5 1735,-684 1507,-684"/>
<text text-anchor="start" x="1510" y="-691.2" font-family="Times New Roman,serif" font-weight="bold" font-size="14.00">Element_ModuleIF_Input_Bool (14)</text>
<polygon fill="none" stroke="black" points="1507,-661.5 1507,-684 1735,-684 1735,-661.5 1507,-661.5"/>
<text text-anchor="start" x="1589.12" y="-668.7" font-family="Times New Roman,serif" font-weight="bold" font-size="14.00">Properties</text>
<polygon fill="none" stroke="black" points="1507,-639.75 1507,-661.5 1735,-661.5 1735,-639.75 1507,-639.75"/>
<text text-anchor="start" x="1522.75" y="-645.2" font-family="Times New Roman,serif" font-size="14.00">[String] Name (default = IsVisible) </text>
<polygon fill="none" stroke="black" points="1507,-617.25 1507,-639.75 1735,-639.75 1735,-617.25 1507,-617.25"/>
<text text-anchor="start" x="1596.62" y="-624.45" font-family="Times New Roman,serif" font-weight="bold" font-size="14.00">Outputs</text>
<polygon fill="none" stroke="black" points="1507,-595.5 1507,-617.25 1735,-617.25 1735,-595.5 1507,-595.5"/>
<text text-anchor="start" x="1576.75" y="-600.95" font-family="Times New Roman,serif" font-size="14.00">[Bool] IsVisible</text>
<polygon fill="none" stroke="black" points="1506,-594.5 1506,-707.5 1736,-707.5 1736,-594.5 1506,-594.5"/>
</g>
<!-- 14558&#45;&gt;14555 -->
<g id="edge15" class="edge">
<title>14558:14578&#45;&gt;14555:14576</title>
<path fill="none" stroke="#008000" stroke-dasharray="5,2" d="M1621,-594C1621,-527.23 1716.76,-574.91 1750,-517 1771.13,-480.19 1793.25,-423.55 1762.35,-413.26"/>
<polygon fill="#008000" stroke="#008000" points="1762.89,-409.8 1752.5,-411.84 1761.9,-416.73 1762.89,-409.8"/>
<text text-anchor="middle" x="1671.38" y="-559.2" font-family="Times New Roman,serif" font-size="14.00" fill="#008000">IsVisible</text>
</g>
<!-- 14579 -->
<g id="node16" class="node">
<title>14579</title>
<ellipse fill="mediumpurple" stroke="mediumpurple" cx="1117" cy="-766.5" rx="31.39" ry="18"/>
<text text-anchor="start" x="1102" y="-762.45" font-family="Times New Roman,serif" font-weight="bold" font-size="14.00" fill="white">Root</text>
</g>
<!-- 14579&#45;&gt;14516 -->
<g id="edge16" class="edge">
<title>14579&#45;&gt;14516</title>
<path fill="none" stroke="black" d="M1117,-748.26C1117,-738.28 1117,-725.06 1117,-711.63"/>
<polygon fill="black" stroke="black" points="1120.5,-711.88 1117,-701.88 1113.5,-711.88 1120.5,-711.88"/>
</g>
</g>
</svg>
