<?xml version="1.0" encoding="UTF-8" standalone="no"?>
<!DOCTYPE svg PUBLIC "-//W3C//DTD SVG 1.1//EN"
 "http://www.w3.org/Graphics/SVG/1.1/DTD/svg11.dtd">
<!-- Generated by graphviz version 9.0.0 (20230911.1827)
 -->
<!-- Title: ShortCutPauseOn.module Pages: 1 -->
<svg width="2294pt" height="601pt"
 viewBox="0.00 0.00 2294.38 600.50" xmlns="http://www.w3.org/2000/svg" xmlns:xlink="http://www.w3.org/1999/xlink">
<g id="graph0" class="graph" transform="scale(1 1) rotate(0) translate(4 596.5)">
<title>ShortCutPauseOn.module</title>
<polygon fill="lightgray" stroke="none" points="-4,4 -4,-596.5 2290.38,-596.5 2290.38,4 -4,4"/>
<!-- 15308 -->
<g id="node1" class="node">
<title>15308</title>
<polygon fill="none" stroke="black" stroke-width="2" points="1498,-520.5 1211.5,-520.5 1211.5,-313.25 1498,-313.25 1498,-520.5"/>
<polygon fill="none" stroke="black" points="1220.5,-493 1220.5,-515.5 1489,-515.5 1489,-493 1220.5,-493"/>
<text text-anchor="start" x="1283.88" y="-500.2" font-family="Times New Roman,serif" font-weight="bold" font-size="14.00">Element_Sequential (0)</text>
<polygon fill="none" stroke="black" points="1220.5,-470.5 1220.5,-493 1489,-493 1489,-470.5 1220.5,-470.5"/>
<text text-anchor="start" x="1322.88" y="-477.7" font-family="Times New Roman,serif" font-weight="bold" font-size="14.00">Properties</text>
<polygon fill="none" stroke="black" points="1220.5,-448.75 1220.5,-470.5 1489,-470.5 1489,-448.75 1220.5,-448.75"/>
<text text-anchor="start" x="1270.75" y="-454.2" font-family="Times New Roman,serif" font-size="14.00">[Int] BusyPolicy (default = 0) </text>
<polygon fill="none" stroke="black" points="1220.5,-427 1220.5,-448.75 1489,-448.75 1489,-427 1220.5,-427"/>
<text text-anchor="start" x="1273.75" y="-432.45" font-family="Times New Roman,serif" font-size="14.00">[Int] NumLoop (default = 0) </text>
<polygon fill="none" stroke="black" points="1220.5,-405.25 1220.5,-427 1489,-427 1489,-405.25 1220.5,-405.25"/>
<text text-anchor="start" x="1273" y="-410.7" font-family="Times New Roman,serif" font-size="14.00">[Int] PlayPolicy (default = 0) </text>
<polygon fill="none" stroke="black" points="1220.5,-383.5 1220.5,-405.25 1489,-405.25 1489,-383.5 1220.5,-383.5"/>
<text text-anchor="start" x="1267.38" y="-388.95" font-family="Times New Roman,serif" font-size="14.00">[Int] ResultPolicy (default = 0) </text>
<polygon fill="none" stroke="black" points="1220.5,-361.75 1220.5,-383.5 1489,-383.5 1489,-361.75 1220.5,-361.75"/>
<text text-anchor="start" x="1248.25" y="-367.2" font-family="Times New Roman,serif" font-size="14.00">[Bool] IsDelayJudge (default = False) </text>
<polygon fill="none" stroke="black" points="1220.5,-340 1220.5,-361.75 1489,-361.75 1489,-340 1220.5,-340"/>
<text text-anchor="start" x="1264.75" y="-345.45" font-family="Times New Roman,serif" font-size="14.00">[Bool] IsLoop (default = False) </text>
<polygon fill="none" stroke="black" points="1220.5,-318.25 1220.5,-340 1489,-340 1489,-318.25 1220.5,-318.25"/>
<text text-anchor="start" x="1223.5" y="-323.7" font-family="Times New Roman,serif" font-size="14.00">[Bool] IsUpdateNextInFrame (default = False) </text>
<polygon fill="none" stroke="black" points="1219.5,-317.25 1219.5,-516.5 1490,-516.5 1490,-317.25 1219.5,-317.25"/>
</g>
<!-- 15311 -->
<g id="node2" class="node">
<title>15311</title>
<polygon fill="none" stroke="black" stroke-width="2" points="693.12,-277.25 494.38,-277.25 494.38,-178.75 693.12,-178.75 693.12,-277.25"/>
<polygon fill="none" stroke="black" points="503.38,-249.75 503.38,-272.25 684.12,-272.25 684.12,-249.75 503.38,-249.75"/>
<text text-anchor="start" x="513.88" y="-256.95" font-family="Times New Roman,serif" font-weight="bold" font-size="14.00">Element_Simultaneous (4)</text>
<polygon fill="none" stroke="black" points="503.38,-227.25 503.38,-249.75 684.12,-249.75 684.12,-227.25 503.38,-227.25"/>
<text text-anchor="start" x="561.88" y="-234.45" font-family="Times New Roman,serif" font-weight="bold" font-size="14.00">Properties</text>
<polygon fill="none" stroke="black" points="503.38,-205.5 503.38,-227.25 684.12,-227.25 684.12,-205.5 503.38,-205.5"/>
<text text-anchor="start" x="512.75" y="-210.95" font-family="Times New Roman,serif" font-size="14.00">[Int] EndPolicy (default = 0) </text>
<polygon fill="none" stroke="black" points="503.38,-183.75 503.38,-205.5 684.12,-205.5 684.12,-183.75 503.38,-183.75"/>
<text text-anchor="start" x="506.38" y="-189.2" font-family="Times New Roman,serif" font-size="14.00">[Int] ResultPolicy (default = 0) </text>
<polygon fill="none" stroke="black" points="502.38,-182.75 502.38,-273.25 685.12,-273.25 685.12,-182.75 502.38,-182.75"/>
</g>
<!-- 15308&#45;&gt;15311 -->
<g id="edge1" class="edge">
<title>15308&#45;&gt;15311</title>
<path fill="none" stroke="firebrick" stroke-width="2" d="M1211.16,-380.62C1064.01,-344.48 838.33,-289.06 704.45,-256.18"/>
<polygon fill="firebrick" stroke="firebrick" stroke-width="2" points="706.86,-253.17 696.32,-254.19 705.19,-259.97 706.86,-253.17"/>
</g>
<!-- 15323 -->
<g id="node3" class="node">
<title>15323</title>
<polygon fill="none" stroke="black" stroke-width="2" points="1454.12,-277.25 1255.38,-277.25 1255.38,-178.75 1454.12,-178.75 1454.12,-277.25"/>
<polygon fill="none" stroke="black" points="1264.38,-249.75 1264.38,-272.25 1445.12,-272.25 1445.12,-249.75 1264.38,-249.75"/>
<text text-anchor="start" x="1274.88" y="-256.95" font-family="Times New Roman,serif" font-weight="bold" font-size="14.00">Element_Simultaneous (7)</text>
<polygon fill="none" stroke="black" points="1264.38,-227.25 1264.38,-249.75 1445.12,-249.75 1445.12,-227.25 1264.38,-227.25"/>
<text text-anchor="start" x="1322.88" y="-234.45" font-family="Times New Roman,serif" font-weight="bold" font-size="14.00">Properties</text>
<polygon fill="none" stroke="black" points="1264.38,-205.5 1264.38,-227.25 1445.12,-227.25 1445.12,-205.5 1264.38,-205.5"/>
<text text-anchor="start" x="1273.75" y="-210.95" font-family="Times New Roman,serif" font-size="14.00">[Int] EndPolicy (default = 0) </text>
<polygon fill="none" stroke="black" points="1264.38,-183.75 1264.38,-205.5 1445.12,-205.5 1445.12,-183.75 1264.38,-183.75"/>
<text text-anchor="start" x="1267.38" y="-189.2" font-family="Times New Roman,serif" font-size="14.00">[Int] ResultPolicy (default = 0) </text>
<polygon fill="none" stroke="black" points="1263.38,-182.75 1263.38,-273.25 1446.12,-273.25 1446.12,-182.75 1263.38,-182.75"/>
</g>
<!-- 15308&#45;&gt;15323 -->
<g id="edge2" class="edge">
<title>15308&#45;&gt;15323</title>
<path fill="none" stroke="firebrick" stroke-width="2" d="M1354.75,-312.87C1354.75,-304.67 1354.75,-296.56 1354.75,-288.82"/>
<polygon fill="firebrick" stroke="firebrick" stroke-width="2" points="1358.25,-290.39 1354.75,-280.39 1351.25,-290.39 1358.25,-290.39"/>
</g>
<!-- 15335 -->
<g id="node4" class="node">
<title>15335</title>
<polygon fill="none" stroke="black" stroke-width="2" points="1955.12,-277.25 1756.38,-277.25 1756.38,-178.75 1955.12,-178.75 1955.12,-277.25"/>
<polygon fill="none" stroke="black" points="1765.38,-249.75 1765.38,-272.25 1946.12,-272.25 1946.12,-249.75 1765.38,-249.75"/>
<text text-anchor="start" x="1775.88" y="-256.95" font-family="Times New Roman,serif" font-weight="bold" font-size="14.00">Element_Simultaneous (6)</text>
<polygon fill="none" stroke="black" points="1765.38,-227.25 1765.38,-249.75 1946.12,-249.75 1946.12,-227.25 1765.38,-227.25"/>
<text text-anchor="start" x="1823.88" y="-234.45" font-family="Times New Roman,serif" font-weight="bold" font-size="14.00">Properties</text>
<polygon fill="none" stroke="black" points="1765.38,-205.5 1765.38,-227.25 1946.12,-227.25 1946.12,-205.5 1765.38,-205.5"/>
<text text-anchor="start" x="1774.75" y="-210.95" font-family="Times New Roman,serif" font-size="14.00">[Int] EndPolicy (default = 0) </text>
<polygon fill="none" stroke="black" points="1765.38,-183.75 1765.38,-205.5 1946.12,-205.5 1946.12,-183.75 1765.38,-183.75"/>
<text text-anchor="start" x="1768.38" y="-189.2" font-family="Times New Roman,serif" font-size="14.00">[Int] ResultPolicy (default = 0) </text>
<polygon fill="none" stroke="black" points="1764.38,-182.75 1764.38,-273.25 1947.12,-273.25 1947.12,-182.75 1764.38,-182.75"/>
</g>
<!-- 15308&#45;&gt;15335 -->
<g id="edge3" class="edge">
<title>15308&#45;&gt;15335</title>
<path fill="none" stroke="firebrick" stroke-width="2" d="M1498.32,-362.32C1577,-332.98 1673.01,-297.16 1745.7,-270.05"/>
<polygon fill="firebrick" stroke="firebrick" stroke-width="2" points="1745.27,-273.94 1753.42,-267.17 1742.83,-267.39 1745.27,-273.94"/>
</g>
<!-- 15314 -->
<g id="node5" class="node">
<title>15314</title>
<polygon fill="none" stroke="black" stroke-width="2" points="301.5,-142.75 0,-142.75 0,0 301.5,0 301.5,-142.75"/>
<polygon fill="none" stroke="black" points="9,-115.25 9,-137.75 292.5,-137.75 292.5,-115.25 9,-115.25"/>
<text text-anchor="start" x="65.25" y="-122.45" font-family="Times New Roman,serif" font-weight="bold" font-size="14.00">SeqOneShotOpenScreen (2)</text>
<polygon fill="none" stroke="black" points="9,-92.75 9,-115.25 292.5,-115.25 292.5,-92.75 9,-92.75"/>
<text text-anchor="start" x="118.88" y="-99.95" font-family="Times New Roman,serif" font-weight="bold" font-size="14.00">Properties</text>
<polygon fill="none" stroke="black" points="9,-71 9,-92.75 292.5,-92.75 292.5,-71 9,-71"/>
<text text-anchor="start" x="25.5" y="-76.45" font-family="Times New Roman,serif" font-size="14.00">[Bool] ExecuteEveryFrame (default = False) </text>
<polygon fill="none" stroke="black" points="9,-48.5 9,-71 292.5,-71 292.5,-48.5 9,-48.5"/>
<text text-anchor="start" x="131.62" y="-55.7" font-family="Times New Roman,serif" font-weight="bold" font-size="14.00">Inputs</text>
<polygon fill="none" stroke="black" points="9,-26.75 9,-48.5 292.5,-48.5 292.5,-26.75 9,-26.75"/>
<text text-anchor="start" x="79.12" y="-32.2" font-family="Times New Roman,serif" font-size="14.00">[Int] Option (default = 1) </text>
<polygon fill="none" stroke="black" points="9,-5 9,-26.75 292.5,-26.75 292.5,-5 9,-5"/>
<text text-anchor="start" x="12" y="-10.45" font-family="Times New Roman,serif" font-size="14.00">[String] ScreenName (default = ShortCutBG_00) </text>
<polygon fill="none" stroke="black" points="8,-4 8,-138.75 293.5,-138.75 293.5,-4 8,-4"/>
</g>
<!-- 15311&#45;&gt;15314 -->
<g id="edge4" class="edge">
<title>15311&#45;&gt;15314</title>
<path fill="none" stroke="firebrick" stroke-width="2" d="M494.2,-200.65C442.29,-186.13 377.73,-166.87 312.23,-143.21"/>
<polygon fill="firebrick" stroke="firebrick" stroke-width="2" points="315.15,-140.55 304.56,-140.41 312.75,-147.12 315.15,-140.55"/>
</g>
<!-- 15317 -->
<g id="node6" class="node">
<title>15317</title>
<polygon fill="none" stroke="black" stroke-width="2" points="554.12,-109.75 319.38,-109.75 319.38,-33 554.12,-33 554.12,-109.75"/>
<polygon fill="none" stroke="black" points="328.38,-82.25 328.38,-104.75 545.12,-104.75 545.12,-82.25 328.38,-82.25"/>
<text text-anchor="start" x="331.38" y="-89.45" font-family="Times New Roman,serif" font-weight="bold" font-size="14.00">ChangePreGamePause.module (8)</text>
<polygon fill="none" stroke="black" points="328.38,-59.75 328.38,-82.25 545.12,-82.25 545.12,-59.75 328.38,-59.75"/>
<text text-anchor="start" x="417.62" y="-66.95" font-family="Times New Roman,serif" font-weight="bold" font-size="14.00">Inputs</text>
<polygon fill="none" stroke="black" points="328.38,-38 328.38,-59.75 545.12,-59.75 545.12,-38 328.38,-38"/>
<text text-anchor="start" x="347.12" y="-43.45" font-family="Times New Roman,serif" font-size="14.00">[Bool] IsPause (default = True) </text>
<polygon fill="none" stroke="black" points="327.38,-37 327.38,-105.75 546.12,-105.75 546.12,-37 327.38,-37"/>
</g>
<!-- 15311&#45;&gt;15317 -->
<g id="edge5" class="edge">
<title>15311&#45;&gt;15317</title>
<path fill="none" stroke="firebrick" stroke-width="2" d="M544.5,-178.5C524.91,-159.2 502.48,-137.11 483.18,-118.1"/>
<polygon fill="firebrick" stroke="firebrick" stroke-width="2" points="486.85,-116.8 477.27,-112.28 481.94,-121.79 486.85,-116.8"/>
</g>
<!-- 15320 -->
<g id="node7" class="node">
<title>15320</title>
<polygon fill="none" stroke="black" stroke-width="2" points="928.88,-109.75 572.62,-109.75 572.62,-33 928.88,-33 928.88,-109.75"/>
<polygon fill="none" stroke="black" points="581.62,-82.25 581.62,-104.75 919.88,-104.75 919.88,-82.25 581.62,-82.25"/>
<text text-anchor="start" x="584.62" y="-89.45" font-family="Times New Roman,serif" font-weight="bold" font-size="14.00">SeqOneShotDRequestCaptureBeforeShortCutBG (10)</text>
<polygon fill="none" stroke="black" points="581.62,-59.75 581.62,-82.25 919.88,-82.25 919.88,-59.75 581.62,-59.75"/>
<text text-anchor="start" x="718.88" y="-66.95" font-family="Times New Roman,serif" font-weight="bold" font-size="14.00">Properties</text>
<polygon fill="none" stroke="black" points="581.62,-38 581.62,-59.75 919.88,-59.75 919.88,-38 581.62,-38"/>
<text text-anchor="start" x="625.5" y="-43.45" font-family="Times New Roman,serif" font-size="14.00">[Bool] ExecuteEveryFrame (default = False) </text>
<polygon fill="none" stroke="black" points="580.62,-37 580.62,-105.75 920.88,-105.75 920.88,-37 580.62,-37"/>
</g>
<!-- 15311&#45;&gt;15320 -->
<g id="edge6" class="edge">
<title>15311&#45;&gt;15320</title>
<path fill="none" stroke="firebrick" stroke-width="2" d="M643,-178.5C662.59,-159.2 685.02,-137.11 704.32,-118.1"/>
<polygon fill="firebrick" stroke="firebrick" stroke-width="2" points="705.56,-121.79 710.23,-112.28 700.65,-116.8 705.56,-121.79"/>
</g>
<!-- 15326 -->
<g id="node8" class="node">
<title>15326</title>
<polygon fill="none" stroke="black" stroke-width="2" points="1244.25,-109.75 947.25,-109.75 947.25,-33 1244.25,-33 1244.25,-109.75"/>
<polygon fill="none" stroke="black" points="956.25,-82.25 956.25,-104.75 1235.25,-104.75 1235.25,-82.25 956.25,-82.25"/>
<text text-anchor="start" x="959.25" y="-89.45" font-family="Times New Roman,serif" font-weight="bold" font-size="14.00">SeqOneShotRequestCaptureShortCutBG (5)</text>
<polygon fill="none" stroke="black" points="956.25,-59.75 956.25,-82.25 1235.25,-82.25 1235.25,-59.75 956.25,-59.75"/>
<text text-anchor="start" x="1063.88" y="-66.95" font-family="Times New Roman,serif" font-weight="bold" font-size="14.00">Properties</text>
<polygon fill="none" stroke="black" points="956.25,-38 956.25,-59.75 1235.25,-59.75 1235.25,-38 956.25,-38"/>
<text text-anchor="start" x="970.5" y="-43.45" font-family="Times New Roman,serif" font-size="14.00">[Bool] ExecuteEveryFrame (default = False) </text>
<polygon fill="none" stroke="black" points="955.25,-37 955.25,-105.75 1236.25,-105.75 1236.25,-37 955.25,-37"/>
</g>
<!-- 15323&#45;&gt;15326 -->
<g id="edge7" class="edge">
<title>15323&#45;&gt;15326</title>
<path fill="none" stroke="firebrick" stroke-width="2" d="M1273.16,-178.29C1239.55,-158.23 1200.94,-135.17 1168.33,-115.71"/>
<polygon fill="firebrick" stroke="firebrick" stroke-width="2" points="1171.84,-113.73 1161.46,-111.61 1168.26,-119.74 1171.84,-113.73"/>
</g>
<!-- 15329 -->
<g id="node9" class="node">
<title>15329</title>
<polygon fill="none" stroke="black" stroke-width="2" points="1447,-89.38 1262.5,-89.38 1262.5,-53.38 1447,-53.38 1447,-89.38"/>
<polygon fill="none" stroke="black" points="1271.5,-60.12 1271.5,-82.62 1438,-82.62 1438,-60.12 1271.5,-60.12"/>
<text text-anchor="start" x="1274.5" y="-67.33" font-family="Times New Roman,serif" font-weight="bold" font-size="14.00">GamePauseOn.module (1)</text>
<polygon fill="none" stroke="black" points="1270.5,-59.12 1270.5,-83.62 1439,-83.62 1439,-59.12 1270.5,-59.12"/>
</g>
<!-- 15323&#45;&gt;15329 -->
<g id="edge8" class="edge">
<title>15323&#45;&gt;15329</title>
<path fill="none" stroke="firebrick" stroke-width="2" d="M1354.75,-178.5C1354.75,-153.06 1354.75,-122.77 1354.75,-101.07"/>
<polygon fill="firebrick" stroke="firebrick" stroke-width="2" points="1358.25,-102.71 1354.75,-92.71 1351.25,-102.71 1358.25,-102.71"/>
</g>
<!-- 15332 -->
<g id="node10" class="node">
<title>15332</title>
<polygon fill="none" stroke="black" stroke-width="2" points="1700.12,-109.75 1465.38,-109.75 1465.38,-33 1700.12,-33 1700.12,-109.75"/>
<polygon fill="none" stroke="black" points="1474.38,-82.25 1474.38,-104.75 1691.12,-104.75 1691.12,-82.25 1474.38,-82.25"/>
<text text-anchor="start" x="1477.38" y="-89.45" font-family="Times New Roman,serif" font-weight="bold" font-size="14.00">ChangePreGamePause.module (9)</text>
<polygon fill="none" stroke="black" points="1474.38,-59.75 1474.38,-82.25 1691.12,-82.25 1691.12,-59.75 1474.38,-59.75"/>
<text text-anchor="start" x="1563.62" y="-66.95" font-family="Times New Roman,serif" font-weight="bold" font-size="14.00">Inputs</text>
<polygon fill="none" stroke="black" points="1474.38,-38 1474.38,-59.75 1691.12,-59.75 1691.12,-38 1474.38,-38"/>
<text text-anchor="start" x="1491.62" y="-43.45" font-family="Times New Roman,serif" font-size="14.00">[Bool] IsPause (default = False) </text>
<polygon fill="none" stroke="black" points="1473.38,-37 1473.38,-105.75 1692.12,-105.75 1692.12,-37 1473.38,-37"/>
</g>
<!-- 15323&#45;&gt;15332 -->
<g id="edge9" class="edge">
<title>15323&#45;&gt;15332</title>
<path fill="none" stroke="firebrick" stroke-width="2" d="M1426.58,-178.29C1455.78,-158.48 1489.28,-135.77 1517.74,-116.46"/>
<polygon fill="firebrick" stroke="firebrick" stroke-width="2" points="1518.37,-120.26 1524.68,-111.75 1514.44,-114.47 1518.37,-120.26"/>
</g>
<!-- 15338 -->
<g id="node11" class="node">
<title>15338</title>
<polygon fill="none" stroke="black" stroke-width="2" points="1993,-142.75 1718.5,-142.75 1718.5,0 1993,0 1993,-142.75"/>
<polygon fill="none" stroke="black" points="1727.5,-115.25 1727.5,-137.75 1984,-137.75 1984,-115.25 1727.5,-115.25"/>
<text text-anchor="start" x="1759.38" y="-122.45" font-family="Times New Roman,serif" font-weight="bold" font-size="14.00">SeqOneShotSetLayerVisible (3)</text>
<polygon fill="none" stroke="black" points="1727.5,-92.75 1727.5,-115.25 1984,-115.25 1984,-92.75 1727.5,-92.75"/>
<text text-anchor="start" x="1823.88" y="-99.95" font-family="Times New Roman,serif" font-weight="bold" font-size="14.00">Properties</text>
<polygon fill="none" stroke="black" points="1727.5,-71 1727.5,-92.75 1984,-92.75 1984,-71 1727.5,-71"/>
<text text-anchor="start" x="1730.5" y="-76.45" font-family="Times New Roman,serif" font-size="14.00">[Bool] ExecuteEveryFrame (default = False) </text>
<polygon fill="none" stroke="black" points="1727.5,-48.5 1727.5,-71 1984,-71 1984,-48.5 1727.5,-48.5"/>
<text text-anchor="start" x="1836.62" y="-55.7" font-family="Times New Roman,serif" font-weight="bold" font-size="14.00">Inputs</text>
<polygon fill="none" stroke="black" points="1727.5,-26.75 1727.5,-48.5 1984,-48.5 1984,-26.75 1727.5,-26.75"/>
<text text-anchor="start" x="1750" y="-32.2" font-family="Times New Roman,serif" font-size="14.00">[Int] LayerTag (default = 460120899) </text>
<polygon fill="none" stroke="black" points="1727.5,-5 1727.5,-26.75 1984,-26.75 1984,-5 1727.5,-5"/>
<text text-anchor="start" x="1762" y="-10.45" font-family="Times New Roman,serif" font-size="14.00">[Bool] IsVisible (default = False) </text>
<polygon fill="none" stroke="black" points="1726.5,-4 1726.5,-138.75 1985,-138.75 1985,-4 1726.5,-4"/>
</g>
<!-- 15335&#45;&gt;15338 -->
<g id="edge10" class="edge">
<title>15335&#45;&gt;15338</title>
<path fill="none" stroke="firebrick" stroke-width="2" d="M1855.75,-178.5C1855.75,-170.77 1855.75,-162.59 1855.75,-154.33"/>
<polygon fill="firebrick" stroke="firebrick" stroke-width="2" points="1859.25,-156.1 1855.75,-146.1 1852.25,-156.1 1859.25,-156.1"/>
</g>
<!-- 15341 -->
<g id="node12" class="node">
<title>15341</title>
<polygon fill="none" stroke="black" stroke-width="2" points="2286.38,-120.62 2011.12,-120.62 2011.12,-22.12 2286.38,-22.12 2286.38,-120.62"/>
<polygon fill="none" stroke="black" points="2020.12,-93.12 2020.12,-115.62 2277.38,-115.62 2277.38,-93.12 2020.12,-93.12"/>
<text text-anchor="start" x="2055.38" y="-100.33" font-family="Times New Roman,serif" font-weight="bold" font-size="14.00">Element_ModuleIF_Child (11)</text>
<polygon fill="none" stroke="black" points="2020.12,-70.62 2020.12,-93.12 2277.38,-93.12 2277.38,-70.62 2020.12,-70.62"/>
<text text-anchor="start" x="2116.88" y="-77.83" font-family="Times New Roman,serif" font-weight="bold" font-size="14.00">Properties</text>
<polygon fill="none" stroke="black" points="2020.12,-48.88 2020.12,-70.62 2277.38,-70.62 2277.38,-48.88 2020.12,-48.88"/>
<text text-anchor="start" x="2023.12" y="-54.33" font-family="Times New Roman,serif" font-size="14.00">[Bool] IsAcceptNoConnect (default = True) </text>
<polygon fill="none" stroke="black" points="2020.12,-27.12 2020.12,-48.88 2277.38,-48.88 2277.38,-27.12 2020.12,-27.12"/>
<text text-anchor="start" x="2036.62" y="-32.58" font-family="Times New Roman,serif" font-size="14.00">[String] Name (default = OnPauseStart) </text>
<polygon fill="none" stroke="black" points="2019.12,-26.12 2019.12,-116.62 2278.38,-116.62 2278.38,-26.12 2019.12,-26.12"/>
</g>
<!-- 15335&#45;&gt;15341 -->
<g id="edge11" class="edge">
<title>15335&#45;&gt;15341</title>
<path fill="none" stroke="firebrick" stroke-width="2" d="M1948.05,-178.29C1979.37,-161.76 2014.53,-143.21 2046.57,-126.3"/>
<polygon fill="firebrick" stroke="firebrick" stroke-width="2" points="2046.52,-130.28 2053.73,-122.52 2043.25,-124.09 2046.52,-130.28"/>
</g>
<!-- 15348 -->
<g id="node13" class="node">
<title>15348</title>
<ellipse fill="mediumpurple" stroke="mediumpurple" cx="1354.75" cy="-574.5" rx="31.39" ry="18"/>
<text text-anchor="start" x="1339.75" y="-570.45" font-family="Times New Roman,serif" font-weight="bold" font-size="14.00" fill="white">Root</text>
</g>
<!-- 15348&#45;&gt;15308 -->
<g id="edge12" class="edge">
<title>15348&#45;&gt;15308</title>
<path fill="none" stroke="black" d="M1354.75,-556.25C1354.75,-549.61 1354.75,-541.43 1354.75,-532.4"/>
<polygon fill="black" stroke="black" points="1358.25,-532.51 1354.75,-522.51 1351.25,-532.51 1358.25,-532.51"/>
</g>
</g>
</svg>
