<?xml version="1.0" encoding="UTF-8" standalone="no"?>
<!DOCTYPE svg PUBLIC "-//W3C//DTD SVG 1.1//EN"
 "http://www.w3.org/Graphics/SVG/1.1/DTD/svg11.dtd">
<!-- Generated by graphviz version 9.0.0 (20230911.1827)
 -->
<!-- Title: ShortCutPauseOff.module Pages: 1 -->
<svg width="856pt" height="677pt"
 viewBox="0.00 0.00 856.00 676.50" xmlns="http://www.w3.org/2000/svg" xmlns:xlink="http://www.w3.org/1999/xlink">
<g id="graph0" class="graph" transform="scale(1 1) rotate(0) translate(4 672.5)">
<title>ShortCutPauseOff.module</title>
<polygon fill="lightgray" stroke="none" points="-4,4 -4,-672.5 852,-672.5 852,4 -4,4"/>
<!-- 15285 -->
<g id="node1" class="node">
<title>15285</title>
<polygon fill="none" stroke="black" stroke-width="2" points="308,-595.5 21.5,-595.5 21.5,-388.25 308,-388.25 308,-595.5"/>
<polygon fill="none" stroke="black" points="30.5,-568 30.5,-590.5 299,-590.5 299,-568 30.5,-568"/>
<text text-anchor="start" x="93.88" y="-575.2" font-family="Times New Roman,serif" font-weight="bold" font-size="14.00">Element_Sequential (0)</text>
<polygon fill="none" stroke="black" points="30.5,-545.5 30.5,-568 299,-568 299,-545.5 30.5,-545.5"/>
<text text-anchor="start" x="132.88" y="-552.7" font-family="Times New Roman,serif" font-weight="bold" font-size="14.00">Properties</text>
<polygon fill="none" stroke="black" points="30.5,-523.75 30.5,-545.5 299,-545.5 299,-523.75 30.5,-523.75"/>
<text text-anchor="start" x="80.75" y="-529.2" font-family="Times New Roman,serif" font-size="14.00">[Int] BusyPolicy (default = 0) </text>
<polygon fill="none" stroke="black" points="30.5,-502 30.5,-523.75 299,-523.75 299,-502 30.5,-502"/>
<text text-anchor="start" x="83.75" y="-507.45" font-family="Times New Roman,serif" font-size="14.00">[Int] NumLoop (default = 0) </text>
<polygon fill="none" stroke="black" points="30.5,-480.25 30.5,-502 299,-502 299,-480.25 30.5,-480.25"/>
<text text-anchor="start" x="83" y="-485.7" font-family="Times New Roman,serif" font-size="14.00">[Int] PlayPolicy (default = 0) </text>
<polygon fill="none" stroke="black" points="30.5,-458.5 30.5,-480.25 299,-480.25 299,-458.5 30.5,-458.5"/>
<text text-anchor="start" x="77.38" y="-463.95" font-family="Times New Roman,serif" font-size="14.00">[Int] ResultPolicy (default = 0) </text>
<polygon fill="none" stroke="black" points="30.5,-436.75 30.5,-458.5 299,-458.5 299,-436.75 30.5,-436.75"/>
<text text-anchor="start" x="58.25" y="-442.2" font-family="Times New Roman,serif" font-size="14.00">[Bool] IsDelayJudge (default = False) </text>
<polygon fill="none" stroke="black" points="30.5,-415 30.5,-436.75 299,-436.75 299,-415 30.5,-415"/>
<text text-anchor="start" x="74.75" y="-420.45" font-family="Times New Roman,serif" font-size="14.00">[Bool] IsLoop (default = False) </text>
<polygon fill="none" stroke="black" points="30.5,-393.25 30.5,-415 299,-415 299,-393.25 30.5,-393.25"/>
<text text-anchor="start" x="33.5" y="-398.7" font-family="Times New Roman,serif" font-size="14.00">[Bool] IsUpdateNextInFrame (default = False) </text>
<polygon fill="none" stroke="black" points="29.5,-392.25 29.5,-591.5 300,-591.5 300,-392.25 29.5,-392.25"/>
</g>
<!-- 15288 -->
<g id="node2" class="node">
<title>15288</title>
<polygon fill="none" stroke="black" stroke-width="2" points="301.5,-303.88 0,-303.88 0,-161.12 301.5,-161.12 301.5,-303.88"/>
<polygon fill="none" stroke="black" points="9,-276.38 9,-298.88 292.5,-298.88 292.5,-276.38 9,-276.38"/>
<text text-anchor="start" x="64.5" y="-283.57" font-family="Times New Roman,serif" font-weight="bold" font-size="14.00">SeqOneShotCloseScreen (1)</text>
<polygon fill="none" stroke="black" points="9,-253.88 9,-276.38 292.5,-276.38 292.5,-253.88 9,-253.88"/>
<text text-anchor="start" x="118.88" y="-261.07" font-family="Times New Roman,serif" font-weight="bold" font-size="14.00">Properties</text>
<polygon fill="none" stroke="black" points="9,-232.12 9,-253.88 292.5,-253.88 292.5,-232.12 9,-232.12"/>
<text text-anchor="start" x="25.5" y="-237.57" font-family="Times New Roman,serif" font-size="14.00">[Bool] ExecuteEveryFrame (default = False) </text>
<polygon fill="none" stroke="black" points="9,-209.62 9,-232.12 292.5,-232.12 292.5,-209.62 9,-209.62"/>
<text text-anchor="start" x="131.62" y="-216.82" font-family="Times New Roman,serif" font-weight="bold" font-size="14.00">Inputs</text>
<polygon fill="none" stroke="black" points="9,-187.88 9,-209.62 292.5,-209.62 292.5,-187.88 9,-187.88"/>
<text text-anchor="start" x="59.25" y="-193.32" font-family="Times New Roman,serif" font-size="14.00">[Bool] IsDirect (default = False) </text>
<polygon fill="none" stroke="black" points="9,-166.12 9,-187.88 292.5,-187.88 292.5,-166.12 9,-166.12"/>
<text text-anchor="start" x="12" y="-171.57" font-family="Times New Roman,serif" font-size="14.00">[String] ScreenName (default = ShortCutBG_00) </text>
<polygon fill="none" stroke="black" points="8,-165.12 8,-299.88 293.5,-299.88 293.5,-165.12 8,-165.12"/>
</g>
<!-- 15285&#45;&gt;15288 -->
<g id="edge1" class="edge">
<title>15285&#45;&gt;15288</title>
<path fill="none" stroke="firebrick" stroke-width="2" d="M159.16,-388.04C157.85,-363.97 156.47,-338.63 155.22,-315.6"/>
<polygon fill="firebrick" stroke="firebrick" stroke-width="2" points="158.79,-316.96 154.76,-307.16 151.81,-317.34 158.79,-316.96"/>
</g>
<!-- 15291 -->
<g id="node3" class="node">
<title>15291</title>
<polygon fill="none" stroke="black" stroke-width="2" points="635.62,-336.5 319.88,-336.5 319.88,-128.5 635.62,-128.5 635.62,-336.5"/>
<polygon fill="none" stroke="black" points="328.88,-309 328.88,-331.5 626.62,-331.5 626.62,-309 328.88,-309"/>
<text text-anchor="start" x="402" y="-316.2" font-family="Times New Roman,serif" font-weight="bold" font-size="14.00">Element_S32Selector (2)</text>
<polygon fill="none" stroke="black" points="328.88,-286.5 328.88,-309 626.62,-309 626.62,-286.5 328.88,-286.5"/>
<text text-anchor="start" x="445.88" y="-293.7" font-family="Times New Roman,serif" font-weight="bold" font-size="14.00">Properties</text>
<polygon fill="none" stroke="black" points="328.88,-264.75 328.88,-286.5 626.62,-286.5 626.62,-264.75 328.88,-264.75"/>
<text text-anchor="start" x="380.62" y="-270.2" font-family="Times New Roman,serif" font-size="14.00">[Int] CalculateTiming (default = 0) </text>
<polygon fill="none" stroke="black" points="328.88,-243 328.88,-264.75 626.62,-264.75 626.62,-243 328.88,-243"/>
<text text-anchor="start" x="395.25" y="-248.45" font-family="Times New Roman,serif" font-size="14.00">[Int] InputValue (default = 0) </text>
<polygon fill="none" stroke="black" points="328.88,-221.25 328.88,-243 626.62,-243 626.62,-221.25 328.88,-221.25"/>
<text text-anchor="start" x="361.5" y="-226.7" font-family="Times New Roman,serif" font-size="14.00">[Bool] ChildFrameSync (default = False) </text>
<polygon fill="none" stroke="black" points="328.88,-199.5 328.88,-221.25 626.62,-221.25 626.62,-199.5 328.88,-199.5"/>
<text text-anchor="start" x="334.5" y="-204.95" font-family="Times New Roman,serif" font-size="14.00">[Bool] IsNoSelectIfSameInstance (default = False) </text>
<polygon fill="none" stroke="black" points="328.88,-177.75 328.88,-199.5 626.62,-199.5 626.62,-177.75 328.88,-177.75"/>
<text text-anchor="start" x="331.88" y="-183.2" font-family="Times New Roman,serif" font-size="14.00">[Bool] IsNoSelectWhenChildBusy (default = False) </text>
<polygon fill="none" stroke="black" points="328.88,-155.25 328.88,-177.75 626.62,-177.75 626.62,-155.25 328.88,-155.25"/>
<text text-anchor="start" x="458.62" y="-162.45" font-family="Times New Roman,serif" font-weight="bold" font-size="14.00">Inputs</text>
<polygon fill="none" stroke="black" points="328.88,-133.5 328.88,-155.25 626.62,-155.25 626.62,-133.5 328.88,-133.5"/>
<text text-anchor="start" x="411" y="-138.95" font-family="Times New Roman,serif" font-size="14.00">[Int] Input (default = 0) </text>
<polygon fill="none" stroke="black" points="327.88,-132.5 327.88,-332.5 627.62,-332.5 627.62,-132.5 327.88,-132.5"/>
</g>
<!-- 15285&#45;&gt;15291 -->
<g id="edge2" class="edge">
<title>15285&#45;&gt;15291</title>
<path fill="none" stroke="firebrick" stroke-width="2" d="M289.81,-388.04C307.44,-373.54 325.63,-358.59 343.43,-343.95"/>
<polygon fill="firebrick" stroke="firebrick" stroke-width="2" points="344.29,-347.78 349.79,-338.72 339.84,-342.37 344.29,-347.78"/>
</g>
<!-- 15297 -->
<g id="node4" class="node">
<title>15297</title>
<polygon fill="none" stroke="black" stroke-width="2" points="555,-76.75 280.5,-76.75 280.5,0 555,0 555,-76.75"/>
<polygon fill="none" stroke="black" points="289.5,-49.25 289.5,-71.75 546,-71.75 546,-49.25 289.5,-49.25"/>
<text text-anchor="start" x="357.38" y="-56.45" font-family="Times New Roman,serif" font-weight="bold" font-size="14.00">SeqOneShotEnd (5)</text>
<polygon fill="none" stroke="black" points="289.5,-26.75 289.5,-49.25 546,-49.25 546,-26.75 289.5,-26.75"/>
<text text-anchor="start" x="385.88" y="-33.95" font-family="Times New Roman,serif" font-weight="bold" font-size="14.00">Properties</text>
<polygon fill="none" stroke="black" points="289.5,-5 289.5,-26.75 546,-26.75 546,-5 289.5,-5"/>
<text text-anchor="start" x="292.5" y="-10.45" font-family="Times New Roman,serif" font-size="14.00">[Bool] ExecuteEveryFrame (default = False) </text>
<polygon fill="none" stroke="black" points="288.5,-4 288.5,-72.75 547,-72.75 547,-4 288.5,-4"/>
</g>
<!-- 15291&#45;&gt;15297 -->
<g id="edge3" class="edge">
<title>15291&#45;&gt;15297</title>
<path fill="none" stroke="firebrick" stroke-width="2" d="M445.47,-128.13C441.09,-114.12 436.78,-100.32 432.91,-87.93"/>
<polygon fill="firebrick" stroke="firebrick" stroke-width="2" points="436.72,-88.37 430.4,-79.87 430.04,-90.46 436.72,-88.37"/>
<text text-anchor="middle" x="442.12" y="-97.2" font-family="Times New Roman,serif" font-size="14.00" fill="firebrick">1</text>
</g>
<!-- 15291&#45;&gt;15297 -->
<g id="edge4" class="edge">
<title>15291&#45;&gt;15297</title>
<path fill="none" stroke="firebrick" stroke-width="2" d="M460.32,-128.18C457.3,-116.75 453.79,-105.4 449.75,-94.75 448.8,-92.25 447.75,-89.74 446.62,-87.23"/>
<polygon fill="firebrick" stroke="firebrick" stroke-width="2" points="450.49,-87.18 442.95,-79.73 444.2,-90.25 450.49,-87.18"/>
<text text-anchor="middle" x="457.12" y="-97.2" font-family="Times New Roman,serif" font-size="14.00" fill="firebrick">0</text>
</g>
<!-- 15291&#45;&gt;15297 -->
<g id="edge5" class="edge">
<title>15291&#45;&gt;15297</title>
<path fill="none" stroke="firebrick" stroke-width="2" d="M429.17,-128C427.24,-122.15 425.5,-116.29 424,-110.5 422.17,-103.41 420.85,-95.8 419.9,-88.29"/>
<polygon fill="firebrick" stroke="firebrick" stroke-width="2" points="423.56,-89.65 419.05,-80.06 416.6,-90.37 423.56,-89.65"/>
<text text-anchor="middle" x="427.12" y="-97.2" font-family="Times New Roman,serif" font-size="14.00" fill="firebrick">2</text>
</g>
<!-- 15300 -->
<g id="node5" class="node">
<title>15300</title>
<polygon fill="none" stroke="black" stroke-width="2" points="848,-76.75 573.5,-76.75 573.5,0 848,0 848,-76.75"/>
<polygon fill="none" stroke="black" points="582.5,-49.25 582.5,-71.75 839,-71.75 839,-49.25 582.5,-49.25"/>
<text text-anchor="start" x="650.38" y="-56.45" font-family="Times New Roman,serif" font-weight="bold" font-size="14.00">SeqOneShotEnd (4)</text>
<polygon fill="none" stroke="black" points="582.5,-26.75 582.5,-49.25 839,-49.25 839,-26.75 582.5,-26.75"/>
<text text-anchor="start" x="678.88" y="-33.95" font-family="Times New Roman,serif" font-weight="bold" font-size="14.00">Properties</text>
<polygon fill="none" stroke="black" points="582.5,-5 582.5,-26.75 839,-26.75 839,-5 582.5,-5"/>
<text text-anchor="start" x="585.5" y="-10.45" font-family="Times New Roman,serif" font-size="14.00">[Bool] ExecuteEveryFrame (default = False) </text>
<polygon fill="none" stroke="black" points="581.5,-4 581.5,-72.75 840,-72.75 840,-4 581.5,-4"/>
</g>
<!-- 15291&#45;&gt;15300 -->
<g id="edge6" class="edge">
<title>15291&#45;&gt;15300</title>
<path fill="none" stroke="firebrick" stroke-width="2" d="M608.26,-128.28C615.56,-122.3 622.76,-116.34 629.75,-110.5 639.63,-102.24 650.06,-93.27 660.02,-84.59"/>
<polygon fill="firebrick" stroke="firebrick" stroke-width="2" points="661.13,-88.26 666.35,-79.04 656.52,-83 661.13,-88.26"/>
<text text-anchor="middle" x="667.62" y="-97.2" font-family="Times New Roman,serif" font-size="14.00" fill="firebrick">Default</text>
</g>
<!-- 15300&#45;&gt;15291 -->
<g id="edge8" class="edge">
<title>15300&#45;&gt;15291</title>
<path fill="none" stroke="midnightblue" stroke-width="2" d="M595.95,-77.22C586.58,-82.41 577.61,-88.23 569.5,-94.75 560.46,-102.01 551.99,-110.4 544.12,-119.38"/>
<polygon fill="midnightblue" stroke="midnightblue" stroke-width="2" points="542.45,-115.92 538.71,-125.83 547.82,-120.42 542.45,-115.92"/>
<text text-anchor="middle" x="596.88" y="-97.2" font-family="Times New Roman,serif" font-size="14.00" fill="midnightblue">Transition</text>
</g>
<!-- 15294 -->
<g id="node6" class="node">
<title>15294</title>
<polygon fill="none" stroke="black" stroke-width="2" points="615.38,-552.38 340.12,-552.38 340.12,-431.38 615.38,-431.38 615.38,-552.38"/>
<polygon fill="none" stroke="black" points="349.12,-524.88 349.12,-547.38 606.38,-547.38 606.38,-524.88 349.12,-524.88"/>
<text text-anchor="start" x="353.25" y="-532.08" font-family="Times New Roman,serif" font-weight="bold" font-size="14.00">SeqQueryGetShortCutBGRestFrame (3)</text>
<polygon fill="none" stroke="black" points="349.12,-502.38 349.12,-524.88 606.38,-524.88 606.38,-502.38 349.12,-502.38"/>
<text text-anchor="start" x="445.88" y="-509.57" font-family="Times New Roman,serif" font-weight="bold" font-size="14.00">Properties</text>
<polygon fill="none" stroke="black" points="349.12,-480.62 349.12,-502.38 606.38,-502.38 606.38,-480.62 349.12,-480.62"/>
<text text-anchor="start" x="352.12" y="-486.07" font-family="Times New Roman,serif" font-size="14.00">[Bool] OutputOnlyOnEnter (default = False) </text>
<polygon fill="none" stroke="black" points="349.12,-458.12 349.12,-480.62 606.38,-480.62 606.38,-458.12 349.12,-458.12"/>
<text text-anchor="start" x="453.38" y="-465.32" font-family="Times New Roman,serif" font-weight="bold" font-size="14.00">Outputs</text>
<polygon fill="none" stroke="black" points="349.12,-436.38 349.12,-458.12 606.38,-458.12 606.38,-436.38 349.12,-436.38"/>
<text text-anchor="start" x="433.5" y="-441.82" font-family="Times New Roman,serif" font-size="14.00">[Int] RestFrame</text>
<polygon fill="none" stroke="black" points="348.12,-435.38 348.12,-548.38 607.38,-548.38 607.38,-435.38 348.12,-435.38"/>
</g>
<!-- 15294&#45;&gt;15291 -->
<g id="edge7" class="edge">
<title>15294:15304&#45;&gt;15291:15303</title>
<path fill="none" stroke="#008000" stroke-dasharray="5,2" d="M477.75,-434.88C477.75,-352.2 595.5,-408.78 635.62,-336.5 679.42,-257.62 699.22,-197.5 635.62,-133.5 625.14,-122.95 519,-116.96 486.9,-126.07"/>
<polygon fill="#008000" stroke="#008000" points="485.15,-123.01 478.99,-131.63 489.18,-128.74 485.15,-123.01"/>
<text text-anchor="middle" x="635.38" y="-356.95" font-family="Times New Roman,serif" font-size="14.00" fill="#008000">Input</text>
</g>
<!-- 15305 -->
<g id="node7" class="node">
<title>15305</title>
<ellipse fill="mediumpurple" stroke="mediumpurple" cx="164.75" cy="-650.5" rx="31.39" ry="18"/>
<text text-anchor="start" x="149.75" y="-646.45" font-family="Times New Roman,serif" font-weight="bold" font-size="14.00" fill="white">Root</text>
</g>
<!-- 15305&#45;&gt;15285 -->
<g id="edge9" class="edge">
<title>15305&#45;&gt;15285</title>
<path fill="none" stroke="black" d="M164.75,-632.14C164.75,-625.27 164.75,-616.76 164.75,-607.37"/>
<polygon fill="black" stroke="black" points="168.25,-607.48 164.75,-597.48 161.25,-607.48 168.25,-607.48"/>
</g>
</g>
</svg>
