<?xml version="1.0" encoding="UTF-8" standalone="no"?>
<!DOCTYPE svg PUBLIC "-//W3C//DTD SVG 1.1//EN"
 "http://www.w3.org/Graphics/SVG/1.1/DTD/svg11.dtd">
<!-- Generated by graphviz version 9.0.0 (20230911.1827)
 -->
<!-- Title: SleepResidentActor.module Pages: 1 -->
<svg width="634pt" height="400pt"
 viewBox="0.00 0.00 634.12 400.00" xmlns="http://www.w3.org/2000/svg" xmlns:xlink="http://www.w3.org/1999/xlink">
<g id="graph0" class="graph" transform="scale(1 1) rotate(0) translate(4 396)">
<title>SleepResidentActor.module</title>
<polygon fill="lightgray" stroke="none" points="-4,4 -4,-396 630.12,-396 630.12,4 -4,4"/>
<!-- 15684 -->
<g id="node1" class="node">
<title>15684</title>
<polygon fill="none" stroke="black" stroke-width="2" points="443,-320 159.5,-320 159.5,-112.75 443,-112.75 443,-320"/>
<polygon fill="none" stroke="black" points="168.5,-292.5 168.5,-315 434,-315 434,-292.5 168.5,-292.5"/>
<text text-anchor="start" x="230.38" y="-299.7" font-family="Times New Roman,serif" font-weight="bold" font-size="14.00">Element_Sequential (1)</text>
<polygon fill="none" stroke="black" points="168.5,-270 168.5,-292.5 434,-292.5 434,-270 168.5,-270"/>
<text text-anchor="start" x="269.38" y="-277.2" font-family="Times New Roman,serif" font-weight="bold" font-size="14.00">Properties</text>
<polygon fill="none" stroke="black" points="168.5,-248.25 168.5,-270 434,-270 434,-248.25 168.5,-248.25"/>
<text text-anchor="start" x="217.25" y="-253.7" font-family="Times New Roman,serif" font-size="14.00">[Int] BusyPolicy (default = 0) </text>
<polygon fill="none" stroke="black" points="168.5,-226.5 168.5,-248.25 434,-248.25 434,-226.5 168.5,-226.5"/>
<text text-anchor="start" x="220.25" y="-231.95" font-family="Times New Roman,serif" font-size="14.00">[Int] NumLoop (default = 0) </text>
<polygon fill="none" stroke="black" points="168.5,-204.75 168.5,-226.5 434,-226.5 434,-204.75 168.5,-204.75"/>
<text text-anchor="start" x="219.5" y="-210.2" font-family="Times New Roman,serif" font-size="14.00">[Int] PlayPolicy (default = 0) </text>
<polygon fill="none" stroke="black" points="168.5,-183 168.5,-204.75 434,-204.75 434,-183 168.5,-183"/>
<text text-anchor="start" x="213.88" y="-188.45" font-family="Times New Roman,serif" font-size="14.00">[Int] ResultPolicy (default = 0) </text>
<polygon fill="none" stroke="black" points="168.5,-161.25 168.5,-183 434,-183 434,-161.25 168.5,-161.25"/>
<text text-anchor="start" x="194.75" y="-166.7" font-family="Times New Roman,serif" font-size="14.00">[Bool] IsDelayJudge (default = False) </text>
<polygon fill="none" stroke="black" points="168.5,-139.5 168.5,-161.25 434,-161.25 434,-139.5 168.5,-139.5"/>
<text text-anchor="start" x="211.25" y="-144.95" font-family="Times New Roman,serif" font-size="14.00">[Bool] IsLoop (default = False) </text>
<polygon fill="none" stroke="black" points="168.5,-117.75 168.5,-139.5 434,-139.5 434,-117.75 168.5,-117.75"/>
<text text-anchor="start" x="171.5" y="-123.2" font-family="Times New Roman,serif" font-size="14.00">[Bool] IsUpdateNextInFrame (default = True) </text>
<polygon fill="none" stroke="black" points="167.5,-116.75 167.5,-316 435,-316 435,-116.75 167.5,-116.75"/>
</g>
<!-- 15687 -->
<g id="node2" class="node">
<title>15687</title>
<polygon fill="none" stroke="black" stroke-width="2" points="280.5,-76.75 0,-76.75 0,0 280.5,0 280.5,-76.75"/>
<polygon fill="none" stroke="black" points="9,-49.25 9,-71.75 271.5,-71.75 271.5,-49.25 9,-49.25"/>
<text text-anchor="start" x="12" y="-56.45" font-family="Times New Roman,serif" font-weight="bold" font-size="14.00">SeqOneShotShooterResetShootableAll (2)</text>
<polygon fill="none" stroke="black" points="9,-26.75 9,-49.25 271.5,-49.25 271.5,-26.75 9,-26.75"/>
<text text-anchor="start" x="108.38" y="-33.95" font-family="Times New Roman,serif" font-weight="bold" font-size="14.00">Properties</text>
<polygon fill="none" stroke="black" points="9,-5 9,-26.75 271.5,-26.75 271.5,-5 9,-5"/>
<text text-anchor="start" x="15" y="-10.45" font-family="Times New Roman,serif" font-size="14.00">[Bool] ExecuteEveryFrame (default = False) </text>
<polygon fill="none" stroke="black" points="8,-4 8,-72.75 272.5,-72.75 272.5,-4 8,-4"/>
</g>
<!-- 15684&#45;&gt;15687 -->
<g id="edge1" class="edge">
<title>15684&#45;&gt;15687</title>
<path fill="none" stroke="firebrick" stroke-width="2" d="M207.13,-112.49C198.46,-103.01 190.01,-93.77 182.19,-85.22"/>
<polygon fill="firebrick" stroke="firebrick" stroke-width="2" points="185.97,-84.17 176.64,-79.16 180.81,-88.9 185.97,-84.17"/>
</g>
<!-- 15690 -->
<g id="node3" class="node">
<title>15690</title>
<polygon fill="none" stroke="black" stroke-width="2" points="626.12,-56.38 298.38,-56.38 298.38,-20.38 626.12,-20.38 626.12,-56.38"/>
<polygon fill="none" stroke="black" points="307.38,-27.12 307.38,-49.62 617.12,-49.62 617.12,-27.12 307.38,-27.12"/>
<text text-anchor="start" x="310.38" y="-34.33" font-family="Times New Roman,serif" font-weight="bold" font-size="14.00">SeqExecuteSceneRequestSleepResidentActors (0)</text>
<polygon fill="none" stroke="black" points="306.38,-26.12 306.38,-50.62 618.12,-50.62 618.12,-26.12 306.38,-26.12"/>
</g>
<!-- 15684&#45;&gt;15690 -->
<g id="edge2" class="edge">
<title>15684&#45;&gt;15690</title>
<path fill="none" stroke="firebrick" stroke-width="2" d="M395.37,-112.49C411.47,-94.88 426.83,-78.1 438.75,-65.06"/>
<polygon fill="firebrick" stroke="firebrick" stroke-width="2" points="440.22,-68.65 444.38,-58.91 435.05,-63.92 440.22,-68.65"/>
</g>
<!-- 15691 -->
<g id="node4" class="node">
<title>15691</title>
<ellipse fill="mediumpurple" stroke="mediumpurple" cx="301.25" cy="-374" rx="31.39" ry="18"/>
<text text-anchor="start" x="286.25" y="-369.95" font-family="Times New Roman,serif" font-weight="bold" font-size="14.00" fill="white">Root</text>
</g>
<!-- 15691&#45;&gt;15684 -->
<g id="edge3" class="edge">
<title>15691&#45;&gt;15684</title>
<path fill="none" stroke="black" d="M301.25,-355.75C301.25,-349.11 301.25,-340.93 301.25,-331.9"/>
<polygon fill="black" stroke="black" points="304.75,-332.01 301.25,-322.01 297.75,-332.01 304.75,-332.01"/>
</g>
</g>
</svg>
