<?xml version="1.0" encoding="UTF-8" standalone="no"?>
<!DOCTYPE svg PUBLIC "-//W3C//DTD SVG 1.1//EN"
 "http://www.w3.org/Graphics/SVG/1.1/DTD/svg11.dtd">
<!-- Generated by graphviz version 9.0.0 (20230911.1827)
 -->
<!-- Title: Title.module Pages: 1 -->
<svg width="740pt" height="677pt"
 viewBox="0.00 0.00 739.62 677.25" xmlns="http://www.w3.org/2000/svg" xmlns:xlink="http://www.w3.org/1999/xlink">
<g id="graph0" class="graph" transform="scale(1 1) rotate(0) translate(4 673.25)">
<title>Title.module</title>
<polygon fill="lightgray" stroke="none" points="-4,4 -4,-673.25 735.62,-673.25 735.62,4 -4,4"/>
<!-- 15835 -->
<g id="node1" class="node">
<title>15835</title>
<polygon fill="none" stroke="black" stroke-width="2" points="486.75,-596.25 171,-596.25 171,-410 486.75,-410 486.75,-596.25"/>
<polygon fill="none" stroke="black" points="180,-568.75 180,-591.25 477.75,-591.25 477.75,-568.75 180,-568.75"/>
<text text-anchor="start" x="250.5" y="-575.95" font-family="Times New Roman,serif" font-weight="bold" font-size="14.00">Element_BoolSelector (1)</text>
<polygon fill="none" stroke="black" points="180,-546.25 180,-568.75 477.75,-568.75 477.75,-546.25 180,-546.25"/>
<text text-anchor="start" x="297" y="-553.45" font-family="Times New Roman,serif" font-weight="bold" font-size="14.00">Properties</text>
<polygon fill="none" stroke="black" points="180,-524.5 180,-546.25 477.75,-546.25 477.75,-524.5 180,-524.5"/>
<text text-anchor="start" x="231.75" y="-529.95" font-family="Times New Roman,serif" font-size="14.00">[Int] CalculateTiming (default = 0) </text>
<polygon fill="none" stroke="black" points="180,-502.75 180,-524.5 477.75,-524.5 477.75,-502.75 180,-502.75"/>
<text text-anchor="start" x="212.62" y="-508.2" font-family="Times New Roman,serif" font-size="14.00">[Bool] ChildFrameSync (default = False) </text>
<polygon fill="none" stroke="black" points="180,-481 180,-502.75 477.75,-502.75 477.75,-481 180,-481"/>
<text text-anchor="start" x="230.62" y="-486.45" font-family="Times New Roman,serif" font-size="14.00">[Bool] InputValue (default = True) </text>
<polygon fill="none" stroke="black" points="180,-459.25 180,-481 477.75,-481 477.75,-459.25 180,-459.25"/>
<text text-anchor="start" x="183" y="-464.7" font-family="Times New Roman,serif" font-size="14.00">[Bool] IsNoSelectWhenChildBusy (default = False) </text>
<polygon fill="none" stroke="black" points="180,-436.75 180,-459.25 477.75,-459.25 477.75,-436.75 180,-436.75"/>
<text text-anchor="start" x="309.75" y="-443.95" font-family="Times New Roman,serif" font-weight="bold" font-size="14.00">Inputs</text>
<polygon fill="none" stroke="black" points="180,-415 180,-436.75 477.75,-436.75 477.75,-415 180,-415"/>
<text text-anchor="start" x="246.38" y="-420.45" font-family="Times New Roman,serif" font-size="14.00">[Bool] Input (default = True) </text>
<polygon fill="none" stroke="black" points="179,-414 179,-592.25 478.75,-592.25 478.75,-414 179,-414"/>
</g>
<!-- 15838 -->
<g id="node2" class="node">
<title>15838</title>
<polygon fill="none" stroke="black" stroke-width="2" points="280.12,-325.62 5.62,-325.62 5.62,-248.88 280.12,-248.88 280.12,-325.62"/>
<polygon fill="none" stroke="black" points="14.62,-298.12 14.62,-320.62 271.12,-320.62 271.12,-298.12 14.62,-298.12"/>
<text text-anchor="start" x="82.5" y="-305.32" font-family="Times New Roman,serif" font-weight="bold" font-size="14.00">SeqOneShotEnd (4)</text>
<polygon fill="none" stroke="black" points="14.62,-275.62 14.62,-298.12 271.12,-298.12 271.12,-275.62 14.62,-275.62"/>
<text text-anchor="start" x="111" y="-282.82" font-family="Times New Roman,serif" font-weight="bold" font-size="14.00">Properties</text>
<polygon fill="none" stroke="black" points="14.62,-253.88 14.62,-275.62 271.12,-275.62 271.12,-253.88 14.62,-253.88"/>
<text text-anchor="start" x="17.62" y="-259.32" font-family="Times New Roman,serif" font-size="14.00">[Bool] ExecuteEveryFrame (default = False) </text>
<polygon fill="none" stroke="black" points="13.62,-252.88 13.62,-321.62 272.12,-321.62 272.12,-252.88 13.62,-252.88"/>
</g>
<!-- 15835&#45;&gt;15838 -->
<g id="edge1" class="edge">
<title>15835&#45;&gt;15838</title>
<path fill="none" stroke="firebrick" stroke-width="2" d="M248.37,-409.56C225.75,-383.55 202.12,-356.38 182.98,-334.36"/>
<polygon fill="firebrick" stroke="firebrick" stroke-width="2" points="186.79,-333.42 177.59,-328.17 181.51,-338.01 186.79,-333.42"/>
<text text-anchor="middle" x="244" y="-378.7" font-family="Times New Roman,serif" font-size="14.00" fill="firebrick">True</text>
</g>
<!-- 15847 -->
<g id="node3" class="node">
<title>15847</title>
<polygon fill="none" stroke="black" stroke-width="2" points="731.62,-358.25 298.12,-358.25 298.12,-216.25 731.62,-216.25 731.62,-358.25"/>
<polygon fill="none" stroke="black" points="307.12,-330.75 307.12,-353.25 722.62,-353.25 722.62,-330.75 307.12,-330.75"/>
<text text-anchor="start" x="363.75" y="-337.95" font-family="Times New Roman,serif" font-weight="bold" font-size="14.00">SeqExecuteDebugExecutePrintPropertyString (2)</text>
<polygon fill="none" stroke="black" points="307.12,-308.25 307.12,-330.75 722.62,-330.75 722.62,-308.25 307.12,-308.25"/>
<text text-anchor="start" x="483" y="-315.45" font-family="Times New Roman,serif" font-weight="bold" font-size="14.00">Properties</text>
<polygon fill="none" stroke="black" points="307.12,-286.5 307.12,-308.25 722.62,-308.25 722.62,-286.5 307.12,-286.5"/>
<text text-anchor="start" x="396" y="-291.95" font-family="Times New Roman,serif" font-size="14.00">[Bool] IsPrintWhenEnter (default = False) </text>
<polygon fill="none" stroke="black" points="307.12,-264.75 307.12,-286.5 722.62,-286.5 722.62,-264.75 307.12,-264.75"/>
<text text-anchor="start" x="394.12" y="-270.2" font-family="Times New Roman,serif" font-size="14.00">[Bool] IsPrintWhenLeave (default = False) </text>
<polygon fill="none" stroke="black" points="307.12,-243 307.12,-264.75 722.62,-264.75 722.62,-243 307.12,-243"/>
<text text-anchor="start" x="391.88" y="-248.45" font-family="Times New Roman,serif" font-size="14.00">[Bool] IsPrintWhenUpdate (default = True) </text>
<polygon fill="none" stroke="black" points="307.12,-221.25 307.12,-243 722.62,-243 722.62,-221.25 307.12,-221.25"/>
<text text-anchor="start" x="310.12" y="-226.7" font-family="Times New Roman,serif" font-size="14.00">[String] DebugPrintString (default = SequenceError:UndefinedTitleType) </text>
<polygon fill="none" stroke="black" points="306.12,-220.25 306.12,-354.25 723.62,-354.25 723.62,-220.25 306.12,-220.25"/>
</g>
<!-- 15835&#45;&gt;15847 -->
<g id="edge2" class="edge">
<title>15835&#45;&gt;15847</title>
<path fill="none" stroke="firebrick" stroke-width="2" d="M409.38,-409.56C421.65,-395.44 434.23,-380.99 446.22,-367.2"/>
<polygon fill="firebrick" stroke="firebrick" stroke-width="2" points="447.69,-370.83 451.62,-360.99 442.41,-366.24 447.69,-370.83"/>
<text text-anchor="middle" x="447.5" y="-378.7" font-family="Times New Roman,serif" font-size="14.00" fill="firebrick">False</text>
</g>
<!-- 15841 -->
<g id="node4" class="node">
<title>15841</title>
<polygon fill="none" stroke="black" stroke-width="2" points="226.5,-164.5 59.25,-164.5 59.25,-128.5 226.5,-128.5 226.5,-164.5"/>
<polygon fill="none" stroke="black" points="68.25,-135.25 68.25,-157.75 217.5,-157.75 217.5,-135.25 68.25,-135.25"/>
<text text-anchor="start" x="71.25" y="-142.45" font-family="Times New Roman,serif" font-weight="bold" font-size="14.00">NormalTitle.module (0)</text>
<polygon fill="none" stroke="black" points="67.25,-134.25 67.25,-158.75 218.5,-158.75 218.5,-134.25 67.25,-134.25"/>
</g>
<!-- 15838&#45;&gt;15841 -->
<g id="edge3" class="edge">
<title>15838&#45;&gt;15841</title>
<path fill="none" stroke="midnightblue" stroke-width="2" d="M142.88,-248.7C142.88,-225.89 142.88,-197.22 142.88,-176.22"/>
<polygon fill="midnightblue" stroke="midnightblue" stroke-width="2" points="146.38,-177.88 142.88,-167.88 139.38,-177.88 146.38,-177.88"/>
<text text-anchor="middle" x="171" y="-184.95" font-family="Times New Roman,serif" font-size="14.00" fill="midnightblue">Transition</text>
</g>
<!-- 15844 -->
<g id="node5" class="node">
<title>15844</title>
<polygon fill="none" stroke="black" stroke-width="2" points="285.75,-76.75 0,-76.75 0,0 285.75,0 285.75,-76.75"/>
<polygon fill="none" stroke="black" points="9,-49.25 9,-71.75 276.75,-71.75 276.75,-49.25 9,-49.25"/>
<text text-anchor="start" x="75.75" y="-56.45" font-family="Times New Roman,serif" font-weight="bold" font-size="14.00">Element_StateEnd (3)</text>
<polygon fill="none" stroke="black" points="9,-26.75 9,-49.25 276.75,-49.25 276.75,-26.75 9,-26.75"/>
<text text-anchor="start" x="111" y="-33.95" font-family="Times New Roman,serif" font-weight="bold" font-size="14.00">Properties</text>
<polygon fill="none" stroke="black" points="9,-5 9,-26.75 276.75,-26.75 276.75,-5 9,-5"/>
<text text-anchor="start" x="12" y="-10.45" font-family="Times New Roman,serif" font-size="14.00">[String] TransitionCommand (default = Event) </text>
<polygon fill="none" stroke="black" points="8,-4 8,-72.75 277.75,-72.75 277.75,-4 8,-4"/>
</g>
<!-- 15841&#45;&gt;15844 -->
<g id="edge4" class="edge">
<title>15841&#45;&gt;15844</title>
<path fill="none" stroke="midnightblue" stroke-width="2" d="M142.88,-128.45C142.88,-117.54 142.88,-102.78 142.88,-88.42"/>
<polygon fill="midnightblue" stroke="midnightblue" stroke-width="2" points="146.38,-90.09 142.88,-80.09 139.38,-90.09 146.38,-90.09"/>
<text text-anchor="middle" x="158.62" y="-97.2" font-family="Times New Roman,serif" font-size="14.00" fill="midnightblue">Event</text>
</g>
<!-- 15849 -->
<g id="node6" class="node">
<title>15849</title>
<ellipse fill="mediumpurple" stroke="mediumpurple" cx="328.88" cy="-651.25" rx="31.39" ry="18"/>
<text text-anchor="start" x="313.88" y="-647.2" font-family="Times New Roman,serif" font-weight="bold" font-size="14.00" fill="white">Root</text>
</g>
<!-- 15849&#45;&gt;15835 -->
<g id="edge5" class="edge">
<title>15849&#45;&gt;15835</title>
<path fill="none" stroke="black" d="M328.88,-632.91C328.88,-625.96 328.88,-617.34 328.88,-607.89"/>
<polygon fill="black" stroke="black" points="332.38,-607.97 328.88,-597.97 325.38,-607.97 332.38,-607.97"/>
</g>
</g>
</svg>
