<?xml version="1.0" encoding="UTF-8" standalone="no"?>
<!DOCTYPE svg PUBLIC "-//W3C//DTD SVG 1.1//EN"
 "http://www.w3.org/Graphics/SVG/1.1/DTD/svg11.dtd">
<!-- Generated by graphviz version 9.0.0 (20230911.1827)
 -->
<!-- Title: TransferPrequelSaveData.module Pages: 1 -->
<svg width="1927pt" height="640pt"
 viewBox="0.00 0.00 1926.88 640.00" xmlns="http://www.w3.org/2000/svg" xmlns:xlink="http://www.w3.org/1999/xlink">
<g id="graph0" class="graph" transform="scale(1 1) rotate(0) translate(4 636)">
<title>TransferPrequelSaveData.module</title>
<polygon fill="lightgray" stroke="none" points="-4,4 -4,-636 1922.88,-636 1922.88,4 -4,4"/>
<!-- 15949 -->
<g id="node1" class="node">
<title>15949</title>
<polygon fill="none" stroke="black" stroke-width="2" points="1176,-559 889.5,-559 889.5,-351.75 1176,-351.75 1176,-559"/>
<polygon fill="none" stroke="black" points="898.5,-531.5 898.5,-554 1167,-554 1167,-531.5 898.5,-531.5"/>
<text text-anchor="start" x="961.88" y="-538.7" font-family="Times New Roman,serif" font-weight="bold" font-size="14.00">Element_Sequential (3)</text>
<polygon fill="none" stroke="black" points="898.5,-509 898.5,-531.5 1167,-531.5 1167,-509 898.5,-509"/>
<text text-anchor="start" x="1000.88" y="-516.2" font-family="Times New Roman,serif" font-weight="bold" font-size="14.00">Properties</text>
<polygon fill="none" stroke="black" points="898.5,-487.25 898.5,-509 1167,-509 1167,-487.25 898.5,-487.25"/>
<text text-anchor="start" x="948.75" y="-492.7" font-family="Times New Roman,serif" font-size="14.00">[Int] BusyPolicy (default = 0) </text>
<polygon fill="none" stroke="black" points="898.5,-465.5 898.5,-487.25 1167,-487.25 1167,-465.5 898.5,-465.5"/>
<text text-anchor="start" x="951.75" y="-470.95" font-family="Times New Roman,serif" font-size="14.00">[Int] NumLoop (default = 0) </text>
<polygon fill="none" stroke="black" points="898.5,-443.75 898.5,-465.5 1167,-465.5 1167,-443.75 898.5,-443.75"/>
<text text-anchor="start" x="951" y="-449.2" font-family="Times New Roman,serif" font-size="14.00">[Int] PlayPolicy (default = 0) </text>
<polygon fill="none" stroke="black" points="898.5,-422 898.5,-443.75 1167,-443.75 1167,-422 898.5,-422"/>
<text text-anchor="start" x="945.38" y="-427.45" font-family="Times New Roman,serif" font-size="14.00">[Int] ResultPolicy (default = 0) </text>
<polygon fill="none" stroke="black" points="898.5,-400.25 898.5,-422 1167,-422 1167,-400.25 898.5,-400.25"/>
<text text-anchor="start" x="926.25" y="-405.7" font-family="Times New Roman,serif" font-size="14.00">[Bool] IsDelayJudge (default = False) </text>
<polygon fill="none" stroke="black" points="898.5,-378.5 898.5,-400.25 1167,-400.25 1167,-378.5 898.5,-378.5"/>
<text text-anchor="start" x="942.75" y="-383.95" font-family="Times New Roman,serif" font-size="14.00">[Bool] IsLoop (default = False) </text>
<polygon fill="none" stroke="black" points="898.5,-356.75 898.5,-378.5 1167,-378.5 1167,-356.75 898.5,-356.75"/>
<text text-anchor="start" x="901.5" y="-362.2" font-family="Times New Roman,serif" font-size="14.00">[Bool] IsUpdateNextInFrame (default = False) </text>
<polygon fill="none" stroke="black" points="897.5,-355.75 897.5,-555 1168,-555 1168,-355.75 897.5,-355.75"/>
</g>
<!-- 15952 -->
<g id="node2" class="node">
<title>15952</title>
<polygon fill="none" stroke="black" stroke-width="2" points="840.12,-314.75 641.38,-314.75 641.38,-216.25 840.12,-216.25 840.12,-314.75"/>
<polygon fill="none" stroke="black" points="650.38,-287.25 650.38,-309.75 831.12,-309.75 831.12,-287.25 650.38,-287.25"/>
<text text-anchor="start" x="660.88" y="-294.45" font-family="Times New Roman,serif" font-weight="bold" font-size="14.00">Element_Simultaneous (2)</text>
<polygon fill="none" stroke="black" points="650.38,-264.75 650.38,-287.25 831.12,-287.25 831.12,-264.75 650.38,-264.75"/>
<text text-anchor="start" x="708.88" y="-271.95" font-family="Times New Roman,serif" font-weight="bold" font-size="14.00">Properties</text>
<polygon fill="none" stroke="black" points="650.38,-243 650.38,-264.75 831.12,-264.75 831.12,-243 650.38,-243"/>
<text text-anchor="start" x="659.75" y="-248.45" font-family="Times New Roman,serif" font-size="14.00">[Int] EndPolicy (default = 0) </text>
<polygon fill="none" stroke="black" points="650.38,-221.25 650.38,-243 831.12,-243 831.12,-221.25 650.38,-221.25"/>
<text text-anchor="start" x="653.38" y="-226.7" font-family="Times New Roman,serif" font-size="14.00">[Int] ResultPolicy (default = 0) </text>
<polygon fill="none" stroke="black" points="649.38,-220.25 649.38,-310.75 832.12,-310.75 832.12,-220.25 649.38,-220.25"/>
</g>
<!-- 15949&#45;&gt;15952 -->
<g id="edge1" class="edge">
<title>15949&#45;&gt;15952</title>
<path fill="none" stroke="firebrick" stroke-width="2" d="M889.32,-362.09C867.63,-348.13 845.86,-334.13 825.93,-321.31"/>
<polygon fill="firebrick" stroke="firebrick" stroke-width="2" points="829.16,-319.22 818.85,-316.75 825.37,-325.11 829.16,-319.22"/>
</g>
<!-- 15964 -->
<g id="node3" class="node">
<title>15964</title>
<polygon fill="none" stroke="black" stroke-width="2" points="1491.38,-283.5 1288.12,-283.5 1288.12,-247.5 1491.38,-247.5 1491.38,-283.5"/>
<polygon fill="none" stroke="black" points="1297.12,-254.25 1297.12,-276.75 1482.38,-276.75 1482.38,-254.25 1297.12,-254.25"/>
<text text-anchor="start" x="1300.12" y="-261.45" font-family="Times New Roman,serif" font-weight="bold" font-size="14.00">LowPrioSequence.module (4)</text>
<polygon fill="none" stroke="black" points="1296.12,-253.25 1296.12,-277.75 1483.38,-277.75 1483.38,-253.25 1296.12,-253.25"/>
</g>
<!-- 15949&#45;&gt;15964 -->
<g id="edge2" class="edge">
<title>15949&#45;&gt;15964</title>
<path fill="none" stroke="firebrick" stroke-width="2" d="M1176.41,-378.77C1237.63,-346.56 1304.53,-311.35 1346.79,-289.11"/>
<polygon fill="firebrick" stroke="firebrick" stroke-width="2" points="1346.83,-293.04 1354.05,-285.29 1343.57,-286.85 1346.83,-293.04"/>
</g>
<!-- 15955 -->
<g id="node4" class="node">
<title>15955</title>
<polygon fill="none" stroke="black" stroke-width="2" points="361.5,-164.5 0,-164.5 0,0 361.5,0 361.5,-164.5"/>
<polygon fill="none" stroke="black" points="9,-137 9,-159.5 352.5,-159.5 352.5,-137 9,-137"/>
<text text-anchor="start" x="43.88" y="-144.2" font-family="Times New Roman,serif" font-weight="bold" font-size="14.00">SeqOneShotSetNonStructGameDataBool (0)</text>
<polygon fill="none" stroke="black" points="9,-114.5 9,-137 352.5,-137 352.5,-114.5 9,-114.5"/>
<text text-anchor="start" x="148.88" y="-121.7" font-family="Times New Roman,serif" font-weight="bold" font-size="14.00">Properties</text>
<polygon fill="none" stroke="black" points="9,-92.75 9,-114.5 352.5,-114.5 352.5,-92.75 9,-92.75"/>
<text text-anchor="start" x="55.5" y="-98.2" font-family="Times New Roman,serif" font-size="14.00">[Bool] ExecuteEveryFrame (default = False) </text>
<polygon fill="none" stroke="black" points="9,-70.25 9,-92.75 352.5,-92.75 352.5,-70.25 9,-70.25"/>
<text text-anchor="start" x="161.62" y="-77.45" font-family="Times New Roman,serif" font-weight="bold" font-size="14.00">Inputs</text>
<polygon fill="none" stroke="black" points="9,-48.5 9,-70.25 352.5,-70.25 352.5,-48.5 9,-48.5"/>
<text text-anchor="start" x="81.38" y="-53.95" font-family="Times New Roman,serif" font-size="14.00">[Int] GameDataIndex (default = &#45;1) </text>
<polygon fill="none" stroke="black" points="9,-26.75 9,-48.5 352.5,-48.5 352.5,-26.75 9,-26.75"/>
<text text-anchor="start" x="97.12" y="-32.2" font-family="Times New Roman,serif" font-size="14.00">[Bool] Value (default = True) </text>
<polygon fill="none" stroke="black" points="9,-5 9,-26.75 352.5,-26.75 352.5,-5 9,-5"/>
<text text-anchor="start" x="12" y="-10.45" font-family="Times New Roman,serif" font-size="14.00">[String] GameDataFullName (default = IsExistImportHorse) </text>
<polygon fill="none" stroke="black" points="8,-4 8,-160.5 353.5,-160.5 353.5,-4 8,-4"/>
</g>
<!-- 15952&#45;&gt;15955 -->
<g id="edge3" class="edge">
<title>15952&#45;&gt;15955</title>
<path fill="none" stroke="firebrick" stroke-width="2" d="M641.06,-241.58C568.64,-224 468.36,-197.73 372.55,-165.04"/>
<polygon fill="firebrick" stroke="firebrick" stroke-width="2" points="375.26,-162.27 364.66,-162.33 372.98,-168.89 375.26,-162.27"/>
</g>
<!-- 15958 -->
<g id="node5" class="node">
<title>15958</title>
<polygon fill="none" stroke="black" stroke-width="2" points="747.5,-164.5 380,-164.5 380,0 747.5,0 747.5,-164.5"/>
<polygon fill="none" stroke="black" points="389,-137 389,-159.5 738.5,-159.5 738.5,-137 389,-137"/>
<text text-anchor="start" x="426.88" y="-144.2" font-family="Times New Roman,serif" font-weight="bold" font-size="14.00">SeqOneShotSetNonStructGameDataBool (1)</text>
<polygon fill="none" stroke="black" points="389,-114.5 389,-137 738.5,-137 738.5,-114.5 389,-114.5"/>
<text text-anchor="start" x="531.88" y="-121.7" font-family="Times New Roman,serif" font-weight="bold" font-size="14.00">Properties</text>
<polygon fill="none" stroke="black" points="389,-92.75 389,-114.5 738.5,-114.5 738.5,-92.75 389,-92.75"/>
<text text-anchor="start" x="438.5" y="-98.2" font-family="Times New Roman,serif" font-size="14.00">[Bool] ExecuteEveryFrame (default = False) </text>
<polygon fill="none" stroke="black" points="389,-70.25 389,-92.75 738.5,-92.75 738.5,-70.25 389,-70.25"/>
<text text-anchor="start" x="544.62" y="-77.45" font-family="Times New Roman,serif" font-weight="bold" font-size="14.00">Inputs</text>
<polygon fill="none" stroke="black" points="389,-48.5 389,-70.25 738.5,-70.25 738.5,-48.5 389,-48.5"/>
<text text-anchor="start" x="464.38" y="-53.95" font-family="Times New Roman,serif" font-size="14.00">[Int] GameDataIndex (default = &#45;1) </text>
<polygon fill="none" stroke="black" points="389,-26.75 389,-48.5 738.5,-48.5 738.5,-26.75 389,-26.75"/>
<text text-anchor="start" x="478.62" y="-32.2" font-family="Times New Roman,serif" font-size="14.00">[Bool] Value (default = False) </text>
<polygon fill="none" stroke="black" points="389,-5 389,-26.75 738.5,-26.75 738.5,-5 389,-5"/>
<text text-anchor="start" x="392" y="-10.45" font-family="Times New Roman,serif" font-size="14.00">[String] GameDataFullName (default = IsFinishImportHorse) </text>
<polygon fill="none" stroke="black" points="388,-4 388,-160.5 739.5,-160.5 739.5,-4 388,-4"/>
</g>
<!-- 15952&#45;&gt;15958 -->
<g id="edge4" class="edge">
<title>15952&#45;&gt;15958</title>
<path fill="none" stroke="firebrick" stroke-width="2" d="M693.32,-215.93C680.36,-202.66 665.89,-187.84 651.45,-173.05"/>
<polygon fill="firebrick" stroke="firebrick" stroke-width="2" points="655.04,-171.72 645.55,-167.01 650.03,-176.61 655.04,-171.72"/>
</g>
<!-- 15961 -->
<g id="node6" class="node">
<title>15961</title>
<polygon fill="none" stroke="black" stroke-width="2" points="1070.38,-120.62 765.12,-120.62 765.12,-43.88 1070.38,-43.88 1070.38,-120.62"/>
<polygon fill="none" stroke="black" points="774.12,-93.12 774.12,-115.62 1061.38,-115.62 1061.38,-93.12 774.12,-93.12"/>
<text text-anchor="start" x="777.12" y="-100.33" font-family="Times New Roman,serif" font-weight="bold" font-size="14.00">SeqOneShotSetHeroPictureFlagOfPrequel (6)</text>
<polygon fill="none" stroke="black" points="774.12,-70.62 774.12,-93.12 1061.38,-93.12 1061.38,-70.62 774.12,-70.62"/>
<text text-anchor="start" x="885.88" y="-77.83" font-family="Times New Roman,serif" font-weight="bold" font-size="14.00">Properties</text>
<polygon fill="none" stroke="black" points="774.12,-48.88 774.12,-70.62 1061.38,-70.62 1061.38,-48.88 774.12,-48.88"/>
<text text-anchor="start" x="792.5" y="-54.33" font-family="Times New Roman,serif" font-size="14.00">[Bool] ExecuteEveryFrame (default = False) </text>
<polygon fill="none" stroke="black" points="773.12,-47.88 773.12,-116.62 1062.38,-116.62 1062.38,-47.88 773.12,-47.88"/>
</g>
<!-- 15952&#45;&gt;15961 -->
<g id="edge5" class="edge">
<title>15952&#45;&gt;15961</title>
<path fill="none" stroke="firebrick" stroke-width="2" d="M788.18,-215.93C814.54,-188.94 847.14,-155.56 873.04,-129.03"/>
<polygon fill="firebrick" stroke="firebrick" stroke-width="2" points="874.26,-132.8 878.74,-123.2 869.25,-127.91 874.26,-132.8"/>
</g>
<!-- 15967 -->
<g id="node7" class="node">
<title>15967</title>
<polygon fill="none" stroke="black" stroke-width="2" points="1918.88,-120.62 1088.62,-120.62 1088.62,-43.88 1918.88,-43.88 1918.88,-120.62"/>
<polygon fill="none" stroke="black" points="1097.62,-93.12 1097.62,-115.62 1909.88,-115.62 1909.88,-93.12 1097.62,-93.12"/>
<text text-anchor="start" x="1377.75" y="-100.33" font-family="Times New Roman,serif" font-weight="bold" font-size="14.00">SeqExecuteTransferPrequelSaveData (5)</text>
<polygon fill="none" stroke="black" points="1097.62,-70.62 1097.62,-93.12 1909.88,-93.12 1909.88,-70.62 1097.62,-70.62"/>
<text text-anchor="start" x="1484.62" y="-77.83" font-family="Times New Roman,serif" font-weight="bold" font-size="14.00">Inputs</text>
<polygon fill="none" stroke="black" points="1097.62,-48.88 1097.62,-70.62 1909.88,-70.62 1909.88,-48.88 1097.62,-48.88"/>
<text text-anchor="start" x="1100.62" y="-54.33" font-family="Times New Roman,serif" font-size="14.00">[String] HorseDataBasePath (default = Work/PrequelSaveData/HorseDataBase/HorseDataBase.game__prequelsavedata__HorseDataBase.gyml) </text>
<polygon fill="none" stroke="black" points="1096.62,-47.88 1096.62,-116.62 1910.88,-116.62 1910.88,-47.88 1096.62,-47.88"/>
</g>
<!-- 15964&#45;&gt;15967 -->
<g id="edge6" class="edge">
<title>15964&#45;&gt;15967</title>
<path fill="none" stroke="firebrick" stroke-width="2" d="M1400.68,-247.12C1417.43,-220.49 1450.03,-168.66 1474.1,-130.39"/>
<polygon fill="firebrick" stroke="firebrick" stroke-width="2" points="1476.05,-133.87 1478.41,-123.54 1470.12,-130.14 1476.05,-133.87"/>
<text text-anchor="middle" x="1479.12" y="-184.95" font-family="Times New Roman,serif" font-size="14.00" fill="firebrick">LowPrioChild</text>
</g>
<!-- 15975 -->
<g id="node8" class="node">
<title>15975</title>
<ellipse fill="mediumpurple" stroke="mediumpurple" cx="1032.75" cy="-614" rx="31.39" ry="18"/>
<text text-anchor="start" x="1017.75" y="-609.95" font-family="Times New Roman,serif" font-weight="bold" font-size="14.00" fill="white">Root</text>
</g>
<!-- 15975&#45;&gt;15949 -->
<g id="edge7" class="edge">
<title>15975&#45;&gt;15949</title>
<path fill="none" stroke="black" d="M1032.75,-595.64C1032.75,-588.77 1032.75,-580.26 1032.75,-570.87"/>
<polygon fill="black" stroke="black" points="1036.25,-570.98 1032.75,-560.98 1029.25,-570.98 1036.25,-570.98"/>
</g>
</g>
</svg>
