<?xml version="1.0" encoding="UTF-8" standalone="no"?>
<!DOCTYPE svg PUBLIC "-//W3C//DTD SVG 1.1//EN"
 "http://www.w3.org/Graphics/SVG/1.1/DTD/svg11.dtd">
<!-- Generated by graphviz version 9.0.0 (20230911.1827)
 -->
<!-- Title: WaitCaveStable.module Pages: 1 -->
<svg width="585pt" height="713pt"
 viewBox="0.00 0.00 585.44 712.50" xmlns="http://www.w3.org/2000/svg" xmlns:xlink="http://www.w3.org/1999/xlink">
<g id="graph0" class="graph" transform="scale(1 1) rotate(0) translate(4 708.5)">
<title>WaitCaveStable.module</title>
<polygon fill="lightgray" stroke="none" points="-4,4 -4,-708.5 581.44,-708.5 581.44,4 -4,4"/>
<!-- 16526 -->
<g id="node1" class="node">
<title>16526</title>
<polygon fill="none" stroke="black" stroke-width="2" points="536.12,-314.75 220.38,-314.75 220.38,-128.5 536.12,-128.5 536.12,-314.75"/>
<polygon fill="none" stroke="black" points="229.38,-287.25 229.38,-309.75 527.12,-309.75 527.12,-287.25 229.38,-287.25"/>
<text text-anchor="start" x="299.88" y="-294.45" font-family="Times New Roman,serif" font-weight="bold" font-size="14.00">Element_BoolSelector (0)</text>
<polygon fill="none" stroke="black" points="229.38,-264.75 229.38,-287.25 527.12,-287.25 527.12,-264.75 229.38,-264.75"/>
<text text-anchor="start" x="346.38" y="-271.95" font-family="Times New Roman,serif" font-weight="bold" font-size="14.00">Properties</text>
<polygon fill="none" stroke="black" points="229.38,-243 229.38,-264.75 527.12,-264.75 527.12,-243 229.38,-243"/>
<text text-anchor="start" x="281.12" y="-248.45" font-family="Times New Roman,serif" font-size="14.00">[Int] CalculateTiming (default = 0) </text>
<polygon fill="none" stroke="black" points="229.38,-221.25 229.38,-243 527.12,-243 527.12,-221.25 229.38,-221.25"/>
<text text-anchor="start" x="262" y="-226.7" font-family="Times New Roman,serif" font-size="14.00">[Bool] ChildFrameSync (default = False) </text>
<polygon fill="none" stroke="black" points="229.38,-199.5 229.38,-221.25 527.12,-221.25 527.12,-199.5 229.38,-199.5"/>
<text text-anchor="start" x="278.5" y="-204.95" font-family="Times New Roman,serif" font-size="14.00">[Bool] InputValue (default = False) </text>
<polygon fill="none" stroke="black" points="229.38,-177.75 229.38,-199.5 527.12,-199.5 527.12,-177.75 229.38,-177.75"/>
<text text-anchor="start" x="232.38" y="-183.2" font-family="Times New Roman,serif" font-size="14.00">[Bool] IsNoSelectWhenChildBusy (default = False) </text>
<polygon fill="none" stroke="black" points="229.38,-155.25 229.38,-177.75 527.12,-177.75 527.12,-155.25 229.38,-155.25"/>
<text text-anchor="start" x="359.12" y="-162.45" font-family="Times New Roman,serif" font-weight="bold" font-size="14.00">Inputs</text>
<polygon fill="none" stroke="black" points="229.38,-133.5 229.38,-155.25 527.12,-155.25 527.12,-133.5 229.38,-133.5"/>
<text text-anchor="start" x="294.25" y="-138.95" font-family="Times New Roman,serif" font-size="14.00">[Bool] Input (default = False) </text>
<polygon fill="none" stroke="black" points="228.38,-132.5 228.38,-310.75 528.12,-310.75 528.12,-132.5 228.38,-132.5"/>
</g>
<!-- 16535 -->
<g id="node2" class="node">
<title>16535</title>
<polygon fill="none" stroke="black" stroke-width="2" points="274.5,-76.75 0,-76.75 0,0 274.5,0 274.5,-76.75"/>
<polygon fill="none" stroke="black" points="9,-49.25 9,-71.75 265.5,-71.75 265.5,-49.25 9,-49.25"/>
<text text-anchor="start" x="76.88" y="-56.45" font-family="Times New Roman,serif" font-weight="bold" font-size="14.00">SeqOneShotEnd (1)</text>
<polygon fill="none" stroke="black" points="9,-26.75 9,-49.25 265.5,-49.25 265.5,-26.75 9,-26.75"/>
<text text-anchor="start" x="105.38" y="-33.95" font-family="Times New Roman,serif" font-weight="bold" font-size="14.00">Properties</text>
<polygon fill="none" stroke="black" points="9,-5 9,-26.75 265.5,-26.75 265.5,-5 9,-5"/>
<text text-anchor="start" x="12" y="-10.45" font-family="Times New Roman,serif" font-size="14.00">[Bool] ExecuteEveryFrame (default = False) </text>
<polygon fill="none" stroke="black" points="8,-4 8,-72.75 266.5,-72.75 266.5,-4 8,-4"/>
</g>
<!-- 16526&#45;&gt;16535 -->
<g id="edge1" class="edge">
<title>16526&#45;&gt;16535</title>
<path fill="none" stroke="firebrick" stroke-width="2" d="M255.28,-128.14C234.82,-112.76 214.46,-97.44 196.56,-83.98"/>
<polygon fill="firebrick" stroke="firebrick" stroke-width="2" points="199.94,-82.15 189.85,-78.93 195.74,-87.74 199.94,-82.15"/>
<text text-anchor="middle" x="242.38" y="-97.2" font-family="Times New Roman,serif" font-size="14.00" fill="firebrick">True</text>
</g>
<!-- 16538 -->
<g id="node3" class="node">
<title>16538</title>
<polygon fill="none" stroke="black" stroke-width="2" points="567.5,-76.75 293,-76.75 293,0 567.5,0 567.5,-76.75"/>
<polygon fill="none" stroke="black" points="302,-49.25 302,-71.75 558.5,-71.75 558.5,-49.25 302,-49.25"/>
<text text-anchor="start" x="369.88" y="-56.45" font-family="Times New Roman,serif" font-weight="bold" font-size="14.00">SeqOneShotEnd (3)</text>
<polygon fill="none" stroke="black" points="302,-26.75 302,-49.25 558.5,-49.25 558.5,-26.75 302,-26.75"/>
<text text-anchor="start" x="398.38" y="-33.95" font-family="Times New Roman,serif" font-weight="bold" font-size="14.00">Properties</text>
<polygon fill="none" stroke="black" points="302,-5 302,-26.75 558.5,-26.75 558.5,-5 302,-5"/>
<text text-anchor="start" x="305" y="-10.45" font-family="Times New Roman,serif" font-size="14.00">[Bool] ExecuteEveryFrame (default = False) </text>
<polygon fill="none" stroke="black" points="301,-4 301,-72.75 559.5,-72.75 559.5,-4 301,-4"/>
</g>
<!-- 16526&#45;&gt;16538 -->
<g id="edge2" class="edge">
<title>16526&#45;&gt;16538</title>
<path fill="none" stroke="firebrick" stroke-width="2" d="M371,-128.02C372.36,-116.57 374.86,-105.22 379,-94.75 380.11,-91.93 381.44,-89.18 382.94,-86.49"/>
<polygon fill="firebrick" stroke="firebrick" stroke-width="2" points="384.89,-89.92 387.37,-79.62 379.01,-86.12 384.89,-89.92"/>
<text text-anchor="middle" x="393.88" y="-97.2" font-family="Times New Roman,serif" font-size="14.00" fill="firebrick">False</text>
</g>
<!-- 16538&#45;&gt;16526 -->
<g id="edge5" class="edge">
<title>16538&#45;&gt;16526</title>
<path fill="none" stroke="midnightblue" stroke-width="2" d="M419.49,-76.9C416.05,-88.88 412.06,-102.78 407.95,-117.12"/>
<polygon fill="midnightblue" stroke="midnightblue" stroke-width="2" points="405.01,-114.65 405.62,-125.23 411.74,-116.58 405.01,-114.65"/>
<text text-anchor="middle" x="442.38" y="-97.2" font-family="Times New Roman,serif" font-size="14.00" fill="midnightblue">Transition</text>
</g>
<!-- 16529 -->
<g id="node4" class="node">
<title>16529</title>
<polygon fill="none" stroke="black" stroke-width="2" points="434.75,-531.75 107.75,-531.75 107.75,-366.5 434.75,-366.5 434.75,-531.75"/>
<polygon fill="none" stroke="black" points="116.75,-504.25 116.75,-526.75 425.75,-526.75 425.75,-504.25 116.75,-504.25"/>
<text text-anchor="start" x="120.88" y="-511.45" font-family="Times New Roman,serif" font-weight="bold" font-size="14.00">SeqQueryIsCaveStreamingCompleteOrStable (2)</text>
<polygon fill="none" stroke="black" points="116.75,-481.75 116.75,-504.25 425.75,-504.25 425.75,-481.75 116.75,-481.75"/>
<text text-anchor="start" x="239.38" y="-488.95" font-family="Times New Roman,serif" font-weight="bold" font-size="14.00">Properties</text>
<polygon fill="none" stroke="black" points="116.75,-460 116.75,-481.75 425.75,-481.75 425.75,-460 116.75,-460"/>
<text text-anchor="start" x="145.62" y="-465.45" font-family="Times New Roman,serif" font-size="14.00">[Bool] OutputOnlyOnEnter (default = False) </text>
<polygon fill="none" stroke="black" points="116.75,-437.5 116.75,-460 425.75,-460 425.75,-437.5 116.75,-437.5"/>
<text text-anchor="start" x="252.12" y="-444.7" font-family="Times New Roman,serif" font-weight="bold" font-size="14.00">Inputs</text>
<polygon fill="none" stroke="black" points="116.75,-415.75 116.75,-437.5 425.75,-437.5 425.75,-415.75 116.75,-415.75"/>
<text text-anchor="start" x="119.75" y="-421.2" font-family="Times New Roman,serif" font-size="14.00">[Vector3F] LoadingPosition (default = (0.0, 0.0, 0.0)) </text>
<polygon fill="none" stroke="black" points="116.75,-393.25 116.75,-415.75 425.75,-415.75 425.75,-393.25 116.75,-393.25"/>
<text text-anchor="start" x="246.88" y="-400.45" font-family="Times New Roman,serif" font-weight="bold" font-size="14.00">Outputs</text>
<polygon fill="none" stroke="black" points="116.75,-371.5 116.75,-393.25 425.75,-393.25 425.75,-371.5 116.75,-371.5"/>
<text text-anchor="start" x="194.38" y="-376.95" font-family="Times New Roman,serif" font-size="14.00">[Bool] IsCompleteOrStable</text>
<polygon fill="none" stroke="black" points="115.75,-370.5 115.75,-527.75 426.75,-527.75 426.75,-370.5 115.75,-370.5"/>
</g>
<!-- 16529&#45;&gt;16526 -->
<g id="edge3" class="edge">
<title>16529:16541&#45;&gt;16526:16539</title>
<path fill="none" stroke="#008000" stroke-dasharray="5,2" d="M427.25,-382.12C434.21,-382.12 429.79,-372.49 426.25,-366.5 418.68,-353.68 405.16,-361.55 398,-348.5 394.63,-342.36 393.38,-338.01 398,-332.75 438.85,-286.23 495.28,-361.27 536.12,-314.75 589.24,-254.26 592.87,-190.73 536.12,-133.62 525.64,-123.08 419.5,-117.09 387.4,-126.19"/>
<polygon fill="#008000" stroke="#008000" points="385.65,-123.14 379.49,-131.75 389.68,-128.86 385.65,-123.14"/>
<text text-anchor="middle" x="412.88" y="-335.2" font-family="Times New Roman,serif" font-size="14.00" fill="#008000">Input</text>
</g>
<!-- 16532 -->
<g id="node5" class="node">
<title>16532</title>
<polygon fill="none" stroke="black" stroke-width="2" points="408.88,-704.5 133.62,-704.5 133.62,-583.5 408.88,-583.5 408.88,-704.5"/>
<polygon fill="none" stroke="black" points="142.62,-677 142.62,-699.5 399.88,-699.5 399.88,-677 142.62,-677"/>
<text text-anchor="start" x="165.5" y="-684.2" font-family="Times New Roman,serif" font-weight="bold" font-size="14.00">SeqQueryGetTraverseBasePos (4)</text>
<polygon fill="none" stroke="black" points="142.62,-654.5 142.62,-677 399.88,-677 399.88,-654.5 142.62,-654.5"/>
<text text-anchor="start" x="239.38" y="-661.7" font-family="Times New Roman,serif" font-weight="bold" font-size="14.00">Properties</text>
<polygon fill="none" stroke="black" points="142.62,-632.75 142.62,-654.5 399.88,-654.5 399.88,-632.75 142.62,-632.75"/>
<text text-anchor="start" x="145.62" y="-638.2" font-family="Times New Roman,serif" font-size="14.00">[Bool] OutputOnlyOnEnter (default = False) </text>
<polygon fill="none" stroke="black" points="142.62,-610.25 142.62,-632.75 399.88,-632.75 399.88,-610.25 142.62,-610.25"/>
<text text-anchor="start" x="246.88" y="-617.45" font-family="Times New Roman,serif" font-weight="bold" font-size="14.00">Outputs</text>
<polygon fill="none" stroke="black" points="142.62,-588.5 142.62,-610.25 399.88,-610.25 399.88,-588.5 142.62,-588.5"/>
<text text-anchor="start" x="189.5" y="-593.95" font-family="Times New Roman,serif" font-size="14.00">[Vector3F] TraverseBasePos</text>
<polygon fill="none" stroke="black" points="141.62,-587.5 141.62,-700.5 400.88,-700.5 400.88,-587.5 141.62,-587.5"/>
</g>
<!-- 16532&#45;&gt;16529 -->
<g id="edge4" class="edge">
<title>16532:16542&#45;&gt;16529:16540</title>
<path fill="none" stroke="#008000" stroke-dasharray="5,2" d="M271.25,-587C271.25,-513.87 383.82,-591.32 426.25,-531.75 437.53,-515.92 446.91,-453.87 436.47,-433.01"/>
<polygon fill="#008000" stroke="#008000" points="438.57,-430.21 428.46,-427.03 434.38,-435.82 438.57,-430.21"/>
<text text-anchor="middle" x="447" y="-552.2" font-family="Times New Roman,serif" font-size="14.00" fill="#008000">LoadingPosition</text>
</g>
<!-- 16543 -->
<g id="node6" class="node">
<title>16543</title>
<ellipse fill="mediumpurple" stroke="mediumpurple" cx="484.25" cy="-449.12" rx="31.39" ry="18"/>
<text text-anchor="start" x="469.25" y="-445.07" font-family="Times New Roman,serif" font-weight="bold" font-size="14.00" fill="white">Root</text>
</g>
<!-- 16543&#45;&gt;16526 -->
<g id="edge6" class="edge">
<title>16543&#45;&gt;16526</title>
<path fill="none" stroke="black" d="M476.46,-431.54C465.79,-408.85 445.77,-366.27 426.58,-325.44"/>
<polygon fill="black" stroke="black" points="429.79,-324.04 422.37,-316.48 423.45,-327.02 429.79,-324.04"/>
</g>
</g>
</svg>
