<?xml version="1.0" encoding="UTF-8" standalone="no"?>
<!DOCTYPE svg PUBLIC "-//W3C//DTD SVG 1.1//EN"
 "http://www.w3.org/Graphics/SVG/1.1/DTD/svg11.dtd">
<!-- Generated by graphviz version 9.0.0 (20230911.1827)
 -->
<!-- Title: WaitAutoBuilderDraft.module Pages: 1 -->
<svg width="1288pt" height="1163pt"
 viewBox="0.00 0.00 1288.38 1162.50" xmlns="http://www.w3.org/2000/svg" xmlns:xlink="http://www.w3.org/1999/xlink">
<g id="graph0" class="graph" transform="scale(1 1) rotate(0) translate(4 1158.5)">
<title>WaitAutoBuilderDraft.module</title>
<polygon fill="lightgray" stroke="none" points="-4,4 -4,-1158.5 1284.38,-1158.5 1284.38,4 -4,4"/>
<!-- 16478 -->
<g id="node1" class="node">
<title>16478</title>
<polygon fill="none" stroke="black" stroke-width="2" points="641.12,-981.75 325.38,-981.75 325.38,-795.5 641.12,-795.5 641.12,-981.75"/>
<polygon fill="none" stroke="black" points="334.38,-954.25 334.38,-976.75 632.12,-976.75 632.12,-954.25 334.38,-954.25"/>
<text text-anchor="start" x="404.88" y="-961.45" font-family="Times New Roman,serif" font-weight="bold" font-size="14.00">Element_BoolSelector (0)</text>
<polygon fill="none" stroke="black" points="334.38,-931.75 334.38,-954.25 632.12,-954.25 632.12,-931.75 334.38,-931.75"/>
<text text-anchor="start" x="451.38" y="-938.95" font-family="Times New Roman,serif" font-weight="bold" font-size="14.00">Properties</text>
<polygon fill="none" stroke="black" points="334.38,-910 334.38,-931.75 632.12,-931.75 632.12,-910 334.38,-910"/>
<text text-anchor="start" x="386.12" y="-915.45" font-family="Times New Roman,serif" font-size="14.00">[Int] CalculateTiming (default = 0) </text>
<polygon fill="none" stroke="black" points="334.38,-888.25 334.38,-910 632.12,-910 632.12,-888.25 334.38,-888.25"/>
<text text-anchor="start" x="367" y="-893.7" font-family="Times New Roman,serif" font-size="14.00">[Bool] ChildFrameSync (default = False) </text>
<polygon fill="none" stroke="black" points="334.38,-866.5 334.38,-888.25 632.12,-888.25 632.12,-866.5 334.38,-866.5"/>
<text text-anchor="start" x="383.5" y="-871.95" font-family="Times New Roman,serif" font-size="14.00">[Bool] InputValue (default = False) </text>
<polygon fill="none" stroke="black" points="334.38,-844.75 334.38,-866.5 632.12,-866.5 632.12,-844.75 334.38,-844.75"/>
<text text-anchor="start" x="337.38" y="-850.2" font-family="Times New Roman,serif" font-size="14.00">[Bool] IsNoSelectWhenChildBusy (default = False) </text>
<polygon fill="none" stroke="black" points="334.38,-822.25 334.38,-844.75 632.12,-844.75 632.12,-822.25 334.38,-822.25"/>
<text text-anchor="start" x="464.12" y="-829.45" font-family="Times New Roman,serif" font-weight="bold" font-size="14.00">Inputs</text>
<polygon fill="none" stroke="black" points="334.38,-800.5 334.38,-822.25 632.12,-822.25 632.12,-800.5 334.38,-800.5"/>
<text text-anchor="start" x="399.25" y="-805.95" font-family="Times New Roman,serif" font-size="14.00">[Bool] Input (default = False) </text>
<polygon fill="none" stroke="black" points="333.38,-799.5 333.38,-977.75 633.12,-977.75 633.12,-799.5 333.38,-799.5"/>
</g>
<!-- 16484 -->
<g id="node2" class="node">
<title>16484</title>
<polygon fill="none" stroke="black" stroke-width="2" points="620.5,-743.75 346,-743.75 346,-667 620.5,-667 620.5,-743.75"/>
<polygon fill="none" stroke="black" points="355,-716.25 355,-738.75 611.5,-738.75 611.5,-716.25 355,-716.25"/>
<text text-anchor="start" x="422.88" y="-723.45" font-family="Times New Roman,serif" font-weight="bold" font-size="14.00">SeqOneShotEnd (3)</text>
<polygon fill="none" stroke="black" points="355,-693.75 355,-716.25 611.5,-716.25 611.5,-693.75 355,-693.75"/>
<text text-anchor="start" x="451.38" y="-700.95" font-family="Times New Roman,serif" font-weight="bold" font-size="14.00">Properties</text>
<polygon fill="none" stroke="black" points="355,-672 355,-693.75 611.5,-693.75 611.5,-672 355,-672"/>
<text text-anchor="start" x="358" y="-677.45" font-family="Times New Roman,serif" font-size="14.00">[Bool] ExecuteEveryFrame (default = False) </text>
<polygon fill="none" stroke="black" points="354,-671 354,-739.75 612.5,-739.75 612.5,-671 354,-671"/>
</g>
<!-- 16478&#45;&gt;16484 -->
<g id="edge1" class="edge">
<title>16478&#45;&gt;16484</title>
<path fill="none" stroke="firebrick" stroke-width="2" d="M483.25,-795.14C483.25,-781.38 483.25,-767.69 483.25,-755.31"/>
<polygon fill="firebrick" stroke="firebrick" stroke-width="2" points="486.75,-756.92 483.25,-746.92 479.75,-756.92 486.75,-756.92"/>
<text text-anchor="middle" x="496.38" y="-764.2" font-family="Times New Roman,serif" font-size="14.00" fill="firebrick">True</text>
</g>
<!-- 16511 -->
<g id="node3" class="node">
<title>16511</title>
<polygon fill="none" stroke="black" stroke-width="2" points="913.5,-743.75 639,-743.75 639,-667 913.5,-667 913.5,-743.75"/>
<polygon fill="none" stroke="black" points="648,-716.25 648,-738.75 904.5,-738.75 904.5,-716.25 648,-716.25"/>
<text text-anchor="start" x="715.88" y="-723.45" font-family="Times New Roman,serif" font-weight="bold" font-size="14.00">SeqOneShotEnd (1)</text>
<polygon fill="none" stroke="black" points="648,-693.75 648,-716.25 904.5,-716.25 904.5,-693.75 648,-693.75"/>
<text text-anchor="start" x="744.38" y="-700.95" font-family="Times New Roman,serif" font-weight="bold" font-size="14.00">Properties</text>
<polygon fill="none" stroke="black" points="648,-672 648,-693.75 904.5,-693.75 904.5,-672 648,-672"/>
<text text-anchor="start" x="651" y="-677.45" font-family="Times New Roman,serif" font-size="14.00">[Bool] ExecuteEveryFrame (default = False) </text>
<polygon fill="none" stroke="black" points="647,-671 647,-739.75 905.5,-739.75 905.5,-671 647,-671"/>
</g>
<!-- 16478&#45;&gt;16511 -->
<g id="edge2" class="edge">
<title>16478&#45;&gt;16511</title>
<path fill="none" stroke="firebrick" stroke-width="2" d="M632.75,-795.14C658.19,-779.4 683.51,-763.74 705.64,-750.05"/>
<polygon fill="firebrick" stroke="firebrick" stroke-width="2" points="706.01,-753.94 712.67,-745.71 702.32,-747.99 706.01,-753.94"/>
<text text-anchor="middle" x="695.88" y="-764.2" font-family="Times New Roman,serif" font-size="14.00" fill="firebrick">False</text>
</g>
<!-- 16487 -->
<g id="node6" class="node">
<title>16487</title>
<polygon fill="none" stroke="black" stroke-width="2" points="606.62,-615.25 407.88,-615.25 407.88,-516.75 606.62,-516.75 606.62,-615.25"/>
<polygon fill="none" stroke="black" points="416.88,-587.75 416.88,-610.25 597.62,-610.25 597.62,-587.75 416.88,-587.75"/>
<text text-anchor="start" x="427.38" y="-594.95" font-family="Times New Roman,serif" font-weight="bold" font-size="14.00">Element_Simultaneous (6)</text>
<polygon fill="none" stroke="black" points="416.88,-565.25 416.88,-587.75 597.62,-587.75 597.62,-565.25 416.88,-565.25"/>
<text text-anchor="start" x="475.38" y="-572.45" font-family="Times New Roman,serif" font-weight="bold" font-size="14.00">Properties</text>
<polygon fill="none" stroke="black" points="416.88,-543.5 416.88,-565.25 597.62,-565.25 597.62,-543.5 416.88,-543.5"/>
<text text-anchor="start" x="426.25" y="-548.95" font-family="Times New Roman,serif" font-size="14.00">[Int] EndPolicy (default = 0) </text>
<polygon fill="none" stroke="black" points="416.88,-521.75 416.88,-543.5 597.62,-543.5 597.62,-521.75 416.88,-521.75"/>
<text text-anchor="start" x="419.88" y="-527.2" font-family="Times New Roman,serif" font-size="14.00">[Int] ResultPolicy (default = 0) </text>
<polygon fill="none" stroke="black" points="415.88,-520.75 415.88,-611.25 598.62,-611.25 598.62,-520.75 415.88,-520.75"/>
</g>
<!-- 16484&#45;&gt;16487 -->
<g id="edge5" class="edge">
<title>16484&#45;&gt;16487</title>
<path fill="none" stroke="midnightblue" stroke-width="2" d="M489.81,-666.84C491.97,-654.49 494.42,-640.43 496.79,-626.84"/>
<polygon fill="midnightblue" stroke="midnightblue" stroke-width="2" points="499.97,-629.03 498.24,-618.57 493.07,-627.82 499.97,-629.03"/>
<text text-anchor="middle" x="523.38" y="-635.7" font-family="Times New Roman,serif" font-size="14.00" fill="midnightblue">Transition</text>
</g>
<!-- 16481 -->
<g id="node4" class="node">
<title>16481</title>
<polygon fill="none" stroke="black" stroke-width="2" points="402.5,-1154.5 110,-1154.5 110,-1033.5 402.5,-1033.5 402.5,-1154.5"/>
<polygon fill="none" stroke="black" points="119,-1127 119,-1149.5 393.5,-1149.5 393.5,-1127 119,-1127"/>
<text text-anchor="start" x="122" y="-1134.2" font-family="Times New Roman,serif" font-weight="bold" font-size="14.00">SeqQueryIsCreatingAutoBuilderActors (10)</text>
<polygon fill="none" stroke="black" points="119,-1104.5 119,-1127 393.5,-1127 393.5,-1104.5 119,-1104.5"/>
<text text-anchor="start" x="224.38" y="-1111.7" font-family="Times New Roman,serif" font-weight="bold" font-size="14.00">Properties</text>
<polygon fill="none" stroke="black" points="119,-1082.75 119,-1104.5 393.5,-1104.5 393.5,-1082.75 119,-1082.75"/>
<text text-anchor="start" x="130.62" y="-1088.2" font-family="Times New Roman,serif" font-size="14.00">[Bool] OutputOnlyOnEnter (default = False) </text>
<polygon fill="none" stroke="black" points="119,-1060.25 119,-1082.75 393.5,-1082.75 393.5,-1060.25 119,-1060.25"/>
<text text-anchor="start" x="231.88" y="-1067.45" font-family="Times New Roman,serif" font-weight="bold" font-size="14.00">Outputs</text>
<polygon fill="none" stroke="black" points="119,-1038.5 119,-1060.25 393.5,-1060.25 393.5,-1038.5 119,-1038.5"/>
<text text-anchor="start" x="207.88" y="-1043.95" font-family="Times New Roman,serif" font-size="14.00">[Bool] IsCreating</text>
<polygon fill="none" stroke="black" points="118,-1037.5 118,-1150.5 394.5,-1150.5 394.5,-1037.5 118,-1037.5"/>
</g>
<!-- 16481&#45;&gt;16478 -->
<g id="edge3" class="edge">
<title>16481:16513&#45;&gt;16478:16512</title>
<path fill="none" stroke="#008000" stroke-dasharray="5,2" d="M394.25,-1049C401.15,-1049 396.3,-1039.69 393.25,-1033.5 377.84,-1002.21 348.74,-1013.48 334.25,-981.75 304.56,-916.73 262.54,-822.61 321.91,-812.51"/>
<polygon fill="#008000" stroke="#008000" points="322.04,-816.01 331.74,-811.74 321.5,-809.03 322.04,-816.01"/>
<text text-anchor="middle" x="392.88" y="-1002.2" font-family="Times New Roman,serif" font-size="14.00" fill="#008000">Input</text>
</g>
<!-- 16499 -->
<g id="node5" class="node">
<title>16499</title>
<polygon fill="none" stroke="black" stroke-width="2" points="344.12,-465 28.38,-465 28.38,-278.75 344.12,-278.75 344.12,-465"/>
<polygon fill="none" stroke="black" points="37.38,-437.5 37.38,-460 335.12,-460 335.12,-437.5 37.38,-437.5"/>
<text text-anchor="start" x="107.88" y="-444.7" font-family="Times New Roman,serif" font-weight="bold" font-size="14.00">Element_BoolSelector (2)</text>
<polygon fill="none" stroke="black" points="37.38,-415 37.38,-437.5 335.12,-437.5 335.12,-415 37.38,-415"/>
<text text-anchor="start" x="154.38" y="-422.2" font-family="Times New Roman,serif" font-weight="bold" font-size="14.00">Properties</text>
<polygon fill="none" stroke="black" points="37.38,-393.25 37.38,-415 335.12,-415 335.12,-393.25 37.38,-393.25"/>
<text text-anchor="start" x="89.12" y="-398.7" font-family="Times New Roman,serif" font-size="14.00">[Int] CalculateTiming (default = 0) </text>
<polygon fill="none" stroke="black" points="37.38,-371.5 37.38,-393.25 335.12,-393.25 335.12,-371.5 37.38,-371.5"/>
<text text-anchor="start" x="70" y="-376.95" font-family="Times New Roman,serif" font-size="14.00">[Bool] ChildFrameSync (default = False) </text>
<polygon fill="none" stroke="black" points="37.38,-349.75 37.38,-371.5 335.12,-371.5 335.12,-349.75 37.38,-349.75"/>
<text text-anchor="start" x="86.5" y="-355.2" font-family="Times New Roman,serif" font-size="14.00">[Bool] InputValue (default = False) </text>
<polygon fill="none" stroke="black" points="37.38,-328 37.38,-349.75 335.12,-349.75 335.12,-328 37.38,-328"/>
<text text-anchor="start" x="40.38" y="-333.45" font-family="Times New Roman,serif" font-size="14.00">[Bool] IsNoSelectWhenChildBusy (default = False) </text>
<polygon fill="none" stroke="black" points="37.38,-305.5 37.38,-328 335.12,-328 335.12,-305.5 37.38,-305.5"/>
<text text-anchor="start" x="167.12" y="-312.7" font-family="Times New Roman,serif" font-weight="bold" font-size="14.00">Inputs</text>
<polygon fill="none" stroke="black" points="37.38,-283.75 37.38,-305.5 335.12,-305.5 335.12,-283.75 37.38,-283.75"/>
<text text-anchor="start" x="102.25" y="-289.2" font-family="Times New Roman,serif" font-size="14.00">[Bool] Input (default = False) </text>
<polygon fill="none" stroke="black" points="36.38,-282.75 36.38,-461 336.12,-461 336.12,-282.75 36.38,-282.75"/>
</g>
<!-- 16481&#45;&gt;16499 -->
<g id="edge4" class="edge">
<title>16481:16513&#45;&gt;16499:16520</title>
<path fill="none" stroke="#008000" stroke-dasharray="5,2" d="M256.25,-1037C256.25,-965.94 194.25,-960.69 194.25,-889.62 194.25,-889.62 194.25,-889.62 194.25,-565 194.25,-484.92 306.35,-535.61 344.12,-465 353.62,-447.25 358.31,-298.15 344.12,-283.88 333.64,-273.33 227.5,-267.34 195.4,-276.44"/>
<polygon fill="#008000" stroke="#008000" points="193.65,-273.39 187.49,-282 197.68,-279.11 193.65,-273.39"/>
<text text-anchor="middle" x="208.88" y="-699.95" font-family="Times New Roman,serif" font-size="14.00" fill="#008000">Input</text>
</g>
<!-- 16502 -->
<g id="node10" class="node">
<title>16502</title>
<polygon fill="none" stroke="black" stroke-width="2" points="274.5,-227 0,-227 0,-150.25 274.5,-150.25 274.5,-227"/>
<polygon fill="none" stroke="black" points="9,-199.5 9,-222 265.5,-222 265.5,-199.5 9,-199.5"/>
<text text-anchor="start" x="76.88" y="-206.7" font-family="Times New Roman,serif" font-weight="bold" font-size="14.00">SeqOneShotEnd (9)</text>
<polygon fill="none" stroke="black" points="9,-177 9,-199.5 265.5,-199.5 265.5,-177 9,-177"/>
<text text-anchor="start" x="105.38" y="-184.2" font-family="Times New Roman,serif" font-weight="bold" font-size="14.00">Properties</text>
<polygon fill="none" stroke="black" points="9,-155.25 9,-177 265.5,-177 265.5,-155.25 9,-155.25"/>
<text text-anchor="start" x="12" y="-160.7" font-family="Times New Roman,serif" font-size="14.00">[Bool] ExecuteEveryFrame (default = False) </text>
<polygon fill="none" stroke="black" points="8,-154.25 8,-223 266.5,-223 266.5,-154.25 8,-154.25"/>
</g>
<!-- 16499&#45;&gt;16502 -->
<g id="edge10" class="edge">
<title>16499&#45;&gt;16502</title>
<path fill="none" stroke="firebrick" stroke-width="2" d="M142.62,-278.32C140.82,-272.45 139.25,-266.57 138,-260.75 136.47,-253.61 135.6,-245.98 135.18,-238.46"/>
<polygon fill="firebrick" stroke="firebrick" stroke-width="2" points="138.73,-240.14 134.93,-230.25 131.73,-240.35 138.73,-240.14"/>
<text text-anchor="middle" x="151.38" y="-247.45" font-family="Times New Roman,serif" font-size="14.00" fill="firebrick">True</text>
</g>
<!-- 16505 -->
<g id="node11" class="node">
<title>16505</title>
<polygon fill="none" stroke="black" stroke-width="2" points="567.5,-227 293,-227 293,-150.25 567.5,-150.25 567.5,-227"/>
<polygon fill="none" stroke="black" points="302,-199.5 302,-222 558.5,-222 558.5,-199.5 302,-199.5"/>
<text text-anchor="start" x="366.12" y="-206.7" font-family="Times New Roman,serif" font-weight="bold" font-size="14.00">SeqOneShotEnd (11)</text>
<polygon fill="none" stroke="black" points="302,-177 302,-199.5 558.5,-199.5 558.5,-177 302,-177"/>
<text text-anchor="start" x="398.38" y="-184.2" font-family="Times New Roman,serif" font-weight="bold" font-size="14.00">Properties</text>
<polygon fill="none" stroke="black" points="302,-155.25 302,-177 558.5,-177 558.5,-155.25 302,-155.25"/>
<text text-anchor="start" x="305" y="-160.7" font-family="Times New Roman,serif" font-size="14.00">[Bool] ExecuteEveryFrame (default = False) </text>
<polygon fill="none" stroke="black" points="301,-154.25 301,-223 559.5,-223 559.5,-154.25 301,-154.25"/>
</g>
<!-- 16499&#45;&gt;16505 -->
<g id="edge11" class="edge">
<title>16499&#45;&gt;16505</title>
<path fill="none" stroke="firebrick" stroke-width="2" d="M310.75,-278.39C331.46,-263.01 352.08,-247.69 370.21,-234.23"/>
<polygon fill="firebrick" stroke="firebrick" stroke-width="2" points="371.08,-237.94 377.02,-229.17 366.9,-232.32 371.08,-237.94"/>
<text text-anchor="middle" x="366.88" y="-247.45" font-family="Times New Roman,serif" font-size="14.00" fill="firebrick">False</text>
</g>
<!-- 16487&#45;&gt;16499 -->
<g id="edge9" class="edge">
<title>16487&#45;&gt;16499</title>
<path fill="none" stroke="midnightblue" stroke-width="2" d="M425.83,-516.27C402.67,-502.41 376.59,-486.79 350.37,-471.1"/>
<polygon fill="midnightblue" stroke="midnightblue" stroke-width="2" points="353.68,-469.01 343.31,-466.88 350.09,-475.01 353.68,-469.01"/>
<text text-anchor="middle" x="423.38" y="-485.45" font-family="Times New Roman,serif" font-size="14.00" fill="midnightblue">Transition</text>
</g>
<!-- 16490 -->
<g id="node7" class="node">
<title>16490</title>
<polygon fill="none" stroke="black" stroke-width="2" points="652.38,-432.38 362.12,-432.38 362.12,-311.38 652.38,-311.38 652.38,-432.38"/>
<polygon fill="none" stroke="black" points="371.12,-404.88 371.12,-427.38 643.38,-427.38 643.38,-404.88 371.12,-404.88"/>
<text text-anchor="start" x="422.5" y="-412.07" font-family="Times New Roman,serif" font-weight="bold" font-size="14.00">SeqOneShotLoadScreen (4)</text>
<polygon fill="none" stroke="black" points="371.12,-382.38 371.12,-404.88 643.38,-404.88 643.38,-382.38 371.12,-382.38"/>
<text text-anchor="start" x="475.38" y="-389.57" font-family="Times New Roman,serif" font-weight="bold" font-size="14.00">Properties</text>
<polygon fill="none" stroke="black" points="371.12,-360.62 371.12,-382.38 643.38,-382.38 643.38,-360.62 371.12,-360.62"/>
<text text-anchor="start" x="382" y="-366.07" font-family="Times New Roman,serif" font-size="14.00">[Bool] ExecuteEveryFrame (default = False) </text>
<polygon fill="none" stroke="black" points="371.12,-338.12 371.12,-360.62 643.38,-360.62 643.38,-338.12 371.12,-338.12"/>
<text text-anchor="start" x="488.12" y="-345.32" font-family="Times New Roman,serif" font-weight="bold" font-size="14.00">Inputs</text>
<polygon fill="none" stroke="black" points="371.12,-316.38 371.12,-338.12 643.38,-338.12 643.38,-316.38 371.12,-316.38"/>
<text text-anchor="start" x="374.12" y="-321.82" font-family="Times New Roman,serif" font-size="14.00">[String] ScreenName (default = WaitEquip_00) </text>
<polygon fill="none" stroke="black" points="370.12,-315.38 370.12,-428.38 644.38,-428.38 644.38,-315.38 370.12,-315.38"/>
</g>
<!-- 16487&#45;&gt;16490 -->
<g id="edge6" class="edge">
<title>16487&#45;&gt;16490</title>
<path fill="none" stroke="firebrick" stroke-width="2" d="M507.25,-516.52C507.25,-494.54 507.25,-468.12 507.25,-443.97"/>
<polygon fill="firebrick" stroke="firebrick" stroke-width="2" points="510.75,-445.71 507.25,-435.71 503.75,-445.71 510.75,-445.71"/>
</g>
<!-- 16493 -->
<g id="node8" class="node">
<title>16493</title>
<polygon fill="none" stroke="black" stroke-width="2" points="972.38,-454.12 670.12,-454.12 670.12,-289.62 972.38,-289.62 972.38,-454.12"/>
<polygon fill="none" stroke="black" points="679.12,-426.62 679.12,-449.12 963.38,-449.12 963.38,-426.62 679.12,-426.62"/>
<text text-anchor="start" x="682.12" y="-433.82" font-family="Times New Roman,serif" font-weight="bold" font-size="14.00">SeqOneShotRequestStopAnimationScreen (8)</text>
<polygon fill="none" stroke="black" points="679.12,-404.12 679.12,-426.62 963.38,-426.62 963.38,-404.12 679.12,-404.12"/>
<text text-anchor="start" x="789.38" y="-411.32" font-family="Times New Roman,serif" font-weight="bold" font-size="14.00">Properties</text>
<polygon fill="none" stroke="black" points="679.12,-382.38 679.12,-404.12 963.38,-404.12 963.38,-382.38 679.12,-382.38"/>
<text text-anchor="start" x="696" y="-387.82" font-family="Times New Roman,serif" font-size="14.00">[Bool] ExecuteEveryFrame (default = False) </text>
<polygon fill="none" stroke="black" points="679.12,-359.88 679.12,-382.38 963.38,-382.38 963.38,-359.88 679.12,-359.88"/>
<text text-anchor="start" x="802.12" y="-367.07" font-family="Times New Roman,serif" font-weight="bold" font-size="14.00">Inputs</text>
<polygon fill="none" stroke="black" points="679.12,-338.12 679.12,-359.88 963.38,-359.88 963.38,-338.12 679.12,-338.12"/>
<text text-anchor="start" x="739.5" y="-343.57" font-family="Times New Roman,serif" font-size="14.00">[Float] Frame (default = 2.0) </text>
<polygon fill="none" stroke="black" points="679.12,-316.38 679.12,-338.12 963.38,-338.12 963.38,-316.38 679.12,-316.38"/>
<text text-anchor="start" x="688.5" y="-321.82" font-family="Times New Roman,serif" font-size="14.00">[String] AnimationName (default = PosPattern) </text>
<polygon fill="none" stroke="black" points="679.12,-294.62 679.12,-316.38 963.38,-316.38 963.38,-294.62 679.12,-294.62"/>
<text text-anchor="start" x="688.12" y="-300.07" font-family="Times New Roman,serif" font-size="14.00">[String] ScreenName (default = WaitEquip_00) </text>
<polygon fill="none" stroke="black" points="678.12,-293.62 678.12,-450.12 964.38,-450.12 964.38,-293.62 678.12,-293.62"/>
</g>
<!-- 16487&#45;&gt;16493 -->
<g id="edge7" class="edge">
<title>16487&#45;&gt;16493</title>
<path fill="none" stroke="firebrick" stroke-width="2" d="M586.89,-516.27C614.64,-499.29 646.68,-479.69 677.99,-460.53"/>
<polygon fill="firebrick" stroke="firebrick" stroke-width="2" points="678.39,-464.39 685.09,-456.19 674.73,-458.42 678.39,-464.39"/>
</g>
<!-- 16496 -->
<g id="node9" class="node">
<title>16496</title>
<polygon fill="none" stroke="black" stroke-width="2" points="1280.38,-443.25 990.12,-443.25 990.12,-300.5 1280.38,-300.5 1280.38,-443.25"/>
<polygon fill="none" stroke="black" points="999.12,-415.75 999.12,-438.25 1271.38,-438.25 1271.38,-415.75 999.12,-415.75"/>
<text text-anchor="start" x="1049.75" y="-422.95" font-family="Times New Roman,serif" font-weight="bold" font-size="14.00">SeqOneShotOpenScreen (5)</text>
<polygon fill="none" stroke="black" points="999.12,-393.25 999.12,-415.75 1271.38,-415.75 1271.38,-393.25 999.12,-393.25"/>
<text text-anchor="start" x="1103.38" y="-400.45" font-family="Times New Roman,serif" font-weight="bold" font-size="14.00">Properties</text>
<polygon fill="none" stroke="black" points="999.12,-371.5 999.12,-393.25 1271.38,-393.25 1271.38,-371.5 999.12,-371.5"/>
<text text-anchor="start" x="1010" y="-376.95" font-family="Times New Roman,serif" font-size="14.00">[Bool] ExecuteEveryFrame (default = False) </text>
<polygon fill="none" stroke="black" points="999.12,-349 999.12,-371.5 1271.38,-371.5 1271.38,-349 999.12,-349"/>
<text text-anchor="start" x="1116.12" y="-356.2" font-family="Times New Roman,serif" font-weight="bold" font-size="14.00">Inputs</text>
<polygon fill="none" stroke="black" points="999.12,-327.25 999.12,-349 1271.38,-349 1271.38,-327.25 999.12,-327.25"/>
<text text-anchor="start" x="1063.62" y="-332.7" font-family="Times New Roman,serif" font-size="14.00">[Int] Option (default = 1) </text>
<polygon fill="none" stroke="black" points="999.12,-305.5 999.12,-327.25 1271.38,-327.25 1271.38,-305.5 999.12,-305.5"/>
<text text-anchor="start" x="1002.12" y="-310.95" font-family="Times New Roman,serif" font-size="14.00">[String] ScreenName (default = WaitEquip_00) </text>
<polygon fill="none" stroke="black" points="998.12,-304.5 998.12,-439.25 1272.38,-439.25 1272.38,-304.5 998.12,-304.5"/>
</g>
<!-- 16487&#45;&gt;16496 -->
<g id="edge8" class="edge">
<title>16487&#45;&gt;16496</title>
<path fill="none" stroke="firebrick" stroke-width="2" d="M606.67,-553.76C704.53,-540.47 856.94,-513.72 981.25,-465 993.15,-460.34 1005.19,-454.8 1017.01,-448.8"/>
<polygon fill="firebrick" stroke="firebrick" stroke-width="2" points="1016.96,-452.77 1024.21,-445.05 1013.72,-446.57 1016.96,-452.77"/>
</g>
<!-- 16502&#45;&gt;16499 -->
<g id="edge12" class="edge">
<title>16502&#45;&gt;16499</title>
<path fill="none" stroke="midnightblue" stroke-width="2" d="M157.42,-227.47C159.99,-233.24 162.37,-239.2 164.25,-245 166.57,-252.16 168.66,-259.63 170.54,-267.21"/>
<polygon fill="midnightblue" stroke="midnightblue" stroke-width="2" points="166.78,-266.48 172.47,-275.42 173.59,-264.88 166.78,-266.48"/>
<text text-anchor="middle" x="196.38" y="-247.45" font-family="Times New Roman,serif" font-size="14.00" fill="midnightblue">Transition</text>
</g>
<!-- 16508 -->
<g id="node12" class="node">
<title>16508</title>
<polygon fill="none" stroke="black" stroke-width="2" points="575.38,-98.5 285.12,-98.5 285.12,0 575.38,0 575.38,-98.5"/>
<polygon fill="none" stroke="black" points="294.12,-71 294.12,-93.5 566.38,-93.5 566.38,-71 294.12,-71"/>
<text text-anchor="start" x="312.12" y="-78.2" font-family="Times New Roman,serif" font-weight="bold" font-size="14.00">SeqExecuteCloseAndUnloadScreen (7)</text>
<polygon fill="none" stroke="black" points="294.12,-48.5 294.12,-71 566.38,-71 566.38,-48.5 294.12,-48.5"/>
<text text-anchor="start" x="411.12" y="-55.7" font-family="Times New Roman,serif" font-weight="bold" font-size="14.00">Inputs</text>
<polygon fill="none" stroke="black" points="294.12,-26.75 294.12,-48.5 566.38,-48.5 566.38,-26.75 294.12,-26.75"/>
<text text-anchor="start" x="312.5" y="-32.2" font-family="Times New Roman,serif" font-size="14.00">[Bool] IsUnloadRequest (default = False) </text>
<polygon fill="none" stroke="black" points="294.12,-5 294.12,-26.75 566.38,-26.75 566.38,-5 294.12,-5"/>
<text text-anchor="start" x="297.12" y="-10.45" font-family="Times New Roman,serif" font-size="14.00">[String] ScreenName (default = WaitEquip_00) </text>
<polygon fill="none" stroke="black" points="293.12,-4 293.12,-94.5 567.38,-94.5 567.38,-4 293.12,-4"/>
</g>
<!-- 16505&#45;&gt;16508 -->
<g id="edge13" class="edge">
<title>16505&#45;&gt;16508</title>
<path fill="none" stroke="midnightblue" stroke-width="2" d="M430.25,-150.09C430.25,-137.74 430.25,-123.68 430.25,-110.09"/>
<polygon fill="midnightblue" stroke="midnightblue" stroke-width="2" points="433.75,-111.87 430.25,-101.87 426.75,-111.87 433.75,-111.87"/>
<text text-anchor="middle" x="458.38" y="-118.95" font-family="Times New Roman,serif" font-size="14.00" fill="midnightblue">Transition</text>
</g>
<!-- 16523 -->
<g id="node13" class="node">
<title>16523</title>
<ellipse fill="mediumpurple" stroke="mediumpurple" cx="483.25" cy="-1094" rx="31.39" ry="18"/>
<text text-anchor="start" x="468.25" y="-1089.95" font-family="Times New Roman,serif" font-weight="bold" font-size="14.00" fill="white">Root</text>
</g>
<!-- 16523&#45;&gt;16478 -->
<g id="edge14" class="edge">
<title>16523&#45;&gt;16478</title>
<path fill="none" stroke="black" d="M483.25,-1075.66C483.25,-1056.84 483.25,-1025.19 483.25,-993.28"/>
<polygon fill="black" stroke="black" points="486.75,-993.51 483.25,-983.51 479.75,-993.51 486.75,-993.51"/>
</g>
</g>
</svg>
